<svg xmlns="http://www.w3.org/2000/svg" width="30" height="31" viewBox="0 0 30 31">
  <path fill-opacity=".3" fill-rule="evenodd" d="M28.0000701,27.0002539 L25.9999835,27.0002539 C23.7909652,27.0002539 21.9998763,25.2091463 21.9998763,23.0000389 L21.9998763,21.7150422 C22.8848027,20.6632496 23.5195121,19.4191427 23.9140292,18.1045339 C23.9549845,17.8829372 24.1682691,17.7734579 24.3105247,17.6211103 C25.0762782,16.8554807 25.2268436,15.5634272 24.652479,14.6434714 C24.5742615,14.5038523 24.4333908,14.3827656 24.4413709,14.2097751 C24.4413709,13.0368958 24.4472405,11.8621698 24.439854,10.6902138 C24.4084615,9.27522691 24.0040518,7.803324 23.0120216,6.75555443 C22.2111164,5.90900251 21.1113887,5.40493611 19.9768389,5.18920915 C18.5431369,4.91570877 17.0432204,4.92955856 15.6232361,5.29077427 C14.3926622,5.60133932 13.2365466,6.322056 12.5217071,7.39040241 C11.8887123,8.3191957 11.6113897,9.4469643 11.5645647,10.5584429 C11.5470218,11.7517672 11.5605417,12.9480593 11.5569144,14.1442854 C11.584152,14.3837549 11.3810239,14.5457974 11.2892865,14.7440473 C10.748293,15.7254697 10.986441,17.062568 11.855737,17.7763598 C12.0762761,17.9285756 12.1175612,18.206033 12.1974275,18.4452387 C12.5765121,19.6268896 13.2052859,20.719704 14.0001896,21.67191 L14.0001896,23.0000389 C14.0001896,25.2091463 12.2091667,27.0002539 10.0002143,27.0002539 L8.00006183,27.0002539 C8.00006183,27.0002539 4.37514813,27.9999449 2,33.0001807 L2,35.0002882 C2,36.1055674 2.89455515,37 4.00008656,37 L32.0002432,37 C33.1055108,37 34,36.1055674 34,35.0002882 L34,33.0001807 C31.6249838,28.0003406 28.0000701,27.0002539 28.0000701,27.0002539 Z" transform="translate(-3 -5)"/>
</svg>
