<svg xmlns="http://www.w3.org/2000/svg" width="24" height="24" viewBox="0 0 24 24">
  <g transform="translate(3)">
    <path d="M9.29326821,9.9668807 L7.51535274,8 L5.70556506,9.96857046 C5.37021389,10.3403177 5.14017963,10.8033119 5.04317722,11.3068604 C5.00299051,11.5096316 4.99883327,11.6448124 5.00021902,11.7005745 C5.00991926,11.7411288 5.00160476,11.7259209 5.00714776,11.7935113 C5.05010597,12.3933761 5.35358491,13 5.84691142,13 C6.17394809,13 6.47326979,12.746536 6.60907315,12.3545117 C6.76289125,11.9067252 7.12180014,11.6160865 7.52089574,11.6160865 C7.91860559,11.6160865 8.27751448,11.9067252 8.43271832,12.3545117 C8.49923426,12.5488341 8.70432505,13 9.1533076,13 C9.6466341,13 9.95011305,12.3933761 9.99307126,11.7935113 C9.99861425,11.7259209 9.99168551,11.7411288 10,11.7005745 C10,11.6448124 9.99584275,11.5096316 9.95704179,11.3068604 C9.86003939,10.8033119 9.63000512,10.3386279 9.29326821,9.9668807 L9.29326821,9.9668807 Z"/>
    <path d="M14,19.3245359 L14,1.67546406 C14,0.749848127 13.2460552,0 12.3153823,0 L1.68461773,0 C0.753944823,0 0,0.749848127 0,1.67546406 L0,19.3245359 C0,20.2501519 0.753944823,21 1.68461773,21 L12.313957,21 C13.24463,21 14,20.2501519 14,19.3245359 Z M2.06515321,5.20499494 L2.06515321,2.7357408 C2.06515321,2.2878164 2.4300112,1.92352346 2.881808,1.92352346 C3.33217958,1.92352346 3.69846279,2.2878164 3.69846279,2.7357408 L3.69846279,5.20499494 C3.69846279,5.65291934 3.33360481,6.01721228 2.881808,6.01721228 C2.4300112,6.0157948 2.06515321,5.65291934 2.06515321,5.20499494 Z M8.36322916,13.9097536 C8.18080016,13.9097536 8.00407208,13.8884914 7.83304489,13.8473844 L7.83304489,14.636922 C7.83304489,15.0848464 7.46676168,15.4491394 7.0163901,15.4491394 C6.56601853,15.4491394 6.19973532,15.0862639 6.19973532,14.636922 L6.19973532,13.8388795 C6.01730632,13.8856564 5.8277512,13.9097536 5.63534562,13.9097536 C4.43815535,13.9097536 3.4461977,12.9373608 3.31935254,11.6446169 C3.3008246,11.5085386 3.28229665,11.2051974 3.38348773,10.7757003 C3.54026265,10.1151536 3.90084496,9.51555856 4.42390308,9.04353696 C4.42532831,9.04211947 4.42675354,9.04070199 4.42817876,9.03928451 L6.4733788,7.22632467 C6.78550341,6.94991563 7.25582816,6.95133311 7.56510231,7.23057712 L9.57324646,9.04353696 C10.0963046,9.51414107 10.4554617,10.1137361 10.6136618,10.7742828 C10.7148529,11.20378 10.696325,11.5071212 10.677797,11.6431995 C10.5523771,12.9373608 9.56041942,13.9097536 8.36322916,13.9097536 Z M11.9334216,18.2642592 C11.9334216,18.7121836 11.5671383,19.0764765 11.1167668,19.0764765 C10.6663952,19.0764765 10.300112,18.7136011 10.300112,18.2642592 L10.300112,15.7950051 C10.300112,15.3470807 10.66497,14.9827877 11.1167668,14.9827877 C11.5671383,14.9827877 11.9334216,15.3470807 11.9334216,15.7950051 L11.9334216,18.2642592 Z"/>
    <path d="M16.3152108,4 L14.8755854,4 C14.8869884,4.10670732 14.8941153,4.21480044 14.8941153,4.32427938 L14.8941153,18.9764412 C14.8941153,20.5978381 13.542863,21.9115854 11.8751782,21.9115854 L4,21.9115854 L4,22.3619734 C4,23.2669069 4.75402158,24 5.68478925,24 L16.3152108,24 C17.2459784,24 18,23.2669069 18,22.3619734 L18,5.63941242 C18,4.73447894 17.2459784,4 16.3152108,4 Z"/>
  </g>
</svg>
