<svg width="18px" height="24px" viewBox="0 0 18 24" version="1.1" xmlns="http://www.w3.org/2000/svg" xmlns:xlink="http://www.w3.org/1999/xlink">
  <g id="Symbols" stroke="none" stroke-width="1" fill="none" fill-rule="evenodd">
    <g id="menu/sub/Sport-Closed" transform="translate(-19.000000, -16.000000)" fill="#1E1E1E">
      <g id="ICN/M/ESport/CS:GO-Static" transform="translate(10.000000, 10.000000)">
        <path d="M19.271388,11.0432899 C19.3758366,11.2639596 19.4641564,11.4506261 19.5772523,11.6895511 C19.763608,11.4504254 19.9171231,11.2535279 20.0809374,11.0432899 L19.271388,11.0432899 Z M20.663809,28.9210453 L20.663809,29.4234701 C20.1707146,29.6720244 19.6411846,29.5474463 19.1261316,29.5768355 C18.8451406,29.4054153 18.4899183,29.5097318 18.2108706,29.3113297 C18.1534481,29.2705058 18.0290815,29.2882597 17.9542671,29.3226641 C17.6860043,29.4458379 17.4363965,29.3821446 17.2012657,29.250445 C17.1350988,29.213232 17.058827,29.0739092 17.0788423,29.0140275 C17.2121478,28.6144147 17.1813476,28.1667562 17.3961716,27.7978366 C17.463213,27.6827874 17.4923615,27.5521911 17.4499019,27.4775646 C17.3080462,27.227907 17.3774195,26.9668146 17.3637197,26.7113393 C17.3549752,26.5478431 17.386164,26.379432 17.2214753,26.2675926 C17.1903836,26.2464284 17.1741577,26.1867472 17.168911,26.1424127 C17.1332527,25.8391925 17.145495,25.5215284 17.0597015,25.2347581 C16.9382496,24.8288262 16.9873162,24.4245995 16.9755596,24.0193697 C16.9696328,23.8122411 16.9900367,23.6307904 17.1163466,23.4240631 C17.2432395,23.2165332 17.2311915,22.8927506 17.0945824,22.6291506 C17.0667943,22.5754878 17.0540661,22.5133994 17.0349253,22.456928 L16.3990035,22.456928 C16.1137374,22.0349474 15.8137028,21.5930062 15.5161943,21.1494601 C15.4471125,21.0465478 15.3872611,20.9369151 15.3208998,20.8319966 C15.1665102,20.5882569 15.1185124,20.5630805 14.761444,20.5378038 C14.62843,20.3805265 14.4883232,20.2147233 14.3193594,20.0147164 C14.2527066,20.1591547 14.2084981,20.3051979 14.1254251,20.4217516 C14.0304983,20.5547553 13.8595913,20.6415186 13.7951732,20.7838505 C13.6625478,21.0766391 13.5652892,21.388987 13.4790098,21.7007331 C13.3955481,22.0019472 13.2791487,22.2964409 13.2754565,22.6193208 C13.2746792,22.6873272 13.2159937,22.8027776 13.1666357,22.8139114 C12.9271326,22.8673736 12.8963325,23.0875418 12.791981,23.2535456 C12.7158065,23.3749139 12.6235031,23.4908658 12.5194431,23.5873586 C12.3084084,23.7831528 12.1957983,24.0377254 12.2207688,24.3091491 C12.2673091,24.8161879 12.0544283,25.2344572 11.8687528,25.6674713 C11.7595433,25.921743 11.6129266,26.1641788 11.54093,26.4286815 C11.4726254,26.6795428 11.4429912,26.9205743 11.1562677,27.0152616 C11.1043835,27.0323134 11.0875745,27.1483656 11.045115,27.2118583 C10.8482658,27.5072547 10.7393478,27.8283291 10.752076,28.1911301 C10.7542135,28.250711 10.7284657,28.3135015 10.7067016,28.3711766 C10.6295554,28.5750954 10.6017672,28.7920538 10.7153489,28.9759118 C10.8914055,29.260676 10.8476829,29.5570755 10.8464198,29.8656119 C10.5953545,29.9023233 10.3674137,29.8728338 10.1361694,29.9656154 C9.85148631,30.0800627 9.55708705,29.8720313 9.25821837,29.8733353 C9.22304592,29.8734356 9.16814969,29.8180676 9.15561586,29.7774443 C9.07798384,29.5249781 8.9399174,29.2842475 9.02882014,28.9988815 C9.1254958,28.6884394 9.24840506,28.3784988 9.28649236,28.0591296 C9.3300207,27.6951249 9.55164601,27.3773605 9.51550195,26.9982099 C9.51239278,26.9648085 9.56855211,26.9254892 9.61888175,26.8609934 C9.38413964,26.6449378 9.35936346,26.4183501 9.4689616,26.0951693 C9.55106304,25.8533354 9.59517435,25.6177204 9.7688019,25.41661 C9.84147868,25.3324546 9.86353433,25.1870133 9.87703978,25.0657452 C9.95399166,24.3760521 10.2602446,23.7913778 10.6316929,23.2307765 C10.8559416,22.8921488 11.0856313,22.5520166 11.0485156,22.1044583 C11.0334556,21.9220046 11.0326783,21.7357393 11.0494872,21.5534862 C11.0698911,21.332315 11.0012951,21.1124478 11.1307142,20.8850577 C11.2247665,20.7200569 11.1539358,20.4886547 11.2148561,20.2746051 C11.2745132,20.0650692 11.4043209,19.7707761 11.1838616,19.5368662 C11.0687252,19.4146954 11.2333167,19.1957309 11.0463781,19.0948247 C11.1030232,19.0018425 11.1595712,18.9088603 11.2332196,18.7879935 C11.1463572,18.675452 10.9226915,18.545959 11.0804817,18.3792531 C11.1850275,18.2686173 11.0292777,18.0073243 11.3046333,18.0144459 C11.3461212,18.0155493 11.4324978,17.8597765 11.4274454,17.7814388 C11.4074301,17.4771152 11.4345381,17.17881 11.3608897,16.8638541 C11.2652829,16.4549131 11.337571,16.0040448 11.337571,15.5929973 C11.4465862,15.5239879 11.5370435,15.4668144 11.6483905,15.3964007 C11.5736734,15.3315037 11.5226636,15.2516614 11.4595086,15.2396249 C11.3232883,15.2138467 11.134212,15.2839595 11.0819392,15.1076243 C11.0328726,14.942122 10.9986718,14.7186438 11.0694053,14.5822298 C11.1552961,14.416527 11.1264391,14.2669731 11.1421793,14.1102976 C11.1844445,13.6905237 11.2803429,13.276768 11.246725,12.8476658 C11.2358429,12.7072396 11.3432064,12.6184702 11.4985676,12.6242879 C11.6441154,12.6297043 11.7902463,12.6310083 11.9355998,12.6241876 C12.1754915,12.6128532 12.2569128,12.4837614 12.1741313,12.2369123 C12.0442264,11.8495367 12.0785244,11.4421002 12.1422623,11.0658584 C12.1977415,10.7382642 12.2716814,10.3988341 12.4000317,10.0777597 C12.6402148,9.476836 12.9991293,8.98203437 13.593466,8.76357138 C13.891946,8.65383836 14.261354,8.50508693 14.6013219,8.90038659 C14.6200741,8.71442222 14.6557324,8.60509042 14.6371745,8.50689241 C14.4642271,7.59713147 14.4921125,7.5615234 14.8311088,6.86541084 C15.1064644,6.30009522 15.5636091,6.01553163 16.1762122,6.00690545 C16.4252371,6.00329449 16.6796058,5.9671849 16.9133763,6.10500315 C17.2141882,6.28224104 17.5184008,6.45356096 17.8197956,6.6298961 C17.9248272,6.6912824 17.8532192,6.82428604 17.878384,6.87032576 C18.1209962,7.31417274 18.0181022,7.79212323 18.0457932,8.28772729 C17.9414418,8.35784007 17.8337869,8.4542326 17.7089344,8.5088985 C17.4708888,8.61321508 17.4025843,8.70368965 17.4620471,8.94191261 C17.4839084,9.02917744 17.5441486,9.10631153 17.604,9.22116007 C17.8795499,9.15485886 18.1854143,9.11915049 18.4563004,8.99908612 C18.5802785,8.944019 18.6522751,8.73348006 18.6310939,8.54119652 C18.6259444,8.49515679 18.7011473,8.43968846 18.7674115,8.35121998 C18.7951025,8.45383138 18.8131745,8.4975641 18.8179354,8.54280139 C18.8498044,8.84331338 18.9614429,8.97601611 19.2330092,9.01242661 C19.3286161,9.02526557 19.4271378,9.01443269 19.5242993,9.01443269 C20.7709781,9.01443269 22.0177541,9.01363026 23.264433,9.01503452 C23.5570833,9.01543574 23.8542031,8.97080028 24.1519058,9.14412629 C24.1107094,8.87972388 24.0774801,8.66667733 24.0406559,8.43015954 L24.3434111,8.43015954 L24.3434111,9.2037071 C24.4528149,9.21112963 24.5291838,9.21634546 24.6407252,9.22376798 L24.6407252,9.61625912 C25.0763972,9.61625912 25.4891391,9.67433537 25.8764248,9.59700067 C26.1592618,9.54052929 26.4340344,9.5179608 26.714151,9.52237419 C26.8087862,9.52387876 26.902547,9.59960859 27,9.64283978 C26.9458811,9.84214463 26.8643626,9.92860703 26.6875287,9.9210842 C26.5311959,9.91456441 26.361552,9.90824524 26.2198906,9.96281083 C26.0711363,10.0199843 25.9841768,9.89169501 25.8441671,9.90473458 C25.4588248,9.94084417 25.0681385,9.91717233 24.6794926,9.91717233 L24.0906941,9.91717233 C24.0786461,9.97254036 24.0686384,10.0179783 24.0508579,10.0998266 C23.9941156,10.1048419 23.9197871,10.1166778 23.8454585,10.1169787 C23.3273936,10.1185836 22.8092315,10.119386 22.2911665,10.1171793 C22.0437934,10.116076 21.8558831,10.1886963 21.7265612,10.4374513 C21.633189,10.6168959 21.4942481,10.7857082 21.2527047,10.8457905 C21.2527047,11.0847156 21.197517,11.3497198 21.2688335,11.5715932 C21.334709,11.776816 21.3877592,11.9804339 21.4846291,12.2087267 L21.0646973,12.2087267 C20.9801668,12.5666129 20.8976767,12.9160734 20.7967259,13.3432699 C20.7227861,13.4193006 20.6070667,13.610882 20.4413093,13.6879158 C20.2860452,13.7599343 20.2069558,13.900862 20.0947343,13.9963518 C19.9156657,14.1486139 19.7150273,14.1831186 19.5667589,14.1125043 C19.4088715,14.0373763 19.2633236,14.0579387 19.1140836,14.0268444 C18.8186156,13.9652575 18.5260624,13.8522144 18.2787864,13.696542 C18.0716382,13.5660459 17.856717,13.4514983 17.6476255,13.3266193 C17.4699172,13.4957325 17.4699172,13.4957325 17.4587436,13.7740773 C17.791133,13.9233302 17.9640804,14.1800092 17.943968,14.559862 C17.9137508,15.1310955 17.8927639,15.7034325 17.8397137,16.2725597 C17.8231963,16.4499982 17.7194278,16.6199138 17.6486943,16.7901304 C17.6195459,16.8602432 17.5720339,16.9222313 17.5119881,17.0230372 C17.3317536,17.0670708 17.1224678,17.065466 16.8913206,16.8748876 C16.886754,17.2055912 16.8444888,17.4584586 16.9564188,17.7359006 C17.0133554,17.8770289 17.07447,17.9919778 17.1712428,18.0950907 C17.5923406,18.5434514 17.9273534,19.0573108 18.159375,19.6285444 C18.3556412,20.1120116 18.6259444,20.5676945 18.7218427,21.0927881 C18.8761351,21.2119497 18.817061,21.4923005 19.0497627,21.5546899 C19.0738587,21.5611094 19.1100028,21.6002281 19.1074766,21.6195868 C19.07279,21.8899072 19.1774329,22.1132851 19.2970386,22.3434837 C19.3442591,22.4343595 19.3502831,22.6073846 19.2962613,22.6839169 C19.1327386,22.9158206 19.2446686,23.1646759 19.2080387,23.4008927 C19.1733521,23.6243709 19.273817,23.8602869 19.1446895,24.076142 C19.0264439,24.2739423 19.2147429,24.5343325 19.0191568,24.7281206 C18.9787377,24.7681421 18.9814582,24.9108752 19.0187682,24.9686506 C19.1764613,25.2124906 19.0852266,25.4787988 19.108934,25.7333713 C19.114958,25.7975662 19.1262288,25.8822231 19.0943598,25.9256549 C18.7806254,26.352751 18.9346264,26.8443429 18.928408,27.305041 C18.9246187,27.5896046 19.1506163,27.8139856 19.3211347,28.0330504 C19.4421007,28.1885222 19.5911464,28.3210244 19.7309618,28.4602469 C19.7748787,28.5039796 19.8273459,28.565065 19.8795217,28.5691774 C20.1825683,28.5928493 20.4109949,28.7831267 20.663809,28.9210453 Z" id="Fill-1"></path>
      </g>
    </g>
  </g>
</svg>
