
<svg width="213px" height="50px" viewBox="0 0 213 50" version="1.1" xmlns="http://www.w3.org/2000/svg" xmlns:xlink="http://www.w3.org/1999/xlink">
    <defs>
        <polygon id="path-1" points="0.271588235 0.151532847 18.1905882 0.151532847 18.1905882 47.649635 0.271588235 47.649635"></polygon>
    </defs>
    <g id="Symbols" stroke="none" stroke-width="1" fill="none" fill-rule="evenodd">
        <g id="BLCK/Header-Signed-in-ESPORT" transform="translate(-24.000000, -16.000000)">
            <g id="Group-6">
                <g id="LOGO" transform="translate(24.000000, 16.000000)">
                    <g id="Group-39">
                        <g id="Group-Copy" transform="translate(46.000000, 9.000000)">
                            <path d="M11.2244692,17.7780028 L9.50083348,8.8035177 L7.77636427,17.7780028 L11.2244692,17.7780028 Z M13.5715476,30 L12.2871556,23.3157834 L6.71284436,23.3157834 L5.42928584,30 L0,30 L5.75851026,0 L13.2414897,0 L19,30 L13.5715476,30 Z" id="Fill-1" fill="#FFFFFF" opacity="0.901841518"></path>
                            <path d="M26.291533,12.2214829 L31.7640226,12.2214829 L31.7640226,5.51884746 L26.291533,5.51884746 L26.291533,12.2214829 Z M38,30 L32.3457276,30 L27.8548654,17.7785171 L26.291533,17.7785171 L26.291533,30 L21,30 L21,0 L33.6727423,0 L37.036551,3.15040356 L37.036551,14.1690051 L33.4364246,17.7021437 L38,30 Z" id="Fill-2" fill="#FFFFFF" opacity="0.901841518"></path>
                            <polygon id="Fill-3" fill="#FFFFFF" opacity="0.901841518" points="57 26.8686898 53.5909925 30 44.3185246 30 41 26.8686898 41 3.15040356 44.3185246 0 53.5909925 0 57 3.16949692 57 7.79095669 51.797636 7.79095669 51.797636 5.53794081 46.2015488 5.53794081 46.2015488 24.4629271 51.797636 24.4629271 51.797636 22.0372031 57 22.0372031"></polygon>
                            <path d="M70.2244692,17.7780028 L68.5008335,8.8035177 L66.7763643,17.7780028 L70.2244692,17.7780028 Z M72.5715476,30 L71.2871556,23.3157834 L65.7128444,23.3157834 L64.4292858,30 L59,30 L64.7585103,0 L72.2414897,0 L78,30 L72.5715476,30 Z" id="Fill-4" fill="#FFFFFF" opacity="0.901841518"></path>
                            <polygon id="Fill-5" fill="#FFFFFF" opacity="0.901841518" points="91.2222387 30 85.3518986 14.2840199 85.3518986 30 80 30 80 0 85.7600871 0 91.648943 15.7350729 91.648943 0 96.9823259 0 96.9823259 29.9618144 97 30"></polygon>
                            <polygon id="Fill-6" fill="#FFFFFF" opacity="0.901841518" points="114 30 100 30 100 0 113.889056 0 113.889056 5.53778061 105.363151 5.53778061 105.363151 12.2219972 112.705649 12.2219972 112.705649 17.7780028 105.363151 17.7780028 105.363151 24.4622194 114 24.4622194"></polygon>
                            <path d="M121.277907,24.4629271 L126.703066,24.4629271 L126.703066,17.7785171 L121.277907,17.7785171 L121.277907,24.4629271 Z M121.277907,12.2214829 L126.703066,12.2214829 L126.703066,5.53794081 L121.277907,5.53794081 L121.277907,12.2214829 Z M132,26.8686898 L128.61486,30 L116,30 L116,0 L128.61486,0 L132,3.15040356 L132,12.3742298 L129.961636,14.9717939 L132,17.6257702 L132,26.8686898 Z" id="Fill-7" fill="#FFB960" opacity="0.852008929"></path>
                            <polygon id="Fill-8" fill="#FFB960" opacity="0.852008929" points="149 30 134 30 134 0 148.881131 0 148.881131 5.53778061 139.746233 5.53778061 139.746233 12.2219972 147.613196 12.2219972 147.613196 17.7780028 139.746233 17.7780028 139.746233 24.4622194 149 24.4622194"></polygon>
                            <polygon id="Fill-9" fill="#FFB960" opacity="0.852008929" points="151 0 151 5.53864846 156.314882 5.53864846 156.314882 30 161.685118 30 161.685118 5.53864846 167 5.53864846 167 0"></polygon>
                        </g>
                        <g id="Logo/Stone/E-sport">
                            <g id="Group-32">
                                <g id="Group-3" transform="translate(17.647059, 0.199007)">
                                    <mask id="mask-2" fill="white">
                                        <use xlink:href="#path-1"></use>
                                    </mask>
                                    <g id="Clip-2"></g>
                                    <path d="M5.21276471,0.151532847 L0.271588235,13.0736934 L2.823,19.7449927 L5.21276471,13.2849635 L12.5684118,33.1657226 L6.06123529,41.820438 C5.63805882,42.3834745 4.78782353,42.3834745 4.36429412,41.820438 L3.33794118,40.4554161 L0.271588235,44.3823066 L1.58311765,46.0619562 C1.71511765,46.2066569 1.85558824,46.3432993 2.00488235,46.4711825 C4.00958824,48.1904234 7.071,48.0071825 8.84241176,46.0619562 L18.1907647,34.0910365 L5.21276471,0.151532847 Z" id="Fill-1" fill="#47D469" mask="url(#mask-2)"></path>
                                </g>
                                <polygon id="Fill-10" fill="#47D469" points="17.9186471 26.8388321 15.3675882 19.944 9.88217647 34.2900438 14.8522941 40.6544234 17.9186471 36.5761752 15.5041765 33.3647299"></polygon>
                                <path d="M12.1292118,42.0193401 L5.62203529,33.3646248 L12.9773294,13.4838657 L20.3329765,33.3646248 L13.8261529,42.0193401 C13.4026235,42.5823766 12.5523882,42.5823766 12.1292118,42.0193401 Z M12.9773294,0.350435036 L3.52941176e-05,34.2899387 L9.34768235,46.2608584 C9.47968235,46.4055591 9.62085882,46.5422015 9.76944706,46.6700847 C11.7741529,48.3893255 14.8355647,48.2060847 16.6073294,46.2608584 L25.9553294,34.2899387 L12.9773294,0.350435036 Z" id="Fill-12" fill="#DA80FF"></path>
                                <polygon id="Fill-14" fill="#A944D3" points="20.3330471 33.3647299 17.9185765 36.5761752 20.9852824 40.6544234 25.9554 34.2900438 20.4699882 19.944 17.9185765 26.8388321"></polygon>
                                <polygon id="Fill-16" fill="#A944D3" style="mix-blend-mode: multiply;" points="17.9186471 36.576 14.8522941 40.6545985 17.9186471 44.5814891 20.985 40.6545985"></polygon>
                                <polygon id="Fill-18" fill="#A944D3" style="mix-blend-mode: multiply;" points="17.9186471 26.8388321 20.4700588 19.944 17.9186471 13.2727007 15.3675882 19.944"></polygon>
                                <path d="M18.8350941,42.0193401 L12.3279176,33.3646248 L19.6832118,13.4838657 L27.0388588,33.3646248 L20.5320353,42.0193401 C20.1085059,42.5823766 19.2582706,42.5823766 18.8350941,42.0193401 Z M19.6832118,0.350435036 L6.70591765,34.2899387 L16.0535647,46.2608584 C16.1855647,46.4055591 16.3267412,46.5422015 16.4753294,46.6700847 C18.4800353,48.3893255 21.5414471,48.2060847 23.3132118,46.2608584 L32.6612118,34.2899387 L19.6832118,0.350435036 Z" id="Fill-22" fill="#000000" opacity="0.5"></path>
                                <path d="M15.3056824,42.0193401 L8.79850588,33.3646248 L16.1538,13.4838657 L23.5094471,33.3646248 L17.0026235,42.0193401 C16.5790941,42.5823766 15.7288588,42.5823766 15.3056824,42.0193401 Z M16.1538,0.350435036 L3.17650588,34.2899387 L12.5241529,46.2608584 C12.6561529,46.4055591 12.7973294,46.5422015 12.9459176,46.6700847 C14.9506235,48.3893255 18.0120353,48.2060847 19.7838,46.2608584 L29.1318,34.2899387 L16.1538,0.350435036 Z" id="Fill-24" fill="#000000" opacity="0.5"></path>
                                <path d="M17.0703882,42.0193401 L10.5632118,33.3646248 L17.9185059,13.4838657 L25.2741529,33.3646248 L18.7673294,42.0193401 C18.3438,42.5823766 17.4935647,42.5823766 17.0703882,42.0193401 Z M17.9185059,0.350435036 L4.94121176,34.2899387 L14.2888588,46.2608584 C14.4208588,46.4055591 14.5620353,46.5422015 14.7106235,46.6700847 C16.7153294,48.3893255 19.7767412,48.2060847 21.5485059,46.2608584 L30.8965059,34.2899387 L17.9185059,0.350435036 Z" id="Fill-26" fill="#FFB960"></path>
                                <polygon id="Fill-28" fill="#FFECBD" points="17.9186471 1.63291095 30.5274706 34.6954511 30.8966471 34.2900788 17.9186471 0.350575182 4.941 34.2900788 5.31017647 34.6954511"></polygon>
                                <path d="M19.3307294,42.2151942 L25.2742588,34.2226686 L25.2742588,33.3646248 L18.7670824,42.0193401 C18.3439059,42.5823766 17.4936706,42.5823766 17.0704941,42.0193401 L10.5629647,33.3646248 L10.5629647,34.330581 L16.4969647,42.2225518 C17.2049647,43.1643328 18.6276706,43.1608292 19.3307294,42.2151942" id="Fill-30" fill="#FFECBD"></path>
                            </g>
                        </g>
                    </g>
                </g>
            </g>
        </g>
    </g>
</svg>
