<?xml version="1.0" encoding="UTF-8"?>
<svg width="180px" height="42px" viewBox="0 0 180 42" version="1.1" xmlns="http://www.w3.org/2000/svg" xmlns:xlink="http://www.w3.org/1999/xlink">
    <!-- Generator: Sketch 52.2 (67145) - http://www.bohemiancoding.com/sketch -->
    <title>Group 39 Copy</title>
    <desc>Created with Sketch.</desc>
    <defs>
        <polygon id="path-1" points="0.226323529 0.126277372 15.1588235 0.126277372 15.1588235 39.7080292 0.226323529 39.7080292"></polygon>
    </defs>
    <g id="cvi" stroke="none" stroke-width="1" fill="none" fill-rule="evenodd">
        <g id="DCVI.-Colors-palette-Copy" transform="translate(-316.000000, -548.000000)">
            <g id="Group-3" transform="translate(296.000000, 140.000000)">
                <g id="clr-blck-copy-21" transform="translate(0.000000, 388.000000)">
                    <g id="LOGO" transform="translate(20.000000, 20.000000)">
                        <g id="Group-39">
                            <g id="Group-Copy" transform="translate(38.873239, 7.500000)">
                                <path d="M9.48546693,14.8150023 L8.02887336,7.33626475 L6.57157544,14.8150023 L9.48546693,14.8150023 Z M11.4689135,25 L10.3835118,19.4298195 L5.67282622,19.4298195 L4.58812888,25 L0,25 L4.8663467,0 L11.1899913,0 L16.056338,25 L11.4689135,25 Z" id="Fill-1" fill="#FFFFFF" opacity="0.901841518"></path>
                                <path d="M22.2181969,10.1845691 L26.842836,10.1845691 L26.842836,4.59903955 L22.2181969,4.59903955 L22.2181969,10.1845691 Z M32.1126761,25 L27.3344177,25 L23.5393228,14.8154309 L22.2181969,14.8154309 L22.2181969,25 L17.7464789,25 L17.7464789,0 L28.4558386,0 L31.2984938,2.6253363 L31.2984938,11.8075043 L28.2561335,14.7517864 L32.1126761,25 Z" id="Fill-2" fill="#FFFFFF" opacity="0.901841518"></path>
                                <polygon id="Fill-3" fill="#FFFFFF" opacity="0.901841518" points="48.1690141 22.3905748 45.2881626 25 37.4522743 25 34.6478873 22.3905748 34.6478873 2.6253363 37.4522743 0 45.2881626 0 48.1690141 2.64124743 48.1690141 6.49246391 43.7726502 6.49246391 43.7726502 4.61495068 39.0435624 4.61495068 39.0435624 20.3857726 43.7726502 20.3857726 43.7726502 18.3643359 48.1690141 18.3643359"></polygon>
                                <path d="M59.3446219,14.8150023 L57.8880283,7.33626475 L56.4307304,14.8150023 L59.3446219,14.8150023 Z M61.3280684,25 L60.2426667,19.4298195 L55.5319811,19.4298195 L54.4472838,25 L49.8591549,25 L54.7255016,0 L61.0491463,0 L65.915493,25 L61.3280684,25 Z" id="Fill-4" fill="#FFFFFF" opacity="0.901841518"></path>
                                <polygon id="Fill-5" fill="#FFFFFF" opacity="0.901841518" points="77.0892158 25 72.128365 11.9033499 72.128365 25 67.6056338 25 67.6056338 0 72.4733131 0 77.449811 13.1125607 77.449811 0 81.9568951 0 81.9568951 24.9681787 81.971831 25"></polygon>
                                <polygon id="Fill-6" fill="#FFFFFF" opacity="0.901841518" points="96.3380282 25 84.5070423 25 84.5070423 0 96.2442724 0 96.2442724 4.61481717 89.0392822 4.61481717 89.0392822 10.1849977 95.2442107 10.1849977 95.2442107 14.8150023 89.0392822 14.8150023 89.0392822 20.3851828 96.3380282 20.3851828"></polygon>
                                <path d="M102.488372,20.3857726 L107.073014,20.3857726 L107.073014,14.8154309 L102.488372,14.8154309 L102.488372,20.3857726 Z M102.488372,10.1845691 L107.073014,10.1845691 L107.073014,4.61495068 L102.488372,4.61495068 L102.488372,10.1845691 Z M111.549296,22.3905748 L108.688614,25 L98.028169,25 L98.028169,0 L108.688614,0 L111.549296,2.6253363 L111.549296,10.3118581 L109.826735,12.4764949 L111.549296,14.6881419 L111.549296,22.3905748 Z" id="Fill-7" fill="#FFB960" opacity="0.852008929"></path>
                                <polygon id="Fill-8" fill="#FFB960" opacity="0.852008929" points="125.915493 25 113.239437 25 113.239437 0 125.81504 0 125.81504 4.61481717 118.095408 4.61481717 118.095408 10.1849977 124.743546 10.1849977 124.743546 14.8150023 118.095408 14.8150023 118.095408 20.3851828 125.915493 20.3851828"></polygon>
                                <polygon id="Fill-9" fill="#FFB960" opacity="0.852008929" points="127.605634 0 127.605634 4.61554038 132.097083 4.61554038 132.097083 25 136.635311 25 136.635311 4.61554038 141.126761 4.61554038 141.126761 0"></polygon>
                            </g>
                            <g id="Logo-Copy">
                                <g id="Group-32">
                                    <g id="Group-3" transform="translate(14.705882, 0.165839)">
                                        <mask id="mask-2" fill="white">
                                            <use xlink:href="#path-1"></use>
                                        </mask>
                                        <g id="Clip-2"></g>
                                        <path d="M4.34397059,0.126277372 L0.226323529,10.8947445 L2.3525,16.4541606 L4.34397059,11.0708029 L10.4736765,27.6381022 L5.05102941,34.850365 C4.69838235,35.319562 3.98985294,35.319562 3.63691176,34.850365 L2.78161765,33.7128467 L0.226323529,36.9852555 L1.31926471,38.3849635 C1.42926471,38.5055474 1.54632353,38.6194161 1.67073529,38.7259854 C3.34132353,40.1586861 5.8925,40.0059854 7.36867647,38.3849635 L15.1589706,28.4091971 L4.34397059,0.126277372 Z" id="Fill-1" fill="#5694FF" mask="url(#mask-2)"></path>
                                    </g>
                                    <polygon id="Fill-10" fill="#6BA8FF" points="14.9322059 22.3656934 12.8063235 16.62 8.23514706 28.5750365 12.3769118 33.8786861 14.9322059 30.480146 12.9201471 27.8039416"></polygon>
                                    <path d="M10.1076765,35.0161168 L4.68502941,27.803854 L10.8144412,11.2365547 L16.9441471,27.803854 L11.5217941,35.0161168 C11.1688529,35.4853139 10.4603235,35.4853139 10.1076765,35.0161168 Z M10.8144412,0.292029197 L2.94117647e-05,28.5749489 L7.78973529,38.5507153 C7.89973529,38.6712993 8.01738235,38.7851679 8.14120588,38.8917372 C9.81179412,40.324438 12.3629706,40.1717372 13.8394412,38.5507153 L21.6294412,28.5749489 L10.8144412,0.292029197 Z" id="Fill-12" fill="#DA80FF"></path>
                                    <polygon id="Fill-14" fill="#A944D3" points="16.9442059 27.8039416 14.9321471 30.480146 17.4877353 33.8786861 21.6295 28.5750365 17.0583235 16.62 14.9321471 22.3656934"></polygon>
                                    <polygon id="Fill-16" fill="#A944D3" style="mix-blend-mode: multiply;" points="14.9322059 30.48 12.3769118 33.8788321 14.9322059 37.1512409 17.4875 33.8788321"></polygon>
                                    <polygon id="Fill-18" fill="#A944D3" style="mix-blend-mode: multiply;" points="14.9322059 22.3656934 17.0583824 16.62 14.9322059 11.0605839 12.8063235 16.62"></polygon>
                                    <path d="M15.6959118,35.0161168 L10.2732647,27.803854 L16.4026765,11.2365547 L22.5323824,27.803854 L17.1100294,35.0161168 C16.7570882,35.4853139 16.0485588,35.4853139 15.6959118,35.0161168 Z M16.4026765,0.292029197 L5.58826471,28.5749489 L13.3779706,38.5507153 C13.4879706,38.6712993 13.6056176,38.7851679 13.7294412,38.8917372 C15.4000294,40.324438 17.9512059,40.1717372 19.4276765,38.5507153 L27.2176765,28.5749489 L16.4026765,0.292029197 Z" id="Fill-22" fill="#000000" opacity="0.5"></path>
                                    <path d="M12.7547353,35.0161168 L7.33208824,27.803854 L13.4615,11.2365547 L19.5912059,27.803854 L14.1688529,35.0161168 C13.8159118,35.4853139 13.1073824,35.4853139 12.7547353,35.0161168 Z M13.4615,0.292029197 L2.64708824,28.5749489 L10.4367941,38.5507153 C10.5467941,38.6712993 10.6644412,38.7851679 10.7882647,38.8917372 C12.4588529,40.324438 15.0100294,40.1717372 16.4865,38.5507153 L24.2765,28.5749489 L13.4615,0.292029197 Z" id="Fill-24" fill="#000000" opacity="0.5"></path>
                                    <path d="M14.2253235,35.0161168 L8.80267647,27.803854 L14.9320882,11.2365547 L21.0617941,27.803854 L15.6394412,35.0161168 C15.2865,35.4853139 14.5779706,35.4853139 14.2253235,35.0161168 Z M14.9320882,0.292029197 L4.11767647,28.5749489 L11.9073824,38.5507153 C12.0173824,38.6712993 12.1350294,38.7851679 12.2588529,38.8917372 C13.9294412,40.324438 16.4806176,40.1717372 17.9570882,38.5507153 L25.7470882,28.5749489 L14.9320882,0.292029197 Z" id="Fill-26" fill="#FFB960"></path>
                                    <polygon id="Fill-28" fill="#FFECBD" points="14.9322059 1.36075912 25.4395588 28.9128759 25.7472059 28.5750657 14.9322059 0.292145985 4.1175 28.5750657 4.42514706 28.9128759"></polygon>
                                    <path d="M16.1089412,35.1793285 L21.0618824,28.5188905 L21.0618824,27.803854 L15.6392353,35.0161168 C15.2865882,35.4853139 14.5780588,35.4853139 14.2254118,35.0161168 L8.80247059,27.803854 L8.80247059,28.6088175 L13.7474706,35.1854599 C14.3374706,35.9702774 15.5230588,35.9673577 16.1089412,35.1793285" id="Fill-30" fill="#FFECBD"></path>
                                </g>
                            </g>
                        </g>
                    </g>
                </g>
            </g>
        </g>
    </g>
</svg>