<svg xmlns="http://www.w3.org/2000/svg" width="213" height="29" viewBox="0 0 213 29">
  <g fill="none" fill-rule="evenodd">
    <path fill="#F9B862" d="M207.884196 22.9497991L206.519665 22.9497991 206.519665 21.6470759C206.519665 21.6470759 206.495893 22.3222098 206.828705 22.6407589 207.180536 22.9735714 207.884196 22.9497991 207.884196 22.9497991zM195.123214 7.27433036L211.231339 7.27433036C211.915982 7.27433036 212.472254 7.83060268 212.472254 8.51524554L212.472254 12.7277009 196.359375 12.7277009C195.674732 12.7277009 195.11846 12.1714286 195.11846 11.4867857L195.11846 7.27433036 195.123214 7.27433036z"/>
    <path fill="#F9B862" d="M203.267612,22.9497991 L211.293147,22.9497991 C211.97779,22.9497991 212.534062,23.5060714 212.534062,24.1907143 L212.534062,28.4031696 L203.272366,28.4031696 L203.272366,22.9497991 L203.267612,22.9497991 Z"/>
    <path fill="#F9B862" d="M202.492634.209196429L206.519665.209196429 206.519665 28.4031696 202.492634 28.4031696C201.123348 28.4031696 200.015558 27.2953795 200.015558 25.9260938L200.015558 2.68627232C200.015558 1.31698661 201.123348.209196429 202.492634.209196429zM177.831228 22.9497991L176.466696 22.9497991 176.466696 21.6470759C176.466696 21.6470759 176.442924 22.3222098 176.775737 22.6407589 177.127567 22.9735714 177.831228 22.9497991 177.831228 22.9497991z"/>
    <path fill="#F9B862" d="M173.214643,22.9497991 L188.176942,22.9497991 C188.861585,22.9497991 189.417857,23.5060714 189.417857,24.1907143 L189.417857,28.4031696 L173.214643,28.4031696 L173.214643,22.9497991 Z"/>
    <path fill="#F9B862" d="M169.962589,17.83875 L176.466696,17.83875 L176.466696,28.4031696 L172.439665,28.4031696 C171.070379,28.4031696 169.962589,27.2953795 169.962589,25.9260938 L169.962589,17.83875 Z"/>
    <path fill="#F9B862" d="M188.305312,7.27433036 L172.44442,7.27433036 C171.075134,7.27433036 169.967344,8.38212054 169.967344,9.75140625 L169.967344,20.2872991 L188.310067,20.2872991 C189.679353,20.2872991 190.787143,19.1795089 190.787143,17.8102232 L190.787143,9.75140625 C190.782388,8.38212054 189.674598,7.27433036 188.305312,7.27433036 Z M184.340089,15.2665848 C184.340089,15.9512277 183.783817,16.5075 183.099174,16.5075 L176.471451,16.5075 L176.471451,12.2950446 L183.099174,12.2950446 C183.783817,12.2950446 184.340089,12.851317 184.340089,13.5359598 L184.340089,15.2665848 Z"/>
    <polygon fill="#F9B862" points="144.807 3.927 151.311 .238 151.311 12.785 144.807 12.785"/>
    <path fill="#F9B862" d="M163.149442,7.27433036 L144.806719,7.27433036 L144.806719,28.4031696 L163.149442,28.4031696 C164.518728,28.4031696 165.626518,27.2953795 165.626518,25.9260938 L165.626518,9.75140625 C165.626518,8.38212054 164.518728,7.27433036 163.149442,7.27433036 Z M159.184219,21.7088839 C159.184219,22.3935268 158.627946,22.9497991 157.943304,22.9497991 L151.31558,22.9497991 L151.31558,12.7847545 L157.943304,12.7847545 C158.627946,12.7847545 159.184219,13.3410268 159.184219,14.0256696 L159.184219,21.7088839 Z"/>
    <path fill="#FFF" d="M137.988817 7.27433036L122.127924 7.27433036C120.758638 7.27433036 119.650848 8.38212054 119.650848 9.75140625L119.650848 20.2872991 137.993571 20.2872991C139.362857 20.2872991 140.470647 19.1795089 140.470647 17.8102232L140.470647 9.75140625C140.470647 8.38212054 139.358103 7.27433036 137.988817 7.27433036zM134.023594 15.2665848C134.023594 15.9512277 133.467321 16.5075 132.782679 16.5075L126.154955 16.5075 126.154955 12.2950446 132.782679 12.2950446C133.467321 12.2950446 134.023594 12.851317 134.023594 13.5359598L134.023594 15.2665848zM127.519487 22.9497991L126.154955 22.9497991 126.154955 21.6470759C126.154955 21.6470759 126.131183 22.3222098 126.463996 22.6407589 126.815826 22.9735714 127.519487 22.9497991 127.519487 22.9497991z"/>
    <path fill="#FFF" d="M124.300714,22.9497991 L137.865201,22.9497991 C138.549844,22.9497991 139.106116,23.5060714 139.106116,24.1907143 L139.106116,28.4031696 L124.300714,28.4031696 L124.300714,22.9497991 L124.300714,22.9497991 Z"/>
    <path fill="#FFF" d="M119.650848,17.83875 L126.154955,17.83875 L126.154955,28.4031696 L122.127924,28.4031696 C120.758638,28.4031696 119.650848,27.2953795 119.650848,25.9260938 L119.650848,17.83875 Z"/>
    <polygon fill="#FFF" points="97.747 7.274 112.063 7.274 112.063 12.728 97.747 12.728"/>
    <path fill="#FFF" d="M107.441384,12.7229464 L108.805915,12.7229464 L108.805915,14.0256696 C108.805915,14.0256696 108.829688,13.3505357 108.496875,13.0319866 C108.145045,12.6991741 107.441384,12.7229464 107.441384,12.7229464 Z"/>
    <path fill="#FFF" d="M108.805915,7.27433036 L112.832946,7.27433036 C114.202232,7.27433036 115.310022,8.38212054 115.310022,9.75140625 L115.310022,28.4031696 L108.805915,28.4031696 L108.805915,7.27433036 Z"/>
    <polygon fill="#FFF" points="94.495 7.274 100.999 7.274 100.999 28.403 94.495 28.403"/>
    <path fill="#FFF" d="M82.2855134,12.7229464 L83.6500446,12.7229464 L83.6500446,14.0256696 C83.6500446,14.0256696 83.673817,13.3505357 83.3410045,13.0319866 C82.9891741,12.6991741 82.2855134,12.7229464 82.2855134,12.7229464 Z"/>
    <path fill="#FFF" d="M70.6988839,7.27433036 L86.1366295,7.27433036 L86.1366295,12.7277009 L71.9397991,12.7277009 C71.2551562,12.7277009 70.6988839,12.1714286 70.6988839,11.4867857 L70.6988839,7.27433036 Z"/>
    <path fill="#FFF" d="M83.6500446,7.27433036 L87.6770759,7.27433036 C89.0463616,7.27433036 90.1541518,8.38212054 90.1541518,9.75140625 L90.1541518,17.83875 L83.6500446,17.83875 L83.6500446,7.27433036 Z"/>
    <path fill="#FFF" d="M71.816183 15.3902009C70.4468973 15.3902009 69.3391071 16.4979911 69.3391071 17.8672768L69.3391071 25.9213393C69.3391071 27.290625 70.4468973 28.3984152 71.816183 28.3984152L90.1589062 28.3984152 90.1589062 15.3854464 71.816183 15.3854464 71.816183 15.3902009zM83.6500446 23.3824554L77.0223214 23.3824554C76.3376786 23.3824554 75.7814062 22.826183 75.7814062 22.1415402L75.7814062 20.4061607C75.7814062 19.7215179 76.3376786 19.1652455 77.0223214 19.1652455L83.6500446 19.1652455 83.6500446 23.3824554zM49.2610045 22.9497991L63.7573661 22.9497991C64.4420089 22.9497991 64.9982813 23.5060714 64.9982813 24.1907143L64.9982813 28.4031696 49.2610045 28.4031696 49.2610045 22.9497991 49.2610045 22.9497991zM49.2610045 7.27433036L64.9982813 7.27433036 64.9982813 11.4867857C64.9982813 12.1714286 64.4420089 12.7277009 63.7573661 12.7277009L49.2610045 12.7277009 49.2610045 7.27433036 49.2610045 7.27433036z"/>
    <path fill="#FFF" d="M53.3498437 22.9497991L51.9853125 22.9497991 51.9853125 21.6470759C51.9853125 21.6470759 51.9615402 22.3222098 52.2943527 22.6407589 52.646183 22.9735714 53.3498437 22.9497991 53.3498437 22.9497991zM53.3498437 12.7229464L51.9853125 12.7229464 51.9853125 14.0256696C51.9853125 14.0256696 51.9615402 13.3505357 52.2943527 13.0319866 52.646183 12.6991741 53.3498437 12.7229464 53.3498437 12.7229464z"/>
    <path fill="#FFF" d="M47.9582812 7.27433036L51.9853125 7.27433036 51.9853125 28.4031696 47.9582812 28.4031696C46.5889955 28.4031696 45.4812054 27.2953795 45.4812054 25.9260938L45.4812054 9.75140625C45.4812054 8.38212054 46.5889955 7.27433036 47.9582812 7.27433036zM28.3698884 7.27433036L41.1451339 7.27433036 41.1451339 11.4867857C41.1451339 12.1714286 40.5888616 12.7277009 39.9042187 12.7277009L28.3698884 12.7277009 28.3698884 7.27433036z"/>
    <path fill="#FFF" d="M33.148125,12.7229464 L31.7835937,12.7229464 L31.7835937,14.0256696 C31.7835937,14.0256696 31.7598214,13.3505357 32.0926339,13.0319866 C32.4444643,12.6991741 33.148125,12.7229464 33.148125,12.7229464 Z"/>
    <path fill="#FFF" d="M27.7565625 7.27433036L31.7835937 7.27433036 31.7835937 28.4031696 25.2794866 28.4031696 25.2794866 9.75140625C25.2794866 8.38212054 26.3920312 7.27433036 27.7565625 7.27433036zM13.0747768 12.7229464L14.439308 12.7229464 14.439308 14.0256696C14.439308 14.0256696 14.4630804 13.3505357 14.1302679 13.0319866 13.7784375 12.6991741 13.0747768 12.7229464 13.0747768 12.7229464z"/>
    <polygon fill="#FFF" fill-rule="nonzero" points="12.143 7.274 12.143 12.728 2.349 12.728"/>
    <polygon fill="#FFF" points="12.143 7.274 16.427 7.274 16.427 12.728 2.349 12.728"/>
    <path fill="#FFF" d="M14.4345536,7.27433036 L18.4615848,7.27433036 C19.8308705,7.27433036 20.9386607,8.38212054 20.9386607,9.75140625 L20.9386607,17.5297098 L14.4345536,17.5297098 L14.4345536,7.27433036 L14.4345536,7.27433036 Z"/>
    <path fill="#FFF" d="M2.60069196,15.3902009 C1.23140625,15.3902009 0.123616071,16.4979911 0.123616071,17.8672768 L0.123616071,25.9213393 C0.123616071,27.290625 1.23140625,28.3984152 2.60069196,28.3984152 L20.9434152,28.3984152 L20.9434152,15.3854464 L2.60069196,15.3854464 L2.60069196,15.3902009 Z M14.4345536,23.3824554 L7.80683036,23.3824554 C7.1221875,23.3824554 6.56591518,22.826183 6.56591518,22.1415402 L6.56591518,20.4061607 C6.56591518,19.7215179 7.1221875,19.1652455 7.80683036,19.1652455 L14.4345536,19.1652455 L14.4345536,23.3824554 Z"/>
  </g>
</svg>
