<svg xmlns="http://www.w3.org/2000/svg" xmlns:xlink="http://www.w3.org/1999/xlink" width="33" height="24" viewBox="0 0 102 73">
  <defs>
    <polygon id="arcanebet-mobile-logo-a" points=".123 .23 48.695 .23 48.695 72.683 .123 72.683"/>
    <polygon id="arcanebet-mobile-logo-c" points="0 .015 48.866 .015 48.866 49.988 0 49.988"/>
  </defs>
  <g fill="none" fill-rule="evenodd">
    <g transform="translate(53)">
      <mask id="arcanebet-mobile-logo-b" fill="#fff">
        <use xlink:href="#arcanebet-mobile-logo-a"/>
      </mask>
      <path fill="#D29C5E" d="M33.6606756,56.6008674 C33.6606756,58.383337 32.2302526,59.8284196 30.4662526,59.8284196 L15.3016949,59.8284196 L15.3016949,35.8729935 L30.4662526,35.8729935 C32.2302526,35.8729935 33.6606756,37.3180761 33.6606756,39.1005457 L33.6606756,56.6008674 Z M42.6264192,22.8726457 L15.2998103,22.8726457 L15.2998103,8.92202826 L15.30515,8.92202826 L15.30515,0.22995 L0.127085897,8.92202826 L0.127085897,22.8675674 L0.150957692,22.8726457 L0.123316667,22.8726457 L0.123316667,72.6827674 L42.6264192,72.6827674 C45.9782077,72.6827674 48.6951949,69.9370152 48.6951949,66.5501326 L48.6951949,29.0052804 C48.6951949,25.6183978 45.9782077,22.8726457 42.6264192,22.8726457 L42.6264192,22.8726457 Z" mask="url(#arcanebet-mobile-logo-b)"/>
    </g>
    <path fill="#FEFEFE" d="M32.9996766,38.9304675 L32.9996766,39.0695325 C32.9996766,39.0695325 33.0011318,39.0166075 32.9996766,38.9304675"/>
    <g transform="translate(0 23)">
      <mask id="arcanebet-mobile-logo-d" fill="#fff">
        <use xlink:href="#arcanebet-mobile-logo-c"/>
      </mask>
      <path fill="#FEFEFE" d="M33.5928826,38.1283758 L18.3308052,38.1283758 C16.5547923,38.1283758 15.1157729,36.6783758 15.1157729,34.8895223 L15.1157729,31.4000318 C15.1157729,29.6114968 16.5547923,28.1611783 18.3308052,28.1611783 L33.5928826,28.1611783 L33.5928826,38.1283758 Z M42.7571471,0.0153184713 L34.5817342,0.0153184713 L33.5950955,0.0153184713 L28.194031,0.0153184713 L28.194031,0.0306050955 L5.21556,12.920414 L28.194031,12.920414 L28.194031,12.9181847 L30.39176,12.9181847 L30.5479277,12.9181847 C30.9784955,12.9267834 32.197489,13.008949 32.8651535,13.6513057 C33.5160632,14.2771019 33.5868761,15.4920701 33.5925665,15.8748726 L33.5950955,19.2207325 L6.10830839,19.2207325 C2.73489548,19.2207325 -0.000252903226,21.9755096 -0.000252903226,25.3739172 L-0.000252903226,43.8344268 C-0.000252903226,47.2328344 2.73489548,49.9876115 6.10830839,49.9876115 L48.8657084,49.9876115 L48.8657084,19.2207325 L48.8657084,6.16882166 C48.8657084,2.77041401 46.13056,0.0153184713 42.7571471,0.0153184713 L42.7571471,0.0153184713 Z" mask="url(#arcanebet-mobile-logo-d)"/>
    </g>
  </g>
</svg>
