<svg xmlns="http://www.w3.org/2000/svg" width="24" height="24" viewBox="0 0 24 24">
  <path d="M19.8764912 3.04280702C17.9326316 1.31368421 15.4203509.209122807 12.6596491.0477192982L12.6596491 2.75508772C14.6764912 2.90666667 16.5150877 3.71087719 17.9635088 4.95578947L19.8764912 3.04280702zM21.1564912 11.2519298L23.8638596 11.2519298C23.7024561 8.49122807 22.5978947 5.97894737 20.8687719 4.03508772L18.9557895 5.94807018C20.2007018 7.39649123 21.0049123 9.23508772 21.1564912 11.2519298zM2.75789474 12.6554386L.0519298246 12.6554386C.213333333 15.4161404 1.31789474 17.9284211 3.04701754 19.8722807L4.96 17.9592982C3.71508772 16.5108772 2.91087719 14.6722807 2.75789474 12.6554386zM4.96 5.94807018L3.04561404 4.03508772C1.31649123 5.97894737.211929825 8.49122807.0519298246 11.2519298L2.75929825 11.2519298C2.91087719 9.23508772 3.71508772 7.39649123 4.96 5.94807018zM11.2561404 2.75508772L11.2561404.0477192982C8.4954386.209122807 5.98315789 1.31368421 4.03929825 3.04280702L5.9522807 4.95578947C7.40070175 3.71087719 9.23929825 2.90666667 11.2561404 2.75508772zM4.03929825 20.8645614C5.98315789 22.5936842 8.4954386 23.6982456 11.2561404 23.8596491L11.2561404 21.1522807C9.23929825 21.0007018 7.40070175 20.1964912 5.9522807 18.9515789L4.03929825 20.8645614zM12.6596491 21.1522807L12.6596491 23.8596491C15.4203509 23.6982456 17.9326316 22.5936842 19.8764912 20.8645614L17.9635088 18.9515789C16.5150877 20.1964912 14.6764912 21.0007018 12.6596491 21.1522807zM18.9557895 17.9592982L20.8687719 19.8722807C22.5978947 17.9284211 23.7024561 15.4161404 23.8638596 12.6554386L21.1564912 12.6554386C21.0049123 14.6722807 20.2007018 16.5108772 18.9557895 17.9592982zM19.7796491 11.9536842C19.7796491 7.64070175 16.2708772 4.13052632 11.9564912 4.13052632 7.64210526 4.13052632 4.13333333 7.63929825 4.13333333 11.9536842 4.13333333 16.2680702 7.64210526 19.7768421 11.9564912 19.7768421 16.2708772 19.7768421 19.7796491 16.2666667 19.7796491 11.9536842zM12.877193 15.9564912L12.8589474 15.9564912 12.6582456 15.9564912 12.6582456 16.8561404C12.6582456 17.2435088 12.3438596 17.5578947 11.9564912 17.5578947 11.5691228 17.5578947 11.2547368 17.2435088 11.2547368 16.8561404L11.2547368 15.9564912 10.9333333 15.9424561C10.1249123 15.9368421 9.36421053 15.5761404 8.84631579 14.9557895 8.59789474 14.6582456 8.63859649 14.2161404 8.93614035 13.9677193 9.22807018 13.7235088 9.66877193 13.754386 9.92421053 14.0575439 10.1768421 14.3607018 10.5487719 14.5501754 10.9431579 14.5529825L12.8673684 14.5529825C13.3964912 14.554386 13.8231579 14.1319298 13.8231579 13.6042105 13.8231579 13.0807018 13.3978947 12.6554386 12.874386 12.6554386 12.1950877 12.6554386 11.7529825 12.6554386 11.0357895 12.6554386 9.73894737 12.6554386 8.68350877 11.6 8.68350877 10.3031579 8.68350877 9.00631579 9.73473684 7.94385965 11.0526316 7.95087719L11.2533333 7.95087719 11.2533333 7.05122807C11.2533333 6.66385965 11.5677193 6.34947368 11.9550877 6.34947368 12.3424561 6.34947368 12.6568421 6.66385965 12.6568421 7.05122807L12.6568421 7.95087719 12.8168421 7.95087719C13.8007018 7.95789474 14.6680702 8.50526316 15.1157895 9.24350877 15.3249123 9.57052632 15.2294737 10.0042105 14.9024561 10.2119298 14.5964912 10.4070175 14.1614035 10.3508772 13.9242105 9.98315789 13.68 9.6 13.2617544 9.36982456 12.8070175 9.36561404L11.045614 9.36561404C10.5263158 9.36 10.0898246 9.76701754 10.0898246 10.3017544 10.0898246 10.8252632 10.5150877 11.2505263 11.0385965 11.2505263L12.877193 11.2505263C14.1740351 11.2505263 15.2294737 12.3059649 15.2294737 13.602807 15.2280702 14.9024561 14.1782456 15.9564912 12.877193 15.9564912L12.877193 15.9564912z"/>
</svg>
