<svg xmlns="http://www.w3.org/2000/svg" width="24" height="24" viewBox="0 0 24 24">
  <path d="M18.8567273,3.42836364 C18.8567273,1.53745455 17.3192727,0 15.4283636,0 L3.42836364,0 C1.53745455,0 0,1.53745455 0,3.42836364 L0,15.4283636 C0,17.3192727 1.53745455,18.8567273 3.42836364,18.8567273 L3.42836364,8.57163636 C3.42836364,5.73527273 5.73527273,3.42836364 8.57163636,3.42836364 L18.8567273,3.42836364 Z"/>
  <path d="M20.5716364,5.14327273 L8.57163636,5.14327273 C6.68072727,5.14327273 5.14327273,6.68072727 5.14327273,8.57163636 L5.14327273,20.5716364 C5.14327273,22.4625455 6.68072727,24 8.57163636,24 L20.5716364,24 C22.4625455,24 24,22.4625455 24,20.5716364 L24,8.57163636 C24,6.68072727 22.4625455,5.14327273 20.5716364,5.14327273 Z M11.1432727,9.42836364 C12.0901818,9.42836364 12.8581818,10.1963636 12.8581818,11.1432727 C12.8581818,12.0901818 12.0901818,12.8581818 11.1432727,12.8581818 C10.1963636,12.8581818 9.42836364,12.0901818 9.42836364,11.1432727 C9.42836364,10.1963636 10.1963636,9.42836364 11.1432727,9.42836364 Z M11.1432727,19.7149091 C10.1963636,19.7149091 9.42836364,18.9469091 9.42836364,18 C9.42836364,17.0530909 10.1963636,16.2850909 11.1432727,16.2850909 C12.0901818,16.2850909 12.8581818,17.0530909 12.8581818,18 C12.8567273,18.9469091 12.0901818,19.7149091 11.1432727,19.7149091 Z M14.5716364,16.2850909 C13.6247273,16.2850909 12.8567273,15.5170909 12.8567273,14.5701818 C12.8567273,13.6232727 13.6247273,12.8552727 14.5716364,12.8552727 C15.5185455,12.8552727 16.2865455,13.6232727 16.2865455,14.5701818 C16.2850909,15.5185455 15.5185455,16.2850909 14.5716364,16.2850909 Z M18,19.7149091 C17.0530909,19.7149091 16.2850909,18.9469091 16.2850909,18 C16.2850909,17.0530909 17.0530909,16.2850909 18,16.2850909 C18.9469091,16.2850909 19.7149091,17.0530909 19.7149091,18 C19.7149091,18.9469091 18.9469091,19.7149091 18,19.7149091 Z M18,12.8567273 C17.0530909,12.8567273 16.2850909,12.0887273 16.2850909,11.1418182 C16.2850909,10.1949091 17.0530909,9.42690909 18,9.42690909 C18.9469091,9.42690909 19.7149091,10.1949091 19.7149091,11.1418182 C19.7149091,12.0901818 18.9469091,12.8567273 18,12.8567273 Z"/>
</svg>
