<svg xmlns="http://www.w3.org/2000/svg" width="24" height="21" viewBox="0 0 24 21">
  <path d="M23.86,7.14 C23.7671429,7.04571429 23.6471429,7 23.5,7 L16.6257143,7 C17.5942857,7 18.42,6.65857143 19.1028571,5.97714286 C19.7842857,5.29428571 20.1257143,4.46857143 20.1257143,3.5 C20.1257143,2.53142857 19.7842857,1.70571429 19.1028571,1.02285714 C18.42,0.34 17.5942857,0 16.6257143,0 C15.5114286,0 14.6357143,0.401428571 14,1.20285714 L12,3.78142857 L10,1.20285714 C9.36428571,0.401428571 8.49,0 7.37571429,0 C6.40714286,0 5.58142857,0.341428571 4.89857143,1.02285714 C4.21571429,1.70571429 3.87571429,2.53142857 3.87571429,3.5 C3.87571429,4.46857143 4.21714286,5.29428571 4.89857143,5.97714286 C5.58142857,6.65857143 6.40571429,7 7.37571429,7 L0.5,7 C0.354285714,7 0.234285714,7.04714286 0.14,7.14 C0.0471428571,7.23428571 0,7.35428571 0,7.5 L0,12.5 C0,12.6457143 0.0471428571,12.7657143 0.14,12.8585714 C0.234285714,12.9528571 0.354285714,12.9985714 0.5,12.9985714 L2,12.9985714 L2,19.4985714 C2,19.9157143 2.14571429,20.27 2.43714286,20.5614286 C2.72857143,20.8528571 3.08285714,20.9985714 3.5,20.9985714 L20.5,20.9985714 C20.9171429,20.9985714 21.2714286,20.8528571 21.5628571,20.5614286 C21.8542857,20.27 22,19.9157143 22,19.4985714 L22,13 L23.5,13 C23.6457143,13 23.7657143,12.9528571 23.86,12.86 C23.9542857,12.7671429 24,12.6471429 24,12.5014286 L24,7.50142857 C24,7.35428571 23.9528571,7.23428571 23.86,7.14 Z M15.5471429,2.48428571 C15.8185714,2.16142857 16.1771429,2 16.6257143,2 C17.0428571,2 17.3971429,2.14571429 17.6885714,2.43714286 C17.98,2.72857143 18.1257143,3.08285714 18.1257143,3.5 C18.1257143,3.91714286 17.98,4.27142857 17.6885714,4.56285714 C17.3971429,4.85428571 17.0428571,5 16.6257143,5 L13.5942857,5 L15.5471429,2.48428571 Z M7.37428571,5 C6.95714286,5 6.60428571,4.85428571 6.31142857,4.56285714 C6.02,4.27142857 5.87428571,3.91714286 5.87428571,3.5 C5.87428571,3.08285714 6.02,2.72857143 6.31142857,2.43714286 C6.60285714,2.14571429 6.95714286,2 7.37428571,2 C7.82285714,2 8.18142857,2.16142857 8.45285714,2.48428571 L10.4214286,5 L7.37428571,5 L7.37428571,5 Z M14.5,10 L14.5,17.3128571 L14.5,18.1871429 C14.5,18.4471429 14.4057143,18.6485714 14.2185714,18.7885714 C14.0314286,18.9285714 13.7914286,19 13.5,19 L10.5,19 C10.2085714,19 9.96857143,18.93 9.78142857,18.7885714 C9.59428571,18.6471429 9.5,18.4471429 9.5,18.1871429 L9.5,17.3128571 L9.5,10 L9.5,7 L14.5,7 L14.5,10 Z"/>
</svg>
