<svg xmlns="http://www.w3.org/2000/svg" width="24" height="24" viewBox="0 0 24 24">
  <path d="M21.5859649 18.7635088L2.36491228 18.7635088C1.07649123 18.7635088.0266666667 19.8119298.0266666667 21.1017544L.0266666667 22.6596491C.0266666667 23.0905263.376140351 23.4385965.805614035 23.4385965L23.1438596 23.4385965C23.5747368 23.4385965 23.9228084 23.0891228 23.9228084 22.6596491L23.9228084 21.1017544C23.9242105 19.8119298 22.8757895 18.7635088 21.5859649 18.7635088zM18.4701754 6.29473684L16.1319298 6.29473684 16.1319298 4.73684211 18.9894737 4.73684211C19.4203509 4.73684211 19.7684211 4.38736842 19.7684211 3.95789474L19.7684211.840701754C19.7684211.409824561 19.4189474.061754386 18.9894737.061754386L11.7164912.061754386C11.285614.061754386 10.9375439.41122807 10.9375439.840701754L10.9375439 3.95789474C10.9375439 4.38877193 11.2870175 4.73684211 11.7164912 4.73684211L14.5740351 4.73684211 14.5740351 6.29473684 9.37824561 6.29473684 9.37824561 3.95789474C9.37824561 3.52701754 9.02877193 3.17894737 8.59929825 3.17894737L5.48210526 3.17894737C5.05122807 3.17894737 4.70315789 3.52842105 4.70315789 3.95789474L4.70315789 6.37473684C2.92631579 6.7354386 1.58596491 8.31017544 1.58596491 10.1922807L1.58596491 17.205614 22.3649131 17.205614 22.3649131 10.1922807C22.3663158 8.04350877 20.6175439 6.29473684 18.4701754 6.29473684zM7.82035088 10.9712281L6.26245614 10.9712281 6.26245614 4.73684211 7.82035088 4.73684211 7.82035088 10.9712281zM12.2357895 15.6463158C11.8049123 15.6463158 11.4568421 15.2968421 11.4568421 14.8673684 11.4568421 14.4364912 11.8063158 14.0884211 12.2357895 14.0884211 12.6666667 14.0884211 13.0147368 14.4378947 13.0147368 14.8673684 13.0147368 15.2968421 12.6666667 15.6463158 12.2357895 15.6463158zM12.2357895 12.5291228C11.8049123 12.5291228 11.4568421 12.1796491 11.4568421 11.7501754 11.4568421 11.3192982 11.8063158 10.9712281 12.2357895 10.9712281 12.6666667 10.9712281 13.0147368 11.3207018 13.0147368 11.7501754 13.0147368 12.1810526 12.6666667 12.5291228 12.2357895 12.5291228zM15.3529825 15.6463158C14.9221053 15.6463158 14.5740351 15.2968421 14.5740351 14.8673684 14.5740351 14.4364912 14.9235088 14.0884211 15.3529825 14.0884211 15.7824561 14.0884211 16.1319298 14.4378947 16.1319298 14.8673684 16.1319298 15.2968421 15.7824561 15.6463158 15.3529825 15.6463158zM15.3529825 12.5291228C14.9221053 12.5291228 14.5740351 12.1796491 14.5740351 11.7501754 14.5740351 11.3192982 14.9235088 10.9712281 15.3529825 10.9712281 15.7824561 10.9712281 16.1319298 11.3207018 16.1319298 11.7501754 16.1319298 12.1810526 15.7824561 12.5291228 15.3529825 12.5291228zM18.4701754 15.6463158C18.0392982 15.6463158 17.6912281 15.2968421 17.6912281 14.8673684 17.6912281 14.4364912 18.0407018 14.0884211 18.4701754 14.0884211 18.9010526 14.0884211 19.2491228 14.4378947 19.2491228 14.8673684 19.2491228 15.2968421 18.8996491 15.6463158 18.4701754 15.6463158zM18.4701754 12.5291228C18.0392982 12.5291228 17.6912281 12.1796491 17.6912281 11.7501754 17.6912281 11.3192982 18.0407018 10.9712281 18.4701754 10.9712281 18.9010526 10.9712281 19.2491228 11.3207018 19.2491228 11.7501754 19.2491228 12.1810526 18.8996491 12.5291228 18.4701754 12.5291228zM18.4701754 9.41192982L12.2357895 9.41192982C11.8049123 9.41192982 11.4568421 9.06245614 11.4568421 8.63298246 11.4568421 8.20210526 11.8063158 7.85403509 12.2357895 7.85403509L18.4701754 7.85403509C18.9010526 7.85403509 19.2491228 8.20350877 19.2491228 8.63298246 19.2491228 9.06385965 18.8996491 9.41192982 18.4701754 9.41192982z"/>
</svg>
