<svg xmlns="http://www.w3.org/2000/svg" width="24" height="24" viewBox="0 0 24 24">
  <path d="M.947065868 14.1643114C-.436886228 18.5446707-.0201197605 22.1245509.880958084 23.0270659 1.78347305 23.9295808 5.36335329 24.3449102 9.74371257 22.9609581 9.35712575 22.5743713 1.33365269 14.5508982.947065868 14.1643114L.947065868 14.1643114zM23.0299401.879520958C22.1274251-.022994012 18.5475449-.439760479 14.1671856.945628743 14.2950898 1.07353293 22.8359281 9.61437126 22.9638323 9.74227545 24.3492216 5.36047904 23.9324551 1.7805988 23.0299401.879520958zM5.84191617 17.0788024L8.07377246 14.8469461 7.2891018 14.0622754C7.0160479 13.7892216 7.0160479 13.3451497 7.2891018 13.0720958 7.56215569 12.7990419 8.00622754 12.7990419 8.27928144 13.0720958L9.0639521 13.8567665 10.9667066 11.954012 10.1820359 11.1693413C9.90898204 10.8962874 9.90898204 10.4522156 10.1820359 10.1791617 10.4550898 9.90610778 10.8991617 9.90610778 11.1722156 10.1791617L11.9568862 10.9638323 13.8596407 9.06107784 13.0749701 8.27640719C12.8019162 8.00335329 12.8019162 7.55928144 13.0749701 7.28622754 13.348024 7.01317365 13.7920958 7.01317365 14.0651497 7.28622754L14.8498204 8.0708982 17.0816766 5.83904192C17.0802395 5.83760479 12.708503 1.46586826 12.7070659 1.46443114 7.62251497 3.45628743 3.5051497 7.4011976 1.46730539 12.7041916 1.46730539 12.7041916 5.84047904 17.0773653 5.84191617 17.0788024L5.84191617 17.0788024zM18.0704192 6.82778443L15.8385629 9.05964072 16.6232335 9.84431138C16.8962874 10.1173653 16.8962874 10.5614371 16.6232335 10.834491 16.3501796 11.1075449 15.9075449 11.108982 15.6330539 10.834491L14.8483832 10.0498204 12.9456287 11.9525749 13.7302994 12.7372455C14.0033533 13.0102994 14.0033533 13.4543713 13.7302994 13.7274251 13.4572455 14.000479 13.0131737 14.000479 12.7401198 13.7274251L11.9554491 12.9427545 10.0541317 14.845509 10.8388024 15.6301796C11.1118563 15.9032335 11.1118563 16.3473054 10.8388024 16.6203593 10.5657485 16.8934132 10.1216766 16.8934132 9.84862275 16.6203593L9.0639521 15.8356886 6.83209581 18.0675449 11.2067066 22.4421557C16.6261078 20.2749701 20.4704192 16.2955689 22.4464671 11.2023952 22.4450299 11.2023952 18.0718563 6.82922156 18.0704192 6.82778443L18.0704192 6.82778443z"/>
</svg>
