<svg xmlns="http://www.w3.org/2000/svg" width="20" height="15" viewBox="0 0 20 15">
  <path fill="#010002" d="M18.0886723,2.42662005 C15.4680371,-1.8791191 11.5204399,1.11687642 11.5204399,1.11687642 C11.2644602,1.31087 10.792677,1.46927896 10.4712675,1.47042685 L9.41405991,1.47157474 C9.09379831,1.47157474 8.62086727,1.31316578 8.36603546,1.1191722 C8.36603546,1.1191722 4.41843827,-1.87682332 1.79665521,2.42891583 C-0.823979954,6.73235922 0.232079772,11.4203461 0.232079772,11.4203461 C0.416890223,12.5682371 1.02642035,13.3338804 2.17775502,13.2374575 C3.32564603,13.1421826 5.81542162,10.1461871 5.81542162,10.1461871 C6.02089411,9.89939053 6.45250113,9.69736165 6.77276271,9.69736165 L13.1125647,9.69621377 C13.4328263,9.69621377 13.8632855,9.89824257 14.068758,10.1450392 C14.068758,10.1450392 16.5596814,13.1398868 17.7087204,13.2363096 C18.8577592,13.3327325 19.4695851,12.5659413 19.6532477,11.4191982 C19.6509519,11.4180503 20.7093074,6.73121133 18.0886723,2.42662005 Z M7.55906806,5.9311313 L6.1999651,5.9311313 L6.1999651,7.24087493 C6.1999651,7.24087493 5.91184446,7.46012212 5.46646275,7.45553055 C5.02222894,7.4486432 4.82020012,7.21562133 4.82020012,7.21562133 L4.82020012,5.9311313 L3.53685797,5.9311313 C3.53685797,5.9311313 3.37615323,5.76698288 3.33368127,5.33422797 C3.2912093,4.90147307 3.51045648,4.5525142 3.51045648,4.5525142 L4.87070732,4.5525142 L4.87070732,3.19226335 C4.87070732,3.19226335 5.15079273,3.04188964 5.55255458,3.05336854 C5.95546432,3.06599535 6.25047231,3.21751696 6.25047231,3.21751696 L6.24473285,4.5513663 L7.528075,4.5513663 C7.528075,4.5513663 7.75191375,4.83948695 7.77028,5.18729792 C7.78979415,5.5351089 7.55906806,5.9311313 7.55906806,5.9311313 Z M13.794412,7.4233896 C13.1986566,7.4233896 12.7188381,6.94242327 12.7188381,6.34781573 C12.7188381,5.7520603 13.1986566,5.27224186 13.794412,5.27224186 C14.3867237,5.27224186 14.8711338,5.7520603 14.8711338,6.34781573 C14.8711338,6.94242327 14.3867237,7.4233896 13.794412,7.4233896 Z M13.794412,4.46412659 C13.1986566,4.46412659 12.7188381,3.98316026 12.7188381,3.38855272 C12.7188381,2.79279728 13.1986566,2.31297885 13.794412,2.31297885 C14.3867237,2.31297885 14.8711338,2.79279728 14.8711338,3.38855272 C14.8711338,3.98316026 14.3867237,4.46412659 13.794412,4.46412659 Z M16.4735896,6.05280774 C15.8778342,6.05280774 15.3980157,5.57184141 15.3980157,4.97723387 C15.3980157,4.38147844 15.8778342,3.90166 16.4735896,3.90166 C17.0659014,3.90166 17.5503113,4.38262633 17.5503113,4.97723387 C17.5503113,5.57184141 17.0670493,6.05280774 16.4735896,6.05280774 Z" transform="translate(0 1)"/>
</svg>
