<svg xmlns="http://www.w3.org/2000/svg" width="24" height="25" viewBox="0 0 24 25">
  <path d="M24,16.3128994 C24,13.3349112 22.2915976,10.6764497 19.7325444,9.38414201 C19.6530178,15.0944379 15.023432,19.7240237 9.31313609,19.8035503 C10.6054438,22.3626036 13.2639053,24.0710059 16.2418935,24.0710059 C17.6378698,24.0710059 18.995503,23.6989349 20.1898225,22.9931361 L23.9659172,24.0383432 L22.9207101,20.2622485 C23.627929,19.067929 24,17.7088757 24,16.3128994 Z"/>
  <path d="M18.3280473,9.23502959 C18.3280473,4.18224852 14.2168047,0.0710059172 9.16402367,0.0710059172 C4.1112426,0.0710059172 0,4.18224852 0,9.23502959 C0,10.8823669 0.438816568,12.4856805 1.27100592,13.8930178 L0.0340828402,18.3649704 L4.5060355,17.1280473 C5.91337278,17.9602367 7.51668639,18.3990533 9.16402367,18.3990533 C14.2168047,18.3990533 18.3280473,14.2878107 18.3280473,9.23502959 Z M7.75810651,7.10201183 L6.35218935,7.10201183 C6.35218935,5.5512426 7.61325444,4.29017751 9.16402367,4.29017751 C10.7147929,4.29017751 11.975858,5.5512426 11.975858,7.10201183 C11.975858,7.8887574 11.6421302,8.64568047 11.0613018,9.17680473 L9.86698225,10.2702959 L9.86698225,11.3666272 L8.46106509,11.3666272 L8.46106509,9.65254438 L10.1126627,8.14011834 C10.4080473,7.87029586 10.5699408,7.50106509 10.5699408,7.10201183 C10.5699408,6.32662722 9.93940828,5.69609467 9.16402367,5.69609467 C8.38863905,5.69609467 7.75810651,6.32662722 7.75810651,7.10201183 Z M8.46106509,12.7739645 L9.86698225,12.7739645 L9.86698225,14.1798817 L8.46106509,14.1798817 L8.46106509,12.7739645 Z"/>
</svg>
