<svg xmlns="http://www.w3.org/2000/svg" width="24" height="24" viewBox="0 0 24 24">
  <path d="M11.4857143 10.4833136C11.7714286 10.7630769 12.2271429 10.7630769 12.5128571 10.4833136 13.4928571 9.52331361 15.5742857 7.44852071 16.0871429 6.65893491 16.8157143 5.53704142 17.5414286 4.61112426 17.5414286 2.99502959 17.5414286 1.37893491 16.2242857.0695857988 14.5985714.0695857988 13.4614286.0695857988 12.4871429.717159763 11.9971429 1.65585799 11.5071429.718579882 10.5328571.0695857988 9.39714286.0695857988 7.77142857.0695857988 6.45428571 1.37893491 6.45428571 2.99502959 6.45428571 4.61112426 7.18142857 5.53704142 7.90857143 6.65893491 8.42428571 7.44710059 10.5071429 9.52331361 11.4857143 10.4833136zM12.5128571 13.5166864C12.2271429 13.2369231 11.77 13.2369231 11.4857143 13.5166864 10.5057143 14.4766864 8.42428571 16.5528994 7.91142857 17.3410651 7.18285714 18.4629586 6.45571429 19.3888757 6.45571429 21.0078107 6.45571429 22.6224852 7.77285714 23.9318343 9.39857143 23.9318343 10.5357143 23.9318343 11.51 23.2842604 12 22.3469822 12.49 23.2842604 13.4642857 23.9318343 14.6014286 23.9318343 16.2271429 23.9318343 17.5442857 22.6224852 17.5442857 21.0078107 17.5442857 19.391716 16.8185714 18.4643787 16.09 17.3410651 15.5771429 16.5514793 13.4928571 14.4752663 12.5128571 13.5166864zM22.4057143 12C23.3485714 11.5128994 24.0000093 10.5443787 24.0000093 9.4139645 24.0000093 7.79786982 22.6828571 6.48852071 21.0585714 6.48852071 19.4328571 6.48852071 18.5 7.21136095 17.3714286 7.9356213 16.5785714 8.44544379 14.4885714 10.5159763 13.5242857 11.4887574 13.2428571 11.7727811 13.2428571 12.2257988 13.5242857 12.5098225 14.49 13.4840237 16.58 15.5531361 17.3714286 16.0643787 18.5 16.7886391 19.4314286 17.5100592 21.0585714 17.5100592 22.6828571 17.5100592 24.0000093 16.1992899 24.0000093 14.5846154 24.0028571 13.4556213 23.35 12.4871006 22.4057143 12zM10.4742857 12.5098225C10.7557143 12.2272189 10.7557143 11.7713609 10.4742857 11.4887574 9.50857143 10.5145562 7.42 8.44544379 6.62714286 7.9356213 5.49857143 7.21136095 4.56714286 6.48852071 2.94285714 6.48852071 1.31714286 6.48852071-7.10542736e-15 7.79786982-7.10542736e-15 9.4139645-7.10542736e-15 10.5443787.652857143 11.5128994 1.59571429 12 .652857143 12.4871006-7.10542736e-15 13.4556213-7.10542736e-15 14.5846154-7.10542736e-15 16.1992899 1.31714286 17.5086391 2.94285714 17.5100592 4.56857143 17.5100592 5.5 16.7872189 6.62857143 16.0643787 7.42142857 15.5545562 9.50857143 13.4840237 10.4742857 12.5098225z"/>
</svg>
