<svg xmlns="http://www.w3.org/2000/svg" width="24" height="23" viewBox="0 0 24 23">
  <path d="M23.133913 18.3831056L.901863354 18.3831056C.42484472 18.3831056.0372670807 18.7706832.0372670807 19.2477019L.0372670807 21.3465839C.0372670807 21.8236025.42484472 22.2111801.901863354 22.2111801L23.133913 22.2111801C23.6109317 22.2111801 23.9985093 21.8236025 23.9985093 21.3465839L23.9985093 19.2477019C23.9985093 18.7706832 23.6124224 18.3831056 23.133913 18.3831056zM20.818882.10136646L3.21689441.10136646C1.4578882.10136646.0357763975 1.52496894.0357763975 3.28248447L.0357763975 4.0531677 23.9985093 4.0531677 23.9985093 3.28248447C23.9985093 1.52347826 22.5749068.10136646 20.818882.10136646zM6.87055901 16.6524224L6.87055901 5.78236025.0372670807 5.78236025.0372670807 16.8014907C.307080745 16.7045963.599254658 16.6524224.901863354 16.6524224L6.87055901 16.6524224zM2.48795031 8.95006211L4.41987578 8.95006211C4.69267081 8.95006211 4.94310559 9.10509317 5.06534161 9.34956522 5.18757764 9.59403727 5.16074534 9.88621118 4.99677019 10.1053416L4.76571429 10.413913C4.26037267 11.0877019 3.98310559 11.9209938 3.98310559 12.7632298 3.98310559 13.1612422 3.65962733 13.4847205 3.26161491 13.4847205 2.86360248 13.4847205 2.54012422 13.1612422 2.54012422 12.7632298 2.54012422 11.943354 2.73242236 11.1279503 3.09465839 10.3930435L2.48944099 10.3930435C2.09142857 10.3930435 1.76795031 10.0695652 1.76795031 9.6715528 1.76795031 9.27354037 2.08993789 8.95006211 2.48795031 8.95006211zM8.60124224 5.78236025L8.60124224 16.6524224 15.4360248 16.6524224 15.4360248 5.78236025 8.60124224 5.78236025zM13.5607453 10.1053416L13.3296894 10.413913C12.8243478 11.0877019 12.5470807 11.9209938 12.5470807 12.7632298 12.5470807 13.1612422 12.2236025 13.4847205 11.8255901 13.4847205 11.4275776 13.4847205 11.1040994 13.1612422 11.1040994 12.7632298 11.1040994 11.943354 11.2963975 11.1279503 11.6571429 10.3930435L11.0519255 10.3930435C10.653913 10.3930435 10.3304348 10.0695652 10.3304348 9.6715528 10.3304348 9.27354037 10.653913 8.95006211 11.0519255 8.95006211L12.9838509 8.95006211C13.256646 8.95006211 13.5070807 9.10509317 13.6293168 9.34956522 13.7515528 9.59403727 13.7247205 9.88621118 13.5607453 10.1053416zM23.9985093 5.78236025L17.1637267 5.78236025 17.1637267 16.6524224 23.1324224 16.6524224C23.4350311 16.6524224 23.727205 16.7045963 23.9970186 16.8014907L23.9970186 5.78236025 23.9985093 5.78236025zM22.1247205 8.37913043L21.8936646 8.68770186C21.388323 9.36149068 21.1110559 10.1947826 21.1110559 11.0370186 21.1110559 11.4350311 20.7875776 11.7585093 20.3895652 11.7585093 19.9915528 11.7585093 19.6680745 11.4350311 19.6680745 11.0370186 19.6680745 10.2171429 19.8603727 9.40173913 20.2226087 8.6668323L19.6173913 8.6668323C19.2193789 8.6668323 18.8959006 8.34335404 18.8959006 7.94534161 18.8959006 7.54732919 19.2193789 7.22385093 19.6173913 7.22385093L21.5493168 7.22385093C21.8221118 7.22385093 22.0725466 7.3773913 22.1947826 7.62186335 22.315528 7.86931677 22.2886957 8.16149068 22.1247205 8.37913043z"/>
</svg>
