<svg xmlns="http://www.w3.org/2000/svg" width="24" height="24" viewBox="0 0 24 24">
  <path fill="#FFF" d="M22.428-.0000166599957C22.8450831-.000531655308 23.2452364.164918564 23.5401589.459841078 23.8350814.754763592 24.0005317 1.15491692 24.0000013 1.572L24.0000013 9.572C24.0005317 9.98908308 23.8350814 10.3892364 23.5401589 10.6841589 23.2452364 10.9790814 22.8450831 11.1445317 22.428 11.144008L14.428 11.144008C14.0110908 11.1453281 13.610773 10.9807789 13.3153163 10.6866354 13.0198597 10.3924919 12.853529 9.99291096 12.853 9.576L12.853 1.576C12.8465467 1.15902488 13.0081718.756996581 13.3014497.460520662 13.5947276.164044743 13.9949794-.00193084626 14.412-.0000166599957L22.428-.0000166599957zM15.984 6.79199627C15.4934283 6.79199627 15.0512382 7.08773166 14.8638804 7.54111629 14.6765226 7.99450093 14.7809515 8.51611608 15.1284109 8.8624288 15.4758703 9.20874151 15.9978279 9.31144542 16.4505907 9.12258988 16.9033535 8.93373433 17.197619 8.490569 17.1960066 8 17.1957355 7.67900612 17.0678302 7.37129385 16.8404783 7.1446923 16.6131264 6.91809076 16.304993 6.79120338 15.984 6.79199627zM20.844 6.79199628C20.3531571 6.79078771 19.9100461 7.08574535 19.721742 7.53903309 19.5334379 7.99232083 19.6371249 8.51442846 19.9843478 8.86136423 20.3315708 9.20829999 20.853764 9.31155489 21.3068958 9.12287576 21.7600276 8.93419663 22.0546185 8.49084172 22.0530066 8 22.052448 7.3326783 21.5113219 6.79199628 20.844 6.79199628L20.844 6.79199628zM20.844 1.93199626C20.3535206 1.93078594 19.9106615 2.22530927 19.7221213 2.67810518 19.5335812 3.13090109 19.6365329 3.65269519 19.9829253 3.99994707 20.3293176 4.34719896 20.850855 4.45144358 21.3041167 4.26402614 21.7573785 4.07660871 22.0530037 3.63448092 22.0530037 3.144 22.0537969 2.82283379 21.9267724 2.51454864 21.6999545 2.2871679 21.4731366 2.05978716 21.1651672 1.93199626 20.844 1.93199626L20.844 1.93199626zM15.984 1.93199626C15.3146309 1.93199626 14.772 2.47463088 14.772 3.144 14.772 3.81336912 15.3146309 4.356 15.984 4.356 16.6533691 4.356 17.1960037 3.81336912 17.1960037 3.144 17.1967992 2.82231327 17.0693634 2.51357174 16.8418958 2.28610417 16.6144283 2.0586366 16.3056867 1.93120077 15.984 1.93199626zM22.428 12.8399987C22.8450831 12.8394683 23.2452364 13.0049186 23.5401589 13.2998411 23.8350814 13.5947636 24.0005317 13.9949169 24.0000013 14.412L24.0000013 22.412C24.0005317 22.8290831 23.8350814 23.2292364 23.5401589 23.5241589 23.2452364 23.8190814 22.8450831 23.9845317 22.428 23.9840013L14.428 23.9840013C14.0109169 23.9845317 13.6107636 23.8190814 13.3158411 23.5241589 13.0209186 23.2292364 12.8554683 22.8290831 12.8559987 22.412L12.8559987 14.412C12.8554692 13.99561 13.0203707 13.5960635 13.3144278 13.3012562 13.6084849 13.0064489 14.00761 12.8405301 14.424 12.8399987L22.428 12.8399987zM15.984 20.3999963C15.3146309 20.3999963 14.772 20.9426309 14.772 21.612 14.772 22.2813691 15.3146309 22.824 15.984 22.824 16.6533691 22.824 17.1960037 22.2813691 17.1960037 21.612 17.1967992 21.2903133 17.0693634 20.9815717 16.8418958 20.7541042 16.6144283 20.5266366 16.3056867 20.3992008 15.984 20.3999963L15.984 20.3999963zM20.844 20.3999963C20.1746309 20.3999963 19.632 20.9426309 19.632 21.612 19.632 22.2813691 20.1746309 22.824 20.844 22.824 21.5133691 22.824 22.0560037 22.2813691 22.0560037 21.612 22.0567992 21.2903133 21.9293634 20.9815717 21.7018958 20.7541042 21.4744283 20.5266366 21.1656867 20.3992008 20.844 20.3999963zM15.984 17.244C15.3146309 17.244 14.772 17.7866309 14.772 18.456 14.772 19.1253691 15.3146309 19.668 15.984 19.668 16.6533691 19.668 17.1960203 19.1253691 17.1960203 18.456 17.1978676 18.1336215 17.0709036 17.8238487 16.8433196 17.5955137 16.6157356 17.3671786 16.3063829 17.2391946 15.984 17.2399962L15.984 17.244zM20.844 17.244C20.1746309 17.244 19.632 17.7866309 19.632 18.456 19.632 19.1253691 20.1746309 19.668 20.844 19.668 21.5133691 19.668 22.0560203 19.1253691 22.0560203 18.456 22.0578676 18.1336215 21.9309036 17.8238487 21.7033196 17.5955137 21.4757356 17.3671786 21.1663829 17.2391946 20.844 17.2399962L20.844 17.244zM15.984 14.0039963C15.3146309 14.0039963 14.772 14.5466309 14.772 15.216 14.772 15.8853691 15.3146309 16.428 15.984 16.428 16.6533691 16.428 17.1960037 15.8853691 17.1960037 15.216 17.1967992 14.8943133 17.0693634 14.5855717 16.8418958 14.3581042 16.6144283 14.1306366 16.3056867 14.0032008 15.984 14.0039963L15.984 14.0039963zM20.844 14.0039963C20.1746309 14.0039963 19.632 14.5466309 19.632 15.216 19.632 15.8853691 20.1746309 16.428 20.844 16.428 21.5133691 16.428 22.0560037 15.8853691 22.0560037 15.216 22.0567992 14.8943133 21.9293634 14.5855717 21.7018958 14.3581042 21.4744283 14.1306366 21.1656867 14.0032008 20.844 14.0039963zM9.588-.00000127735589C10.0050831-.000531655308 10.4052364.164918564 10.7001589.459841078 10.9950814.754763592 11.1605317 1.15491692 11.16 1.572L11.16 9.572C11.1661813 9.99225102 11.0030662 10.3973258 10.7073803 10.6960213 10.4116943 10.9947167 10.0082921 11.1619254 9.588 11.1600164L1.572 11.1600164C1.15491692 11.1605317.754763592 10.9950814.459841078 10.7001589.164918564 10.4052364-.000531655308 10.0050831-.00000127735589 9.588L-.00000127735589 1.572C.0027447252.704947821.704947821.0027447252 1.572-.00000127735589L9.588-.00000127735589zM8.016 6.79199627C7.52542833 6.79199627 7.0832382 7.08773166 6.89588041 7.54111629 6.70852263 7.99450093 6.81295146 8.51611608 7.1604109 8.8624288 7.50787035 9.20874151 8.02982787 9.31144542 8.48259066 9.12258988 8.93535346 8.93373433 9.22961905 8.490569 9.22800665 8 9.22773548 7.67900612 9.09983018 7.37129385 8.8724783 7.1446923 8.64512641 6.91809076 8.336993 6.79120338 8.016 6.79199627zM5.58 4.36799626C4.91063088 4.36799626 4.368 4.91063088 4.368 5.58 4.368 6.24936912 4.91063088 6.792 5.58 6.792 6.24936912 6.792 6.79200374 6.24936912 6.79200374 5.58 6.79279923 5.25831327 6.6653634 4.94957174 6.43789583 4.72210417 6.21042826 4.4946366 5.90168673 4.36720077 5.58 4.36799626L5.58 4.36799626zM3.156 1.932C2.48663088 1.932 1.944 2.47463088 1.944 3.144 1.944 3.81336912 2.48663088 4.356 3.156 4.356 3.82536912 4.356 4.368 3.81336912 4.368 3.144 4.36237613 2.52217391 3.89387735 2.00219176 3.276 1.932L3.156 1.932zM9.588 12.8399987C10.0050831 12.8394683 10.4052364 13.0049186 10.7001589 13.2998411 10.9950814 13.5947636 11.1605317 13.9949169 11.1600013 14.412L11.1600013 22.412C11.1605317 22.8290831 10.9950814 23.2292364 10.7001589 23.5241589 10.4052364 23.8190814 10.0050831 23.9845317 9.588 23.9840543L1.572 23.9840543C1.15679914 23.9874631.757370355 23.8251539.462270862 23.533058.167171369 23.240962.000784561013 22.8432146-.00000127735589 22.428L-.00000127735589 14.428C-.000531655308 14.0109169.164918564 13.6107636.459841078 13.3158411.754763592 13.0209186 1.15491692 12.8554683 1.572 12.856L9.588 12.856 9.588 12.8399987zM3.024 19.64C2.40612265 19.7101918 1.93762387 20.2301739 1.932 20.852 1.932 21.2850059 2.16300588 21.6851199 2.53799999 21.9016228 2.9129941 22.1181258 3.3750059 22.1181258 3.75000001 21.9016228 4.12499412 21.6851199 4.356 21.2850059 4.356 20.852 4.35037613 20.2301739 3.88187735 19.7101918 3.264 19.64L3.144 19.628 3.024 19.64zM8.016 19.628C7.34663088 19.628 6.804 20.1706309 6.804 20.84 6.804 21.5093691 7.34663088 22.052 8.016 22.052 8.68536912 22.052 9.228 21.5093691 9.228 20.84 9.22773548 20.5190061 9.09983018 20.2112939 8.8724783 19.9846923 8.64512641 19.7580908 8.336993 19.6312034 8.016 19.632L8.016 19.628zM5.58 17.2079963C4.91063088 17.2079963 4.368 17.7506309 4.368 18.42 4.368 19.0893691 4.91063088 19.632 5.58 19.632 6.24936912 19.632 6.79200374 19.0893691 6.79200374 18.42 6.79279923 18.0983133 6.6653634 17.7895717 6.43789583 17.5621042 6.21042826 17.3346366 5.90168673 17.2072008 5.58 17.2079963zM8.016 14.7719963C7.34663088 14.7719963 6.804 15.3146309 6.804 15.984 6.804 16.6533691 7.34663088 17.196 8.016 17.196 8.68536912 17.196 9.22800374 16.6533691 9.22800374 15.984 9.22879923 15.6623133 9.1013634 15.3535717 8.87389583 15.1261042 8.64642826 14.8986366 8.33768673 14.7712008 8.016 14.7719963L8.016 14.7719963zM3.156 14.772C2.48663088 14.772 1.944 15.3146309 1.944 15.984 1.944 16.6533691 2.48663088 17.196 3.156 17.196 3.82536912 17.196 4.368 16.6533691 4.368 15.984 4.36237613 15.3621739 3.89387735 14.8421918 3.276 14.772L3.156 14.772z"/>
</svg>
