<svg xmlns="http://www.w3.org/2000/svg" width="75" height="75" viewBox="0 0 75 75">
  <g fill="#3D3D3D">
    <polygon points="38.605 19.579 36.395 19.579 36.395 36.395 19.579 36.395 19.579 38.606 36.395 38.606 36.395 55.421 38.606 55.421 38.606 38.605 55.421 38.605 55.421 36.395 38.605 36.395"/>
    <path d="M37.5,0 C16.7893219,0 7.10542736e-15,16.7893219 7.10542736e-15,37.5 C7.10542736e-15,58.2106781 16.7893219,75 37.5,75 C58.2106781,75 75,58.2106781 75,37.5 C74.9812548,16.7970914 58.2029086,0.0187451553 37.5,0 Z M37.5,72.7900024 C18.0098712,72.7900024 2.21,56.9901288 2.21,37.5 C2.21,18.0098712 18.0098712,2.21 37.5,2.21 C56.9901288,2.21 72.7900024,18.0098712 72.7900024,37.5 C72.7934501,46.8605472 69.0765151,55.8387015 62.4576083,62.4576083 C55.8387015,69.0765151 46.8605472,72.7934501 37.5,72.7900024 Z"/>
  </g>
</svg>
