<svg xmlns="http://www.w3.org/2000/svg" width="24" height="25" viewBox="0 0 24 25">
  <path d="M19.9651765 3.10729412C18.0098824 1.368 15.4828235.256941176 12.7058824.0945882353L12.7058824 2.81788235C14.7345882 2.97035294 16.584 3.77929412 18.0409412 5.03152941L19.9651765 3.10729412zM21.2527059 11.3647059L23.976 11.3647059C23.8136471 8.58776471 22.7025882 6.06070588 20.9632941 4.10541176L19.0390588 6.02964706C20.2912941 7.48658824 21.1002353 9.336 21.2527059 11.3647059zM2.74729412 12.7764706L.024 12.7764706C.186352941 15.5534118 1.29741176 18.0804706 3.03670588 20.0357647L4.96094118 18.1115294C3.70870588 16.6545882 2.89976471 14.8051765 2.74729412 12.7764706zM4.96094118 6.02964706L3.03670588 4.10541176C1.29741176 6.06070588.186352941 8.58776471.024 11.3647059L2.74729412 11.3647059C2.89976471 9.336 3.70870588 7.48658824 4.96094118 6.02964706zM11.2941176 2.81788235L11.2941176.0945882353C8.51717647.256941176 5.99011765 1.368 4.03482353 3.10729412L5.95905882 5.03152941C7.416 3.77929412 9.26541176 2.97035294 11.2941176 2.81788235zM4.03482353 21.0338824C5.99011765 22.7731765 8.51717647 23.8842353 11.2941176 24.0465882L11.2941176 21.3232941C9.26541176 21.1708235 7.416 20.3618824 5.95905882 19.1096471L4.03482353 21.0338824zM12.7058824 21.3232941L12.7058824 24.0465882C15.4828235 23.8842353 18.0098824 22.7731765 19.9651765 21.0338824L18.0409412 19.1096471C16.584 20.3618824 14.7345882 21.1708235 12.7058824 21.3232941zM19.0390588 18.1115294L20.9632941 20.0357647C22.7025882 18.0804706 23.8136471 15.5534118 23.976 12.7764706L21.2527059 12.7764706C21.1002353 14.8051765 20.2912941 16.6545882 19.0390588 18.1115294zM19.8691765 12.0705882C19.8691765 7.73223529 16.3397647 4.20141176 12 4.20141176 7.66023529 4.20141176 4.13082353 7.73082353 4.13082353 12.0705882 4.13082353 16.4103529 7.66023529 19.9397647 12 19.9397647 16.3397647 19.9397647 19.8691765 16.4089412 19.8691765 12.0705882zM12.9247059 16.0969412L12.9063529 16.0969412 12.7058824 16.0969412 12.7058824 17.0018824C12.7058824 17.3915294 12.3896471 17.7077647 12 17.7077647 11.6103529 17.7077647 11.2941176 17.3915294 11.2941176 17.0018824L11.2941176 16.0969412 10.9708235 16.0828235C10.1576471 16.0771765 9.39247059 15.7143529 8.87152941 15.0903529 8.62164706 14.7910588 8.66258824 14.3463529 8.96188235 14.0964706 9.25552941 13.8508235 9.69882353 13.8818824 9.95576471 14.1868235 10.2098824 14.4917647 10.584 14.6823529 10.9807059 14.6851765L12.9162353 14.6851765C13.4484706 14.6865882 13.8776471 14.2616471 13.8776471 13.7308235 13.8776471 13.2042353 13.4498824 12.7764706 12.9232941 12.7764706 12.24 12.7764706 11.7952941 12.7764706 11.0738824 12.7764706 9.76941176 12.7764706 8.70776471 11.7148235 8.70776471 10.4103529 8.70776471 9.10588235 9.76517647 8.03717647 11.0908235 8.04423529L11.2941176 8.04423529 11.2941176 7.13929412C11.2941176 6.74964706 11.6103529 6.43341176 12 6.43341176 12.3896471 6.43341176 12.7058824 6.74964706 12.7058824 7.13929412L12.7058824 8.04423529 12.8668235 8.04423529C13.8564706 8.05129412 14.7289412 8.60188235 15.1792941 9.34447059 15.3896471 9.67341176 15.2936471 10.1096471 14.9647059 10.3185882 14.6569412 10.5148235 14.2192941 10.4583529 13.9807059 10.0884706 13.7350588 9.70305882 13.3143529 9.47152941 12.8569412 9.46729412L11.0823529 9.46729412C10.56 9.46164706 10.1209412 9.87105882 10.1209412 10.4089412 10.1209412 10.9355294 10.5487059 11.3632941 11.0752941 11.3632941L12.9247059 11.3632941C14.2291765 11.3632941 15.2908235 12.4249412 15.2908235 13.7294118 15.2908235 15.0367059 14.2348235 16.0969412 12.9247059 16.0969412L12.9247059 16.0969412z"/>
</svg>
