<svg xmlns="http://www.w3.org/2000/svg" width="24" height="24" viewBox="0 0 24 24">
  <path d="M21.3528994,0 L21.3528994,12.2328994 C21.3528994,17.3992899 17.1649704,21.5857988 12,21.5857988 C6.83502959,21.5857988 2.64710059,17.3978698 2.64710059,12.2328994 L2.64710059,0 L0,0 L0,12 C0,18.6276923 5.37230769,24 12,24 C18.6276923,24 24,18.6276923 24,12 L24,0 L21.3528994,0 Z"/>
  <g transform="translate(3.834)">
    <path d="M0.129230769,0 L0.129230769,12.2712426 C0.129230769,16.7105325 3.72781065,20.3076923 8.16568047,20.3076923 C12.6035503,20.3076923 16.2021302,16.7091124 16.2021302,12.2712426 L16.2021302,0 L0.129230769,0 Z M3.83431953,3.12426036 L12.4970414,3.12426036 L12.4970414,8.37869822 L3.83431953,8.37869822 L3.83431953,3.12426036 Z M8.16568047,17.8934911 C5.05988166,17.8934911 2.54343195,15.3756213 2.54343195,12.2712426 C2.54343195,12.2513609 2.54485207,12.2328994 2.54485207,12.2130178 L3.83573964,12.2130178 C3.83573964,12.2328994 3.83431953,12.2513609 3.83431953,12.2712426 C3.83431953,14.6627219 5.77420118,16.6026036 8.16568047,16.6026036 C10.5571598,16.6026036 12.4970414,14.6627219 12.4970414,12.2712426 C12.4970414,12.2513609 12.4956213,12.2328994 12.4956213,12.2130178 L13.7865089,12.2130178 C13.7865089,12.2328994 13.787929,12.2513609 13.787929,12.2712426 C13.787929,15.3756213 11.2714793,17.8934911 8.16568047,17.8934911 Z"/>
    <rect width="6.675" height="3.266" x="4.828" y="4.118"/>
  </g>
</svg>
