<svg xmlns="http://www.w3.org/2000/svg" width="127" height="150" viewBox="0 0 127 150">
  <g fill="none" fill-rule="evenodd" transform="translate(1)">
    <path fill="#000" fill-rule="nonzero" d="M24.1,96.9 C24.1,102.3 28.5,106.6 33.8,106.6 C39.2,106.6 43.5,102.2 43.5,96.9 C43.5,91.5 39.1,87.2 33.8,87.2 C28.5,87.2 24.1,91.5 24.1,96.9 L24.1,96.9 Z M16.7,97.5 C16.7,97.3 16.7,97.1 16.7,96.9 C16.7,87.4 24.4,79.7 33.9,79.7 C43.4,79.7 51.1,87.4 51.1,96.9 C51.1,106.4 43.4,114.1 33.9,114.1 C25.8,114.1 19.1,108.5 17.2,101.1 M110.8,127.3 C92.8,127.3 74.6,118.5 63.1,127.2 C54.2,117.2 34.5,127.3 15.3,127.3 C12.9,127.3 11.3,129.7 12.2,131.8 C16.7,142.3 27.3,149.7 39.7,149.7 C49.2,149.7 57.6,145.4 63.1,138.7 C68.6,145.4 77,149.7 86.5,149.7 C98.9,149.7 109.5,142.3 114,131.8 C114.8,129.7 113.1,127.3 110.8,127.3 L110.8,127.3 Z M125.1,61.9 C125.1,67.8 120.4,72.5 114.5,72.5 L11.5,72.5 C5.7,72.5 0.9,67.8 0.9,61.9 C0.9,56.1 5.6,51.3 11.5,51.3 L21.1,51.3 L21.1,11 C21.1,5 25.9,0.2 31.9,0.2 L94.1,0.2 C100.1,0.2 104.9,5 104.9,11 L104.9,51.2 L114.5,51.2 C120.3,51.3 125.1,56 125.1,61.9 L125.1,61.9 Z M74.5,97.1 C74.5,89.7 80.5,83.7 87.9,83.7 C95.3,83.7 101.3,89.7 101.3,97.1 C101.3,104.5 95.3,110.5 87.9,110.5 C80.5,110.5 74.5,104.5 74.5,97.1 L74.5,97.1 Z"/>
    <path stroke="#000" stroke-linecap="round" stroke-width="6" d="M16.6,98.6 C16.6,98.6 2.7,96.9 2.8,140.6"/>
  </g>
</svg>
