<svg xmlns="http://www.w3.org/2000/svg" width="19" height="24" viewBox="0 0 19 24">
  <path fill="#C1C1C1" fill-rule="evenodd" d="M19.0483696,17.156 L15.311413,15.245 C14.9572826,15.065 14.7391304,14.703 14.7391304,14.3 L14.7391304,12.947 C14.8291304,12.835 14.9230435,12.707 15.0208696,12.567 C15.5051087,11.866 15.8934783,11.088 16.1761957,10.247 C16.728913,9.988 17.0869565,9.43 17.0869565,8.8 L17.0869565,7.2 C17.0869565,6.815 16.946087,6.442 16.6956522,6.15 L16.6956522,4.023 C16.7171739,3.802 16.8032609,2.493 15.8768478,1.413 C15.0736957,0.475 13.7696739,0 12,0 C10.2303261,0 8.92630435,0.475 8.12315217,1.412 C7.19673913,2.492 7.28282609,3.802 7.30434783,4.023 L7.30434783,6.15 C7.05391304,6.442 6.91304348,6.815 6.91304348,7.2 L6.91304348,8.8 C6.91304348,9.287 7.12923913,9.741 7.49804348,10.044 C7.85706522,11.495 8.6073913,12.588 8.86956522,12.939 L8.86956522,14.262 C8.86956522,14.65 8.66315217,15.005 8.33054348,15.19 L4.8401087,17.136 C3.70434783,17.77 3,18.984 3,20.305 L3,21.6 C3,23.499 8.88717391,24 12,24 C15.1128261,24 21,23.499 21,21.6 L21,20.383 C21,19.008 20.2516304,17.771 19.0483696,17.156" transform="translate(-2.694)"/>
</svg>
