<svg xmlns="http://www.w3.org/2000/svg" width="18" height="15" viewBox="0 0 18 15">
  <g fill="#020203">
    <path d="M8.44729927,9.81591241 C8.44729927,10.0370803 8.35270073,10.289781 8.19459854,10.4794161 L5.06759124,14.0272993 C4.84642336,14.2484672 4.53065693,14.3745985 4.21489051,14.3745985 C3.89912409,14.3745985 3.58335766,14.2480292 3.39372263,14.0272993 L0.266715328,10.7421898 C-0.0805839416,10.3633577 -0.0805839416,9.76291971 0.298248175,9.41562044 C0.677080292,9.06832117 1.27751825,9.06832117 1.62481752,9.44715328 L4.21489051,12.1322628 L6.8049635,9.41562044 C7.15226277,9.03678832 7.75270073,9.03678832 8.13153285,9.38408759 C8.35226277,9.57328467 8.44729927,9.56321168 8.44729927,9.81591241 Z"/>
    <path d="M5.16218978.974452555L5.16218978 13.079562C5.16218978 13.6164964 4.75138686 14.0272993 4.21445255 14.0272993 3.67751825 14.0272993 3.26671533 13.6164964 3.26671533 13.079562L3.26671533.974452555C3.26671533.437518248 3.67751825.0267153285 4.21445255.0267153285 4.75138686.0267153285 5.16218978.437518248 5.16218978.974452555zM17.9947445 4.58540146C17.9947445 4.36423358 17.900146 4.11153285 17.7420438 3.92189781L14.6150365.374014599C14.3938686.152846715 14.0781022.0267153285 13.7623358.0267153285 13.4465693.0267153285 13.1308029.152846715 12.9411679.374014599L9.81416058 3.65912409C9.46686131 4.0379562 9.46686131 4.63839416 9.84569343 4.98569343 10.2245255 5.3329927 10.8249635 5.3329927 11.1722628 4.95416058L13.7623358 2.26905109 16.3524088 4.98569343C16.699708 5.36452555 17.300146 5.36452555 17.6789781 5.01722628 17.899708 4.8280292 17.9947445 4.83810219 17.9947445 4.58540146z"/>
    <path d="M14.709635,13.4268613 L14.709635,1.32175182 C14.709635,0.784817518 14.2988321,0.374014599 13.7618978,0.374014599 C13.2249635,0.374014599 12.8141606,0.784817518 12.8141606,1.32175182 L12.8141606,13.4268613 C12.8141606,13.9637956 13.2249635,14.3745985 13.7618978,14.3745985 C14.2988321,14.3745985 14.709635,13.9642336 14.709635,13.4268613 Z"/>
  </g>
</svg>
