<svg xmlns="http://www.w3.org/2000/svg" width="24" height="24" viewBox="0 0 24 24">
	<path fill="#020203" d="M21.127789,13.3913185 C21.127789,19.2116836 16.3842596,23.955213 10.5638945,23.955213 C4.74352941,23.955213 0.025801217,19.236998 0,13.4424341 C0,13.4166329 0,13.4166329 0,13.3913185 C0,13.3655172 0,13.3655172 0,13.3402028 C0,10.6992292 0.999918864,8.18628803 2.7948073,6.23756592 C3.17939148,5.82718053 3.82052738,5.80186613 4.20511156,6.1864503 C4.61549696,6.57103448 4.64081136,7.18636917 4.25622718,7.59675456 C3.02555781,8.93014199 2.25638945,10.5965112 2.05095335,12.3660852 L3.53817444,12.3660852 C4.10239351,12.3660852 4.53809331,12.8275862 4.53809331,13.3660041 C4.53809331,13.9302231 4.07659229,14.3659229 3.53817444,14.3659229 L2.05144016,14.3659229 C2.53874239,18.3660852 5.74344828,21.5196755 9.74361055,21.9042596 L9.74361055,20.3143205 C9.74361055,19.7501014 10.2051116,19.3144016 10.7435294,19.3144016 C11.3077485,19.3144016 11.7434483,19.7759026 11.7434483,20.3143205 L11.7434483,21.8526572 C15.5892901,21.3142394 18.6153347,18.2375659 19.0768357,14.3912373 L17.5638134,14.3912373 C16.9995943,14.3912373 16.5638945,13.9297363 16.5638945,13.3913185 C16.5638945,12.8270994 17.0253955,12.3913996 17.5638134,12.3913996 L19.0768357,12.3913996 C18.7691684,9.49387424 17.076998,6.98141988 14.48714,5.72494929 C14.0256389,5.49419878 13.7948884,4.92997972 13.9998377,4.4431643 L14.7178905,2.64827586 L7.38450304,5.00738337 L10.3842596,11.058499 L11.256146,9.21249493 C11.4868966,8.6998783 12.1022312,8.49444219 12.5895335,8.7251927 C13.1021501,8.9559432 13.3075862,9.57127789 13.0768357,10.0585801 L11.3077485,13.8021907 C11.1539148,14.1609736 10.7951318,14.3664097 10.4105477,14.3664097 L10.4105477,14.3664097 C10.0259635,14.3664097 9.66718053,14.1614604 9.51334686,13.8021907 L5.07748479,4.82823529 C4.94945233,4.57168357 4.94945233,4.26401623 5.05168357,3.9821501 C5.15440162,3.72559838 5.38515213,3.49484787 5.66701826,3.41793103 L16.1277079,0.0837322515 C16.4864909,-0.0443002028 16.8968763,0.0579310345 17.1787424,0.365598377 C17.4352941,0.647464503 17.512211,1.0578499 17.3836917,1.41663286 L16.2041379,4.36527383 C19.281785,6.23756592 21.127789,9.62190669 21.127789,13.3913185 Z" transform="translate(1)"/>
</svg>
