<svg xmlns="http://www.w3.org/2000/svg" width="24" height="24" viewBox="0 0 24 24">
  <path fill="#C1C1C1" fill-rule="evenodd" d="M23.6123,13.7456254 L22.6993,12.3976254 C22.5353,12.1566254 22.5353,11.8436254 22.6993,11.6016254 L23.6123,10.2536254 C24.4433,9.02462537 23.8813,7.37762537 22.4623,6.85662537 L20.8993,6.28162537 C20.6193,6.17862537 20.4273,5.92562537 20.4123,5.63762537 L20.3263,4.03262537 C20.2483,2.57262537 18.7903,1.55362537 17.3163,1.93162537 L15.7013,2.34962537 C15.4113,2.42362537 15.1003,2.32762537 14.9123,2.10262537 L13.8593,0.852625371 C12.9023,-0.285374629 11.0943,-0.283374629 10.1393,0.853625371 L9.0883,2.10262537 C8.8993,2.32762537 8.5893,2.42462537 8.2993,2.34962537 L6.6833,1.93262537 C5.2143,1.55162537 3.7523,2.57062537 3.6743,4.03262537 L3.5883,5.63762537 C3.5723,5.92562537 3.3813,6.17862537 3.1003,6.28162537 L1.5383,6.85662537 C0.1173,7.37862537 -0.4437,9.02662537 0.3883,10.2546254 L1.3003,11.6006254 C1.4653,11.8436254 1.4653,12.1566254 1.3003,12.3976254 L0.3883,13.7456254 C-0.4437,14.9716254 0.1163,16.6216254 1.5383,17.1436254 L3.1003,17.7186254 C3.3813,17.8216254 3.5723,18.0746254 3.5883,18.3626254 L3.6743,19.9686254 C3.7523,21.4276254 5.2113,22.4476254 6.6833,22.0686254 L8.2993,21.6506254 C8.5883,21.5766254 8.8983,21.6716254 9.0883,21.8976254 L10.1393,23.1466254 C11.0953,24.2826254 12.9003,24.2856254 13.8603,23.1476254 L14.9123,21.8976254 C15.1013,21.6716254 15.4113,21.5766254 15.7003,21.6506254 L17.3173,22.0686254 C18.7843,22.4466254 20.2483,21.4316254 20.3263,19.9686254 L20.4123,18.3636254 C20.4263,18.0746254 20.6193,17.8216254 20.8993,17.7186254 L22.4623,17.1436254 C23.8833,16.6216254 24.4433,14.9746254 23.6123,13.7456254 M8.7013,7.77862537 C9.6003,7.77862537 10.3333,8.48162537 10.3333,9.34562537 C10.3333,10.2096254 9.6003,10.9126254 8.7013,10.9126254 C7.8013,10.9126254 7.0703,10.2096254 7.0703,9.34562537 C7.0703,8.48162537 7.8013,7.77862537 8.7013,7.77862537 M14.6813,16.6566254 C13.7823,16.6566254 13.0503,15.9536254 13.0503,15.0896254 C13.0503,14.2256254 13.7823,13.5226254 14.6813,13.5226254 C15.5813,13.5226254 16.3133,14.2256254 16.3133,15.0896254 C16.3133,15.9536254 15.5813,16.6566254 14.6813,16.6566254 M16.0743,9.11662537 L8.4633,16.4266254 C8.1443,16.7326254 7.6283,16.7326254 7.3093,16.4266254 C6.9913,16.1206254 6.9913,15.6246254 7.3093,15.3196254 L14.9213,8.00862537 C15.2393,7.70262537 15.7563,7.70262537 16.0743,8.00862537 C16.3923,8.31462537 16.3923,8.80962537 16.0743,9.11662537"/>
</svg>
