<svg xmlns="http://www.w3.org/2000/svg" width="76" height="60" viewBox="0 0 76 60">
  <path fill="#FFC67E" fill-rule="evenodd" d="M13.7326733,16.5384615 C13.0054072,16.5384615 12.4158416,15.9357679 12.4158416,15.1923077 C12.4158416,14.4488475 13.0054072,13.8461538 13.7326733,13.8461538 C14.4599393,13.8461538 15.049505,14.4488475 15.049505,15.1923077 C15.049505,15.9357679 14.4599393,16.5384615 13.7326733,16.5384615 Z M23.5148515,16.5384615 C22.7875854,16.5384615 22.1980198,15.9357679 22.1980198,15.1923077 C22.1980198,14.4488475 22.7875854,13.8461538 23.5148515,13.8461538 C24.2421175,13.8461538 24.8316832,14.4488475 24.8316832,15.1923077 C24.8316832,15.9357679 24.2421175,16.5384615 23.5148515,16.5384615 Z M13.7326733,24.6153846 C13.0054072,24.6153846 12.4158416,24.012691 12.4158416,23.2692308 C12.4158416,22.5257705 13.0054072,21.9230769 13.7326733,21.9230769 C14.4599393,21.9230769 15.049505,22.5257705 15.049505,23.2692308 C15.049505,24.012691 14.4599393,24.6153846 13.7326733,24.6153846 Z M23.5148515,24.6153846 C22.7875854,24.6153846 22.1980198,24.012691 22.1980198,23.2692308 C22.1980198,22.5257705 22.7875854,21.9230769 23.5148515,21.9230769 C24.2421175,21.9230769 24.8316832,22.5257705 24.8316832,23.2692308 C24.8316832,24.012691 24.2421175,24.6153846 23.5148515,24.6153846 Z M13.7326733,32.6923077 C13.0054072,32.6923077 12.4158416,32.0896141 12.4158416,31.3461538 C12.4158416,30.6026936 13.0054072,30 13.7326733,30 C14.4599393,30 15.049505,30.6026936 15.049505,31.3461538 C15.049505,32.0896141 14.4599393,32.6923077 13.7326733,32.6923077 Z M23.5148515,32.6923077 C22.7875854,32.6923077 22.1980198,32.0896141 22.1980198,31.3461538 C22.1980198,30.6026936 22.7875854,30 23.5148515,30 C24.2421175,30 24.8316832,30.6026936 24.8316832,31.3461538 C24.8316832,32.0896141 24.2421175,32.6923077 23.5148515,32.6923077 Z M74.9465744,20.3323692 C75.5630344,20.3687308 76.033729,20.9083976 75.9981041,21.5377564 C75.9927603,21.6316905 75.9857838,21.7259277 75.9767291,21.8204679 C75.7479872,24.2307876 74.4212549,26.314459 72.3904845,27.4996958 C73.4737797,29.0158232 73.9346775,30.9088991 73.6599201,32.7792491 C73.3762564,34.7095957 72.3447658,36.4176821 70.8014634,37.5421647 C71.953782,39.0791999 72.4492656,41.0210611 72.165602,42.9512562 C71.8906962,44.8216062 70.9064086,46.4934824 69.4350983,47.618571 C71.0361428,49.3598373 71.7057433,51.7487946 71.2317831,54.1215408 C70.5467451,57.5525611 67.529609,60 64.1639421,60 C63.8893332,60 63.6124976,59.9836373 63.3341778,59.9503058 C60.9771422,59.6674428 58.9089656,58.208888 57.8050376,56.0906731 C56.2841493,57.3283312 54.3473397,57.8633013 52.4028114,57.5660452 C50.4165721,57.2621228 48.6946997,56.1359736 47.5990842,54.4447045 C46.0657271,55.7335719 44.0953707,56.2942981 42.1097252,55.9908302 C40.1649,55.6932711 38.4673713,54.601817 37.3687871,52.9632722 C35.7049536,54.6580259 33.3087306,55.4332856 30.9739607,54.9981584 C27.3212162,54.3172874 24.7404857,50.8312702 25.0982195,47.0616324 C25.1601179,46.4089417 25.3049927,45.7815525 25.5200783,45.1882523 C24.7007045,44.7900928 23.9585181,44.228003 23.3350816,43.5212243 C22.0058257,45.0279583 20.139227,45.8810924 18.1308706,45.8810924 C16.1642251,45.8810924 14.3268685,45.0585626 13.0026596,43.6044015 C11.6481694,45.4703578 9.48989141,46.5883256 7.20187922,46.5883256 C7.12587933,46.5883256 7.05002789,46.5871135 6.97387956,46.5845379 C3.26294763,46.4640901 0.204100664,43.4071398 0.0102415797,39.6250785 C-0.113851984,37.2068804 0.895373063,34.9456431 2.73183906,33.4660289 C1.44013787,32.130649 0.709529592,30.328174 0.709529592,28.4369161 C0.709529592,26.484904 1.48140343,24.6395527 2.84450295,23.2940218 C2.45426135,22.9084373 2.10929312,22.4784614 1.81538731,22.0106087 C1.48199718,21.4801838 1.63325477,20.7744657 2.15308211,20.4343332 C2.67276102,20.0942007 3.36403342,20.248283 3.69742354,20.7788594 C3.96386846,21.2027751 4.2917664,21.5813903 4.67206271,21.903948 C5.07729647,22.2475652 5.30960081,22.7542035 5.30960081,23.2940218 C5.30960081,23.8339916 5.07729647,24.34063 4.67206271,24.6842471 C3.57466592,25.6148012 2.94529186,26.9826035 2.94529186,28.4369161 C2.94529186,29.8577458 3.55076751,31.2050947 4.60660187,32.1333761 C5.03246841,32.5075976 5.25735089,33.0501431 5.22365563,33.6219293 C5.1901088,34.1903823 4.90555454,34.6980812 4.44272711,35.0150332 C2.97260432,36.0213406 2.15011337,37.7001861 2.24288667,39.5056912 C2.37648021,42.1129697 4.48577392,44.2205792 7.04483258,44.3036048 C8.82400178,44.3625409 10.5089133,43.4359261 11.4428807,41.8884368 C11.7491068,41.3808894 12.278731,41.0581802 12.8598629,41.0248487 C13.4427761,40.9921233 14.006244,41.2531693 14.3675403,41.7245066 C15.280578,42.9158036 16.6521385,43.5989472 18.1307222,43.5989472 C19.6294934,43.5989472 21.0129288,42.9008045 21.9258181,41.6839028 C22.2639582,41.2331704 22.7774027,40.974397 23.3346362,40.974397 C23.8918698,40.9742455 24.4056112,41.2327159 24.7438998,41.6837513 C25.2466568,42.3538653 25.893398,42.8633823 26.6222251,43.1885156 C27.1822789,42.4688589 27.8763716,41.8535903 28.6841673,41.3821015 C27.6007236,39.8662771 27.1399743,37.9732012 27.4147317,36.1025482 C27.6982469,34.1725046 28.729886,32.4642667 30.2731883,31.3397841 C29.1208697,29.8027489 28.6253861,27.8610392 28.9089013,25.9305411 C29.1838072,24.0601911 30.1682432,22.3883149 31.639405,21.2632263 C30.038509,19.5221115 29.3689084,17.1331542 29.8427202,14.760408 C30.5838676,11.0495549 34.0510655,8.48894046 37.7403256,8.93164298 C39.5641744,9.15057013 41.2127188,10.0752154 42.3776545,11.4627136 C43.7518868,10.4470128 44.5163388,8.82467926 44.4269796,7.08220092 C44.293386,4.47492245 42.1840923,2.36731301 39.6250337,2.28428734 C37.8455676,2.22565426 36.1608045,3.1518146 35.2269856,4.69930384 C34.9204626,5.20715424 34.39069,5.52986347 33.8097065,5.56304343 C33.231098,5.59592038 32.6637707,5.33472286 32.3023259,4.86338558 C31.3892882,3.67224005 30.0175793,2.98894492 28.5389956,2.98894492 C27.0402244,2.98894492 25.6569374,3.6869362 24.7440482,4.90398937 C24.4056112,5.35487325 23.8920182,5.61349516 23.3349331,5.61349516 C23.3347847,5.61349516 23.3347847,5.61349516 23.3346362,5.61349516 C22.7774027,5.61349516 22.2639582,5.35487325 21.9258181,4.90398937 C21.0129288,3.68708771 19.6296418,2.98909643 18.1307222,2.98909643 C16.6521385,2.98909643 15.280578,3.67224005 14.3675403,4.86338558 C14.006244,5.33472286 13.4426277,5.59546586 12.8598629,5.56304343 C12.278731,5.52971196 11.7491068,5.20700273 11.4428807,4.69930384 C10.5090618,3.15196611 8.82578303,2.22747234 7.04468414,2.28428734 C4.48562549,2.36731301 2.37633178,4.47492245 2.24288667,7.08220092 C2.15041024,8.88800906 2.97260432,10.5667031 4.44257867,11.572859 C4.90555454,11.8898109 5.19025724,12.3975098 5.22365563,12.9659629 C5.25720245,13.5379006 5.03231998,14.080446 4.60660187,14.454819 C4.35218037,14.6784429 4.12017291,14.9300955 3.91725915,15.2025045 C3.54379096,15.7041431 2.84212795,15.8017134 2.35080057,15.4202196 C1.8591763,15.0388773 1.76373113,14.3230082 2.13734776,13.8215211 C2.32037092,13.5759288 2.51912844,13.342154 2.73183906,13.1221663 C0.895521501,11.6427035 -0.113703547,9.38131481 0.0102415797,6.96311667 C0.203952226,3.18105539 3.26265076,0.124105084 6.97373112,0.00396028632 C9.3453135,-0.0758837346 11.6031929,1.05617419 13.0026596,2.9840967 C14.327017,1.52993558 16.1642251,0.707405807 18.1308706,0.707405807 C20.139227,0.707405807 22.0059742,1.56069144 23.3350816,3.06727387 C24.6640405,1.56053993 26.5306393,0.707405807 28.5391441,0.707405807 C30.5057895,0.707405807 32.3431462,1.52993558 33.6675035,2.9840967 C35.0666733,1.05632569 37.3244043,-0.0740656545 39.6962836,0.00396028632 C43.4072155,0.124408098 46.4660625,3.1813584 46.6599215,6.96341969 C46.7474995,8.67165752 46.2674534,10.3000513 45.3320017,11.6313405 C46.3875391,11.2563615 47.5281312,11.1409134 48.6721373,11.3163581 C50.658228,11.6204321 52.3803973,12.7467327 53.4758644,14.4376988 C55.0087762,13.1488315 56.978242,12.5876507 58.9652234,12.8915731 C60.9099001,13.1891322 62.6075773,14.2807379 63.7060131,15.9191311 C65.369995,14.2243774 67.7663664,13.4494207 70.1011363,13.8842449 C70.7661353,14.0081773 71.4094625,14.2274075 72.0133053,14.5357236 C72.565492,14.8176775 72.7890386,15.5030938 72.5127968,16.0665471 C72.2368519,16.630152 71.5650248,16.858624 71.0129865,16.5765186 C70.5982528,16.3648638 70.156355,16.2142661 69.6993166,16.1291194 C67.9483505,15.802774 66.147361,16.4630401 64.9989018,17.8519018 C64.6223164,18.3076339 64.0511298,18.545954 63.4722244,18.4915631 C62.8910925,18.4362631 62.3717105,18.092343 62.0828515,17.571463 C61.352837,16.2553244 60.0957217,15.3720405 58.6334661,15.1482651 C57.1517652,14.9211566 55.6819392,15.4023418 54.6023549,16.4677368 C54.202168,16.8624117 53.6572548,17.0402806 53.1056619,16.9561943 C52.5546627,16.8718051 52.0844134,16.5384904 51.815445,16.041397 C51.0892899,14.6996538 49.822823,13.8000072 48.3405284,13.5732017 C46.8787181,13.3497293 45.4226968,13.8172789 44.3465266,14.8573723 C43.9208085,15.2685614 43.325575,15.4418851 42.7542399,15.3211342 C42.1843892,15.2003834 41.7073118,14.8010118 41.4781246,14.2527091 C40.7794304,12.5808329 39.2471124,11.4105953 37.4793728,11.1984859 C34.9366423,10.893503 32.5445755,12.6584043 32.033506,15.2165946 C31.67978,16.9883138 32.2490369,18.772911 33.5564725,19.9904187 C33.9682375,20.3738821 34.1760497,20.9190031 34.12662,21.4862441 C34.0768936,22.0568183 33.7758628,22.5595174 33.3002697,22.8652579 C32.1213809,23.6235489 31.3266477,24.8643886 31.1201714,26.2694615 C30.9089452,27.7077145 31.3327336,29.1556638 32.2827322,30.2419667 C32.6336379,30.6433079 32.7897939,31.1794901 32.711419,31.7133996 C32.6328957,32.2473092 32.3296384,32.7131922 31.8791312,32.9916615 C30.6583831,33.7460132 29.8373765,35.0033672 29.6261502,36.4416201 C29.419674,37.8468446 29.8228296,39.2708559 30.7321564,40.3486744 C31.0989449,40.7834986 31.2424838,41.3542243 31.1258121,41.9146475 C31.010031,42.4714345 30.6548206,42.9303483 30.1511729,43.173668 C28.5511675,43.9463521 27.4941456,45.4821753 27.3234428,47.2817716 C27.0768884,49.8804142 28.8566514,52.2839162 31.3754836,52.7534354 C33.1258559,53.0800838 34.9274392,52.4195147 36.0756015,51.030653 C36.4520384,50.5749209 37.0220376,50.3358433 37.6024273,50.3909918 C38.1835593,50.4462917 38.7027929,50.7902119 38.9918002,51.3110918 C39.7218148,52.6273819 40.9790785,53.5105143 42.4413341,53.7342897 C43.9236288,53.9607922 45.3928609,53.4800615 46.4724453,52.414818 C46.8720384,52.0199916 47.4175454,51.8421228 47.9688414,51.9263605 C48.5199891,52.0105982 48.9903868,52.3440644 49.2593551,52.8411578 C49.9855103,54.182901 51.2521256,55.0825476 52.7342718,55.3093532 C54.1956368,55.5328255 55.6522518,55.0652759 56.7282736,54.0251825 C57.1541402,53.6136904 57.7496705,53.4403667 58.3208572,53.5614206 C58.8905594,53.6821714 59.3676368,54.0816945 59.5966756,54.6299972 C60.2953698,56.3015704 61.8276878,57.471808 63.5954274,57.6839174 C66.1389001,57.9889003 68.5303731,56.223999 69.0412942,53.6658087 C69.3951687,51.8940895 68.8259117,50.1093408 67.5183277,48.8918332 C67.1065627,48.5083697 66.8987505,47.9632487 66.9481801,47.3960077 C66.9980551,46.8254335 67.2993827,46.3227344 67.7748273,46.0169939 C68.9535678,45.2588544 69.7481525,44.0180147 69.9546288,42.6127903 C70.1660034,41.1746888 69.742215,39.7267395 68.792068,38.6402851 C68.4413107,38.2389439 68.2850063,37.7026102 68.3635296,37.1687007 C68.4420529,36.6347911 68.7454587,36.1690596 69.1959658,35.8905903 C70.4164171,35.1362386 71.2374237,33.8788846 71.4487984,32.4406317 C71.6552746,31.0355587 71.252119,29.6115474 70.3426438,28.5335774 C69.9758553,28.0989047 69.8324649,27.5281791 69.9488397,26.9676043 C70.0646208,26.4106658 70.4198312,25.951752 70.9237757,25.7084323 C72.5234843,24.9358997 73.5805061,23.4000765 73.7513574,21.6003286 C73.7574434,21.5353323 73.7623418,21.4703359 73.7660527,21.4054911 C73.8016777,20.7761323 74.33338,20.2946441 74.9465744,20.3323692 Z M42.3267327,26.1538462 C41.5994666,26.1538462 41.009901,25.5511525 41.009901,24.8076923 C41.009901,24.0642321 41.5994666,23.4615385 42.3267327,23.4615385 C43.0539987,23.4615385 43.6435644,24.0642321 43.6435644,24.8076923 C43.6435644,25.5511525 43.0539987,26.1538462 42.3267327,26.1538462 Z M51.7326733,27.6923077 C51.0054072,27.6923077 50.4158416,27.0896141 50.4158416,26.3461538 C50.4158416,25.6026936 51.0054072,25 51.7326733,25 C52.4599393,25 53.049505,25.6026936 53.049505,26.3461538 C53.049505,27.0896141 52.4599393,27.6923077 51.7326733,27.6923077 Z M61.5148515,29.2307692 C60.7875854,29.2307692 60.1980198,28.6280756 60.1980198,27.8846154 C60.1980198,27.1411551 60.7875854,26.5384615 61.5148515,26.5384615 C62.2421175,26.5384615 62.8316832,27.1411551 62.8316832,27.8846154 C62.8316832,28.6280756 62.2421175,29.2307692 61.5148515,29.2307692 Z M41.1980198,34.2307692 C40.4707537,34.2307692 39.8811881,33.6280756 39.8811881,32.8846154 C39.8811881,32.1411551 40.4707537,31.5384615 41.1980198,31.5384615 C41.9252859,31.5384615 42.5148515,32.1411551 42.5148515,32.8846154 C42.5148515,33.6280756 41.9252859,34.2307692 41.1980198,34.2307692 Z M50.6039604,35.7692308 C49.8766943,35.7692308 49.2871287,35.1665372 49.2871287,34.4230769 C49.2871287,33.6796167 49.8766943,33.0769231 50.6039604,33.0769231 C51.3312265,33.0769231 51.9207921,33.6796167 51.9207921,34.4230769 C51.9207921,35.1665372 51.3312265,35.7692308 50.6039604,35.7692308 Z M60.009901,37.3076923 C59.2826349,37.3076923 58.6930693,36.7049987 58.6930693,35.9615385 C58.6930693,35.2180782 59.2826349,34.6153846 60.009901,34.6153846 C60.737167,34.6153846 61.3267327,35.2180782 61.3267327,35.9615385 C61.3267327,36.7049987 60.737167,37.3076923 60.009901,37.3076923 Z M39.6930693,42.3076923 C38.9658033,42.3076923 38.3762376,41.7049987 38.3762376,40.9615385 C38.3762376,40.2180782 38.9658033,39.6153846 39.6930693,39.6153846 C40.4203354,39.6153846 41.009901,40.2180782 41.009901,40.9615385 C41.009901,41.7049987 40.4203354,42.3076923 39.6930693,42.3076923 Z M49.4752475,43.8461538 C48.7479815,43.8461538 48.1584158,43.2434602 48.1584158,42.5 C48.1584158,41.7565398 48.7479815,41.1538462 49.4752475,41.1538462 C50.2025136,41.1538462 50.7920792,41.7565398 50.7920792,42.5 C50.7920792,43.2434602 50.2025136,43.8461538 49.4752475,43.8461538 Z M58.8811881,45.3846154 C58.1539221,45.3846154 57.5643564,44.7819218 57.5643564,44.0384615 C57.5643564,43.2950013 58.1539221,42.6923077 58.8811881,42.6923077 C59.6084542,42.6923077 60.1980198,43.2950013 60.1980198,44.0384615 C60.1980198,44.7819218 59.6084542,45.3846154 58.8811881,45.3846154 Z"/>
</svg>
