<svg xmlns="http://www.w3.org/2000/svg" width="64" height="64" viewBox="0 0 64 64">
  <g fill="none" fill-rule="evenodd">
    <path fill="#FFF" fill-rule="nonzero" d="M9.0184135 9.01845173C12.7123096 5.32456605 18.4554113 4.9293351 22.5882353 7.83200873L7.83206093 22.5882353C4.92928535 18.4553291 5.32461119 12.7123374 9.0184135 9.01845173zM37.4974378 17.8022399L40.0435978 20.3487665 37.7680538 22.6242992 39.0930769 23.9493158C39.7522235 24.6085539 39.7522235 25.6772686 39.0930769 26.3364119L33.987771 31.4416925 36.252225 33.7060405C39.4456834 31.3817876 43.5669139 30.9081408 47.1380972 32.2862377 47.9005613 32.5803593 48.1140209 33.556847 47.5361065 34.1347585L41.9395212 39.7313161 43.2799946 41.0717828C43.8897573 41.6816373 43.8897573 42.6702576 43.2799946 43.2800173 42.6702318 43.8897771 41.6816066 43.8897771 41.071749 43.2800173L39.7312757 41.9395506 34.1346904 47.5361081C33.5568707 48.1140197 32.5803782 47.9005611 32.2861603 47.1381008 30.9080567 43.5668404 31.381611 39.4457252 33.7059702 36.2522827L31.4416109 33.9878399 26.336305 39.0931204C25.6770636 39.7522638 24.6082489 39.7522638 23.9491023 39.0931204L22.6240791 37.7681039 20.3877767 40.0044899 17.8414271 37.4582477 20.0778243 35.2218617 9.68067227 24.8246665 24.8246469 9.68067227 35.2218937 20.0777727 37.4974378 17.8022399zM.499277822 50.513875C-.166425941 49.8481719-.166425941 48.7689768.499277822 48.1032738L12.0697931 36.5328668C12.4025971 36.1999674 12.83887 36.0336134 13.2750471 36.0336134 13.7112243 36.0336134 14.1474971 36.1999674 14.4803012 36.5328668L16.5866242 38.6391876 19.1578392 41.2103998 21.5512141 43.6037721C22.2168222 44.2694751 22.2168222 45.3486702 21.5512141 46.0142776L9.98069887 57.5847803C9.64789484 57.9176796 9.21162198 58.0840336 8.77544483 58.0840336 8.33926769 58.0840336 7.90299483 57.9175839 7.5701908 57.5847803L.499277822 50.513875zM57.584826 7.57015866C58.2504362 8.23576598 58.2504362 9.31505678 57.584826 9.98066411L46.014273 21.5511668C45.6814679 21.8840662 45.2451936 22.0504202 44.8090151 22.0504202 44.3728365 22.0504202 43.9365622 21.8840662 43.6037571 21.5511668L41.1536147 19.1009393 38.5822956 16.5297271 36.5328211 14.4802615C35.8672109 13.8145585 35.8672109 12.7353634 36.5328211 12.0697561L48.103374.499253351C48.4361791.166353973 48.8724534 0 49.308632 0 49.7448106 0 50.1810848.166449689 50.51389.499253351L57.584826 7.57015866zM47.3277311 50.9768081L47.3277311 53.7815126C50.8864389 53.7815126 53.7815126 50.8863431 53.7815126 47.3277311L50.9768081 47.3277311C50.9768081 49.3398121 49.3398121 50.9768081 47.3277311 50.9768081zM52.7058824 64C58.933464 64 64 58.933464 64 52.7058824L61.2346741 52.7058824C61.2346741 57.4162056 57.4162056 61.2346741 52.7058824 61.2346741L52.7058824 64 52.7058824 64z"/>
    <circle cx="46.252" cy="46.252" r="1.613" fill="#FF4C4C"/>
    <circle cx="54.857" cy="54.857" r="1.613" fill="#FF4C4C"/>
  </g>
</svg>
