<svg xmlns="http://www.w3.org/2000/svg" width="22" height="24" viewBox="0 0 22 24">
  <path fill="#221F20" d="M.034962963.0557037037L.034962963 3.69777778C.289185185 4.29214815.546962963 4.88592593.801185185 5.4802963L.801185185 11.7742222C.546962963 12.3685926.293333333 12.9623704.0432592593 13.5608889L.0432592593 18.9208889.0432592593 18.962963C1.79555556 19.7594074 3.54311111 20.5517037 5.29540741 21.3481481L5.29540741 21.3179259 5.29540741.0557037037.034962963.0557037037zM6.01896296.0557037037C6.01007407 7.24918519 6.00592593 14.4474074 5.99762963 21.6408889L5.99762963 21.6497778C7.47851852 22.3342222 8.96355556 23.0228148 10.4444444 23.7078519L10.4444444 23.6734815 10.4444444.0557037037 6.01896296.0557037037zM21.5946667 3.69777778L21.5946667.0557037037 16.3383704.0557037037 16.3383704 21.3179259 16.3383704 21.3481481C18.0906667 20.5517037 19.8382222 19.7594074 21.5905185 18.962963L21.5905185 18.9197037 21.5905185 13.5597037C21.3362963 12.9653333 21.0826667 12.3674074 20.8325926 11.773037L20.8325926 5.47555556C21.0868148 4.88592593 21.3404444 4.29155556 21.5946667 3.69777778zM15.6106667.0557037037L11.1851852.0557037037 11.1851852 23.6728889 11.1851852 23.7072593C12.6660741 23.0228148 14.1511111 22.3342222 15.632 21.6491852L15.632 21.6402963C15.6278519 14.4474074 15.618963 7.24918519 15.6106667.0557037037z" transform="translate(.244)"/>
</svg>
