<svg xmlns="http://www.w3.org/2000/svg" width="24" height="24" viewBox="0 0 24 24">
  <path fill="#221F20" d="M23.7167407,2.26311111 L23.7167407,1.13481481 C23.7167407,0.823703704 23.4648889,0.570074074 23.152,0.570074074 L20.8948148,0.570074074 C20.672,0.570074074 20.4918519,0.584888889 20.3300741,0.62637037 L20.3300741,0.570074074 C20.3300741,0.258962963 20.0782222,0.00533333333 19.7653333,0.00533333333 L16.3792593,0.00533333333 C15.4008889,0.00533333333 15.0465185,0.56 14.8397037,1.13422222 L14.3816296,1.13422222 C14.2500741,0.958814815 14.1232593,0.731259259 14.1232593,0.569481481 C14.1220741,0.25837037 13.8702222,0.00474074074 13.5573333,0.00474074074 L9.60651852,0.00474074074 C9.31792593,0.00474074074 9.07614815,0.226962963 9.04533333,0.512 C9.0322963,0.630518519 8.7922963,1.13244444 8.41955556,1.13244444 L6.87348148,1.13244444 C6.83674074,1.08918519 6.784,1.00859259 6.73777778,0.904888889 C6.64711111,0.700444444 6.44444444,0.567703704 6.22044444,0.567703704 L0.577777778,0.567703704 C0.265481481,0.568888889 0.013037037,0.821925926 0.013037037,1.13362963 L0.013037037,5.648 C0.013037037,7.24148148 0.478222222,9.25866667 0.576592593,9.66459259 L0.572444444,10.5202963 L0.190222222,10.8823704 C0.077037037,10.9878519 0.0136296296,11.1365926 0.0136296296,11.2918519 L0.0136296296,13.549037 C0.0136296296,13.698963 0.0728888889,13.8423704 0.17837037,13.9478519 L0.577185185,14.3466667 L0.577185185,16.8432593 L0.0426666667,18.450963 C0.0082962963,18.5534815 0.00414814815,18.6619259 0.0308148148,18.7668148 L0.555259259,20.8657778 L0.0432592593,22.4035556 C-0.0148148148,22.576 0.0142222222,22.7656296 0.120888889,22.912 C0.22637037,23.0583704 0.396444444,23.1460741 0.577777778,23.1460741 L8.47881481,23.1460741 C8.62874074,23.1460741 8.77214815,23.0868148 8.87762963,22.9813333 L8.928,22.930963 C9.22844444,23.3392593 9.64562963,23.7102222 10.1724444,23.7102222 L11.8648889,23.7102222 C12.2808889,23.7102222 12.6441481,23.5294815 12.9641481,23.3688889 C13.1828148,23.2592593 13.4091852,23.1460741 13.5591111,23.1460741 L16.381037,23.1460741 C16.530963,23.1460741 16.6743704,23.0868148 16.7798519,22.9813333 L16.9167407,22.8444444 C16.9522963,22.8894815 16.9854815,22.9339259 17.0192593,22.9771852 C17.2971852,23.3380741 17.5828148,23.7108148 18.0740741,23.7108148 L20.896,23.7108148 C21.2082963,23.7108148 21.4607407,23.458963 21.4607407,23.1460741 L21.4607407,22.7407407 L23.0174815,23.1288889 C23.1863704,23.1721481 23.3653333,23.133037 23.5022222,23.0251852 C23.6391111,22.9173333 23.7185185,22.7525926 23.7179259,22.5777778 C23.7167407,22.5226667 23.6823704,16.9848889 23.7179259,14.1232593 C23.7202963,13.9715556 23.6598519,13.8245926 23.5531852,13.7173333 L23.1543704,13.3185185 L23.1543704,10.7306667 C23.1543704,10.5807407 23.0951111,10.4373333 22.9896296,10.3318519 L22.7128889,10.0551111 L23.0542222,9.37185185 L23.5543704,8.8717037 C23.6586667,8.76622222 23.7179259,8.62162963 23.7179259,8.4717037 L23.709037,5.64444444 C23.709037,5.59940741 23.7037037,5.55377778 23.693037,5.50874074 L23.1875556,3.45955556 L23.6586667,2.51674074 C23.6965926,2.43792593 23.7167407,2.35022222 23.7167407,2.26311111 Z M16.994963,4.52148148 L18.7122963,5.65037037 L18.1392593,9.03644444 L13.5579259,5.65037037 L16.994963,4.52148148 Z M6.22162963,19.1946667 L3.96444444,17.5022222 L5.09333333,13.5514074 L9.6077037,18.0657778 L6.22162963,19.1946667 Z M18.1866667,18.6305185 L15.5525926,18.6305185 L3.96444444,5.04414815 L6.07051852,4.52148148 L19.7659259,14.9724444 L18.1866667,18.6305185 Z" transform="translate(.119)"/>
</svg>
