<?xml version="1.0" encoding="utf-8"?>
<!-- Generator: Adobe Illustrator 23.0.1, SVG Export Plug-In . SVG Version: 6.00 Build 0)  -->
<svg version="1.1" xmlns="http://www.w3.org/2000/svg" xmlns:xlink="http://www.w3.org/1999/xlink" x="0px" y="0px"
	 viewBox="0 0 500 500" style="enable-background:new 0 0 500 500;" xml:space="preserve">
<style type="text/css">
	.st0{display:none;}
	.st1{display:inline;fill:#231F20;}
	.st2{display:inline;fill:#221F20;}
	.st3{display:inline;}
	.st4{fill:#221F20;}
	.st5{opacity:0.4;fill:#221F20;enable-background:new    ;}
</style>
<g id="csgo" class="st0">
	<path class="st1" d="M403.51,109.82c-5.2-0.01-10.42-0.54-15.57,0.24c-7.66,1.32-15.47,0.8-23.2,0.57
		c-0.11-1.84-0.17-3.68-0.24-5.51c-1.45-0.18-2.89-0.28-4.29-0.6c-1.31-4.57-0.8-9.39-0.96-14.08c-0.74-0.01-2.23-0.04-2.97-0.06
		c-0.24,5.34-0.22,10.68-0.28,16.02c-1.9-1.51-3.22-4.44-5.99-4.23c-25.14-0.08-50.3,0.01-75.45-0.01c-3.99,0.42-7.1-2.23-10.31-4.1
		c-0.31-2.46-0.71-4.9-1.2-7.32c-2.26,3.03-2.47,6.91-3.29,10.48c-6,1.16-11.93,2.77-18.04,3.28c-0.54-3.44-1.1-6.87-1.49-10.34
		c3.23-1.52,6.87-2.54,9.56-5.02c3.15-8.98-0.49-18.32-2.57-27.1c-6.49-4.59-13.65-8.63-21.1-11.56h-10.71v0
		c-7.35,2.34-14.68,6.17-18.86,12.91c-6.47,9.89-7.37,22.59-3.29,33.57c-0.57,0.38-1.72,1.16-2.3,1.56
		c-7.01-5.4-16.69-2.73-23.4,1.8c-9.74,7.19-14.93,18.95-17.09,30.55c-2.23,9.83-1.23,19.92-0.04,29.8
		c-4.02,0.97-8.16,1.16-12.25,1.46c-1.71,0.07-3.88,0.74-4.07,2.73c-1.23,7.82-0.32,15.86-1.98,23.63
		c-1.07,4.98-1.76,10.04-1.58,15.14c4.49,0.99,9.01,1.94,13.52,2.87c-3.08,1.38-6.62,2.36-8.83,5.09
		c-1.93,12.61,2.67,25.04,2.26,37.69c-2.26,1.92-5.09,3.65-5.82,6.73c-1.39,3.63,0.83,7.32,0.28,11.03
		c-0.53,4.04,0.41,8.06,1.74,11.84c1.25,3.17,0.2,6.57-0.29,9.8c-1.46,8.36-3.14,16.74-3.5,25.23c-0.29,4.48,1.31,9.1-0.17,13.45
		c-4.79,10.68-12.83,19.59-17.08,30.54c-1.88,5.04-0.92,10.8-3.63,15.58c-2.89,5.38-6.87,10.69-6.51,17.14
		c-0.32,4.37,3.26,8.29,1.75,12.66c-2.24,8.91-4.49,17.83-6.97,26.69c-1.69,5.89-2,12.34-0.12,18.22c2.52,1.29,5.35,1.72,8.11,2.3
		h10.59c3.43-0.31,6.81-0.87,10.23-1.34c0.98-4.62-0.18-9.13-1.77-13.43c-1.99-10.84-0.22-22.36,5.34-31.92
		c1.92-2.48,5.41-3.44,6.78-6.4c2.05-4.23,3.02-8.86,4.89-13.16c2.63-6.12,6.23-11.87,7.87-18.38c0.91-3.56-0.13-7.21,0.19-10.81
		c0.99-3.99,2.84-7.9,5.86-10.78c4.05-3.69,5.63-9.34,10.06-12.69c3.02-2.2,3.16-6.14,3.8-9.51c0.6-4.46,2.08-8.73,3.74-12.9
		c2.35-5.77,3.98-12.1,8.5-16.65c2.87-2.93,4.31-6.83,5.37-10.71c1.8,3.39,3.23,7.15,6.12,9.81c3.23,1.58,7.95,0.73,9.92,4.34
		c5.64,8.36,11.14,16.84,16.79,25.2c2.71,5.19,9.21,3.92,14.04,4.06c2.78,3.71,3.46,8.32,2.54,12.81
		c-0.18,5.07-4.57,8.98-3.95,14.17c0.48,10.56,1.28,21.21,4.1,31.44c0.98,4.77,3.53,9.15,3.62,14.11c0.12,5.74,1.41,11.6,0.23,17.27
		c-2.87,7.59-4.84,15.53-5.21,23.66c6.8,3.9,14.65-0.06,21.76,2.25c12.6,4.05,26.17,3.9,39.14,1.94c0.04-2.77,0.96-5.78-0.34-8.37
		c-4.11-4.73-10.98-4.75-15.98-8.02c-4.04-3.54-7.33-7.86-10.71-12.01c-2.85-3.26-3.08-7.77-3.19-11.88
		c0.04-6.24,0.01-12.67,2.37-18.55c1.75-4.68,1.16-9.74,0.22-14.51c-1.27-5.87,0.89-11.66,1.44-17.47c0.8-7.92,1.38-15.86,1.89-23.8
		c0.37-4.53-1.22-8.85-2.35-13.16c-0.67-4.06-4.63-6.35-5.8-10.2c-6.8-18.26-14.06-37.01-27.45-51.57
		c-5.15-4.99-7.75-13.33-4.62-20.04c2.9,0.77,5.77,1.62,8.71,2.34c3.14-4.11,6.19-8.65,6.69-13.93c0.51-5.44,0.67-10.91,1.16-16.35
		c0.23-5.93,1.54-12.04-0.04-17.86c-1.03-3.98-5.07-5.7-8.19-7.72c0.75-2.77,1.51-5.52,2.18-8.31c10.3,4.89,19.86,11.98,31.39,13.72
		c3.09,0.46,6.4,1.9,9.47,0.51c4.23-1.98,7.5-5.44,11.2-8.22c6.69-5.13,5.77-14.49,8.11-21.81c2.28-0.86,4.6-1.65,6.91-2.49
		c-1.52-6.49-4.17-13.05-3.27-19.82c2.78-3.69,6.28-6.77,9.16-10.37c2.06-2.74,5.64-3.45,8.9-3.37c9.81-0.05,19.63,0.12,29.45,0.01
		c0.32-1.39,0.65-2.78,0.99-4.17c10.22,0.57,20.43-1.59,30.66-0.35c6.38,1.07,12.87,0.63,19.29,0.17
		C403.76,113.47,403.59,111.65,403.51,109.82z M277.76,146.24c-1.94-3.38-4.85-6.56-5.43-10.46c0.31-0.41,0.95-1.2,1.26-1.6h0
		c4.17-0.43,8.37-0.16,12.55,0.04C283.45,138.28,280.59,142.26,277.76,146.24z M277.16,133.16c2.78-1.38,3.66-4.23,4.02-7.1
		c2.23-0.11,4.47-0.18,6.73-0.23c0.08,2.11,0.16,4.2,0.24,6.31C284.54,132.93,280.83,132.92,277.16,133.16z"/>
</g>
<g id="lol" class="st0">
	<path class="st2" d="M104.92,50.1l36.27,58.94v281.09l-38.54,58.94h273.51l55.18-72.54H231.87V50.1H104.92z M268.13,51.02v36.41
		c81.48,9.05,145.08,78.28,145.08,162.15c0,33.53-10.18,64.72-27.59,90.67h41.83c13.98-27.24,22.03-58.01,22.03-90.67
		C449.48,145.71,369.65,60.22,268.13,51.02z M102.62,115.59c-32.26,35.45-52.1,82.4-52.1,133.99c0,51.45,19.74,98.26,51.82,133.67
		l2.59-3.93v-55.29c-11.52-22.36-18.13-47.63-18.13-74.45s6.62-52.09,18.13-74.45v-55.82L102.62,115.59z"/>
</g>
<g id="dota" class="st0">
	<path class="st2" d="M449.22,88.19V69.15c0-5.25-4.25-9.53-9.53-9.53H401.6c-3.76,0-6.8,0.25-9.53,0.95v-0.95
		c0-5.25-4.25-9.53-9.53-9.53H325.4c-16.51,0-22.49,9.36-25.98,19.05h-7.73c-2.22-2.96-4.36-6.8-4.36-9.53
		c-0.02-5.25-4.27-9.53-9.55-9.53h-66.67c-4.87,0-8.95,3.75-9.47,8.56c-0.22,2-4.27,10.47-10.56,10.47h-26.09
		c-0.62-0.73-1.51-2.09-2.29-3.84c-1.53-3.45-4.95-5.69-8.73-5.69H58.75c-5.27,0.02-9.53,4.29-9.53,9.55v76.18
		c0,26.89,7.85,60.93,9.51,67.78l-0.07,14.44l-6.45,6.11c-1.91,1.78-2.98,4.29-2.98,6.91v38.09c0,2.53,1,4.95,2.78,6.73l6.73,6.73
		v42.13l-9.02,27.13c-0.58,1.73-0.65,3.56-0.2,5.33l8.85,35.42l-8.64,25.95c-0.98,2.91-0.49,6.11,1.31,8.58
		c1.78,2.47,4.65,3.95,7.71,3.95h133.33c2.53,0,4.95-1,6.73-2.78l0.85-0.85c5.07,6.89,12.11,13.15,21,13.15h28.56
		c7.02,0,13.15-3.05,18.55-5.76c3.69-1.85,7.51-3.76,10.04-3.76h47.62c2.53,0,4.95-1,6.73-2.78l2.31-2.31
		c0.6,0.76,1.16,1.51,1.73,2.24c4.69,6.09,9.51,12.38,17.8,12.38h47.62c5.27,0,9.53-4.25,9.53-9.53v-6.84l26.27,6.55
		c2.85,0.73,5.87,0.07,8.18-1.75c2.31-1.82,3.65-4.6,3.64-7.55c-0.02-0.93-0.6-94.38,0-142.67c0.04-2.56-0.98-5.04-2.78-6.85
		l-6.73-6.73v-43.67c0-2.53-1-4.95-2.78-6.73l-4.67-4.67l5.76-11.53l8.44-8.44c1.76-1.78,2.76-4.22,2.76-6.75l-0.15-47.71
		c0-0.76-0.09-1.53-0.27-2.29l-8.53-34.58l7.95-15.91C448.88,91.14,449.22,89.66,449.22,88.19z M335.79,126.3l28.98,19.05
		l-9.67,57.14l-77.31-57.14L335.79,126.3z M153.99,373.91l-38.09-28.56l19.05-66.67l76.18,76.18L153.99,373.91z M355.9,364.39
		h-44.45L115.9,135.12l35.54-8.82l231.11,176.36L355.9,364.39z"/>
</g>
<g id="sc" class="st0">
	<path class="st2" d="M153.22,136.63c0,0-10.07-39.7-35.56-41.48c0,0-8.89-10.07,7.11-16.59s48-25.48,81.19-11.26
		s32.59,21.33,32.59,21.33l0,48H153.22z"/>
	<path class="st2" d="M343.55,136.63c0,0,10.07-39.7,35.56-41.48c0,0,8.89-10.07-7.11-16.59s-48-25.48-81.19-11.26
		s-32.59,21.33-32.59,21.33l0,48H343.55z"/>
	<path class="st2" d="M250.5,154.41H109.96c0,0-18.96,6.52-19.56,23.11c-0.59,16.59,0,23.11,0,23.11h106.67l10.07,11.85
		L250.5,154.41z"/>
	<path class="st2" d="M90.14,212.48h70.78l64,83.56c0,0,6.52,4.15,6.52,23.11c0,18.96-23.11,30.81-23.11,30.81H76.19l44.82-58.31
		l10.89,9.95l28.52,0.29L90.14,212.48z"/>
	<path class="st2" d="M419.89,154.41l-43.85,58.07l-11.85-14.22l-105.97,1.19c0,0,20.64-45.04,36.05-45.04
		S419.89,154.41,419.89,154.41z"/>
	<path class="st2" d="M258.21,209.52h55.6c0,0-13.04,61.63,3.56,80.59s27.26,31.48,81.19,30.81c0,0-27.26,30.22-74.07,29.04
		c-46.81-1.19-70.93-43.85-73.98-61.04S244.09,236.78,258.21,209.52z"/>
	<path class="st2" d="M238.56,349.96v86.52c0,0-68.23-13.63-84.74-69.93l49.84-0.26C203.66,366.29,226.11,365.22,238.56,349.96z"/>
	<path class="st2" d="M258.21,436.48V334.11c0,0,19.45,30.67,43.9,31.56c24.44,0.89,40.44,0.89,40.44,0.89
		S328.09,417.52,258.21,436.48z"/>
</g>
<g id="overwatch" class="st0">
	<path class="st2" d="M248.78,50.1c-49.58,0-94.82,18.2-129.73,48.12l43.56,43.56c23.64-18.9,53.55-30.28,86.17-30.28
		s62.53,11.39,86.17,30.28l43.56-43.56C343.61,68.3,298.37,50.1,248.78,50.1z M97.34,119.93c-29.92,34.91-48.12,80.15-48.12,129.73
		c0,110.22,89.34,199.56,199.56,199.56s199.56-89.34,199.56-199.56c0-49.58-18.2-94.82-48.12-129.73l-43.56,43.56
		c18.9,23.64,30.28,53.55,30.28,86.17c0,22.31-5.4,43.32-14.78,61.97l-77.23-77.23c0,0-31.14-46.14-30.79-46.14v92.11l74.3,74.3
		c-24.14,20.63-55.4,33.16-89.65,33.16s-65.51-12.53-89.65-33.16l74.3-74.3v-92.11c0.35,0-30.79,46.14-30.79,46.14l-77.23,77.23
		c-9.39-18.65-14.78-39.67-14.78-61.97c0-32.62,11.39-62.53,30.28-86.17L97.34,119.93z"/>
</g>
<g id="call_of_duty" class="st0">
	<g class="st3">
		<path id="path3027" class="st4" d="M50.51,308.28c17.9-0.13,35.83,0,53.71,0.79c9.41,0.67,19.27,1.33,27.66,6.08
			c7.57,4.54,12.21,13.15,12.28,21.95c1.23,24.37,0.52,48.82,0.6,73.21c-0.48,10.07,0.58,21.77-6.72,29.8
			c-8.12,7.43-19.79,7.8-30.2,8.22c-19.1,0.21-38.21,0-57.33,0.08C50.49,401.7,50.51,354.98,50.51,308.28 M91.15,332.38
			c0.02,30.76,0.02,61.51,0,92.27c3.87-0.85,9.76-0.06,11.47-4.64c2.39-10.11,1.12-20.66,1.44-30.97
			c-0.33-16.86,0.71-33.8-0.6-50.65C102.91,332.32,95.63,332.57,91.15,332.38L91.15,332.38z"/>
		<path id="path3029" class="st4" d="M154.91,308.28c13.48-0.04,26.95,0,40.43-0.02c0.02,34.04,0,68.07,0,102.11
			c0.08,4.5-0.02,9.05,0.83,13.49c0.62,5.1,9.61,4.87,9.99-0.25c0.9-4.39,0.81-8.89,0.87-13.34c-0.04-34,0.02-67.99-0.04-101.99
			c13.48-0.06,26.95,0,40.45-0.02c-0.04,32.73,0.12,65.45-0.08,98.16c-0.42,9.01,0.58,18.92-4.77,26.76
			c-6.37,10.68-18.75,16.11-30.72,17.38c-15.17,1.73-31.67-0.06-44.37-9.18c-7.99-5.68-12.17-15.46-12.07-25.12
			C154.44,380.28,155.12,344.28,154.91,308.28L154.91,308.28z"/>
		<path id="path3031" class="st4" d="M256.15,308.26c29.67,0,59.33,0,89,0c0.02,9.38,0,18.73,0.02,28.11
			c-8.05,0-16.09-0.02-24.12,0.02c0,37.35,0,74.67,0,112.02c-13.59,0-27.18,0.02-40.77-0.02c0-37.33,0-74.67,0-112
			c-8.01-0.02-16.02-0.04-24.03,0C256.07,327.01,256.17,317.63,256.15,308.26z"/>
		<path id="path3033" class="st4" d="M352.44,308.26c12.47,0.15,24.95-0.33,37.42,0.25c7.66,25.16,16.04,50.09,23.97,75.17
			c1.83,6.2,4.83,12.26,4.64,18.87c-0.1,15.54-0.02,31.07-0.06,46.61c-12.49,0.02-24.97,0.02-37.46,0c0-14.9-0.06-29.8,0.04-44.72
			c0.04-3.35-0.17-6.76-1.23-9.97C370.59,365.76,361.57,337,352.44,308.26z"/>
		<path id="path3035" class="st4" d="M410.75,308.28c12.4-0.04,24.8,0,37.19-0.02c-8.74,26.53-17.36,53.09-26.1,79.62
			c-5.54-17.71-11.76-35.25-16.79-53.09C406.23,325.84,408.94,317.13,410.75,308.28z"/>
	</g>
	<path id="path3019" class="st2" d="M70.89,56.9c16.11-7.85,34.95-8.1,52.21-4.56c13.08,3.14,26.96,10.54,31.9,23.85
		c4.94,15.33,3.87,31.68,3.89,47.54c-15.68-0.07-31.37,0-47.03-0.02c-0.33-13.17,0.71-26.41-0.65-39.53
		c0.29-9.08-15.79-9.01-15.57,0.07c-1.69,20.64-0.4,41.42-0.8,62.13c0.38,13.21-0.96,26.61,1.13,39.71
		c1.29,5.25,7.87,5.65,12.03,3.87c3.2-2.29,3.27-6.5,3.6-10.03c0.51-9.83,0.11-19.67,0.24-29.5c15.71-0.04,31.39-0.02,47.09-0.02
		c-0.47,14.93,0.87,30.81-5.41,44.76c-10.41,17.24-32.12,23.71-51.25,23.11c-16.86-0.16-36.17-4.05-46.65-18.58
		c-7.5-11.75-7.23-26.38-7.83-39.82c0.11-23.83-0.8-47.69,0.85-71.48C49.36,74.72,58.74,62.64,70.89,56.9z"/>
	<path id="path3021" class="st2" d="M184.21,53.14c22.78-0.31,45.58-0.29,68.36,0c8.65,53.97,17.91,107.85,26.72,161.79
		c-14.66-0.04-29.32,0-43.98-0.04c-1.29-10.1-2.25-20.24-3.83-30.32c-5.23,0.09-10.48,0.09-15.71,0.07
		c0.93-9.03,1.96-18.06,2.94-27.1c3.23,0,6.43-0.02,9.65-0.02c-2.94-23.11-5.14-46.34-8.68-69.36
		c-4.58,42.31-10.1,84.51-15.13,126.78c-14.7-0.02-29.43-0.02-44.14-0.02C168.26,160.99,176.53,107.11,184.21,53.14z"/>
	<path id="path3023" class="st2" d="M287.34,52.98c15.59-0.04,31.21-0.02,46.83-0.02c0.02,43.16,0,86.29,0.02,129.45
		c9.54,0.04,19.09,0.02,28.63,0.02c0.04,10.83,0.02,21.65,0.02,32.48c-25.16,0.02-50.32-0.02-75.48,0
		C287.32,160.94,287.36,106.95,287.34,52.98L287.34,52.98z"/>
	<path id="path3025" class="st2" d="M373.96,52.98c15.64-0.04,31.3-0.02,46.96-0.02c0.04,43.16,0,86.29,0.02,129.45
		c9.45,0.04,18.91,0.02,28.36,0.02c0.02,10.83,0.02,21.65,0.02,32.48c-25.12,0-50.23,0-75.35,0
		C373.94,160.94,373.99,106.95,373.96,52.98z"/>
	<path id="path3037" class="st2" d="M229.91,230.38c8.34-3.67,20.83-0.11,22.2,9.94c0.92,12.13,1.01,24.43-0.09,36.56
		c-2.52,13.95-25.85,14.61-29.53,1.08c-1.8-10.84-0.79-22-0.83-32.96C221.39,239.08,224.17,232.7,229.91,230.38 M235.59,238.14
		c-0.99,13.41-0.59,26.89-0.25,40.33l3.18-1.04c1.42-12.38,0.99-25.07,0.29-37.49C238.03,239.49,236.41,238.59,235.59,238.14
		L235.59,238.14z"/>
	<path id="path3039" class="st2" d="M257.05,230.27c7.19-0.02,14.36-0.05,21.53,0c-0.02,3.72-0.05,7.46-0.05,11.2
		c-2.91,0.02-5.82,0.05-8.72,0.07c0,3.58-0.02,7.17-0.02,10.75c2.59,0.02,5.21,0.05,7.84,0.09c0,3.43,0,6.85,0.02,10.28
		c-2.64,0.02-5.25,0.05-7.84,0.07c0,7.96-0.02,15.89,0,23.85c-4.26,0-8.5,0.02-12.74,0.05
		C257.05,267.82,257.08,249.05,257.05,230.27L257.05,230.27z"/>
</g>
<g id="hearthstone" class="st0">
	<path class="st2" d="M445.96,242.75l-63.95-36.52c-2.78-8.12-6.32-15.96-10.55-23.43l8.23-49.44c0.9-5.46-2.8-10.61-8.26-11.5
		c-1.08-0.18-2.17-0.18-3.25,0l-49.46,8.23c-7.45-4.22-15.27-7.74-23.37-10.52L258.8,55.6c-2.75-4.8-8.86-6.47-13.66-3.72
		c-1.55,0.89-2.83,2.17-3.72,3.72l-36.53,63.97c-8.1,2.78-15.93,6.31-23.38,10.53l-49.48-8.24c-5.46-0.9-10.61,2.8-11.5,8.26
		c-0.18,1.08-0.18,2.17,0,3.25l8.23,49.48c-4.22,7.44-7.74,15.26-10.51,23.35l-63.98,36.55c-4.8,2.75-6.47,8.86-3.72,13.66
		c0.89,1.55,2.17,2.83,3.72,3.72l63.95,36.53c2.79,8.11,6.32,15.95,10.55,23.4l-8.23,49.46c-0.9,5.46,2.8,10.61,8.26,11.5
		c1.08,0.18,2.17,0.18,3.25,0l49.45-8.24c7.46,4.23,15.29,7.77,23.4,10.55l36.54,63.96c2.75,4.8,8.86,6.47,13.66,3.72
		c1.55-0.89,2.83-2.17,3.72-3.72l36.51-63.92c8.13-2.78,15.98-6.32,23.45-10.55l49.43,8.21c5.46,0.9,10.61-2.8,11.5-8.26
		c0.18-1.08,0.18-2.17,0-3.25l-8.22-49.43c4.23-7.46,7.77-15.3,10.55-23.42l63.94-36.53c4.8-2.75,6.47-8.86,3.72-13.66
		C448.79,244.92,447.51,243.64,445.96,242.75z M272.9,341.72c-31.81,11.13-57.56,8.04-64.67,6.22c-15.59-4-11.93-17.9-1.46-22.55
		c10.47-4.65,28.57-4.13,55.12-19.39c20.56-11.82,31.02-24.32,31.02-50.77c0-5.58-1.2-54.47-42.76-54.47
		c-9.97,0-17.57,2.9-23.21,8.86c-9.32,9.74-11.67,25.54-11.36,31.69c0.22,4.45,1.98,9.14,4.59,12.24c2.15,2.53,4.56,3.73,7.73,3.76
		c5.43,0,14.09-4.47,11.87-19.7c-1.38-7.2,5.95-15.27,17.86-9.45c11.91,5.82,19.45,36.3,0.55,55.42
		c-7.56,7.64-16.33,12.98-27.44,13.55c-16.17,0.76-30.69-5.54-41.08-17.87c-8.19-9.71-13.26-22.82-13.93-35.95
		c-0.67-13.33,3.27-41.22,22.24-61.17c13.22-13.9,31.23-21.25,52.12-21.25c56.78,0,84.3,45.12,84.3,90.57
		c0.01,43.47-21.8,76.36-61.54,90.27H272.9z"/>
</g>
<g id="rainbow6" class="st0">
	<path class="st2" d="M280.7,181.74c0,0-42.12-0.88-44.28,12.6l-0.44-67.77c0,0,13.48-15.2,30.84,0.44l-0.44,40.4h82.53v-51.28
		c0,0-0.2-68.61-97.17-64.73c-0.04,0-92.21-7.8-99.61,64.73v270.58c0,0-4.36,64.72,95.57,62.52c0,0,89.89,10.84,101.21-60.36V216.9
		C348.9,216.9,341.94,181.74,280.7,181.74z M308.18,293.07c-26.68,0-41.08,7.4-41.08,7.4v33.76c-16.56-2.08-23.72,7.32-23.72,7.32
		v64.61h-2.64v2.72h-19.8v-2.44h-6.6v-6.68h2.52V275.55l0,0l-0.08-1.72h-2.4v-5.04h2.36v-4.56h4.88v-2.16h21.72
		c5.56,16.16,31.88,1.76,31.88,1.76c23.04-15.76,32.96-1.64,32.96-1.64V293.07z"/>
	<path class="st2" d="M245.45,312.51v19h19.4v-26.32l-2.72-4.76h-4.48l0.12,4.48c0,0,4.6,0.8,5.16,3.68l-1.72,1.64
		C261.25,310.19,256.29,302.75,245.45,312.51L245.45,312.51z"/>
</g>
<g id="fifa" class="st0">
	<title>Element 1</title>
	<g id="Ebene_2" class="st3">
		<g id="V">
			<path class="st4" d="M412.24,165.89h-35.59c-21.12,0-36.77,15.65-36.77,36.77v130.67h40.41V208.66c0-4.29,2.89-9.54,9.54-9.54
				h9.54c6.65,0,9.54,4.07,9.54,9.54v34.41h-21.33v33.23h21.33v57.03h40.31V202.76C449.12,181.54,433.46,165.89,412.24,165.89
				L412.24,165.89z"/>
			<path class="st4" d="M223.68,202.98v130.46h40.73v-67h45.45v-33.55h-45.56v-23.9c0-4.29,2.89-9.65,9.54-9.65h52.63v-33.45h-65.71
				C239.44,165.89,223.68,181.64,223.68,202.98z"/>
			<path class="st4" d="M166.12,165.89h40.63v167.44h-40.63V165.89z"/>
			<path class="st4" d="M48.84,202.98v130.46h40.73v-67h45.45v-33.55H89.58v-23.9c0-4.29,2.89-9.65,9.54-9.65h52.63v-33.45H85.93
				C64.6,165.89,48.84,181.64,48.84,202.98z"/>
		</g>
	</g>
</g>
<g id="rocket_league">
	<g id="Symbol_2_">
		<path id="path22" class="st4" d="M236.6,191.06c0,0,10.02,0.77,18.51,11.57l-4.63,0.77l-2.31-0.77
			C248.17,202.63,241.23,194.14,236.6,191.06z M221.18,238.87l-4.63-11.57h-1.54l-7.71,9.25
			C212.7,241.18,221.18,238.87,221.18,238.87z M292.12,171.01l-3.86,1.54l4.63,8.48l15.42,5.4
			C302.15,173.33,292.12,171.01,292.12,171.01z M248.17,187.2c4.63,5.4,9.25,13.11,9.25,13.11c7.71-7.71,23.9-10.79,44.72-10.02
			C272.84,184.12,248.17,187.2,248.17,187.2z M219.64,175.64c0,0,8.48,0,20.05,2.31c-7.71-5.4-20.05-8.48-20.05-8.48V175.64z
			 M290.58,218.05l-13.11,11.57l10.02,3.08l10.02-10.79l-5.4-2.31L290.58,218.05L290.58,218.05z M203.45,157.13
			c0,0,5.4,3.08,6.17,3.08c0.77,0,11.57,3.86,16.19,5.4c3.86,1.54,6.17,0,6.94,0s13.88-7.71,13.88-7.71
			c-11.57-4.63-22.36-7.71-22.36-7.71C223.5,150.19,203.45,157.13,203.45,157.13z M282.1,164.07c-0.77-1.54-2.31-1.54-11.57-3.08
			c-8.48-0.77-16.19-1.54-17.73-1.54c-1.54,0-2.31,0.77-2.31,0.77s-4.63,3.08-8.48,5.4c-3.86,2.31-4.63,3.08-5.4,4.63
			c-0.77,0.77,1.54,3.86,1.54,3.86l6.17,7.71c0.77,0,3.08,1.54,3.08,1.54s12.34-0.77,20.05-1.54h20.05c0.77,0,0-3.08-1.54-6.94
			C284.41,171.78,282.1,164.07,282.1,164.07z M208.85,172.55c0,0,0.77,0,2.31,0.77c1.54,0,2.31-1.54,2.31-3.08
			c0-2.31-2.31-3.08-2.31-3.08h-1.54l-2.31,0.77l-0.77,5.4h0.77L208.85,172.55c-0.77-1.54-0.77-2.31-0.77-3.86
			c0-0.77,1.54-2.31,2.31-2.31c0,0,1.54,0,0.77,3.08C211.16,172.55,208.85,172.55,208.85,172.55z M339.16,233.47l-6.17,8.48v0.77
			h8.48C343.01,237.32,339.16,233.47,339.16,233.47z M184.94,193.37h-1.54l-3.86-0.77c-3.86-0.77-2.31-7.71-2.31-7.71l-4.63,1.54
			c-1.54-3.08-8.48-11.57-8.48-11.57l-1.54,6.17c0.77,0.77,4.63,6.94,5.4,8.48l-2.31,2.31c0,0-0.77,1.54-0.77,2.31
			s-0.77,1.54-0.77,1.54l-3.08,1.54h-0.77l-10.79-8.48v6.17h0.77c0.77,1.54,2.31,4.63,6.17,6.17c3.08,1.54,6.94,1.54,8.48,0.77
			c1.54,0.77,2.31,0.77,3.08,1.54c3.08,1.54,3.86,0.77,3.86,0.77l4.63-1.54h0.77l0.77-0.77l1.54-3.08c0,0,7.71,0.77,10.79,0.77
			c3.08-4.63,13.11-11.57,20.05-12.34c6.94,0,18.51,1.54,27.76,10.79c8.48,9.25,6.17,21.59,6.17,21.59l16.96,5.4l-7.71-5.4
			c-6.17-15.42-20.82-29.3-20.82-29.3s-3.86-0.77-6.17-0.77c-2.31-0.77-3.86-2.31-3.86-2.31s-0.77-0.77-2.31-3.08l-1.54-3.08
			c0,0-1.54-1.54-3.86-3.08c-2.31-1.54-10.79-2.31-15.42-3.08c-4.63-0.77-4.63,0-4.63,0c13.11,3.08,16.96,3.86,17.73,4.63
			c0,0,0.77,1.54,1.54,2.31c-10.79-2.31-20.82-0.77-23.13,0c1.54,2.31,1.54,5.4,0,7.71C189.57,191.06,184.94,193.37,184.94,193.37z
			 M331.45,248.89l2.31,10.02c0,0,2.31-2.31,4.63-5.4c2.31-3.08,3.08-6.17,3.08-6.17l-9.25,0.77
			C332.22,248.12,331.45,248.89,331.45,248.89z M145.62,178.72l-0.77,8.48h4.63l0.77-5.4v3.08h0.77v-4.63h-0.77v-3.08l6.94,3.86
			l0.77,1.54l1.54,1.54h1.54l0.77-0.77v-0.77c-4.63,0-4.63-2.31-4.63-2.31s0.77-5.4,1.54-6.94c0.77-1.54,3.86-0.77,3.86-0.77
			l-0.77-0.77h-1.54c-1.54-0.77-6.17-3.86-7.71-4.63v-0.77l0.77-0.77v-3.08h0.77c0-0.77,0.77-0.77,0.77-1.54
			c1.54,0,13.11-2.31,13.11-2.31l-10.79-2.31v-0.77c-3.08-0.77-5.4-1.54-6.94-2.31c-3.86,4.63-5.4,10.79-5.4,10.79
			s-0.77,10.79-0.77,12.34C143.31,177.95,145.62,178.72,145.62,178.72L145.62,178.72z M326.82,239.64l1.54,2.31l0.77-0.77l6.17-7.71
			v-0.77C332.22,232.7,326.82,239.64,326.82,239.64z M308.31,225.76l-4.63-1.54l-10.79,12.34l7.71,2.31
			C302.15,232.7,308.31,225.76,308.31,225.76z M324.51,243.49c-3.86,7.71-3.08,13.11-3.08,13.11l3.86-8.48v-1.54
			C326.05,246.58,325.28,245.03,324.51,243.49z M320.65,193.37c0,0-1.54,3.08-2.31,3.86c-0.77,0.77-6.17,1.54-9.25,2.31
			c-3.08,1.54-8.48,3.86-10.02,5.4c-0.77,0.77-0.77,3.08-0.77,3.86c0,0,1.54,0.77,2.31,0.77l-6.94,6.17l1.54,1.54l16.96,5.4
			c3.86-3.08,9.25-3.86,9.25-3.86c-3.08-1.54-16.19-6.94-20.05-8.48c0,0-2.31-0.77-2.31-1.54v-2.31c0,0,10.02-7.71,25.45-7.71
			l2.31-4.63C326.82,194.14,320.65,193.37,320.65,193.37z M330.67,261.23l-3.08-9.25h-0.77l-4.63,8.48l0.77,0.77
			C326.82,262.77,330.67,261.23,330.67,261.23z M214.24,173.33l2.31,0.77c0,0,1.54,0,1.54-1.54v-3.08l-2.31-1.54l-3.08-0.77
			c0.77,0.77,0.77,1.54,0.77,1.54h0.77c0-0.77,0.77-0.77,0.77,0c0,0,1.54,0.77,0.77,3.08C216.56,172.55,215.01,173.33,214.24,173.33
			z M207.3,215.73c-5.4,10.02-1.54,16.96-1.54,16.96l6.94-10.02v-1.54C212.7,221.13,207.3,215.73,207.3,215.73z M157.18,156.36
			l9.25,2.31c0.77,0,6.17-0.77,6.17-0.77l-14.65-3.86L157.18,156.36z M162.58,154.05c12.34,1.54,14.65,3.86,14.65,3.86
			s4.63-0.77,6.94-0.77c-3.86-3.08-20.82-8.48-20.82-8.48S162.58,150.96,162.58,154.05z M181.09,177.95
			c-2.31,1.54-4.63,6.17-3.86,10.02c0.77,3.86,1.54,3.86,3.86,3.86c-3.86-1.54-3.08-7.71,0-11.57c2.31-3.08,4.63-0.77,4.63-0.77
			S183.4,176.41,181.09,177.95z M126.34,292.07c-10.02,0-21.59,3.86-14.65,14.65c57.06,97.93,117.2,121.06,142.65,133.39
			c11.57-5.4,30.07-13.88,52.43-29.3c13.11-8.48,11.57-21.59,8.48-30.07C299.06,340.65,210.39,295.15,126.34,292.07z M447.88,109.33
			c-23.13-16.19-80.19-45.49-193.54-45.49c-39.32,0-72.48,3.86-98.7,9.25c6.17,10.02,9.25,21.59,9.25,33.93
			c0,16.96-6.17,32.38-16.19,43.95c2.31,0.77,5.4,1.54,9.25,2.31l1.54-3.86c0,0,1.54,0,2.31,0.77c0-3.86,2.31-3.86,2.31-3.86
			s0-0.77,0.77-0.77c3.86,0.77,14.65,6.17,19.28,8.48c4.63,2.31,4.63,3.08,4.63,3.08s10.79,0,13.88-0.77
			c3.08,0,8.48-2.31,16.19-4.63c7.71-2.31,9.25-3.08,10.79-3.08s15.42,0.77,27.76,2.31c12.34,1.54,23.9,6.17,26.22,7.71l3.86,0.77
			l0.77-2.31l-6.17-2.31c0,0,0.77-3.86,0.77-4.63c0-0.77,0.77-1.54,1.54-1.54c0.77,0,7.71,1.54,10.02,2.31
			c2.31,0.77,10.02,6.17,10.79,6.17s0.77,0.77,0.77,0.77c0,1.54-1.54,4.63-1.54,4.63l-2.31-0.77l2.31,0.77c0,0,2.31,0.77,3.08,1.54
			c0.77,0.77,3.08,2.31,5.4,4.63c2.31,1.54,1.54,3.86,1.54,3.86l5.4,5.4v2.31l13.11,13.11v0.77l-6.17,3.86c0,0,8.48-0.77,14.65,2.31
			c6.17,3.08,6.94,4.63,6.94,6.17c-1.54,0.77-3.86,1.54-3.86,1.54c-4.63,1.54-16.19,9.25-16.19,9.25v0.77l6.17,1.54
			c6.94-6.17,19.28-8.48,28.53-6.94c31.61,6.17,53.2,26.99,57.83,44.72c0,0.77,0.77,2.31,0.77,3.08
			C453.27,186.43,450.19,133.23,447.88,109.33L447.88,109.33z M336.84,221.9c0.77,0.77,1.54,0.77,2.31,1.54
			c4.63,3.08,6.94,4.63,7.71,11.57c0.77,5.4-0.77,13.11-4.63,20.05c21.59,14.65,51.66,3.08,63.23,14.65
			C403.15,240.41,359.97,211.11,336.84,221.9z M159.5,184.12l-1.54,0.77v6.17l1.54-0.77V184.12z M382.34,279.73
			c-16.19,0-32.38-5.4-43.95-19.28v0.77c-6.94,9.25-14.65,9.25-17.73,9.25c-3.08,0-13.11-4.63-16.96-9.25
			c-3.86-4.63-3.86-13.11-3.86-13.11l-15.42-5.4l-19.28-10.79l-3.08-0.77c-6.17,3.08-13.88,0.77-20.82-4.63
			c-0.77,3.08-4.63,10.79-9.25,14.65c-4.63,3.86-13.88,9.25-20.82,9.25c-6.94,0-22.36-7.71-26.99-18.51c-4.63-10.79,0-22.36,0-22.36
			l-7.71-1.54l-3.08-3.86c0,0-9.25,7.71-19.28,4.63s-18.51-11.57-20.82-19.28c-1.54-7.71,0.77-14.65,1.54-15.42
			c-1.54-5.4-1.54-8.48-1.54-8.48h-0.77v-2.31c-10.02,6.94-21.59,10.02-33.93,10.02c-13.88,0-26.99-4.63-37.78-11.57
			c1.54,16.96,6.17,37.01,12.34,59.37c8.48,30.84,36.24,40.87,77.88,47.81c91.76,14.65,179.66,84.82,173.49,128
			c23.13-19.28,47.81-47.81,72.48-90.21C407.01,290.53,397.76,279.73,382.34,279.73z M137.14,173.33l-0.77,8.48h5.4v-0.77h-0.77
			v-0.77h-0.77l0.77-1.54l0.77-3.86l-0.77-0.77v-1.54l0.77-0.77l0.77-9.25l-3.86-2.31c1.54-6.17,5.4-11.57,5.4-11.57h-2.31
			c-3.86,4.63-5.4,10.79-5.4,10.79s-0.77,10.02-0.77,11.57C135.59,173.33,137.14,173.33,137.14,173.33z M221.95,224.99l3.86,12.34
			c7.71-5.4,9.25-13.88,9.25-13.88l-12.34,0.77C222.73,224.22,221.95,224.99,221.95,224.99z M228.89,205.71l-6.17,10.79l0.77,0.77
			l12.34,0.77C235.83,209.57,228.89,205.71,228.89,205.71z M151.79,181.81l-0.77,4.63h0.77
			C151.79,186.43,151.79,181.81,151.79,181.81z M210.39,211.11l6.17,4.63l1.54-0.77l6.94-10.79
			C216.56,203.4,210.39,211.11,210.39,211.11z M153.33,182.58l-0.77-0.77v5.4h0.77C153.33,187.2,153.33,182.58,153.33,182.58z
			 M155.64,184.12l-0.77,5.4h0.77V184.12z M157.18,184.89l-0.77,5.4h0.77V184.89z M154.1,183.35l-0.77,5.4h0.77V183.35z"/>
		<path id="path31" class="st5" d="M447.88,109.33c-23.13-16.19-80.19-45.49-193.54-45.49c-39.32,0-72.48,3.86-98.7,9.25
			c5.4,8.48,8.48,18.51,9.25,29.3c29.3-5.4,60.91-8.48,94.84-7.71c72.48,0.77,131.08,16.96,154.98,33.16L447.88,109.33"/>
		<circle id="circle40" class="st4" cx="98.58" cy="107.01" r="47.81"/>
	</g>
</g>
<g id="world_of_warcraft" class="st0">
	<path class="st2" d="M250.5,50.1c-39.36,0-77.3,11.47-110.11,33.26H84.2v56.19c-21.79,32.81-33.26,70.74-33.26,110.11
		s11.47,77.3,33.26,110.11v56.19h56.19c32.81,21.79,70.74,33.26,110.11,33.26s77.3-11.47,110.11-33.26h56.19v-56.19
		c21.79-32.81,33.26-70.74,33.26-110.11s-11.47-77.3-33.26-110.11V83.36h-56.19C327.8,61.57,289.86,50.1,250.5,50.1z M250.5,83.36
		c34.27,0,67.27,10.48,95.42,30.23l4.29,3.03h33.33v33.33l3.03,4.29c19.7,27.92,30.26,61.26,30.23,95.42
		c0,34.27-10.48,67.27-30.23,95.42l-3.03,4.29v33.33h-33.33l-4.29,3.03c-27.92,19.7-61.26,30.26-95.42,30.23
		c-34.26,0-67.25-10.48-95.42-30.23l-4.29-3.03h-33.33v-33.33l-3.03-4.29c-19.7-27.92-30.26-61.26-30.23-95.42
		c0-34.26,10.48-67.25,30.23-95.42l3.03-4.29v-33.33h33.33l4.29-3.03C183,93.9,216.33,83.34,250.5,83.36z M134.09,166.51
		l13.22,13.22c2.23,2.22,3.78,5.04,4.46,8.12L182,323.91c1.23,5.55-0.46,11.35-4.49,15.37l-10.16,10.16h66.52l-7.7-15.43
		l24.33-67.72l24.33,67.72l-7.7,15.43h66.52l-10.16-10.16c-4.03-4.02-5.72-9.81-4.49-15.37l30.25-136.07
		c0.67-3.07,2.21-5.89,4.44-8.12l13.22-13.22h-66.52l5.59,11.14c1.77,3.55,2.21,7.63,1.23,11.47l-18.74,74.95l-37.97-97.57
		l-37.97,97.57l-18.74-74.97c-0.97-3.85-0.52-7.92,1.26-11.47l5.55-11.13H134.09z"/>
</g>
<g id="Layer_3">
</g>
</svg>
