<svg xmlns="http://www.w3.org/2000/svg" width="20" height="24" viewBox="0 0 20 24">
  <path fill="#231F20" d="M18.2820741,3.54488889 C17.9739259,3.5442963 17.6645926,3.51288889 17.3594074,3.55911111 C16.9054815,3.63733333 16.4426667,3.60651852 15.9845926,3.59288889 C15.9780741,3.48385185 15.9745185,3.37481481 15.9703704,3.26637037 C15.8844444,3.2557037 15.7991111,3.24977778 15.7161481,3.23081481 C15.6385185,2.96 15.6687407,2.67437037 15.6592593,2.39644444 C15.6154074,2.39585185 15.5271111,2.39407407 15.4832593,2.39288889 C15.469037,2.70933333 15.4702222,3.02577778 15.4666667,3.34222222 C15.3540741,3.25274074 15.2758519,3.07911111 15.1117037,3.09155556 C13.6219259,3.08681481 12.130963,3.09214815 10.6405926,3.09096296 C10.4041481,3.11585185 10.2198519,2.95881481 10.0296296,2.848 C10.0112593,2.70222222 9.98755556,2.55762963 9.95851852,2.41422222 C9.82459259,2.59377778 9.81214815,2.8237037 9.76355556,3.03525926 C9.408,3.104 9.05659259,3.19940741 8.69451852,3.22962963 C8.66251852,3.02577778 8.62933333,2.82251852 8.60622222,2.61688889 C8.79762963,2.52681481 9.01333333,2.46637037 9.17274074,2.31940741 C9.35940741,1.78725926 9.1437037,1.23377778 9.02044444,0.713481481 C8.63585185,0.441481481 8.21155556,0.202074074 7.77007407,0.0284444444 L7.13540741,0.0284444444 L7.13540741,0.0284444444 C6.69985185,0.167111111 6.26548148,0.394074074 6.01777778,0.793481481 C5.63437037,1.37955556 5.58103704,2.13214815 5.82281481,2.78281481 C5.78903704,2.80533333 5.72088889,2.85155556 5.68651852,2.87525926 C5.27111111,2.55525926 4.69748148,2.71348148 4.29985185,2.98192593 C3.72266667,3.408 3.41511111,4.10488889 3.28711111,4.7922963 C3.15496296,5.37481481 3.21422222,5.97274074 3.28474074,6.55822222 C3.04651852,6.6157037 2.80118519,6.62696296 2.55881481,6.64474074 C2.45748148,6.64888889 2.32888889,6.68859259 2.31762963,6.80651852 C2.24474074,7.26992593 2.29866667,7.74637037 2.2002963,8.20681481 C2.13688889,8.50192593 2.096,8.80177778 2.10666667,9.104 C2.37274074,9.16266667 2.64059259,9.21896296 2.90785185,9.27407407 C2.72533333,9.35585185 2.51555556,9.41392593 2.38459259,9.5757037 C2.27022222,10.322963 2.54281481,11.0595556 2.51851852,11.8091852 C2.38459259,11.922963 2.21688889,12.0254815 2.17362963,12.208 C2.09125926,12.4231111 2.22281481,12.6417778 2.19022222,12.8616296 C2.15881481,13.101037 2.21451852,13.3392593 2.29333333,13.5632593 C2.36740741,13.7511111 2.30518519,13.9525926 2.27614815,14.144 C2.18962963,14.6394074 2.09007407,15.136 2.06874074,15.6391111 C2.05155556,15.9045926 2.14637037,16.1783704 2.05866667,16.4361481 C1.77481481,17.069037 1.29837037,17.597037 1.04651852,18.2459259 C0.935111111,18.5445926 0.992,18.8859259 0.831407407,19.1691852 C0.660148148,19.488 0.424296296,19.8026667 0.44562963,20.1848889 C0.426666667,20.4438519 0.638814815,20.6761481 0.549333333,20.9351111 C0.416592593,21.4631111 0.283259259,21.9917037 0.136296296,22.5167407 C0.0361481481,22.8657778 0.0177777778,23.248 0.129185185,23.5964444 C0.278518519,23.6728889 0.446222222,23.6983704 0.609777778,23.7327407 L1.23733333,23.7327407 C1.44059259,23.7143704 1.64088889,23.6811852 1.84355556,23.6533333 C1.90162963,23.3795556 1.83288889,23.1122963 1.73866667,22.8574815 C1.62074074,22.2151111 1.72562963,21.5324444 2.05511111,20.9659259 C2.16888889,20.818963 2.3757037,20.7620741 2.45688889,20.5866667 C2.57837037,20.336 2.63585185,20.0616296 2.74666667,19.8068148 C2.90251852,19.4441481 3.11585185,19.1034074 3.21303704,18.7176296 C3.26696296,18.5066667 3.20533333,18.2903704 3.2242963,18.077037 C3.28296296,17.8405926 3.39259259,17.6088889 3.57155556,17.4382222 C3.81155556,17.2195556 3.90518519,16.8847407 4.1677037,16.6862222 C4.34666667,16.5558519 4.35496296,16.3223704 4.39288889,16.1226667 C4.42844444,15.8583704 4.51614815,15.6053333 4.61451852,15.3582222 C4.75377778,15.0162963 4.85037037,14.6411852 5.11822222,14.3715556 C5.2882963,14.1979259 5.37362963,13.9668148 5.43644444,13.7368889 C5.54311111,13.9377778 5.62785185,14.1605926 5.79911111,14.3182222 C5.99051852,14.4118519 6.27022222,14.3614815 6.38696296,14.5754074 C6.72118519,15.0708148 7.04711111,15.5733333 7.38192593,16.0687407 C7.54251852,16.3762963 7.9277037,16.301037 8.21392593,16.3093333 C8.37866667,16.5291852 8.41896296,16.8023704 8.36444444,17.0684444 C8.35377778,17.3688889 8.09362963,17.6005926 8.13037037,17.9081481 C8.15881481,18.5339259 8.20622222,19.165037 8.37333333,19.7712593 C8.43140741,20.0539259 8.58251852,20.3134815 8.58785185,20.6074074 C8.59496296,20.9475556 8.67140741,21.2948148 8.60148148,21.6308148 C8.43140741,22.0805926 8.31466667,22.5511111 8.29274074,23.0328889 C8.6957037,23.264 9.16088889,23.0293333 9.58222222,23.1662222 C10.3288889,23.4062222 11.133037,23.3973333 11.9016296,23.2811852 C11.904,23.117037 11.9585185,22.9386667 11.8814815,22.7851852 C11.6379259,22.5048889 11.2308148,22.5037037 10.9345185,22.3099259 C10.6951111,22.1001481 10.5001481,21.8441481 10.2998519,21.5982222 C10.130963,21.405037 10.1173333,21.1377778 10.1108148,20.8942222 C10.1131852,20.5244444 10.1114074,20.1434074 10.2512593,19.794963 C10.354963,19.5176296 10.32,19.2177778 10.2642963,18.9351111 C10.189037,18.5872593 10.317037,18.2441481 10.3496296,17.8998519 C10.397037,17.4305185 10.4314074,16.96 10.4616296,16.4894815 C10.4835556,16.221037 10.3893333,15.965037 10.3223704,15.7096296 C10.2826667,15.469037 10.048,15.3333333 9.97866667,15.1051852 C9.5757037,14.0231111 9.14548148,12.912 8.352,12.0491852 C8.04681481,11.7534815 7.89274074,11.2592593 8.07822222,10.8616296 C8.25007407,10.9072593 8.42014815,10.9576296 8.59437037,11.0002963 C8.78044444,10.7567407 8.96118519,10.4877037 8.99081481,10.1748148 C9.02103704,9.85244444 9.03051852,9.5282963 9.05955556,9.20592593 C9.07318519,8.85451852 9.15081481,8.49244444 9.05718519,8.14755556 C8.99614815,7.9117037 8.75674074,7.80977778 8.57185185,7.69007407 C8.6162963,7.52592593 8.66133333,7.36296296 8.70103704,7.19762963 C9.31140741,7.48740741 9.87792593,7.90755556 10.5611852,8.01066667 C10.7442963,8.03792593 10.9404444,8.12325926 11.1223704,8.04088889 C11.373037,7.92355556 11.5668148,7.71851852 11.7860741,7.55377778 C12.1825185,7.24977778 12.128,6.69511111 12.2666667,6.26133333 C12.4017778,6.21037037 12.5392593,6.16355556 12.6761481,6.11377778 C12.5860741,5.72918519 12.429037,5.34044444 12.4823704,4.93925926 C12.6471111,4.72059259 12.8545185,4.53807407 13.0251852,4.32474074 C13.1472593,4.16237037 13.3594074,4.1202963 13.5525926,4.12503704 C14.1339259,4.12207407 14.7158519,4.13214815 15.2977778,4.12562963 C15.3167407,4.04325926 15.3362963,3.96088889 15.3564444,3.87851852 C15.9620741,3.9122963 16.5671111,3.7842963 17.1733333,3.85777778 C17.5514074,3.92118519 17.936,3.89511111 18.3164444,3.86785185 C18.2968889,3.76118519 18.2868148,3.65333333 18.2820741,3.54488889 Z M10.8302222,5.70311111 C10.7152593,5.50281481 10.5428148,5.31437037 10.5084444,5.08325926 C10.5268148,5.05896296 10.5647407,5.01214815 10.5831111,4.98844444 L10.5831111,4.98844444 C10.8302222,4.96296296 11.0791111,4.97896296 11.3268148,4.99081481 C11.1674074,5.23140741 10.9979259,5.46725926 10.8302222,5.70311111 Z M10.7946667,4.928 C10.9594074,4.84622222 11.0115556,4.67733333 11.0328889,4.50725926 C11.165037,4.50074074 11.2977778,4.49659259 11.4317037,4.49362963 C11.4364444,4.61866667 11.4411852,4.74251852 11.4459259,4.86755556 C11.232,4.91437037 11.0121481,4.91377778 10.7946667,4.928 Z" transform="translate(.844)"/>
</svg>
