<svg xmlns="http://www.w3.org/2000/svg" width="24" height="24" viewBox="0 0 24 24">
  <path fill="#221F20" d="M3.25451852,0.00592592593 L5.40385185,3.49866667 L5.40385185,20.1558519 L3.12,23.6485926 L19.328,23.6485926 L22.5979259,19.3499259 L10.7774815,19.3499259 L10.7774815,0.00592592593 L3.25451852,0.00592592593 Z M12.9262222,0.0604444444 L12.9262222,2.21807407 C17.7546667,2.75437037 21.5235556,6.85688889 21.5235556,11.826963 C21.5235556,13.8139259 20.9202963,15.6622222 19.8885926,17.2 L22.3674074,17.2 C23.1958519,15.5857778 23.6728889,13.7623704 23.6728889,11.826963 C23.6728889,5.6717037 18.9422222,0.60562963 12.9262222,0.0604444444 Z M3.11822222,3.88681481 C1.20651852,5.98755556 0.0308148148,8.76977778 0.0308148148,11.826963 C0.0308148148,14.8758519 1.20059259,17.6497778 3.10162963,19.7481481 L3.25511111,19.5152593 L3.25511111,16.2388148 C2.57244444,14.9137778 2.18074074,13.4162963 2.18074074,11.826963 C2.18074074,10.2376296 2.57303704,8.74014815 3.25511111,7.41511111 L3.25511111,4.10725926 L3.11822222,3.88681481 Z" transform="translate(.178)"/>
</svg>
