<svg xmlns="http://www.w3.org/2000/svg" width="22" height="23" viewBox="0 0 22 23">
  <path fill="#221F20" d="M4.576 4.42251852C4.576 4.42251852 3.97925926 2.06992593 2.46874074 1.96444444 2.46874074 1.96444444 1.94192593 1.3677037 2.89007407.981333333 3.83822222.594962963 5.73451852-.528592593 7.70133333.314074074 9.66814815 1.15674074 9.63259259 1.57807407 9.63259259 1.57807407L9.63263588 4.42251852 4.576 4.42251852zM15.8548148 4.42251852C15.8548148 4.42251852 16.4515556 2.06992593 17.9620741 1.96444444 17.9620741 1.96444444 18.4888889 1.3677037 17.5407407.981333333 16.5925926.594962963 14.6962963-.528592593 12.7294815.314074074 10.7626667 1.15674074 10.7982222 1.57807407 10.7982222 1.57807407L10.7981789 4.42251852 15.8548148 4.42251852zM10.3407407 5.47614815L2.01244444 5.47614815C2.01244444 5.47614815.888888889 5.86251852.853333333 6.84562963.81837037 7.82874074.853333333 8.21511111.853333333 8.21511111L7.17451852 8.21511111 7.77125926 8.91733333 10.3407407 5.47614815zM.837925926 8.91733333L5.0322963 8.91733333 8.82488889 13.869037C8.82488889 13.869037 9.21125926 14.114963 9.21125926 15.2385185 9.21125926 16.3620741 7.84177778 17.0642963 7.84177778 17.0642963L.0112592593 17.0642963 2.66725926 13.6088889 3.31259259 14.1985185 5.00266667 14.2157037.837925926 8.91733333zM20.3786667 5.47614815L17.7801481 8.91733333 17.0779259 8.07466667 10.7982222 8.14518519C10.7982222 8.14518519 12.0213333 5.47614815 12.9345185 5.47614815 13.8477037 5.47614815 20.3786667 5.47614815 20.3786667 5.47614815zM10.7976296 8.74192593L14.0924444 8.74192593C14.0924444 8.74192593 13.3197037 12.3940741 14.3034074 13.5176296 15.2871111 14.6411852 15.9188148 15.3831111 19.1146667 15.3434074 19.1146667 15.3434074 17.4992593 17.1342222 14.7253333 17.0642963 11.9514074 16.9937778 10.5220741 14.4657778 10.3413333 13.4471111 10.1605926 12.4284444 9.96088889 10.3573333 10.7976296 8.74192593zM9.63318519 17.0642963L9.63318519 22.1914074C9.63318519 22.1914074 5.58992593 21.3837037 4.61155556 18.0474074L7.56503704 18.032C7.56503704 18.032 8.89540741 17.9685926 9.63318519 17.0642963zM10.7976296 22.1914074L10.7976296 16.125037C10.7976296 16.125037 11.9502222 17.9425185 13.3991111 17.9952593 14.8474074 18.048 15.7955556 18.048 15.7955556 18.048 15.7955556 18.048 14.9386667 21.0678519 10.7976296 22.1914074z" transform="translate(.719 .711)"/>
</svg>
