<svg xmlns="http://www.w3.org/2000/svg" width="12" height="24" viewBox="0 0 12 24">
  <g fill="#C1C1C1">
    <path d="M7.74019293,7.86366559 C7.74019293,7.86366559 5.20514469,7.81061093 5.07491961,8.62186495 L5.0488746,4.54340836 C5.0488746,4.54340836 5.86012862,3.62893891 6.90482315,4.56945338 L6.87877814,7.00128617 L11.8456592,7.00128617 L11.8456592,3.91446945 C11.8456592,3.91446945 11.833119,-0.21511254 5.99710611,0.0192926045 C5.99421222,0.0192926045 0.447588424,-0.449517685 0.00192926045,3.91543408 L0.00192926045,20.2003215 C0.00192926045,20.2003215 -0.260450161,24.0954984 5.75401929,23.9633441 C5.75401929,23.9633441 11.1636656,24.6154341 11.8456592,20.3305466 L11.8456592,9.98006431 C11.8456592,9.98006431 11.426045,7.86366559 7.74019293,7.86366559 Z M9.39453376,14.5639871 C7.78842444,14.5639871 6.9221865,15.0096463 6.9221865,15.0096463 L6.9221865,17.0421222 C5.92572347,16.9167203 5.49453376,17.4829582 5.49453376,17.4829582 L5.49453376,21.3713826 L5.33536977,21.3713826 L5.33536977,21.5353698 L4.14308682,21.5353698 L4.14308682,21.388746 L3.74565916,21.388746 L3.74565916,20.9864952 L3.89710611,20.9864952 L3.89710611,13.5106109 L3.89710611,13.5106109 L3.89228296,13.4073955 L3.74758842,13.4073955 L3.74758842,13.1045016 L3.88938907,13.1045016 L3.88938907,12.829582 L4.18263666,12.829582 L4.18263666,12.6993569 L5.48971061,12.6993569 C5.8244373,13.6717042 7.40836013,12.8054662 7.40836013,12.8054662 C8.79549839,11.8572347 9.3926045,12.707074 9.3926045,12.707074 L9.3926045,14.5639871 L9.39453376,14.5639871 Z"/>
    <path d="M5.61897106,15.7340836 L5.61897106,16.878135 L6.78713826,16.878135 L6.78713826,15.2942122 L6.62315113,15.007717 L6.35305466,15.007717 L6.3607717,15.2778135 C6.3607717,15.2778135 6.63762058,15.326045 6.67138264,15.4996785 L6.5681672,15.5980707 C6.57009646,15.5942122 6.27106109,15.1466238 5.61897106,15.7340836 L5.61897106,15.7340836 Z"/>
  </g>
</svg>
