<svg xmlns="http://www.w3.org/2000/svg" width="24" height="24" viewBox="0 0 24 24">
  <g fill="#C1C1C1">
    <path d="M19.2756303,14.8134454 L24,12 L19.2756303,9.18655462 C19.0386555,8.58151261 18.7411765,8.04705882 18.3731092,7.51260504 L19.4470588,4.52773109 L16.492437,5.59663866 C15.9882353,5.22857143 15.4184874,4.92605042 14.8184874,4.69411765 L12,0 L9.18655462,4.72436975 C8.58151261,4.96134454 8.04705882,5.25882353 7.51260504,5.62689076 L4.56302521,4.55294118 L5.63697479,7.50252101 C5.26890756,8.00672269 4.96638655,8.57647059 4.73445378,9.17647059 L0,12 L4.72436975,14.8134454 C4.96134454,15.4184874 5.25882353,15.9529412 5.62689076,16.487395 L4.55294118,19.4722689 L7.50252101,18.3983193 C8.00672269,18.7663866 8.57647059,19.0689076 9.17647059,19.3008403 L12,24 L14.8134454,19.2756303 C15.4184874,19.0386555 15.9529412,18.7411765 16.487395,18.3731092 L19.4722689,19.4470588 L18.4033613,16.492437 C18.7714286,15.9882353 19.0739496,15.4184874 19.2756303,14.8134454 Z M12,18.4689076 C8.44537815,18.4689076 5.53109244,15.5848739 5.53109244,12 C5.53109244,8.41512605 8.44537815,5.53109244 12,5.53109244 C15.5546218,5.53109244 18.4689076,8.44537815 18.4689076,12 L18.4689076,12 C18.4689076,15.5546218 15.5546218,18.4689076 12,18.4689076 L12,18.4689076 L12,18.4689076 Z"/>
    <path d="M16.3260504,11.8336134 C16.3613445,11.5310924 16.0890756,11.2285714 16.0588235,10.8957983 C16.0588235,10.7294118 15.9932773,10.5630252 15.9226891,10.3915966 C15.8571429,10.2252101 15.8571429,10.0588235 15.8218487,9.92268908 L15.7865546,9.92268908 C15.9882353,9.51932773 15.4184874,9.05042017 15.1512605,8.74789916 C14.8184874,8.41512605 14.6470588,7.97647059 14.1478992,7.81008403 C13.9109244,7.7092437 13.6789916,7.57310924 13.4117647,7.47731092 C13.1747899,7.37647059 12.907563,7.31092437 12.7058824,7.24033613 C12.4689076,7.1394958 12.302521,6.93781513 12.0352941,6.97310924 C11.7680672,7.00840336 11.6319328,7.17478992 11.3294118,7.1092437 C10.7243697,6.90756303 10.2907563,7.24537815 9.82184874,7.57815126 C9.58487395,7.74453782 9.35294118,7.88067227 9.1512605,8.04705882 C9.08571429,8.11260504 9.01512605,8.21344538 8.94957983,8.31428571 C8.88403361,8.41512605 8.74789916,8.48067227 8.68235294,8.61680672 C8.54621849,8.81848739 8.34957983,8.94957983 8.14789916,9.08571429 C8.04705882,9.1512605 7.98151261,9.28739496 7.84537815,9.35294118 C7.6789916,9.45378151 7.64369748,9.41848739 7.64369748,9.62016807 C7.64369748,9.88739496 7.77983193,10.0890756 7.77983193,10.3260504 C7.77983193,10.4621849 7.77983193,10.5932773 7.77983193,10.7294118 C7.81512605,10.8655462 7.84537815,10.9663866 7.88067227,11.097479 C7.94621849,11.3344538 7.88067227,11.6016807 7.98151261,11.8033613 C8.11764706,12.005042 8.2487395,12.2369748 8.41512605,12.4084034 C8.58151261,12.610084 8.74789916,12.8420168 8.91932773,13.0789916 C9.02016807,13.2151261 9.38823529,13.4117647 9.38823529,13.6134454 C9.65546218,13.6789916 9.7210084,13.9815126 9.95798319,13.9815126 C10.0941176,13.9462185 10.2252101,13.9462185 10.3260504,13.9815126 C10.4621849,14.0168067 10.5630252,14.0470588 10.6941176,14.0823529 C10.9310924,14.0823529 11.097479,13.8806723 11.3294118,13.8151261 C11.5663866,13.7495798 11.8336134,13.8151261 12.0655462,13.7142857 C12.4991597,13.4470588 12.7714286,12.9781513 12.8016807,12.4739496 C12.8016807,12.2067227 12.7361345,11.9394958 12.5647059,11.7378151 C12.4285714,11.5008403 12.5294118,11.2336134 12.297479,11.102521 C12.0605042,11.0016807 11.7932773,10.9008403 11.4907563,10.9008403 C11.2235294,10.8 10.9563025,10.8352941 10.6840336,10.9361345 C10.2504202,11.2386555 11.2184874,11.9394958 10.7193277,12.1764706 C10.1495798,12.4134454 9.84705882,11.7731092 9.71596639,11.3394958 C9.65042017,11.0722689 9.65042017,10.7697479 9.71596639,10.502521 C9.71596639,10.3663866 9.7512605,10.2655462 9.78151261,10.1344538 C9.84705882,10.0336134 9.98319328,9.96806723 10.0840336,9.93277311 C10.2857143,9.79663866 10.4521008,9.6 10.6537815,9.46386555 C10.8554622,9.32773109 11.1226891,9.22689076 11.3596639,9.16134454 C11.6621849,9.09579832 11.9647059,9.09579832 12.2621849,9.09579832 C12.3983193,9.09579832 12.5294118,9.13109244 12.6655462,9.13109244 C12.8016807,9.13109244 12.902521,9.06554622 13.0336134,9.06554622 C13.2352941,9.06554622 13.1697479,9.13109244 13.1697479,9.30252101 C13.1697479,9.40336134 13.2352941,9.50420168 13.3058824,9.60504202 C13.4722689,9.80672269 13.6084034,10.0084034 13.7747899,10.210084 C14.107563,10.6134454 14.0420168,11.2487395 14.0117647,11.7529412 C13.9764706,12.0201681 14.0117647,12.287395 14.0773109,12.5596639 C14.1781513,12.8621849 13.9411765,12.8621849 13.7445378,13.0285714 C13.6084034,13.2302521 13.4773109,13.4319328 13.3764706,13.6336134 C13.210084,13.8352941 13.0436975,14.0016807 12.8420168,14.1378151 C12.6756303,14.3042017 12.4739496,14.4403361 12.307563,14.5714286 C12.0705882,14.707563 11.8386555,14.8386555 11.6016807,14.9394958 C11.3344538,15.0403361 11.0319328,15.1058824 10.7647059,15.1764706 C10.6285714,15.2117647 10.497479,15.2420168 10.3613445,15.312605 C10.2605042,15.3781513 10.194958,15.5142857 10.0588235,15.5798319 C9.72605042,15.7815126 9.35294118,15.7462185 8.98487395,15.912605 C8.78319328,16.0134454 8.11260504,16.0487395 8.08235294,16.2806723 L8.04705882,16.2806723 C8.14789916,16.4823529 8.34957983,16.6487395 8.58151261,16.6840336 C8.81848739,16.7193277 9.05042017,16.7848739 9.25210084,16.8504202 C9.48907563,16.9512605 9.68571429,16.9865546 9.92268908,17.0168067 C10.1596639,17.0168067 10.3563025,17.1529412 10.5932773,17.1831933 C10.8605042,17.2184874 11.0621849,17.0168067 11.2991597,16.9815126 C11.5663866,16.9462185 11.8336134,16.9462185 12.1058824,16.9159664 C12.3731092,16.8806723 12.610084,16.8151261 12.8773109,16.7495798 C13.1142857,16.6487395 13.3462185,16.6487395 13.5831933,16.5478992 C13.8201681,16.4470588 14.0168067,16.3462185 14.2184874,16.2151261 C14.4201681,16.0789916 14.4554622,15.8470588 14.6521008,15.7109244 C14.8537815,15.5747899 15.0201681,15.4436975 15.1865546,15.2773109 C15.3226891,15.0756303 15.4235294,14.8436975 15.4537815,14.6067227 C15.5546218,14.405042 15.6907563,14.2033613 15.8218487,14.0369748 C15.9226891,13.8 16.0235294,13.5680672 16.0588235,13.3310924 C16.1596639,13.0941176 16.1596639,12.8621849 16.1596639,12.594958 C16.1243697,12.4588235 15.9932773,12.3932773 16.0588235,12.2268908 C16.2554622,12.0352941 16.2907563,11.9344538 16.3260504,11.8336134 Z"/>
  </g>
</svg>
