<svg xmlns="http://www.w3.org/2000/svg" width="24" height="24" viewBox="0 0 24 24">
  <path fill="#221F20" d="M11.8388148,0.00592592593 C8.90074074,0.00592592593 6.21985185,1.08444444 4.15111111,2.85748148 L6.73244444,5.43881481 C8.13333333,4.31881481 9.90577778,3.64444444 11.8388148,3.64444444 C13.7718519,3.64444444 15.5442963,4.31940741 16.9451852,5.43881481 L19.5265185,2.85748148 C17.4583704,1.08444444 14.7774815,0.00592592593 11.8388148,0.00592592593 Z M2.86459259,4.144 C1.09155556,6.21274074 0.013037037,8.89362963 0.013037037,11.8317037 C0.013037037,18.3632593 5.30725926,23.6574815 11.8388148,23.6574815 C18.3703704,23.6574815 23.6645926,18.3632593 23.6645926,11.8317037 C23.6645926,8.89362963 22.5860741,6.21274074 20.813037,4.144 L18.2317037,6.72533333 C19.3517037,8.12622222 20.0260741,9.89866667 20.0260741,11.8317037 C20.0260741,13.1537778 19.7060741,14.3988148 19.1502222,15.504 L14.5736296,10.9274074 C14.5736296,10.9274074 12.7282963,8.19318519 12.749037,8.19318519 L12.749037,13.6515556 L17.152,18.0545185 C15.7214815,19.277037 13.869037,20.0195556 11.8394074,20.0195556 C9.80977778,20.0195556 7.95733333,19.277037 6.52681481,18.0545185 L10.9297778,13.6515556 L10.9297778,8.19318519 C10.9505185,8.19318519 9.10518519,10.9274074 9.10518519,10.9274074 L4.52859259,15.504 C3.97214815,14.3988148 3.65274074,13.1531852 3.65274074,11.8317037 C3.65274074,9.89866667 4.3277037,8.12622222 5.44711111,6.72533333 L2.86459259,4.144 Z" transform="translate(.119)"/>
</svg>
