<svg xmlns="http://www.w3.org/2000/svg" width="24" height="11" viewBox="0 0 24 11">
  <g fill="#221F20" transform="translate(.06 .815)">
    <path d="M21.5845926.0527407407L19.4755556.0527407407C18.224.0527407407 17.2965926.980148148 17.2965926 2.2317037L17.2965926 9.97511111 19.6912593 9.97511111 19.6912593 2.58725926C19.6912593 2.33303704 19.8625185 2.02192593 20.2565926 2.02192593L20.8219259 2.02192593C21.216 2.02192593 21.3872593 2.26311111 21.3872593 2.58725926L21.3872593 4.62637037 20.1232593 4.62637037 20.1232593 6.59555556 21.3872593 6.59555556 21.3872593 9.97511111 23.776 9.97511111 23.776 2.23762963C23.7700741.980148148 22.8420741.0527407407 21.5845926.0527407407L21.5845926.0527407407zM10.4106667 2.25066667L10.4106667 9.98162963 12.8242963 9.98162963 12.8242963 6.01125926 15.5176296 6.01125926 15.5176296 4.02311111 12.8177778 4.02311111 12.8177778 2.60681481C12.8177778 2.35259259 12.989037 2.03496296 13.3831111 2.03496296L16.5019259 2.03496296 16.5019259.0527407407 12.608.0527407407C11.3445926.0527407407 10.4106667.986074074 10.4106667 2.25066667z"/>
    <polygon points="7 .053 9.407 .053 9.407 9.975 7 9.975"/>
    <path d="M0.0497777778,2.25066667 L0.0497777778,9.98162963 L2.46340741,9.98162963 L2.46340741,6.01125926 L5.15674074,6.01125926 L5.15674074,4.02311111 L2.464,4.02311111 L2.464,2.60681481 C2.464,2.35259259 2.63525926,2.03496296 3.02933333,2.03496296 L6.14814815,2.03496296 L6.14814815,0.0527407407 L2.2477037,0.0527407407 C0.983703704,0.0527407407 0.0497777778,0.986074074 0.0497777778,2.25066667 Z"/>
  </g>
</svg>
