<svg xmlns="http://www.w3.org/2000/svg" width="24" height="24" viewBox="0 0 24 24">
  <path d="M11.0824468,15.8069896 L11.0824468,18.1727088 L12.9175532,18.1727088 L12.9175532,15.8069896 C12.9175532,15.4713602 13.1447655,15.1988109 13.4245648,15.1988109 L15.3967602,15.1988109 L15.3967602,12.9975348 L13.4245648,12.9975348 C13.1447655,12.9975348 12.9175532,12.7249855 12.9175532,12.3893562 L12.9175532,10.0297274 L11.0824468,10.0297274 L11.0824468,12.3954466 C11.0824468,12.731076 10.8552345,13.0036253 10.5754352,13.0036253 L8.60323985,13.0036253 L8.60323985,15.2049014 L10.5754352,15.2049014 C10.8532398,15.2049014 11.0799081,15.4737529 11.0824468,15.8069896 Z"/>
  <path d="M19.7667432,4.24050175 L15.7819149,4.24050175 C15.7819149,4.19177786 15.7819149,4.14914445 15.7819149,4.10063805 L15.7819149,1.37014213 C15.7790135,0.623187341 15.2739966,0.0200116009 14.6514749,0.0200116009 L9.33329306,0.0200116009 C8.71077126,0.0200116009 8.20575435,0.623187341 8.202853,1.37014213 L8.202853,4.08236659 C8.202853,4.13087298 8.202853,4.17350639 8.202853,4.22223029 L4.23325676,4.22223029 C2.20539166,4.22223029 0,5.5538718 0,9.29995651 L0,18.8781177 C0,22.6242025 2.18508218,23.9560615 4.23325676,23.9560615 L19.7667432,23.9560615 C21.7946083,23.9560615 24,22.6242025 24,18.8781177 L24,9.31822797 C24,5.57214326 21.8098404,4.24050175 19.7667432,4.24050175 Z M9.22177226,1.37014213 C9.22431092,1.29531614 9.27599127,1.23615141 9.33837038,1.23615141 L14.6667069,1.23615141 C14.7289047,1.23615141 14.7807665,1.29531614 14.7833051,1.37014213 L14.7833051,4.08236659 C14.7833051,4.15958528 14.7310807,4.22223029 14.6667069,4.22223029 L9.33329306,4.22223029 C9.26891926,4.22223029 9.21669489,4.15958528 9.21669489,4.08236659 L9.22177226,1.37014213 Z M7.58939796,12.3893562 C7.58939796,12.0537268 7.81642891,11.7811775 8.09640956,11.7811775 L10.0684236,11.7811775 L10.0684236,9.4215487 C10.0684236,9.08591939 10.2956359,8.8135876 10.5754352,8.8135876 L13.4245648,8.8135876 C13.7045455,8.8135876 13.9315764,9.08591939 13.9315764,9.4215487 L13.9315764,11.787268 L15.9037718,11.787268 C16.1835711,11.787268 16.4107834,12.0595997 16.4107834,12.3954466 L16.4107834,15.8069896 C16.4107834,16.1426189 16.1835711,16.4151682 15.9037718,16.4151682 L13.9315764,16.4151682 L13.9315764,18.7808875 C13.9315764,19.1165168 13.7045455,19.3890661 13.4245648,19.3890661 L10.5754352,19.3890661 C10.2956359,19.3890661 10.0684236,19.1165168 10.0684236,18.7808875 L10.0684236,16.4151682 L8.09640956,16.4151682 C7.81642891,16.4151682 7.58939796,16.1428365 7.58939796,15.8069896 L7.58939796,12.3893562 Z"/>
</svg>
