<svg xmlns="http://www.w3.org/2000/svg" width="24" height="24" viewBox="0 0 24 24">
  <g transform="translate(0 5)">
    <path d="M18.3671233,8.93150685 L14.5753425,8.93150685 C11.5068493,8.93150685 8.98630137,11.4520548 8.98630137,14.5205479 L23.9780822,14.5205479 C23.9780822,11.4520548 21.4575342,8.93150685 18.3671233,8.93150685 Z"/>
    <circle cx="16.482" cy="3.934" r="3.901"/>
    <path d="M10.7178082,6.71780822 L10.7178082,1.26027397 C10.7178082,0.734246575 10.2794521,0.295890411 9.75342466,0.295890411 L0.964383562,0.295890411 C0.438356164,0.295890411 0,0.734246575 0,1.26027397 L0,6.71780822 C0,7.24383562 0.438356164,7.68219178 0.964383562,7.68219178 L7.01369863,7.68219178 L8.39452055,9.0630137 C8.43835616,9.12876712 8.5260274,9.15068493 8.61369863,9.15068493 C8.7890411,9.15068493 8.92054795,9.01917808 8.92054795,8.84383562 L8.92054795,7.68219178 L9.75342466,7.68219178 C10.2794521,7.68219178 10.7178082,7.24383562 10.7178082,6.71780822 Z M2.23561644,5.00821918 C1.73150685,5.00821918 1.3369863,4.61369863 1.3369863,4.10958904 C1.35890411,3.62739726 1.75342466,3.2109589 2.23561644,3.2109589 C2.71780822,3.2109589 3.13424658,3.60547945 3.13424658,4.10958904 C3.13424658,4.59178082 2.73972603,5.00821918 2.23561644,5.00821918 Z M5.36986301,5.00821918 C4.88767123,5.00821918 4.47123288,4.61369863 4.47123288,4.10958904 C4.47123288,3.62739726 4.86575342,3.2109589 5.36986301,3.2109589 C5.85205479,3.2109589 6.26849315,3.60547945 6.26849315,4.10958904 C6.26849315,4.59178082 5.8739726,5.00821918 5.36986301,5.00821918 Z M8.48219178,5.00821918 C7.97808219,5.00821918 7.58356164,4.61369863 7.58356164,4.10958904 C7.58356164,3.62739726 7.97808219,3.2109589 8.48219178,3.2109589 C8.96438356,3.2109589 9.38082192,3.60547945 9.38082192,4.10958904 C9.38082192,4.59178082 8.98630137,5.00821918 8.48219178,5.00821918 Z"/>
  </g>
</svg>
