<?xml version="1.0" encoding="UTF-8"?>
<svg width="30px" height="48px" viewBox="0 0 30 48" version="1.1" xmlns="http://www.w3.org/2000/svg" xmlns:xlink="http://www.w3.org/1999/xlink">
    <!-- Generator: Sketch 52.4 (67378) - http://www.bohemiancoding.com/sketch -->
    <title>OBJ/Betslip/Sport-Amount</title>
    <desc>Created with Sketch.</desc>
    <defs>
        <polygon id="path-1" points="0.271588235 0.151532847 18.1905882 0.151532847 18.1905882 47.649635 0.271588235 47.649635"></polygon>
    </defs>
    <g id="Symbols" stroke="none" stroke-width="1" fill="none" fill-rule="evenodd">
        <g id="BLCK/Betslip-Empty" transform="translate(-119.000000, -442.000000)">
            <g id="Logo/Stone/INACTIVE" transform="translate(116.000000, 442.000000)">
                <g id="Group-32" transform="translate(3.176471, 0.000000)">
                    <g id="Group-3" transform="translate(14.470588, 0.199007)">
                        <mask id="mask-2" fill="white">
                            <use xlink:href="#path-1"></use>
                        </mask>
                        <g id="Clip-2"></g>
                    </g>
                    <path d="M15.6586235,42.0193401 L9.15144706,33.3646248 L16.5067412,13.4838657 L23.8623882,33.3646248 L17.3555647,42.0193401 C16.9320353,42.5823766 16.0818,42.5823766 15.6586235,42.0193401 Z M16.5067412,0.350435036 L3.52944706,34.2899387 L12.8770941,46.2608584 C13.0090941,46.4055591 13.1502706,46.5422015 13.2988588,46.6700847 C15.3035647,48.3893255 18.3649765,48.2060847 20.1367412,46.2608584 L29.4847412,34.2899387 L16.5067412,0.350435036 Z" id="Fill-22" fill="#000000" opacity="0.300548735"></path>
                    <path d="M12.1292118,42.0193401 L5.62203529,33.3646248 L12.9773294,13.4838657 L20.3329765,33.3646248 L13.8261529,42.0193401 C13.4026235,42.5823766 12.5523882,42.5823766 12.1292118,42.0193401 Z M12.9773294,0.350435036 L3.52941177e-05,34.2899387 L9.34768235,46.2608584 C9.47968235,46.4055591 9.62085882,46.5422015 9.76944706,46.6700847 C11.7741529,48.3893255 14.8355647,48.2060847 16.6073294,46.2608584 L25.9553294,34.2899387 L12.9773294,0.350435036 Z" id="Fill-24" fill="#000000" opacity="0.300548735"></path>
                    <path d="M13.8939176,42.0193401 L7.38674118,33.3646248 L14.7420353,13.4838657 L22.0976824,33.3646248 L15.5908588,42.0193401 C15.1673294,42.5823766 14.3170941,42.5823766 13.8939176,42.0193401 Z M14.7420353,0.350435036 L1.76474118,34.2899387 L11.1123882,46.2608584 C11.2443882,46.4055591 11.3855647,46.5422015 11.5341529,46.6700847 C13.5388588,48.3893255 16.6002706,48.2060847 18.3720353,46.2608584 L27.7200353,34.2899387 L14.7420353,0.350435036 Z" id="Fill-26" fill="#1E1E1E"></path>
                    <polygon id="Fill-28" fill="#969696" points="14.7421765 1.63291095 27.351 34.6954511 27.7201765 34.2900788 14.7421765 0.350575182 1.76452941 34.2900788 2.13370588 34.6954511"></polygon>
                    <path d="M16.1542588,42.2151942 L22.0977882,34.2226686 L22.0977882,33.3646248 L15.5906118,42.0193401 C15.1674353,42.5823766 14.3172,42.5823766 13.8940235,42.0193401 L7.38649412,33.3646248 L7.38649412,34.330581 L13.3204941,42.2225518 C14.0284941,43.1643328 15.4512,43.1608292 16.1542588,42.2151942" id="Fill-30" fill="#969696"></path>
                </g>
            </g>
        </g>
    </g>
</svg>