<svg xmlns="http://www.w3.org/2000/svg" width="51" height="36" viewBox="0 0 51 36">
  <g fill="#1D1D1D" fill-rule="evenodd" stroke="#939393" transform="translate(1 1)">
    <path d="M26.0592593,10.5896296 L26.0592593,4.07851852 L33.2177778,0.0207407407 L33.2177778,4.07851852 L33.2154869,10.5896296 L46.1051852,10.5896296 C47.6859259,10.5896296 48.9674074,11.8711111 48.9674074,13.4518519 L48.9674074,30.9777778 C48.9674074,32.5585185 47.6859259,33.84 46.1051852,33.84 L26.0577778,33.84 L26.0577778,10.5896296 Z M41.8755556,26.3333333 L41.8755556,18.1644444 C41.8755556,17.3318519 41.2014815,16.6577778 40.3688889,16.6577778 L33.2162963,16.6577778 L33.2162963,27.84 L40.3688889,27.84 C41.2014815,27.84 41.8755556,27.1659259 41.8755556,26.3333333 Z"/>
    <path d="M23.0103704,9.00296296 L23.0103704,23.3155556 L2.97333333,23.3155556 C1.39259259,23.3155556 0.111111111,22.0340741 0.111111111,20.4533333 L0.111111111,11.8651852 C0.111111111,10.2844444 1.39259259,9.00296296 2.97333333,9.00296296 L15.8548148,9.00296296 L15.8548148,6.07111111 L13.322963,6.07111111 L2.55407407,6.07111111 L3.67808439,5.44528739 L13.322963,0.0681481481 L18.5348148,0.0681481481 L20.1481481,0.0681481481 C21.7288889,0.0681481481 23.0103704,1.34962963 23.0103704,2.93037037 L23.0103704,9.00296296 Z M15.8533333,17.7985185 L15.8533333,13.1614815 L8.70074074,13.1614815 C7.86814815,13.1614815 7.19407407,13.8355556 7.19407407,14.6681481 L7.19407407,16.2918519 C7.19407407,17.1244444 7.86814815,17.7985185 8.70074074,17.7985185 L15.8533333,17.7985185 Z" transform="translate(0 10.519)"/>
  </g>
</svg>

