<svg xmlns="http://www.w3.org/2000/svg" width="14" height="10" viewBox="0 0 14 10">
  <g fill="none" fill-rule="evenodd" transform="translate(.423 .683)">
    <polygon fill="#F9B862" points="6.846 1.114 8.801 .006 8.801 3.74 6.846 3.74"/>
    <polygon fill="#F9B862" fill-rule="nonzero" points="6.846 1.114 8.801 .006 8.801 1.114"/>
    <path fill="#F9B862" d="M12.3221585,2.8929511 L6.84546374,2.8929511 L6.84546374,9.2446543 L12.3221585,9.2446543 C12.7539966,9.2446543 13.1040809,8.89456998 13.1040809,8.46273187 L13.1040809,3.67487352 C13.1040809,3.24303541 12.7539966,2.8929511 12.3221585,2.8929511 Z M11.1666779,7.19392917 C11.1666779,7.4213828 10.9825295,7.6055312 10.7550759,7.6055312 L8.80107926,7.6055312 L8.80107926,4.5506914 L10.7550759,4.5506914 C10.9825295,4.5506914 11.1666779,4.7348398 11.1666779,4.96229342 L11.1666779,7.19392917 Z"/>
    <g fill="#FFF" transform="translate(0 2.874)">
      <path d="M.81227656 2.4594941C.380438449 2.4594941.0303541315 2.80957841.0303541315 3.24141653L.0303541315 5.58758853C.0303541315 6.01942664.380438449 6.36951096.81227656 6.36951096L6.28613828 6.36951096 6.28613828 2.4594941.81227656 2.4594941.81227656 2.4594941zM4.33092749 4.86232715L2.37693086 4.86232715C2.14947723 4.86232715 1.96532884 4.67817875 1.96532884 4.45072513L1.96532884 4.00715008C1.96532884 3.77969646 2.14947723 3.59554806 2.37693086 3.59554806L4.33092749 3.59554806 4.33092749 4.86232715zM3.92134907 1.65854975L4.33092749 1.65854975 4.33092749 2.04951096C4.33092749 2.04951096 4.33740304 1.84674536 4.23784148 1.75163575 4.13261383 1.65126476 3.92134907 1.65854975 3.92134907 1.65854975z"/>
      <polygon fill-rule="nonzero" points="3.642 .019 3.64 1.659 .698 1.659"/>
      <polygon points="3.64 .019 5.063 .019 5.063 1.659 .698 1.659"/>
      <path d="M4.33133221,0.0186172007 L5.50421585,0.0186172007 C5.93605396,0.0186172007 6.28613828,0.368701518 6.28613828,0.800539629 L6.28613828,2.92290051 L4.33133221,2.92290051 L4.33133221,0.0186172007 L4.33133221,0.0186172007 Z"/>
    </g>
  </g>
</svg>
