<svg xmlns="http://www.w3.org/2000/svg" width="14" height="10" viewBox="0 0 14 10">
  <g fill="#1D1D1D" fill-rule="evenodd">
    <path d="M7.11328586,3.03319144 L7.11328586,1.16821153 L9.16370291,0.00594077787 L9.16370291,1.16821153 L9.16304674,3.03319144 L12.8550477,3.03319144 C13.3078198,3.03319144 13.674875,3.40024665 13.674875,3.85301879 L13.674875,8.87297609 C13.674875,9.32574823 13.3078198,9.69280344 12.8550477,9.69280344 L7.11286152,9.69280344 L7.11286152,3.03319144 Z M11.6435533,7.54266619 L11.6435533,5.20284839 C11.6435533,4.96436859 11.450478,4.77129331 11.2119982,4.77129331 L9.16327857,4.77129331 L9.16327857,7.97422127 L11.2119982,7.97422127 C11.450478,7.97422127 11.6435533,7.78114599 11.6435533,7.54266619 Z"/>
    <path d="M6.59086871,2.57872194 L6.59086871,6.67828301 L0.851652942,6.67828301 C0.3988808,6.67828301 0.0318255957,6.3112278 0.0318255957,5.85845566 L0.0318255957,3.39854928 C0.0318255957,2.94577714 0.3988808,2.57872194 0.851652942,2.57872194 L4.54130034,2.57872194 L4.54130034,1.73895055 L3.8161011,1.73895055 L0.731564361,1.73895055 L1.05351504,1.55969564 L3.8161011,0.0195196987 L5.30893371,0.0195196987 L5.77104136,0.0195196987 C6.2238135,0.0195196987 6.59086871,0.386574903 6.59086871,0.839347045 L6.59086871,2.57872194 Z M4.540876,5.0980361 L4.540876,3.7698479 L2.49215632,3.7698479 C2.25367652,3.7698479 2.06060124,3.96292318 2.06060124,4.20140298 L2.06060124,4.66648102 C2.06060124,4.90496081 2.25367652,5.0980361 2.49215632,5.0980361 L4.540876,5.0980361 Z" transform="translate(0 3.013)"/>
  </g>
</svg>

