<svg xmlns="http://www.w3.org/2000/svg" width="24" height="24" viewBox="0 0 24 24">
  <path fill="#1D1D1D" fill-rule="evenodd" d="M12.1942043 5.19975675L12.1942043 2.00264834 15.709205.0101841906 15.709205 2.00264834 15.7080801 5.19975675 22.0372246 5.19975675C22.8134054 5.19975675 23.4426429 5.82899426 23.4426429 6.60517507L23.4426429 15.2108162C23.4426429 15.986997 22.8134054 16.6162345 22.0372246 16.6162345L12.1934769 16.6162345 12.1934769 5.19975675 12.1942043 5.19975675zM19.9603771 12.9302849L19.9603771 8.91916867C19.9603771 8.51034615 19.6293909 8.17935996 19.2205683 8.17935996L15.7084775 8.17935996 15.7084775 13.6700936 19.2205683 13.6700936C19.6293909 13.6700936 19.9603771 13.3391074 19.9603771 12.9302849zM11.2986321 9.58580904L11.2986321 16.613628 1.45997647 16.613628C.683795657 16.613628.0545581641 15.9843905.0545581641 15.2082097L.0545581641 10.9912273C.0545581641 10.2150465.683795657 9.58580904 1.45997647 9.58580904L7.7850863 9.58580904 7.7850863 8.14620094 6.5418876 8.14620094 1.25411033 8.14620094 1.80602578 7.83890681 6.5418876 5.1986052 9.10102922 5.1986052 9.89321376 5.1986052C10.6693946 5.1986052 11.2986321 5.82784269 11.2986321 6.60402351L11.2986321 9.58580904zM7.78435886 13.9046333L7.78435886 11.6277393 4.27226798 11.6277393C3.86344546 11.6277393 3.53245927 11.9587255 3.53245927 12.367548L3.53245927 13.1648246C3.53245927 13.5736471 3.86344546 13.9046333 4.27226798 13.9046333L7.78435886 13.9046333z" transform="translate(0 4)"/>
</svg>

