<svg width="16px" height="25px" viewBox="0 0 16 25" version="1.1" xmlns="http://www.w3.org/2000/svg" xmlns:xlink="http://www.w3.org/1999/xlink">
  <defs>
    <polygon id="path-1" points="0.135794118 0.0757664234 9.09529412 0.0757664234 9.09529412 23.8248175 0.135794118 23.8248175"></polygon>
  </defs>
  <g id="Symbols" stroke="none" stroke-width="1" fill="none" fill-rule="evenodd">
    <g id="BLCK/Sidebar/Sport-Opened" transform="translate(-21.000000, -16.000000)">
      <g id="Group-6">
        <g>
          <g id="Logo/Stone/INACTIVE" transform="translate(20.000000, 16.000000)">
            <g id="Group-32" transform="translate(1.588235, 0.000000)">
              <g id="Group-3" transform="translate(7.235294, 0.099504)">
                <mask id="mask-2" fill="white">
                  <use xlink:href="#path-1"></use>
                </mask>
                <g id="Clip-2"></g>
              </g>
              <path d="M7.82931176,21.0096701 L4.57572353,16.6823124 L8.25337059,6.74193285 L11.9311941,16.6823124 L8.67778235,21.0096701 C8.46601765,21.2911883 8.0409,21.2911883 7.82931176,21.0096701 Z M8.25337059,0.175217518 L1.76472353,17.1449693 L6.43854706,23.1304292 C6.50454706,23.2027796 6.57513529,23.2711007 6.64942941,23.3350423 C7.65178235,24.1946628 9.18248824,24.1030423 10.0683706,23.1304292 L14.7423706,17.1449693 L8.25337059,0.175217518 Z" id="Fill-22" fill="#000000" opacity="0.300548735"></path>
              <path d="M6.06460588,21.0096701 L2.81101765,16.6823124 L6.48866471,6.74193285 L10.1664882,16.6823124 L6.91307647,21.0096701 C6.70131176,21.2911883 6.27619412,21.2911883 6.06460588,21.0096701 Z M6.48866471,0.175217518 L1.76470589e-05,17.1449693 L4.67384118,23.1304292 C4.73984118,23.2027796 4.81042941,23.2711007 4.88472353,23.3350423 C5.88707647,24.1946628 7.41778235,24.1030423 8.30366471,23.1304292 L12.9776647,17.1449693 L6.48866471,0.175217518 Z" id="Fill-24" fill="#000000" opacity="0.300548735"></path>
              <path d="M6.94695882,21.0096701 L3.69337059,16.6823124 L7.37101765,6.74193285 L11.0488412,16.6823124 L7.79542941,21.0096701 C7.58366471,21.2911883 7.15854706,21.2911883 6.94695882,21.0096701 Z M7.37101765,0.175217518 L0.882370588,17.1449693 L5.55619412,23.1304292 C5.62219412,23.2027796 5.69278235,23.2711007 5.76707647,23.3350423 C6.76942941,24.1946628 8.30013529,24.1030423 9.18601765,23.1304292 L13.8600176,17.1449693 L7.37101765,0.175217518 Z" id="Fill-26" fill="#1E1E1E"></path>
              <polygon id="Fill-28" fill="#969696" points="7.37108824 0.816455474 13.6755 17.3477255 13.8600882 17.1450394 7.37108824 0.175287591 0.882264706 17.1450394 1.06685294 17.3477255"></polygon>
              <path d="M8.07712941,21.1075971 L11.0488941,17.1113343 L11.0488941,16.6823124 L7.79530588,21.0096701 C7.58371765,21.2911883 7.1586,21.2911883 6.94701176,21.0096701 L3.69324706,16.6823124 L3.69324706,17.1652905 L6.66024706,21.1112759 C7.01424706,21.5821664 7.7256,21.5804146 8.07712941,21.1075971" id="Fill-30" fill="#969696"></path>
            </g>
          </g>
        </g>
      </g>
    </g>
  </g>
</svg>
