<svg xmlns="http://www.w3.org/2000/svg" width="20" height="24" viewBox="0 0 20 24">
  <path d="M8,9 C9.10551181,9 10,8.10551181 10,7 C10,5.89448819 9.10551181,5 8,5 C6.89448819,5 6,5.89448819 6,7 C6,8.1023622 6.89448819,9 8,9 Z"/>
  <path d="M2.8011483,20.9191477 L2.8011483,23.333026 C2.8011483,23.7019903 3.09383912,24 3.45311363,24 L12.6333404,24 C12.9940021,24 13.2853057,23.7005712 13.2853057,23.333026 L13.2853057,20.9801688 L15.8487779,20.9801688 C16.8752765,20.9801688 17.7131213,20.1230362 17.7131213,19.0729069 L17.7131213,15.7351987 L19.2140288,15.7053977 C19.8091205,15.694045 20.185041,15.042681 19.9062217,14.5062636 L18.2665983,11.344523 C17.9017751,10.6392335 17.710347,9.85447467 17.710347,9.05836314 L17.710347,9.05836314 L17.710347,9.05836314 C17.710347,4.0305144 13.7056153,-0.0394461337 8.78119628,0.000288487964 C3.87203604,0.0400231097 -0.0494660795,4.12843186 0.000471690643,9.15202332 C0.0157304537,10.5994988 0.363907685,11.966086 0.965935247,13.1737347 C2.16860321,15.5748411 2.8011483,18.2271271 2.8011483,20.9191477 Z M3.79574222,6.84599617 C3.79574222,6.67570494 3.89561776,6.52244282 4.04959255,6.45574542 L5.01505611,6.03427461 C5.11631881,5.98886362 5.19816127,5.903718 5.23977608,5.79870507 C5.24532472,5.78593323 5.25087336,5.77458048 5.25226052,5.76180864 C5.29387533,5.6582148 5.29387533,5.54326822 5.25226052,5.43825529 L4.85553268,4.45340431 C4.79311046,4.29588491 4.82640231,4.11140274 4.94708526,3.99077978 L5.38820223,3.53950801 C5.50611085,3.41888505 5.68366737,3.38198861 5.83764216,3.44584783 L6.81697732,3.84887042 C6.91685286,3.88860504 7.02782568,3.88860504 7.13047554,3.84887042 C7.1387985,3.84603223 7.14850862,3.84035586 7.15683159,3.83751767 C7.26086861,3.79494486 7.34409822,3.71263743 7.38848735,3.60478631 L7.79353815,2.61425896 C7.85873469,2.45673957 8.00993516,2.35314573 8.17778155,2.35314573 L8.80200368,2.35314573 C8.96846291,2.35314573 9.11827622,2.45532047 9.18347276,2.61283987 L9.601008,3.61471997 C9.64539713,3.7183138 9.72585243,3.79920214 9.82850229,3.84177495 C9.83405093,3.84461314 9.83959957,3.84745133 9.84376105,3.84745133 C9.94502375,3.89002413 10.0601581,3.89286232 10.1628079,3.84745133 L11.1393688,3.43591417 C11.2933435,3.37205496 11.4736744,3.40611321 11.591583,3.52957435 L12.0327,3.98084613 C12.1506086,4.10146909 12.1866748,4.28311307 12.1242526,4.44063246 L11.7275247,5.45528441 C11.6886842,5.55887825 11.6886842,5.67382483 11.730299,5.77599957 C11.730299,5.77883776 11.7330734,5.78167595 11.7330734,5.78451413 C11.7746882,5.89094616 11.8551435,5.97609177 11.9605676,6.02150277 L12.9426771,6.44013539 C13.0966519,6.50683279 13.1979146,6.661514 13.1979146,6.83322433 L13.1979146,7.47181646 C13.1979146,7.6421077 13.0980391,7.79536981 12.9440643,7.86206721 L11.9577933,8.29205258 C11.8565306,8.33746358 11.7746882,8.41977101 11.7330734,8.52762213 L11.7275247,8.54039397 C11.6886842,8.64256871 11.6886842,8.7560962 11.730299,8.85827094 L12.1381242,9.86298923 C12.2033207,10.0205086 12.1672545,10.2049908 12.0465716,10.3256138 L11.6054546,10.7768855 C11.487546,10.8975085 11.3099895,10.9344049 11.1560147,10.8705457 L10.1641951,10.4646849 C10.0643195,10.4249503 9.95334671,10.4249503 9.85069685,10.4675231 C9.84514821,10.4703613 9.83821241,10.4731995 9.83266377,10.4760377 C9.73140107,10.5186105 9.64955861,10.6009179 9.60516948,10.7059309 L9.202893,11.707811 C9.13769647,11.8653303 8.986496,11.9689242 8.8186496,11.9689242 L8.19442748,11.9689242 C8.02796824,11.9689242 7.87815493,11.8667494 7.8129584,11.70923 L7.39819747,10.7158645 C7.35380835,10.6094325 7.26780441,10.525706 7.16376739,10.4859713 C7.15544443,10.4831332 7.1457343,10.4774568 7.13741134,10.4746186 C7.03614864,10.434884 6.92378866,10.434884 6.82391312,10.4746186 L5.85567524,10.8833176 C5.70170045,10.9471768 5.52136961,10.9131185 5.40346099,10.7896574 L4.96234402,10.3383856 C4.8444354,10.2177626 4.80836923,10.0361187 4.87079144,9.87859926 L5.26197064,8.88239553 C5.30358545,8.7788017 5.30081113,8.66385511 5.25919632,8.55884219 C5.25364768,8.54607034 5.24809904,8.53471759 5.24393756,8.52194575 C5.20232275,8.41551373 5.12186745,8.33036811 5.01644327,8.28637621 L4.05652836,7.87767724 C3.90255356,7.81097984 3.80129086,7.65629864 3.80129086,7.48458831 L3.80129086,6.84599617 L3.79574222,6.84599617 L3.79574222,6.84599617 Z"/>
</svg>
