<svg xmlns="http://www.w3.org/2000/svg" width="24" height="23" viewBox="0 0 24 23">
  <path d="M23.9790698,8.77674419 C23.9288372,8.62186047 23.7934884,8.50744186 23.6316279,8.48372093 L15.8609302,7.35488372 L12.3851163,0.31255814 C12.3125581,0.166046512 12.1632558,0.0725581395 12,0.0725581395 C11.8367442,0.0725581395 11.6874419,0.166046512 11.6148837,0.31255814 L8.13906977,7.35488372 L0.368372093,8.48372093 C0.206511628,8.50744186 0.0725581395,8.62046512 0.0209302326,8.77674419 C-0.0293023256,8.93162791 0.0125581395,9.10325581 0.129767442,9.21627907 L5.75302326,14.6972093 L4.42465116,22.4372093 C4.39674419,22.5976744 4.46372093,22.7609302 4.59488372,22.8572093 C4.72744186,22.9548837 4.90325581,22.9674419 5.04697674,22.8893023 L12,19.2376744 L18.9502326,22.892093 C19.0130233,22.9255814 19.0827907,22.9409302 19.1497674,22.9409302 C19.2390698,22.9409302 19.3269767,22.9130233 19.4023256,22.8586047 C19.5348837,22.7623256 19.6004651,22.5990698 19.5725581,22.4386047 L18.2455814,14.6986047 L23.8688372,9.21627907 C23.9874419,9.10186047 24.0293023,8.93162791 23.9790698,8.77674419 Z"/>
</svg>
