<svg xmlns="http://www.w3.org/2000/svg" width="24" height="24" viewBox="0 0 24 24">
  <path d="M22.0039024,9.09219512 L22.3302439,5.96195122 L19.4546341,4.68292683 C19.3609756,4.64195122 19.284878,4.56585366 19.2439024,4.47219512 L17.964878,1.59658537 L14.8346341,1.92439024 C14.7336585,1.93463415 14.6312195,1.90682927 14.5492683,1.84682927 L12,0 L9.45219512,1.84682927 C9.36878049,1.90682927 9.26780488,1.93463415 9.16682927,1.92439024 L6.03658537,1.59658537 L4.75609756,4.47219512 C4.71512195,4.56585366 4.63902439,4.6404878 4.54536585,4.68292683 L1.6697561,5.96341463 L1.99609756,9.09365854 C2.00634146,9.19463415 1.98,9.29707317 1.92,9.3804878 L0.0731707317,11.9268293 L1.92,14.4746341 C1.98,14.5580488 2.00780488,14.6590244 1.99609756,14.7614634 L1.6697561,17.8917073 L4.54536585,19.1707317 C4.63902439,19.2117073 4.71365854,19.2878049 4.75609756,19.3814634 L6.03512195,22.2570732 L9.16536585,21.9292683 C9.18,21.9292683 9.19463415,21.9263415 9.20634146,21.9263415 C9.29414634,21.9263415 9.37902439,21.9541463 9.44926829,22.0053659 L12,23.8536585 L14.5478049,22.0068293 C14.6297561,21.9468293 14.7321951,21.9190244 14.8331707,21.9292683 L17.9634146,22.2570732 L19.242439,19.3814634 C19.2834146,19.2878049 19.3595122,19.2131707 19.4531707,19.1707317 L22.3287805,17.8902439 L22.002439,14.76 C21.9921951,14.6590244 22.0185366,14.5565854 22.0785366,14.4731707 L23.9268293,11.9268293 L22.08,9.37902439 C22.02,9.29560976 21.9921951,9.19317073 22.0039024,9.09219512 Z M18.0146341,8.98536585 L9.80487805,17.195122 C9.64243902,17.357561 9.3804878,17.357561 9.21804878,17.195122 L5.69707317,13.6741463 C5.6195122,13.5965854 5.57560976,13.4912195 5.57560976,13.38 C5.57560976,13.2702439 5.6195122,13.164878 5.69707317,13.0858537 L6.87073171,11.9165854 C7.03317073,11.7556098 7.29512195,11.7556098 7.45609756,11.9165854 L9.51219512,13.9697561 L16.2556098,7.22634146 C16.4180488,7.06390244 16.68,7.06390244 16.842439,7.22634146 L18.0160976,8.4 C18.1770732,8.56097561 18.1770732,8.82439024 18.0146341,8.98536585 Z"/>
</svg>
