<svg width="10px" height="12px" viewBox="0 0 10 12" version="1.1" xmlns="http://www.w3.org/2000/svg" xmlns:xlink="http://www.w3.org/1999/xlink">
  <g id="Symbols" stroke="none" stroke-width="1" fill="none" fill-rule="evenodd">
    <g id="OBJ/Betslip/Stake" transform="translate(-21.000000, -39.000000)" fill="#4290FF" fill-rule="nonzero">
      <g id="ICN/S/Bet-Max-ESPORT">
        <g transform="translate(20.000000, 39.000000)">
          <path d="M1.30845561,7.10598741 C0.907568165,6.54643253 0.894983317,5.89286937 1.28511359,5.33917973 C2.06704514,6.28797826 3.10772325,6.67453596 4.21712193,6.88979576 C5.93471862,7.22296333 7.62620566,7.13246322 9.26119143,6.4329648 C9.81450696,6.19627221 10.3113212,5.86562615 10.7107465,5.34455163 C10.9896497,5.71318472 11.0576915,6.1128981 10.9541928,6.54747403 C10.8574305,6.95365561 10.6131487,7.26182739 10.3135144,7.52230984 C9.56792751,8.17044629 8.68035634,8.48081068 7.74824212,8.65276637 C6.03816502,8.96828341 4.35424977,8.88331965 2.72981229,8.18146417 C2.17822,7.94318194 1.67560939,7.6183463 1.30845561,7.10598741 Z M8.16100126,5.00805322 C7.45072958,5.16294117 6.72367573,5.23204249 6.00402271,5.33917973 C4.83276241,5.26080269 3.68782197,5.11299502 2.63054495,4.57286308 C2.21635879,4.36122313 1.8116582,4.0795488 1.48252953,3.74315324 C0.835998842,3.08243703 0.848611532,2.24301239 1.46366261,1.54941953 C2.04061502,0.898747435 2.79034044,0.561748137 3.58806706,0.344400055 C5.44135078,-0.160495149 7.28567011,-0.136180704 9.08355181,0.59034368 C9.55908151,0.782499143 10.0218943,1.08025504 10.4086661,1.42987809 C11.2136893,2.15766485 11.1855453,3.14050629 10.3927178,3.89518713 C9.75676719,4.50052349 8.98197274,4.82907036 8.16100126,5.00805322 Z M7.01852297,12 L4.98261525,12 C4.48319142,11.8902049 3.9781819,11.8025004 3.48575325,11.665188 C2.80873562,11.476404 2.17572493,11.176893 1.6403856,10.686844 C1.03780912,10.1350729 0.848678512,9.44270045 1.12331724,8.80821302 C1.16184288,8.71924774 1.21383683,8.63669585 1.26061051,8.54942985 C2.60133405,9.97660176 4.30084718,10.2393316 6.06759746,10.2673971 C7.0114756,10.2824713 7.93901428,10.1360595 8.8352835,9.80925056 C9.55020033,9.54854885 10.209469,9.19438701 10.7145307,8.54268756 C11.0130783,8.98164872 11.0835521,9.4343137 10.8970838,9.92118346 C10.7103545,10.4089303 10.3518259,10.7388089 9.94192986,11.0114055 C9.11702181,11.5599974 8.19527764,11.8049671 7.24121996,11.9452395 C7.16604798,11.9563122 7.0926509,11.9814176 7.01852297,12 Z" id="Combined-Shape"></path>
        </g>
      </g>
    </g>
  </g>
</svg>
