<svg width="12px" height="12px" viewBox="0 0 12 12" version="1.1" xmlns="http://www.w3.org/2000/svg" xmlns:xlink="http://www.w3.org/1999/xlink">
  <g id="Symbols" stroke="none" stroke-width="1" fill="none" fill-rule="evenodd">
    <g id="OBJ/Betslip/Bet-2-opt" transform="translate(-246.000000, -10.000000)" fill="#47D469">
      <g id="ICN/S/Cross-SPORT">
        <g transform="translate(246.000000, 10.000000)">
          <path d="M7.41395223,5.9999375 L11.7069969,1.70689278 C12.097501,1.31638871 12.097501,0.683382119 11.7069969,0.292878051 C11.3169929,-0.0976260169 10.6829863,-0.0976260169 10.2929822,0.292878051 L5.9999375,4.58592277 L1.70689278,0.292878051 C1.31688872,-0.0976260169 0.682882113,-0.0976260169 0.292878051,0.292878051 C-0.0976260169,0.683382119 -0.0976260169,1.31638871 0.292878051,1.70689278 L4.58592277,5.9999375 L0.292878051,10.2929822 C-0.0976260169,10.6834863 -0.0976260169,11.3164929 0.292878051,11.7069969 C0.487880082,11.902499 0.743882749,12 0.999885415,12 C1.25588808,12 1.51189075,11.902499 1.70689278,11.7069969 L5.9999375,7.41395223 L10.2929822,11.7069969 C10.4879842,11.902499 10.7439869,12 10.9999896,12 C11.2559922,12 11.5119949,11.902499 11.7069969,11.7069969 C12.097501,11.3164929 12.097501,10.6834863 11.7069969,10.2929822 L7.41395223,5.9999375 Z" id="ICN/M/Cross"></path>
        </g>
      </g>
    </g>
  </g>
</svg>
