<svg xmlns="http://www.w3.org/2000/svg" width="24" height="24" viewBox="0 0 24 24">
  <g fill="none" fill-rule="evenodd" transform="translate(0 1)">
    <path fill="#000" fill-rule="nonzero" d="M4.66111662,17.373426 L4.66111662,3.44550586 C4.66111662,3.29387755 4.68509794,3.1453756 4.70343659,3 L1.10059694,4.30056448 C0.265482968,4.60069475 -0.192983315,5.6058185 0.0778644581,6.53122015 L3.96283721,19.7775944 C4.18149036,20.5232306 4.81205783,21 5.48635593,21 C5.64858246,21 5.81504099,20.9718628 5.97726752,20.9140252 L7,20.5419887 C5.67679577,20.2481112 4.66111662,18.9225358 4.66111662,17.373426 Z"/>
    <polyline points="9 .99 9 1.01 9 1.01"/>
    <path fill="#000" fill-rule="nonzero" d="M7.24736842,15.217337 L10.8697368,2.37295996 C10.9065789,2.24257558 10.95,2.08641755 11,2 L7.51447368,2 C6.69473684,2 6,2.77927406 6,3.72380273 L6,17.2322304 C6,18.1767591 6.69605263,19 7.51447368,19 L8.70394737,19 C7.46710526,18.3132079 6.81973684,16.7334344 7.24736842,15.217337 Z"/>
    <path fill="#000" fill-rule="nonzero" d="M22.9173981,4.92643332 L14.8643284,2.08275261 C14.7051221,2.02708267 14.543147,2 14.3825563,2 C13.7208119,2 13.1019839,2.45890086 12.8874015,3.1765917 L9.07614125,15.9265125 C8.81033596,16.8187361 9.2630356,17.7846848 10.0826019,18.0735667 L18.1356716,20.9172474 C18.2948779,20.9729173 18.456853,21 18.6174437,21 C19.2791881,21 19.8980161,20.5410991 20.1125985,19.8234083 L23.9238588,7.07348749 C24.189664,6.18126386 23.7369644,5.21531517 22.9173981,4.92643332 Z M15.3890169,14.8943617 C11.5916007,9.88256256 13.803876,7.3924612 15.203507,7.39846869 C16.383018,7.40449794 16.8634057,8.32380424 17.0682973,9.27019322 C17.6995848,8.51639214 18.6312877,8.19741844 19.5892943,8.94670573 C20.7272732,9.83441558 21.1716665,13.2618784 15.3890169,14.8943617 Z"/>
  </g>
</svg>
