<svg xmlns="http://www.w3.org/2000/svg" width="24" height="24" viewBox="0 0 24 24">
  <path d="M11.25,0 C6.1347541,2.94633307 6.75,11.2497695 6.75,11.2497695 C6.75,11.2497695 4.5,10.5002766 4.5,7.12608348 C1.81622951,8.68260896 0,11.6732034 0,15.0001844 C0,19.9707383 4.02934426,24 9,24 C13.9706557,24 18,19.9707383 18,15.0001844 C18,7.68820311 11.25,6.18774205 11.25,0 L11.25,0 Z M9.79081967,20.8987521 C7.98196721,21.3502182 6.15098361,20.249585 5.6995082,18.4407697 C5.24803279,16.6319543 6.34868852,14.8010082 8.15754098,14.349542 C12.5232787,13.2607119 13.0706557,10.8056802 13.0706557,10.8056802 C13.0706557,10.8056802 15.2483607,19.5384521 9.79081967,20.8987521 Z" transform="translate(3)"/>
</svg>
