<svg xmlns="http://www.w3.org/2000/svg" width="24" height="24" viewBox="0 0 24 24">
  <path d="M14.755814 9.1744186C14.755814 9.1744186 14.755814 9.1744186 14.755814 9.1744186 14.755814 9.1744186 14.755814 9.1744186 14.755814 9.1744186 14.0497674 8.46837209 13.0744186 8.03023256 12 8.03023256 10.9255814 8.03023256 9.95023256 8.46697674 9.24418605 9.17302326 9.24418605 9.17302326 9.24418605 9.17302326 9.24418605 9.17302326 9.24418605 9.17302326 9.24418605 9.17302326 9.24418605 9.17302326 8.53813953 9.87906977 8.10139535 10.8544186 8.10139535 11.9288372 8.10139535 13.0032558 8.53813953 13.9786047 9.24418605 14.6846512 9.24418605 14.6846512 9.24418605 14.6846512 9.24418605 14.6846512 9.24418605 14.6846512 9.24418605 14.6846512 9.24418605 14.6846512 9.95023256 15.3906977 10.9255814 15.8274419 12 15.8274419 13.0744186 15.8274419 14.0497674 15.3906977 14.755814 14.6846512 14.755814 14.6846512 14.755814 14.6846512 14.755814 14.6846512 14.755814 14.6846512 14.755814 14.6846512 14.755814 14.6846512 15.4618605 13.9786047 15.8986047 13.0032558 15.8986047 11.9288372 15.8986047 10.8544186 15.4618605 9.88046512 14.755814 9.1744186zM13.56 12.715814L12.7855814 12.715814 12.7855814 13.4902326C12.7855814 13.9213953 12.4311628 14.2702326 12 14.2702326 11.5688372 14.2702326 11.22 13.9213953 11.22 13.4902326L11.22 12.715814 10.44 12.715814C10.0088372 12.715814 9.66 12.3613953 9.66 11.9302326 9.66 11.4990698 10.0088372 11.1502326 10.44 11.1502326L11.22 11.1502326 11.22 10.3702326C11.22 9.93906977 11.5688372 9.59023256 12 9.59023256 12.4311628 9.59023256 12.7855814 9.93906977 12.7855814 10.3702326L12.7855814 11.1502326 13.56 11.1502326C13.9911628 11.1502326 14.34 11.4990698 14.34 11.9302326 14.34 12.3613953 13.9897674 12.715814 13.56 12.715814zM12.7855814 0L12.7855814 6.53302326C13.707907 6.6655814 14.5493023 7.02837209 15.2637209 7.56418605L19.8809302 2.94697674C17.9581395 1.2572093 15.4967442.175813953 12.7855814 0zM17.3972093 12.715814C17.2646512 13.6381395 16.9018605 14.4795349 16.3660465 15.1939535L20.9832558 19.8111628C22.6730233 17.8883721 23.7544186 15.4269767 23.9302326 12.715814L17.3972093 12.715814 17.3972093 12.715814zM6.6027907 12.715814L.0697674419 12.715814C.245581395 15.4269767 1.32697674 17.8883721 3.01674419 19.8111628L7.63395349 15.1939535C7.09813953 14.4795349 6.73534884 13.6381395 6.6027907 12.715814zM3.01674419 4.04930233C1.32697674 5.97209302.245581395 8.43906977.0697674419 11.1502326L6.6027907 11.1502326C6.73534884 10.227907 7.09813953 9.38093023 7.63395349 8.66651163L3.01674419 4.04930233zM11.22 17.3274419C10.2976744 17.1948837 9.45069767 16.832093 8.73627907 16.2962791L4.11906977 20.9134884C6.04186047 22.6018605 8.50883721 23.6846512 11.22 23.8604651L11.22 17.3274419 11.22 17.3274419zM20.9832558 4.04930233L16.3660465 8.66651163C16.9004651 9.38093023 17.2632558 10.227907 17.3972093 11.1502326L23.9302326 11.1502326C23.7544186 8.43906977 22.6730233 5.97209302 20.9832558 4.04930233zM15.2637209 16.2962791C14.5493023 16.8306977 13.707907 17.1934884 12.7855814 17.3274419L12.7855814 23.8604651C15.4967442 23.6846512 17.9581395 22.6032558 19.8809302 20.9134884L15.2637209 16.2962791zM4.11906977 2.94697674L8.73627907 7.56418605C9.45069767 7.02976744 10.2976744 6.66697674 11.22 6.53302326L11.22 0C8.50883721.175813953 6.04186047 1.2572093 4.11906977 2.94697674zM8.88 5.30093023C8.44883721 5.30093023 8.1 4.95209302 8.1 4.52093023 8.1 4.08976744 8.44883721 3.74093023 8.88 3.74093023 9.31116279 3.74093023 9.66 4.08976744 9.66 4.52093023 9.66 4.95209302 9.31116279 5.30093023 8.88 5.30093023z"/>
</svg>
