<svg xmlns="http://www.w3.org/2000/svg" width="20" height="20" viewBox="0 0 20 20">
  <path d="M18.8708333.7125C19.8194444 1.66111111 19.8194444 3.2 18.8708333 4.15 17.9222222 5.09861111 16.3833333 5.09861111 15.4333333 4.15 14.4847222 3.20138889 14.4847222 1.6625 15.4333333.7125 16.3833333-.2375 17.9222222-.2375 18.8708333.7125M11.5791667.7125C12.5277778 1.66111111 12.5277778 3.2 11.5791667 4.15 10.6305556 5.09861111 9.09166667 5.09861111 8.14166667 4.15 7.19305556 3.20138889 7.19305556 1.6625 8.14166667.7125 9.09166667-.2375 10.6305556-.2375 11.5791667.7125M4.2875.7125C5.23611111 1.66111111 5.23611111 3.2 4.2875 4.15 3.33888889 5.1 1.8 5.09861111.85 4.15-.0986111111 3.20138889-.0986111111 1.6625.85.7125 1.8-.2375 3.33888889-.2375 4.2875.7125" transform="translate(0 8)"/>
</svg>
