<svg xmlns="http://www.w3.org/2000/svg" width="24" height="24" viewBox="0 0 24 24">
  <path d="M19,3.45441222 C19,1.54913607 17.4508639,0 15.5455878,0 L3.45441222,0 C1.54913607,0 0,1.54913607 0,3.45441222 L0,15.5455878 C0,17.4508639 1.54913607,19 3.45441222,19 L3.45441222,8.63676334 C3.45441222,5.77884912 5.77884912,3.45441222 8.63676334,3.45441222 L19,3.45441222 Z"/>
  <path d="M20.5455878,5 L8.45441222,5 C6.54913607,5 5,6.54913607 5,8.45441222 L5,20.5455878 C5,22.4508639 6.54913607,24 8.45441222,24 L20.5455878,24 C22.4508639,24 24,22.4508639 24,20.5455878 L24,8.45441222 C24,6.54913607 22.4508639,5 20.5455878,5 Z M11.0455878,9.31764887 C11.9996915,9.31764887 12.7735267,10.0914841 12.7735267,11.0455878 C12.7735267,11.9996915 11.9996915,12.7735267 11.0455878,12.7735267 C10.0914841,12.7735267 9.31764887,11.9996915 9.31764887,11.0455878 C9.31764887,10.0914841 10.0914841,9.31764887 11.0455878,9.31764887 Z M11.0455878,19.6823511 C10.0914841,19.6823511 9.31764887,18.9085159 9.31764887,17.9544122 C9.31764887,17.0003085 10.0914841,16.2264733 11.0455878,16.2264733 C11.9996915,16.2264733 12.7735267,17.0003085 12.7735267,17.9544122 C12.7720611,18.9085159 11.9996915,19.6823511 11.0455878,19.6823511 Z M14.5,16.2264733 C13.5458963,16.2264733 12.7720611,15.4526381 12.7720611,14.4985344 C12.7720611,13.5444307 13.5458963,12.7705955 14.5,12.7705955 C15.4541037,12.7705955 16.2279389,13.5444307 16.2279389,14.4985344 C16.2264733,15.4541037 15.4541037,16.2264733 14.5,16.2264733 Z M17.9544122,19.6823511 C17.0003085,19.6823511 16.2264733,18.9085159 16.2264733,17.9544122 C16.2264733,17.0003085 17.0003085,16.2264733 17.9544122,16.2264733 C18.9085159,16.2264733 19.6823511,17.0003085 19.6823511,17.9544122 C19.6823511,18.9085159 18.9085159,19.6823511 17.9544122,19.6823511 Z M17.9544122,12.7720611 C17.0003085,12.7720611 16.2264733,11.9982259 16.2264733,11.0441222 C16.2264733,10.0900185 17.0003085,9.31618328 17.9544122,9.31618328 C18.9085159,9.31618328 19.6823511,10.0900185 19.6823511,11.0441222 C19.6823511,11.9996915 18.9085159,12.7720611 17.9544122,12.7720611 Z"/>
</svg>
