<svg width="18px" height="18px" viewBox="0 0 18 18" version="1.1" xmlns="http://www.w3.org/2000/svg" xmlns:xlink="http://www.w3.org/1999/xlink">
  <g id="Symbols" stroke="none" stroke-width="1" fill="none" fill-rule="evenodd" opacity="0.303641183">
    <g id="BLCK/Cards/Upcoming-SPORT-" transform="translate(-293.000000, -44.000000)" fill="#9A9A9A">
      <g id="BLCK/Cards/LiveCard--NEW-INPLAY-HOVER-Copy">
        <g id="Teams-Scores" transform="translate(80.000000, 0.000000)">
          <g id="ICN/M/Stats-SPORT" transform="translate(213.000000, 44.000000)">
            <path d="M18,17.25 C18,16.8375 17.6625,16.5 17.25,16.5 L0.75,16.5 C0.3375,16.5 1.77635684e-14,16.8375 1.77635684e-14,17.25 C1.77635684e-14,17.6625 0.3375,18 0.75,18 L17.25,18 C17.6625,18 18,17.6625 18,17.25 M18,0.75 C18,0.3375 17.6625,8.48210391e-14 17.25,8.48210391e-14 L0.75,8.48210391e-14 C0.3375,8.48210391e-14 1.77635684e-14,0.3375 1.77635684e-14,0.75 C1.77635684e-14,1.1625 0.3375,1.5 0.75,1.5 L17.25,1.5 C17.6625,1.5 18,1.1625 18,0.75 M1.24873771,13.3111651 L7.46923771,7.78066508 L11.2162377,11.5269151 L17.7442377,5.81416508 C18.0554877,5.54191508 18.0869877,5.06791508 17.8139877,4.75591508 C17.5409877,4.44466508 17.0677377,4.41241508 16.7557377,4.68616508 L11.2837377,9.47341508 L7.53073771,5.71966508 L0.251237712,12.1891651 C-0.0577622877,12.4651651 -0.0855122877,12.9384151 0.188987712,13.2489151 C0.337487712,13.4154151 0.543737712,13.5001651 0.749987712,13.5001651 C0.927737712,13.5001651 1.10548771,13.4379151 1.24873771,13.3111651 M15.75,11.25 C15.75,10.8375 15.4125,10.5 15,10.5 C14.5875,10.5 14.25,10.8375 14.25,11.25 C14.25,11.6625 14.5875,12 15,12 C15.4125,12 15.75,11.6625 15.75,11.25 M12,14.25 C12,13.8375 11.6625,13.5 11.25,13.5 C10.8375,13.5 10.5,13.8375 10.5,14.25 C10.5,14.6625 10.8375,15 11.25,15 C11.6625,15 12,14.6625 12,14.25 M8.25,14.25 C8.25,13.8375 7.9125,13.5 7.5,13.5 C7.0875,13.5 6.75,13.8375 6.75,14.25 C6.75,14.6625 7.0875,15 7.5,15 C7.9125,15 8.25,14.6625 8.25,14.25 M15.75,14.25 C15.75,13.8375 15.4125,13.5 15,13.5 C14.5875,13.5 14.25,13.8375 14.25,14.25 C14.25,14.6625 14.5875,15 15,15 C15.4125,15 15.75,14.6625 15.75,14.25 M8.25,11.25 C8.25,10.8375 7.9125,10.5 7.5,10.5 C7.0875,10.5 6.75,10.8375 6.75,11.25 C6.75,11.6625 7.0875,12 7.5,12 C7.9125,12 8.25,11.6625 8.25,11.25 M3.75,15 C3.3375,15 3,14.6625 3,14.25 C3,13.8375 3.3375,13.5 3.75,13.5 C4.1625,13.5 4.5,13.8375 4.5,14.25 C4.5,14.6625 4.1625,15 3.75,15" id="Fill-1"></path>
          </g>
        </g>
      </g>
    </g>
  </g>
</svg>
