<svg width="18px" height="16px" viewBox="0 0 18 16" version="1.1" xmlns="http://www.w3.org/2000/svg" xmlns:xlink="http://www.w3.org/1999/xlink">
  <g id="Symbols" stroke="none" stroke-width="1" fill="none" fill-rule="evenodd" opacity="0.303641183">
    <g id="BLCK/Cards/Upcoming-SPORT-" transform="translate(-293.000000, -15.000000)" fill="#9A9A9A">
      <g id="BLCK/Cards/LiveCard--NEW-INPLAY-HOVER-Copy">
        <g id="Teams-Scores" transform="translate(80.000000, 0.000000)">
          <g id="ICN/M/Live-Upcoming" transform="translate(213.000000, 14.000000)">
            <g transform="translate(0.000000, 1.125000)" id="Shape">
              <path d="M8.81208984,3.18746372 C8.38265625,2.93831138 7.86948047,2.93746763 7.43920312,3.18521372 C7.007625,3.43373325 6.75,3.87986606 6.75,4.37862778 L6.75,7.88152622 C6.75,8.38025278 7.007625,8.82642075 7.43916797,9.07490513 C7.65365625,9.19840903 7.88864063,9.26014341 8.12369531,9.26014341 C8.36015625,9.26014341 8.5966875,9.19763559 8.81205469,9.07265513 L11.8303242,7.32120591 C12.2594414,7.07222934 12.515625,6.62697544 12.515625,6.130077 C12.515625,5.63317856 12.2594414,5.1878895 11.8303594,4.93894809 L8.81208984,3.18746372 Z M8.15625,7.82735044 L8.15625,4.43276841 L11.0811797,6.130077 L8.15625,7.82735044 Z" fill-rule="nonzero"></path>
              <path d="M17.296875,7.03125 C17.6852109,7.03125 18,6.71646094 18,6.328125 L18,2.8125 C18,1.2616875 16.7383125,0 15.1875,0 L2.8125,0 C1.2616875,0 0,1.2616875 0,2.8125 L0,9.84375 C0,11.3945625 1.2616875,12.65625 2.8125,12.65625 L8.296875,12.65625 L8.296875,14.0582109 L5.8359375,14.0582109 C5.44760156,14.0582109 5.1328125,14.373 5.1328125,14.7613359 C5.1328125,15.1496719 5.44760156,15.4644609 5.8359375,15.4644609 L12.1640625,15.4644609 C12.5523984,15.4644609 12.8671875,15.1496719 12.8671875,14.7613359 C12.8671875,14.373 12.5523984,14.0582109 12.1640625,14.0582109 L9.703125,14.0582109 L9.703125,12.65625 L15.1875,12.65625 C16.7383125,12.65625 18,11.3945625 18,9.84375 C18,9.45541406 17.6852109,9.140625 17.296875,9.140625 C16.9085391,9.140625 16.59375,9.45541406 16.59375,9.84375 C16.59375,10.6191563 15.9629062,11.25 15.1875,11.25 L2.8125,11.25 C2.03709375,11.25 1.40625,10.6191563 1.40625,9.84375 L1.40625,2.8125 C1.40625,2.03709375 2.03709375,1.40625 2.8125,1.40625 L15.1875,1.40625 C15.9629062,1.40625 16.59375,2.03709375 16.59375,2.8125 L16.59375,6.328125 C16.59375,6.71646094 16.9085391,7.03125 17.296875,7.03125 Z" fill-rule="nonzero"></path>
            </g>
          </g>
        </g>
      </g>
    </g>
  </g>
</svg>
