<svg xmlns="http://www.w3.org/2000/svg" width="176" height="38" viewBox="0 0 176 38">
  <g fill="#EF612A">
    <path d="M48.4,0 L50.39,0 C53.25,0.11 56.16,0.54 58.74,1.82 C60.52,2.7 62.11,4.1 62.94,5.93 C63.69,7.52 63.67,9.36 63.22,11.03 C62.64,13.14 61.5,15.05 60.18,16.78 C57.04,20.84 52.96,24.06 48.68,26.84 C48.46,26.69 48.21,26.53 48.13,26.26 C47.99,25.8 48.06,25.31 48.14,24.84 C48.53,22.77 48.91,20.71 49.3,18.64 C50.28,18.63 51.26,18.65 52.24,18.63 C52.45,17.76 52.55,16.87 52.73,15.99 C51.85,15.95 50.96,15.94 50.08,15.98 C49.96,15.97 49.83,15.95 49.72,15.93 C49.98,14.65 50.17,13.36 50.39,12.07 C49.31,12.09 48.23,12.03 47.15,12.1 C46.96,13.39 46.72,14.67 46.5,15.95 C45.72,15.95 44.95,15.95 44.18,15.99 C44.02,16.87 43.86,17.75 43.72,18.64 C44.51,18.64 45.29,18.63 46.08,18.64 C45.68,20.81 45.28,22.97 44.88,25.14 C44.75,26 44.64,26.92 44.97,27.76 C45.09,28.12 45.32,28.42 45.56,28.72 C40.64,31.52 35.4,33.76 29.98,35.42 C25.66,36.72 21.21,37.65 16.71,37.93 C13.78,38.09 10.81,38 7.95,37.3 C5.96,36.8 3.98,35.97 2.52,34.49 C1.75,33.7 1.17,32.73 0.87,31.67 L0.79,31.71 C0.73,31.07 0.65,30.42 0.52,29.79 L0.52,28.64 C0.66,26.84 1.26,25.09 2.11,23.51 C3.16,21.55 4.55,19.8 6.09,18.19 C8.47,15.73 11.19,13.63 14.06,11.78 C13.12,17.18 12.16,22.57 11.22,27.97 C11.14,28.44 11.03,28.91 11,29.39 C12.02,29.39 13.03,29.39 14.05,29.39 C14.21,28.61 14.31,27.82 14.47,27.04 C14.93,27.79 15.52,28.49 16.31,28.92 C17.77,29.77 19.56,29.89 21.17,29.47 C22.71,29.04 24.09,28.06 25.02,26.76 C26.3,25.01 26.84,22.77 26.65,20.62 C26.51,19.1 25.78,17.61 24.54,16.69 C23.12,15.64 21.22,15.39 19.53,15.79 C18.15,16.12 16.98,17.04 16.14,18.16 C16.64,15.28 17.2,12.41 17.74,9.54 C23.11,6.59 28.8,4.2 34.67,2.42 C39.13,1.11 43.74,0.16 48.4,0 M33.07,16.35 C31.52,17.07 30.25,18.35 29.49,19.88 C28.74,21.36 28.45,23.08 28.63,24.73 C28.79,26.29 29.63,27.79 30.94,28.66 C32.58,29.77 34.69,29.98 36.59,29.6 C38.26,29.27 39.75,28.34 40.9,27.1 C40.31,26.54 39.72,25.99 39.13,25.43 C38.99,25.29 38.88,25.54 38.78,25.61 C37.95,26.46 36.83,27.05 35.62,27.09 C34.46,27.2 33.23,26.84 32.43,25.97 C31.86,25.37 31.62,24.52 31.7,23.71 C35.02,23.71 38.33,23.7 41.65,23.71 C42.05,21.97 42.25,20.04 41.46,18.37 C40.86,17.07 39.59,16.16 38.21,15.83 C36.51,15.43 34.66,15.6 33.07,16.35 L33.07,16.35 Z M155.41,12.07 C156.49,12.07 157.58,12.07 158.66,12.07 C158.45,13.37 158.22,14.66 157.99,15.95 C158.99,15.97 160,15.95 161,15.96 C160.87,16.87 160.69,17.77 160.53,18.67 C159.54,18.67 158.55,18.66 157.57,18.68 C157.17,20.88 156.74,23.08 156.34,25.28 C156.27,25.78 156.28,26.42 156.75,26.72 C157.48,27.15 158.38,27 159.16,26.83 C159.1,27.66 159.02,28.49 158.97,29.32 C157.94,29.73 156.79,29.75 155.7,29.61 C154.87,29.5 154,29.15 153.53,28.42 C152.87,27.52 152.96,26.34 153.1,25.29 C153.49,23.08 153.92,20.89 154.31,18.68 C153.52,18.68 152.73,18.68 151.94,18.68 C152.1,17.78 152.25,16.87 152.43,15.97 C153.2,15.98 153.97,15.97 154.73,15.97 C154.97,14.66 155.17,13.36 155.41,12.07 L155.41,12.07 Z M66.41,16.52 C67.97,15.6 69.89,15.42 71.64,15.8 C72.89,16.08 73.96,16.94 74.56,18.06 C74.7,17.37 74.79,16.66 74.92,15.97 C75.96,15.96 77,15.97 78.05,15.96 C77.78,17.81 77.42,19.64 77.11,21.49 C76.69,23.9 76.28,26.31 75.85,28.72 C75.47,30.54 74.88,32.39 73.62,33.8 C72.46,35.13 70.73,35.85 68.99,36.03 C66.84,36.3 64.61,35.92 62.7,34.9 C62.13,34.59 61.59,34.23 61.14,33.76 C61.06,33.64 61.23,33.54 61.29,33.45 C61.95,32.74 62.6,32.02 63.26,31.31 C64.32,32.55 65.95,33.24 67.58,33.23 C68.54,33.24 69.52,33.07 70.34,32.56 C71.1,32.1 71.68,31.37 72.01,30.55 C72.41,29.58 72.64,28.56 72.83,27.53 C72.02,28.51 70.9,29.23 69.65,29.49 C68.09,29.81 66.39,29.65 65.02,28.81 C63.8,28.07 62.96,26.78 62.67,25.4 C62.41,24.16 62.49,22.88 62.77,21.66 C63.25,19.56 64.51,17.59 66.41,16.52 M69.5,18.34 C68.44,18.58 67.49,19.23 66.87,20.12 C66.14,21.17 65.83,22.48 65.89,23.75 C65.94,24.76 66.39,25.77 67.21,26.38 C67.85,26.83 68.66,26.98 69.42,26.93 C70.72,26.86 71.95,26.14 72.72,25.1 C73.61,23.92 74.03,22.37 73.78,20.91 C73.62,19.98 73.05,19.13 72.23,18.66 C71.41,18.21 70.41,18.16 69.5,18.34 L69.5,18.34 Z M81.25,17.36 C82.95,16.15 85.06,15.56 87.14,15.62 C88.35,15.67 89.61,15.9 90.61,16.62 C91.39,17.17 91.93,18.05 92.04,19 C92.1,19.59 92.08,20.18 92,20.77 C91.74,22.13 91.52,23.5 91.26,24.86 C90.99,26.37 90.7,27.88 90.64,29.41 C89.63,29.4 88.63,29.41 87.62,29.41 C87.6,28.86 87.71,28.33 87.76,27.79 C86.91,28.87 85.59,29.51 84.23,29.64 C83.05,29.75 81.8,29.66 80.75,29.07 C79.92,28.61 79.32,27.75 79.2,26.81 C79.04,25.6 79.27,24.27 80.13,23.35 C81.27,22.08 82.96,21.51 84.6,21.21 C85.99,20.99 87.4,20.9 88.8,20.89 C88.92,20.23 88.98,19.46 88.54,18.89 C88.11,18.41 87.42,18.28 86.81,18.23 C85.27,18.12 83.78,18.72 82.51,19.56 C82.09,18.82 81.68,18.08 81.25,17.36 M84.44,23.59 C83.88,23.74 83.33,23.98 82.87,24.35 C82.32,24.8 82.2,25.63 82.47,26.27 C82.65,26.69 83.05,26.98 83.48,27.11 C84.86,27.51 86.47,27.07 87.41,25.97 C88.09,25.22 88.34,24.22 88.5,23.25 C87.14,23.26 85.76,23.25 84.44,23.59 L84.44,23.59 Z M101.27,16.08 C102.26,15.55 103.45,15.53 104.54,15.72 C105.83,15.94 107.01,16.89 107.37,18.17 C107.62,17.96 107.78,17.67 108.02,17.44 C108.86,16.54 109.96,15.84 111.2,15.68 C112.69,15.46 114.36,15.71 115.48,16.78 C116.57,17.8 116.78,19.42 116.56,20.82 C116.06,23.68 115.56,26.55 115.03,29.41 C113.94,29.4 112.85,29.42 111.76,29.4 C112.09,27.41 112.45,25.43 112.79,23.45 C112.93,22.58 113.13,21.72 113.19,20.84 C113.21,20.14 113.06,19.37 112.51,18.89 C111.92,18.39 111.09,18.32 110.36,18.45 C109.38,18.65 108.57,19.35 108.06,20.18 C107.66,20.84 107.42,21.59 107.31,22.35 C106.9,24.7 106.49,27.05 106.07,29.41 C104.98,29.41 103.88,29.41 102.79,29.41 C103.22,26.59 103.77,23.79 104.24,20.97 C104.34,20.27 104.22,19.49 103.72,18.95 C103.3,18.48 102.62,18.37 102.02,18.41 C101.17,18.44 100.39,18.91 99.83,19.53 C99.26,20.17 98.89,20.98 98.71,21.82 C98.23,24.35 97.83,26.9 97.33,29.43 C96.24,29.41 95.15,29.43 94.07,29.42 C94.56,26.57 95.06,23.72 95.56,20.87 C95.81,19.32 96.16,17.78 96.31,16.22 C96.33,16.16 96.36,16.05 96.38,15.99 C97.39,15.98 98.4,15.99 99.41,15.98 C99.37,16.68 99.24,17.38 99.17,18.07 C99.78,17.3 100.42,16.55 101.27,16.08 L101.27,16.08 Z M121.28,17.75 C123.25,15.79 126.32,15.12 128.95,15.96 C130.26,16.38 131.38,17.38 131.88,18.67 C132.51,20.28 132.29,22.07 131.94,23.72 C128.62,23.72 125.3,23.71 121.98,23.72 C121.88,24.6 122.22,25.52 122.88,26.12 C123.69,26.87 124.83,27.17 125.91,27.07 C127.22,27.03 128.42,26.31 129.27,25.35 C129.96,25.87 130.55,26.51 131.18,27.1 C130.39,27.96 129.44,28.67 128.37,29.14 C126.98,29.75 125.43,29.9 123.94,29.71 C122.39,29.5 120.86,28.75 119.92,27.47 C119.15,26.44 118.8,25.14 118.82,23.86 C118.79,21.61 119.66,19.32 121.28,17.75 M125.31,18.21 C123.85,18.63 122.68,19.88 122.31,21.35 C124.62,21.35 126.94,21.35 129.25,21.35 C129.32,20.82 129.34,20.26 129.14,19.76 C128.87,18.99 128.19,18.4 127.4,18.21 C126.72,18.03 125.99,18.04 125.31,18.21 L125.31,18.21 Z M136.75,16.65 C138.07,15.79 139.69,15.53 141.24,15.62 C142.9,15.72 144.63,16.45 145.51,17.93 C144.66,18.44 143.81,18.95 142.96,19.44 C142.5,18.81 141.85,18.26 141.05,18.18 C140.22,18.09 139.31,18.12 138.6,18.62 C138.06,18.98 137.87,19.77 138.21,20.33 C138.48,20.7 138.95,20.85 139.37,21.02 C140.29,21.34 141.25,21.56 142.11,22.04 C142.71,22.38 143.32,22.79 143.67,23.4 C144.16,24.22 144.22,25.22 144.07,26.15 C143.85,27.4 142.97,28.46 141.88,29.06 C141.02,29.55 140.04,29.78 139.06,29.87 C137.82,29.94 136.53,29.87 135.37,29.41 C134.31,28.96 133.39,28.19 132.78,27.21 C133.63,26.65 134.49,26.09 135.33,25.52 C135.85,26.5 136.92,27.1 138.02,27.18 C138.85,27.24 139.77,27.16 140.44,26.61 C141.08,26.1 141.12,24.96 140.42,24.49 C139.47,23.89 138.34,23.69 137.32,23.25 C136.61,22.96 135.89,22.57 135.42,21.94 C134.88,21.24 134.76,20.3 134.88,19.44 C135.01,18.28 135.78,17.28 136.75,16.65 L136.75,16.65 Z M161.34,15.96 C162.49,15.96 163.63,15.96 164.78,15.96 C165.31,19.25 165.81,22.55 166.36,25.83 C168.24,22.54 170.1,19.24 171.98,15.95 C173.14,15.98 174.3,15.94 175.46,15.99 L175.46,16.03 C175.04,16.55 174.76,17.17 174.4,17.73 C172.09,21.62 169.78,25.51 167.47,29.4 C166.3,29.41 165.13,29.39 163.96,29.41 C163.59,27.71 163.29,26 162.94,24.29 C162.42,21.51 161.84,18.74 161.34,15.96 L161.34,15.96 Z"/>
    <path d="M34.27,18.51 C35.11,18.05 36.12,17.98 37.05,18.17 C37.91,18.35 38.65,19 38.93,19.83 C39.1,20.32 39.06,20.85 39.02,21.36 C36.69,21.38 34.36,21.38 32.03,21.37 C32.33,20.16 33.16,19.08 34.27,18.51 L34.27,18.51 Z M19.33,18.35 C20.26,18.21 21.28,18.3 22.05,18.87 C22.86,19.48 23.3,20.49 23.35,21.49 C23.41,22.86 23.07,24.28 22.22,25.37 C21.39,26.45 20.04,27.11 18.68,27.05 C17.71,27.06 16.72,26.67 16.11,25.89 C15.59,25.27 15.35,24.45 15.35,23.64 C15.32,22.19 15.86,20.72 16.86,19.67 C17.52,18.99 18.39,18.51 19.33,18.35 Z M147.51,25.39 C148.23,25.25 149.03,25.49 149.49,26.07 C150.16,26.93 150.01,28.3 149.17,29 C148.32,29.79 146.8,29.63 146.11,28.7 C145.78,28.24 145.74,27.64 145.81,27.09 C145.94,26.24 146.68,25.55 147.51,25.39 L147.51,25.39 Z"/>
  </g>
</svg>
