<?xml version="1.0" encoding="utf-8"?>
<!-- Generator: Adobe Illustrator 23.1.0, SVG Export Plug-In . SVG Version: 6.00 Build 0)  -->
<svg version="1.1" id="Layer_1" xmlns="http://www.w3.org/2000/svg" xmlns:xlink="http://www.w3.org/1999/xlink" x="0px" y="0px"
	 viewBox="0 0 250 100" style="enable-background:new 0 0 250 100;" xml:space="preserve">
<style type="text/css">
	.st0{display:none;}
	.st1{display:inline;fill:#2F2F2F;}
	.st2{display:inline;enable-background:new    ;}
	.st3{fill:#FFFFFF;stroke:#EFEFEF;stroke-width:0.05;stroke-miterlimit:10;}
	.st4{fill:#FFFFFF;}
	.st5{fill:#FCC42C;}
	.st6{fill:#C23844;}
	.st7{fill:#FEFEFE;}
	.st8{fill:#FA4133;}
	.st9{fill:#F85F1D;}
	.st10{fill:#FC323A;}
	.st11{fill:#F99209;}
	.st12{fill:#FCFDFE;}
	.st13{fill:#F94D2D;}
	.st14{fill:#FA512A;}
	.st15{fill:#FB5C25;}
	.st16{fill:#F25710;}
	.st17{fill:#F9BB41;}
	.st18{fill:#FA6C1D;}
	.st19{fill:#F9BD51;}
	.st20{fill:#F97B16;}
	.st21{fill:#FB2841;}
	.st22{fill:#F9880F;}
	.st23{fill:#EE4A0B;}
	.st24{fill:#FAA052;}
	.st25{fill:#F57F41;}
	.st26{fill:#F99044;}
	.st27{fill:#F6B15B;}
	.st28{fill:#F99D06;}
	.st29{fill:#FBBE70;}
	.st30{fill:#FABE5F;}
	.st31{fill:#FBB067;}
	.st32{fill:#41AADF;}
	.st33{fill:#FBFBFB;}
	.st34{fill-rule:evenodd;clip-rule:evenodd;fill:url(#SVGID_1_);}
	.st35{fill:#A5CD39;}
	.st36{fill:#40AA8B;}
	.st37{fill-rule:evenodd;clip-rule:evenodd;fill:#A5CD39;}
	.st38{clip-path:url(#SVGID_3_);fill-rule:evenodd;clip-rule:evenodd;fill:#A5CD39;}
	.st39{opacity:0.36;clip-path:url(#SVGID_5_);fill-rule:evenodd;clip-rule:evenodd;fill:url(#SVGID_6_);enable-background:new    ;}
	.st40{opacity:0.71;clip-path:url(#SVGID_8_);fill-rule:evenodd;clip-rule:evenodd;fill:url(#SVGID_9_);enable-background:new    ;}
	
		.st41{opacity:0.79;clip-path:url(#SVGID_11_);fill-rule:evenodd;clip-rule:evenodd;fill:url(#SVGID_12_);enable-background:new    ;}
	
		.st42{opacity:0.47;clip-path:url(#SVGID_14_);fill-rule:evenodd;clip-rule:evenodd;fill:url(#SVGID_15_);enable-background:new    ;}
	
		.st43{opacity:0.61;clip-path:url(#SVGID_17_);fill-rule:evenodd;clip-rule:evenodd;fill:url(#SVGID_18_);enable-background:new    ;}
	
		.st44{opacity:0.66;clip-path:url(#SVGID_20_);fill-rule:evenodd;clip-rule:evenodd;fill:url(#SVGID_21_);enable-background:new    ;}
	
		.st45{opacity:0.39;clip-path:url(#SVGID_23_);fill-rule:evenodd;clip-rule:evenodd;fill:url(#SVGID_24_);enable-background:new    ;}
	.st46{fill:#73B73E;}
	.st47{fill:#F26922;}
	.st48{fill-rule:evenodd;clip-rule:evenodd;fill:#FFFFFF;}
	.st49{fill:#F19021;}
	.st50{fill:#E9148D;}
	.st51{fill:#2BAEE4;}
	.st52{fill:#13B6A7;}
	.st53{fill:#FEE700;}
	.st54{fill:#EC242A;}
	.st55{fill:#FCB34B;}
	.st56{fill-rule:evenodd;clip-rule:evenodd;fill:#F6F6F6;}
	.st57{fill-rule:evenodd;clip-rule:evenodd;fill:#D71920;}
	.st58{fill:#63A844;}
	.st59{fill:#DF2D38;}
	.st60{fill:#7C8080;}
	.st61{fill:#A3A3A3;}
	.st62{fill:url(#SVGID_25_);}
	.st63{fill:url(#SVGID_26_);}
	.st64{fill:url(#SVGID_27_);}
	.st65{fill:#EF612A;}
	.st66{fill:url(#SVGID_28_);}
	.st67{fill:url(#SVGID_29_);}
	.st68{opacity:0.5;fill:#FFFFFF;}
	.st69{fill:#363833;}
	.st70{fill:#5998A9;}
	.st71{fill:#80B3CB;}
	.st72{fill:url(#SVGID_30_);}
	.st73{fill:url(#SVGID_31_);}
	.st74{fill:url(#SVGID_32_);}
	.st75{fill:url(#SVGID_33_);}
	.st76{fill:url(#SVGID_34_);}
	.st77{fill:url(#SVGID_35_);}
	.st78{fill:url(#SVGID_36_);}
	.st79{fill:#FFC20E;}
</style>
<g class="st0">
	<rect x="0.09" class="st1" width="250" height="100"/>
</g>
<g id="layer1" transform="translate(-2.5374 -35.03)">
	<g id="g100" transform="matrix(.2434 0 0 .22479 -27.0578 -3.9891)">
		<g id="Layer_1_1_">
			<g id="g17">
				<path id="path13" class="st4" d="M434.87,391.71c3.56-5.44,5.38-11.52,5.43-18.25l-0.08-47.4c0.05-1.05,0.05-2.03-0.03-2.94
					c-0.76-8.72-4.35-16.06-10.78-22.01c-6.43-5.94-14.06-8.92-22.89-8.92l-31.44-0.02l0.04,99.53H434.87z M413.96,317.71
					c2.11,1.96,3.29,4.44,3.55,7.45c0.02,0.3,0.05,0.6,0.08,0.91l0.08,47.4c-0.03,3.16-1.14,5.83-3.33,8.01
					c-2.19,2.18-4.86,3.27-7.99,3.26l-8.94-0.01l-0.02-69.96l8.94,0.01C409.31,314.77,411.85,315.75,413.96,317.71L413.96,317.71z"
					/>
				<path id="path15" class="st4" d="M442.39,415.67c-0.49-5.67-2.22-10.79-5.17-15.37h-62.09l0.04,99.52l33.68,0.02
					c9.28,0.01,17.19-3.3,23.72-9.92c6.54-6.61,9.85-14.59,9.93-23.92l-0.08-47.4C442.48,417.55,442.47,416.58,442.39,415.67
					L442.39,415.67z M419.85,465.99c-0.02,3.16-1.13,5.83-3.33,8.01s-4.79,3.27-7.76,3.27l-11.17-0.01l0.03-69.96l11.27,0.01
					c2.86,0,5.34,0.98,7.46,2.94c2.12,1.96,3.31,4.44,3.58,7.45c0.02,0.3,0.05,0.6,0.08,0.91L419.85,465.99z"/>
			</g>
			<g id="g23">
				<path id="polygon19" class="st4" d="M532.93,314.82l22.42-0.02l-0.03,76.69h22.42l0.03-76.71l20.18-0.03l0.09-22.57l-65.01,0.08
					L532.93,314.82z"/>
				<path id="polygon21" class="st4" d="M577.68,499.81l0.05-99.74h-22.42l-0.05,99.76L577.68,499.81z"/>
			</g>
			<g id="g29">
				<path id="polygon25" class="st4" d="M458.74,292.18l-0.03,99.31H517l0.03-6.78L481,384.72l0.03-69.95l35.79,0.04l0.07-22.57
					L458.74,292.18z"/>
				<path id="polygon27" class="st4" d="M517.03,477.33l-35.91-0.09l0.02-69.95l35.79,0.03l0.03-7.24H458.7l-0.03,99.7l58.16,0.05
					L517.03,477.33z"/>
			</g>
			<g id="g61">
				<g id="g59">
					<g id="g35">
						<path id="polygon31" class="st5" d="M842.25,314.77l22.49-0.01l-0.01,76.72h22.48l0.02-76.72l20.23-0.01l0.09-22.57
							l-65.21,0.02L842.25,314.77z"/>
						<path id="polygon33" class="st5" d="M887.19,499.83l0.02-99.75h-22.49l-0.02,99.76L887.19,499.83z"/>
					</g>
					<g id="g41">
						<path id="polygon37" class="st5" d="M774.88,292.21l-0.04,99.27h58.82l-0.04-6.78l-36.22,0.02l0.04-69.95l36.21-0.02
							l0.08-22.57L774.88,292.21z"/>
						<path id="polygon39" class="st5" d="M774.84,400.08l-0.04,99.76l22.64-0.02l0.11-92.53l36.22-0.02l-0.05-7.19L774.84,400.08z"
							/>
					</g>
					<g id="g47">
						<path id="path43" class="st5" d="M714.88,391.48l0.08-65.43c0.03-3.16,1.15-5.83,3.37-8.02c2.21-2.18,4.81-3.28,7.81-3.28
							c2.99,0,5.55,0.98,7.67,2.93c2.12,1.95,3.3,4.44,3.56,7.45c0.02,0.3,0.05,0.6,0.08,0.91l-0.04,65.46h22.33l0.04-65.47
							c0.05-1.05,0.05-2.03-0.03-2.94c-0.75-8.72-4.32-16.05-10.71-22c-6.4-5.94-13.98-8.9-22.76-8.9
							c-9.24,0.01-17.1,3.33-23.6,9.95c-6.5,6.63-9.81,14.6-9.9,23.93l-0.04,65.42H714.88z"/>
						<path id="path45" class="st5" d="M737.39,400.08l-0.04,65.89c-0.03,3.16-1.16,5.83-3.37,8.01c-2.22,2.19-4.83,3.28-7.84,3.28
							s-5.58-0.98-7.69-2.93c-2.12-1.95-3.31-4.44-3.57-7.45c-0.02-0.3-0.05-0.6-0.08-0.91l0.08-65.91h-22.14L692.7,466
							c-0.06,1.05-0.05,2.03,0.02,2.94c0.75,8.73,4.31,16.06,10.71,22c6.39,5.94,13.98,8.9,22.76,8.9c9.23-0.01,17.1-3.32,23.6-9.95
							c6.5-6.62,9.81-14.6,9.9-23.93l0.04-65.88L737.39,400.08z"/>
					</g>
					<g id="g53">
						<path id="path49" class="st5" d="M622.86,391.48h36.7c-4.04-3.38-8.1-6.76-12.2-10.14c-7.25-6.62-11.31-15.05-12.16-25.28
							c-0.14-1.66-0.21-3.39-0.21-5.19l0.17-24.83c0.03-3.16,1.16-5.83,3.36-8.01c2.2-2.18,4.79-3.27,7.77-3.27
							c2.97,0,5.52,0.98,7.62,2.93c2.09,1.96,3.27,4.44,3.52,7.45c0.02,0.3,0.05,0.6,0.08,0.91l-0.03,15.8l22.35-0.01l0.03-15.8
							c0.06-1.05,0.05-2.03-0.02-2.94c-0.73-8.72-4.28-16.06-10.65-22c-6.38-5.94-13.96-8.91-22.75-8.91
							c-9.24,0-17.12,3.32-23.64,9.94c-6.53,6.63-9.85,14.6-9.97,23.93l-0.06,31.6c-0.09,2.56-0.03,5.04,0.17,7.45
							C613.82,375.61,617.12,384.41,622.86,391.48L622.86,391.48z"/>
						<path id="path51" class="st5" d="M669.04,400.08h-36.81c4.24,3.54,8.51,7.07,12.81,10.6c7.29,6.62,11,15.05,11.85,25.28
							c0.14,1.66,0.09,5.3,0.12,5.19l0.05,24.83c-0.04,3.16-1.17,5.83-3.4,8.01c-2.23,2.19-4.84,3.27-7.86,3.28
							c-3.01,0-5.58-0.98-7.69-2.93c-2.12-1.95-3.3-4.44-3.55-7.45c-0.02-0.3-0.05-0.6-0.08-0.91l0.26-15.8l-22.35,0.01l-0.03,15.8
							c-0.06,1.05-0.05,2.03,0.02,2.94c0.73,8.73,4.27,16.06,10.65,22c6.38,5.94,13.95,8.91,22.75,8.91
							c9.24,0,17.12-3.31,23.64-9.94c6.53-6.62,9.85-14.6,9.97-23.93l0.06-31.6c0.09-2.55,0.02-5.04-0.17-7.45
							C678.41,416.17,674.99,407.22,669.04,400.08L669.04,400.08z"/>
					</g>
					<path id="polygon55" class="st5" d="M314.69,434.38v-78.05l39.39,39.39L314.69,434.38z"/>
					<path id="polygon57" class="st5" d="M955.61,434.86V356.8l-39.39,39.03L955.61,434.86z"/>
				</g>
			</g>
		</g>
	</g>
</g>
</svg>
