<?xml version="1.0" encoding="utf-8"?>
<!-- Generator: Adobe Illustrator 23.1.0, SVG Export Plug-In . SVG Version: 6.00 Build 0)  -->
<svg version="1.1" id="Layer_1" xmlns="http://www.w3.org/2000/svg" xmlns:xlink="http://www.w3.org/1999/xlink" x="0px" y="0px"
	 viewBox="0 0 250 100" style="enable-background:new 0 0 250 100;" xml:space="preserve">
<style type="text/css">
	.st0{display:none;}
	.st1{display:inline;fill:#2F2F2F;}
	.st2{display:inline;enable-background:new    ;}
	.st3{fill:#FFFFFF;stroke:#EFEFEF;stroke-width:0.05;stroke-miterlimit:10;}
	.st4{fill:#FFFFFF;}
	.st5{fill:#FCC42C;}
	.st6{fill:#C23844;}
	.st7{fill:#FEFEFE;}
	.st8{fill:#FA4133;}
	.st9{fill:#F85F1D;}
	.st10{fill:#FC323A;}
	.st11{fill:#F99209;}
	.st12{fill:#FCFDFE;}
	.st13{fill:#F94D2D;}
	.st14{fill:#FA512A;}
	.st15{fill:#FB5C25;}
	.st16{fill:#F25710;}
	.st17{fill:#F9BB41;}
	.st18{fill:#FA6C1D;}
	.st19{fill:#F9BD51;}
	.st20{fill:#F97B16;}
	.st21{fill:#FB2841;}
	.st22{fill:#F9880F;}
	.st23{fill:#EE4A0B;}
	.st24{fill:#FAA052;}
	.st25{fill:#F57F41;}
	.st26{fill:#F99044;}
	.st27{fill:#F6B15B;}
	.st28{fill:#F99D06;}
	.st29{fill:#FBBE70;}
	.st30{fill:#FABE5F;}
	.st31{fill:#FBB067;}
	.st32{fill:#41AADF;}
	.st33{fill:#FBFBFB;}
	.st34{fill-rule:evenodd;clip-rule:evenodd;fill:url(#SVGID_1_);}
	.st35{fill:#A5CD39;}
	.st36{fill:#40AA8B;}
	.st37{fill-rule:evenodd;clip-rule:evenodd;fill:#A5CD39;}
	.st38{clip-path:url(#SVGID_3_);fill-rule:evenodd;clip-rule:evenodd;fill:#A5CD39;}
	.st39{opacity:0.36;clip-path:url(#SVGID_5_);fill-rule:evenodd;clip-rule:evenodd;fill:url(#SVGID_6_);enable-background:new    ;}
	.st40{opacity:0.71;clip-path:url(#SVGID_8_);fill-rule:evenodd;clip-rule:evenodd;fill:url(#SVGID_9_);enable-background:new    ;}
	
		.st41{opacity:0.79;clip-path:url(#SVGID_11_);fill-rule:evenodd;clip-rule:evenodd;fill:url(#SVGID_12_);enable-background:new    ;}
	
		.st42{opacity:0.47;clip-path:url(#SVGID_14_);fill-rule:evenodd;clip-rule:evenodd;fill:url(#SVGID_15_);enable-background:new    ;}
	
		.st43{opacity:0.61;clip-path:url(#SVGID_17_);fill-rule:evenodd;clip-rule:evenodd;fill:url(#SVGID_18_);enable-background:new    ;}
	
		.st44{opacity:0.66;clip-path:url(#SVGID_20_);fill-rule:evenodd;clip-rule:evenodd;fill:url(#SVGID_21_);enable-background:new    ;}
	
		.st45{opacity:0.39;clip-path:url(#SVGID_23_);fill-rule:evenodd;clip-rule:evenodd;fill:url(#SVGID_24_);enable-background:new    ;}
	.st46{fill:#73B73E;}
	.st47{fill:#F26922;}
	.st48{fill-rule:evenodd;clip-rule:evenodd;fill:#FFFFFF;}
	.st49{fill:#F19021;}
	.st50{fill:#E9148D;}
	.st51{fill:#2BAEE4;}
	.st52{fill:#13B6A7;}
	.st53{fill:#FEE700;}
	.st54{fill:#EC242A;}
	.st55{fill:#FCB34B;}
	.st56{fill-rule:evenodd;clip-rule:evenodd;fill:#F6F6F6;}
	.st57{fill-rule:evenodd;clip-rule:evenodd;fill:#D71920;}
	.st58{fill:#63A844;}
	.st59{fill:#DF2D38;}
	.st60{fill:#7C8080;}
	.st61{fill:#A3A3A3;}
	.st62{fill:url(#SVGID_25_);}
	.st63{fill:url(#SVGID_26_);}
	.st64{fill:url(#SVGID_27_);}
	.st65{fill:#EF612A;}
	.st66{fill:url(#SVGID_28_);}
	.st67{fill:url(#SVGID_29_);}
	.st68{opacity:0.5;fill:#FFFFFF;}
	.st69{fill:#363833;}
	.st70{fill:#5998A9;}
	.st71{fill:#80B3CB;}
	.st72{fill:url(#SVGID_30_);}
	.st73{fill:url(#SVGID_31_);}
	.st74{fill:url(#SVGID_32_);}
	.st75{fill:url(#SVGID_33_);}
	.st76{fill:url(#SVGID_34_);}
	.st77{fill:url(#SVGID_35_);}
	.st78{fill:url(#SVGID_36_);}
	.st79{fill:#FFC20E;}
</style>
<g class="st0">
	<rect y="-0.06" class="st1" width="250" height="100"/>
</g>
<g>
	<circle class="st59" cx="80" cy="50" r="28.5"/>
	<path class="st60" d="M79.75,20.06c16.51,0,29.94,13.43,29.94,29.94S96.26,79.94,79.75,79.94S49.81,66.51,49.81,50
		S63.24,20.06,79.75,20.06 M79.75,19c-17.12,0-31,13.88-31,31s13.88,31,31,31s31-13.88,31-31S96.87,19,79.75,19z M48.75,19"/>
	<g>
		<path class="st59" d="M104.51,64.17c-1.31,1.9-8.86,2.97-10.71,2.97h-0.93c-11.08,0-14.96-2.55-25.32-2.55
			c-5.68,0-10.16,1.85-10.66,1.86c4.84,6.87,12.67,11.49,21.6,11.95c1.16,0.05,2.31,0.03,3.43-0.03
			C91.61,77.71,99.95,72.16,104.51,64.17z"/>
	</g>
	<path class="st4" d="M86.96,27.93h-5.02l-1.96-5.27l-1.96,5.27h-5.02l4.21,3.53l-1.88,5.08l4.66-3.17l4.66,3.17l-1.88-5.08
		L86.96,27.93z M71.66,49.47c0,0,2.35-1.64,2.33-3.47c-0.02-2.67-1.55-6.49-7.47-6.49c-5.6,0-7.91,2.16-8.03,3.81v15.73
		c0,0.39,0.2,0.75,0.52,0.97c1.1,0.71,3.78,2.21,6.73,2.21C75.7,62.23,78.45,53.19,71.66,49.47z M66.17,43.81
		c2.62,0,2.79,3.92,1.31,3.92h-3.8C63.68,47.73,63.28,43.81,66.17,43.81L66.17,43.81z M66.04,57.82c-2.23,0-2.38-1.83-2.38-1.83
		v-3.92c3.71,0,6.01-0.32,6.01,2.47C69.67,57.33,68.36,57.82,66.04,57.82z"/>
	<path class="st4" d="M70.53,39.51h18.99c0,0-5.13,2.42-5.13,4.63h-2.39v18.09h-4.71V44.21h-2.46
		C74.84,44.21,73.41,39.51,70.53,39.51z"/>
	<path class="st4" d="M94.4,48.74v4.71h2.98v3.67c0,0-0.95,1.04-2.98,1.04c-2.59,0-6.05-1.94-6.05-7.04c0-4.79,3.33-7.16,5.85-7.16
		c2.52,0,4.81,1.81,4.81,1.81l2.33-3.85c0,0-2.2-2.41-6.74-2.41c-3.93,0-10.92,2.28-10.92,11.56c0,3.67,1.12,11.16,10.58,11.16
		c5.87,0,7.77-2.56,7.77-2.56V48.7L94.4,48.74z M93.91,74.83c1.53-0.86,2.95-1.91,4.28-3.04l-0.02,0.01
		c-0.28,0.08-1.59,0.04-3.71,0.04c-2.44,0-5.75-0.86-9-1.65c-5.34-1.3-10.46-3.67-11.78-4.03c0,0,10.11,2.17,18.45,2.17
		c5.2,0,8.91-0.98,10.9-1.72c0.56-0.79,1.01-1.63,1.49-2.47c-1.31,1.9-8.88,3-10.72,3h-0.93c-11.08,0-14.96-2.55-25.32-2.55
		c-5.68,0-10.16,1.85-10.66,1.86c1.67,2.46,3.65,4.48,5.94,6.22c2.59,0.42,8.45,0.45,13.6,5.59c0.68,0.09,1.36,0.13,2.06,0.16
		c1.16,0.05,2.34,0.08,3.46,0.02c1.35-0.09,2.69-0.26,3.96-0.63c-0.17-0.15-0.37-0.32-0.56-0.45C80,73.69,70.41,68.25,68.1,67.95
		c0,0,3.25-0.24,6.89,1.26c4.76,1.97,9.95,3.47,12.56,4.12"/>
	<path class="st59" d="M118.81,32.89h5.1c3.25,0,5.66,1,5.66,3.98c0,1.51-0.81,3-2.18,3.49v0.1c1.73,0.41,3.01,1.65,3.01,3.82
		c0,3.23-2.61,4.73-6.08,4.73h-5.51L118.81,32.89L118.81,32.89z M123.68,39.52c2.14,0,3.06-0.86,3.06-2.23
		c0-1.52-1.01-2.09-3.01-2.09h-2.01v4.32H123.68L123.68,39.52z M124.04,46.7c2.27,0,3.53-0.83,3.53-2.6c0-1.66-1.22-2.38-3.53-2.38
		h-2.32v4.98H124.04z"/>
	<path class="st4" d="M132.5,36.88h2.89v12.13h-2.89L132.5,36.88L132.5,36.88z M137.03,51.19c0-1.02,0.62-1.9,1.71-2.57v-0.1
		c-0.61-0.41-1.08-1.05-1.08-2.03c0-0.93,0.62-1.76,1.32-2.26v-0.1c-0.82-0.61-1.57-1.76-1.57-3.19c0-2.8,2.23-4.36,4.73-4.36
		c0.66,0,1.28,0.12,1.77,0.3h4.27v2.18h-2.14c0.37,0.44,0.64,1.17,0.64,1.98c0,2.71-2.02,4.13-4.54,4.13c-0.49,0-1.06-0.1-1.59-0.31
		c-0.35,0.3-0.56,0.6-0.56,1.13c0,0.67,0.48,1.07,1.91,1.07h2.09c2.85,0,4.38,0.9,4.38,3c0,2.41-2.47,4.29-6.38,4.29
		C139.16,54.34,137.03,53.32,137.03,51.19z M145.59,50.54c0-0.91-0.72-1.18-2.06-1.18h-1.58c-0.66,0-1.17-0.05-1.62-0.17
		c-0.61,0.48-0.88,1-0.88,1.55c0,1.08,1.15,1.7,2.98,1.7C144.31,52.44,145.59,51.56,145.59,50.54z M144.15,40.94
		c0-1.49-0.87-2.34-2.01-2.34s-2.01,0.84-2.01,2.33c0,1.51,0.89,2.38,2.01,2.38S144.15,42.46,144.15,40.94z"/>
	<path class="st59" d="M154.69,35.38h-4.54v-2.49h11.98v2.49h-4.54v13.63h-2.9V35.38z"/>
	<path class="st4" d="M164.51,36.88h2.89v12.13h-2.89L164.51,36.88L164.51,36.88z M169.85,36.88h2.36l0.22,1.64h0.08
		c1-1.06,2.14-1.94,3.65-1.94c1.73,0,2.73,0.8,3.28,2.16c1.13-1.22,2.3-2.16,3.81-2.16c2.52,0,3.68,1.77,3.68,4.83v7.59h-2.89v-7.22
		c0-1.96-0.57-2.69-1.78-2.69c-0.73,0-1.53,0.48-2.43,1.47v8.43h-2.89v-7.22c0-1.96-0.57-2.69-1.78-2.69
		c-0.72,0-1.53,0.48-2.43,1.47v8.43h-2.89L169.85,36.88L169.85,36.88z M188.99,42.95c0-3.94,3.1-6.37,6.33-6.37
		c3.73,0,5.68,2.39,5.68,5.77c0,0.56-0.07,1.11-0.14,1.41h-8.63c0.28,2.1,1.82,3.27,3.98,3.27c1.15,0,2.15-0.32,3.15-0.87l1.13,1.82
		c-1.32,0.79-2.99,1.32-4.72,1.32C191.96,49.3,188.99,46.95,188.99,42.95z M198.13,41.77c0-1.8-0.9-2.91-2.74-2.91
		c-1.55,0-2.92,1.02-3.2,2.91C192.19,41.77,198.13,41.77,198.13,41.77z"/>
	<g>
		<path class="st59" d="M117.99,65.96c0-5.28,3.63-8.41,8.26-8.41c2.47,0,4.18,1,5.28,2.05l-1.7,1.91
			c-0.87-0.78-1.88-1.38-3.48-1.38c-3.03,0-5.08,2.18-5.08,5.75c0,3.63,1.81,5.82,5.27,5.82c0.93,0,1.86-0.24,2.39-0.68v-3.39h-3.22
			v-2.43h6.08v7.15c-1.16,1.08-3.19,1.92-5.57,1.92C121.52,74.26,117.99,71.31,117.99,65.96L117.99,65.96z"/>
		<path class="st4" d="M133.15,70.69c0-2.59,2.1-3.95,6.95-4.48c-0.04-1.27-0.56-2.31-2.12-2.31c-1.16,0-2.26,0.53-3.32,1.18
			l-1.06-1.96c1.33-0.85,3.02-1.59,4.91-1.59c2.98,0,4.47,1.85,4.47,5.28v7.15h-2.36l-0.22-1.33h-0.08
			c-1.06,0.92-2.26,1.63-3.66,1.63C134.58,74.26,133.15,72.79,133.15,70.69L133.15,70.69z M140.1,70.68v-2.65
			c-3.13,0.41-4.17,1.25-4.17,2.43c0,1.03,0.69,1.49,1.67,1.49C138.55,71.95,139.26,71.48,140.1,70.68L140.1,70.68z M145.23,61.84
			h2.36l0.22,1.64h0.08c1-1.06,2.14-1.94,3.65-1.94c1.73,0,2.73,0.8,3.28,2.16c1.13-1.22,2.3-2.16,3.81-2.16
			c2.52,0,3.68,1.77,3.68,4.83v7.59h-2.89v-7.22c0-1.96-0.57-2.69-1.78-2.69c-0.73,0-1.53,0.48-2.43,1.47v8.43h-2.89v-7.22
			c0-1.96-0.57-2.69-1.78-2.69c-0.72,0-1.53,0.48-2.43,1.47v8.43h-2.89V61.84L145.23,61.84z M165.66,61.84h2.89v12.13h-2.89
			L165.66,61.84L165.66,61.84z M171.52,61.84h2.36l0.22,1.63h0.08c1.06-1.05,2.27-1.92,3.89-1.92c2.55,0,3.67,1.77,3.67,4.83v7.59
			h-2.89v-7.22c0-1.96-0.55-2.69-1.8-2.69c-1.03,0-1.69,0.51-2.65,1.47v8.43h-2.89V61.84L171.52,61.84z M183.76,76.15
			c0-1.02,0.62-1.9,1.71-2.57v-0.1c-0.61-0.41-1.08-1.05-1.08-2.03c0-0.93,0.62-1.76,1.32-2.26v-0.1c-0.82-0.61-1.57-1.76-1.57-3.19
			c0-2.8,2.23-4.36,4.73-4.36c0.66,0,1.28,0.12,1.77,0.3h4.27v2.18h-2.14c0.37,0.44,0.64,1.17,0.64,1.98c0,2.71-2.02,4.13-4.54,4.13
			c-0.49,0-1.06-0.1-1.59-0.31c-0.35,0.3-0.56,0.6-0.56,1.13c0,0.67,0.48,1.07,1.91,1.07h2.09c2.85,0,4.38,0.9,4.38,3
			c0,2.41-2.48,4.29-6.39,4.29C185.89,79.3,183.76,78.28,183.76,76.15L183.76,76.15z M192.32,75.49c0-0.92-0.72-1.18-2.06-1.18
			h-1.58c-0.66,0-1.17-0.05-1.62-0.17c-0.61,0.48-0.88,1-0.88,1.55c0,1.08,1.15,1.7,2.98,1.7C191.03,77.4,192.32,76.51,192.32,75.49
			z M190.88,65.9c0-1.49-0.87-2.34-2.01-2.34c-1.13,0-2.01,0.84-2.01,2.34c0,1.51,0.89,2.38,2.01,2.38
			C189.99,68.28,190.88,67.41,190.88,65.9z"/>
	</g>
	<ellipse class="st59" cx="165.96" cy="33.16" rx="1.77" ry="1.64"/>
	<ellipse class="st59" cx="134.47" cy="33.16" rx="1.77" ry="1.64"/>
	<ellipse class="st59" cx="167.11" cy="58.11" rx="1.77" ry="1.64"/>
</g>
</svg>
