<?xml version="1.0" encoding="utf-8"?>
<!-- Generator: Adobe Illustrator 23.1.0, SVG Export Plug-In . SVG Version: 6.00 Build 0)  -->
<svg version="1.1" id="Layer_1" xmlns="http://www.w3.org/2000/svg" xmlns:xlink="http://www.w3.org/1999/xlink" x="0px" y="0px"
	 viewBox="0 0 250 100" style="enable-background:new 0 0 250 100;" xml:space="preserve">
<style type="text/css">
	.st0{display:none;}
	.st1{display:inline;fill:#2F2F2F;}
	.st2{display:inline;enable-background:new    ;}
	.st3{fill:#FFFFFF;stroke:#EFEFEF;stroke-width:0.05;stroke-miterlimit:10;}
	.st4{fill:#FFFFFF;}
	.st5{fill:#FCC42C;}
	.st6{fill:#C23844;}
	.st7{fill:#FEFEFE;}
	.st8{fill:#FA4133;}
	.st9{fill:#F85F1D;}
	.st10{fill:#FC323A;}
	.st11{fill:#F99209;}
	.st12{fill:#FCFDFE;}
	.st13{fill:#F94D2D;}
	.st14{fill:#FA512A;}
	.st15{fill:#FB5C25;}
	.st16{fill:#F25710;}
	.st17{fill:#F9BB41;}
	.st18{fill:#FA6C1D;}
	.st19{fill:#F9BD51;}
	.st20{fill:#F97B16;}
	.st21{fill:#FB2841;}
	.st22{fill:#F9880F;}
	.st23{fill:#EE4A0B;}
	.st24{fill:#FAA052;}
	.st25{fill:#F57F41;}
	.st26{fill:#F99044;}
	.st27{fill:#F6B15B;}
	.st28{fill:#F99D06;}
	.st29{fill:#FBBE70;}
	.st30{fill:#FABE5F;}
	.st31{fill:#FBB067;}
	.st32{fill:#41AADF;}
	.st33{fill:#FBFBFB;}
	.st34{fill-rule:evenodd;clip-rule:evenodd;fill:url(#SVGID_1_);}
	.st35{fill:#A5CD39;}
	.st36{fill:#40AA8B;}
	.st37{fill-rule:evenodd;clip-rule:evenodd;fill:#A5CD39;}
	.st38{clip-path:url(#SVGID_3_);fill-rule:evenodd;clip-rule:evenodd;fill:#A5CD39;}
	.st39{opacity:0.36;clip-path:url(#SVGID_5_);fill-rule:evenodd;clip-rule:evenodd;fill:url(#SVGID_6_);enable-background:new    ;}
	.st40{opacity:0.71;clip-path:url(#SVGID_8_);fill-rule:evenodd;clip-rule:evenodd;fill:url(#SVGID_9_);enable-background:new    ;}
	
		.st41{opacity:0.79;clip-path:url(#SVGID_11_);fill-rule:evenodd;clip-rule:evenodd;fill:url(#SVGID_12_);enable-background:new    ;}
	
		.st42{opacity:0.47;clip-path:url(#SVGID_14_);fill-rule:evenodd;clip-rule:evenodd;fill:url(#SVGID_15_);enable-background:new    ;}
	
		.st43{opacity:0.61;clip-path:url(#SVGID_17_);fill-rule:evenodd;clip-rule:evenodd;fill:url(#SVGID_18_);enable-background:new    ;}
	
		.st44{opacity:0.66;clip-path:url(#SVGID_20_);fill-rule:evenodd;clip-rule:evenodd;fill:url(#SVGID_21_);enable-background:new    ;}
	
		.st45{opacity:0.39;clip-path:url(#SVGID_23_);fill-rule:evenodd;clip-rule:evenodd;fill:url(#SVGID_24_);enable-background:new    ;}
	.st46{fill:#73B73E;}
	.st47{fill:#F26922;}
	.st48{fill-rule:evenodd;clip-rule:evenodd;fill:#FFFFFF;}
	.st49{fill:#F19021;}
	.st50{fill:#E9148D;}
	.st51{fill:#2BAEE4;}
	.st52{fill:#13B6A7;}
	.st53{fill:#FEE700;}
	.st54{fill:#EC242A;}
	.st55{fill:#FCB34B;}
	.st56{fill-rule:evenodd;clip-rule:evenodd;fill:#F6F6F6;}
	.st57{fill-rule:evenodd;clip-rule:evenodd;fill:#D71920;}
	.st58{fill:#63A844;}
	.st59{fill:#DF2D38;}
	.st60{fill:#7C8080;}
	.st61{fill:#A3A3A3;}
	.st62{fill:url(#SVGID_25_);}
	.st63{fill:url(#SVGID_26_);}
	.st64{fill:url(#SVGID_27_);}
	.st65{fill:#EF612A;}
	.st66{fill:url(#SVGID_28_);}
	.st67{fill:url(#SVGID_29_);}
	.st68{opacity:0.5;fill:#FFFFFF;}
	.st69{fill:#363833;}
	.st70{fill:#5998A9;}
	.st71{fill:#80B3CB;}
	.st72{fill:url(#SVGID_30_);}
	.st73{fill:url(#SVGID_31_);}
	.st74{fill:url(#SVGID_32_);}
	.st75{fill:url(#SVGID_33_);}
	.st76{fill:url(#SVGID_34_);}
	.st77{fill:url(#SVGID_35_);}
	.st78{fill:url(#SVGID_36_);}
	.st79{fill:#FFC20E;}
</style>
<g class="st0">
	<rect class="st1" width="250" height="100"/>
</g>
<g>
	<path class="st32" d="M54.51,26.74c-0.17,0.28,0.11,0.28,0.23,0.35c1,0.61,1.44,1.5,1.44,2.65c-0.01,1.75,0,3.49,0,5.24
		c0,0.25,0,0.51,0,0.78c0.11-0.02,0.18-0.02,0.2-0.05c2.62-3.97,8.61-3.76,11.44-0.81c1.75,1.82,2.74,3.99,3.11,6.46
		c0.45,3.01,0.19,5.93-0.93,8.79c-1.16,2.96-3.4,4.47-6.43,4.99c-2.73,0.47-5.36,0.12-7.93-0.92c-3.15-1.28-4.67-3.66-4.94-6.94
		c-0.08-0.97-0.1-1.95-0.1-2.93c0-5.56,0.01-11.11,0.01-16.67c0-0.31,0.07-0.64-0.08-0.94C51.86,26.74,53.19,26.74,54.51,26.74z
		 M56.19,43.84c0.03,1.45,0.1,2.66,0.51,3.82c0.65,1.82,2.01,2.87,3.83,2.93c2.04,0.07,3.55-0.8,4.26-2.65
		c0.91-2.38,1.09-4.87,0.18-7.27c-1.08-2.85-2.96-3.29-5.49-2.86c-0.53,0.09-1,0.33-1.42,0.73C56.46,40.06,56.21,42.02,56.19,43.84z
		"/>
	<path class="st33" d="M187.54,26.74c-0.09,0.33,0.22,0.26,0.36,0.35c0.98,0.59,1.55,1.41,1.55,2.58c0,1.03,0.02,2.06-0.01,3.09
		c-0.01,0.44,0.13,0.53,0.54,0.52c0.79-0.03,1.59,0,2.38-0.01c0.27,0,0.41,0.03,0.46,0.37c0.26,2.08-0.81,3.43-2.92,3.56
		c-0.42,0.03-0.45,0.18-0.45,0.52c0.01,3.86,0.01,7.72,0,11.58c0,0.79,0.41,1.22,1.16,1.36c0.13,0.03,0.26,0.03,0.39,0.03
		c0.58,0.02,1.36-0.18,1.67,0.12c0.38,0.35,0.1,1.14,0.12,1.74c0.02,0.53-0.06,1.07,0.02,1.58c0.11,0.75-0.23,0.86-0.88,0.86
		c-1.67,0-3.33,0-5-0.14c-1.75-0.15-2.82-1.13-3.05-2.87c-0.07-0.55-0.1-1.11-0.1-1.66c0.01-7.82,0.02-15.64,0.03-23.47
		c0-0.04-0.06-0.08-0.09-0.12C185,26.74,186.27,26.74,187.54,26.74z"/>
	<path class="st32" d="M76.29,26.74c-0.18,0.4,0.24,0.32,0.38,0.4c0.91,0.55,1.42,1.3,1.42,2.39c0,8.25,0.01,16.49,0.03,24.74
		c0,0.51-0.14,0.69-0.66,0.68c-1.48-0.03-2.96-0.02-4.44-0.01c-0.39,0-0.64-0.03-0.64-0.54c0.02-9.12,0.03-18.23,0.04-27.35
		c0-0.1,0.04-0.21,0.06-0.31C73.74,26.74,75.01,26.74,76.29,26.74z"/>
	<path class="st33" d="M152.42,73.26c0-3.91,0.01-7.82-0.03-11.73c-0.01-0.68,0.18-0.88,0.83-0.8c0.78,0.09,1.75-0.31,2.3,0.15
		c0.51,0.42,0.6,1.36,0.85,2.08c0.76,2.16,1.51,4.33,2.27,6.5c0.27-0.1,0.25-0.34,0.31-0.52c0.89-2.54,1.79-5.07,2.66-7.61
		c0.15-0.45,0.34-0.64,0.83-0.6c0.83,0.08,1.96-0.35,2.43,0.17c0.41,0.46,0.13,1.56,0.13,2.37c0.01,2.91,0,5.82,0,8.73
		c0,0.42-0.02,0.84-0.03,1.26c-0.74,0-1.48,0-2.23,0c0.19-0.31-0.16-0.5-0.15-0.82c0.09-2.58,0.1-5.16,0.14-7.74
		c-0.01-0.09-0.02-0.27-0.04-0.27c-0.19,0-0.22,0.14-0.23,0.29c-0.52,1.52-1.03,3.04-1.55,4.55c-0.45,1.33-0.9,2.66-1.36,3.99
		c-0.58,0-1.17,0-1.75,0c0.14-0.41-0.2-0.69-0.31-1.02c-0.89-2.59-1.8-5.18-2.71-7.76c0.02-0.09-0.01-0.16-0.1-0.13
		c-0.03,0.01-0.02,0.13-0.03,0.2c0.04,2.37,0.07,4.74,0.12,7.1c0.01,0.54,0.01,1.08-0.15,1.6C153.9,73.26,153.16,73.26,152.42,73.26
		z"/>
	<path class="st33" d="M137.31,72.83c2.33-0.96,3.92-3.26,3.96-5.73c0.01-0.48-0.11-0.64-0.61-0.63c-1.91,0.03-3.81,0.01-5.72,0.01
		c-1.4,0-1.38,0-1.4,1.42c-0.01,0.54,0.15,0.67,0.67,0.65c1.14-0.04,2.28-0.02,3.41,0c0.22,0,0.53-0.15,0.64,0.12
		c0.09,0.22-0.16,0.42-0.3,0.61c-1.2,1.67-3.65,2.01-5.29,0.73c-1.74-1.36-2.03-3.95-0.63-5.66c1.34-1.63,3.76-1.86,5.31-0.52
		c0.21,0.18,0.34,0.48,0.69,0.48c0.86-0.01,1.72,0,2.61,0c-0.04-0.16-0.04-0.24-0.07-0.31c-1.01-2.1-2.63-3.32-5-3.48
		c-2.61-0.18-4.66,0.82-6.05,3.02c-2.09,3.3-0.61,7.78,3.02,9.28C132.56,72.83,134.69,73.44,137.31,72.83z"/>
	<path class="st33" d="M184.21,72.88c-2.39-1.05-3.78-2.84-4.02-5.44c-0.24-2.63,0.87-4.64,3.04-6.04c3.24-2.08,7.68-0.65,8.98,2.91
		c-0.92,0-1.8,0-2.69,0c-0.24,0-0.35-0.22-0.5-0.36c-1.2-1.09-2.98-1.3-4.35-0.52c-1.46,0.83-2.21,2.53-1.89,4.28
		c0.29,1.55,1.64,2.84,3.17,3.03c1.75,0.22,3.14-0.52,3.95-2.2c-1.34,0-2.62-0.04-3.9,0.02c-0.7,0.03-1.02-0.14-0.89-0.88
		c0.04-0.23,0.02-0.48,0-0.71c-0.02-0.32,0.05-0.49,0.43-0.48c2.28,0.01,4.55,0.02,6.83,0c0.46,0,0.42,0.27,0.42,0.57
		c0.05,2.46-1.58,4.83-3.96,5.8C188.84,72.84,186.88,73.66,184.21,72.88z"/>
	<path class="st33" d="M169.9,73.26c-0.17-0.69-0.12-1.39-0.12-2.09c0-3.25,0.01-6.5-0.02-9.75c0-0.56,0.17-0.64,0.7-0.71
		c1.21-0.16,1.89,0.32,2.5,1.35c1.22,2.07,2.59,4.04,3.89,6.06c0.07,0.11,0.11,0.24,0.31,0.25c0-2.32,0.02-4.63-0.01-6.95
		c-0.01-0.56,0.15-0.7,0.7-0.69c1.66,0.02,1.66,0,1.66,1.62c0,2.48,0.01,4.97,0,7.45c0,1.15-0.04,2.31-0.06,3.46
		c-0.69,0-1.38,0-2.07,0c0.05-0.4-0.32-0.56-0.48-0.82c-1.42-2.28-2.86-4.55-4.31-6.82c-0.1-0.15-0.13-0.4-0.45-0.44
		c0,2.72,0,5.4,0,8.08C171.38,73.26,170.64,73.26,169.9,73.26z"/>
	<path class="st33" d="M140.34,73.26c-0.06-0.46,0.12-0.86,0.28-1.27c1.37-3.5,2.73-7.01,4.07-10.52c0.21-0.54,0.44-0.77,1.06-0.75
		c1.31,0.06,1.31,0.02,1.79,1.27c1.3,3.39,2.6,6.77,3.91,10.16c0.14,0.36,0.3,0.71,0.18,1.11c-0.79,0-1.59,0-2.38,0
		c-0.28-0.78-0.57-1.55-0.83-2.33c-0.13-0.39-0.34-0.51-0.75-0.5c-1.16,0.03-2.33,0.01-3.49,0.01c-0.17,0-0.42-0.09-0.5,0.11
		c-0.35,0.89-0.81,1.74-0.95,2.7C141.93,73.26,141.13,73.26,140.34,73.26z M145.98,64.24c-0.48,1.27-0.9,2.38-1.33,3.48
		c-0.13,0.34-0.06,0.47,0.33,0.45c0.66-0.03,1.32-0.03,1.98,0c0.41,0.02,0.43-0.13,0.3-0.46C146.84,66.61,146.44,65.49,145.98,64.24
		z"/>
	<path class="st33" d="M166.24,73.26c-0.01-3.9-0.01-7.8-0.05-11.71c-0.01-0.63,0.11-0.86,0.8-0.84c1.62,0.05,1.62,0.02,1.62,1.67
		c0,3.06,0,6.13,0,9.19c0,0.57,0.05,1.14-0.14,1.69C167.73,73.26,166.99,73.26,166.24,73.26z"/>
	<path class="st33" d="M159.89,26.74c-0.16,0.29,0.12,0.26,0.25,0.33c1.35,0.76,2.08,2.58,1.64,4.02c-0.08,0.25-0.24,0.24-0.42,0.24
		c-1.64,0-3.27-0.01-4.91,0.01c-0.3,0-0.42-0.09-0.41-0.41c0.02-1.4,0.03-2.79,0.05-4.19C157.34,26.74,158.61,26.74,159.89,26.74z"
		/>
	<path class="st33" d="M199.46,60.87c-0.52,0.2-0.35-0.23-0.35-0.42c-0.02-0.85-0.01-1.69-0.12-2.59c-0.32,0.8-0.63,1.61-0.97,2.4
		c-0.11,0.25-0.1,0.67-0.44,0.68c-0.36,0.01-0.35-0.42-0.45-0.66c-0.33-0.76-0.62-1.53-1.09-2.28c0,0.82,0,1.65,0,2.47
		c0,0.17,0.08,0.45-0.17,0.46c-0.36,0.02-0.2-0.31-0.2-0.48c-0.02-0.95-0.01-1.9,0-2.86c0-0.18-0.13-0.45,0.19-0.52
		c0.3-0.06,0.42,0.12,0.52,0.36c0.37,0.95,0.75,1.89,1.19,3c0.41-1.04,0.78-1.91,1.1-2.81c0.15-0.41,0.36-0.62,0.8-0.57
		C199.46,58.33,199.46,59.6,199.46,60.87z"/>
	<path class="st33" d="M126.09,52.11c0,2.76,0.01,5.27,0,7.77c-0.01,2-1.09,3.09-3.1,3.07c-0.81-0.01-1.89,0.36-2.35-0.16
		c-0.4-0.45-0.13-1.51-0.13-2.3c0-5.79,0-11.58,0-17.37c0-1.56,0.09-3.12,0.58-4.62c0.56-1.7,1.56-3.03,3.14-3.92
		c3.1-1.75,6.38-2.32,9.87-1.47c3.04,0.74,5.11,2.56,6.09,5.54c1.33,4.02,1.3,8.03-0.53,11.88c-1.89,3.99-5.78,5.68-9.9,4.49
		C128.23,54.58,127.06,53.65,126.09,52.11z M126.09,44.06c0.04,1.29,0.1,2.66,0.73,3.93c0.83,1.67,2.16,2.56,4.05,2.54
		c1.84-0.02,3.14-0.95,3.82-2.6c1.09-2.63,1.06-5.32-0.08-7.93c-0.78-1.8-2.29-2.56-4.23-2.45c-1.84,0.1-3.03,1.11-3.7,2.77
		C126.2,41.49,126.14,42.73,126.09,44.06z"/>
	<path class="st32" d="M112.52,45.54c-2.01,0-4.03,0-6.04,0c-1.18,0-1.32,0.07-1.07,1.16c0.36,1.6,1.02,3.11,2.77,3.64
		c1.76,0.53,3.5,0.44,4.83-1.05c0.72-0.81,1.56-1.11,2.6-1.08c1.01,0.03,2.01,0.03,3.02,0c0.55-0.02,0.68,0.11,0.5,0.67
		c-1.15,3.66-4.34,6.15-8.32,6.42c-1.32,0.09-2.65,0.1-3.95-0.21c-3.14-0.74-5.29-2.66-6.37-5.64c-1.29-3.56-1.31-7.22-0.05-10.8
		c1.28-3.64,4.29-5.74,8.13-5.9c2.04-0.08,4.03,0.09,5.88,1c2.95,1.45,4.3,4.01,4.89,7.09c0.26,1.33,0.27,2.68,0.28,4.03
		c0.01,0.52-0.16,0.68-0.68,0.68C116.81,45.53,114.66,45.54,112.52,45.54z M109.51,41.85c1.21,0,2.43,0,3.64,0
		c0.23,0,0.52,0.11,0.54-0.35c0.09-1.65-1.12-3.4-2.72-3.87c-2.81-0.82-5.19,0.76-5.56,3.65c-0.06,0.48,0.08,0.59,0.53,0.58
		C107.13,41.84,108.32,41.85,109.51,41.85z"/>
	<path class="st33" d="M182.26,47c0,2.7-0.02,5.01,0.01,7.31c0.01,0.52-0.12,0.7-0.65,0.67c-0.74-0.04-1.48,0.01-2.22-0.02
		c-1.75-0.06-2.8-1.12-2.8-2.87c-0.01-3.62-0.01-7.25,0-10.87c0.01-1.44-0.37-2.67-1.75-3.38c-1.45-0.75-2.9-0.74-4.31,0.08
		c-1.25,0.73-1.55,1.93-1.55,3.26c0,4.31-0.02,8.62,0.02,12.93c0.01,0.69-0.15,0.9-0.86,0.87c-1.43-0.06-2.86-0.04-4.29-0.01
		c-0.5,0.01-0.61-0.14-0.61-0.63c0.02-4.21,0.01-8.41,0.02-12.62c0-0.93,0.12-1.85,0.3-2.76c0.44-2.17,1.56-3.81,3.6-4.82
		c4.07-2.01,8.06-1.94,11.96,0.38c2.15,1.28,2.78,3.43,3.02,5.73C182.39,42.64,182.2,45.02,182.26,47z"/>
	<path class="st32" d="M98.49,41.17c-0.06,1.82,0.15,4.31-0.1,6.79c-0.07,0.68-0.2,1.36-0.37,2.02c-0.48,1.87-1.63,3.2-3.36,4.04
		c-4.33,2.09-8.54,1.71-12.54-0.81c-1.42-0.89-2-2.48-2.33-4.1c-0.31-1.54-0.27-3.1-0.26-4.66c0.01-3.49,0.02-6.98,0-10.48
		c0-0.59,0.14-0.78,0.74-0.76c1.35,0.05,2.7,0.05,4.05,0c0.69-0.03,0.94,0.13,0.93,0.89c-0.04,4.26-0.02,8.52,0,12.78
		c0.01,3.29,3.06,5.01,5.94,3.38c1.19-0.67,1.65-1.73,1.66-3.03c0.01-3.62,0.01-7.25,0.02-10.87c0-2.1,1.01-3.12,3.1-3.12
		c0.61,0,1.22,0.03,1.83-0.01c0.54-0.04,0.73,0.12,0.72,0.69C98.47,36.11,98.49,38.31,98.49,41.17z"/>
	<path class="st33" d="M142.06,48.24c0.07-1.79-0.16-3.96,0.14-6.12c0.69-5.01,3.64-7.96,8.64-8.71c1-0.15,2-0.19,3.01-0.21
		c0.38-0.01,0.5,0.1,0.49,0.49c-0.02,1.61-0.02,3.23,0,4.84c0.01,0.39-0.12,0.5-0.49,0.48c-0.58-0.03-1.17-0.02-1.75,0
		c-2.86,0.13-4.26,1.54-4.29,4.4c-0.04,3.41-0.01,6.83-0.01,10.24c0,1.31,0,1.31-1.33,1.31c-1.14,0-2.28-0.07-3.42,0.02
		c-0.88,0.07-1.03-0.26-1.01-1.05C142.1,52.17,142.06,50.39,142.06,48.24z"/>
	<path class="st33" d="M156.03,44.05c0-3.39,0.01-6.77-0.01-10.16c0-0.54,0.11-0.74,0.68-0.7c0.79,0.06,1.59-0.01,2.38,0.02
		c1.47,0.06,2.65,1.16,2.66,2.63c0.04,6.22,0.01,12.43,0.03,18.65c0,0.5-0.26,0.48-0.6,0.48c-1.46-0.01-2.91-0.03-4.37,0.01
		c-0.6,0.02-0.8-0.12-0.8-0.77C156.05,50.82,156.03,47.44,156.03,44.05z"/>
	<path class="st33" d="M194.49,59.27c0,0.45,0,0.9,0,1.34c0,0.17-0.02,0.35-0.22,0.34c-0.21,0-0.2-0.2-0.2-0.36
		c0-0.84-0.01-1.69,0.01-2.53c0.01-0.34,0.02-0.65-0.47-0.58c-0.13,0.02-0.29-0.03-0.3-0.18c-0.02-0.22,0.18-0.22,0.33-0.22
		c0.32-0.01,0.63-0.02,0.95,0c0.22,0.02,0.57-0.15,0.62,0.15c0.06,0.38-0.32,0.21-0.51,0.25c-0.28,0.05-0.21,0.26-0.21,0.43
		C194.49,58.37,194.49,58.82,194.49,59.27z"/>
	<path class="st32" d="M162.74,64.7c-0.09,0.01-0.18,0.01-0.27,0.02c0.01-0.15,0.05-0.29,0.23-0.29
		C162.72,64.43,162.73,64.6,162.74,64.7z"/>
	<path class="st32" d="M154.79,64.48c-0.04,0.03-0.09,0.05-0.13,0.07c0.01-0.07,0-0.2,0.03-0.21
		C154.79,64.32,154.82,64.39,154.79,64.48z"/>
</g>
</svg>
