<?xml version="1.0" encoding="utf-8"?>
<!-- Generator: Adobe Illustrator 23.1.0, SVG Export Plug-In . SVG Version: 6.00 Build 0)  -->
<svg version="1.1" id="Layer_1" xmlns="http://www.w3.org/2000/svg" xmlns:xlink="http://www.w3.org/1999/xlink" x="0px" y="0px"
	 viewBox="0 0 250 100" style="enable-background:new 0 0 250 100;" xml:space="preserve">
<style type="text/css">
	.st0{display:none;}
	.st1{display:inline;fill:#2F2F2F;}
	.st2{display:inline;enable-background:new    ;}
	.st3{fill:#FFFFFF;stroke:#EFEFEF;stroke-width:0.05;stroke-miterlimit:10;}
	.st4{fill:#FFFFFF;}
	.st5{fill:#FCC42C;}
	.st6{fill:#C23844;}
	.st7{fill:#FEFEFE;}
	.st8{fill:#FA4133;}
	.st9{fill:#F85F1D;}
	.st10{fill:#FC323A;}
	.st11{fill:#F99209;}
	.st12{fill:#FCFDFE;}
	.st13{fill:#F94D2D;}
	.st14{fill:#FA512A;}
	.st15{fill:#FB5C25;}
	.st16{fill:#F25710;}
	.st17{fill:#F9BB41;}
	.st18{fill:#FA6C1D;}
	.st19{fill:#F9BD51;}
	.st20{fill:#F97B16;}
	.st21{fill:#FB2841;}
	.st22{fill:#F9880F;}
	.st23{fill:#EE4A0B;}
	.st24{fill:#FAA052;}
	.st25{fill:#F57F41;}
	.st26{fill:#F99044;}
	.st27{fill:#F6B15B;}
	.st28{fill:#F99D06;}
	.st29{fill:#FBBE70;}
	.st30{fill:#FABE5F;}
	.st31{fill:#FBB067;}
	.st32{fill:#41AADF;}
	.st33{fill:#FBFBFB;}
	.st34{fill-rule:evenodd;clip-rule:evenodd;fill:url(#SVGID_1_);}
	.st35{fill:#A5CD39;}
	.st36{fill:#40AA8B;}
	.st37{fill-rule:evenodd;clip-rule:evenodd;fill:#A5CD39;}
	.st38{clip-path:url(#SVGID_3_);fill-rule:evenodd;clip-rule:evenodd;fill:#A5CD39;}
	.st39{opacity:0.36;clip-path:url(#SVGID_5_);fill-rule:evenodd;clip-rule:evenodd;fill:url(#SVGID_6_);enable-background:new    ;}
	.st40{opacity:0.71;clip-path:url(#SVGID_8_);fill-rule:evenodd;clip-rule:evenodd;fill:url(#SVGID_9_);enable-background:new    ;}
	
		.st41{opacity:0.79;clip-path:url(#SVGID_11_);fill-rule:evenodd;clip-rule:evenodd;fill:url(#SVGID_12_);enable-background:new    ;}
	
		.st42{opacity:0.47;clip-path:url(#SVGID_14_);fill-rule:evenodd;clip-rule:evenodd;fill:url(#SVGID_15_);enable-background:new    ;}
	
		.st43{opacity:0.61;clip-path:url(#SVGID_17_);fill-rule:evenodd;clip-rule:evenodd;fill:url(#SVGID_18_);enable-background:new    ;}
	
		.st44{opacity:0.66;clip-path:url(#SVGID_20_);fill-rule:evenodd;clip-rule:evenodd;fill:url(#SVGID_21_);enable-background:new    ;}
	
		.st45{opacity:0.39;clip-path:url(#SVGID_23_);fill-rule:evenodd;clip-rule:evenodd;fill:url(#SVGID_24_);enable-background:new    ;}
	.st46{fill:#73B73E;}
	.st47{fill:#F26922;}
	.st48{fill-rule:evenodd;clip-rule:evenodd;fill:#FFFFFF;}
	.st49{fill:#F19021;}
	.st50{fill:#E9148D;}
	.st51{fill:#2BAEE4;}
	.st52{fill:#13B6A7;}
	.st53{fill:#FEE700;}
	.st54{fill:#EC242A;}
	.st55{fill:#FCB34B;}
	.st56{fill-rule:evenodd;clip-rule:evenodd;fill:#F6F6F6;}
	.st57{fill-rule:evenodd;clip-rule:evenodd;fill:#D71920;}
	.st58{fill:#63A844;}
	.st59{fill:#DF2D38;}
	.st60{fill:#7C8080;}
	.st61{fill:#A3A3A3;}
	.st62{fill:url(#SVGID_25_);}
	.st63{fill:url(#SVGID_26_);}
	.st64{fill:url(#SVGID_27_);}
	.st65{fill:#EF612A;}
	.st66{fill:url(#SVGID_28_);}
	.st67{fill:url(#SVGID_29_);}
	.st68{opacity:0.5;fill:#FFFFFF;}
	.st69{fill:#363833;}
	.st70{fill:#5998A9;}
	.st71{fill:#80B3CB;}
	.st72{fill:url(#SVGID_30_);}
	.st73{fill:url(#SVGID_31_);}
	.st74{fill:url(#SVGID_32_);}
	.st75{fill:url(#SVGID_33_);}
	.st76{fill:url(#SVGID_34_);}
	.st77{fill:url(#SVGID_35_);}
	.st78{fill:url(#SVGID_36_);}
	.st79{fill:#FFC20E;}
</style>
<g class="st0">
	<rect class="st1" width="250" height="100"/>
</g>
<g>
	<g>
		<g>
			<linearGradient id="SVGID_1_" gradientUnits="userSpaceOnUse" x1="52.8557" y1="62.4061" x2="87.0004" y2="62.4061">
				<stop  offset="0" style="stop-color:#92C1EF"/>
				<stop  offset="1" style="stop-color:#4B7E95"/>
			</linearGradient>
			<path style="fill:url(#SVGID_1_);" d="M77.88,52.74c-2.93-0.12-4.7,0.07-6.55,0.47c-1.8,0.39-3.33,1.5-5.3,2.93
				s-5.21,1.49-7.82,1.35c-2.18-0.12-4.62-0.94-5.35-1.21c0.66,8.85,8.03,15.82,17.04,15.82C79.34,72.1,87,64.45,87,55
				c0-0.1-0.01-0.21-0.02-0.31C85.8,53.97,79.96,52.82,77.88,52.74z"/>
		</g>
		<linearGradient id="SVGID_3_" gradientUnits="userSpaceOnUse" x1="52.8609" y1="47.273" x2="87.0314" y2="47.273">
			<stop  offset="0" style="stop-color:#A0BE2F"/>
			<stop  offset="1" style="stop-color:#345D2D"/>
		</linearGradient>
		<path style="fill:url(#SVGID_3_);" d="M53.27,55.65c2.9,1.47,9.11,0.97,10.33,0.68s2.93-1.35,4.24-2.21
			c1.3-0.87,3.44-1.48,5.14-1.71c1.76-0.24,5.03-0.06,7.4,0.15c2.13,0.19,5.91,1.43,6.65,1.68c-0.41-9.09-7.88-16.33-17.07-16.33
			c-9.45,0-17.1,7.66-17.1,17.1c0,0.16,0.02,0.31,0.02,0.46C53,55.52,53.12,55.58,53.27,55.65z"/>
		<path class="st68" d="M59.86,54.86c0,0-2.99,0.97-4.67,0.64s-0.99-3.59-0.99-3.59s1.03-3.66,3.61-5.68
			c2.58-2.02,5.14-2.39,6.15-2.25c1.01,0.14,1.77,0.93,1.25,2.87C64.69,48.77,62.69,53.83,59.86,54.86z"/>
		<path class="st4" d="M55.04,54.71c0,0-0.7-1.21,0.12-2.84c0.83-1.63,2.34-3.06,3.8-3.07c1.47,0,1.88,0.33,1.44,1.8
			c-0.44,1.47-1.1,2.9-1.86,3.51S55.84,55.51,55.04,54.71z"/>
		<path class="st68" d="M60.62,58.89c0,0-2.93-0.78-4.58-0.51s-0.97,2.89-0.97,2.89s1.01,2.94,3.54,4.57s5.04,1.92,6.03,1.81
			c1-0.11,1.74-0.75,1.23-2.31C65.36,63.78,63.4,59.72,60.62,58.89z"/>
		<path class="st4" d="M55.89,59.01c0,0-0.69,0.98,0.12,2.28c0.81,1.31,2.29,2.46,3.73,2.46c1.44,0,1.84-0.26,1.41-1.45
			c-0.43-1.18-1.08-2.33-1.82-2.82C58.59,59,56.67,58.36,55.89,59.01z"/>
	</g>
	<g>
		<g>
			<path class="st69" d="M114.27,37.14c-1.75-1.16-4.24-1.73-6.94-1.73c-2.2,0-4.94,0.63-6.62,1.62c-2.17,1.27-2.4,2.01-3.15,3.82
				c-0.74,1.81-0.85,4.43-0.85,7.55v10.43c0,2.66-0.18,4.82,0.16,6.21s0.7,3.11,1.56,4.27s2.68,1.84,4.23,2.51
				c1.55,0.67,3.31,0.65,5.34,0.65c2.09,0,3.94-0.11,5.38-0.65c1.68-0.63,2.55-1.28,3.52-2.58c1.46-1.95,1.24-2.83,1.48-4.2
				c0.21-1.19,0.35-3.3,0.35-5.51v-0.64h-9.1v2.72c0,1.78-0.12,2.98-0.37,3.6c-0.25,0.62-0.73,0.93-1.46,0.93
				c-0.59,0-0.98-0.23-1.19-0.7c-0.21-0.47-0.31-1.51-0.31-3.13v-5.74h12.42v-6.74c0-3.47,0.06-6.68-0.64-8.59
				C117.38,39.32,116.02,38.29,114.27,37.14z M109.11,50.75h-2.8v-2.61c0-2.01,0.08-5.25,0.24-5.71c0.16-0.46,0.57-0.69,1.24-0.69
				c0.54,0,0.89,0.27,1.07,0.81c0.17,0.54,0.26,3.73,0.26,5.58V50.75z"/>
			<path class="st69" d="M132.4,37.32c0,0-0.97-1.38-5.96-1.92c-1.53-0.16-2.86,0.44-3.97,1.31c-1.11,0.87-1.82,1.88-2.13,3.03
				c-0.31,1.15-0.46,3.1-0.46,5.85v16.74c0,2.64,0.15,4.55,0.46,5.71c0.31,1.17,1.01,2.2,2.1,3.09s2.38,1.33,3.87,1.33
				c1.11,0,4.23,0.15,5.24-0.39s1.49-1.25,1.84-2.85v3.18h8.6V28.18h-9.6V37.32z M132.4,61.6c0,2-0.09,3.25-0.25,3.76
				c-0.17,0.51-0.51,0.77-1.01,0.77c-0.44,0-0.74-0.23-0.9-0.69c-0.16-0.46-0.23-1.42-0.23-2.87V45.05c0-1.4,0.08-2.3,0.24-2.71
				c0.16-0.4,0.48-0.61,0.95-0.61c0.48,0,0.8,0.23,0.97,0.67c0.16,0.45,0.24,1.33,0.24,2.64V61.6z"/>
			<rect x="143.41" y="28.18" class="st69" width="9.88" height="6.69"/>
			<rect x="143.41" y="36.05" class="st69" width="9.88" height="36.24"/>
			<path class="st69" d="M175.87,52.56c0-3.36,0.26-9.98-0.32-11.81c-0.59-1.83-1.66-2.62-3.81-3.9c-1.84-1.1-4.2-1.44-6.7-1.44
				c-2.52,0-5.32,0.97-7.08,2.18s-2.64,2.05-3.03,3.36c-0.47,1.57-0.56,4.25-0.56,7.29V58.4c0,3.49,0.05,6.81,0.71,8.71
				c0.66,1.9,1.77,2.79,3.35,3.84c1.58,1.05,4.02,1.52,6.73,1.52c2.12,0,3.81-0.14,5.36-0.65c2.46-0.81,3.49-1.7,4.39-3.2
				c0.89-1.5,0.78-3.57,0.94-5c0.17-1.43,0.01-4.66,0.02-7.52h-8.93v5.26c0,1.85-0.12,3.11-0.34,3.77c-0.23,0.67-0.29,1-0.94,1
				c-0.55,0-0.97-0.32-1.26-0.96c-0.28-0.64-0.43-1.59-0.43-2.87V45.43c0-1.56,0.09-2.57,0.29-3.02c0.19-0.45,0.56-0.67,1.12-0.67
				c0.55,0,0.93,0.26,1.14,0.77c0.21,0.51,0.31,1.49,0.31,2.92v7.12H175.87z"/>
			<path class="st69" d="M196.14,41.57v-5.66h-5.59v-6.63h-9.62v6.63h-3.07v5.66h3.07v19.17c0,3.56,0.09,5.82,0.26,6.78
				s0.62,1.81,1.33,2.56c0.71,0.75,1.16,1.23,2.1,1.74c0.93,0.5,2.86,1,5.05,1h5.87v-6.77c-1.57,0-4.46-0.13-4.67-0.4
				s-0.32-1.58-0.32-3.94V41.57H196.14z"/>
		</g>
		<g>
			<path class="st70" d="M133.4,36.32c0,0-0.97-1.38-5.96-1.92c-1.53-0.16-2.86,0.44-3.97,1.31c-1.11,0.87-1.82,1.88-2.13,3.03
				c-0.31,1.15-0.46,3.1-0.46,5.85v16.74c0,2.64,0.15,4.55,0.46,5.71c0.31,1.17,1.01,2.2,2.1,3.09s2.38,1.33,3.87,1.33
				c1.11,0,4.23,0.15,5.24-0.39s1.49-1.25,1.84-2.85v3.18h8.6V27.18h-9.6V36.32z M133.4,60.6c0,2-0.09,3.25-0.25,3.76
				c-0.17,0.51-0.51,0.77-1.01,0.77c-0.44,0-0.74-0.23-0.9-0.69c-0.16-0.46-0.23-1.42-0.23-2.87V44.05c0-1.4,0.08-2.3,0.24-2.71
				c0.16-0.4,0.48-0.61,0.95-0.61c0.48,0,0.8,0.23,0.97,0.67c0.16,0.45,0.24,1.33,0.24,2.64V60.6z"/>
			<path class="st70" d="M115.27,36.14c-1.75-1.16-4.24-1.73-6.94-1.73c-2.2,0-4.94,0.63-6.62,1.62c-2.17,1.27-2.4,2.01-3.15,3.82
				c-0.74,1.81-0.85,4.43-0.85,7.55v10.43c0,2.66-0.18,4.82,0.16,6.21s0.7,3.11,1.56,4.27s2.68,1.84,4.23,2.51
				c1.55,0.67,3.31,0.65,5.34,0.65c2.09,0,3.94-0.11,5.38-0.65c1.68-0.63,2.55-1.28,3.52-2.58c1.46-1.95,1.24-2.83,1.48-4.2
				c0.21-1.19,0.35-3.3,0.35-5.51v-0.64h-9.1v2.72c0,1.78-0.12,2.98-0.37,3.6c-0.25,0.62-0.73,0.93-1.46,0.93
				c-0.59,0-0.98-0.23-1.19-0.7c-0.21-0.47-0.31-1.51-0.31-3.13v-5.74h12.42v-6.74c0-3.47,0.06-6.68-0.64-8.59
				C118.38,38.32,117.02,37.29,115.27,36.14z M110.11,49.75h-2.8v-2.61c0-2.01,0.08-5.25,0.24-5.71c0.16-0.46,0.57-0.69,1.24-0.69
				c0.54,0,0.89,0.27,1.07,0.81c0.17,0.54,0.26,3.73,0.26,5.58V49.75z"/>
			<rect x="144.41" y="27.18" class="st70" width="9.88" height="6.69"/>
			<rect x="144.41" y="35.05" class="st70" width="9.88" height="36.24"/>
			<path class="st70" d="M176.87,51.56c0-3.36,0.26-9.98-0.32-11.81c-0.59-1.83-1.66-2.62-3.81-3.9c-1.84-1.1-4.2-1.44-6.7-1.44
				c-2.52,0-5.32,0.97-7.08,2.18s-2.64,2.05-3.03,3.36c-0.47,1.57-0.56,4.25-0.56,7.29V57.4c0,3.49,0.05,6.81,0.71,8.71
				c0.66,1.9,1.77,2.79,3.35,3.84c1.58,1.05,4.02,1.52,6.73,1.52c2.12,0,3.81-0.14,5.36-0.65c2.46-0.81,3.49-1.7,4.39-3.2
				c0.89-1.5,0.78-3.57,0.94-5c0.17-1.43,0.01-4.66,0.02-7.52h-8.93v5.26c0,1.85-0.12,3.11-0.34,3.77c-0.23,0.67-0.29,1-0.94,1
				c-0.55,0-0.97-0.32-1.26-0.96c-0.28-0.64-0.43-1.59-0.43-2.87V44.43c0-1.56,0.09-2.57,0.29-3.02c0.19-0.45,0.56-0.67,1.12-0.67
				c0.55,0,0.93,0.26,1.14,0.77c0.21,0.51,0.31,1.49,0.31,2.92v7.12H176.87z"/>
			<path class="st70" d="M197.14,40.57v-5.66h-5.59v-6.63h-9.62v6.63h-3.07v5.66h3.07v19.17c0,3.56,0.09,5.82,0.26,6.78
				s0.62,1.81,1.33,2.56c0.71,0.75,1.16,1.23,2.1,1.74c0.93,0.5,2.86,1,5.05,1h5.87v-6.77c-1.57,0-4.46-0.13-4.67-0.4
				s-0.32-1.58-0.32-3.94V40.57H197.14z"/>
		</g>
		<g>
			<rect x="144.41" y="27.18" class="st71" width="9.88" height="6.69"/>
			<path class="st71" d="M197.14,40.57v-5.66h-5.59v-6.63h-9.62v6.63h-3.07v5.66h3.07v19.17c0,3.56,0.09,5.82,0.26,6.78
				s0.62,1.81,1.33,2.56c0.71,0.75,1.16,1.23,2.1,1.74c0.93,0.5,2.86,1,5.05,1h5.87v-6.77c-1.57,0-4.46-0.13-4.67-0.4
				s-0.32-1.58-0.32-3.94V40.57H197.14z"/>
		</g>
		<g>
			<linearGradient id="SVGID_5_" gradientUnits="userSpaceOnUse" x1="115.1803" y1="50.0375" x2="115.1803" y2="68.5799">
				<stop  offset="0" style="stop-color:#A0BE2F"/>
				<stop  offset="1" style="stop-color:#345D2D"/>
			</linearGradient>
			<path style="fill:url(#SVGID_5_);" d="M110.63,60.6c0,0.12-0.01,0.22-0.01,0.34c2.87,1.1,5.9,2.14,8.78,2.92
				c0.19-1.22,0.33-3.22,0.33-5.33v-0.64h-9.1V60.6z"/>
			<linearGradient id="SVGID_6_" gradientUnits="userSpaceOnUse" x1="108.7224" y1="28.0103" x2="108.7224" y2="72.3348">
				<stop  offset="0" style="stop-color:#A0BE2F"/>
				<stop  offset="0.3777" style="stop-color:#7A9C2E"/>
				<stop  offset="1" style="stop-color:#345D2D"/>
			</linearGradient>
			<path style="fill:url(#SVGID_6_);" d="M115.27,36.14c-1.75-1.16-4.24-1.73-6.94-1.73c-2.2,0-4.94,0.63-6.62,1.62
				c-2.17,1.27-2.4,2.01-3.15,3.82c-0.74,1.81-0.85,4.43-0.85,7.55v7.89c1.23,0.61,4.97,2.42,9.6,4.33v-4.05h12.42v-6.74
				c0-3.47,0.06-6.68-0.64-8.59C118.38,38.32,117.02,37.29,115.27,36.14z M110.11,49.75h-2.8v-2.61c0-2.01,0.08-5.25,0.24-5.71
				c0.16-0.46,0.57-0.69,1.24-0.69c0.54,0,0.89,0.27,1.07,0.81c0.17,0.54,0.26,3.73,0.26,5.58V49.75z"/>
			<linearGradient id="SVGID_8_" gradientUnits="userSpaceOnUse" x1="131.9361" y1="27.2716" x2="131.9361" y2="73.0914">
				<stop  offset="0" style="stop-color:#A0BE2F"/>
				<stop  offset="0.3777" style="stop-color:#7A9C2E"/>
				<stop  offset="1" style="stop-color:#345D2D"/>
			</linearGradient>
			<path style="fill:url(#SVGID_8_);" d="M133.4,36.32c0,0-0.97-1.38-5.96-1.92c-1.53-0.16-2.86,0.44-3.97,1.31
				c-1.11,0.87-1.82,1.88-2.13,3.03c-0.31,1.15-0.46,3.1-0.46,5.85v16.74c0,1.1,0.03,2.07,0.08,2.92c2.15,0.51,4.17,0.84,5.93,0.88
				c4.6,0.12,10.04,0.6,16.11-0.34V27.18h-9.6V36.32z M133.4,60.6c0,2-0.09,3.25-0.25,3.76c-0.17,0.51-0.51,0.77-1.01,0.77
				c-0.44,0-0.74-0.23-0.9-0.69c-0.16-0.46-0.23-1.42-0.23-2.87V44.05c0-1.4,0.08-2.3,0.24-2.71c0.16-0.4,0.48-0.61,0.95-0.61
				c0.48,0,0.8,0.23,0.97,0.67c0.16,0.45,0.24,1.33,0.24,2.64V60.6z"/>
			<linearGradient id="SVGID_9_" gradientUnits="userSpaceOnUse" x1="149.3504" y1="27.1327" x2="149.3504" y2="73.8523">
				<stop  offset="0" style="stop-color:#A0BE2F"/>
				<stop  offset="1" style="stop-color:#345D2D"/>
			</linearGradient>
			<path style="fill:url(#SVGID_9_);" d="M144.41,64.55c3.14-0.6,6.45-1.6,9.88-3.25V35.05h-9.88V64.55z"/>
			<linearGradient id="SVGID_11_" gradientUnits="userSpaceOnUse" x1="150.995" y1="24.8267" x2="171.5341" y2="59.4546">
				<stop  offset="0" style="stop-color:#A0BE2F"/>
				<stop  offset="1" style="stop-color:#345D2D"/>
			</linearGradient>
			<path style="fill:url(#SVGID_11_);" d="M172.74,35.84c-1.84-1.1-4.2-1.44-6.7-1.44c-2.52,0-5.32,0.97-7.08,2.18
				s-2.64,2.05-3.03,3.36c-0.47,1.57-0.56,4.25-0.56,7.29V57.4c0,1.15,0.01,2.27,0.04,3.34c3.09-1.6,6.28-3.73,9.56-6.56v-9.74
				c0-1.56,0.09-2.57,0.29-3.02c0.19-0.45,0.56-0.67,1.12-0.67c0.55,0,0.93,0.26,1.14,0.77c0.21,0.51,0.31,1.49,0.31,2.92v7.12
				c2.85-2.78,5.94-4.68,9.11-5.95c0-2.5-0.07-4.88-0.38-5.86C175.96,37.91,174.89,37.12,172.74,35.84z"/>
			<linearGradient id="SVGID_12_" gradientUnits="userSpaceOnUse" x1="191.8516" y1="22.0253" x2="185.5708" y2="47.6957">
				<stop  offset="0" style="stop-color:#A0BE2F"/>
				<stop  offset="1" style="stop-color:#345D2D"/>
			</linearGradient>
			<path style="fill:url(#SVGID_12_);" d="M191.56,34.91v-6.63h-9.62v6.63h-3.07v5.66h3.07v3.54c3.29-0.67,6.56-0.78,9.62-0.56
				v-2.98h5.59v-5.66H191.56z"/>
			<linearGradient id="SVGID_14_" gradientUnits="userSpaceOnUse" x1="149.3504" y1="26.358" x2="149.3504" y2="85.6634">
				<stop  offset="0" style="stop-color:#A0BE2F"/>
				<stop  offset="1" style="stop-color:#345D2D"/>
			</linearGradient>
			<rect x="144.41" y="27.18" style="fill:url(#SVGID_14_);" width="9.88" height="6.69"/>
		</g>
		<path class="st71" d="M167.94,55.1v5.26c0,1.85-0.12,3.11-0.34,3.77c-0.23,0.67-0.29,1-0.94,1c-0.55,0-0.97-0.32-1.26-0.96
			c-0.28-0.64-0.43-1.59-0.43-2.87v-4.43c-1.73,1.6-5.21,4.76-9.19,8.03c0.08,0.44,0.18,0.85,0.3,1.19c0.66,1.9,1.77,2.79,3.35,3.84
			c1.58,1.05,4.02,1.52,6.73,1.52c2.12,0,3.81-0.14,5.36-0.65c2.46-0.81,3.49-1.7,4.39-3.2c0.89-1.5,0.78-3.57,0.94-5
			c0.17-1.43,0.01-4.66,0.02-7.52H167.94z"/>
		<path class="st71" d="M154.29,71.29v-4.75c-1.13,0.83-4.17,2.79-9.83,4.75H154.29z"/>
	</g>
</g>
</svg>
