<?xml version="1.0" encoding="utf-8"?>
<!-- Generator: Adobe Illustrator 23.1.0, SVG Export Plug-In . SVG Version: 6.00 Build 0)  -->
<svg version="1.1" id="Layer_1" xmlns="http://www.w3.org/2000/svg" xmlns:xlink="http://www.w3.org/1999/xlink" x="0px" y="0px"
	 viewBox="0 0 250 100" style="enable-background:new 0 0 250 100;" xml:space="preserve">
<style type="text/css">
	.st0{display:none;}
	.st1{display:inline;fill:#2F2F2F;}
	.st2{display:inline;enable-background:new    ;}
	.st3{fill:#FFFFFF;stroke:#EFEFEF;stroke-width:0.05;stroke-miterlimit:10;}
	.st4{fill:#FFFFFF;}
	.st5{fill:#FCC42C;}
	.st6{fill:#C23844;}
	.st7{fill:#FEFEFE;}
	.st8{fill:#FA4133;}
	.st9{fill:#F85F1D;}
	.st10{fill:#FC323A;}
	.st11{fill:#F99209;}
	.st12{fill:#FCFDFE;}
	.st13{fill:#F94D2D;}
	.st14{fill:#FA512A;}
	.st15{fill:#FB5C25;}
	.st16{fill:#F25710;}
	.st17{fill:#F9BB41;}
	.st18{fill:#FA6C1D;}
	.st19{fill:#F9BD51;}
	.st20{fill:#F97B16;}
	.st21{fill:#FB2841;}
	.st22{fill:#F9880F;}
	.st23{fill:#EE4A0B;}
	.st24{fill:#FAA052;}
	.st25{fill:#F57F41;}
	.st26{fill:#F99044;}
	.st27{fill:#F6B15B;}
	.st28{fill:#F99D06;}
	.st29{fill:#FBBE70;}
	.st30{fill:#FABE5F;}
	.st31{fill:#FBB067;}
	.st32{fill:#41AADF;}
	.st33{fill:#FBFBFB;}
	.st34{fill-rule:evenodd;clip-rule:evenodd;fill:url(#SVGID_1_);}
	.st35{fill:#A5CD39;}
	.st36{fill:#40AA8B;}
	.st37{fill-rule:evenodd;clip-rule:evenodd;fill:#A5CD39;}
	.st38{clip-path:url(#SVGID_3_);fill-rule:evenodd;clip-rule:evenodd;fill:#A5CD39;}
	.st39{opacity:0.36;clip-path:url(#SVGID_5_);fill-rule:evenodd;clip-rule:evenodd;fill:url(#SVGID_6_);enable-background:new    ;}
	.st40{opacity:0.71;clip-path:url(#SVGID_8_);fill-rule:evenodd;clip-rule:evenodd;fill:url(#SVGID_9_);enable-background:new    ;}
	
		.st41{opacity:0.79;clip-path:url(#SVGID_11_);fill-rule:evenodd;clip-rule:evenodd;fill:url(#SVGID_12_);enable-background:new    ;}
	
		.st42{opacity:0.47;clip-path:url(#SVGID_14_);fill-rule:evenodd;clip-rule:evenodd;fill:url(#SVGID_15_);enable-background:new    ;}
	
		.st43{opacity:0.61;clip-path:url(#SVGID_17_);fill-rule:evenodd;clip-rule:evenodd;fill:url(#SVGID_18_);enable-background:new    ;}
	
		.st44{opacity:0.66;clip-path:url(#SVGID_20_);fill-rule:evenodd;clip-rule:evenodd;fill:url(#SVGID_21_);enable-background:new    ;}
	
		.st45{opacity:0.39;clip-path:url(#SVGID_23_);fill-rule:evenodd;clip-rule:evenodd;fill:url(#SVGID_24_);enable-background:new    ;}
	.st46{fill:#73B73E;}
	.st47{fill:#F26922;}
	.st48{fill-rule:evenodd;clip-rule:evenodd;fill:#FFFFFF;}
	.st49{fill:#F19021;}
	.st50{fill:#E9148D;}
	.st51{fill:#2BAEE4;}
	.st52{fill:#13B6A7;}
	.st53{fill:#FEE700;}
	.st54{fill:#EC242A;}
	.st55{fill:#FCB34B;}
	.st56{fill-rule:evenodd;clip-rule:evenodd;fill:#F6F6F6;}
	.st57{fill-rule:evenodd;clip-rule:evenodd;fill:#D71920;}
	.st58{fill:#63A844;}
	.st59{fill:#DF2D38;}
	.st60{fill:#7C8080;}
	.st61{fill:#A3A3A3;}
	.st62{fill:url(#SVGID_25_);}
	.st63{fill:url(#SVGID_26_);}
	.st64{fill:url(#SVGID_27_);}
	.st65{fill:#EF612A;}
	.st66{fill:url(#SVGID_28_);}
	.st67{fill:url(#SVGID_29_);}
	.st68{opacity:0.5;fill:#FFFFFF;}
	.st69{fill:#363833;}
	.st70{fill:#5998A9;}
	.st71{fill:#80B3CB;}
	.st72{fill:url(#SVGID_30_);}
	.st73{fill:url(#SVGID_31_);}
	.st74{fill:url(#SVGID_32_);}
	.st75{fill:url(#SVGID_33_);}
	.st76{fill:url(#SVGID_34_);}
	.st77{fill:url(#SVGID_35_);}
	.st78{fill:url(#SVGID_36_);}
	.st79{fill:#FFC20E;}
</style>
<g class="st0">
	<rect x="-0.05" class="st1" width="250" height="100"/>
</g>
<g>
	
		<linearGradient id="SVGID_1_" gradientUnits="userSpaceOnUse" x1="103.6341" y1="194.2297" x2="77.4045" y2="148.7987" gradientTransform="matrix(1 0 0 -1 0 222)">
		<stop  offset="0" style="stop-color:#00A48B"/>
		<stop  offset="0.9995" style="stop-color:#A5CD39"/>
	</linearGradient>
	<path class="st34" d="M67.01,50.52c0-5.44,5.18-12.51,14.03-16.31c15.42-6.7,24.27-0.51,26.54,5.31
		c2.15,5.44-2.15,15.17-9.35,22.25c5.18-3.79,9.48-7.71,12.39-11.63c3.92-5.18,5.56-10.11,4.04-14.03
		c-2.15-5.69-10.87-7.58-21.74-6.07c-10.87,1.52-19.21,4.3-25.91,7.84c-7.58,3.79-11.38,8.22-12.01,13.4
		c-0.76,7.46,7.33,17.57,25.66,18.83c9.61,0.63,18.96,0.88,36.78-3.54C115.29,66.7,66.88,72.76,67.01,50.52z"/>
	<g>
		<path class="st35" d="M141.71,31.56v5.06H129.2v5.18h11.25v4.8H129.2v5.18h12.89v4.93h-18.58V31.56H141.71z"/>
		<path class="st35" d="M165.22,43.82h5.69v8.97c-2.53,2.78-5.94,4.17-10.36,4.17c-3.67,0-6.83-1.26-9.35-3.67s-3.79-5.56-3.79-9.23
			c0-3.79,1.26-6.83,3.79-9.35s5.69-3.79,9.23-3.79c3.67,0,6.7,1.14,9.35,3.54l-2.91,4.17c-1.14-1.01-2.15-1.64-3.16-2.02
			c-0.88-0.38-2.02-0.51-3.03-0.51c-2.15,0-3.92,0.76-5.44,2.15c-1.52,1.39-2.15,3.41-2.15,5.69c0,2.28,0.76,4.3,2.15,5.69
			c1.39,1.39,3.03,2.15,5.06,2.15c1.9,0,3.54-0.38,4.8-1.14v-6.83H165.22z"/>
		<path class="st35" d="M187.85,36.36v20.35h-5.56V36.36h-7.08v-4.8h19.85v4.8H187.85z"/>
	</g>
	<g>
		<path class="st36" d="M123.63,62.91h1.01v6.32h-1.01V62.91z"/>
		<path class="st36" d="M132.1,62.91h1.01v6.32h-1.14l-3.54-4.55v4.55h-1.01v-6.32h1.01l3.67,4.68V62.91z"/>
		<path class="st36" d="M138.17,63.92v5.31h-1.01v-5.31h-1.9v-1.01h4.93v1.01C140.19,63.92,138.17,63.92,138.17,63.92z"/>
		<path class="st36" d="M146.51,62.91v1.01h-3.41v1.64h3.03v0.88h-3.03v1.64h3.54v1.01h-4.55v-6.32h4.42V62.91z"/>
		<path class="st36" d="M153.97,65.05c0,1.01-0.51,1.64-1.39,2.02l1.64,2.28h-1.39l-1.52-2.15h-1.39v2.15h-1.01v-6.32h2.4
			c1.01,0,1.64,0.13,2.02,0.51C153.72,63.79,153.97,64.3,153.97,65.05z M152.58,65.94c0.25-0.13,0.38-0.51,0.38-0.88
			c0-0.38-0.13-0.63-0.38-0.88c-0.25-0.13-0.63-0.25-1.14-0.25h-1.39v2.28h1.26C151.95,66.19,152.33,66.07,152.58,65.94z"/>
		<path class="st36" d="M157.26,67.84l-0.63,1.39h-1.14l2.78-6.32h1.14l2.78,6.32h-1.14l-0.63-1.39H157.26z M160.04,66.82
			l-1.14-2.65l-1.14,2.65H160.04z"/>
		<path class="st36" d="M166.86,68.34c0.38,0,0.63,0,0.88-0.13c0.25-0.13,0.51-0.38,0.88-0.63l0.63,0.76
			c-0.63,0.76-1.52,1.14-2.4,1.14c-1.01,0-1.77-0.25-2.4-0.88c-0.63-0.63-0.88-1.39-0.88-2.28s0.38-1.77,1.01-2.4
			c0.63-0.63,1.39-0.88,2.4-0.88c1.01,0,1.77,0.38,2.4,1.14l-0.63,0.76c-0.25-0.25-0.63-0.51-0.88-0.63
			c-0.25-0.13-0.63-0.13-0.88-0.13c-0.63,0-1.14,0.25-1.64,0.63c-0.38,0.38-0.63,0.88-0.63,1.52s0.25,1.14,0.63,1.64
			C165.73,68.09,166.23,68.34,166.86,68.34z"/>
		<path class="st36" d="M173.94,63.92v5.31h-1.01v-5.31h-1.9v-1.01h4.93v1.01C175.96,63.92,173.94,63.92,173.94,63.92z"/>
		<path class="st36" d="M177.86,62.91h1.01v6.32h-1.01V62.91z"/>
		<path class="st36" d="M184.43,69.23h-1.14l-2.53-6.32h1.14l1.9,4.68l1.9-4.68h1.14L184.43,69.23z"/>
		<path class="st36" d="M193.28,62.91v1.01h-3.41v1.64h3.03v0.88h-3.03v1.64h3.41v1.01h-4.55v-6.32h4.55V62.91z"/>
	</g>
	<path class="st37" d="M84.83,59.24c5.69,0,10.49-4.68,10.49-10.49c0-5.69-4.68-10.49-10.49-10.49c-5.69,0-10.49,4.68-10.49,10.49
		C74.46,54.56,79.14,59.24,84.83,59.24L84.83,59.24z"/>
	<g>
		<g>
			<defs>
				<path id="SVGID_2_" d="M84.83,59.24c5.81,0,10.49-4.68,10.49-10.49s-4.68-10.49-10.49-10.49c-5.81,0-10.49,4.68-10.49,10.49
					C74.46,54.56,79.14,59.24,84.83,59.24L84.83,59.24z"/>
			</defs>
			<clipPath id="SVGID_3_">
				<use xlink:href="#SVGID_2_"  style="overflow:visible;"/>
			</clipPath>
			<path class="st38" d="M84.83,58.99c5.81,0,10.49-4.68,10.49-10.49S90.64,38,84.83,38c-5.81,0-10.49,4.68-10.49,10.49
				C74.46,54.31,79.14,58.99,84.83,58.99L84.83,58.99z"/>
		</g>
		<g>
			<defs>
				<path id="SVGID_4_" d="M84.83,59.24c5.81,0,10.49-4.68,10.49-10.49s-4.68-10.49-10.49-10.49c-5.81,0-10.49,4.68-10.49,10.49
					C74.46,54.56,79.14,59.24,84.83,59.24L84.83,59.24z"/>
			</defs>
			<clipPath id="SVGID_5_">
				<use xlink:href="#SVGID_4_"  style="overflow:visible;"/>
			</clipPath>
			
				<linearGradient id="SVGID_6_" gradientUnits="userSpaceOnUse" x1="67.8904" y1="180.0775" x2="92.4125" y2="180.0775" gradientTransform="matrix(1 0 0 -1 0 222)">
				<stop  offset="0" style="stop-color:#0092C0"/>
				<stop  offset="0.9995" style="stop-color:#A5CD39"/>
			</linearGradient>
			<path class="st39" d="M80.15,54.18c6.7,0,12.26-5.56,12.26-12.26s-5.56-12.26-12.26-12.26c-6.7,0-12.26,5.56-12.26,12.26
				S73.33,54.18,80.15,54.18L80.15,54.18z"/>
		</g>
		<g>
			<defs>
				<path id="SVGID_7_" d="M84.83,59.24c5.81,0,10.49-4.68,10.49-10.49s-4.68-10.49-10.49-10.49c-5.81,0-10.49,4.68-10.49,10.49
					C74.46,54.56,79.14,59.24,84.83,59.24L84.83,59.24z"/>
			</defs>
			<clipPath id="SVGID_8_">
				<use xlink:href="#SVGID_7_"  style="overflow:visible;"/>
			</clipPath>
			
				<linearGradient id="SVGID_9_" gradientUnits="userSpaceOnUse" x1="92.5931" y1="168.6302" x2="82.922" y2="185.3813" gradientTransform="matrix(1 0 0 -1 0 222)">
				<stop  offset="0" style="stop-color:#91C73E"/>
				<stop  offset="1" style="stop-color:#0092C0"/>
			</linearGradient>
			<path class="st40" d="M87.74,54.69c5.31,0,9.61-4.3,9.61-9.73s-4.3-9.73-9.61-9.73s-9.61,4.3-9.61,9.73S82.43,54.69,87.74,54.69
				L87.74,54.69z"/>
		</g>
	</g>
	<g>
		<g>
			<defs>
				<path id="SVGID_10_" d="M141.71,31.56v5.06H129.2v5.18h11.25v4.8H129.2v5.18h12.89v4.93h-18.58V31.56H141.71z M165.22,43.82
					h5.69v8.97c-2.53,2.78-5.94,4.17-10.36,4.17c-3.67,0-6.83-1.26-9.35-3.67s-3.79-5.56-3.79-9.23c0-3.79,1.26-6.83,3.79-9.35
					s5.69-3.79,9.23-3.79c3.67,0,6.7,1.14,9.35,3.54l-2.91,4.17c-1.14-1.01-2.15-1.64-3.16-2.02c-0.88-0.38-2.02-0.51-3.03-0.51
					c-2.15,0-3.92,0.76-5.44,2.15c-1.52,1.39-2.15,3.41-2.15,5.69c0,2.28,0.76,4.3,2.15,5.69c1.39,1.39,3.03,2.15,5.06,2.15
					c1.9,0,3.54-0.38,4.8-1.14v-6.83H165.22z M187.85,36.36v20.35h-5.56V36.36h-7.08v-4.8h19.85v4.8H187.85z"/>
			</defs>
			<clipPath id="SVGID_11_">
				<use xlink:href="#SVGID_10_"  style="overflow:visible;"/>
			</clipPath>
			
				<linearGradient id="SVGID_12_" gradientUnits="userSpaceOnUse" x1="121.3587" y1="172.5565" x2="167.8748" y2="172.5565" gradientTransform="matrix(1 0 0 -1 0 222)">
				<stop  offset="0" style="stop-color:#0092C0"/>
				<stop  offset="0.9995" style="stop-color:#A5CD39"/>
			</linearGradient>
			<path class="st41" d="M167.87,57.09c-1.26-8.6-11.25-15.29-23.26-15.29s-21.99,6.7-23.26,15.29H167.87z"/>
		</g>
		<g>
			<defs>
				<path id="SVGID_13_" d="M141.71,31.56v5.06H129.2v5.18h11.25v4.8H129.2v5.18h12.89v4.93h-18.58V31.56H141.71z M165.22,43.82
					h5.69v8.97c-2.53,2.78-5.94,4.17-10.36,4.17c-3.67,0-6.83-1.26-9.35-3.67s-3.79-5.56-3.79-9.23c0-3.79,1.26-6.83,3.79-9.35
					s5.69-3.79,9.23-3.79c3.67,0,6.7,1.14,9.35,3.54l-2.91,4.17c-1.14-1.01-2.15-1.64-3.16-2.02c-0.88-0.38-2.02-0.51-3.03-0.51
					c-2.15,0-3.92,0.76-5.44,2.15c-1.52,1.39-2.15,3.41-2.15,5.69c0,2.28,0.76,4.3,2.15,5.69c1.39,1.39,3.03,2.15,5.06,2.15
					c1.9,0,3.54-0.38,4.8-1.14v-6.83H165.22z M187.85,36.36v20.35h-5.56V36.36h-7.08v-4.8h19.85v4.8H187.85z"/>
			</defs>
			<clipPath id="SVGID_14_">
				<use xlink:href="#SVGID_13_"  style="overflow:visible;"/>
			</clipPath>
			
				<linearGradient id="SVGID_15_" gradientUnits="userSpaceOnUse" x1="198.3706" y1="167.2062" x2="178.8386" y2="192.206" gradientTransform="matrix(1 0 0 -1 0 222)">
				<stop  offset="0" style="stop-color:#0092C0"/>
				<stop  offset="0.9995" style="stop-color:#A5CD39"/>
			</linearGradient>
			<path class="st42" d="M176.85,31.3c-2.78,5.18-1.9,12.64,2.65,18.58c4.17,5.31,10.24,7.96,15.55,7.46V31.3H176.85z"/>
		</g>
		<g>
			<defs>
				<path id="SVGID_16_" d="M141.71,31.56v5.06H129.2v5.18h11.25v4.8H129.2v5.18h12.89v4.93h-18.58V31.56H141.71z M165.22,43.82
					h5.69v8.97c-2.53,2.78-5.94,4.17-10.36,4.17c-3.67,0-6.83-1.26-9.35-3.67s-3.79-5.56-3.79-9.23c0-3.79,1.26-6.83,3.79-9.35
					s5.69-3.79,9.23-3.79c3.67,0,6.7,1.14,9.35,3.54l-2.91,4.17c-1.14-1.01-2.15-1.64-3.16-2.02c-0.88-0.38-2.02-0.51-3.03-0.51
					c-2.15,0-3.92,0.76-5.44,2.15c-1.52,1.39-2.15,3.41-2.15,5.69c0,2.28,0.76,4.3,2.15,5.69c1.39,1.39,3.03,2.15,5.06,2.15
					c1.9,0,3.54-0.38,4.8-1.14v-6.83H165.22z M187.85,36.36v20.35h-5.56V36.36h-7.08v-4.8h19.85v4.8H187.85z"/>
			</defs>
			<clipPath id="SVGID_17_">
				<use xlink:href="#SVGID_16_"  style="overflow:visible;"/>
			</clipPath>
			
				<linearGradient id="SVGID_18_" gradientUnits="userSpaceOnUse" x1="150.2062" y1="174.1019" x2="169.1541" y2="189.4456" gradientTransform="matrix(1 0 0 -1 0 222)">
				<stop  offset="0" style="stop-color:#0092C0"/>
				<stop  offset="0.9995" style="stop-color:#A5CD39"/>
			</linearGradient>
			<path class="st43" d="M167.75,30.8h-15.42c-4.93,4.68-6.7,11.38-2.15,16.94c4.17,5.18,11.88,5.81,17.19,1.64
				c5.44-4.3,5.06-12.77,0.88-17.95C168.13,31.18,167.87,31.05,167.75,30.8z"/>
		</g>
		<g>
			<defs>
				<path id="SVGID_19_" d="M141.71,31.56v5.06H129.2v5.18h11.25v4.8H129.2v5.18h12.89v4.93h-18.58V31.56H141.71z M165.22,43.82
					h5.69v8.97c-2.53,2.78-5.94,4.17-10.36,4.17c-3.67,0-6.83-1.26-9.35-3.67s-3.79-5.56-3.79-9.23c0-3.79,1.26-6.83,3.79-9.35
					s5.69-3.79,9.23-3.79c3.67,0,6.7,1.14,9.35,3.54l-2.91,4.17c-1.14-1.01-2.15-1.64-3.16-2.02c-0.88-0.38-2.02-0.51-3.03-0.51
					c-2.15,0-3.92,0.76-5.44,2.15c-1.52,1.39-2.15,3.41-2.15,5.69c0,2.28,0.76,4.3,2.15,5.69c1.39,1.39,3.03,2.15,5.06,2.15
					c1.9,0,3.54-0.38,4.8-1.14v-6.83H165.22z M187.85,36.36v20.35h-5.56V36.36h-7.08v-4.8h19.85v4.8H187.85z"/>
			</defs>
			<clipPath id="SVGID_20_">
				<use xlink:href="#SVGID_19_"  style="overflow:visible;"/>
			</clipPath>
			
				<linearGradient id="SVGID_21_" gradientUnits="userSpaceOnUse" x1="179.0459" y1="166.7457" x2="198.9291" y2="182.8467" gradientTransform="matrix(1 0 0 -1 0 222)">
				<stop  offset="0" style="stop-color:#0092C0"/>
				<stop  offset="0.9995" style="stop-color:#A5CD39"/>
			</linearGradient>
			<path class="st44" d="M195.18,34.46c-3.79-0.76-8.34,0.38-12.13,3.41c-6.07,4.8-7.84,12.51-4.04,17.32
				c3.41,4.3,10.37,4.68,16.18,1.14C195.18,56.33,195.18,34.46,195.18,34.46z"/>
		</g>
		<g>
			<defs>
				<path id="SVGID_22_" d="M141.71,31.56v5.06H129.2v5.18h11.25v4.8H129.2v5.18h12.89v4.93h-18.58V31.56H141.71z M165.22,43.82
					h5.69v8.97c-2.53,2.78-5.94,4.17-10.36,4.17c-3.67,0-6.83-1.26-9.35-3.67s-3.79-5.56-3.79-9.23c0-3.79,1.26-6.83,3.79-9.35
					s5.69-3.79,9.23-3.79c3.67,0,6.7,1.14,9.35,3.54l-2.91,4.17c-1.14-1.01-2.15-1.64-3.16-2.02c-0.88-0.38-2.02-0.51-3.03-0.51
					c-2.15,0-3.92,0.76-5.44,2.15c-1.52,1.39-2.15,3.41-2.15,5.69c0,2.28,0.76,4.3,2.15,5.69c1.39,1.39,3.03,2.15,5.06,2.15
					c1.9,0,3.54-0.38,4.8-1.14v-6.83H165.22z M187.85,36.36v20.35h-5.56V36.36h-7.08v-4.8h19.85v4.8H187.85z"/>
			</defs>
			<clipPath id="SVGID_23_">
				<use xlink:href="#SVGID_22_"  style="overflow:visible;"/>
			</clipPath>
			
				<linearGradient id="SVGID_24_" gradientUnits="userSpaceOnUse" x1="117.4371" y1="191.7841" x2="144.3565" y2="169.9853" gradientTransform="matrix(1 0 0 -1 0 222)">
				<stop  offset="0" style="stop-color:#0092C0"/>
				<stop  offset="0.9995" style="stop-color:#A5CD39"/>
			</linearGradient>
			<path class="st45" d="M116.56,31.3c-3.79,6.19-1.64,15.17,5.18,20.86c7.33,6.07,17.44,6.07,22.5,0
				c4.68-5.69,3.41-14.66-2.65-20.86C141.58,31.3,116.56,31.3,116.56,31.3z"/>
		</g>
	</g>
</g>
</svg>
