<?xml version="1.0" encoding="utf-8"?>
<!-- Generator: Adobe Illustrator 23.1.0, SVG Export Plug-In . SVG Version: 6.00 Build 0)  -->
<svg version="1.1" id="Layer_1" xmlns="http://www.w3.org/2000/svg" xmlns:xlink="http://www.w3.org/1999/xlink" x="0px" y="0px"
	 viewBox="0 0 250 100" style="enable-background:new 0 0 250 100;" xml:space="preserve">
<style type="text/css">
	.st0{display:none;}
	.st1{display:inline;fill:#2F2F2F;}
	.st2{display:inline;enable-background:new    ;}
	.st3{fill:#FFFFFF;stroke:#EFEFEF;stroke-width:0.05;stroke-miterlimit:10;}
	.st4{fill:#FFFFFF;}
	.st5{fill:#FCC42C;}
	.st6{fill:#C23844;}
	.st7{fill:#FEFEFE;}
	.st8{fill:#FA4133;}
	.st9{fill:#F85F1D;}
	.st10{fill:#FC323A;}
	.st11{fill:#F99209;}
	.st12{fill:#FCFDFE;}
	.st13{fill:#F94D2D;}
	.st14{fill:#FA512A;}
	.st15{fill:#FB5C25;}
	.st16{fill:#F25710;}
	.st17{fill:#F9BB41;}
	.st18{fill:#FA6C1D;}
	.st19{fill:#F9BD51;}
	.st20{fill:#F97B16;}
	.st21{fill:#FB2841;}
	.st22{fill:#F9880F;}
	.st23{fill:#EE4A0B;}
	.st24{fill:#FAA052;}
	.st25{fill:#F57F41;}
	.st26{fill:#F99044;}
	.st27{fill:#F6B15B;}
	.st28{fill:#F99D06;}
	.st29{fill:#FBBE70;}
	.st30{fill:#FABE5F;}
	.st31{fill:#FBB067;}
	.st32{fill:#41AADF;}
	.st33{fill:#FBFBFB;}
	.st34{fill-rule:evenodd;clip-rule:evenodd;fill:url(#SVGID_1_);}
	.st35{fill:#A5CD39;}
	.st36{fill:#40AA8B;}
	.st37{fill-rule:evenodd;clip-rule:evenodd;fill:#A5CD39;}
	.st38{clip-path:url(#SVGID_3_);fill-rule:evenodd;clip-rule:evenodd;fill:#A5CD39;}
	.st39{opacity:0.36;clip-path:url(#SVGID_5_);fill-rule:evenodd;clip-rule:evenodd;fill:url(#SVGID_6_);enable-background:new    ;}
	.st40{opacity:0.71;clip-path:url(#SVGID_8_);fill-rule:evenodd;clip-rule:evenodd;fill:url(#SVGID_9_);enable-background:new    ;}
	
		.st41{opacity:0.79;clip-path:url(#SVGID_11_);fill-rule:evenodd;clip-rule:evenodd;fill:url(#SVGID_12_);enable-background:new    ;}
	
		.st42{opacity:0.47;clip-path:url(#SVGID_14_);fill-rule:evenodd;clip-rule:evenodd;fill:url(#SVGID_15_);enable-background:new    ;}
	
		.st43{opacity:0.61;clip-path:url(#SVGID_17_);fill-rule:evenodd;clip-rule:evenodd;fill:url(#SVGID_18_);enable-background:new    ;}
	
		.st44{opacity:0.66;clip-path:url(#SVGID_20_);fill-rule:evenodd;clip-rule:evenodd;fill:url(#SVGID_21_);enable-background:new    ;}
	
		.st45{opacity:0.39;clip-path:url(#SVGID_23_);fill-rule:evenodd;clip-rule:evenodd;fill:url(#SVGID_24_);enable-background:new    ;}
	.st46{fill:#73B73E;}
	.st47{fill:#F26922;}
	.st48{fill-rule:evenodd;clip-rule:evenodd;fill:#FFFFFF;}
	.st49{fill:#F19021;}
	.st50{fill:#E9148D;}
	.st51{fill:#2BAEE4;}
	.st52{fill:#13B6A7;}
	.st53{fill:#FEE700;}
	.st54{fill:#EC242A;}
	.st55{fill:#FCB34B;}
	.st56{fill-rule:evenodd;clip-rule:evenodd;fill:#F6F6F6;}
	.st57{fill-rule:evenodd;clip-rule:evenodd;fill:#D71920;}
	.st58{fill:#63A844;}
	.st59{fill:#DF2D38;}
	.st60{fill:#7C8080;}
	.st61{fill:#A3A3A3;}
	.st62{fill:url(#SVGID_25_);}
	.st63{fill:url(#SVGID_26_);}
	.st64{fill:url(#SVGID_27_);}
	.st65{fill:#EF612A;}
	.st66{fill:url(#SVGID_28_);}
	.st67{fill:url(#SVGID_29_);}
	.st68{opacity:0.5;fill:#FFFFFF;}
	.st69{fill:#363833;}
	.st70{fill:#5998A9;}
	.st71{fill:#80B3CB;}
	.st72{fill:url(#SVGID_30_);}
	.st73{fill:url(#SVGID_31_);}
	.st74{fill:url(#SVGID_32_);}
	.st75{fill:url(#SVGID_33_);}
	.st76{fill:url(#SVGID_34_);}
	.st77{fill:url(#SVGID_35_);}
	.st78{fill:url(#SVGID_36_);}
	.st79{fill:#FFC20E;}
</style>
<g class="st0">
	<rect class="st1" width="250" height="100"/>
</g>
<g>
	<path class="st48" d="M72.96,72.83c2.22,0,3.04-1.24,3.04-2.42c0-3.08-4.88-2.01-4.88-3.87c0-0.78,0.72-1.31,1.69-1.31
		c0.9,0,1.77,0.3,2.39,0.99l0.62-0.75c-0.69-0.73-1.67-1.16-2.92-1.16c-1.63,0-2.84,0.94-2.84,2.3c0,2.94,4.88,1.76,4.88,3.88
		c0,0.64-0.47,1.43-1.94,1.43c-0.99,0-1.94-0.43-2.58-1.19l-0.62,0.79C70.47,72.28,71.54,72.83,72.96,72.83 M90.41,72.68v-7.33h2.62
		v-0.92h-6.25v0.92h2.61v7.33H90.41 M107.64,72.83c2.24,0,3.37-1.31,3.37-3.36v-5.03h-1.04v5.02c0,1.51-0.82,2.46-2.34,2.46
		s-2.32-0.95-2.32-2.46v-5.02h-1.04v5.04C104.28,71.5,105.42,72.83,107.64,72.83 M125.65,71.76h-1.79v-6.41h1.79
		c2.04,0,3.16,1.43,3.16,3.21C128.81,70.33,127.65,71.76,125.65,71.76z M125.65,72.68c2.57,0,4.23-1.77,4.23-4.11
		c0-2.34-1.66-4.13-4.23-4.13h-2.82v8.24C122.83,72.68,125.65,72.68,125.65,72.68z M141.37,72.68h1.03v-8.24h-1.03V72.68z
		 M157.97,71.91c-1.85,0-3.03-1.43-3.03-3.35c0-1.93,1.17-3.35,3.03-3.35c1.84,0,3.04,1.42,3.04,3.35
		C161.01,70.48,159.81,71.91,157.97,71.91z M157.97,72.83c2.43,0,4.1-1.83,4.1-4.26c0-2.44-1.67-4.26-4.1-4.26
		c-2.43,0-4.09,1.83-4.09,4.26C153.88,71,155.53,72.83,157.97,72.83z M176.23,72.83c2.23,0,3.04-1.24,3.04-2.42
		c0-3.08-4.88-2.01-4.88-3.87c0-0.78,0.72-1.31,1.69-1.31c0.9,0,1.77,0.3,2.39,0.99l0.62-0.75c-0.69-0.73-1.67-1.16-2.92-1.16
		c-1.63,0-2.84,0.94-2.84,2.3c0,2.94,4.88,1.76,4.88,3.88c0,0.64-0.47,1.43-1.94,1.43c-0.99,0-1.94-0.43-2.58-1.19l-0.62,0.79
		C173.74,72.28,174.8,72.83,176.23,72.83 M151.15,47.2l-0.02,9.13h-9.65l-35.68,0.09v0H76.9c-0.1,0-0.21,0.01-0.31,0.01
		c-1.08,0-3.79-0.22-5.73-2.27c-2.15-2.27-2.2-5.03-2.2-5.45l0-11.64c-0.03-0.59-0.04-3.5,2.17-5.9c1.82-1.97,4.66-2.13,5.49-2.13
		l39.7-0.04v17.3h23.35V29.14h11.77l-0.04,8.1l11.3-8.1h15.56l-16.24,13.42l16.41,13.77h-16.09L151.15,47.2z M164.59,42.57
		l18.46-15.26h-21.24l-8.86,6.35l0.03-6.35h-15.44v17.17h-19.69v-17.3l-41.53,0.04c-1.02,0-4.51,0.2-6.83,2.72
		c-2.6,2.82-2.69,6.15-2.65,7.17l0,11.59c-0.01,0.67,0.1,3.98,2.7,6.72c2.43,2.57,5.75,2.85,7.06,2.85l31.04-0.01v0l35.68-0.09h9.65
		l0.01-7.05l8.42,7.05h21.78C183.17,58.16,164.59,42.57,164.59,42.57z"/>
	<path class="st48" d="M103.97,30.88v6.41H80.35c0,0-0.71-0.04-1.14,0.43c-0.41,0.45-0.37,1.07-0.37,1.07l0,0.88h25.09v6.27h-25.1
		l0.01,0.86c0,0,0.02,0.63,0.4,0.97c0.52,0.46,1,0.42,1,0.42h23.74v6.41H76.85c0,0-2.86,0.21-4.66-1.69
		c-1.75-1.85-1.7-4.18-1.7-4.18l0-11.71c0,0-0.17-2.58,1.69-4.61c1.5-1.63,4.22-1.54,4.22-1.54L103.97,30.88 M105.91,30.83h8.29
		v17.31h25.45v6.45h-33.74V30.83 M162.99,30.97h9.89l-14.01,11.58l14.24,11.95h-10.39l-13.39-11.22l-0.02,11.22h-8.1V30.97h8.1
		l-0.05,9.84L162.99,30.97"/>
</g>
</svg>
