<svg xmlns="http://www.w3.org/2000/svg" width="392" height="48" viewBox="0 0 392 48">
  <defs>
    <linearGradient id="evolution-gaming-a" x1="49.359%" x2="40.977%" y1="56.659%" y2="109.282%">
      <stop offset="0%" stop-color="#DADCDF"/>
      <stop offset="100%" stop-color="#A8A8A8"/>
    </linearGradient>
    <linearGradient id="evolution-gaming-b" x1="56.146%" x2="47.763%" y1="9.107%" y2="61.762%">
      <stop offset="0%" stop-color="#DADCDF"/>
      <stop offset="100%" stop-color="#A8A8A8"/>
    </linearGradient>
    <radialGradient id="evolution-gaming-c" cx="30.177%" cy="52.275%" r="92.737%" fx="30.177%" fy="52.275%" gradientTransform="matrix(1 0 0 .84698 0 .08)">
      <stop offset="0%" stop-color="#C2C2C2"/>
      <stop offset="22%" stop-color="#BDBDBD"/>
      <stop offset="46%" stop-color="#B0B0B0"/>
      <stop offset="72%" stop-color="#999"/>
      <stop offset="99%" stop-color="#7A7A7A"/>
      <stop offset="100%" stop-color="#787878"/>
    </radialGradient>
  </defs>
  <g fill="none">
    <path fill="#FFF" d="M36.36,3.96 L63.76,3.96 L64.44,13.24 L62.82,13.24 C62.18,9.42 62.1,8.64 60.7,7.14 C59.3,5.64 56.54,5.8 54.3,5.8 L47.28,5.8 C46.8,5.76 46.34,5.94 46,6.26 C45.68,6.66 45.52,7.16 45.56,7.66 L45.56,19.42 L48.6,19.42 C50.14,19.46 51.6,18.82 52.6,17.66 C53.76,16.1 54.34,14.18 54.26,12.22 L55.94,12.22 L55.94,28.82 L54.26,28.82 C54.18,26.08 53.62,24.1 52.58,22.92 C51.5,21.72 49.94,21.06 48.34,21.14 L45.54,21.14 L45.54,34.44 C45.52,34.9 45.7,35.34 46.06,35.62 C46.58,35.94 47.18,36.08 47.78,36.04 L53.32,36.04 C59.34,36.04 62.8,34.08 63.72,26.38 L65.46,26.38 L64.86,37.84 L36.36,37.84 L36.36,36.04 L37.88,36.04 C38.6,36.12 39.32,35.94 39.92,35.54 C40.32,35.18 40.54,34.64 40.5,34.1 L40.5,7.64 C40.54,7.12 40.36,6.62 40,6.24 C39.54,5.9 38.98,5.72 38.4,5.78 L36.36,5.78 L36.36,3.96 Z"/>
    <path fill="#FFF" d="M63.28 15.2L75.68 15.2 75.68 16.84C74.72 16.78 73.76 16.92 72.84 17.24 72.46 17.42 72.2 17.82 72.22 18.26 72.22 18.62 72.32 18.96 72.46 19.28L78.48 32.68 83.96 19.68C84.04 19.46 84.08 19.24 84.08 19 84.08 17.82 82.92 17.08 80.6 16.8L80.6 15.16 90 15.16 90 16.8C89.18 16.84 88.4 17.12 87.72 17.58 87.14 18.02 86.68 18.6 86.42 19.28L78.1 38.56 76.8 38.56 67.86 18.76C67.62 18.16 67.22 17.64 66.68 17.26 65.58 16.94 64.44 16.8 63.28 16.82L63.28 15.2zM98.74 14.54C101.66 14.48 104.46 15.7 106.44 17.84 108.58 20.22 109.7 23.34 109.56 26.54 109.62 28.74 109.14 30.92 108.16 32.9 107.26 34.62 105.88 36.06 104.2 37.06 102.52 38.06 100.6 38.6 98.64 38.58 95.78 38.62 93.04 37.4 91.16 35.24 87.06 30.18 87.06 22.94 91.16 17.88 93.06 15.7 95.84 14.48 98.74 14.54zM98.74 16.26C96.94 16.26 95.24 17.18 94.28 18.72 93.12 20.36 92.54 22.94 92.54 26.48 92.54 30.02 93.12 32.66 94.28 34.38 95.24 35.94 96.92 36.88 98.74 36.88 100.6 36.9 102.34 35.96 103.32 34.38 104.5 32.72 105.08 30 105.08 26.26 105.08 22.76 104.5 20.22 103.34 18.66 102.3 17.12 100.58 16.22 98.74 16.26L98.74 16.26z"/>
    <path fill="#FFF" d="M117.08 3.54L117.08 34.56C117.06 34.94 117.22 35.32 117.5 35.58 117.92 35.92 118.44 36.08 118.98 36.06L120.44 36.06 120.44 37.88 109.44 37.88 109.44 36.08 110.78 36.08C111.38 36.12 111.98 35.94 112.44 35.54 112.82 35.14 113.02 34.6 112.98 34.04L112.98 8.28C113.04 7.62 112.8 6.98 112.34 6.52 111.72 6 110.94 5.72 110.14 5.74L108.1 5.74 108.1 3.92 117.08 3.54zM128.58 14.8L128.58 29.84C128.48 31.38 128.98 32.92 129.98 34.1 130.9 35.1 132.22 35.64 133.58 35.6 135.36 35.6 137.06 34.8 138.18 33.4 139.46 31.86 140.14 29.92 140.08 27.9L140.08 19.42C140.12 18.72 139.8 18.04 139.24 17.62 138.26 17.08 137.14 16.84 136.04 16.9L136.04 15.2 144 14.8 144 33.42C143.96 34.16 144.22 34.88 144.74 35.4 145.3 35.88 146.02 36.14 146.78 36.1L148.22 36.1 148.22 37.7 140.58 37.88 140.1 33.42C138.96 34.84 137.58 36.06 136.04 37.04 134.78 37.82 133.34 38.22 131.88 38.24 129.96 38.3 128.1 37.56 126.72 36.2 125.32 34.84 124.62 32.54 124.62 29.3L124.62 19.42C124.68 18.6 124.28 17.82 123.6 17.38 122.66 16.96 121.64 16.78 120.62 16.86L120.62 15.16 128.58 14.8zM152.78 5.96L154.4 5.96 154.4 15.22 168.22 15.22 168.22 17.42 154.4 17.42 154.4 31.98C154.32 33.02 154.64 34.06 155.3 34.88 155.86 35.54 156.7 35.92 157.58 35.9 158.72 35.88 159.76 35.32 160.4 34.38 161.34 32.86 161.8 31.1 161.76 29.3L163.38 29.3C163.28 32.32 162.6 34.56 161.34 36.02 160.1 37.46 158.28 38.26 156.38 38.22 154.76 38.32 153.18 37.76 151.98 36.68 150.9 35.62 150.32 34.14 150.4 32.62L150.4 17.4 146.46 17.4 146.46 15.7C148.04 15.48 149.5 14.68 150.52 13.44 152.04 11.26 152.82 8.64 152.78 5.96z"/>
    <path fill="#FFF" d="M163.34 15.2L172.38 14.94 172.38 34.46C172.34 34.88 172.48 35.3 172.76 35.6 173.14 35.94 173.64 36.1 174.16 36.08L175.8 36.08 175.8 37.9 164.76 37.9 164.76 36.08 166.22 36.08C166.8 36.14 167.36 35.94 167.78 35.56 168.14 35.14 168.32 34.6 168.28 34.04L168.28 20.2C168.34 19.44 168.04 18.7 167.5 18.16 166.84 17.66 166.02 17.4 165.2 17.46L163.34 17.46 163.34 15.2 163.34 15.2zM169.62 4.48C170.34 4.48 171.04 4.78 171.54 5.3 172.08 5.8 172.38 6.52 172.38 7.26 172.38 7.98 172.1 8.66 171.58 9.14 170.5 10.18 168.8 10.16 167.74 9.1 166.7 8.02 166.72 6.32 167.78 5.26 168.28 4.78 168.94 4.5 169.62 4.48L169.62 4.48zM187.2 14.54C190.12 14.48 192.92 15.7 194.9 17.84 197.04 20.22 198.16 23.34 198.02 26.54 198.08 28.74 197.6 30.92 196.62 32.9 195.72 34.62 194.34 36.06 192.66 37.06 190.98 38.06 189.06 38.6 187.1 38.58 184.24 38.62 181.5 37.4 179.62 35.24 175.52 30.18 175.52 22.94 179.62 17.88 181.54 15.7 184.3 14.48 187.2 14.54zM187.2 16.26C185.4 16.26 183.7 17.18 182.74 18.72 181.58 20.36 181 22.94 181 26.48 181 30.02 181.58 32.66 182.74 34.38 183.7 35.94 185.38 36.88 187.2 36.88 189.06 36.9 190.8 35.96 191.78 34.38 192.96 32.72 193.54 30 193.54 26.26 193.54 22.76 192.96 20.22 191.8 18.66 190.78 17.12 189.04 16.22 187.2 16.26L187.2 16.26z"/>
    <path fill="#FFF" d="M197.54 15.2L205.08 14.74C205.42 16.38 205.64 18.06 205.76 19.74 206.64 18.24 207.88 16.96 209.36 16.04 210.78 15.2 212.4 14.78 214.04 14.8 215.36 14.76 216.66 15.06 217.82 15.68 218.9 16.34 219.76 17.32 220.26 18.48 220.88 19.82 221.2 21.28 221.18 22.76L221.18 33.8C221.12 34.44 221.32 35.08 221.74 35.56 222.28 35.96 222.94 36.14 223.6 36.08L224.26 36.08 224.26 37.9 214.18 37.9 214.18 36.08 214.38 36.08C215.16 36.16 215.94 35.98 216.62 35.58 217.06 35.2 217.28 34.64 217.24 34.06L217.24 24.34C217.34 22.72 216.98 21.08 216.22 19.64 215.36 18.2 213.78 17.36 212.1 17.46 210.32 17.44 208.62 18.26 207.54 19.66 206.26 21.3 205.62 23.34 205.72 25.4L205.72 33.8C205.66 34.44 205.86 35.08 206.28 35.56 206.82 35.96 207.48 36.14 208.16 36.08L208.8 36.08 208.8 37.9 198.64 37.9 198.64 36.08 199.28 36.08C199.92 36.12 200.56 35.96 201.08 35.6 201.46 35.32 201.7 34.88 201.7 34.4L201.7 19.76C201.76 18.94 201.46 18.14 200.9 17.56 200.28 17.02 199.46 16.76 198.64 16.8L197.48 16.8 197.54 15.2zM253.58 6.8L255.62 3.22 257.24 3.22 258.14 17.52 256.56 17.52C255.34 13.42 253.92 10.44 252.28 8.6 250.52 6.42 247.88 5.14 245.08 5.08 243.04 5.04 241.04 5.66 239.38 6.86 237.62 8.2 236.3 10.06 235.6 12.16 234.58 15.06 234.14 18.12 234.28 21.18 234.14 24.16 234.6 27.16 235.6 29.98 236.28 32.02 237.54 33.82 239.24 35.14 240.84 36.26 242.74 36.84 244.68 36.8 247.1 36.96 249.46 36.1 251.22 34.42 252.78 32.78 253.62 30.58 253.54 28.32L253.54 24.96C253.56 24.46 253.32 24 252.92 23.72 252.3 23.38 251.6 23.22 250.88 23.28L247.84 23.28 247.84 21.58 261.92 21.58 261.92 23.28 260.82 23.28C260.14 23.22 259.46 23.38 258.88 23.74 258.48 24.08 258.26 24.58 258.3 25.12L258.3 38.74 256.7 38.74C256.12 36.6 255.52 34.58 254.88 32.64 253.82 34.46 252.34 36 250.56 37.1 248.84 38.1 246.88 38.62 244.88 38.6 241.92 38.62 239.02 37.82 236.48 36.28 228.46 31.22 225.78 20.76 230.38 12.46 231.8 9.72 233.94 7.4 236.54 5.74 238.88 4.16 241.62 3.3 244.44 3.24 245.92 3.24 247.4 3.5 248.78 4 250.52 4.68 252.14 5.62 253.58 6.8zM286.06 36.12L286.44 36.78C286.44 38.06 284.9 37.92 283.46 37.92 282.36 37.92 280.16 37.86 279.4 37.3 278.64 36.74 278.34 36.08 277.76 34.56 276.62 35.88 275.24 36.98 273.7 37.8 272.38 38.38 270.94 38.66 269.5 38.62 267.6 38.76 265.74 38.22 264.2 37.12 263.02 36.2 262.36 34.76 262.38 33.28 262.38 30.92 263.76 28.96 266.54 27.4 269.98 25.64 273.74 24.58 277.6 24.28L277.6 20.84C277.6 19.62 277.06 18.46 276.12 17.7 275.08 16.8 273.74 16.34 272.36 16.4 271.1 16.36 269.84 16.66 268.72 17.28 268 17.72 267.64 18.14 267.64 18.56 267.72 18.98 267.92 19.38 268.22 19.7 268.62 20.18 268.88 20.8 268.92 21.42 268.94 22.08 268.7 22.72 268.22 23.2 267.72 23.68 267.06 23.92 266.38 23.9 265.62 23.92 264.88 23.62 264.34 23.08 263.8 22.52 263.5 21.76 263.52 20.96 263.52 19.36 264.42 17.9 266.22 16.58 268.3 15.16 270.8 14.44 273.32 14.54 275.52 14.4 277.7 15 279.5 16.28 280.84 17.3 281.62 18.88 281.64 20.56L281.64 32.96C281.6 33.7 281.78 34.46 282.18 35.1 282.46 35.56 282.92 35.88 283.44 36 284.32 36.08 285.2 36.14 286.06 36.12zM277.62 25.86C273.52 26.42 270.62 27.34 268.9 28.62 267.62 29.6 266.9 31.14 267 32.74 266.94 33.8 267.3 34.86 268.02 35.66 268.7 36.36 269.64 36.72 270.6 36.68 272.48 36.7 274.28 35.9 275.56 34.52 276.96 33.06 277.72 31.1 277.66 29.08L277.62 25.86z"/>
    <path fill="#FFF" d="M285.26,15.22 L291.76,14.8 C292.1,16.38 292.34,18 292.46,19.62 C293.42,18.12 294.66,16.86 296.14,15.88 C297.36,15.16 298.78,14.78 300.2,14.8 C301.6,14.74 302.96,15.18 304.08,16.02 C305.26,17.08 306.08,18.48 306.44,20.02 C307.34,18.46 308.56,17.12 310.04,16.1 C311.32,15.24 312.84,14.8 314.38,14.8 C316.12,14.68 317.84,15.34 319.02,16.64 C320.42,18.42 321.14,20.64 321.06,22.9 L321.06,34.16 C321,34.68 321.18,35.2 321.56,35.54 C322.16,35.96 322.86,36.16 323.6,36.1 L324.66,36.1 L324.66,37.92 L313.26,37.92 L313.26,36.1 L314.4,36.1 C315.12,36.16 315.82,36 316.44,35.62 C316.84,35.24 317.06,34.7 317.02,34.16 L317.02,22.9 C317.12,21.48 316.68,20.1 315.8,19 C314.98,18.08 313.8,17.58 312.56,17.62 C311.58,17.6 310.62,17.9 309.8,18.44 C308.96,19.02 308.28,19.82 307.88,20.76 C307.28,21.9 306.94,23.14 306.86,24.42 L306.86,34.2 C306.82,34.74 307.02,35.28 307.4,35.68 C307.88,36.02 308.46,36.2 309.04,36.14 L310.6,36.14 L310.6,37.96 L298.98,37.96 L298.98,36.14 L300.32,36.14 C300.96,36.18 301.62,36.02 302.16,35.66 C302.56,35.36 302.78,34.9 302.76,34.42 L302.76,23.96 C302.9,22.26 302.48,20.58 301.58,19.14 C300.84,18.16 299.66,17.6 298.42,17.64 C296.9,17.56 295.44,18.2 294.48,19.38 C293.18,21.02 292.48,23.06 292.52,25.14 L292.52,34.2 C292.46,34.72 292.62,35.24 292.98,35.64 C293.58,36.02 294.3,36.2 295.02,36.14 L296.18,36.14 L296.18,37.96 L284.74,37.96 L284.74,36.14 L286.46,36.14 C287,36.18 287.54,36 287.96,35.66 C288.3,35.34 288.5,34.9 288.48,34.42 L288.48,19.54 C288.54,18.86 288.3,18.2 287.86,17.7 C287.12,17.18 286.24,16.92 285.34,16.92 L285.34,15.22 L285.26,15.22 Z"/>
    <path fill="#FFF" d="M325.14,15.22 L333.26,14.96 L333.26,34.48 C333.22,34.9 333.36,35.32 333.64,35.62 C334.02,35.96 334.52,36.12 335.04,36.1 L337.6,36.1 L337.6,37.92 L323.74,37.92 L323.74,36.1 L327.08,36.1 C327.66,36.16 328.22,35.96 328.64,35.58 C329,35.16 329.18,34.62 329.14,34.06 L329.14,19.76 C329.2,19 328.9,18.26 328.36,17.72 C327.7,17.22 326.88,16.96 326.06,17.02 L325.14,17.02 L325.14,15.22 Z M330.48,4.5 C331.2,4.5 331.9,4.8 332.38,5.32 C332.92,5.82 333.2,6.52 333.2,7.26 C333.2,7.98 332.92,8.66 332.4,9.14 C331.32,10.18 329.62,10.16 328.56,9.1 C327.52,8.02 327.54,6.32 328.6,5.26 C329.12,4.78 329.78,4.5 330.48,4.5 L330.48,4.5 Z"/>
    <path fill="#FFF" d="M336.94 15.22L344.48 14.76C344.82 16.4 345.04 18.06 345.16 19.74 346.04 18.24 347.28 16.96 348.76 16.04 350.18 15.2 351.8 14.78 353.44 14.8 354.76 14.76 356.06 15.06 357.22 15.68 358.3 16.34 359.16 17.32 359.66 18.48 360.28 19.82 360.6 21.28 360.58 22.76L360.58 33.8C360.52 34.44 360.72 35.08 361.14 35.56 361.68 35.96 362.34 36.14 363 36.08L363.66 36.08 363.66 37.9 353.56 37.9 353.56 36.08 353.76 36.08C354.54 36.16 355.32 35.98 356 35.58 356.44 35.2 356.68 34.64 356.62 34.06L356.62 24.34C356.72 22.72 356.36 21.08 355.6 19.64 354.74 18.2 353.16 17.36 351.48 17.46 349.7 17.44 348 18.26 346.92 19.66 345.64 21.3 345 23.34 345.1 25.4L345.1 33.8C345.04 34.44 345.24 35.08 345.66 35.56 346.2 35.96 346.86 36.14 347.54 36.08L348.18 36.08 348.18 37.9 337.14 37.9 337.14 36.08 338.72 36.08C339.36 36.12 340 35.96 340.52 35.6 340.92 35.32 341.14 34.86 341.14 34.38L341.14 19.74C341.2 18.92 340.9 18.12 340.34 17.54 339.72 17 338.9 16.74 338.08 16.78L336.92 16.78 336.94 15.22zM380.84 16.5C382.46 14.86 386.94 12.44 388.42 12.44 389.24 12.34 390.08 12.56 390.72 13.08 391.26 13.6 390.3 14.76 390.3 15.5 390.32 16.04 390.12 16.58 389.76 17 389.44 17.38 388.98 17.58 388.5 17.58 387.58 17.58 386.96 17.02 386.64 15.88 386.5 15.4 386.3 15.16 386 15.16 384.54 15.68 383.18 16.46 382.02 17.48 382.6 18.24 383.08 19.08 383.46 19.96 383.72 20.68 383.86 21.46 383.84 22.22 383.86 23.54 383.52 24.82 382.82 25.94 381.96 27.16 380.8 28.14 379.44 28.78 378.06 29.56 376.5 29.98 374.92 30.02L372.28 30.02C371 29.9 369.74 30.1 368.56 30.6 367.96 30.98 367.62 31.66 367.64 32.36 367.62 32.94 367.9 33.5 368.4 33.82 369.28 34.24 370.26 34.42 371.24 34.32L377.22 34.2C380.24 34.2 382.42 34.7 383.74 35.72 385.06 36.68 385.82 38.24 385.78 39.88 385.8 41.78 384.96 43.58 383.5 44.78 381.38 46.66 378.22 47.6 374.02 47.6 370.54 47.6 367.98 46.96 366.3 45.68 365.12 44.96 364.36 43.7 364.26 42.32 364.28 41.3 364.74 40.36 365.52 39.7 366.76 38.74 368.24 38.12 369.8 37.94 368.48 37.68 367.22 37.1 366.18 36.24 365.38 35.52 364.94 34.5 364.98 33.44 364.98 32.44 365.34 31.48 366 30.74 366.94 29.8 368.12 29.12 369.4 28.76 368.16 28.12 367.1 27.16 366.3 26 365.6 24.9 365.26 23.6 365.28 22.3 365.26 20.16 366.2 18.12 367.86 16.78 369.76 15.24 372.14 14.44 374.58 14.56 375.68 14.56 376.78 14.72 377.84 15.04 378.9 15.36 379.92 15.86 380.84 16.5zM375.9 37.94C372.92 37.94 370.82 38.36 369.54 39.18 368.42 39.76 367.7 40.9 367.64 42.16 367.62 43.22 368.16 44.2 369.08 44.74 370.72 45.68 372.58 46.12 374.46 46 376.64 46.14 378.82 45.66 380.74 44.62 382.14 43.7 382.86 42.68 382.86 41.58 382.86 40.9 382.62 40.26 382.22 39.74 381.68 39.1 380.96 38.64 380.14 38.44 378.74 38.06 377.32 37.9 375.9 37.94L375.9 37.94zM374.48 16.08C373.12 16.04 371.8 16.62 370.92 17.66 369.92 18.92 369.42 20.5 369.52 22.1 369.42 23.8 369.9 25.48 370.92 26.84 372.6 28.82 375.56 29.06 377.52 27.38 377.72 27.22 377.9 27.04 378.06 26.84 379.06 25.5 379.56 23.82 379.46 22.16 379.56 20.54 379.06 18.94 378.04 17.68 377.16 16.64 375.84 16.04 374.48 16.08L374.48 16.08z"/>
    <path fill="#FFF" d="M389.26,12.56 C389.98,12.56 390.68,12.86 391.16,13.38 C391.7,13.88 391.98,14.58 391.98,15.32 C391.98,16.04 391.7,16.72 391.18,17.2 C390.1,18.24 388.4,18.22 387.34,17.16 C386.3,16.08 386.32,14.38 387.38,13.32 C387.9,12.86 388.56,12.58 389.26,12.56 L389.26,12.56 Z"/>
    <path fill="#A3A3A3" d="M26.74,38.14 L26.22,38.14 L26.22,37.32 L26.44,37.32 C26.62,37.3 26.8,37.32 26.96,37.38 C27.1,37.44 27.16,37.58 27.16,37.72 C27.16,37.94 26.98,38.12 26.74,38.14 C26.74,38.14 26.72,38.14 26.7,38.12 M27.64,37.72 C27.64,37.48 27.54,37.24 27.34,37.08 C27.1,36.92 26.82,36.86 26.54,36.9 L25.7,36.9 L25.7,39.5 L26.2,39.5 L26.2,38.54 L26.64,38.54 L27.16,39.5 L27.72,39.5 L27.14,38.48 C27.46,38.4 27.66,38.1 27.66,37.76 M26.66,40.3 C25.54,40.3 24.62,39.4 24.62,38.26 C24.62,37.12 25.52,36.22 26.66,36.22 C27.8,36.22 28.7,37.12 28.7,38.26 C28.7,39.4 27.78,40.3 26.66,40.3 M26.66,35.78 C25.26,35.78 24.14,36.9 24.14,38.3 C24.14,39.7 25.26,40.82 26.66,40.82 C28.06,40.82 29.18,39.7 29.18,38.3 C29.18,36.9 28.04,35.78 26.66,35.78 C26.66,35.78 26.66,35.78 26.66,35.78"/>
    <path fill="url(#evolution-gaming-a)" d="M0.04,2.84 C12.1,-3.6 27.68,3.2 28.86,19.6 C6.48,21.34 3.78,11.26 0.04,2.84 Z"/>
    <path fill="url(#evolution-gaming-b)" d="M0.04,38 C12.1,44.44 27.68,37.64 28.86,21.24 C6.48,19.44 3.78,29.58 0.04,38 Z"/>
    <path fill="url(#evolution-gaming-c)" d="M24.68,7.94 C18.84,0.36 8.36,-1.8 3.55271368e-15,2.86 C3.36,10.42 5.88,19.28 22.44,19.8 C24.46,16.2 25.24,12.06 24.68,7.98 L24.68,7.94 Z M4.08,29.68 C4.56,29.68 5.04,29.76 5.52,29.76 C12,29.76 18.04,26.52 21.62,21.14 C11.68,21.6 7,25.22 4.08,29.68 L4.08,29.68 Z"/>
  </g>
</svg>
