<?xml version="1.0" encoding="utf-8"?>
<!-- Generator: Adobe Illustrator 23.1.0, SVG Export Plug-In . SVG Version: 6.00 Build 0)  -->
<svg version="1.1" id="Layer_1" xmlns="http://www.w3.org/2000/svg" xmlns:xlink="http://www.w3.org/1999/xlink" x="0px" y="0px"
	 viewBox="0 0 250 100" style="enable-background:new 0 0 250 100;" xml:space="preserve">
<style type="text/css">
	.st0{display:none;}
	.st1{display:inline;fill:#2F2F2F;}
	.st2{display:inline;enable-background:new    ;}
	.st3{fill:#FFFFFF;stroke:#EFEFEF;stroke-width:0.05;stroke-miterlimit:10;}
	.st4{fill:#FFFFFF;}
	.st5{fill:#FCC42C;}
	.st6{fill:#C23844;}
	.st7{fill:#FEFEFE;}
	.st8{fill:#FA4133;}
	.st9{fill:#F85F1D;}
	.st10{fill:#FC323A;}
	.st11{fill:#F99209;}
	.st12{fill:#FCFDFE;}
	.st13{fill:#F94D2D;}
	.st14{fill:#FA512A;}
	.st15{fill:#FB5C25;}
	.st16{fill:#F25710;}
	.st17{fill:#F9BB41;}
	.st18{fill:#FA6C1D;}
	.st19{fill:#F9BD51;}
	.st20{fill:#F97B16;}
	.st21{fill:#FB2841;}
	.st22{fill:#F9880F;}
	.st23{fill:#EE4A0B;}
	.st24{fill:#FAA052;}
	.st25{fill:#F57F41;}
	.st26{fill:#F99044;}
	.st27{fill:#F6B15B;}
	.st28{fill:#F99D06;}
	.st29{fill:#FBBE70;}
	.st30{fill:#FABE5F;}
	.st31{fill:#FBB067;}
	.st32{fill:#41AADF;}
	.st33{fill:#FBFBFB;}
	.st34{fill-rule:evenodd;clip-rule:evenodd;fill:url(#SVGID_1_);}
	.st35{fill:#A5CD39;}
	.st36{fill:#40AA8B;}
	.st37{fill-rule:evenodd;clip-rule:evenodd;fill:#A5CD39;}
	.st38{clip-path:url(#SVGID_3_);fill-rule:evenodd;clip-rule:evenodd;fill:#A5CD39;}
	.st39{opacity:0.36;clip-path:url(#SVGID_5_);fill-rule:evenodd;clip-rule:evenodd;fill:url(#SVGID_6_);enable-background:new    ;}
	.st40{opacity:0.71;clip-path:url(#SVGID_8_);fill-rule:evenodd;clip-rule:evenodd;fill:url(#SVGID_9_);enable-background:new    ;}
	
		.st41{opacity:0.79;clip-path:url(#SVGID_11_);fill-rule:evenodd;clip-rule:evenodd;fill:url(#SVGID_12_);enable-background:new    ;}
	
		.st42{opacity:0.47;clip-path:url(#SVGID_14_);fill-rule:evenodd;clip-rule:evenodd;fill:url(#SVGID_15_);enable-background:new    ;}
	
		.st43{opacity:0.61;clip-path:url(#SVGID_17_);fill-rule:evenodd;clip-rule:evenodd;fill:url(#SVGID_18_);enable-background:new    ;}
	
		.st44{opacity:0.66;clip-path:url(#SVGID_20_);fill-rule:evenodd;clip-rule:evenodd;fill:url(#SVGID_21_);enable-background:new    ;}
	
		.st45{opacity:0.39;clip-path:url(#SVGID_23_);fill-rule:evenodd;clip-rule:evenodd;fill:url(#SVGID_24_);enable-background:new    ;}
	.st46{fill:#73B73E;}
	.st47{fill:#F26922;}
	.st48{fill-rule:evenodd;clip-rule:evenodd;fill:#FFFFFF;}
	.st49{fill:#F19021;}
	.st50{fill:#E9148D;}
	.st51{fill:#2BAEE4;}
	.st52{fill:#13B6A7;}
	.st53{fill:#FEE700;}
	.st54{fill:#EC242A;}
	.st55{fill:#FCB34B;}
	.st56{fill-rule:evenodd;clip-rule:evenodd;fill:#F6F6F6;}
	.st57{fill-rule:evenodd;clip-rule:evenodd;fill:#D71920;}
	.st58{fill:#63A844;}
	.st59{fill:#DF2D38;}
	.st60{fill:#7C8080;}
	.st61{fill:#A3A3A3;}
	.st62{fill:url(#SVGID_25_);}
	.st63{fill:url(#SVGID_26_);}
	.st64{fill:url(#SVGID_27_);}
	.st65{fill:#EF612A;}
	.st66{fill:url(#SVGID_28_);}
	.st67{fill:url(#SVGID_29_);}
	.st68{opacity:0.5;fill:#FFFFFF;}
	.st69{fill:#363833;}
	.st70{fill:#5998A9;}
	.st71{fill:#80B3CB;}
	.st72{fill:url(#SVGID_30_);}
	.st73{fill:url(#SVGID_31_);}
	.st74{fill:url(#SVGID_32_);}
	.st75{fill:url(#SVGID_33_);}
	.st76{fill:url(#SVGID_34_);}
	.st77{fill:url(#SVGID_35_);}
	.st78{fill:url(#SVGID_36_);}
	.st79{fill:#FFC20E;}
</style>
<g class="st0">
	<rect class="st1" width="250" height="100"/>
</g>
<g>
	<g>
		<path class="st6" d="M209,37.37c-0.72,1.79-1.46,3.58-2.16,5.38c-3.08,7.89-6.13,15.78-9.24,23.65c-0.49,1.24-1.1,2.46-1.82,3.58
			c-1.3,2.01-3.27,2.98-5.63,3.23c-2.09,0.23-4.14,0.01-6.28-0.49c0.25-1.77,0.49-3.51,0.74-5.32c0.61,0.14,1.13,0.33,1.65,0.37
			c0.98,0.06,1.98,0.14,2.95,0.02c1.07-0.13,1.96-0.72,2.42-1.76c0.64-1.42,1.24-2.85,1.84-4.29c0.07-0.17,0.03-0.42-0.04-0.6
			c-2.93-6.93-5.86-13.86-8.8-20.78c-0.03-0.08-0.1-0.15-0.23-0.35c-0.16,0.37-0.28,0.66-0.39,0.94
			c-2.59,6.56-5.18,13.12-7.75,19.68c-0.18,0.46-0.38,0.66-0.9,0.64c-1.73-0.04-3.45-0.03-5.18-0.01c-0.41,0.01-0.61-0.12-0.78-0.51
			c-3.12-7.67-6.26-15.33-9.39-22.99c-0.06-0.15-0.09-0.31-0.16-0.53c2.08,0,4.11-0.02,6.13,0.03c0.19,0,0.46,0.35,0.55,0.58
			c1.77,4.6,3.52,9.21,5.28,13.81c0.3,0.78,0.6,1.56,0.98,2.53c0.17-0.41,0.27-0.63,0.36-0.86c1.97-5.13,3.96-10.25,5.9-15.39
			c0.22-0.57,0.5-0.72,1.07-0.71c3.03,0.03,6.05,0.03,9.08,0c0.51,0,0.74,0.15,0.92,0.62c2.03,5.08,4.08,10.16,6.12,15.23
			c0.1,0.26,0.22,0.5,0.41,0.91c0.15-0.34,0.24-0.54,0.32-0.74c1.84-5.1,3.7-10.19,5.51-15.3c0.2-0.58,0.48-0.73,1.06-0.72
			c1.82,0.03,3.64-0.01,5.46-0.02C209,37.27,209,37.32,209,37.37z"/>
		<path class="st6" d="M61.24,40.7c0-1.12,0-2.24,0-3.4c1.92,0,3.75,0,5.64,0c0.01,0.28,0.04,0.53,0.04,0.78
			c0,7.06,0.02,14.12-0.01,21.18c-0.01,2.06-0.25,4.09-0.91,6.06c-1.26,3.76-3.77,6.24-7.57,7.29c-4.52,1.24-9,0.91-13.32-0.87
			c-1.31-0.54-2.46-1.45-3.77-2.24c1.28-1.75,2.45-3.34,3.66-4.99c0.2,0.16,0.38,0.3,0.55,0.44c2.88,2.47,6.17,3.48,9.93,2.79
			c2.96-0.54,4.79-2.36,5.25-5.36c0.21-1.37,0.18-2.77,0.27-4.22c-0.19,0.05-0.27,0.05-0.3,0.09c-2.47,3.32-8.77,4.45-13.35,1.99
			c-4.07-2.19-6.07-5.67-6.32-10.21c-0.18-3.25,0.48-6.29,2.47-8.95c3.68-4.92,10.32-5.36,14.56-3.19c1.27,0.65,2.21,1.67,2.99,2.85
			C61.11,40.73,61.18,40.72,61.24,40.7z M61.23,49.15c0.02-4.27-2.8-7.11-7.08-7.13c-4.22-0.02-7.19,2.93-7.2,7.16
			c-0.02,3.91,3.12,7.04,7.08,7.05C58.23,56.25,61.21,53.31,61.23,49.15z"/>
		<path class="st6" d="M117.03,61.25c-1.99,0-3.9,0-5.88,0c-0.02-0.31-0.05-0.61-0.05-0.9c0-4.23,0.02-8.46-0.02-12.68
			c-0.01-1.03-0.13-2.08-0.38-3.07c-0.33-1.34-1.26-2.18-2.66-2.44c-3.57-0.67-6.51,1.6-6.6,5.26c-0.1,4.3-0.04,8.6-0.05,12.89
			c0,0.3,0,0.6,0,0.94c-2.02,0-3.94,0-5.91,0c0-8,0-15.97,0-23.96c1.87,0,3.69,0,5.6,0c0,1.19,0,2.35,0,3.52
			c0.05,0.04,0.11,0.08,0.16,0.12c1.65-2.92,4.12-4.32,7.44-4.25c3.27,0.07,5.91,1.16,7.4,4.39c0.17-0.23,0.3-0.38,0.41-0.54
			c1.55-2.45,3.83-3.64,6.67-3.81c1.59-0.1,3.17,0.01,4.66,0.65c2.68,1.16,3.99,3.37,4.52,6.1c0.21,1.08,0.3,2.2,0.31,3.3
			c0.03,4.53,0.01,9.07,0.01,13.6c0,0.28,0,0.55,0,0.87c-1.98,0-3.89,0-5.92,0c0-0.26,0-0.53,0-0.8c0-4.18,0.04-8.36-0.02-12.54
			c-0.02-1.14-0.22-2.3-0.55-3.4c-0.39-1.31-1.41-2.1-2.78-2.35c-3.28-0.58-5.62,1.1-6.19,4.44c-0.11,0.65-0.16,1.31-0.16,1.97
			c-0.01,3.94-0.01,7.89-0.01,11.83C117.03,60.65,117.03,60.91,117.03,61.25z"/>
		<path class="st6" d="M160.01,51.37c-6.27,0-12.32,0-18.44,0c0.18,1.95,0.94,3.53,2.54,4.56c2.55,1.64,5.23,1.63,7.84,0.14
			c0.95-0.54,1.74-1.35,2.69-2.1c1.3,0.98,2.69,2.03,4.13,3.11c-0.86,1.13-1.86,2.04-3,2.8c-5.19,3.41-13.16,2.41-17.16-2.29
			c-3.16-3.72-3.84-8.05-2.31-12.62c1.5-4.48,4.81-7.05,9.39-8c2.77-0.57,5.52-0.46,8.09,0.82c3.4,1.7,5.14,4.64,5.78,8.26
			C159.86,47.76,159.86,49.52,160.01,51.37z M153.88,46.86c0.05-2.74-1.46-4.91-4-5.44c-1.26-0.26-2.65-0.27-3.92-0.04
			c-2.39,0.44-4.5,3.28-4.3,5.48C145.72,46.86,149.77,46.86,153.88,46.86z"/>
		<path class="st6" d="M86.3,61.24c0-1.06,0-2.08,0-3.25c-0.21,0.17-0.33,0.23-0.4,0.32c-1.49,2.16-3.63,3.21-6.15,3.48
			c-2.79,0.3-5.41-0.2-7.7-1.96c-3.43-2.64-3.28-8.85,0.93-11.32c1.95-1.15,4.1-1.69,6.32-1.9c2.28-0.21,4.57-0.27,6.87-0.4
			c0.41-1.21-0.21-3.3-1.72-4.15c-2.24-1.27-4.59-1.2-6.91-0.38c-1.13,0.4-2.15,1.14-3.17,1.69c-0.94-0.93-1.96-1.95-3.02-3
			c1.32-1.33,2.96-2.34,4.88-2.91c3.39-1,6.79-1.21,10.15,0.02c3.14,1.15,4.73,3.54,5.09,6.79c0.11,1.01,0.15,2.02,0.16,3.04
			c0.02,4.34,0.01,8.69,0.01,13.03c0,0.28,0,0.56,0,0.88C89.87,61.24,88.15,61.24,86.3,61.24z M85.97,50.56
			c-1.21,0-2.31-0.04-3.42,0.01c-1.89,0.08-3.77,0.27-5.45,1.28c-1.94,1.16-1.99,3.57-0.11,4.82c1.9,1.26,5.73,0.91,7.39-0.66
			C85.95,54.51,86,52.59,85.97,50.56z"/>
	</g>
</g>
</svg>
