<?xml version="1.0" encoding="utf-8"?>
<!-- Generator: Adobe Illustrator 23.1.0, SVG Export Plug-In . SVG Version: 6.00 Build 0)  -->
<svg version="1.1" id="Layer_1" xmlns="http://www.w3.org/2000/svg" xmlns:xlink="http://www.w3.org/1999/xlink" x="0px" y="0px"
	 viewBox="0 0 250 100" style="enable-background:new 0 0 250 100;" xml:space="preserve">
<style type="text/css">
	.st0{display:none;}
	.st1{display:inline;fill:#2F2F2F;}
	.st2{display:inline;enable-background:new    ;}
	.st3{fill:#FFFFFF;stroke:#EFEFEF;stroke-width:0.05;stroke-miterlimit:10;}
	.st4{fill:#FFFFFF;}
	.st5{fill:#FCC42C;}
	.st6{fill:#C23844;}
	.st7{fill:#FEFEFE;}
	.st8{fill:#FA4133;}
	.st9{fill:#F85F1D;}
	.st10{fill:#FC323A;}
	.st11{fill:#F99209;}
	.st12{fill:#FCFDFE;}
	.st13{fill:#F94D2D;}
	.st14{fill:#FA512A;}
	.st15{fill:#FB5C25;}
	.st16{fill:#F25710;}
	.st17{fill:#F9BB41;}
	.st18{fill:#FA6C1D;}
	.st19{fill:#F9BD51;}
	.st20{fill:#F97B16;}
	.st21{fill:#FB2841;}
	.st22{fill:#F9880F;}
	.st23{fill:#EE4A0B;}
	.st24{fill:#FAA052;}
	.st25{fill:#F57F41;}
	.st26{fill:#F99044;}
	.st27{fill:#F6B15B;}
	.st28{fill:#F99D06;}
	.st29{fill:#FBBE70;}
	.st30{fill:#FABE5F;}
	.st31{fill:#FBB067;}
	.st32{fill:#41AADF;}
	.st33{fill:#FBFBFB;}
	.st34{fill-rule:evenodd;clip-rule:evenodd;fill:url(#SVGID_1_);}
	.st35{fill:#A5CD39;}
	.st36{fill:#40AA8B;}
	.st37{fill-rule:evenodd;clip-rule:evenodd;fill:#A5CD39;}
	.st38{clip-path:url(#SVGID_3_);fill-rule:evenodd;clip-rule:evenodd;fill:#A5CD39;}
	.st39{opacity:0.36;clip-path:url(#SVGID_5_);fill-rule:evenodd;clip-rule:evenodd;fill:url(#SVGID_6_);enable-background:new    ;}
	.st40{opacity:0.71;clip-path:url(#SVGID_8_);fill-rule:evenodd;clip-rule:evenodd;fill:url(#SVGID_9_);enable-background:new    ;}
	
		.st41{opacity:0.79;clip-path:url(#SVGID_11_);fill-rule:evenodd;clip-rule:evenodd;fill:url(#SVGID_12_);enable-background:new    ;}
	
		.st42{opacity:0.47;clip-path:url(#SVGID_14_);fill-rule:evenodd;clip-rule:evenodd;fill:url(#SVGID_15_);enable-background:new    ;}
	
		.st43{opacity:0.61;clip-path:url(#SVGID_17_);fill-rule:evenodd;clip-rule:evenodd;fill:url(#SVGID_18_);enable-background:new    ;}
	
		.st44{opacity:0.66;clip-path:url(#SVGID_20_);fill-rule:evenodd;clip-rule:evenodd;fill:url(#SVGID_21_);enable-background:new    ;}
	
		.st45{opacity:0.39;clip-path:url(#SVGID_23_);fill-rule:evenodd;clip-rule:evenodd;fill:url(#SVGID_24_);enable-background:new    ;}
	.st46{fill:#73B73E;}
	.st47{fill:#F26922;}
	.st48{fill-rule:evenodd;clip-rule:evenodd;fill:#FFFFFF;}
	.st49{fill:#F19021;}
	.st50{fill:#E9148D;}
	.st51{fill:#2BAEE4;}
	.st52{fill:#13B6A7;}
	.st53{fill:#FEE700;}
	.st54{fill:#EC242A;}
	.st55{fill:#FCB34B;}
	.st56{fill-rule:evenodd;clip-rule:evenodd;fill:#F6F6F6;}
	.st57{fill-rule:evenodd;clip-rule:evenodd;fill:#D71920;}
	.st58{fill:#63A844;}
	.st59{fill:#DF2D38;}
	.st60{fill:#7C8080;}
	.st61{fill:#A3A3A3;}
	.st62{fill:url(#SVGID_25_);}
	.st63{fill:url(#SVGID_26_);}
	.st64{fill:url(#SVGID_27_);}
	.st65{fill:#EF612A;}
	.st66{fill:url(#SVGID_28_);}
	.st67{fill:url(#SVGID_29_);}
	.st68{opacity:0.5;fill:#FFFFFF;}
	.st69{fill:#363833;}
	.st70{fill:#5998A9;}
	.st71{fill:#80B3CB;}
	.st72{fill:url(#SVGID_30_);}
	.st73{fill:url(#SVGID_31_);}
	.st74{fill:url(#SVGID_32_);}
	.st75{fill:url(#SVGID_33_);}
	.st76{fill:url(#SVGID_34_);}
	.st77{fill:url(#SVGID_35_);}
	.st78{fill:url(#SVGID_36_);}
	.st79{fill:#FFC20E;}
</style>
<g class="st0">
	<rect class="st1" width="250" height="100"/>
</g>
<g>
	<path class="st46" d="M127.06,34.43c2.03,0.67,4.16,1.05,6.04,2.03c6.86,3.52,9.97,12,7.19,19.01
		c-2.98,7.55-11.05,11.66-18.68,9.53c-6.05-1.73-10.48-6.93-11.23-13.18c-0.75-6.4,2.36-12.46,8.07-15.36
		c1.88-0.95,4.01-1.36,6.04-2.03H127.06L127.06,34.43z M124.31,61.92c2.26,1.31,8.38-0.54,9.27-3.08
		C130.68,61.13,127.62,61.97,124.31,61.92z M32,44.2c1.39-4.39,2.83-5.45,7.53-5.45s8.63,0.03,12.97-0.03
		c1.18-0.03,1.72,0.36,1.64,1.59c-0.08,1.11-0.08,2.23,0,3.34c0.08,1.21-0.36,1.67-1.62,1.64c-3.8-0.05-7.63,0.03-11.43-0.05
		c-1.31-0.03-1.7,0.44-1.64,1.72c0.08,2.21,0.05,4.44,0,6.68c-0.03,1,0.39,1.36,1.39,1.34c1.49-0.05,2.98-0.08,4.47,0
		s1.64-0.33,1.59-1.54c-0.05-1.21,0-2.98-0.03-4.47c0-0.87,0.33-1.26,1.23-1.23c1.7,0.03,3.42,0,5.14,0c0.72,0,1.13,0.31,1.1,1.05
		c-0.05,2.83,0.03,5.65-0.23,8.45c-0.26,2.8-2.18,4.16-4.73,4.19c-3.75,0.08-7.53,0.18-11.28-0.03c-3.75-0.21-5.32-1.62-6.11-4.88
		V44.2z M218,45.22h-4.75c-2.13,0-2.13,0-2.13,2.06v12.49c-0.03,1.57-0.1,1.67-1.7,1.67h-3.98c-1.77,0-1.82-0.05-1.82-1.77
		c-0.03-4.16,0-8.32,0-12.46c0-1.98-0.03-1.98-2.03-1.98h-3.6c-0.92,0.03-1.34-0.39-1.31-1.31c0.03-0.92,0.03-2.49-0.03-3.73
		c-0.05-1.23,0.41-1.41,1.44-1.41H218V45.22z M207.36,39.31c-2.95,0-5.91,0.03-8.86,0c-0.9-0.03-1.34,0.33-1.28,1.26
		c0.05,0.92,0.03,1.98,0,2.95c-0.03,0.98,0.33,1.18,1.13,1.16c1.34-0.03,2.67,0,3.98,0c1.77,0.03,1.82,0.05,1.82,1.8
		c0,4.24-0.03,8.48,0,12.69c0,1.67,0.05,1.72,1.75,1.72c1.08,0,2.13-0.08,3.21,0.03s1.7-0.41,1.67-1.7c-0.05-4.32,0-8.63-0.03-12.97
		c-0.03-1.13,0.33-1.64,1.54-1.57c1.21,0.08,2.57-0.03,3.85,0.03s1.39-0.41,1.34-1.39c-0.06-0.86-0.06-1.71,0-2.57
		c0.08-1.13-0.44-1.46-1.52-1.46C213.09,39.34,210.22,39.31,207.36,39.31z M88.06,51.59c0,2.72-0.05,5.45,0.03,8.17
		c0.05,1.28-0.33,1.8-1.67,1.72c-1.34-0.08-2.98-0.03-4.5-0.03c-0.8,0.03-1.16-0.31-1.16-1.13V39.91c0-0.8,0.31-1.16,1.13-1.16
		c2.62,0,5.22,0.03,7.84-0.03c0.98,0,1.23,0.59,1.39,1.36l2.31,10.4c0.08,0.43,0.26,0.83,0.51,1.18c0.82-3.44,1.7-6.86,2.49-10.3
		c0.8-3.44,0.49-2.57,3.21-2.59h5.91c0.85,0,1.23,0.36,1.23,1.23v20.3c0,0.87-0.41,1.21-1.26,1.18c-1.67-0.03-3.34-0.03-5.01,0.03
		c-0.98,0-1.26-0.46-1.26-1.36c0.03-3.06,0.03-6.11-0.18-9.2c-0.69,2.9-1.44,5.81-2.03,8.73c-0.28,1.41-0.9,1.98-2.34,1.8
		c-0.76-0.08-1.53-0.08-2.29,0c-1.34,0.15-1.82-0.49-2.08-1.67c-0.59-2.75-1.26-5.5-1.9-8.25L88.06,51.59L88.06,51.59z M78.5,52.44
		v7.19c0,1.8-0.05,1.82-1.9,1.82c-1.85,0-2.98-0.03-4.5,0.03c-0.98,0.03-1.39-0.36-1.36-1.36c0.05-2-0.03-4.03,0.03-6.04
		c0.03-0.98-0.31-1.41-1.34-1.36c-1.03,0.05-2.83,0.05-4.24,0c-1.03-0.05-1.31,0.41-1.28,1.36c0.05,1.98-0.03,3.96,0.03,5.91
		c0.03,1.03-0.31,1.52-1.39,1.46c-1.59-0.05-3.19-0.03-4.75,0c-0.8,0-1.18-0.33-1.18-1.16c0.03-5.6-0.05-11.2,0.03-16.83
		c0.05-2.57,2.26-4.6,5.06-4.68c3.98-0.13,7.96-0.1,11.95-0.03c2.26,0.05,4.44,1.98,4.6,4.29c0.21,3.11,0.05,6.24,0.05,9.38
		C78.29,52.44,78.5,52.44,78.5,52.44z M67.38,45.27h-2.31c-0.82-0.03-1.16,0.31-1.16,1.13c0,0.82,0.44,1.1,1.21,1.1
		c1.49-0.03,2.98-0.03,4.5,0c0.8,0,1.13-0.33,1.13-1.16c0-0.82-0.41-1.1-1.18-1.08H67.38L67.38,45.27z M151.51,51.29v5.32
		c0,1.23-0.03,2.47,0,3.73c0,0.75-0.33,1.1-1.08,1.1h-5.01c-0.8,0-1.18-0.33-1.18-1.16v-20.4c0-0.77,0.36-1.1,1.1-1.1
		c2.59,0.03,5.22,0.03,7.84,0c1.05-0.03,1.23,0.69,1.41,1.46l2.31,10.28c0.08,0.44,0.27,0.85,0.54,1.21l0.39-1.41
		c0.8-3.37,1.62-6.73,2.39-10.12c0.23-1,0.72-1.44,1.77-1.41c2.31,0.05,4.62,0.03,6.91,0c0.92,0,1.34,0.33,1.34,1.28
		c-0.03,6.71-0.03,13.44,0,20.14c0,0.87-0.39,1.26-1.23,1.23h-4.88c-1,0.03-1.39-0.39-1.36-1.36c0.03-2.57,0-5.14,0-7.71
		c0.04-0.43-0.05-0.86-0.26-1.23c-0.57,2.39-1.13,4.78-1.72,7.17c-0.82,3.42-0.08,3.11-3.96,3.13c-2.52,0-2.52,0-3.11-2.44
		c-0.59-2.44-1.21-5.16-1.82-7.73L151.51,51.29L151.51,51.29z M157.5,53.6h-0.36c-0.1-0.41-0.23-0.8-0.31-1.21
		c-0.9-3.93-1.8-7.84-2.67-11.77c-0.18-0.77-0.44-1.36-1.39-1.34c-2.29,0.03-4.55,0-6.81,0c-0.82,0-1.16,0.33-1.16,1.16v19.27
		c0,0.8,0.33,1.16,1.13,1.16c1.21-0.03,2.41-0.05,3.6,0.03c1.18,0.08,1.67-0.36,1.64-1.62c-0.05-3.49-0.03-7.01-0.03-10.53v-1.23
		h0.33c0.1,0.39,0.23,0.8,0.33,1.21c0.69,2.88,1.36,5.73,2.03,8.61c1,4.21,0.23,3.47,4.65,3.57c0.87,0,1.31-0.31,1.49-1.21
		c0.57-2.59,1.18-5.16,1.8-7.76l1.16-4.75l0.36,0.05v1.36c0,3.65,0.03,7.27,0,10.92c-0.03,0.95,0.28,1.44,1.31,1.39
		c1.03-0.05,2.65-0.03,3.98,0c0.75,0,1.1-0.33,1.08-1.1c-0.03-0.77,0.03-1.8,0.03-2.7c0-5.4-0.05-10.76,0-16.16
		c0.03-1.26-0.41-1.7-1.62-1.62c-1.21,0.08-2.57,0-3.85,0.03c-3.7,0.08-3.11-0.64-4.06,3.31C159.22,46.61,158.4,49.95,157.5,53.6
		L157.5,53.6z M172.53,52.01c0-2.44-0.03-4.88,0-7.32c0.03-3.75,2.16-5.88,5.93-5.91h10.28c3.21,0,5.52,2.06,5.6,5.27
		c0.1,5.4,0.03,10.79,0.05,16.19c0,0.77-0.28,1.21-1.13,1.21h-5.37c-1,0-1.23-0.59-1.23-1.41c0.03-1.98-0.03-3.96,0.03-5.91
		c0.03-1.05-0.39-1.46-1.44-1.44c-1.05,0.03-2.75,0.05-4.11,0.03c-0.98-0.03-1.39,0.36-1.39,1.36c0.05,1.98-0.03,3.93,0.03,5.91
		c0.05,1.13-0.41,1.52-1.52,1.46s-2.72-0.05-4.08,0.03c-1.36,0.08-1.7-0.39-1.67-1.62C172.58,57.22,172.53,54.63,172.53,52.01
		L172.53,52.01z M193.83,51.75c0-2.62,0.05-5.22-0.03-7.84c-0.08-2.62-1.82-4.5-4.16-4.55c-3.97-0.1-7.96-0.1-11.95,0
		c-2.67,0.08-4.57,1.93-4.6,4.42c-0.05,5.32,0,10.61-0.03,15.93c0,0.9,0.41,1.21,1.26,1.18c1.23-0.03,2.49-0.05,3.73,0
		c1.23,0.05,1.41-0.41,1.39-1.44c-0.05-1.98,0.03-3.96-0.03-5.91c-0.03-0.98,0.33-1.41,1.34-1.39h5.14c1-0.03,1.36,0.41,1.34,1.39
		c-0.03,1.98,0.03,3.93-0.03,5.91c-0.03,1.03,0.31,1.49,1.39,1.44c1.08-0.05,2.57-0.05,3.85,0s1.44-0.41,1.41-1.44
		C193.8,56.89,193.83,54.32,193.83,51.75L193.83,51.75z"/>
	<path class="st46" d="M183.32,48.08h-2.06c-1.67-0.03-2.47-1.28-1.72-2.8c0.15-0.28,0.69-0.51,1.05-0.54
		c1.77-0.05,3.57,0,5.37-0.03c1.34-0.03,1.26,0.85,1.26,1.72s0.03,1.7-1.21,1.64c-1.23-0.05-1.8-0.03-2.7-0.03
		C183.32,48.05,183.32,48.08,183.32,48.08z M183.29,47.51h2.31c0.77,0.03,1.05-0.39,1.05-1.1s-0.23-1.16-1.03-1.16h-4.6
		c-0.77,0-1.05,0.39-1.05,1.1s0.23,1.16,1.03,1.16H183.29z"/>
</g>
</svg>
