<?xml version="1.0" encoding="utf-8"?>
<!-- Generator: Adobe Illustrator 23.1.0, SVG Export Plug-In . SVG Version: 6.00 Build 0)  -->
<svg version="1.1" id="Layer_1" xmlns="http://www.w3.org/2000/svg" xmlns:xlink="http://www.w3.org/1999/xlink" x="0px" y="0px"
	 viewBox="0 0 250 100" style="enable-background:new 0 0 250 100;" xml:space="preserve">
<style type="text/css">
	.st0{display:none;}
	.st1{display:inline;fill:#2F2F2F;}
	.st2{display:inline;enable-background:new    ;}
	.st3{fill:#FFFFFF;stroke:#EFEFEF;stroke-width:0.05;stroke-miterlimit:10;}
	.st4{fill:#FFFFFF;}
	.st5{fill:#FCC42C;}
	.st6{fill:#C23844;}
	.st7{fill:#FEFEFE;}
	.st8{fill:#FA4133;}
	.st9{fill:#F85F1D;}
	.st10{fill:#FC323A;}
	.st11{fill:#F99209;}
	.st12{fill:#FCFDFE;}
	.st13{fill:#F94D2D;}
	.st14{fill:#FA512A;}
	.st15{fill:#FB5C25;}
	.st16{fill:#F25710;}
	.st17{fill:#F9BB41;}
	.st18{fill:#FA6C1D;}
	.st19{fill:#F9BD51;}
	.st20{fill:#F97B16;}
	.st21{fill:#FB2841;}
	.st22{fill:#F9880F;}
	.st23{fill:#EE4A0B;}
	.st24{fill:#FAA052;}
	.st25{fill:#F57F41;}
	.st26{fill:#F99044;}
	.st27{fill:#F6B15B;}
	.st28{fill:#F99D06;}
	.st29{fill:#FBBE70;}
	.st30{fill:#FABE5F;}
	.st31{fill:#FBB067;}
	.st32{fill:#41AADF;}
	.st33{fill:#FBFBFB;}
	.st34{fill-rule:evenodd;clip-rule:evenodd;fill:url(#SVGID_1_);}
	.st35{fill:#A5CD39;}
	.st36{fill:#40AA8B;}
	.st37{fill-rule:evenodd;clip-rule:evenodd;fill:#A5CD39;}
	.st38{clip-path:url(#SVGID_3_);fill-rule:evenodd;clip-rule:evenodd;fill:#A5CD39;}
	.st39{opacity:0.36;clip-path:url(#SVGID_5_);fill-rule:evenodd;clip-rule:evenodd;fill:url(#SVGID_6_);enable-background:new    ;}
	.st40{opacity:0.71;clip-path:url(#SVGID_8_);fill-rule:evenodd;clip-rule:evenodd;fill:url(#SVGID_9_);enable-background:new    ;}
	
		.st41{opacity:0.79;clip-path:url(#SVGID_11_);fill-rule:evenodd;clip-rule:evenodd;fill:url(#SVGID_12_);enable-background:new    ;}
	
		.st42{opacity:0.47;clip-path:url(#SVGID_14_);fill-rule:evenodd;clip-rule:evenodd;fill:url(#SVGID_15_);enable-background:new    ;}
	
		.st43{opacity:0.61;clip-path:url(#SVGID_17_);fill-rule:evenodd;clip-rule:evenodd;fill:url(#SVGID_18_);enable-background:new    ;}
	
		.st44{opacity:0.66;clip-path:url(#SVGID_20_);fill-rule:evenodd;clip-rule:evenodd;fill:url(#SVGID_21_);enable-background:new    ;}
	
		.st45{opacity:0.39;clip-path:url(#SVGID_23_);fill-rule:evenodd;clip-rule:evenodd;fill:url(#SVGID_24_);enable-background:new    ;}
	.st46{fill:#73B73E;}
	.st47{fill:#F26922;}
	.st48{fill-rule:evenodd;clip-rule:evenodd;fill:#FFFFFF;}
	.st49{fill:#F19021;}
	.st50{fill:#E9148D;}
	.st51{fill:#2BAEE4;}
	.st52{fill:#13B6A7;}
	.st53{fill:#FEE700;}
	.st54{fill:#EC242A;}
	.st55{fill:#FCB34B;}
	.st56{fill-rule:evenodd;clip-rule:evenodd;fill:#F6F6F6;}
	.st57{fill-rule:evenodd;clip-rule:evenodd;fill:#D71920;}
	.st58{fill:#63A844;}
	.st59{fill:#DF2D38;}
	.st60{fill:#7C8080;}
	.st61{fill:#A3A3A3;}
	.st62{fill:url(#SVGID_25_);}
	.st63{fill:url(#SVGID_26_);}
	.st64{fill:url(#SVGID_27_);}
	.st65{fill:#EF612A;}
	.st66{fill:url(#SVGID_28_);}
	.st67{fill:url(#SVGID_29_);}
	.st68{opacity:0.5;fill:#FFFFFF;}
	.st69{fill:#363833;}
	.st70{fill:#5998A9;}
	.st71{fill:#80B3CB;}
	.st72{fill:url(#SVGID_30_);}
	.st73{fill:url(#SVGID_31_);}
	.st74{fill:url(#SVGID_32_);}
	.st75{fill:url(#SVGID_33_);}
	.st76{fill:url(#SVGID_34_);}
	.st77{fill:url(#SVGID_35_);}
	.st78{fill:url(#SVGID_36_);}
	.st79{fill:#FFC20E;}
</style>
<g class="st0">
	<rect class="st1" width="250" height="100"/>
</g>
<g>
	<path class="st7" d="M199.61,61.55c-3.9,1.77-7.54,1.76-11.04-0.47c-1.5-0.95-2.65-2.24-3.48-3.8c-0.73-1.38-1.1-2.53,0.01-4.14
		c1.49-2.17,1.21-4.7-0.36-6.86c-0.6-0.81-0.85-1.56-0.82-2.51c0.04-1.36-0.02-2.71,0.02-4.07c0.05-1.72,1.05-2.79,2.54-2.81
		c1.42-0.02,2.53,1.12,2.54,2.8c0.04,4.13-0.04,8.25,0.04,12.38c0.07,4.04,3.74,6.67,7.24,5.22c2.23-0.92,3.37-2.66,3.37-5.08
		c0.01-4.07-0.02-8.14,0.01-12.21c0.02-2.36,1.8-3.69,3.72-2.85c1.37,0.6,1.6,1.78,1.6,3.1c-0.01,6.41,0.01,12.81-0.01,19.22
		c0,2.22,0.06,4.46-0.12,6.67c-0.38,4.64-3.87,8.46-8.39,9.41c-4.68,0.98-9.39-1.09-11.7-5.14c-0.95-1.66-0.7-3.2,0.63-3.98
		c1.39-0.81,2.75-0.36,3.82,1.28c1.56,2.38,3.6,3.26,6.25,2.68c2.11-0.46,3.87-2.32,4.09-4.54
		C199.71,64.49,199.61,63.13,199.61,61.55z"/>
	<path class="st7" d="M154.27,43.42c0-5.31,0-10.62,0-15.94c0-2.24,0.86-3.36,2.58-3.39c1.73-0.03,2.68,1.12,2.68,3.31
		c0.01,10.79,0,21.57,0.01,32.36c0,1.45-0.44,2.59-1.89,3.05c-1.14,0.35-2.14-0.01-2.9-0.96c-0.51-0.64-0.49-1.41-0.49-2.17
		C154.27,54.26,154.27,48.84,154.27,43.42z"/>
	<path class="st7" d="M100.94,54.88c0.02-2.92-0.25-5.84,0.58-8.72c1.51-5.27,6.74-9.27,12.22-9.29c1.72-0.01,2.97,1.02,3.05,2.5
		c0.08,1.46-1.03,2.53-2.82,2.71c-4.95,0.5-7.78,3.64-7.8,8.65c-0.01,3.03,0.01,6.07-0.01,9.1c-0.01,1.96-0.93,3.06-2.55,3.08
		c-1.68,0.02-2.65-1.12-2.66-3.16C100.93,58.13,100.94,56.5,100.94,54.88z"/>
	<path class="st7" d="M123.42,49.9c0,3.36,0.01,6.73,0,10.09c-0.01,1.84-0.96,2.91-2.53,2.92c-1.66,0.01-2.67-1.08-2.67-2.98
		c-0.01-6.67-0.02-13.35,0-20.02c0-1.85,1.09-3.06,2.65-3.04c1.59,0.02,2.55,1.17,2.55,3.1C123.43,43.28,123.42,46.59,123.42,49.9z"
		/>
	<path class="st8" d="M169.98,62.23c-0.72,0.74-1.61,1.09-2.62,1.17c-0.86-0.48-1.19-1.31-1.56-2.16c-0.95-2.22-1.86-4.45-2.78-6.68
		c-0.29-0.71-0.54-1.43,0.09-2.1c1.98-0.33,2.89,0.22,3.41,2.02c0.15,0.51,0.34,1.02,0.52,1.52
		C168.98,57.63,169.51,59.92,169.98,62.23z"/>
	<path class="st9" d="M176.2,58.1c-1.14,0.96-2.38,1.78-3.69,2.48c-0.23,0.21-0.51,0.19-0.74,0.06c-1.2-0.68-2.39-4.58-1.81-5.87
		c0.92-0.76,1.89-1.42,2.95-1.96C174.7,53.67,176.5,56.56,176.2,58.1z"/>
	<path class="st10" d="M163.11,52.47c1.03,3.29,2.6,6.36,3.83,9.57c0.17,0.45,0.28,0.92,0.42,1.38c-0.79,0.18-1.56,0.21-2.29-0.22
		c-2.45-2.67-3.61-5.82-3.58-9.43C161.76,52.99,162.3,52.56,163.11,52.47z"/>
	<path class="st11" d="M180.31,55.38c-0.77,0.69-1.62,1.26-2.56,1.68c-0.7-0.69-0.22-1.45-0.13-2.18c0.44-1.52,0.08-2.91-0.67-4.24
		c-0.23-0.41-0.61-0.74-0.71-1.23c-0.1-1.01-0.89-1.71-1.16-2.65c-0.21-0.73-0.56-1.43-0.04-2.16c0.93-0.62,1.5,0.13,2.13,0.58
		c0.48,0.34,0.9,0.77,1.28,1.22c1.1,2.41,2.36,4.75,3,7.35C181.48,54.59,180.71,54.86,180.31,55.38z"/>
	<path class="st12" d="M123.42,29.27c-0.01,1.48-1.09,2.56-2.57,2.55c-1.44-0.01-2.63-1.15-2.64-2.54c-0.01-1.5,1.17-2.65,2.71-2.62
		C122.38,26.69,123.43,27.77,123.42,29.27z"/>
	<path class="st13" d="M165.5,46.64c-2.2,1.36-4.17,0.45-4.38-2.06c-0.18-2.1-0.41-4.23,1.03-6.07c0.48,0.1,0.75,0.44,0.91,0.85
		c0.73,1.8,1.56,3.57,2.29,5.38C165.61,45.38,165.5,46,165.5,46.64z"/>
	<path class="st14" d="M169.95,54.78c0.54,2.07,1.17,4.11,2.56,5.81c-0.76,0.68-1.61,1.22-2.53,1.65c-1.61-1.78-2.05-4.11-2.94-6.23
		C168.27,56.21,168.94,55.08,169.95,54.78z"/>
	<path class="st15" d="M165.5,46.64c-1.3-2.63-2.64-5.25-3.35-8.13c0.1-0.13,0.2-0.27,0.3-0.4c0.58-0.29,1.14-0.68,1.85-0.47
		c1.65,1.68,2.62,3.67,2.75,6.04C166.41,44.59,166.7,46.01,165.5,46.64z"/>
	<path class="st16" d="M178.43,55.05c-0.23,0.67-0.45,1.34-0.68,2.01c-0.52,0.35-1.03,0.69-1.55,1.04c-0.83-1.93-2.56-3.3-3.3-5.29
		c0.76-0.56,1.51-1.11,2.27-1.67c1.52,0.02,1.95,1.29,2.55,2.31C178.01,53.95,178.1,54.56,178.43,55.05z"/>
	<path class="st17" d="M180.39,44.3c3.29,1.84,4.39,3.63,3.94,6.47c-0.16,1.03-0.51,1.97-1.34,2.66c-1.29-0.26-0.98-1.44-1.07-2.19
		c-0.24-1.97-0.85-3.76-1.8-5.48C179.84,45.25,179.31,44.6,180.39,44.3z"/>
	<path class="st18" d="M167.05,43.67c-1.35-1.62-1.76-3.69-2.63-5.54c0.36-0.52,0.85-0.53,1.39-0.35c0.55,0.21,1.12,0.38,1.55,0.83
		c0.45,0.37,1.06,0.57,1.23,1.22c0.31,1.03,0.98,1.87,1.39,2.85c0.3,0.72,0.72,1.47-0.02,2.19
		C168.95,44.58,168.31,43.38,167.05,43.67z"/>
	<path class="st19" d="M180.39,44.3c-0.06,0.15-0.2,0.36-0.15,0.43c1.73,2.65,1.95,5.76,2.75,8.7c-0.79,0.8-1.64,1.51-2.69,1.95
		c0.26-0.53,0.52-1.07,0.77-1.6c0.04-1.83-0.24-3.59-1.13-5.22c-0.16-2.28-1.58-3.77-3.17-5.16c-0.54-0.47-1.38-0.77-0.98-1.77
		c0.23-0.1,0.46-0.13,0.66,0.08C177.83,42.47,179.17,43.3,180.39,44.3z"/>
	<path class="st20" d="M169.96,44.88c-0.64-1.63-1.28-3.25-1.92-4.88c0.36-0.36,0.75-0.24,1.15-0.07c1.08,0.56,2.25,0.99,3,2.03
		c0.1,0.14,0.17,0.29,0.23,0.44c0.29,1.05,1.06,1.88,1.37,2.93c0.2,0.68,0.49,1.36-0.24,1.92
		C172.35,46.46,171.15,45.67,169.96,44.88z"/>
	<path class="st21" d="M161.49,53.76c0.12,1.93,1.27,3.5,1.87,5.27c0.48,1.42,1.14,2.78,1.72,4.16c-2.36-0.66-3.89-2.36-3.92-4.68
		C161.14,56.93,160.73,55.3,161.49,53.76z"/>
	<path class="st22" d="M173.54,47.26c-0.21-1.72-1.24-3.16-1.65-4.82c1.67-0.16,2.91,0.68,3.28,2.23c0.54,1.52,1.07,3.04,1.61,4.57
		c-0.62,0.44-0.96-0.09-1.36-0.4C174.8,48.31,174.17,47.79,173.54,47.26z"/>
	<path class="st23" d="M175.43,48.84c0.45,0.13,0.91,0.26,1.36,0.4c1.74,1.6,1.86,3.66,1.64,5.81c-1.46-0.99-2.04-2.71-3.25-3.91
		C175.58,50.41,175.62,49.64,175.43,48.84z"/>
	<path class="st24" d="M169,40.37c-0.32-0.12-0.64-0.25-0.96-0.37c-0.33-0.31-0.66-0.62-0.99-0.92c-0.07-1.33,0.78-1.61,1.85-1.6
		c0.59,0,1.12,0.36,1.72,0.33c0.84,0.45,1.67,0.9,2.37,1.58c-0.23,0.76-0.91,0.76-1.5,0.91C170.67,40.68,169.82,40.07,169,40.37z"/>
	<path class="st25" d="M165.75,38.4c-0.44-0.09-0.89-0.18-1.33-0.27c-0.66-0.01-1.32-0.01-1.97-0.02c1.47-1.93,3.42-2.29,5.65-1.68
		C168.05,37.96,166.72,37.96,165.75,38.4z"/>
	<path class="st26" d="M165.75,38.4c0.55-0.94,1.5-1.39,2.34-1.97c1.05,0.08,1.79,0.72,2.52,1.37c-1.09,0.69-2.74-0.15-3.57,1.28
		C166.62,38.85,166.18,38.63,165.75,38.4z"/>
	<path class="st27" d="M171.26,39.76c0.57-0.13,1.15-0.25,1.72-0.38c1.16,0.77,2.32,1.55,3.47,2.33c-0.21,0-0.42,0-0.63,0
		c-0.3,0.47-0.76,0.53-1.26,0.46c-0.8-0.25-1.52-0.7-2.39-0.83C171.37,41.21,170.8,40.73,171.26,39.76z"/>
	<path class="st7" d="M152.37,48.45c-0.64-6.4-6.41-11.41-13.11-11.37c-6.74,0.04-12.72,5.07-12.95,11.48
		c-0.3,8.24-0.13,16.49-0.16,24.74c0,0.16,0.03,0.32,0.06,0.48c0.27,1.28,1.12,2.01,2.37,2.09c1.31,0.08,2.35-0.49,2.68-1.86
		c0.16-0.67,0.19-1.39,0.19-2.09c0.02-3.67,0.01-7.33,0.01-11.24c0.61,0.35,0.97,0.56,1.34,0.76c4.79,2.61,9.56,2.35,14.01-0.61
		C151.16,57.93,152.9,53.65,152.37,48.45z M139.36,57.93c-4.34,0.01-7.9-3.5-7.9-7.8c0-4.4,3.41-7.82,7.81-7.84
		c4.37-0.02,7.91,3.45,7.93,7.76C147.22,54.35,143.67,57.92,139.36,57.93z"/>
	<path class="st7" d="M71.05,47.15c-1.56-6.83-8.43-11.17-15.35-9.89c-6.53,1.21-10.85,7.55-10.67,12.94
		c0.25,7.21-0.01,14.43-0.03,21.64c0,0.65-0.01,1.31,0.12,1.94c0.39,1.95,2.62,2.76,4.18,1.55c0.86-0.67,1.02-1.61,1.02-2.62
		c-0.01-3.9,0-7.81,0-11.75c0.25-0.06,0.32-0.1,0.35-0.08c0.38,0.2,0.76,0.42,1.14,0.63c3.1,1.68,6.36,2.05,9.77,1.18
		C68.48,60.93,72.64,54.09,71.05,47.15z M58.25,57.93c-4.33,0.03-7.91-3.48-7.93-7.78c-0.02-4.37,3.42-7.83,7.81-7.86
		c4.4-0.02,7.89,3.38,7.94,7.74C66.12,54.33,62.59,57.9,58.25,57.93z"/>
	<path class="st7" d="M99.2,59.55c-0.05-3.25-0.05-6.5-0.11-9.75c-0.16-8.32-6.9-13.95-15.13-12.65c-5.16,0.81-9.27,4.62-10.57,9.79
		c-1.25,4.97,0.54,10.43,4.65,13.3c5.07,3.54,10.36,3.65,15.84,0.43c0.87,1.79,1.93,2.51,3.34,2.16
		C98.92,62.4,99.23,61.07,99.2,59.55z M86.27,57.71c-4.48,0.01-8.02-3.36-8.03-7.65c-0.01-4.24,3.79-8.01,8.04-7.98
		c4.16,0.02,7.68,3.64,7.7,7.91C94,54.38,90.68,57.7,86.27,57.71z"/>
	<path class="st28" d="M180.71,48.31c0.77,1.78,1.68,3.55,0.38,5.47c-1.29-2.25-2.27-4.63-2.97-7.13c0.09-0.13,0.22-0.22,0.38-0.26
		C179.82,46.34,179.89,47.75,180.71,48.31z"/>
	<path class="st29" d="M178.44,46.58c-0.11,0.02-0.22,0.04-0.33,0.06c-0.91-0.76-1.83-1.49-2.93-1.97c-1.01-0.86-2.1-1.62-3.28-2.23
		c0,0,0.04-0.1,0.04-0.1c0.31-1.32,1.22-0.73,1.98-0.62c1.72,0.7,3.22,1.72,4.37,3.17C178.61,45.29,179.58,45.93,178.44,46.58z"/>
	<path class="st30" d="M178.44,46.58c-0.1-1.27-1.09-1.87-1.93-2.59c-0.77-0.66-1.74-1.07-2.31-1.97c0.01-0.21,0.2-0.24,0.33-0.33
		c0.44,0,0.87,0,1.31,0c2.13,1.83,4.16,3.73,4.88,6.6C179.8,47.93,179.22,47.12,178.44,46.58z"/>
	<path class="st31" d="M174.52,41.7c-0.11,0.11-0.22,0.22-0.33,0.33c-0.76,0.06-1.56-0.19-2.26,0.31c-0.98-0.66-1.96-1.31-2.94-1.97
		c0.53-1.05,1.49-0.48,2.26-0.61c0.14,0.9,0.92,0.88,1.55,1.12C173.4,41.1,173.95,41.42,174.52,41.7z"/>
</g>
</svg>
