<?xml version="1.0" encoding="utf-8"?>
<!-- Generator: Adobe Illustrator 23.1.0, SVG Export Plug-In . SVG Version: 6.00 Build 0)  -->
<svg version="1.1" id="Layer_1" xmlns="http://www.w3.org/2000/svg" xmlns:xlink="http://www.w3.org/1999/xlink" x="0px" y="0px"
	 viewBox="0 0 250 100" style="enable-background:new 0 0 250 100;" xml:space="preserve">
<style type="text/css">
	.st0{display:none;}
	.st1{display:inline;fill:#2F2F2F;}
	.st2{display:inline;enable-background:new    ;}
	.st3{fill:#FFFFFF;stroke:#EFEFEF;stroke-width:0.05;stroke-miterlimit:10;}
	.st4{fill:#FFFFFF;}
	.st5{fill:#FCC42C;}
	.st6{fill:#C23844;}
	.st7{fill:#FEFEFE;}
	.st8{fill:#FA4133;}
	.st9{fill:#F85F1D;}
	.st10{fill:#FC323A;}
	.st11{fill:#F99209;}
	.st12{fill:#FCFDFE;}
	.st13{fill:#F94D2D;}
	.st14{fill:#FA512A;}
	.st15{fill:#FB5C25;}
	.st16{fill:#F25710;}
	.st17{fill:#F9BB41;}
	.st18{fill:#FA6C1D;}
	.st19{fill:#F9BD51;}
	.st20{fill:#F97B16;}
	.st21{fill:#FB2841;}
	.st22{fill:#F9880F;}
	.st23{fill:#EE4A0B;}
	.st24{fill:#FAA052;}
	.st25{fill:#F57F41;}
	.st26{fill:#F99044;}
	.st27{fill:#F6B15B;}
	.st28{fill:#F99D06;}
	.st29{fill:#FBBE70;}
	.st30{fill:#FABE5F;}
	.st31{fill:#FBB067;}
	.st32{fill:#41AADF;}
	.st33{fill:#FBFBFB;}
	.st34{fill-rule:evenodd;clip-rule:evenodd;fill:url(#SVGID_1_);}
	.st35{fill:#A5CD39;}
	.st36{fill:#40AA8B;}
	.st37{fill-rule:evenodd;clip-rule:evenodd;fill:#A5CD39;}
	.st38{clip-path:url(#SVGID_3_);fill-rule:evenodd;clip-rule:evenodd;fill:#A5CD39;}
	.st39{opacity:0.36;clip-path:url(#SVGID_5_);fill-rule:evenodd;clip-rule:evenodd;fill:url(#SVGID_6_);enable-background:new    ;}
	.st40{opacity:0.71;clip-path:url(#SVGID_8_);fill-rule:evenodd;clip-rule:evenodd;fill:url(#SVGID_9_);enable-background:new    ;}
	
		.st41{opacity:0.79;clip-path:url(#SVGID_11_);fill-rule:evenodd;clip-rule:evenodd;fill:url(#SVGID_12_);enable-background:new    ;}
	
		.st42{opacity:0.47;clip-path:url(#SVGID_14_);fill-rule:evenodd;clip-rule:evenodd;fill:url(#SVGID_15_);enable-background:new    ;}
	
		.st43{opacity:0.61;clip-path:url(#SVGID_17_);fill-rule:evenodd;clip-rule:evenodd;fill:url(#SVGID_18_);enable-background:new    ;}
	
		.st44{opacity:0.66;clip-path:url(#SVGID_20_);fill-rule:evenodd;clip-rule:evenodd;fill:url(#SVGID_21_);enable-background:new    ;}
	
		.st45{opacity:0.39;clip-path:url(#SVGID_23_);fill-rule:evenodd;clip-rule:evenodd;fill:url(#SVGID_24_);enable-background:new    ;}
	.st46{fill:#73B73E;}
	.st47{fill:#F26922;}
	.st48{fill-rule:evenodd;clip-rule:evenodd;fill:#FFFFFF;}
	.st49{fill:#F19021;}
	.st50{fill:#E9148D;}
	.st51{fill:#2BAEE4;}
	.st52{fill:#13B6A7;}
	.st53{fill:#FEE700;}
	.st54{fill:#EC242A;}
	.st55{fill:#FCB34B;}
	.st56{fill-rule:evenodd;clip-rule:evenodd;fill:#F6F6F6;}
	.st57{fill-rule:evenodd;clip-rule:evenodd;fill:#D71920;}
	.st58{fill:#63A844;}
	.st59{fill:#DF2D38;}
	.st60{fill:#7C8080;}
	.st61{fill:#A3A3A3;}
	.st62{fill:url(#SVGID_25_);}
	.st63{fill:url(#SVGID_26_);}
	.st64{fill:url(#SVGID_27_);}
	.st65{fill:#EF612A;}
	.st66{fill:url(#SVGID_28_);}
	.st67{fill:url(#SVGID_29_);}
	.st68{opacity:0.5;fill:#FFFFFF;}
	.st69{fill:#363833;}
	.st70{fill:#5998A9;}
	.st71{fill:#80B3CB;}
	.st72{fill:url(#SVGID_30_);}
	.st73{fill:url(#SVGID_31_);}
	.st74{fill:url(#SVGID_32_);}
	.st75{fill:url(#SVGID_33_);}
	.st76{fill:url(#SVGID_34_);}
	.st77{fill:url(#SVGID_35_);}
	.st78{fill:url(#SVGID_36_);}
	.st79{fill:#FFC20E;}
</style>
<g class="st0">
	<rect class="st1" width="250" height="100"/>
</g>
<g>
	<path class="st4" d="M36.12,40.62c4.75,0.12,9.62,0,14.38,0c1.22,0.12,2.31,0.85,2.68,2.07c0.37,0.97,0.24,2.07,0.24,3.17
		c0,1.22,0.12,2.44-0.12,3.53c-0.49,1.1-1.58,1.95-2.8,2.07H38.68c-0.12,2.07-0.12,4.02-0.12,6.09H36
		C36.12,51.95,36.12,46.34,36.12,40.62z M38.68,43.3v5.73h11.45c0.49,0,0.73-0.37,0.61-0.73v-5C50.74,43.3,38.68,43.3,38.68,43.3z
		 M91.56,40.74h2.92c1.22,1.34,5,5.97,6.34,7.8c1.71-2.07,5.12-6.46,6.46-7.8h2.92c-0.61,0.97-6.58,8.89-7.55,10.23
		c-0.24,0.37-0.49,0.73-0.49,1.1v5.6H99.6v-5.85c0-0.61-0.37-0.97-0.73-1.34c-2.07-2.68-4.14-5.36-6.09-8.04
		C92.29,41.59,91.92,41.23,91.56,40.74z M54.76,40.74h2.68v14.38h14.86v2.56c-5.85,0.12-11.7,0-17.54,0
		C54.64,51.95,54.76,46.34,54.76,40.74z M75.6,40.98c0.61-0.24,1.46-0.24,2.31-0.24h10.6c1.58-0.12,2.8,1.58,2.68,3.05v13.89h-2.56
		c0-1.95,0-3.9-0.12-5.85H76.21v5.85h-2.56V43.79C73.65,42.45,74.62,41.47,75.6,40.98z M76.33,43.3v5.85h12.18
		c0-1.95-0.12-3.9-0.12-5.85H76.33z M110.44,43.66c-0.12-1.58,1.46-2.92,3.05-2.92h7.55c1.58,0,3.29-0.12,4.87,0.24
		c0.85,0.24,1.46,0.97,1.83,1.71c0.37,0.73,0.24,1.58,0.24,2.31h-2.8v-1.46c-0.37-0.12-0.85-0.12-1.22-0.12h-8.65
		c-0.73,0-1.58-0.12-2.31,0.12c-0.12,1.34,0,2.56,0,3.9c0,0.49,0.49,0.49,0.85,0.49h10.6c1.22-0.12,2.44,0.61,3.05,1.71
		c0.49,0.73,0.37,1.71,0.37,2.68s0.12,2.07-0.12,3.05c-0.24,1.1-1.22,2.19-2.44,2.31c-1.46,0.24-2.92,0.12-4.39,0.12h-7.68
		c-1.1,0-1.95-0.61-2.56-1.46c-0.61-0.73-0.49-1.71-0.49-2.56c0.85-0.12,1.83-0.12,2.68,0c0,0.37,0,0.85,0.12,1.22
		c0.24,0.37,0.61,0.24,0.97,0.24h8.28c0.97,0,1.95,0.12,2.92-0.12v-4.39c-0.49-0.12-0.85-0.12-1.34-0.12h-9.75
		c-0.97,0-2.07-0.12-2.8-0.73c-0.61-0.49-0.97-1.34-0.85-2.19V43.66z M132.13,40.74c0.37-0.12,0.73-0.12,1.1-0.12h10.97
		c1.34,0,2.92,0.97,2.92,2.44c0.12,3.66,0,7.19,0,10.84c0,0.73-0.12,1.58-0.61,2.31c-0.61,0.73-1.46,1.34-2.44,1.34h-10.84
		c-0.61,0-1.34,0-1.95-0.24c-0.73-0.37-1.46-0.97-1.58-1.83c-0.37-0.85-0.24-1.83-0.24-2.8v-8.41
		C129.45,42.69,130.67,41.35,132.13,40.74z M132.49,43.3c-0.24,0.24-0.12,0.61-0.24,0.97V55c4.02,0.12,8.04,0,12.06,0V43.66
		c0.12-0.37-0.37-0.61-0.61-0.61h-10.23C133.1,43.06,132.74,43.06,132.49,43.3z M148.82,40.74c1.1,0,2.07-0.12,3.17,0
		c2.92,3.05,5.6,6.34,8.28,9.5c1.22,1.22,2.19,2.56,3.41,3.78V40.74h2.44l0.24,0.24v10.23c0,2.07-0.12,4.26,0,6.34h-2.92
		c-0.24,0-0.49-0.24-0.61-0.49c-0.97-1.22-2.07-2.31-3.05-3.53c-1.58-1.83-3.29-3.78-4.87-5.6c-1.1-1.22-2.07-2.56-3.29-3.66
		c-0.12,4.39,0.12,8.89-0.12,13.28h-2.56C148.82,51.95,148.82,46.34,148.82,40.74z"/>
	<path class="st50" d="M174.77,31.72l13.04,5.97l-13.04,6.21V31.72z"/>
	<path class="st51" d="M187.81,37.69l13.04,5.85l-13.04,6.34L187.81,37.69z"/>
	<path class="st52" d="M187.81,49.88l13.04,5.85l-13.04,6.34L187.81,49.88z"/>
	<path class="st53" d="M200.84,43.54L214,49.51l-13.16,6.21V43.54z"/>
	<path class="st54" d="M174.77,43.91l13.04,5.97l-13.04,6.09V43.91z"/>
	<path class="st55" d="M174.77,56.09l13.04,5.97l-13.04,6.21V56.09z"/>
</g>
</svg>
