<?xml version="1.0" encoding="utf-8"?>
<!-- Generator: Adobe Illustrator 23.1.0, SVG Export Plug-In . SVG Version: 6.00 Build 0)  -->
<svg version="1.1" id="Layer_1" xmlns="http://www.w3.org/2000/svg" xmlns:xlink="http://www.w3.org/1999/xlink" x="0px" y="0px"
	 viewBox="0 0 250 100" style="enable-background:new 0 0 250 100;" xml:space="preserve">
<style type="text/css">
	.st0{display:none;}
	.st1{display:inline;fill:#2F2F2F;}
	.st2{display:inline;enable-background:new    ;}
	.st3{fill:#FFFFFF;stroke:#EFEFEF;stroke-width:0.05;stroke-miterlimit:10;}
	.st4{fill:#FFFFFF;}
	.st5{fill:#FCC42C;}
	.st6{fill:#C23844;}
	.st7{fill:#FEFEFE;}
	.st8{fill:#FA4133;}
	.st9{fill:#F85F1D;}
	.st10{fill:#FC323A;}
	.st11{fill:#F99209;}
	.st12{fill:#FCFDFE;}
	.st13{fill:#F94D2D;}
	.st14{fill:#FA512A;}
	.st15{fill:#FB5C25;}
	.st16{fill:#F25710;}
	.st17{fill:#F9BB41;}
	.st18{fill:#FA6C1D;}
	.st19{fill:#F9BD51;}
	.st20{fill:#F97B16;}
	.st21{fill:#FB2841;}
	.st22{fill:#F9880F;}
	.st23{fill:#EE4A0B;}
	.st24{fill:#FAA052;}
	.st25{fill:#F57F41;}
	.st26{fill:#F99044;}
	.st27{fill:#F6B15B;}
	.st28{fill:#F99D06;}
	.st29{fill:#FBBE70;}
	.st30{fill:#FABE5F;}
	.st31{fill:#FBB067;}
	.st32{fill:#41AADF;}
	.st33{fill:#FBFBFB;}
	.st34{fill-rule:evenodd;clip-rule:evenodd;fill:url(#SVGID_1_);}
	.st35{fill:#A5CD39;}
	.st36{fill:#40AA8B;}
	.st37{fill-rule:evenodd;clip-rule:evenodd;fill:#A5CD39;}
	.st38{clip-path:url(#SVGID_3_);fill-rule:evenodd;clip-rule:evenodd;fill:#A5CD39;}
	.st39{opacity:0.36;clip-path:url(#SVGID_5_);fill-rule:evenodd;clip-rule:evenodd;fill:url(#SVGID_6_);enable-background:new    ;}
	.st40{opacity:0.71;clip-path:url(#SVGID_8_);fill-rule:evenodd;clip-rule:evenodd;fill:url(#SVGID_9_);enable-background:new    ;}
	
		.st41{opacity:0.79;clip-path:url(#SVGID_11_);fill-rule:evenodd;clip-rule:evenodd;fill:url(#SVGID_12_);enable-background:new    ;}
	
		.st42{opacity:0.47;clip-path:url(#SVGID_14_);fill-rule:evenodd;clip-rule:evenodd;fill:url(#SVGID_15_);enable-background:new    ;}
	
		.st43{opacity:0.61;clip-path:url(#SVGID_17_);fill-rule:evenodd;clip-rule:evenodd;fill:url(#SVGID_18_);enable-background:new    ;}
	
		.st44{opacity:0.66;clip-path:url(#SVGID_20_);fill-rule:evenodd;clip-rule:evenodd;fill:url(#SVGID_21_);enable-background:new    ;}
	
		.st45{opacity:0.39;clip-path:url(#SVGID_23_);fill-rule:evenodd;clip-rule:evenodd;fill:url(#SVGID_24_);enable-background:new    ;}
	.st46{fill:#73B73E;}
	.st47{fill:#F26922;}
	.st48{fill-rule:evenodd;clip-rule:evenodd;fill:#FFFFFF;}
	.st49{fill:#F19021;}
	.st50{fill:#E9148D;}
	.st51{fill:#2BAEE4;}
	.st52{fill:#13B6A7;}
	.st53{fill:#FEE700;}
	.st54{fill:#EC242A;}
	.st55{fill:#FCB34B;}
	.st56{fill-rule:evenodd;clip-rule:evenodd;fill:#F6F6F6;}
	.st57{fill-rule:evenodd;clip-rule:evenodd;fill:#D71920;}
	.st58{fill:#63A844;}
	.st59{fill:#DF2D38;}
	.st60{fill:#7C8080;}
	.st61{fill:#A3A3A3;}
	.st62{fill:url(#SVGID_25_);}
	.st63{fill:url(#SVGID_26_);}
	.st64{fill:url(#SVGID_27_);}
	.st65{fill:#EF612A;}
	.st66{fill:url(#SVGID_28_);}
	.st67{fill:url(#SVGID_29_);}
	.st68{opacity:0.5;fill:#FFFFFF;}
	.st69{fill:#363833;}
	.st70{fill:#5998A9;}
	.st71{fill:#80B3CB;}
	.st72{fill:url(#SVGID_30_);}
	.st73{fill:url(#SVGID_31_);}
	.st74{fill:url(#SVGID_32_);}
	.st75{fill:url(#SVGID_33_);}
	.st76{fill:url(#SVGID_34_);}
	.st77{fill:url(#SVGID_35_);}
	.st78{fill:url(#SVGID_36_);}
	.st79{fill:#FFC20E;}
</style>
<g class="st0">
	<rect class="st1" width="250" height="100"/>
</g>
<g>
	<path class="st49" d="M181.88,41.74c-7.78,0.49-4.38,10.7,4.38,10.21C194.76,51.46,190.39,41.25,181.88,41.74z"/>
	<path class="st49" d="M178.72,35.42c-13.86,0-25.28,11.42-25.28,25.52s11.42,25.52,25.28,25.52S204,75.04,204,60.94
		S192.58,35.42,178.72,35.42z M178.72,83.54c-12.4,0-22.61-10.21-22.61-22.85s10.21-22.85,22.61-22.85
		c12.4,0,22.61,10.21,22.61,22.85S191.12,83.54,178.72,83.54z M177.99,17.67c-6.08,4.62-4.86,11.67-4.86,11.67s-3.89-9.97-8.75-15.8
		c-0.73,7.78,1.7,17.99,1.7,17.99s-3.16-6.32-10.7-6.81c6.32,3.65,8.75,10.21,9.24,11.91c3.65-2.19,8.02-3.65,12.4-3.65
		C176.53,31.04,174.83,24.23,177.99,17.67z"/>
	<path class="st4" d="M48.19,63.37v5.35H46V55.1h4.62c1.46,0,2.67,0.49,3.65,1.22c0.97,0.73,1.22,1.7,1.22,3.16
		c0,1.22-0.49,2.43-1.22,3.16c-0.73,0.73-1.94,1.22-3.4,1.22h-2.67C48.19,63.86,48.19,63.37,48.19,63.37z M53.05,58.99
		c0-0.73-0.24-1.46-0.73-1.7c-0.49-0.49-1.22-0.73-2.19-0.73h-2.19v4.86h2.19C52.08,61.42,53.05,60.7,53.05,58.99z M64.47,68.47
		l-3.4-5.59h-1.46v5.59h-2.19V54.86h4.86c1.46,0,2.67,0.49,3.65,1.22c0.97,0.73,1.22,1.7,1.22,2.92c0,0.97-0.24,1.94-0.97,2.67
		c-0.73,0.73-1.46,1.22-2.67,1.22l3.65,5.59H64.47z M59.37,61.42h2.43c1.7,0,2.67-0.73,2.67-2.43c0-0.73-0.24-1.22-0.73-1.7
		s-1.22-0.73-1.94-0.73h-2.43C59.37,56.56,59.37,61.42,59.37,61.42z M76.87,65.56h-5.83l-0.97,2.92h-2.43l5.1-13.61h2.43l5.1,13.61
		h-2.43C77.84,68.47,76.87,65.56,76.87,65.56z M76.38,63.86l-2.19-6.32l-2.19,6.32C72.01,63.86,76.38,63.86,76.38,63.86z
		 M91.46,55.83c0.97,0.73,1.94,1.94,2.19,3.4h-2.43c-0.24-0.73-0.73-1.46-1.46-1.7c-0.73-0.49-1.46-0.73-2.43-0.73
		c-0.73,0-1.7,0.24-2.19,0.49c-0.73,0.49-1.22,0.97-1.7,1.7s-0.49,1.7-0.49,2.67c0,0.97,0.24,1.94,0.49,2.67
		c0.24,0.73,0.97,1.22,1.7,1.7s1.7,0.73,2.43,0.49c0.97,0,2.19-0.24,2.92-0.97c0.73-0.73,1.22-1.7,1.46-2.92h-5.1v-1.7h6.81v2.19
		c-0.24,0.97-0.49,1.94-0.97,2.67s-1.22,1.46-2.19,1.94c-0.97,0.49-1.94,0.73-3.16,0.73s-2.43-0.24-3.4-0.97
		c-0.97-0.49-1.7-1.46-2.43-2.43c-1.22-2.19-1.22-4.86,0-7.29c0.49-0.97,1.46-1.94,2.43-2.43s2.19-0.97,3.4-0.97
		C89.02,54.86,90.48,55.1,91.46,55.83z M109.44,55.1v13.61h-2.19V58.51l-3.89,10.21h-1.94l-3.89-10.21v10.21h-2.19V55.1h2.67
		l4.38,10.7l4.38-10.7H109.44z M120.14,65.56h-5.83l-0.97,2.92h-2.43l5.1-13.61h2.43l5.1,13.61h-2.43
		C121.11,68.47,120.14,65.56,120.14,65.56z M119.65,63.86l-2.19-6.32l-2.19,6.32H119.65z M133.02,54.86v1.7h-3.89v11.91h-2.19V56.56
		h-3.65v-1.7H133.02z M136.42,54.86v13.61h-2.19V54.86H136.42z M148.82,56.08c1.22,0.97,1.94,2.19,2.19,3.4h-2.43
		c-0.24-0.73-0.73-1.46-1.46-1.94c-0.73-0.49-1.7-0.73-2.67-0.73c-0.73,0-1.46,0.24-2.19,0.49c-0.73,0.49-1.22,0.97-1.46,1.7
		c-0.73,1.7-0.73,3.65,0,5.1c0.24,0.73,0.97,1.22,1.46,1.7c0.73,0.49,1.46,0.73,2.19,0.49c0.97,0,1.7-0.24,2.67-0.73
		c0.73-0.49,1.22-1.22,1.46-1.94h2.43c-0.24,1.46-1.22,2.67-2.19,3.4c-1.22,0.73-2.43,1.22-4.13,1.22c-1.22,0-2.43-0.24-3.4-0.97
		c-0.97-0.49-1.7-1.46-2.19-2.43c-0.97-2.19-0.97-4.86,0-7.29c0.49-0.97,1.22-1.94,2.19-2.43c0.97-0.49,2.19-0.97,3.4-0.97
		C146.39,54.62,147.85,55.1,148.82,56.08z M161.46,63.37v5.35h-2.19V55.1h4.62c1.46,0,2.67,0.49,3.65,1.22
		c0.73,0.73,1.22,1.7,1.22,3.16c0,1.22-0.49,2.43-1.22,3.16c-0.73,0.73-1.94,1.22-3.4,1.22h-2.67
		C161.46,63.86,161.46,63.37,161.46,63.37z M166.32,58.99c0-0.73-0.24-1.46-0.73-1.7c-0.49-0.49-1.22-0.73-2.19-0.73h-2.19v4.86
		h2.19C165.59,61.42,166.32,60.7,166.32,58.99z M172.4,66.77h4.62v1.7h-6.81V54.86h2.19C172.4,54.86,172.4,66.77,172.4,66.77z
		 M187.23,65.56h-5.83l-0.97,2.92h-2.43l5.1-13.61h2.43l5.1,13.61h-2.43C188.2,68.47,187.23,65.56,187.23,65.56z M186.74,63.86
		l-2.19-6.32l-2.19,6.32C182.37,63.86,186.74,63.86,186.74,63.86z M199.38,54.86l-4.62,8.75v5.1h-2.19v-5.1l-4.62-8.75h2.43
		l3.16,6.32l3.16-6.32H199.38z"/>
</g>
</svg>
