<?xml version="1.0" encoding="utf-8"?>
<!-- Generator: Adobe Illustrator 23.1.0, SVG Export Plug-In . SVG Version: 6.00 Build 0)  -->
<svg version="1.1" id="Layer_1" xmlns="http://www.w3.org/2000/svg" xmlns:xlink="http://www.w3.org/1999/xlink" x="0px" y="0px"
	 viewBox="0 0 250 100" style="enable-background:new 0 0 250 100;" xml:space="preserve">
<style type="text/css">
	.st0{display:none;}
	.st1{display:inline;fill:#2F2F2F;}
	.st2{display:inline;enable-background:new    ;}
	.st3{fill:#FFFFFF;stroke:#EFEFEF;stroke-width:0.05;stroke-miterlimit:10;}
	.st4{fill:#FFFFFF;}
	.st5{fill:#FCC42C;}
	.st6{fill:#C23844;}
	.st7{fill:#FEFEFE;}
	.st8{fill:#FA4133;}
	.st9{fill:#F85F1D;}
	.st10{fill:#FC323A;}
	.st11{fill:#F99209;}
	.st12{fill:#FCFDFE;}
	.st13{fill:#F94D2D;}
	.st14{fill:#FA512A;}
	.st15{fill:#FB5C25;}
	.st16{fill:#F25710;}
	.st17{fill:#F9BB41;}
	.st18{fill:#FA6C1D;}
	.st19{fill:#F9BD51;}
	.st20{fill:#F97B16;}
	.st21{fill:#FB2841;}
	.st22{fill:#F9880F;}
	.st23{fill:#EE4A0B;}
	.st24{fill:#FAA052;}
	.st25{fill:#F57F41;}
	.st26{fill:#F99044;}
	.st27{fill:#F6B15B;}
	.st28{fill:#F99D06;}
	.st29{fill:#FBBE70;}
	.st30{fill:#FABE5F;}
	.st31{fill:#FBB067;}
	.st32{fill:#41AADF;}
	.st33{fill:#FBFBFB;}
	.st34{fill-rule:evenodd;clip-rule:evenodd;fill:url(#SVGID_1_);}
	.st35{fill:#A5CD39;}
	.st36{fill:#40AA8B;}
	.st37{fill-rule:evenodd;clip-rule:evenodd;fill:#A5CD39;}
	.st38{clip-path:url(#SVGID_3_);fill-rule:evenodd;clip-rule:evenodd;fill:#A5CD39;}
	.st39{opacity:0.36;clip-path:url(#SVGID_5_);fill-rule:evenodd;clip-rule:evenodd;fill:url(#SVGID_6_);enable-background:new    ;}
	.st40{opacity:0.71;clip-path:url(#SVGID_8_);fill-rule:evenodd;clip-rule:evenodd;fill:url(#SVGID_9_);enable-background:new    ;}
	
		.st41{opacity:0.79;clip-path:url(#SVGID_11_);fill-rule:evenodd;clip-rule:evenodd;fill:url(#SVGID_12_);enable-background:new    ;}
	
		.st42{opacity:0.47;clip-path:url(#SVGID_14_);fill-rule:evenodd;clip-rule:evenodd;fill:url(#SVGID_15_);enable-background:new    ;}
	
		.st43{opacity:0.61;clip-path:url(#SVGID_17_);fill-rule:evenodd;clip-rule:evenodd;fill:url(#SVGID_18_);enable-background:new    ;}
	
		.st44{opacity:0.66;clip-path:url(#SVGID_20_);fill-rule:evenodd;clip-rule:evenodd;fill:url(#SVGID_21_);enable-background:new    ;}
	
		.st45{opacity:0.39;clip-path:url(#SVGID_23_);fill-rule:evenodd;clip-rule:evenodd;fill:url(#SVGID_24_);enable-background:new    ;}
	.st46{fill:#73B73E;}
	.st47{fill:#F26922;}
	.st48{fill-rule:evenodd;clip-rule:evenodd;fill:#FFFFFF;}
	.st49{fill:#F19021;}
	.st50{fill:#E9148D;}
	.st51{fill:#2BAEE4;}
	.st52{fill:#13B6A7;}
	.st53{fill:#FEE700;}
	.st54{fill:#EC242A;}
	.st55{fill:#FCB34B;}
	.st56{fill-rule:evenodd;clip-rule:evenodd;fill:#F6F6F6;}
	.st57{fill-rule:evenodd;clip-rule:evenodd;fill:#D71920;}
	.st58{fill:#63A844;}
	.st59{fill:#DF2D38;}
	.st60{fill:#7C8080;}
	.st61{fill:#A3A3A3;}
	.st62{fill:url(#SVGID_25_);}
	.st63{fill:url(#SVGID_26_);}
	.st64{fill:url(#SVGID_27_);}
	.st65{fill:#EF612A;}
	.st66{fill:url(#SVGID_28_);}
	.st67{fill:url(#SVGID_29_);}
	.st68{opacity:0.5;fill:#FFFFFF;}
	.st69{fill:#363833;}
	.st70{fill:#5998A9;}
	.st71{fill:#80B3CB;}
	.st72{fill:url(#SVGID_30_);}
	.st73{fill:url(#SVGID_31_);}
	.st74{fill:url(#SVGID_32_);}
	.st75{fill:url(#SVGID_33_);}
	.st76{fill:url(#SVGID_34_);}
	.st77{fill:url(#SVGID_35_);}
	.st78{fill:url(#SVGID_36_);}
	.st79{fill:#FFC20E;}
</style>
<g class="st0">
	<rect class="st1" width="250" height="100"/>
</g>
<path id="quickspin" class="st47" d="M47.03,39.38c0.05-4.26,3.54-7.67,7.79-7.62c0.15,0,0.3,0.01,0.44,0.02h0.13
	c4.25-0.31,7.94,2.88,8.25,7.13c0.01,0.16,0.02,0.31,0.02,0.47c0,1.3-1.05,2.35-2.35,2.35s-2.35-1.05-2.35-2.35
	c0-1.99-1.78-2.92-3.56-2.92h-0.13c-1.7,0-3.56,0.85-3.56,2.92c-0.01,1.29-1.05,2.32-2.34,2.34c-1.28,0.01-2.32-1.01-2.34-2.29
	C47.03,39.42,47.03,39.4,47.03,39.38z M63.66,56.31c0-1.3-1.05-2.35-2.35-2.35c-1.3,0-2.35,1.05-2.35,2.35l0,0
	c0,1.99-1.78,2.92-3.56,2.92h-0.13c-1.7,0-3.56-0.85-3.56-2.92c0-1.3-1.05-2.35-2.35-2.35S47,55.01,47,56.31l0,0
	c0.05,4.26,3.54,7.67,7.79,7.62c0.15,0,0.3-0.01,0.44-0.02h0.13c0.62-0.01,1.24-0.05,1.86-0.13l2.07,4.07
	c0.7,0.86,1.96,1.01,2.84,0.35l0,0c1.14-0.56,1.78-1.7,1.36-2.5l-2.07-4.07c1.43-1.38,2.23-3.28,2.23-5.26L63.66,56.31z M51.7,54.03
	V41.78c-0.61,0.63-1.46,0.99-2.34,0.98c-0.88,0.02-1.73-0.34-2.34-0.98v12.38c0.61-0.63,1.46-0.99,2.34-0.98
	c0.88-0.05,1.74,0.27,2.37,0.9L51.7,54.03z M58.88,41.64v12.38c1.25-1.3,3.32-1.34,4.62-0.08c0.03,0.03,0.06,0.05,0.08,0.08V41.78
	c-0.61,0.63-1.46,0.99-2.34,0.98c-0.89-0.02-1.73-0.39-2.34-1.04L58.88,41.64z M100.13,41.64c1.29-0.01,2.32-1.05,2.34-2.34
	c0-1.99,1.78-2.92,3.56-2.92h0.13c1.7,0,3.56,0.85,3.56,2.92c-0.02,1.3,1.01,2.37,2.31,2.39s2.37-1.01,2.39-2.31
	c-0.05-4.26-3.54-7.67-7.79-7.62c-0.15,0-0.3,0.01-0.44,0.02h-0.13c-4.25-0.29-7.93,2.91-8.22,7.16c-0.01,0.15-0.02,0.3-0.02,0.44
	c-0.04,1.28,0.95,2.35,2.23,2.39c0.04,0,0.07,0,0.11,0L100.13,41.64z M112,53.87c-1.29,0.01-2.32,1.05-2.34,2.34
	c0,1.99-1.78,2.92-3.56,2.92h-0.13c-1.7,0-3.56-0.85-3.56-2.92c0-1.3-1.05-2.35-2.35-2.35c-1.3,0-2.35,1.05-2.35,2.35
	c0.05,4.26,3.54,7.67,7.79,7.62c0.15,0,0.3-0.01,0.44-0.02h0.13c4.24,0.35,7.97-2.8,8.32-7.04c0.01-0.13,0.02-0.27,0.02-0.4
	c0.02-1.28-1.01-2.32-2.28-2.34c-0.04,0-0.07,0-0.11,0L112,53.87z M102.46,53.87V41.78c-0.61,0.63-1.46,0.99-2.34,0.98
	c-0.88,0.02-1.73-0.34-2.34-0.98v12.38c0.61-0.63,1.46-0.99,2.34-0.98c0.89-0.05,1.76,0.28,2.39,0.9L102.46,53.87z M139.14,41.78
	c1.29-0.01,2.32-1.05,2.34-2.34c0-1.99,1.78-2.92,3.56-2.92h0.13c1.7,0,3.56,0.85,3.56,2.92c0,1.3,1.05,2.35,2.35,2.35
	s2.35-1.05,2.35-2.35c-0.05-4.26-3.54-7.67-7.79-7.62c-0.15,0-0.3,0.01-0.44,0.02h-0.21c-4.25-0.31-7.94,2.88-8.25,7.13
	c-0.01,0.14-0.02,0.28-0.02,0.42c-0.03,1.29,0.99,2.36,2.28,2.39C139.05,41.78,139.09,41.78,139.14,41.78z M140.92,42.71
	c-0.8,0.5-1.77,0.6-2.66,0.29l9.33,12.73c0.13-0.93,0.65-1.77,1.44-2.29c0.79-0.51,1.78-0.62,2.66-0.29l-9.33-12.6
	c-0.12,0.88-0.61,1.67-1.36,2.15H140.92z M151.02,54.03c-1.29,0.01-2.32,1.05-2.34,2.34c0,1.99-1.78,2.92-3.56,2.92h-0.13
	c-1.7,0-3.56-0.85-3.56-2.92c0-1.3-1.05-2.35-2.35-2.35s-2.35,1.05-2.35,2.35c0.05,4.26,3.54,7.67,7.79,7.62
	c0.15,0,0.3-0.01,0.44-0.02h0.13c4.25,0.29,7.93-2.91,8.22-7.16c0.01-0.15,0.02-0.3,0.02-0.44
	C153.32,55.09,152.29,54.06,151.02,54.03z M81.92,54.03c-1.29,0.01-2.32,1.05-2.34,2.34c0,1.99-1.78,2.92-3.56,2.92h-0.13
	c-1.7,0-3.56-0.85-3.56-2.92c0-1.3-1.05-2.35-2.35-2.35c-1.3,0-2.35,1.05-2.35,2.35c0.05,4.26,3.54,7.67,7.79,7.62
	c0.15,0,0.3-0.01,0.44-0.02h0.13c4.25,0.29,7.93-2.91,8.22-7.16c0.01-0.15,0.02-0.3,0.02-0.44c-0.01-1.24-0.97-2.26-2.21-2.34H81.92
	z M81.92,31.84c-1.29,0.01-2.32,1.05-2.34,2.34v19.77c1.25-1.3,3.32-1.34,4.62-0.08c0.03,0.03,0.06,0.05,0.08,0.08V34.26
	c0.02-1.28-0.98-2.35-2.26-2.42H81.92z M72.38,53.95V34.26c0-1.3-1.05-2.35-2.35-2.35s-2.35,1.05-2.35,2.35v19.77
	c0.61-0.63,1.46-0.99,2.34-0.98c0.91-0.05,1.81,0.27,2.47,0.9H72.38z M93.37,43.08v-8.82c0-1.3-1.05-2.35-2.35-2.35
	s-2.35,1.05-2.35,2.35V53.1l0,0v8.53c0.01,1.29,1.05,2.32,2.34,2.34l0,0c1.29-0.01,2.32-1.05,2.34-2.34v-8.82l0,0L93.37,43.08z
	 M180.94,43.08v-8.82c0-1.3-1.05-2.35-2.35-2.35c-1.3,0-2.35,1.05-2.35,2.35V53.1l0,0v8.53c0.01,1.29,1.05,2.32,2.34,2.34l0,0
	c1.29-0.01,2.32-1.05,2.34-2.34v-8.82l0,0L180.94,43.08z M189.47,46.56l-0.82-1.86l-1.14-2.34l-2.66-5.32v15.95l0,0v8.53
	c0.01,1.29,1.05,2.32,2.34,2.34l0,0c1.29-0.01,2.32-1.05,2.34-2.34v-8.72l0,0v-6.25L189.47,46.56z M198.3,51.69L198.3,51.69
	l-4.68-9.65l-1.14-2.29l-3.19-6.4c-0.57-1.18-1.99-1.68-3.18-1.1c-1.18,0.57-1.68,1.99-1.1,3.18l0,0l3.14,6.4l1.14,2.34l4.86,9.91
	l0,0l4.2,8.45c0.61,1.19,2.01,1.73,3.27,1.28l0,0c1.18-0.66,1.62-2.15,0.98-3.35L198.3,51.69z M203,52.83v-18.6
	c0-1.3-1.05-2.35-2.35-2.35c-1.3,0-2.35,1.05-2.35,2.35v15.28l0.85,1.78l3.85,7.76v-6.25V52.83z M121.62,44.86l-3.99,5.82
	c-0.58,1.02-0.22,2.32,0.8,2.9c0.02,0.01,0.03,0.02,0.05,0.03c0.92,0.74,2.25,0.64,3.06-0.21l4.23-6.03l0,0l4.6-6.56l1.14-1.57
	l3.06-4.41c0.58-1.02,0.22-2.32-0.8-2.9c-0.02-0.01-0.03-0.02-0.05-0.03c-0.92-0.74-2.25-0.64-3.06,0.21l-3.11,4.41l-1.14,1.65
	l-4.7,6.7H121.62z M132.26,56.02L132.26,56.02l-3.08-6.01l-0.72-1.44l-1.06-2.07l-0.85,1.28l-2.13,3.14l0.64,1.2l3.14,6.19l0,0
	l2.66,5.32c0.7,0.86,1.96,1.01,2.84,0.35l0,0c1.14-0.56,1.78-1.7,1.36-2.5L132.26,56.02z M122.08,42.73v-8.66
	c0-1.3-1.05-2.35-2.35-2.35s-2.35,1.05-2.35,2.35v15.36l3.56-5.13L122.08,42.73z M118.01,54.48l-0.64-0.5v7.68
	c0.01,1.29,1.05,2.32,2.34,2.34l0,0c1.29-0.01,2.32-1.05,2.34-2.34v-7.41c-0.53,0.58-1.29,0.89-2.07,0.85
	c-0.71-0.07-1.38-0.32-1.97-0.72L118.01,54.48z M167.02,31.62L167.02,31.62h-3.19h-5.05c-1.2,0.05-2.14,1.07-2.08,2.27
	c0,0.05,0.01,0.1,0.01,0.15c-0.13,1.2,0.73,2.27,1.92,2.41c0.05,0.01,0.1,0.01,0.15,0.01h7.73c1.65,0.13,2.42,2.42,2.42,4.41v0.13
	c0,1.99-0.72,4.54-2.42,4.7h-7.73c-1.2,0.05-2.14,1.07-2.08,2.27c0,0.05,0.01,0.1,0.01,0.15c-0.13,1.2,0.73,2.27,1.92,2.41
	c0.05,0.01,0.1,0.01,0.15,0.01h8.32l0,0c3.48-0.5,5.98-4.33,5.98-9.54v-0.29C172.89,35.66,170.5,32.1,167.02,31.62z M161.41,51.53
	h-2.66c-0.78,0.04-1.54-0.28-2.07-0.85v2.34l0,0v8.53c0.01,1.29,1.05,2.32,2.34,2.34l0,0c1.29-0.01,2.32-1.05,2.34-2.34v-8.74l0,0
	v-1.28H161.41z M161.41,44.78v-7.41h-2.66c-0.78,0.04-1.54-0.28-2.07-0.85v9.12c0.55-0.55,1.3-0.86,2.07-0.85L161.41,44.78z"/>
</svg>
