<?xml version="1.0" encoding="utf-8"?>
<!-- Generator: Adobe Illustrator 23.1.0, SVG Export Plug-In . SVG Version: 6.00 Build 0)  -->
<svg version="1.1" id="Layer_1" xmlns="http://www.w3.org/2000/svg" xmlns:xlink="http://www.w3.org/1999/xlink" x="0px" y="0px"
	 viewBox="0 0 250 100" style="enable-background:new 0 0 250 100;" xml:space="preserve">
<style type="text/css">
	.st0{display:none;}
	.st1{display:inline;fill:#2F2F2F;}
	.st2{display:inline;enable-background:new    ;}
	.st3{fill:#FFFFFF;stroke:#EFEFEF;stroke-width:0.05;stroke-miterlimit:10;}
	.st4{fill:#FFFFFF;}
	.st5{fill:#FCC42C;}
	.st6{fill:#C23844;}
	.st7{fill:#FEFEFE;}
	.st8{fill:#FA4133;}
	.st9{fill:#F85F1D;}
	.st10{fill:#FC323A;}
	.st11{fill:#F99209;}
	.st12{fill:#FCFDFE;}
	.st13{fill:#F94D2D;}
	.st14{fill:#FA512A;}
	.st15{fill:#FB5C25;}
	.st16{fill:#F25710;}
	.st17{fill:#F9BB41;}
	.st18{fill:#FA6C1D;}
	.st19{fill:#F9BD51;}
	.st20{fill:#F97B16;}
	.st21{fill:#FB2841;}
	.st22{fill:#F9880F;}
	.st23{fill:#EE4A0B;}
	.st24{fill:#FAA052;}
	.st25{fill:#F57F41;}
	.st26{fill:#F99044;}
	.st27{fill:#F6B15B;}
	.st28{fill:#F99D06;}
	.st29{fill:#FBBE70;}
	.st30{fill:#FABE5F;}
	.st31{fill:#FBB067;}
	.st32{fill:#41AADF;}
	.st33{fill:#FBFBFB;}
	.st34{fill-rule:evenodd;clip-rule:evenodd;fill:url(#SVGID_1_);}
	.st35{fill:#A5CD39;}
	.st36{fill:#40AA8B;}
	.st37{fill-rule:evenodd;clip-rule:evenodd;fill:#A5CD39;}
	.st38{clip-path:url(#SVGID_3_);fill-rule:evenodd;clip-rule:evenodd;fill:#A5CD39;}
	.st39{opacity:0.36;clip-path:url(#SVGID_5_);fill-rule:evenodd;clip-rule:evenodd;fill:url(#SVGID_6_);enable-background:new    ;}
	.st40{opacity:0.71;clip-path:url(#SVGID_8_);fill-rule:evenodd;clip-rule:evenodd;fill:url(#SVGID_9_);enable-background:new    ;}
	
		.st41{opacity:0.79;clip-path:url(#SVGID_11_);fill-rule:evenodd;clip-rule:evenodd;fill:url(#SVGID_12_);enable-background:new    ;}
	
		.st42{opacity:0.47;clip-path:url(#SVGID_14_);fill-rule:evenodd;clip-rule:evenodd;fill:url(#SVGID_15_);enable-background:new    ;}
	
		.st43{opacity:0.61;clip-path:url(#SVGID_17_);fill-rule:evenodd;clip-rule:evenodd;fill:url(#SVGID_18_);enable-background:new    ;}
	
		.st44{opacity:0.66;clip-path:url(#SVGID_20_);fill-rule:evenodd;clip-rule:evenodd;fill:url(#SVGID_21_);enable-background:new    ;}
	
		.st45{opacity:0.39;clip-path:url(#SVGID_23_);fill-rule:evenodd;clip-rule:evenodd;fill:url(#SVGID_24_);enable-background:new    ;}
	.st46{fill:#73B73E;}
	.st47{fill:#F26922;}
	.st48{fill-rule:evenodd;clip-rule:evenodd;fill:#FFFFFF;}
	.st49{fill:#F19021;}
	.st50{fill:#E9148D;}
	.st51{fill:#2BAEE4;}
	.st52{fill:#13B6A7;}
	.st53{fill:#FEE700;}
	.st54{fill:#EC242A;}
	.st55{fill:#FCB34B;}
	.st56{fill-rule:evenodd;clip-rule:evenodd;fill:#F6F6F6;}
	.st57{fill-rule:evenodd;clip-rule:evenodd;fill:#D71920;}
	.st58{fill:#63A844;}
	.st59{fill:#DF2D38;}
	.st60{fill:#7C8080;}
	.st61{fill:#A3A3A3;}
	.st62{fill:url(#SVGID_25_);}
	.st63{fill:url(#SVGID_26_);}
	.st64{fill:url(#SVGID_27_);}
	.st65{fill:#EF612A;}
	.st66{fill:url(#SVGID_28_);}
	.st67{fill:url(#SVGID_29_);}
	.st68{opacity:0.5;fill:#FFFFFF;}
	.st69{fill:#363833;}
	.st70{fill:#5998A9;}
	.st71{fill:#80B3CB;}
	.st72{fill:url(#SVGID_30_);}
	.st73{fill:url(#SVGID_31_);}
	.st74{fill:url(#SVGID_32_);}
	.st75{fill:url(#SVGID_33_);}
	.st76{fill:url(#SVGID_34_);}
	.st77{fill:url(#SVGID_35_);}
	.st78{fill:url(#SVGID_36_);}
	.st79{fill:#FFC20E;}
</style>
<g class="st0">
	<rect class="st1" width="250" height="100"/>
</g>
<g id="Tiger" transform="translate(-47 -38)">
	<g id="Logo" transform="translate(-27 108)">
		<path id="Logo_Type_White" class="st56" d="M282.1-18.46l4.9,7.94l-5.59,0l-4.62-7.46h-0.05v7.46h-5.04v-19.33h7.52
			c1.75-0.1,3.48,0.4,4.89,1.43c1.29,1.12,1.97,2.77,1.85,4.47c0.03,1.29-0.36,2.55-1.12,3.6C284.25-19.34,283.24-18.65,282.1-18.46
			z M280.43-24.86c-0.19-0.32-0.47-0.58-0.8-0.75c-0.35-0.18-0.72-0.29-1.1-0.35c-0.43-0.06-0.86-0.09-1.3-0.09h-0.49v4.83h0.49
			c0.43,0,0.87-0.03,1.3-0.09c0.38-0.05,0.76-0.17,1.1-0.35c0.33-0.17,0.61-0.43,0.8-0.75C280.82-23.16,280.82-24.08,280.43-24.86
			L280.43-24.86z M257.57-29.84h11.02v4.28h-5.96v3.11h5.96v4.41h-5.96v3.11h5.96v4.41h-11.02V-29.84z M184.72-25.56h-5.96v3.11
			h5.96v4.41h-5.96v3.11h5.96v4.41H173.7v-19.33h11.02V-25.56z M166.04-10.51l-4.62-7.46h-0.05v7.46h-5.04v-19.33h7.52
			c1.75-0.1,3.48,0.4,4.89,1.43c1.29,1.12,1.97,2.77,1.85,4.47c0.03,1.29-0.36,2.55-1.12,3.6c-0.75,1.02-1.87,1.69-3.12,1.88
			l5.28,7.94L166.04-10.51z M165.05-24.85c-0.19-0.32-0.47-0.58-0.8-0.75c-0.35-0.18-0.72-0.29-1.1-0.35
			c-0.43-0.06-0.86-0.09-1.3-0.09h-0.49v4.83h0.49c0.43,0,0.87-0.03,1.3-0.09c0.38-0.05,0.76-0.17,1.1-0.35
			c0.33-0.17,0.61-0.43,0.8-0.75C165.44-23.16,165.44-24.08,165.05-24.85L165.05-24.85z M197.94-29.11c1.1,0.48,2.09,1.19,2.92,2.06
			c0.85,0.9,1.51,1.95,1.96,3.1c0.94,2.43,0.93,5.11-0.01,7.54c-0.45,1.15-1.12,2.19-1.97,3.09c-0.83,0.87-1.82,1.57-2.92,2.06
			c-1.1,0.49-2.29,0.75-3.49,0.74h-6.6v-19.33h6.6C195.63-29.85,196.83-29.6,197.94-29.11L197.94-29.11z M192.48-25.58v10.82h1.04
			c0.68,0.01,1.35-0.1,1.99-0.32c1.28-0.43,2.29-1.42,2.75-2.69c0.28-0.77,0.42-1.58,0.4-2.4c0.08-1.46-0.42-2.89-1.4-3.97
			c-0.98-0.98-2.32-1.5-3.71-1.43L192.48-25.58z M224.52-25.58h-4.16v15.07h-5.03v-15.07h-4.16v-4.26h13.36V-25.58z M232.62-10.51
			h-5.04V-29.9h5.04V-10.51z M238.36-27.17c0.88-0.87,1.93-1.55,3.09-1.98c1.26-0.47,2.6-0.7,3.94-0.69c1.71-0.04,3.4,0.4,4.88,1.27
			c1.43,0.91,2.55,2.23,3.21,3.8l-4.43,1.87c-0.29-0.83-0.81-1.57-1.5-2.11c-0.68-0.52-1.52-0.79-2.38-0.77
			c-0.69-0.01-1.37,0.15-1.98,0.48c-0.59,0.32-1.09,0.77-1.48,1.31c-0.4,0.56-0.71,1.19-0.9,1.85c-0.41,1.36-0.41,2.8,0,4.16
			c0.2,0.66,0.51,1.28,0.92,1.84c0.4,0.54,0.91,0.98,1.5,1.29c0.62,0.32,1.31,0.48,2.01,0.47c0.93,0.04,1.85-0.25,2.59-0.82
			c0.7-0.58,1.12-1.43,1.17-2.33h-3.81v-3.7h9.26c-0.01,1.34-0.14,2.67-0.39,3.99c-0.25,1.15-0.75,2.23-1.44,3.17
			c-0.81,1.16-1.91,2.08-3.19,2.68c-1.32,0.6-2.76,0.9-4.21,0.88c-1.32,0.01-2.62-0.22-3.85-0.69c-1.14-0.44-2.18-1.1-3.05-1.96
			c-0.87-0.86-1.54-1.9-1.98-3.04c-0.47-1.24-0.71-2.56-0.69-3.88c-0.02-1.36,0.22-2.72,0.7-3.99
			C236.81-25.23,237.49-26.29,238.36-27.17L238.36-27.17z"/>
		<path id="Logo_Symbol_Red_on_Black" class="st57" d="M135.42-25.62c-0.02,0.53,0.02,1.12-0.8,1.38c-0.49,0.16-1.09-0.51-1.12-0.97
			c0.24-0.32,0.58-0.57,0.96-0.71C135.23-26.2,135.41-26.25,135.42-25.62z M121.31-24.23c-0.82-0.27-0.78-0.86-0.8-1.38
			c0.01-0.64,0.19-0.58,0.96-0.29c0.38,0.14,0.71,0.38,0.96,0.71C122.39-24.74,121.79-24.07,121.31-24.23L121.31-24.23z
			 M139.92-8.83c0.5-0.24,0.96-0.56,1.35-0.96c1.92-2.05,2.29-4.41,2.52-7.14c0.06-0.71,0.05-1.43,0.08-2.16
			c0-0.11,0.02-0.62,0.07-0.62c0.15,0.17,0.27,0.36,0.35,0.56c0.24,0.64,0.38,1.3,0.44,1.98c0.22,1.33,0.26,2.68,0.11,4.02
			c-0.07,0.47-0.22,0.91-0.46,1.32c-1.2,2.01-2.52,3.87-3.79,5.85c-0.1,0.16-0.18-0.15-0.25-0.2l-0.1-0.1
			c-0.29-0.16-0.4-0.17-0.54-0.08c-0.04,0.08-0.08,0.17-0.13,0.25c-0.3,0.66-0.83,1.71-1.2,2.38c-0.06,0.1-0.19,0.14-0.3,0.08
			c-0.07-0.04-0.11-0.11-0.11-0.19c0-0.75,0-1.51,0-2.26c-0.01-0.47,0-1.04-0.65-1.04c-0.64,0-0.65,0.56-0.66,1.04
			c-0.01,0.44,0,0.88,0,1.39c0,0.12-0.1,0.22-0.22,0.22c-0.04,0-0.08-0.01-0.12-0.03c-0.53-0.4-1.13-0.73-1.75-0.96
			c-1.01-0.41-2.17-0.28-3.07,0.34l0.14-0.12c0.77-0.7,1.83-0.98,2.84-0.76c0.28,0.06,0.56,0.08,0.84,0.07
			c0.12-0.01,0.21-0.11,0.21-0.23c0-0.02-0.01-0.04-0.01-0.06c-0.39-1.05-1.62-4.88,0.9-6.18c0.07-0.03,0.11-0.1,0.12-0.17
			c0.09-0.7,1.37-3.75-2.11-5.73c-0.55,0.49-1.22,1.62-2.08,2.35c1.52,0.33,2.32-0.59,3.06-1.22c-0.3,1.77-1.68,1.9-2.78,2.54
			c0.95-0.41,1.89,0.15,3.01-0.45c-0.81,1.56-2.42,0.79-3.41,1.61c0.95,0.61,1.83,0.28,2.7,0.18c0.25-0.03,0.5-0.02,0.74,0.03
			c-0.2,0.3-0.44,0.57-0.71,0.81c-0.34,0.25-0.72,0.44-1.12,0.56c-0.41,0.13-0.86,0.14-1.28,0.03c-1.24-0.39-2.46-0.85-3.68-1.33
			c-0.24-0.11-0.41-0.32-0.48-0.57c-0.08-0.39,0.02-0.82-0.02-1.22c-0.1-0.52,0.24-1.01,0.76-1.11c1.14-0.32,2.15-1.01,2.85-1.96
			c0.24-0.34,0.4-0.72,0.5-1.13c0-0.01,0-0.02,0-0.02c0-0.37-0.06-0.74-0.19-1.09c-0.07-0.28-0.07-0.57,0.02-0.84l0.02-0.09
			c0,0,0-0.01,0-0.01h0l0.25-1.06c0.08-0.33,0.28-0.62,0.56-0.81l0.07-0.05c0.03-0.02,0.06-0.04,0.09-0.06
			c0.46-0.24,0.95-0.44,1.45-0.59c1.77-0.7,3.12-2.16,3.68-3.97c0.21-0.6,0.26-1.25,0.15-1.88c-0.17,0.34-0.43,1.03-0.59,1.38
			c-0.2,0.55-0.75,0.9-1.34,0.84c-1.62,0.01-3.17,0.28-4.06,1.97c-0.38,0.9-1.06,1.64-1.93,2.09c-0.01-0.49,0.06-0.98,0.22-1.44
			c-0.75-0.31-0.45-0.75-0.05-1.18c0.55-0.59,1.1-1.17,1.68-1.79c-0.49-0.12-0.94-0.37-1.3-0.72h3.16c0-0.03,0-0.06,0.01-0.1
			c-0.97-0.18-1.9-0.51-2.75-0.99c1.47-0.91,4.52-0.46,5.03-0.62c0.01-0.12-0.42-0.21-0.86-0.36c-1.01-0.26-1.39-0.34-2.4-0.62
			c-1-0.27-1.97-0.66-2.88-1.17h4.15c-1.41-0.8-2.97-1.32-4.58-1.52c-0.91-0.06-1.57-0.06-2.13-0.05l0-0.27v0.27
			c-0.56-0.01-1.22-0.01-2.13,0.05c-1.61,0.2-3.17,0.72-4.58,1.52h4.15c-0.91,0.5-1.88,0.89-2.88,1.17
			c-1.01,0.27-1.39,0.35-2.4,0.62c-0.44,0.14-0.87,0.23-0.86,0.36c0.51,0.17,3.56-0.28,5.03,0.62c-0.86,0.48-1.79,0.81-2.75,0.99
			c0,0.03,0,0.06,0.01,0.1h3.16c-0.36,0.35-0.81,0.6-1.3,0.72c0.58,0.62,1.13,1.2,1.68,1.79c0.4,0.43,0.7,0.87-0.05,1.18
			c0.16,0.46,0.24,0.95,0.22,1.44c-0.87-0.45-1.55-1.19-1.93-2.09c-0.88-1.69-2.44-1.96-4.06-1.97c-0.59,0.06-1.14-0.28-1.34-0.84
			c-0.16-0.35-0.42-1.03-0.59-1.38c-0.11,0.63-0.06,1.28,0.15,1.88c0.56,1.82,1.92,3.28,3.68,3.97c0.5,0.15,0.99,0.35,1.45,0.59
			c0.03,0.02,0.06,0.04,0.09,0.06c0.02,0.01,0.05,0.03,0.07,0.05c0.28,0.2,0.47,0.48,0.56,0.81l0.25,1.06h0c0,0,0,0.01,0,0.01
			l0.02,0.09c0.09,0.27,0.09,0.57,0.02,0.84c-0.13,0.35-0.19,0.72-0.19,1.09c0,0.01,0,0.02,0,0.02c0.09,0.4,0.26,0.79,0.5,1.13
			c0.7,0.95,1.71,1.65,2.85,1.96c0.52,0.1,0.86,0.6,0.76,1.11c-0.04,0.41,0.05,0.83-0.02,1.22c-0.07,0.25-0.25,0.46-0.48,0.57
			c-1.21,0.48-2.44,0.94-3.68,1.33c-0.42,0.11-0.86,0.1-1.28-0.03c-0.41-0.11-0.79-0.3-1.12-0.56c-0.27-0.24-0.5-0.52-0.71-0.81
			c0.24-0.05,0.49-0.06,0.74-0.03c0.87,0.09,1.75,0.43,2.7-0.18c-0.99-0.82-2.6-0.05-3.41-1.61c1.12,0.59,2.07,0.04,3.01,0.45
			c-1.1-0.64-2.48-0.77-2.78-2.54c0.74,0.63,1.54,1.55,3.06,1.22c-0.86-0.73-1.53-1.86-2.08-2.35c-3.49,1.98-2.2,5.03-2.11,5.73
			c0.01,0.07,0.06,0.14,0.12,0.17c2.53,1.3,1.3,5.13,0.9,6.18c-0.02,0.07-0.02,0.14,0.02,0.2c0.04,0.06,0.1,0.09,0.17,0.1
			c0.28,0.02,0.57-0.01,0.84-0.07c1.01-0.22,2.07,0.06,2.84,0.76l0.14,0.12c-0.9-0.62-2.05-0.74-3.07-0.34
			c-0.63,0.23-1.22,0.56-1.75,0.96c-0.1,0.06-0.24,0.03-0.3-0.07c-0.02-0.04-0.03-0.08-0.03-0.12c0-0.51,0-0.95,0-1.39
			c-0.01-0.48-0.03-1.04-0.66-1.04c-0.65,0-0.64,0.57-0.65,1.04c-0.01,0.75-0.01,1.51,0,2.26c0,0.12-0.1,0.22-0.22,0.22
			c-0.08,0-0.15-0.04-0.19-0.11c-0.37-0.67-0.91-1.73-1.2-2.38c-0.04-0.08-0.08-0.17-0.13-0.25c-0.14-0.1-0.25-0.08-0.54,0.08
			l-0.1,0.1c-0.07,0.05-0.15,0.37-0.25,0.2c-1.27-1.98-2.59-3.84-3.79-5.85c-0.24-0.41-0.39-0.86-0.46-1.32
			c-0.15-1.34-0.11-2.69,0.11-4.02c0.06-0.68,0.21-1.34,0.44-1.98c0.08-0.21,0.2-0.4,0.35-0.56c0.05,0,0.07,0.51,0.07,0.62
			c0.04,0.73,0.02,1.45,0.08,2.16c0.23,2.73,0.6,5.09,2.52,7.14c0.39,0.4,0.85,0.72,1.35,0.96c0.11,0.04,0.24-0.01,0.29-0.12
			c0.02-0.06,0.02-0.12-0.01-0.18c-0.58-1.19-1.22-2.36-1.69-3.6c-0.48-1.26-0.8-2.58-1.17-3.88c-0.03-0.12,0.03-0.24,0.15-0.27
			c0.04-0.01,0.09-0.01,0.13,0c0.27,0.09,0.64,0.24,0.93,0.36c0.11,0.04,0.24-0.01,0.28-0.13c0.02-0.04,0.02-0.09,0.01-0.14
			c-0.37-1.26-1.55-4.94-1.55-4.94c0.07,0.08,0.77,1.1,0.81,1.19c0.56,0.9,1.05,1.84,1.46,2.81c0.2,0.51,0.36,0.88,0.45,1.08
			c0.04,0.08,0.05,0.18-0.02,0.25c-0.99,0.84-0.19,2.43,0.23,2.92c0.58,0.69,0.99,1.51,1.22,2.38c0.06,0.18,0.14,0.43,0.22,0.7
			c0.04,0.11,0.17,0.17,0.28,0.13c0.09-0.03,0.14-0.12,0.14-0.21c-0.07-1.12-0.27-2.65-0.64-3c-0.57-0.54-0.45-2.39,0.19-2.72
			c0.6-0.31,0.73-0.63,0.43-1.16c-0.06-0.11-0.03-0.24,0.08-0.31c0,0,0,0,0,0l2.74-1.57c0.11-0.06,0.14-0.19,0.08-0.3
			c-0.03-0.06-0.09-0.1-0.16-0.11c-0.95-0.09-1.9,0.19-2.65,0.78c-0.57,0.34-1.31,0.15-1.65-0.42c-0.05-0.08-0.08-0.16-0.11-0.25
			c-0.06-0.14-0.11-0.28-0.15-0.43c-0.03-0.12,0.08-0.22,0.19-0.25c1.35-0.34,1.55-0.41,1.62-0.82c0.02-0.12-0.06-0.23-0.18-0.25
			c-0.01,0-0.02,0-0.03,0c-0.47,0.07-0.95,0.01-1.39-0.17c-0.26-0.27-0.43-0.61-0.49-0.98c-0.03-0.12,0.03-0.24,0.15-0.27
			c0.05-0.01,0.1-0.01,0.14,0.01c0.48,0.2,0.61,0.2,0.87-0.01c0.1-0.08,0.12-0.22,0.04-0.31c0,0,0,0,0,0
			c-0.06-0.07-0.12-0.14-0.2-0.2c-0.99-0.77-2.51-5.04-2.46-6.3c-0.4,0.34-0.69,0.78-0.86,1.28c-1.05-0.43-1.84-0.56-1.69-2.04
			l1.16,0.6c0,0,0.06-0.45-0.56-0.97c-1.33-1.11-1.53-2.59-1.58-4.2c-0.07-0.78,0.51-1.47,1.29-1.53c0.3-0.03,0.6,0.04,0.86,0.2
			c2.58,1.22,6.15,2.44,9.09,2.06l0.1-0.02l0.01-0.01l-0.01,0c1.83-0.38,3.69-0.58,5.56-0.59h0.02c1.87,0.02,3.73,0.21,5.56,0.59
			l-0.01,0l0.01,0.01l0.1,0.02c2.94,0.38,6.5-0.84,9.09-2.06c0.67-0.41,1.54-0.2,1.95,0.47c0.16,0.26,0.23,0.56,0.2,0.86
			c-0.04,1.61-0.24,3.09-1.58,4.2c-0.62,0.52-0.56,0.97-0.56,0.97l1.16-0.6c0.15,1.47-0.65,1.61-1.69,2.04
			c-0.16-0.5-0.46-0.94-0.86-1.28c0.05,1.26-1.47,5.52-2.46,6.3c-0.07,0.06-0.14,0.13-0.2,0.2c-0.04,0.05-0.06,0.11-0.05,0.17
			c0.01,0.06,0.04,0.11,0.08,0.15c0.26,0.2,0.39,0.21,0.87,0.01c0.11-0.05,0.24,0.01,0.29,0.12c0.02,0.05,0.02,0.1,0.01,0.15
			c-0.06,0.37-0.22,0.71-0.49,0.98c-0.44,0.18-0.92,0.24-1.39,0.17c-0.12,0-0.22,0.1-0.22,0.22c0,0.01,0,0.02,0,0.03
			c0.07,0.41,0.27,0.48,1.62,0.82c0.12,0.03,0.23,0.13,0.19,0.25c-0.04,0.15-0.09,0.29-0.15,0.43c-0.2,0.64-0.88,0.99-1.52,0.79
			c-0.09-0.03-0.17-0.07-0.25-0.11c-0.75-0.59-1.7-0.87-2.65-0.78c-0.12,0.02-0.2,0.13-0.18,0.25c0.01,0.07,0.05,0.12,0.11,0.16
			l2.74,1.57c0.11,0.06,0.14,0.2,0.08,0.31c0,0,0,0,0,0c-0.3,0.52-0.17,0.85,0.43,1.16c0.64,0.33,0.76,2.19,0.19,2.72
			c-0.37,0.35-0.57,1.88-0.64,3c0,0.12,0.09,0.22,0.21,0.22c0.09,0,0.18-0.06,0.21-0.14c0.08-0.27,0.16-0.52,0.22-0.7
			c0.22-0.87,0.64-1.69,1.22-2.38c0.42-0.5,1.22-2.09,0.23-2.92c-0.06-0.07-0.07-0.17-0.02-0.25c0.08-0.19,0.25-0.56,0.45-1.08
			c0.42-0.97,0.91-1.91,1.46-2.81c0.05-0.09,0.74-1.11,0.81-1.19c0,0-1.19,3.68-1.55,4.94c-0.03,0.12,0.03,0.24,0.15,0.27
			c0.05,0.01,0.09,0.01,0.14-0.01c0.29-0.11,0.65-0.26,0.93-0.36c0.11-0.04,0.24,0.02,0.27,0.14c0.01,0.04,0.02,0.09,0,0.13
			c-0.37,1.3-0.69,2.62-1.17,3.88c-0.47,1.23-1.1,2.41-1.69,3.6c-0.05,0.11-0.01,0.24,0.1,0.29C139.81-8.81,139.87-8.81,139.92-8.83
			L139.92-8.83z M121.89-18.55l-0.12,0.06C121.81-18.51,121.85-18.53,121.89-18.55L121.89-18.55z M116.93-34.62
			c0.23,0.06,0.45,0.11,0.66,0.15C117.38-34.53,117.16-34.58,116.93-34.62L116.93-34.62z M116.65-34.3
			c-3.05-0.24-2.48,2.01-1.89,3.34l0.49,0.81c0.03,0.03,0.05,0.07,0.07,0.11c0,0.01,0.01,0.02,0.01,0.02l0,0
			c0.76,1.79,1.39,5.6,5.05,7.06c-0.14-0.08-0.28-0.17-0.42-0.27c-1.05-0.89-1.92-1.99-2.54-3.22c-1.63-3.28-1.2-5.34-1.4-6.16
			c0.32,0.11,1.43,0.35,1.65,0.43c0.02-0.05-1.96-0.91-2.53-1.21c0.25-0.16,0.53-0.26,0.83-0.3c1.29-0.13,1.77,0.28,2.61,0.39
			c0.56,0.05,1.12,0.01,1.66-0.13L116.65-34.3z M134.04-18.55c0.04,0.02,0.08,0.04,0.12,0.06L134.04-18.55z M138.34-34.46
			c0.21-0.05,0.43-0.1,0.66-0.15C138.77-34.58,138.55-34.53,138.34-34.46L138.34-34.46z M140.6-30.01L140.6-30.01
			c0-0.01,0.01-0.02,0.01-0.02c0.02-0.04,0.04-0.08,0.07-0.11l0.49-0.81c0.59-1.33,1.16-3.58-1.89-3.34l-3.59,0.88
			c0.54,0.14,1.11,0.18,1.66,0.13c0.83-0.12,1.32-0.53,2.61-0.39c0.29,0.04,0.58,0.14,0.83,0.3c-0.57,0.3-2.55,1.16-2.53,1.21
			c0.22-0.08,1.34-0.32,1.65-0.43c-0.2,0.82,0.23,2.88-1.4,6.16c-0.62,1.23-1.48,2.33-2.54,3.22c-0.14,0.1-0.28,0.19-0.42,0.27
			C139.21-24.42,139.84-28.22,140.6-30.01L140.6-30.01z M127.96-18.35c-0.44,0-0.91,0-1.52-0.01c-0.55,0.01-1.1-0.1-1.61-0.31
			c-0.28-0.2-0.43-0.55-0.36-0.89c0.03-0.46,0.63-0.78,0.63-0.78c-0.02,1.08,0.91,1.36,2.86,1.38h0.02
			c1.95-0.02,2.88-0.31,2.86-1.38c0,0,0.6,0.32,0.63,0.78c0.06,0.34-0.08,0.69-0.36,0.89c-0.51,0.21-1.06,0.32-1.61,0.31
			c-0.6,0.01-1.08,0.01-1.52,0.01l-0.01-0.05L127.96-18.35z M127.97-6.82c0.06,1.42-2.38,1.54-4.44,0.31
			c-0.12-0.44,0.11-1.19-0.13-1.36c-0.36-0.25-0.92,0.08-1.28,0.31c-0.36,0.23-0.59,0.67-0.94,0.94c0.15-2.19,2.34-4.18,5.7-4.37
			c0.37-0.02,0.74-0.04,1.09-0.04c0.35,0,0.72,0.02,1.09,0.04c3.36,0.19,5.55,2.18,5.7,4.37c-0.35-0.27-0.58-0.71-0.94-0.94
			c-0.36-0.23-0.92-0.55-1.28-0.31c-0.24,0.17-0.01,0.92-0.13,1.36C130.35-5.28,127.91-5.4,127.97-6.82z"/>
	</g>
</g>
</svg>
