<svg xmlns="http://www.w3.org/2000/svg" width="142" height="48" viewBox="0 0 142 48">
  <g fill="#FFF">
    <path d="M13.7,0.75 L0,0.75 L0,26.21 L5.84,26.21 L5.84,16 L11,16 L16.81,26.21 L23.32,26.21 L16.9,15.85 C23,15.85 25.45,0.75 13.7,0.75 Z M13.8,10.85 L5.89,10.85 L5.89,5.89 L13.8,5.89 C17.11,5.89 17.11,10.85 13.8,10.85 Z M29.78,13.48 C29.78,20.51 34.76,26.21 41.79,26.21 L50.96,26.21 L50.96,21.82 L41.79,21.82 C37.84,21.75 35.55,18.97 35,15.26 L50.95,15.26 L50.95,10.96 L35.13,10.96 C35.86,7.6 38.1,5.15 41.79,5.08 L41.79,5.08 L51.38,5.08 L51.38,0.75 L41.79,0.75 C34.76,0.75 29.78,6.45 29.78,13.48 Z M64.67,14.61 L64.67,0.75 L58.92,0.75 L58.92,18.97 C58.92,22.97 62.16,26.21 66.16,26.21 C66.39,26.21 66.62,26.2 66.85,26.17 L66.85,26.21 L76.37,26.21 L76.37,21.08 L70.58,21.08 C65.4,21.08 64.67,20.3 64.67,14.61 L64.67,14.61 Z M93.13,0.81 L81.74,26.21 L88.3,26.21 L90.27,20.42 L100.88,20.42 L103.47,26.24 L109.99,26.24 L98.9,0.75 L93.13,0.81 Z M92.05,15.28 L95.87,6.52 L99.65,15.3 L92.05,15.28 L92.05,15.28 Z"/>
    <circle cx="138.16" cy="4.59" r="3.84"/>
    <circle cx="118.79" cy="4.59" r="3.84"/>
    <circle cx="118.79" cy="22.37" r="3.84"/>
    <circle cx="137.97" cy="22.37" r="3.84"/>
    <circle cx="128.31" cy="13.48" r="3.84"/>
    <path d="M60.43 2.26C59.91 3.96 59.39 5.66 58.88 7.35 58.77 7.71 58.71 8.09 58.54 8.43 58.41 8.71 58.16 8.93 57.96 9.17 57.73 8.92 57.38 8.71 57.28 8.41 56.74 6.74 56.26 5.04 55.76 3.36 55.65 2.99 55.51 2.63 55.14 2.29 54.85 4.26 54.59 6.23 54.25 8.18 54.18 8.56 53.77 8.89 53.51 9.24 53.4 8.85 53.15 8.43 53.2 8.06 53.53 5.82 53.89 3.59 54.33 1.37 54.42.93 54.89.56 55.19.16 55.52.53 56.01.86 56.15 1.29 56.75 3.11 57.25 4.97 58.01 6.84 58.48 5.23 58.95 3.62 59.43 2.01 59.54 1.65 59.58 1.24 59.77.94 59.97.63 60.33.21 60.61.22 60.9.23 61.37.66 61.43.97 61.9 3.4 62.31 5.83 62.67 8.28 62.71 8.55 62.38 8.87 62.22 9.17 62.01 8.92 61.65 8.69 61.6 8.41 61.27 6.39 61 4.36 60.71 2.33 60.62 2.3 60.52 2.28 60.43 2.26zM104.59 2.27C104.59 4.4 104.62 6.19 104.56 7.96 104.55 8.36 104.21 8.75 104.02 9.14 103.85 8.76 103.55 8.39 103.54 8.01 103.5 5.71 103.51 3.4 103.53 1.09 103.53.79 103.72.5 103.83.2 104.13.37 104.53.47 104.72.73 106.16 2.73 107.56 4.76 109.24 6.74 109.24 5.18 109.24 3.61 109.24 2.05 109.24 1.63 109.2 1.2 109.29.8 109.34.57 109.62.4 109.79.2 109.97.4 110.29.59 110.3.79 110.34 3.39 110.33 5.99 110.31 8.59 110.31 8.78 110 9.14 109.93 9.12 109.64 9.03 109.3 8.88 109.13 8.65 107.91 6.95 106.72 5.22 105.52 3.5 105.3 3.19 105.05 2.88 104.59 2.27zM136.46 5.09C135.96 5.07 135.53 5.1 135.14 5.01 134.92 4.96 134.75 4.69 134.56 4.53 134.76 4.36 134.95 4.07 135.17 4.05 135.75 3.99 136.36 3.96 136.92 4.07 137.19 4.13 137.54 4.5 137.6 4.79 137.96 6.4 136.97 8.34 135.6 8.9 133.81 9.63 131.81 9.04 130.82 7.5 129.7 5.75 129.78 3.15 131.02 1.57 132.03.28 133.81-.16 135.59.43 135.75.48 135.94.51 136.05.63 136.39.99 136.69 1.39 137.01 1.77 136.55 1.72 136.02 1.8 135.65 1.59 133.82.59 131.99 1.18 131.48 3.19 131.23 4.19 131.29 5.37 131.56 6.38 131.95 7.86 133.24 8.48 134.58 8.14 135.96 7.79 136.58 6.82 136.46 5.09zM6.49 5.04C6 5.04 5.57 5.1 5.18 5.02 4.96 4.98 4.78 4.71 4.58 4.54 4.78 4.37 4.97 4.07 5.19 4.05 5.77 3.98 6.4 3.9 6.93 4.08 7.27 4.2 7.65 4.75 7.67 5.13 7.82 7.21 6.66 8.77 4.84 9.12 2.8 9.51 1.08 8.57.41 6.54-.22 4.64-.09 2.78 1.37 1.27 2.57.02 4.11-.04 5.69.46 6.08.59 6.47.8 6.76 1.08 6.94 1.25 6.91 1.63 6.98 1.91 6.72 1.93 6.45 1.94 6.19 1.95 6.15 1.95 6.12 1.91 6.08 1.89 4.07.85 2.87.94 1.97 2.19.89 3.7 1.04 6.36 2.31 7.55 3.18 8.38 4.19 8.39 5.22 7.92 6.23 7.45 6.61 6.63 6.49 5.04zM26.86 9.17C26.86 8.81 26.76 8.42 26.88 8.1 27.58 6.13 28.34 4.18 29.07 2.23 29.26 1.72 29.41 1.19 29.66.71 30.07-.03 30.74-.05 31.05.73 32.06 3.25 33 5.8 33.93 8.35 34.01 8.56 33.83 8.86 33.78 9.12 33.51 8.99 33.15 8.94 32.99 8.73 32.63 8.26 32.43 7.35 32.05 7.28 30.91 7.09 29.71 7.15 28.56 7.28 28.3 7.31 28.11 7.99 27.88 8.36 27.7 8.66 27.51 8.95 27.33 9.25 27.17 9.22 27.01 9.2 26.86 9.17zM32.04 6.17C31.5 4.65 30.99 3.23 30.35 1.44 29.72 3.23 29.21 4.65 28.68 6.17 29.85 6.17 30.87 6.17 32.04 6.17zM82.42 4.64C82.42 3.43 82.39 2.22 82.45 1.01 82.46.74 82.8.48 82.99.21 83.15.46 83.46.71 83.46.96 83.5 3.42 83.5 5.89 83.46 8.35 83.46 8.62 83.1 8.88 82.91 9.15 82.75 8.86 82.46 8.57 82.45 8.27 82.39 7.06 82.42 5.85 82.42 4.64z" transform="translate(0 38)"/>
  </g>
</svg>
