<?xml version="1.0" encoding="utf-8"?>
<!-- Generator: Adobe Illustrator 23.1.0, SVG Export Plug-In . SVG Version: 6.00 Build 0)  -->
<svg version="1.1" id="Layer_1" xmlns="http://www.w3.org/2000/svg" xmlns:xlink="http://www.w3.org/1999/xlink" x="0px" y="0px"
	 viewBox="0 0 250 100" style="enable-background:new 0 0 250 100;" xml:space="preserve">
<style type="text/css">
	.st0{display:none;}
	.st1{display:inline;fill:#2F2F2F;}
	.st2{display:inline;enable-background:new    ;}
	.st3{fill:#FFFFFF;stroke:#EFEFEF;stroke-width:0.05;stroke-miterlimit:10;}
	.st4{fill:#FFFFFF;}
	.st5{fill:#FCC42C;}
	.st6{fill:#C23844;}
	.st7{fill:#FEFEFE;}
	.st8{fill:#FA4133;}
	.st9{fill:#F85F1D;}
	.st10{fill:#FC323A;}
	.st11{fill:#F99209;}
	.st12{fill:#FCFDFE;}
	.st13{fill:#F94D2D;}
	.st14{fill:#FA512A;}
	.st15{fill:#FB5C25;}
	.st16{fill:#F25710;}
	.st17{fill:#F9BB41;}
	.st18{fill:#FA6C1D;}
	.st19{fill:#F9BD51;}
	.st20{fill:#F97B16;}
	.st21{fill:#FB2841;}
	.st22{fill:#F9880F;}
	.st23{fill:#EE4A0B;}
	.st24{fill:#FAA052;}
	.st25{fill:#F57F41;}
	.st26{fill:#F99044;}
	.st27{fill:#F6B15B;}
	.st28{fill:#F99D06;}
	.st29{fill:#FBBE70;}
	.st30{fill:#FABE5F;}
	.st31{fill:#FBB067;}
	.st32{fill:#41AADF;}
	.st33{fill:#FBFBFB;}
	.st34{fill-rule:evenodd;clip-rule:evenodd;fill:url(#SVGID_1_);}
	.st35{fill:#A5CD39;}
	.st36{fill:#40AA8B;}
	.st37{fill-rule:evenodd;clip-rule:evenodd;fill:#A5CD39;}
	.st38{clip-path:url(#SVGID_3_);fill-rule:evenodd;clip-rule:evenodd;fill:#A5CD39;}
	.st39{opacity:0.36;clip-path:url(#SVGID_5_);fill-rule:evenodd;clip-rule:evenodd;fill:url(#SVGID_6_);enable-background:new    ;}
	.st40{opacity:0.71;clip-path:url(#SVGID_8_);fill-rule:evenodd;clip-rule:evenodd;fill:url(#SVGID_9_);enable-background:new    ;}
	
		.st41{opacity:0.79;clip-path:url(#SVGID_11_);fill-rule:evenodd;clip-rule:evenodd;fill:url(#SVGID_12_);enable-background:new    ;}
	
		.st42{opacity:0.47;clip-path:url(#SVGID_14_);fill-rule:evenodd;clip-rule:evenodd;fill:url(#SVGID_15_);enable-background:new    ;}
	
		.st43{opacity:0.61;clip-path:url(#SVGID_17_);fill-rule:evenodd;clip-rule:evenodd;fill:url(#SVGID_18_);enable-background:new    ;}
	
		.st44{opacity:0.66;clip-path:url(#SVGID_20_);fill-rule:evenodd;clip-rule:evenodd;fill:url(#SVGID_21_);enable-background:new    ;}
	
		.st45{opacity:0.39;clip-path:url(#SVGID_23_);fill-rule:evenodd;clip-rule:evenodd;fill:url(#SVGID_24_);enable-background:new    ;}
	.st46{fill:#73B73E;}
	.st47{fill:#F26922;}
	.st48{fill-rule:evenodd;clip-rule:evenodd;fill:#FFFFFF;}
	.st49{fill:#F19021;}
	.st50{fill:#E9148D;}
	.st51{fill:#2BAEE4;}
	.st52{fill:#13B6A7;}
	.st53{fill:#FEE700;}
	.st54{fill:#EC242A;}
	.st55{fill:#FCB34B;}
	.st56{fill-rule:evenodd;clip-rule:evenodd;fill:#F6F6F6;}
	.st57{fill-rule:evenodd;clip-rule:evenodd;fill:#D71920;}
	.st58{fill:#63A844;}
	.st59{fill:#DF2D38;}
	.st60{fill:#7C8080;}
	.st61{fill:#A3A3A3;}
	.st62{fill:url(#SVGID_25_);}
	.st63{fill:url(#SVGID_26_);}
	.st64{fill:url(#SVGID_27_);}
	.st65{fill:#EF612A;}
	.st66{fill:url(#SVGID_28_);}
	.st67{fill:url(#SVGID_29_);}
	.st68{opacity:0.5;fill:#FFFFFF;}
	.st69{fill:#363833;}
	.st70{fill:#5998A9;}
	.st71{fill:#80B3CB;}
	.st72{fill:url(#SVGID_30_);}
	.st73{fill:url(#SVGID_31_);}
	.st74{fill:url(#SVGID_32_);}
	.st75{fill:url(#SVGID_33_);}
	.st76{fill:url(#SVGID_34_);}
	.st77{fill:url(#SVGID_35_);}
	.st78{fill:url(#SVGID_36_);}
	.st79{fill:#FFC20E;}
</style>
<g class="st0">
	<rect class="st1" width="250" height="100"/>
</g>
<g id="Logo-2-Copy-2" transform="translate(1321.000000, 138.000000)">
	<g class="st0">
		<g class="st2">
			<path class="st3" d="M-1251.04-75.04v0.89h-2.68v1.35h2.68v0.89h-2.68v1.33h2.68v0.89h-3.57v-5.36H-1251.04z"/>
		</g>
		<g class="st2">
			<path class="st3" d="M-1247.04-71.91c-0.43,0-0.8-0.14-1.11-0.46c-0.31-0.31-0.46-0.68-0.46-1.11s0.14-0.8,0.46-1.11
				c0.29-0.31,0.68-0.46,1.11-0.46h2.92v0.89h-2.92c-0.1,0-0.17,0.02-0.27,0.05c-0.07,0.02-0.14,0.07-0.22,0.14
				s-0.12,0.14-0.14,0.22s-0.05,0.17-0.05,0.27c0,0.19,0.07,0.34,0.19,0.48c0.12,0.14,0.29,0.19,0.48,0.19h1.33
				c0.43,0,0.8,0.14,1.11,0.46c0.31,0.31,0.46,0.68,0.46,1.11c0,0.43-0.14,0.8-0.46,1.11c-0.31,0.31-0.68,0.46-1.11,0.46h-2.9v-0.89
				h2.9c0.1,0,0.17-0.02,0.27-0.05c0.07-0.02,0.14-0.07,0.22-0.14c0.07-0.05,0.12-0.12,0.14-0.22c0.02-0.07,0.05-0.17,0.05-0.27
				c0-0.17-0.07-0.34-0.19-0.48c-0.12-0.14-0.29-0.19-0.48-0.19H-1247.04z"/>
		</g>
		<g class="st2">
			<path class="st3" d="M-1241-71.47v1.79h-0.89v-5.36h2.68c0.48,0,0.92,0.17,1.25,0.53c0.34,0.36,0.53,0.77,0.53,1.28
				c0,0.48-0.17,0.92-0.53,1.28c-0.36,0.34-0.77,0.51-1.25,0.51h-1.79V-71.47z M-1241-74.15v1.79h1.79c0.24,0,0.46-0.1,0.63-0.27
				c0.17-0.17,0.27-0.39,0.27-0.63c0-0.24-0.1-0.46-0.27-0.63c-0.17-0.17-0.39-0.27-0.63-0.27H-1241z"/>
		</g>
		<g class="st2">
			<path class="st3" d="M-1232.37-75.04c0.75,0,1.38,0.27,1.91,0.8c0.53,0.53,0.8,1.16,0.8,1.91s-0.27,1.38-0.8,1.91
				c-0.53,0.53-1.16,0.8-1.91,0.8s-1.38-0.27-1.91-0.8c-0.53-0.53-0.8-1.16-0.8-1.91s0.27-1.38,0.8-1.91
				C-1233.74-74.78-1233.11-75.04-1232.37-75.04z M-1232.37-74.15c-0.48,0-0.92,0.17-1.28,0.53c-0.34,0.36-0.51,0.77-0.51,1.25
				c0,0.48,0.17,0.92,0.51,1.28c0.36,0.34,0.77,0.51,1.28,0.51c0.48,0,0.92-0.17,1.25-0.51c0.36-0.36,0.53-0.77,0.53-1.28
				c0-0.48-0.17-0.92-0.53-1.25C-1231.45-73.98-1231.86-74.15-1232.37-74.15z"/>
		</g>
		<g class="st2">
			<path class="st3" d="M-1223.85-69.69l-1.04-1.79h-1.52v1.79h-0.89v-5.36h2.68c0.48,0,0.92,0.17,1.25,0.53
				c0.36,0.36,0.53,0.77,0.53,1.25c0,0.36-0.1,0.7-0.31,1.01c-0.22,0.29-0.46,0.51-0.8,0.65l1.11,1.93h-1.01V-69.69z M-1224.6-74.15
				h-1.79v1.79h1.79c0.24,0,0.46-0.1,0.63-0.27c0.17-0.17,0.27-0.39,0.27-0.63c0-0.24-0.1-0.46-0.27-0.63
				C-1224.14-74.06-1224.35-74.15-1224.6-74.15z"/>
		</g>
		<g class="st2">
			<path class="st3" d="M-1220.59-75.04h4.49v0.89h-1.79v4.46h-0.89v-4.46h-1.79v-0.89H-1220.59z"/>
		</g>
		<g class="st2">
			<path class="st3" d="M-1212.07-71.91c-0.43,0-0.8-0.14-1.11-0.46c-0.31-0.31-0.46-0.68-0.46-1.11s0.14-0.8,0.46-1.11
				c0.29-0.31,0.68-0.46,1.11-0.46h2.92v0.89h-2.92c-0.1,0-0.17,0.02-0.27,0.05c-0.07,0.02-0.14,0.07-0.22,0.14
				c-0.07,0.07-0.12,0.14-0.14,0.22c-0.02,0.07-0.05,0.17-0.05,0.27c0,0.19,0.07,0.34,0.19,0.48c0.12,0.14,0.29,0.19,0.48,0.19h1.33
				c0.43,0,0.8,0.14,1.11,0.46c0.31,0.31,0.46,0.68,0.46,1.11c0,0.43-0.14,0.8-0.46,1.11c-0.31,0.31-0.68,0.46-1.11,0.46h-2.9v-0.89
				h2.9c0.1,0,0.17-0.02,0.27-0.05c0.07-0.02,0.14-0.07,0.22-0.14c0.07-0.05,0.12-0.12,0.14-0.22c0.02-0.07,0.05-0.17,0.05-0.27
				c0-0.17-0.07-0.34-0.19-0.48c-0.12-0.14-0.29-0.19-0.48-0.19H-1212.07z"/>
		</g>
		<g class="st2">
			<path class="st3" d="M-1200.97-75.04v0.89h-2.68v1.79h2.68v0.92h-2.68v1.79h-0.89v-5.38H-1200.97z"/>
		</g>
		<g class="st2">
			<path class="st3" d="M-1197.13-75.04c0.75,0,1.38,0.27,1.91,0.8c0.53,0.53,0.8,1.16,0.8,1.91s-0.27,1.38-0.8,1.91
				c-0.53,0.53-1.16,0.8-1.91,0.8s-1.38-0.27-1.91-0.8c-0.53-0.53-0.8-1.16-0.8-1.91s0.27-1.38,0.8-1.91
				C-1198.51-74.78-1197.88-75.04-1197.13-75.04z M-1197.13-74.15c-0.48,0-0.92,0.17-1.28,0.53c-0.34,0.36-0.51,0.77-0.51,1.25
				c0,0.48,0.17,0.92,0.51,1.28c0.36,0.34,0.77,0.51,1.28,0.51c0.48,0,0.92-0.17,1.25-0.51c0.36-0.36,0.53-0.77,0.53-1.28
				c0-0.48-0.17-0.92-0.53-1.25C-1196.22-73.98-1196.65-74.15-1197.13-74.15z"/>
		</g>
		<g class="st2">
			<path class="st3" d="M-1189.7-69.69l-1.04-1.79h-1.52v1.79h-0.89v-5.36h2.68c0.48,0,0.92,0.17,1.25,0.53
				c0.36,0.36,0.53,0.77,0.53,1.25c0,0.36-0.1,0.7-0.31,1.01c-0.22,0.29-0.46,0.51-0.8,0.65l1.11,1.93h-1.01V-69.69z
				 M-1190.45-74.15h-1.79v1.79h1.79c0.24,0,0.46-0.1,0.63-0.27c0.17-0.17,0.27-0.39,0.27-0.63c0-0.24-0.1-0.46-0.27-0.63
				C-1189.99-74.06-1190.21-74.15-1190.45-74.15z"/>
		</g>
		<g class="st2">
			<path class="st3" d="M-1181.09-75.04v0.89h-2.68v1.35h2.68v0.89h-2.68v1.33h2.68v0.89h-3.57v-5.36H-1181.09z"/>
		</g>
		<g class="st2">
			<path class="st3" d="M-1178.46-75.04l1.69,3.38l1.69-3.38h0.99l-2.68,5.38l-2.68-5.38H-1178.46z"/>
		</g>
		<g class="st2">
			<path class="st3" d="M-1168.88-75.04v0.89h-2.68v1.35h2.68v0.89h-2.68v1.33h2.68v0.89h-3.57v-5.36H-1168.88z"/>
		</g>
		<g class="st2">
			<path class="st3" d="M-1163.69-69.69l-1.04-1.79h-1.52v1.79h-0.89v-5.36h2.68c0.48,0,0.92,0.17,1.25,0.53
				c0.36,0.36,0.53,0.77,0.53,1.25c0,0.36-0.1,0.7-0.31,1.01c-0.22,0.29-0.46,0.51-0.8,0.65l1.11,1.93h-1.01V-69.69z
				 M-1164.46-74.15h-1.79v1.79h1.79c0.24,0,0.46-0.1,0.63-0.27c0.17-0.17,0.27-0.39,0.27-0.63c0-0.24-0.1-0.46-0.27-0.63
				C-1164-74.06-1164.22-74.15-1164.46-74.15z"/>
		</g>
		<g class="st2">
			<path class="st3" d="M-1156.55-75.04h1.13l-2.2,2.82v2.56h-0.89v-2.53l-2.24-2.87h1.13l1.52,1.95L-1156.55-75.04z"/>
		</g>
		<g class="st2">
			<path class="st3" d="M-1151.14-75.04c0.75,0,1.38,0.27,1.91,0.8c0.53,0.53,0.8,1.16,0.8,1.91s-0.27,1.38-0.8,1.91
				c-0.53,0.53-1.16,0.8-1.91,0.8c-0.75,0-1.38-0.27-1.91-0.8c-0.53-0.53-0.8-1.16-0.8-1.91s0.27-1.38,0.8-1.91
				C-1152.52-74.78-1151.89-75.04-1151.14-75.04z M-1151.14-74.15c-0.48,0-0.92,0.17-1.28,0.53c-0.34,0.36-0.51,0.77-0.51,1.25
				c0,0.48,0.17,0.92,0.51,1.28c0.36,0.34,0.77,0.51,1.28,0.51c0.51,0,0.92-0.17,1.25-0.51c0.36-0.36,0.53-0.77,0.53-1.28
				c0-0.48-0.17-0.92-0.53-1.25C-1150.22-73.98-1150.63-74.15-1151.14-74.15z"/>
		</g>
		<g class="st2">
			<path class="st3" d="M-1146.77-75.07l3.57,3.21v-3.21h0.89v5.38l0,0v0.02l-3.6-3.21v3.21h-0.89v-5.41H-1146.77z"/>
		</g>
		<g class="st2">
			<path class="st3" d="M-1137-75.04v0.89h-2.68v1.35h2.68v0.89h-2.68v1.33h2.68v0.89h-3.57v-5.36H-1137z"/>
		</g>
	</g>
	<path id="Path" class="st3" d="M-1237.12-87.26c2.75,0,4.83,0.39,6.15,1.23c1.28,0.84,1.95,2.24,1.95,4.27v2.7
		c0.05,0.94-0.12,1.88-0.48,2.75c-0.36,0.7-0.92,1.3-1.59,1.71c-0.82,0.46-1.71,0.77-2.63,0.87c-1.23,0.17-2.46,0.24-3.69,0.24
		h-16.77l0,0c-0.46,0-0.82-0.36-0.82-0.82c0-0.05,0-0.1,0-0.12l0.56-3.47l0,0c0.07-0.41,0.41-0.7,0.82-0.7h15.9
		c0.89,0,1.47-0.14,1.83-0.48c0.43-0.31,0.65-1.28,0.65-2.03s0-0.84-0.43-1.16c-0.36-0.31-1.16-0.34-2.05-0.34h-8.74
		c-2.85,0-4.9-0.39-6.18-1.23c-1.28-0.84-1.95-3.28-1.95-5.31v-2.58c-0.05-0.94,0.12-1.88,0.48-2.75c0.34-0.72,0.89-1.33,1.59-1.71
		c0.82-0.46,1.71-0.77,2.63-0.89c1.23-0.19,2.46-0.29,3.69-0.27h15.42l0,0c0.46,0,0.82,0.36,0.82,0.82c0,0.05,0,0.1,0,0.12
		l-0.55,3.5l0,0c-0.07,0.41-0.41,0.7-0.82,0.7h-14.53c-0.68-0.05-1.35,0.12-1.91,0.48c-0.36,0.31-0.58,0.99-0.58,1.98
		c0,0.99,0.22,1.64,0.58,1.98c0.43,0.34,1.04,0.53,1.91,0.53L-1237.12-87.26z"/>
	<path id="Path_1_" class="st3" d="M-1199.47-73.6h-5.26l0,0c-0.22,0-0.43-0.1-0.58-0.24l-7.7-7.7l0,0
		c-0.31-0.31-0.82-0.31-1.13-0.02l-3.93,3.6l0,0c-0.17,0.17-0.27,0.39-0.27,0.6v2.92l0,0c0,0.46-0.36,0.82-0.82,0.82h-4.3l0,0
		c-0.46,0-0.82-0.36-0.82-0.82v-29.66l0,0c0-0.36,0.22-0.68,0.55-0.8l4.3-1.42l0,0c0.43-0.14,0.89,0.1,1.04,0.53
		c0.02,0.1,0.05,0.17,0.05,0.27v19.18l0,0c0,0.46,0.36,0.82,0.82,0.82c0.22,0,0.41-0.07,0.58-0.24l12.09-11.56l0,0
		c0.14-0.14,0.36-0.24,0.58-0.24h4.9l0,0c0.46,0,0.82,0.36,0.82,0.82c0,0.22-0.1,0.46-0.27,0.6l-10.45,9.85l0,0
		c-0.34,0.31-0.34,0.84-0.02,1.18l0.02,0.02l10.4,9.99l0,0c0.34,0.31,0.34,0.84,0.02,1.18C-1199.04-73.67-1199.26-73.6-1199.47-73.6
		z"/>
	<path id="Path_3_" class="st3" d="M-1182.61-74.32v-30.67l0,0c0-0.46,0.36-0.82,0.82-0.82h4.37l0,0c0.46,0,0.82,0.36,0.82,0.82
		v30.67l0,0c0,0.46-0.36,0.82-0.82,0.82h-4.37l0,0C-1182.25-73.5-1182.61-73.86-1182.61-74.32L-1182.61-74.32L-1182.61-74.32z"/>
	<path id="Path_4_" class="st3" d="M-1171.51-74.32v-30.67l0,0c0-0.46,0.36-0.82,0.82-0.82h4.37l0,0c0.46,0,0.82,0.36,0.82,0.82
		v30.67l0,0c0,0.46-0.36,0.82-0.82,0.82h-4.37l0,0C-1171.15-73.5-1171.51-73.86-1171.51-74.32L-1171.51-74.32L-1171.51-74.32z"/>
	<path id="Shape" class="st3" d="M-1138.06-78.35h-11.56l0,0c-0.46,0-0.82-0.36-0.82-0.82c0-0.22,0.1-0.43,0.24-0.58l12.74-12.93
		l0,0c0.14-0.14,0.24-0.36,0.24-0.58v-3.28l0,0c0-0.46-0.36-0.82-0.82-0.82h-21.26l0,0c-0.46,0-0.82,0.36-0.82,0.82v3.26l0,0
		c0,0.46,0.36,0.82,0.82,0.82h11.63l0,0c0.46,0,0.82,0.36,0.82,0.82c0,0.22-0.1,0.43-0.24,0.58l-12.84,12.62l0,0
		c-0.17,0.14-0.24,0.36-0.24,0.58v3.52l0,0c0,0.46,0.36,0.82,0.82,0.82h21.26l0,0c0.46,0,0.82-0.36,0.82-0.82v-3.16l0,0
		C-1137.24-77.96-1137.6-78.35-1138.06-78.35z"/>
	<g>
		<path class="st3" d="M-1188.74-105.59h-4.37c-0.46,0-0.82,0.36-0.82,0.82v4.42h6.03v-4.42
			C-1187.92-105.23-1188.28-105.59-1188.74-105.59z"/>
		<path class="st3" d="M-1193.95-74.66L-1193.95-74.66L-1193.95-74.66c0,0.63,0.36,1.16,0.82,1.16l0,0h4.37
			c0.46,0,0.82-0.51,0.82-1.16l0,0v-23.21h-6.03v23.21H-1193.95z"/>
	</g>
</g>
</svg>
