<?xml version="1.0" encoding="utf-8"?>
<!-- Generator: Adobe Illustrator 23.1.0, SVG Export Plug-In . SVG Version: 6.00 Build 0)  -->
<svg version="1.1" id="Layer_1" xmlns="http://www.w3.org/2000/svg" xmlns:xlink="http://www.w3.org/1999/xlink" x="0px" y="0px"
	 viewBox="0 0 250 100" style="enable-background:new 0 0 250 100;" xml:space="preserve">
<style type="text/css">
	.st0{display:none;}
	.st1{display:inline;fill:#2F2F2F;}
	.st2{display:inline;enable-background:new    ;}
	.st3{fill:#FFFFFF;stroke:#EFEFEF;stroke-width:0.05;stroke-miterlimit:10;}
	.st4{fill:#FFFFFF;}
	.st5{fill:#FCC42C;}
	.st6{fill:#C23844;}
	.st7{fill:#FEFEFE;}
	.st8{fill:#FA4133;}
	.st9{fill:#F85F1D;}
	.st10{fill:#FC323A;}
	.st11{fill:#F99209;}
	.st12{fill:#FCFDFE;}
	.st13{fill:#F94D2D;}
	.st14{fill:#FA512A;}
	.st15{fill:#FB5C25;}
	.st16{fill:#F25710;}
	.st17{fill:#F9BB41;}
	.st18{fill:#FA6C1D;}
	.st19{fill:#F9BD51;}
	.st20{fill:#F97B16;}
	.st21{fill:#FB2841;}
	.st22{fill:#F9880F;}
	.st23{fill:#EE4A0B;}
	.st24{fill:#FAA052;}
	.st25{fill:#F57F41;}
	.st26{fill:#F99044;}
	.st27{fill:#F6B15B;}
	.st28{fill:#F99D06;}
	.st29{fill:#FBBE70;}
	.st30{fill:#FABE5F;}
	.st31{fill:#FBB067;}
	.st32{fill:#41AADF;}
	.st33{fill:#FBFBFB;}
	.st34{fill-rule:evenodd;clip-rule:evenodd;fill:url(#SVGID_1_);}
	.st35{fill:#A5CD39;}
	.st36{fill:#40AA8B;}
	.st37{fill-rule:evenodd;clip-rule:evenodd;fill:#A5CD39;}
	.st38{clip-path:url(#SVGID_3_);fill-rule:evenodd;clip-rule:evenodd;fill:#A5CD39;}
	.st39{opacity:0.36;clip-path:url(#SVGID_5_);fill-rule:evenodd;clip-rule:evenodd;fill:url(#SVGID_6_);enable-background:new    ;}
	.st40{opacity:0.71;clip-path:url(#SVGID_8_);fill-rule:evenodd;clip-rule:evenodd;fill:url(#SVGID_9_);enable-background:new    ;}
	
		.st41{opacity:0.79;clip-path:url(#SVGID_11_);fill-rule:evenodd;clip-rule:evenodd;fill:url(#SVGID_12_);enable-background:new    ;}
	
		.st42{opacity:0.47;clip-path:url(#SVGID_14_);fill-rule:evenodd;clip-rule:evenodd;fill:url(#SVGID_15_);enable-background:new    ;}
	
		.st43{opacity:0.61;clip-path:url(#SVGID_17_);fill-rule:evenodd;clip-rule:evenodd;fill:url(#SVGID_18_);enable-background:new    ;}
	
		.st44{opacity:0.66;clip-path:url(#SVGID_20_);fill-rule:evenodd;clip-rule:evenodd;fill:url(#SVGID_21_);enable-background:new    ;}
	
		.st45{opacity:0.39;clip-path:url(#SVGID_23_);fill-rule:evenodd;clip-rule:evenodd;fill:url(#SVGID_24_);enable-background:new    ;}
	.st46{fill:#73B73E;}
	.st47{fill:#F26922;}
	.st48{fill-rule:evenodd;clip-rule:evenodd;fill:#FFFFFF;}
	.st49{fill:#F19021;}
	.st50{fill:#E9148D;}
	.st51{fill:#2BAEE4;}
	.st52{fill:#13B6A7;}
	.st53{fill:#FEE700;}
	.st54{fill:#EC242A;}
	.st55{fill:#FCB34B;}
	.st56{fill-rule:evenodd;clip-rule:evenodd;fill:#F6F6F6;}
	.st57{fill-rule:evenodd;clip-rule:evenodd;fill:#D71920;}
	.st58{fill:#63A844;}
	.st59{fill:#DF2D38;}
	.st60{fill:#7C8080;}
	.st61{fill:#A3A3A3;}
	.st62{fill:url(#SVGID_25_);}
	.st63{fill:url(#SVGID_26_);}
	.st64{fill:url(#SVGID_27_);}
	.st65{fill:#EF612A;}
	.st66{fill:url(#SVGID_28_);}
	.st67{fill:url(#SVGID_29_);}
	.st68{opacity:0.5;fill:#FFFFFF;}
	.st69{fill:#363833;}
	.st70{fill:#5998A9;}
	.st71{fill:#80B3CB;}
	.st72{fill:url(#SVGID_30_);}
	.st73{fill:url(#SVGID_31_);}
	.st74{fill:url(#SVGID_32_);}
	.st75{fill:url(#SVGID_33_);}
	.st76{fill:url(#SVGID_34_);}
	.st77{fill:url(#SVGID_35_);}
	.st78{fill:url(#SVGID_36_);}
	.st79{fill:#FFC20E;}
</style>
<g class="st0">
	<rect class="st1" width="250" height="100"/>
</g>
<g>
	<path class="st4" d="M143.42,80.94c0.06-0.11,0.12-0.13,0.17,0C143.54,80.94,143.48,80.94,143.42,80.94z"/>
	<path class="st4" d="M167.55,34.09c-6.64-3.21-14.61-0.19-17.45,6.98c-0.22-1.24-0.71-2.36-1.37-3.41
		c-0.17-0.28-0.16-0.49,0.03-0.75c0.43-0.56,0.87-1.12,1.29-1.69c0.28-0.39,0.27-0.49-0.11-0.78c-1.56-1.18-3.11-2.37-4.68-3.55
		c-0.4-0.3-0.51-0.28-0.82,0.13c-0.52,0.68-1.06,1.35-1.55,2.04c-0.19,0.27-0.41,0.36-0.74,0.3c-0.93-0.16-1.88-0.18-2.81-0.05
		c-1.47,0.2-2.84,0.69-4.08,1.53c-0.23,0.16-0.35,0.16-0.4-0.15c-0.29-1.66-0.56-3.32-0.85-4.97c-0.04-0.22,0.01-0.4,0.16-0.56
		c0.71-0.71,1.39-1.45,2.13-2.11c1.14-1.02,2.17-2.14,3.26-3.2c0.1-0.1,0.24-0.22,0.2-0.37c-0.05-0.16-0.24-0.14-0.38-0.16
		c-2.17-0.31-4.33-0.65-6.5-0.94c-1.35-0.18-1.32-0.19-1.88-1.41c-0.89-1.97-1.91-3.87-2.87-5.81c-0.08-0.15-0.15-0.33-0.39-0.26
		c-0.16,0.12-0.22,0.31-0.3,0.47c-1.03,2.13-2.07,4.25-3.13,6.36c-0.16,0.32-0.37,0.49-0.72,0.53c-1.68,0.21-3.35,0.49-5.03,0.72
		c-0.76,0.1-1.52,0.21-2.28,0.34c-0.34,0.06-0.39,0.19-0.19,0.47c0.1,0.13,0.22,0.23,0.33,0.35c1.62,1.62,3.3,3.17,4.91,4.81
		c0.32,0.33,0.44,0.64,0.32,1.09c-0.13,0.52-0.19,1.06-0.28,1.58c-0.18,1.09-0.39,2.18-0.57,3.33c-2.87-5.11-8.43-6.16-12.39-4.45
		c-2.16,0.93-3.79,2.45-4.84,4.55c-1.05,2.1-1.32,4.31-0.76,6.6c-0.05-0.2-0.14-0.38-0.25-0.55c-2.15-3.66-5.24-6.14-9.32-7.36
		c-0.5-0.15-1.01-0.26-1.46-0.55c-1-0.64-1.44-2.02-0.99-3.15c0.47-1.19,1.74-1.9,2.94-1.65c1.47,0.31,2.32,1.52,2.13,3.1
		c-0.04,0.36,0.02,0.59,0.4,0.68c1.89,0.46,3.76,0.96,5.66,1.4c0.54,0.12,0.66,0.03,0.78-0.52c0.24-1.11,0.28-2.24,0.13-3.37
		c-0.7-5.16-5.47-8.92-10.71-8.28c-2.61,0.32-4.74,1.51-6.37,3.54c-1.99,2.47-2.56,5.3-1.86,8.39c0.12,0.51,0.12,0.51-0.36,0.69
		c-4.24,1.59-7.33,4.43-9.18,8.57c-1.17,2.63-1.6,5.39-1.22,8.24c0.54,4.11,2.38,7.54,5.56,10.22c3.34,2.82,7.24,3.95,11.56,3.63
		c2.28-0.17,4.44-0.85,6.42-2.03c4.79-2.85,7.41-7.08,7.93-12.61c-0.01,0.52,0.15,1.02,0.25,1.54c0.48,2.39,0.95,4.78,1.43,7.16
		c0.11,0.52,0.16,0.57,0.61,0.48c1.95-0.39,3.9-0.75,5.84-1.18c0.49-0.11,0.51-0.14,0.43-0.65c-0.01-0.07-0.02-0.14-0.04-0.21
		c-0.53-2.5-1.01-5-1.52-7.5c-0.13-0.63-0.13-0.63,0.53-0.63c2.7,0,5.03-0.93,6.91-2.86c2.36-2.43,3.22-5.33,2.61-8.66
		c-0.06-0.34,0.02-0.51,0.31-0.65c1.84-0.95,3.68-1.91,5.5-2.89c0.25-0.13,0.49-0.13,0.74,0c1.52,0.79,3.03,1.58,4.54,2.39
		c0.47,0.25,0.46,0.27,0.15,0.69c-1.16,1.57-1.86,3.32-1.95,5.27c-0.13,2.88,0.83,5.37,2.89,7.43c0.45,0.45,0.97,0.81,1.49,1.23
		c-4.69,2.33-7.54,6.06-8.69,11.12c-0.01,0.04-0.02,0.09-0.03,0.13c-0.01,0.04-0.02,0.09-0.02,0.14c-0.35,1.9-0.37,3.8-0.02,5.7
		c0.61,3.29,2.1,6.11,4.48,8.47c1.91,1.89,4.16,3.17,6.72,3.92c0.82,0.24,1.66,0.36,2.5,0.48c1.04,0,2.09,0,3.13,0
		c0.06-0.05,0.12-0.05,0.17,0c0.06,0,0.12,0,0.17,0c1.1-0.08,2.18-0.27,3.22-0.62c2.88-0.98,5.34-2.58,7.29-4.92
		c1.06-1.27,1.9-2.66,2.51-4.2c0.2-0.51,0.14-0.65-0.37-0.78c-1.3-0.34-2.62-0.62-3.94-0.9c-0.52-0.11-0.58-0.07-0.81,0.4
		c-0.39,0.83-0.8,1.64-1.36,2.37c-1.86,2.44-4.26,4.13-7.23,4.93c-2.23,0.6-4.45,0.56-6.62-0.3c-2.39-0.96-4.18-2.63-5.5-4.81
		c-1.62-2.66-2.32-5.54-1.96-8.65c0.4-3.42,1.77-6.36,4.35-8.7c0.44-0.4,0.46-0.4,0.82,0.1c0.73,1.01,1.44,2.03,2.18,3.04
		c0.27,0.37,0.37,0.38,0.75,0.13c0.53-0.35,1.07-0.7,1.65-0.97c1.64-0.78,3.36-1.14,5.18-1.06c1.33,0.06,2.57,0.4,3.73,1.04
		c1.17,0.65,2.12,1.56,2.84,2.69c0.18,0.27,0.39,0.43,0.73,0.47c1.29,0.17,2.59,0.31,3.88,0.5c0.54,0.08,1.09,0.16,1.64,0.23
		c0.42,0.05,0.54-0.1,0.44-0.5c-0.02-0.08-0.05-0.17-0.08-0.25c-0.44-1.37-1.12-2.63-1.9-3.85c6.82,4.19,15.16,1.31,18.3-5.26
		C176.54,44.71,173.92,37.17,167.55,34.09z M98.22,52.85c-1.67,4.31-4.88,6.57-9.45,6.96c-0.3,0.03-0.61,0.04-0.86,0.05
		c-3.4-0.08-6.41-1.1-8.89-3.38c-3.13-2.88-4.03-6.48-3.06-10.54c1.15-4.82,4.18-8.05,8.75-9.89c0.27-0.11,0.41-0.09,0.59,0.18
		c1.36,2.07,3.26,3.41,5.67,4.02c2.17,0.56,4.08,1.57,5.59,3.24C99.06,46.26,99.56,49.41,98.22,52.85z M112.22,42.16
		c-1.42-0.01-2.72-0.97-2.78-2.84c-0.04-1.44,1.25-2.67,2.75-2.68c1.52-0.01,2.77,1.22,2.78,2.75
		C114.98,40.91,113.74,42.16,112.22,42.16z M140.6,45.64c-1.53-0.01-2.76-1.25-2.75-2.78c0.01-1.52,1.25-2.75,2.78-2.74
		c1.53,0.01,2.75,1.25,2.74,2.78C143.36,44.43,142.13,45.65,140.6,45.64z M146.66,50.25c1.21-1.03,2.1-2.21,2.75-3.59
		c0.23,2.09,0.89,4.03,1.99,5.84C149.93,51.57,148.41,50.75,146.66,50.25z M162.04,51.4c-3.2,0.02-5.83-2.59-5.85-5.81
		c-0.02-3.21,2.58-5.86,5.78-5.88c3.22-0.02,5.88,2.58,5.9,5.76C167.88,48.76,165.3,51.39,162.04,51.4z"/>
	<path class="st4" d="M136.98,61.53c4.54,0.15,9.06,0.45,13.57,0.95c6.15,0.69,12.24,1.73,18.26,3.16c1.57,0.37,2.62,1.4,3.05,2.96
		c0.44,1.6-0.44,2.8-2.1,2.93c-0.83,0.07-1.65-0.03-2.44-0.31c-6.6-2.3-13.35-3.98-20.25-5.09c-5.11-0.82-10.25-1.34-15.43-1.55
		c-0.33-0.01-0.42-0.09-0.38-0.42c0.09-0.78,0.2-1.55,0.4-2.31c0.07-0.27,0.19-0.33,0.45-0.33
		C133.73,61.53,135.36,61.53,136.98,61.53z"/>
	<path class="st4" d="M127.7,57.2c-2.05-0.21-4.06-0.43-6.06-0.63c-0.23-0.02-0.28-0.11-0.25-0.33c0.26-2.37,0.51-4.75,0.76-7.13
		c0.28-2.59,0.55-5.18,0.83-7.77c0.13-1.19,0.26-2.39,0.37-3.59c0.02-0.22,0.11-0.36,0.32-0.46c1.25-0.64,2.49-1.29,3.72-1.95
		c0.17-0.09,0.3-0.12,0.47-0.02c0.72,0.39,1.45,0.78,2.19,1.15c0.22,0.11,0.24,0.24,0.22,0.45c-0.34,3.09-0.67,6.19-1,9.28
		c-0.3,2.82-0.6,5.64-0.9,8.47c-0.08,0.71-0.15,1.41-0.23,2.12C128.09,57.23,128.08,57.23,127.7,57.2z"/>
	<path class="st4" d="M123.67,61.8c0.63,0.02,0.63,0.02,0.54,0.67c-0.02,0.13-0.01,0.25-0.02,0.38c0.03,0.02,0.04,0.03,0.03,0.04
		c-0.01,0.01-0.02,0.01-0.04,0.01c-0.11,0.38-0.14,0.77-0.14,1.16c0,0.34-0.14,0.4-0.43,0.4c-1.93,0.03-3.85,0.09-5.78,0.19
		c-3.57,0.19-7.14,0.51-10.69,0.96c-5.45,0.68-10.84,1.67-16.17,2.96c-5.47,1.32-10.84,2.97-16.09,5c-0.08,0.03-0.16,0.05-0.25,0.08
		c-0.08,0.04-0.12,0-0.14-0.08c0.13-0.34,0.49-0.23,0.72-0.37c1.8-0.75,3.59-1.53,5.41-2.22c7.5-2.86,15.2-5.01,23.08-6.57
		c4.52-0.89,9.07-1.58,13.65-2.06C119.46,62.13,121.57,61.98,123.67,61.8z"/>
	<path class="st4" d="M176.87,31.06c-0.49-1.36-1.79-2.12-3.23-1.87c-1.3,0.22-2.29,1.42-2.3,2.77c-0.01,1.4,0.99,2.58,2.35,2.81
		c1.41,0.23,2.71-0.54,3.19-1.88c0.04-0.1,0-0.24,0.13-0.31c0-0.41,0-0.81,0-1.22C176.87,31.3,176.91,31.16,176.87,31.06z
		 M174.17,34.52c-1.4,0-2.54-1.14-2.54-2.54c0-1.39,1.14-2.54,2.54-2.54c1.4,0,2.55,1.12,2.57,2.51
		C176.75,33.36,175.58,34.52,174.17,34.52z"/>
	<path class="st4" d="M175.15,32.8c-0.42,0.09-0.51-0.3-0.76-0.52c0.52-0.29,0.67-0.58,0.56-0.98c-0.13-0.47-0.49-0.56-0.91-0.54
		c-0.13,0.01-0.26,0.01-0.39,0c-0.22-0.02-0.31,0.04-0.3,0.28c0.02,0.59,0,1.18,0.01,1.78c0,0.12-0.05,0.27,0.17,0.28
		c0.22,0.01,0.16-0.14,0.18-0.26c0.04-0.2-0.13-0.5,0.1-0.57c0.26-0.09,0.34,0.25,0.49,0.41c0.1,0.1,0.19,0.22,0.3,0.32
		c0.15,0.14,0.34,0.15,0.53,0.11c0.1-0.02,0.16-0.07,0.15-0.17C175.26,32.86,175.27,32.77,175.15,32.8z M174.02,31.97
		c-0.44,0.03-0.29-0.27-0.32-0.48c-0.03-0.25-0.04-0.45,0.33-0.42c0.32,0.02,0.6,0.06,0.59,0.45
		C174.62,31.9,174.34,31.95,174.02,31.97z"/>
</g>
</svg>
