<svg height="512pt" viewBox="0 -5 512 512" width="512pt" xmlns="http://www.w3.org/2000/svg"><path d="m133.25 96.03125s-53.171875-80.53125-53.171875-80.53125c-6.226563-9.566406-17.441406-15.5-28.828125-15.5-3.171875 0-6.371094.441406-9.488281 1.328125-3.121094.902344-6.160157 2.25-9.03125 4.082031-16.261719 10.359375-20.878907 32.039063-10.261719 48.128906l54.070312 81.902344zm0 0"/><path d="m238.03125 254.699219-88.242188-133.628907-56.710937 39.410157 103.582031 156.871093zm0 0"/><path d="m315.339844 371.789062-41.371094 62.640626 44.171875 66.890624h98.007813v-116.140624h-91.96875zm0 0"/><path d="m447.558594 385.179688h-1.410156v116.140624h65.851562v-51.691406c0-35.589844-28.851562-64.449218-64.441406-64.449218zm0 0"/><path d="m0 449.628906v51.691406h82.609375v-116.140624h-18.167969c-35.589844 0-64.441406 28.859374-64.441406 64.449218zm0 0"/><path d="m187.820312 385.179688h-75.210937v116.140624h81.25l225.410156-341.371093-56.710937-39.410157zm0 0"/><path d="m479.269531 5.410156c-5.738281-3.660156-12.167969-5.410156-18.519531-5.410156-11.210938 0-22.199219 5.460938-28.828125 15.5l-52.820313 80 56.707032 39.398438 53.722656-81.359376c10.617188-16.089843 6-37.769531-10.261719-48.128906zm0 0"/></svg>