<svg height="511pt" viewBox="-6 0 511 511.99915" width="511pt" xmlns="http://www.w3.org/2000/svg"><path d="m310.167969 305.636719c3.324219 3.082031 8.515625 2.890625 11.597656-.429688l6.875-7.40625-16.5625-7.261719-3.058594 4.394532c-2.304687 3.304687-1.886719 7.882812 1.148438 10.703125zm0 0"/><path d="m489.828125 80.726562c-11.753906-8.183593-27.917969-5.292968-36.105469 6.460938l-92.9375 133.429688 16.667969 7.304687c3.773437 1.65625 7.171875 3.808594 10.171875 6.335937 111.78125-120.546874 106.695312-114.601562 108.664062-117.425781 8.1875-11.753906 5.292969-27.917969-6.460937-36.105469zm0 0"/><path d="m303.429688 19.050781c-27.660157-8.597656-57.058594 6.851563-65.660157 34.515625-8.601562 27.664063 6.851563 57.058594 34.515625 65.660156 27.660156 8.601563 57.058594-6.851562 65.660156-34.511718 8.601563-27.664063-6.851562-57.0625-34.515624-65.664063zm0 0"/><path d="m370.210938 244.4375-86.230469-37.800781-54.613281-58.019531 57.414062 39.558593 57.960938 25.40625 23.96875-41.425781-71.148438-6.757812-31.433594-17.128907c-2.382812-11.578125-10.230468-21.832031-21.941406-26.785156l-20.136719-8.507813c-40.488281-17.113281-87.054687 3.910157-100.953125 45.65625-46.824218 141.300782-45.664062 135.46875-46.417968 141.308594-2.65625 9.988282-.117188 21.078125 7.65625 28.972656l54.402343 55.226563-123.207031 71.5625c-14.417969 8.375-19.316406 26.847656-10.941406 41.265625 8.386718 14.441406 26.871094 19.304688 41.261718 10.941406l156.875-91.117187c17.03125-9.890625 20.179688-33.238281 6.34375-47.285157l-23.796874-24.160156 1.347656.164063 77.339844 35.496093 48.65625 112.757813c6.628906 15.359375 24.417968 22.339844 39.679687 15.753906 15.304687-6.605469 22.359375-24.367187 15.753906-39.675781l-53.25-123.394531c-2.953125-6.851563-8.34375-12.363281-15.125-15.476563l-86.828125-39.851562 20.011719-47.351563-33.863281-58.070312 53.699218 57.046875c2.191407 2.328125 4.832032 4.191406 7.761719 5.476562l90.667969 39.746094c12.070312 5.292969 26.058594-.25 31.308594-12.222656 5.269531-12.019532-.203125-26.035156-12.222656-31.308594zm0 0"/><path d="m422.792969 56.324219c15.550781 0 28.160156-12.609375 28.160156-28.164063 0-15.550781-12.609375-28.160156-28.160156-28.160156-15.554688 0-28.160157 12.609375-28.160157 28.160156 0 15.554688 12.605469 28.164063 28.160157 28.164063zm0 0"/></svg>