<svg xmlns="http://www.w3.org/2000/svg" width="24" height="24" viewBox="0 0 24 24">
  <g fill="#C1C1C1">
    <rect width="1.972" height="17.805" y="6.047"/>
    <rect width="1.972" height="17.805" x="21.767" y="6.047"/>
    <path d="M20.7813953,10.0093023 L20.7813953,8.0372093 L2.97674419,8.0372093 L2.97674419,10.0093023 L4.94883721,10.0093023 L4.94883721,11.9813953 L2.97674419,11.9813953 L2.97674419,13.9534884 L4.94883721,13.9534884 L4.94883721,15.9255814 L2.97674419,15.9255814 L2.97674419,17.8976744 L20.7813953,17.8976744 L20.7813953,15.944186 L18.8093023,15.944186 L18.8093023,13.972093 L20.7813953,13.972093 L20.7813953,12 L18.8093023,12 L18.8093023,10.0093023 L20.7813953,10.0093023 Z M10.8837209,12 L10.8837209,10.0093023 L12.855814,10.0093023 L12.855814,11.9813953 L10.8837209,11.9813953 L10.8837209,12 Z M12.8744186,13.972093 L12.8744186,15.944186 L10.8837209,15.944186 L10.8837209,13.972093 L12.8744186,13.972093 Z M6.92093023,10.0093023 L8.89302326,10.0093023 L8.89302326,11.9813953 L6.92093023,11.9813953 L6.92093023,10.0093023 Z M6.92093023,13.972093 L8.89302326,13.972093 L8.89302326,15.944186 L6.92093023,15.944186 L6.92093023,13.972093 Z M16.8186047,15.944186 L14.8465116,15.944186 L14.8465116,13.972093 L16.8186047,13.972093 L16.8186047,15.944186 L16.8186047,15.944186 Z M16.8186047,12 L14.8465116,12 L14.8465116,10.0093023 L16.8186047,10.0093023 L16.8186047,12 L16.8186047,12 Z"/>
    <circle cx="16.819" cy="3.088" r="2.977"/>
  </g>
</svg>
