<?xml version="1.0" encoding="iso-8859-1"?>
<!-- Generator: Adobe Illustrator 19.0.0, SVG Export Plug-In . SVG Version: 6.00 Build 0)  -->
<svg version="1.1" id="Capa_1" xmlns="http://www.w3.org/2000/svg" xmlns:xlink="http://www.w3.org/1999/xlink" x="0px" y="0px"
	 viewBox="0 0 512 512" style="enable-background:new 0 0 512 512;" xml:space="preserve">
<g>
	<g>
		<path d="M441.95,91.701l-22.925-22.925V0l-71.323,73.871l-5.094,58.587l-73.871,73.871c-5.095,0-7.642,0-12.736,0
			c-28.02,0-50.945,22.925-50.945,50.945c0,28.02,22.925,50.945,50.945,50.945s50.945-22.925,50.945-50.945
			c0-5.094,0-7.642-2.547-12.736l73.871-73.871l58.587-5.095l73.871-73.871H441.95z"/>
	</g>
</g>
<g>
	<g>
		<path d="M393.552,193.592h-2.547l-35.662,38.209c2.547,7.642,2.547,17.831,2.547,25.473c0,56.04-45.851,101.891-101.891,101.891
			s-101.891-45.851-101.891-101.891S199.96,155.383,256,155.383c10.189,0,17.831,2.547,25.473,2.547l38.209-38.209v-2.547
			c-20.378-7.642-40.756-12.736-63.682-12.736c-84.06,0-152.836,68.776-152.836,152.836S171.94,410.109,256,410.109
			s152.836-68.776,152.836-152.836C408.836,234.348,403.741,213.97,393.552,193.592z"/>
	</g>
</g>
<g>
	<g>
		<path d="M487.801,152.836l-38.209,35.662c5.095,20.378,10.189,43.304,10.189,68.776c0,112.08-91.701,203.781-203.781,203.781
			S52.219,369.353,52.219,257.274S143.92,53.493,256,53.493c22.925,0,45.851,5.095,68.776,12.736v-2.547l38.209-38.209
			C329.871,10.189,294.209,2.547,256,2.547C115.9,2.547,1.274,117.174,1.274,257.274S115.9,512,256,512
			s254.726-114.627,254.726-254.726C510.726,219.065,503.085,183.403,487.801,152.836z"/>
	</g>
</g>
<g>
</g>
<g>
</g>
<g>
</g>
<g>
</g>
<g>
</g>
<g>
</g>
<g>
</g>
<g>
</g>
<g>
</g>
<g>
</g>
<g>
</g>
<g>
</g>
<g>
</g>
<g>
</g>
<g>
</g>
</svg>
