<svg xmlns="http://www.w3.org/2000/svg" xmlns:xlink="http://www.w3.org/1999/xlink" width="24" height="24" viewBox="0 0 24 24">
  <g fill="none" fill-rule="evenodd">
    <g fill="#9A9A9A" fill-rule="nonzero" transform="translate(0 6)">
      <path d="M3.07734048 9.39172118L3.03017694 9.37975335C2.89531367 9.34648794 2.32240214 9.19386595 1.68295979 8.91918499L1.68295979 10.0025952C1.68295979 10.2544987 1.88692761 10.4585308 2.13850938 10.4585308L3.01209651 10.4585308C3.26406434 10.4585308 3.46803217 10.2544987 3.46803217 10.0025952L3.46803217 9.39172118 3.1261126 9.39172118 3.07734048 9.39172118zM7.11448794 10.9144021C7.36600536 10.9144021 7.57035925 10.7104343 7.57035925 10.4589169L7.57035925 9.39210724 5.78541555 9.39210724 5.78541555 10.4589169C5.78541555 10.7104343 5.98938338 10.9144021 6.24096515 10.9144021L7.11448794 10.9144021zM18.0541126 9.54665952C18.30563 9.54665952 18.5096622 9.34269169 18.5096622 9.09110992L18.5096622 8.12641287C17.9265845 7.9764933 17.330059 7.89381233 16.7246542 7.88531903L16.7246542 9.09110992C16.7246542 9.34269169 16.929008 9.54665952 17.1805255 9.54665952L18.0541126 9.54665952zM22.612118 9.54665952L22.612118 8.63871314C22.3493405 8.65956032 22.0812225 8.67352279 21.8038391 8.67352279 21.4495657 8.67352279 21.121866 8.65576408 20.8271099 8.6306059L20.8271099 9.54665952C20.8271099 9.79817694 21.0310777 10.0022091 21.2829812 10.0022091L22.1565684 10.0022091C22.4080858 10.0029812 22.612118 9.79894906 22.612118 9.54665952z"/>
      <path d="M1.68295979,8.48454692 C2.42245576,8.81951743 3.12604826,8.99607507 3.12604826,8.99607507 L3.46796783,8.99607507 L5.78541555,8.99607507 L7.57042359,8.99607507 L11.6346595,8.99607507 C11.6346595,8.99607507 13.7434424,7.48504021 16.6207399,7.48504021 C16.6550992,7.48504021 16.6902306,7.48729223 16.7246542,7.48729223 C17.2944772,7.49462735 17.8926113,7.56186595 18.5096622,7.71139946 C18.8650295,7.79794102 19.2263807,7.90957641 19.5922359,8.05524933 C19.5922359,8.05524933 20.0875496,8.16920107 20.8266595,8.23450938 C21.1195496,8.25998928 21.4495657,8.27864879 21.8034531,8.27864879 C22.0623056,8.27864879 22.3343485,8.2658445 22.6117319,8.24235925 C23.0043539,8.20986595 23.4076568,8.153437 23.8083861,8.05531367 C23.8083861,8.05531367 24.662992,3.22610188 22.4978445,1.15611796 C21.9352922,0.618530831 21.7033995,0.419517426 21.6130617,0.419517426 C21.3542091,0.419517426 22.238992,2.03453083 19.8770831,2.03453083 C16.6864987,2.03453083 15.2843324,1.55408043 14.3570831,0.419517426 C14.1565898,0.174176944 13.7844933,0.0629276139 13.2791421,0.0629276139 C12.5269062,0.0629276139 11.4770831,0.311742627 10.2627346,0.732482574 C10.8557855,0.9689437 11.3646756,1.42037534 11.7096836,2.1021555 C11.9391314,2.55635389 11.2564504,2.9572118 11.0265523,2.50127614 C10.4732654,1.40686327 9.49923861,1.1458874 8.44832172,1.44225201 C9.1402681,1.6466059 9.73801609,2.1237748 10.1270992,2.89344772 C10.3565469,3.34764611 9.67386595,3.74850402 9.44396783,3.29256836 C8.85432708,2.12628418 7.78648794,1.9058445 6.65713673,2.29885255 C7.26955496,2.53029491 7.79575335,2.98558713 8.14893298,3.68435389 C8.37844504,4.13855228 7.69576408,4.53915282 7.46580161,4.08347453 C6.97589276,3.11408043 6.15526005,2.80034316 5.2442252,2.9467882 C3.94179088,3.6178874 2.63350134,4.35526005 1.4169008,5.10698123 C-1.16963003,6.70571582 0.317855228,7.86595174 1.68295979,8.48454692 Z"/>
    </g>
  </g>
</svg>
