<svg xmlns="http://www.w3.org/2000/svg" width="24" height="24" viewBox="0 0 24 24">
  <g fill="#9A9A9A">
    <path d="M2.07769777 11.3514404L1.52178956 10.7957153 2.51715089 9.80035402 3.67675781 10.9599609C4.20007322 10.7902222 4.71002198 10.5823974 5.20294191 10.3374023L4.31561278 9.45007322 5.31079102 8.45471194 6.46160888 9.6055298C6.88293459 9.32281495 7.28741456 9.00988772 7.67303466 8.66821289L6.62933348 7.62469481 7.62469481 6.62933348 8.66821289 7.67303466C9.00988772 7.28741456 9.32281495 6.88293459 9.60571289 6.46160887L8.45489503 5.31079102 9.45007322 4.31542969 10.3374023 5.20275881C10.5823974 4.71002198 10.7900391 4.20007322 10.9599609 3.67657472L9.80035402 2.51715089 10.7957153 1.52178956 11.3514404 2.07751462C11.4658814 1.39892578 11.5198974.704223656 11.5100098-1.77635684e-15 8.48583984.120483375 5.65979006 1.35461428 3.50720213 3.50720212 1.35461428 5.65997316.120483375 8.48583984 1.42108547e-14 11.5101929.70440675 11.5200806 1.39892578 11.4660645 2.07769777 11.3514404zM23.8363037 12.4883423C23.1879272 12.4883423 22.5481567 12.5425415 21.9221191 12.6481934L22.4470825 13.1731568 21.4517212 14.1685181 20.3232422 13.0400391C19.7999268 13.2097778 19.2901612 13.4177857 18.7974243 13.6629638L19.6534424 14.5187988 18.658081 15.5141602 17.5380249 14.394104C17.1166992 14.6768189 16.7125854 14.9901123 16.3269653 15.3317871L17.3395386 16.3443604 16.3441772 17.3395386 15.3317871 16.3269653C14.9901123 16.7125854 14.677185 17.1170654 14.3942871 17.5385742L15.5141602 18.6582642 14.5187988 19.6534424 13.6625977 18.7972412C13.4176026 19.289978 13.2097778 19.7999268 13.0400391 20.3234253L14.1685181 21.4519043 13.1731567 22.4470825 12.6485596 21.9224854C12.5341186 22.6012573 12.4801026 23.2957763 12.4899902 24 15.5141602 23.8795166 18.3402099 22.6455689 20.4927979 20.4927979 22.6455689 18.3400268 23.8795166 15.5141602 24 12.4898071 23.9454346 12.4888916 23.8908691 12.4883423 23.8363037 12.4883423L23.8363037 12.4883423z"/>
    <path d="M11.4624023,20.7363281 L10.1187744,19.3925171 L11.1139526,18.3973388 L11.9425049,19.2258911 C11.953125,19.1984253 11.9631958,19.1705933 11.973999,19.1433105 C12.1627808,18.6657715 12.3795776,18.2034302 12.6220093,17.7562866 L11.4644165,16.5986939 L12.4595948,15.6035156 L13.3828125,16.5267334 C13.6744995,16.1107178 13.9920044,15.7113647 14.3345948,15.3297729 L13.2897949,14.2849732 L14.2849732,13.2896118 L15.329956,14.3345948 C15.7115479,13.9918213 16.1109009,13.6744995 16.5269165,13.3826294 L15.6036987,12.4595948 L16.598877,11.4642334 L17.7564698,12.6218262 C18.2036133,12.3793945 18.6659546,12.1627807 19.1433105,11.973999 C19.1707763,11.9631958 19.1986084,11.953125 19.2260742,11.9425049 L18.3973388,11.1139526 L19.3927002,10.1185913 L20.7363281,11.4624023 C21.7910156,11.197998 22.8751831,11.0705566 23.9761963,11.0822754 C23.7612305,8.2199707 22.5437622,5.55798338 20.4927979,3.50720213 C18.4420166,1.45642088 15.7800293,0.238769531 12.9177246,0.0239868281 C12.9294434,1.12518309 12.8018189,2.20935056 12.5375977,3.26367188 L13.8502808,4.57635497 L12.8549194,5.5715332 L12.0574951,4.77410888 C12.0466919,4.80157472 12.0368042,4.82922366 12.0258179,4.85668945 C11.8372193,5.33422852 11.6204224,5.79638672 11.3779907,6.24353025 L12.5046387,7.36999509 L11.5092773,8.36535647 L10.6171875,7.47326663 C10.3255005,7.88909911 10.0079956,8.28845213 9.66540525,8.67022706 L10.6790771,9.68389894 L9.68389894,10.6792603 L8.67022706,9.66540525 C8.28845213,10.0079956 7.88909911,10.3255005 7.47326663,10.6171875 L8.36517333,11.5092773 L7.36999509,12.5046387 L6.24353025,11.3779907 C5.79638672,11.6204224 5.33404542,11.8372193 4.85668945,12.0258179 C4.82922366,12.0366211 4.80157472,12.0466919 4.77410888,12.0574951 L5.5715332,12.8549194 L4.57635497,13.8500977 L3.26367188,12.5374146 C2.25347902,12.7906494 1.21600341,12.9191895 0.162597656,12.9191895 C0.116271984,12.9191895 0.0701294063,12.918457 0.0239868281,12.9179077 C0.238952625,15.7802124 1.45642088,18.4420166 3.50720213,20.4927979 C5.55798338,22.5435791 8.2199707,23.7612305 11.0822754,23.9760132 C11.0707397,22.8748169 11.1981811,21.7908325 11.4624023,20.7363281 L11.4624023,20.7363281 Z"/>
  </g>
</svg>
