<svg xmlns="http://www.w3.org/2000/svg" width="24" height="24" viewBox="0 0 24 24">
  <path fill="#9A9A9A" d="M22.9771313,154.968765 L19.0310303,151.022664 C18.3309899,150.322624 17.3816566,149.961897 16.3581414,150.00319 C15.2403232,150.049654 14.1709899,150.582341 13.424404,151.464604 L9.75054545,155.806422 C9.13260606,156.536685 8.71894949,157.385412 8.41826263,158.257008 C7.76654545,160.146058 5.4969697,165.697331 5.4969697,165.697331 L0.581090909,170.613291 C0.20630303,170.987917 -2.84217094e-14,171.486099 -2.84217094e-14,172.016038 C-2.84217094e-14,172.545897 0.20630303,173.043998 0.581010101,173.418705 L0.581090909,173.418786 C0.95579798,173.793493 1.45389899,173.999796 1.98375758,173.999796 C2.51369697,173.999796 3.01187879,173.793493 3.38650505,173.418786 L8.30254545,168.502745 C8.30254545,168.502745 13.8538182,166.233169 15.7428687,165.581452 C16.6143838,165.280765 17.4631111,164.867109 18.1933737,164.249169 L22.5352727,160.575311 C23.4174545,159.828725 23.9501414,158.759392 23.9966061,157.641573 C24.0391919,156.618058 23.6770909,155.668806 22.9771313,154.968765 Z M22.4033131,157.575472 C22.3957172,157.757937 22.3654949,157.938462 22.3156364,158.114139 L21.1167677,156.91527 L21.8913939,156.140644 C22.2444444,156.517452 22.4261818,157.02428 22.4033131,157.575472 Z M19.1890909,161.317775 L17.9516768,160.080361 L18.857697,159.174341 L20.1706667,160.487311 L19.1890909,161.317775 Z M17.2751515,159.403836 L16.2737778,158.402462 L17.179798,157.496442 L18.1811717,158.497816 L17.2751515,159.403836 Z M8.05090909,166.88828 L7.11151515,165.948887 L8.55507071,162.27228 C8.83692929,162.988563 9.25923232,163.640442 9.80937374,164.190503 C10.3595152,164.740563 11.0113939,165.162866 11.727596,165.444806 L8.05090909,166.88828 Z M10.6319192,157.278503 L11.6605253,158.307109 L10.7544242,159.21321 L10.0179394,158.476725 C10.1652525,158.063634 10.3699394,157.660402 10.6319192,157.278503 Z M12.061899,155.543553 L13.2429899,156.724644 L12.3369697,157.630583 L11.2314343,156.525048 L12.061899,155.543553 Z M13.5125657,153.829129 L14.8254545,155.142018 L13.9194343,156.048038 L12.6820202,154.810705 L13.5125657,153.829129 Z M14.6417778,152.494664 C14.7501414,152.366664 14.8693333,152.251109 14.9966869,152.148159 L16.4080808,153.559553 L15.5020606,154.465573 L14.1327677,153.09628 L14.6417778,152.494664 Z M12.6084848,164.070583 C12.1371313,163.923594 11.6926869,163.693775 11.2956768,163.380563 L12.4321616,162.244078 L13.4335354,163.245533 L12.6084848,164.070583 Z M14.1101414,163.921897 L14.4252929,164.237048 C14.2053333,164.261614 13.985697,164.270826 13.7679192,164.264038 L14.1101414,163.921897 Z M10.6191515,162.704038 C10.3059394,162.307028 10.076202,161.862583 9.92921212,161.391311 L10.7543434,160.566179 L11.7557172,161.567553 L10.6191515,162.704038 Z M11.4308687,159.889654 L12.3369697,158.983553 L13.3383434,159.984927 L12.4322424,160.891028 L11.4308687,159.889654 Z M13.0134949,158.307109 L13.9195152,157.401089 L14.9208889,158.402462 L14.0148687,159.308482 L13.0134949,158.307109 Z M14.5959596,156.724644 L15.5019798,155.818624 L16.5033535,156.819998 L15.5973333,157.725937 L14.5959596,156.724644 Z M16.1785051,155.142099 L17.0845253,154.236078 L18.085899,155.237452 L17.1798788,156.143472 L16.1785051,155.142099 Z M10.077899,159.889654 L9.73567677,160.231876 C9.72888889,160.014099 9.73810101,159.794462 9.76274747,159.574503 L10.077899,159.889654 Z M15.5230707,163.981856 L14.7865859,163.245371 L15.6926869,162.33927 L16.7212929,163.367876 C16.3393939,163.629856 15.9361616,163.834543 15.5230707,163.981856 Z M14.1101414,162.568927 L13.1087677,161.567553 L14.0148687,160.661452 L15.0162424,161.662826 L14.1101414,162.568927 Z M14.6913131,159.984927 L15.5973333,159.078907 L16.5987071,160.08028 L15.6926869,160.986301 L14.6913131,159.984927 Z M17.8563232,156.819917 L18.7623434,155.913897 L19.7637172,156.91527 L18.857697,157.821291 L17.8563232,156.819917 Z M19.4388687,155.237371 L20.2147071,154.461533 L21.2160808,155.462907 L20.4402424,156.238745 L19.4388687,155.237371 Z M19.5381818,153.785089 L18.7623434,154.560927 L17.7609697,153.559553 L18.5368081,152.783715 L19.5381818,153.785089 Z M16.4243232,151.596482 C16.4553535,151.59519 16.4863838,151.594543 16.5171717,151.594543 C17.032404,151.594543 17.5036768,151.775149 17.8593131,152.108321 L17.0846061,152.883028 L15.8857374,151.684159 C16.0613333,151.634381 16.2418586,151.604078 16.4243232,151.596482 Z M2.25882828,172.29119 C2.15967677,172.390341 2.0439596,172.405129 1.98375758,172.405129 C1.92355556,172.405129 1.80775758,172.390341 1.70868687,172.29119 C1.70868687,172.291109 1.70868687,172.291109 1.70860606,172.291109 C1.60945455,172.191957 1.59466667,172.07624 1.59466667,172.016038 C1.59466667,171.955836 1.60945455,171.840038 1.70868687,171.740967 L6.17842424,167.27123 L6.72864646,167.821452 L2.25882828,172.29119 Z M17.4747475,162.768361 L16.3692121,161.662826 L17.2752323,160.756806 L18.4563232,161.937897 L17.4747475,162.768361 Z M21.5052121,159.358018 L20.903596,159.867109 L19.5342222,158.497735 L20.4402424,157.591715 L21.8516364,159.003109 C21.7486869,159.130462 21.6332121,159.249735 21.5052121,159.358018 Z" transform="translate(0 -150)"/>
</svg>
