<svg height="511pt" viewBox="0 -5 511.99924 511" width="511pt" xmlns="http://www.w3.org/2000/svg"><path d="m118.757812 422.34375-43.605468 47.355469c-3.175782 3.449219-6.800782 6.230469-10.699219 8.355469 6.777344 13.410156 20.671875 22.609374 36.722656 22.609374 22.71875 0 41.132813-18.414062 41.132813-41.132812 0-16.425781-9.632813-30.597656-23.550782-37.1875zm0 0"/><path d="m151.882812.503906c-23.476562-.371094-42.808593 18.359375-43.179687 41.835938-.371094 23.472656 18.359375 42.804687 41.835937 43.175781 23.472657.371094 42.804688-18.359375 43.175782-41.832031.371094-23.476563-18.359375-42.808594-41.832032-43.179688zm0 0"/><path d="m194.773438 261.960938.355468-23.421876-10.402344-.886718c-14.949218-1.273438-27.09375-12.355469-29.765624-21.96875l-18.828126-67.789063 34.746094 63.367188c3.0625 5.585937 8.75 9.375 15.25 9.929687 81.640625 6.953125 78.421875 6.601563 78.324219 6.601563 9.96875 0 18.320313-7.640625 19.171875-17.625.898438-10.558594-6.914062-19.917969-17.554688-20.828125-5.996093-.507813-62.816406-5.347656-66.382812-5.652344l-31.460938-57.382812 28.144532 29.808593.4375-28.941406c.238281-15.820313-12.441406-28.8125-28.261719-28.960937-17.09375-.15625-37.785156-.347657-52.144531-.421876-6.875-.035156-13.640625 1.644532-19.703125 4.882813l-65.484375 34.984375c-4.742188 2.535156-8.210938 6.9375-9.566406 12.144531l-21.023438 80.882813c-2.675781 10.296875 3.5 20.808594 13.792969 23.488281 10.285156 2.671875 20.808593-3.492187 23.484375-13.792969l18.90625-72.71875 30.984375-16.554687c-.144531 9.351562-1.714844 113.648437-1.714844 113.648437l8.109375 87.066406-67.472656 73.277344c-9.066406 9.84375-8.433594 25.167969 1.410156 34.234375 9.816406 9.039063 25.144531 8.457031 34.234375-1.414062l75.023437-81.476563c4.792969-5.207031 7.074219-12.25 6.234376-19.277344l-9.003907-75.578124 17.546875.277343 8.726563 73.242188c.503906 4.238281.335937 8.476562-.433594 12.585937l-1.476563 107.566406c-.175781 12.929688 9.472657 24.035157 22.335938 25.320313.71875.070313 1.300781.089844 1.886719.089844 13.222656 0 24.035156-10.628907 24.21875-23.894531l1.578125-114.9375c.015625-1.277344-.066406-2.554688-.25-3.820313zm0 0"/><path d="m423.261719 64.546875c-.371094-23.621094-19.824219-42.46875-43.445313-42.09375-23.621094.371094-42.46875 19.824219-42.09375 43.445313.371094 23.621093 19.824219 42.46875 43.445313 42.097656 23.621093-.375 42.46875-19.828125 42.09375-43.449219zm0 0"/><path d="m506.058594 460.101562-68.277344-80.574218 6.792969-88.207032v-95.398437l17.992187 19.457031v61.09375c0 10.507813 8.171875 19.460938 18.671875 19.832032 11.027344.390624 20.085938-8.429688 20.085938-19.367188v-69.144531c0-4.875-1.835938-9.574219-5.148438-13.15625l-52.722656-56.375c-8.5625-9.15625-20.515625-14.371094-33.050781-14.410157-14.574219-.042968-30.761719-.265624-47.371094-.109374-15.949219.25-28.679688 13.375-28.4375 29.328124l1.148438 76.246094 20.851562-14.582031 13.472656-30.011719-6.738281 41.914063-62.1875 43.5c-8.769531 6.132812-10.90625 18.21875-4.773437 26.988281 6.15625 8.796875 18.246093 10.890625 26.988281 4.773438l68.910156-48.199219c4.296875-3.007813 7.195313-7.628907 8.027344-12.804688l8.042969-50.019531 5.398437 52.179688c1.511719 14.640624-11.769531 19.890624-13.664063 21.796874l-63.125 44.15625c-4.378906 2.816407-7.808593 6.296876-14.835937 8.5l-27.703125 34.589844c-1.226562 1.527344-2.261719 3.199219-3.085938 4.972656l-50.589843 108.945313c-5.671875 12.210937-.367188 26.710937 11.84375 32.378906 12.210937 5.671875 26.707031.367188 32.378906-11.84375l49.347656-106.273437 57.617188-71.933594 5.253906-.085938-9.058594 76.050782c-.800781 6.722656 1.230469 13.476562 5.605469 18.644531l75.496094 89.089844c8.578125 10.125 23.671875 11.523437 33.957031 3.175781 10.632813-8.636719 11.742187-24.667969 2.886719-35.117188zm0 0"/></svg>