<svg xmlns="http://www.w3.org/2000/svg" width="24" height="24" viewBox="0 0 24 24">
	<path fill="#9A9A9A" d="M22.8134263,9.69822545 C21.9411564,8.8261018 20.7284029,8.44846918 19.5606962,8.56430381 C19.6389431,7.46080343 19.2582391,6.33039198 18.4163904,5.4885433 C17.5637188,4.63587168 16.4150254,4.255899 15.2980694,4.34716265 C15.3083073,4.21904252 15.312695,4.08960607 15.3107937,3.95885335 C15.294998,2.89645086 14.8755363,1.90103356 14.1302164,1.15542122 C12.5895573,-0.385091644 10.0828783,-0.385091644 8.54236545,1.15542122 L8.41526909,1.28251754 L2.380899,15.3072835 L1.31454758,16.3734887 C0.474892755,17.2132898 0.0125780218,18.3295144 0.0125780218,19.5171119 C0.0125780218,20.7045632 0.474892755,21.8207878 1.31454758,22.6605889 C2.15420241,23.5002438 3.2705733,23.9625585 4.45817081,23.9625585 C5.64562207,23.9625585 6.76184671,23.5002438 7.60150158,22.6605889 L8.56211,21.6999805 L22.6907176,15.4086388 L22.8134263,15.2860764 C24.3537929,13.7455636 24.3537929,11.2387383 22.8134263,9.69822545 Z M21.4898108,11.0216946 C22.2589704,11.7908541 22.2980207,13.0173557 21.6078393,13.8334633 L18.6366517,10.8622757 C19.462266,10.218165 20.7389333,10.2711096 21.4898108,11.0216946 L21.4898108,11.0216946 Z M11.8641283,6.73698324 L10.5783931,8.41921801 L8.34374999,6.18472115 L9.23664195,4.10949686 L11.8641283,6.73698324 Z M13.1994442,8.07215289 L15.8409712,10.7136798 L14.168828,12.0096529 L11.913709,9.75453394 L13.1994442,8.07215289 Z M9.43174727,9.91980303 L4.67565327,16.1434282 L4.24083463,15.7207488 L7.5473869,8.03558894 L9.43174727,9.91980303 Z M6.02808112,17.456367 L10.7670632,11.255119 L12.6773109,13.1653666 L6.52154838,17.9359399 L6.02808112,17.456367 Z M14.0116029,14.4996587 L15.8968409,16.3848966 L8.37373247,19.7348869 L7.87777887,19.2531201 L14.0116029,14.4996587 Z M15.5029739,13.3436525 L17.175117,12.0476794 L19.7821275,14.6548362 L17.7284029,15.569374 L15.5029739,13.3436525 Z M17.092775,6.81215873 C17.8297582,7.54899572 17.8964509,8.70573323 17.2937305,9.519062 L14.3857254,6.61134945 C15.1993467,6.00848282 16.3560842,6.07517549 17.092775,6.81215873 Z M12.806601,2.47903668 C13.5612812,3.23371687 13.6409906,4.44793292 13.0331513,5.25848282 L10.0726404,2.29811817 C10.8872855,1.67375195 12.0615737,1.73415561 12.806601,2.47903668 Z M6.27788612,21.3369735 C5.79187792,21.8232742 5.14557334,22.0909224 4.45802456,22.0909224 C3.77062207,22.0909224 3.12431745,21.8229817 2.63816305,21.3369735 C2.15186232,20.850819 1.88421413,20.2045144 1.88421413,19.5171119 C1.88421413,18.8295632 2.15200856,18.1832586 2.63801676,17.6971041 L3.10676675,17.2286467 L6.79972699,20.8151326 L6.27788612,21.3369735 Z"/>
</svg>
