<svg xmlns="http://www.w3.org/2000/svg" width="24" height="24" viewBox="0 0 24 24">
  <path d="M20.0875293 9.20594259L23.9672863 12.6911593C23.9789227 12.4764344 24 12.2643443 24 12.0467652 23.9991218 9.45250291 23.1512003 6.92915691 21.5853337 4.86072894L20.0875293 9.20594259zM12.6088261 4.16891101L12.6088261 8.12858608 15.6806206 10.1763759 18.9151054 8.92710773 20.6849385 3.79281325C19.5450088 2.58943206 18.1686183 1.63480682 16.6422717.988656337L12.6088261 4.16891101z"/>
  <polygon points="14.922 11.112 12.009 9.17 9.096 11.112 10.08 15.045 13.939 15.045"/>
  <path d="M7.90639638 11.2950088L4.75512292 10.0780153.216481237 14.1549327C.44240341 15.4380123.877561461 16.6752049 1.5043911 17.8173302L6.79983901 17.8173302 8.95169789 15.4762149 7.90639638 11.2950088zM23.8028396 14.1551522L19.2639783 10.0782348 16.1124854 11.2952284 15.0671838 15.4762149 17.2192623 17.8173302 22.5147102 17.8173302C23.1415398 16.6754245 23.5766979 15.4380123 23.8028396 14.1551522L23.8028396 14.1551522zM5.10355678 8.92732727L8.33804156 10.1765954 11.4098361 8.12880562 11.4098361 4.16891101 7.3763905.988875878C5.8500439 1.63502636 4.4736534 2.58965165 3.33372365 3.79303279L5.10355678 8.92732727zM16.2523419 18.5379098L14.1441745 16.2435597 9.87470726 16.2435597 7.76632024 18.5379098 10.0347629 23.8605825C10.6868413 23.9740925 11.3474824 24.0331528 12.0094409 24.0375439 12.6713993 24.0331528 13.3318208 23.9740925 13.9838993 23.8605825L16.2523419 18.5379098zM12.0094409 3.1148273L15.2948624.524956103C13.1493706-.100117096 10.8699502-.100117096 8.72445842.524956103L12.0094409 3.1148273zM17.351654 19.0163202L15.4259368 23.5349824C17.9751903 22.7700527 20.1984046 21.1806938 21.7473653 19.0163202L17.351654 19.0163202zM6.66722777 19.0163202L2.27129682 19.0163202C3.82025761 21.1806938 6.04347193 22.7700527 8.5927254 23.5349824L6.66722777 19.0163202zM3.93135243 9.20594259L2.43354801 4.86072894C.867461958 6.92915691.0195403841 9.45250291.0186621639 12.0467652.0186621639 12.2643443.0399590445 12.4764344.0513758501 12.6911593L3.93135243 9.20594259z"/>
</svg>
