<svg xmlns="http://www.w3.org/2000/svg" width="24" height="24" viewBox="0 0 24 24">
  <g fill="#9A9A9A">
    <circle cx="21.265" cy="20.881" r="2.735"/>
    <path d="M19.5749495 2.87866667C15.7368081-.959636363 9.49155556-.959474747 5.65333333 2.87866667 4.71240404 3.81959596 3.97939394 4.9349899 3.48783838 6.15034343L16.3031919 18.965697C17.5186263 18.4741414 18.6340202 17.7411313 19.5748687 16.800202 23.4131717 12.9621414 23.4131717 6.71680808 19.5749495 2.87866667zM2.80080808 9.0629899C2.63078788 11.2273535 3.18028283 13.3880808 4.35272727 15.1945455L.14569697 19.4017374C-.0485656566 19.5959192-.0485656566 19.9106667.14569697 20.1048485L2.34876768 22.3079192C2.44581818 22.4050505 2.5730101 22.4536162 2.70036364 22.4536162 2.82755556 22.4536162 2.95490909 22.4050505 3.0519596 22.308L7.25915152 18.1008889C9.06569697 19.2734141 11.2260202 19.8227475 13.3907071 19.6528081 13.7629899 19.6235556 14.131798 19.5728889 14.495596 19.502101L2.95151515 7.95810101C2.88072727 8.32189899 2.83006061 8.69070707 2.80080808 9.0629899z"/>
  </g>
</svg>
