<svg xmlns="http://www.w3.org/2000/svg" width="24" height="24" viewBox="0 0 24 24">
  <g fill="#9A9A9A">
    <path d="M19.052059 2.34944512C17.6204001 1.28599593 15.9679468.558119159 14.2169246.220137252 9.50116822 2.57505841 6.06856015 7.38193632 4.91267518 13.2496349 7.36945088 13.3079001 9.77716116 12.749781 11.427205 11.5910485 12.0615508 8.19370621 15.3822284 4.24415888 19.052059 2.34944512zM20.0635952 3.18596669C18.5651284 3.90442464 17.2022488 4.87653331 16.0349737 6.05936041 18.8562354 7.54271321 21.926986 10.7096232 23.505622 15.0541034 24.6792494 10.765479 23.3496641 6.18114779 20.0635952 3.18596669z"/>
    <path d="M16.4130403,16.9212179 C15.3456483,15.1347109 13.8259346,13.661434 12.0072284,12.6498978 C9.96860394,13.890771 7.61521609,14.5172313 5.22962905,14.4539282 C3.48561622,14.4576519 1.7549649,14.1518692 0.118063626,13.5505987 C0.330534449,15.1450059 0.865216093,16.6793955 1.68947136,18.0604556 C6.7059725,19.5685601 13.0404497,19.1317903 16.4130403,16.9212179 L16.4130403,16.9212179 Z"/>
    <path d="M15.1896904 6.97517523C13.979264 8.29972256 13.10441 9.89566295 12.6391647 11.6287237 15.7705899 13.2003505 18.4939398 17.0495765 19.5595794 21.1964807 20.9592581 20.0388435 22.078563 18.5791472 22.833382 16.926913 21.5405957 11.963639 18.167129 8.40792931 15.1896904 6.97517523zM17.0167202 17.9513726C14.765844 19.4040596 11.4486711 20.1606308 7.98123538 20.1606308 6.21115649 20.1544977 4.44742991 19.9501314 2.72291176 19.5514749 6.59491817 24.2823452 13.416764 25.3206045 18.520882 21.9558995 18.2063376 20.5581922 17.7001314 19.2106455 17.0167202 17.9513726zM3.69567757 13.1674941C4.76788839 7.52278037 7.83907705 2.76474886 12.1272634.00854265421 12.0718458.00766648598 12.0181804 7.10542736e-15 11.9625438 7.10542736e-15 5.35886389.00744740187.00722837383 5.35886389 1.59872116e-14 11.9625438 1.59872116e-14 12.0490654.0111711028 12.1327395.0129234393 12.218823 1.18567464 12.718896 2.42720501 13.0386975 3.69567757 13.1674941z"/>
  </g>
</svg>
