<?xml version="1.0" encoding="iso-8859-1"?>
<!-- Generator: Adobe Illustrator 19.0.0, SVG Export Plug-In . SVG Version: 6.00 Build 0)  -->
<svg version="1.1" id="Capa_1" xmlns="http://www.w3.org/2000/svg" xmlns:xlink="http://www.w3.org/1999/xlink" x="0px" y="0px"
	 viewBox="0 0 512 512" style="enable-background:new 0 0 512 512;" xml:space="preserve">
<g>
	<g>
		<path d="M328.697,0c-26.468,0-48,21.532-48,48s21.532,48,48,48s48-21.532,48-48S355.165,0,328.697,0z"/>
	</g>
</g>
<g>
	<g>
		<path d="M406.323,211.375l-54.703-27.359c-3.109-1.563-5.922-3.578-8.329-5.984l-56.656-56.656
			c-6.031-6.031-14.063-9.344-22.625-9.344c-12.221-0.001-22.846,6.577-28.689,18.062c-3.027,5.58-61.102,121.927-63.937,127.61
			c-6.172,12.328-3.75,27.172,6,36.922l45.281,45.281c6.031,6.047,9.344,14.078,9.344,22.609V480c0,17.641,14.359,32,32,32
			c17.641,0,32-14.359,32-32V362.515c0-25.656-9.984-49.765-28.125-67.89l-28.938-28.938l33.828-67.672l25.266,25.266
			c7.281,7.281,15.687,13.344,24.954,17.984l54.703,27.359c15.739,7.869,34.965,1.633,42.938-14.313
			C428.573,238.468,422.114,219.254,406.323,211.375z"/>
	</g>
</g>
<g>
	<g>
		<path d="M183.119,112c-14.813,0-29.671,3.5-42.938,10.125l-50.485,25.25c-15.824,7.894-22.235,27.125-14.313,42.938
			c8.005,16.012,27.307,22.073,42.938,14.313l50.453-25.234c2.586-1.293,4.914-2.035,7.234-2.538
			c28.973-57.918,30.566-60.863,31.203-62.041c0.529-1.041,1.37-1.81,1.948-2.813H183.119z"/>
	</g>
</g>
<g>
	<g>
		<path d="M154.759,317.25c-3.676-3.676-6.306-7.99-8.924-12.287c-3.627,3.967-7.856,7.314-13.107,9.069l-70.844,23.625
			c-16.723,5.54-25.852,23.587-20.235,40.437c5.521,16.602,23.436,25.916,40.468,20.266l70.86-23.61
			c14.045-4.689,26.279-12.653,36.55-22.719L154.759,317.25z"/>
	</g>
</g>
<g>
	<g>
		<path d="M448.009,270.442c-11.203,20.654-32.34,33.574-55.984,33.589c-16.965,0-26.094-5.516-40.827-12.883
			c-4.444,8.709-7.189,18.42-7.189,28.851c0,35.297,28.703,64,64,64c35.297,0,64-28.702,64-63.999
			C472.009,299.913,462.526,282.181,448.009,270.442z"/>
	</g>
</g>
<g>
</g>
<g>
</g>
<g>
</g>
<g>
</g>
<g>
</g>
<g>
</g>
<g>
</g>
<g>
</g>
<g>
</g>
<g>
</g>
<g>
</g>
<g>
</g>
<g>
</g>
<g>
</g>
<g>
</g>
</svg>
