<svg xmlns="http://www.w3.org/2000/svg" width="27" height="24" viewBox="0 0 27 24">
  <g fill="#C1C1C1">
    <circle cx="7.68" cy="8.16" r="4.32"/>
    <circle cx="23.52" cy="6.72" r="1"/>
    <path d="M20.16,9.6 C20.16,13.44 18.048,16.992 14.688,18.864 C19.776,20.304 25.104,17.328 26.544,12.24 C27.984,7.152 25.008,1.824 19.92,0.384 C18.24,-0.096 16.416,-0.096 14.736,0.384 C18.048,2.208 20.16,5.76 20.16,9.6 Z M23.52,5.28 C24.336,5.28 24.96,5.904 24.96,6.72 C24.96,7.536 24.336,8.16 23.52,8.16 C22.704,8.16 22.08,7.536 22.08,6.72 C22.08,5.904 22.704,5.28 23.52,5.28 Z"/>
    <path d="M19.2 9.6C19.2 4.32 14.88 0 9.6 0 4.32 0 0 4.32 0 9.6 0 14.88 4.32 19.2 9.6 19.2 14.88 19.2 19.2 14.928 19.2 9.6zM2.4 8.16C2.4 5.232 4.752 2.88 7.68 2.88 10.608 2.88 12.96 5.28 12.96 8.16 12.96 11.04 10.608 13.44 7.68 13.44L7.68 13.44C4.752 13.44 2.4 11.088 2.4 8.16zM0 22.56L0 23.04C0 23.28.192 23.52.48 23.52L1.92 23.568 1.92 22.08.48 22.08C.192 22.08 0 22.272 0 22.56z"/>
    <polygon points="2.88 23.568 26.88 24 26.88 21.6 2.88 22.032"/>
  </g>
</svg>
