<?xml version="1.0" encoding="iso-8859-1"?>
<!-- Generator: Adobe Illustrator 19.0.0, SVG Export Plug-In . SVG Version: 6.00 Build 0)  -->
<svg version="1.1" id="Layer_1" xmlns="http://www.w3.org/2000/svg" xmlns:xlink="http://www.w3.org/1999/xlink" x="0px" y="0px"
	 viewBox="0 0 512 512" style="enable-background:new 0 0 512 512;" xml:space="preserve">
<g>
	<g>
		<circle cx="350.1" cy="130.326" r="43.327"/>
	</g>
</g>
<g>
	<g>
		<path d="M454.642,230.35H363.41l-90.38-86.357c-10.229-10.017-26.643-9.844-36.66,0.387l-0.22,0.222l19.704,13.001l-71.314-29.594
			c-4.596-1.907-9.778-1.817-14.305,0.25l-83.046,37.924c-8.998,4.109-12.962,14.734-8.853,23.733
			c4.109,8.997,14.732,12.959,23.732,8.852l75.95-34.681l64.105,26.602l-42.853-8.841l-93.147,94.067
			c4.281-0.687,8.643-1.055,13.064-1.055c21.759,0,42.214,8.473,57.6,23.859c5.964,5.965,15.591,5.956,21.546,0
			c16.904-16.903,40.169-25.687,64.933-23.53l45.607-46.579l35.403,32.483c3.273,3.003,7.543,5.138,11.984,5.169h98.13
			c0.043,0,0.085,0,0.127,0c9.834,0,17.839-7.709,17.909-17.557C472.497,238.812,464.533,230.419,454.642,230.35z"/>
	</g>
</g>
<g>
	<g>
		<path d="M507.157,310.409c-6.456-6.457-16.924-6.455-23.38,0c-12.423,12.422-32.636,12.421-45.057,0
			c-25.372-25.375-66.442-25.377-91.819,0c-12.433,12.432-32.48,12.447-44.927,0c-25.335-25.335-66.57-25.377-91.947,0
			c-12.568,12.568-32.671,12.256-44.928,0c-25.202-25.203-66.286-25.534-91.819,0c-6.017,6.017-14.018,9.331-22.528,9.331
			c-8.511,0-16.511-3.314-22.529-9.331c-6.456-6.457-16.925-6.457-23.38,0c-6.456,6.456-6.456,16.924,0,23.38
			c25.315,25.316,66.504,25.314,91.819,0c12.244-12.244,32.268-12.657,44.928,0c25.888,25.891,67.131,24.816,91.947,0
			c12.434-12.433,32.481-12.447,44.928,0c25.331,25.333,66.571,25.377,91.946,0c12.8-12.807,32.824-12.104,44.928,0
			c25.314,25.313,66.504,25.313,91.819,0C513.614,327.334,513.614,316.865,507.157,310.409z"/>
	</g>
</g>
<g>
	<g>
		<path d="M440.175,382.587c-25.374-25.374-66.443-25.376-91.819,0.001c-12.452,12.451-32.602,12.452-45.055,0
			c-25.315-25.314-66.503-25.316-91.819,0c-12.45,12.45-32.603,12.453-45.056,0c-25.313-25.314-66.503-25.316-91.819-0.001
			c-6.456,6.456-6.456,16.925,0,23.382c6.456,6.456,16.924,6.456,23.382,0c12.451-12.451,32.603-12.452,45.057,0
			c25.374,25.374,66.442,25.377,91.818,0c12.422-12.421,32.633-12.422,45.057,0c25.37,25.372,66.443,25.377,91.818,0
			c12.453-12.452,32.603-12.452,45.057,0c6.455,6.456,16.923,6.456,23.381,0C446.632,399.513,446.633,389.044,440.175,382.587z"/>
	</g>
</g>
<g>
</g>
<g>
</g>
<g>
</g>
<g>
</g>
<g>
</g>
<g>
</g>
<g>
</g>
<g>
</g>
<g>
</g>
<g>
</g>
<g>
</g>
<g>
</g>
<g>
</g>
<g>
</g>
<g>
</g>
</svg>
