<svg height="511pt" viewBox="-10 0 511 511.98967" width="511pt" xmlns="http://www.w3.org/2000/svg"><path d="m389.453125 171.027344-93.15625-6.851563-31.09375-16.945312c-2.375-11.539063-10.195313-21.757813-21.871094-26.691407l-20.0625-8.480468c-40.347656-17.050782-86.753906 3.898437-100.605469 45.5-18.214843 55.3125-31.371093 94.597656-40.679687 122.484375-5.507813 16.5-6.160156 34.222656-1.882813 51.082031l15.328126 60.445312-83.628907 66.828126c-12.980469 10.371093-15.09375 29.300781-4.722656 42.277343 10.34375 12.949219 29.269531 15.121094 42.277344 4.722657l98.757812-78.910157c9.214844-7.363281 13.277344-19.429687 10.390625-30.863281l-14.363281-56.910156 35.050781 4.257812 83.847656 38.480469 48.488282 112.367187c6.589844 15.273438 24.300781 22.273438 39.539062 15.699219 15.253906-6.582031 22.285156-24.285156 15.699219-39.539062l-53.0625-122.96875c-2.945313-6.828125-8.3125-12.320313-15.070313-15.421875l-87.339843-40.085938 20.753906-49.101562-33.746094-57.871094 53.515625 56.847656c4.472656 4.753906 10.714844 7.449219 17.242188 7.449219h101.320312c13.277344 0 24.464844-10.867187 24.214844-24.140625-.246094-12.867188-10.753906-23.222656-23.679688-23.222656h-91.625l-50.722656-53.886719 33.6875 23.363281 18.101563 12.550782h90.558593c16.316407 0 30.433594 9.386718 37.265626 23.050781 1.753906-3.011719 2.886718-6.449219 3.15625-10.160157.960937-13.042968-8.835938-24.398437-21.882813-25.355468zm0 0"/><path d="m271.65625 2.355469c-27.566406-8.570313-56.863281 6.828125-65.433594 34.394531-8.570312 27.570312 6.828125 56.863281 34.394532 65.4375 27.566406 8.570312 56.863281-6.828125 65.433593-34.398438 8.570313-27.566406-6.828125-56.859374-34.394531-65.433593zm0 0"/><path d="m454.578125 67.171875c-27.566406-8.570313-56.863281 6.828125-65.433594 34.394531-8.570312 27.566406 6.828125 56.863282 34.394531 65.433594 27.566407 8.570312 56.863282-6.828125 65.433594-34.394531 8.570313-27.566407-6.828125-56.863281-34.394531-65.433594zm0 0"/></svg>