<svg height="423pt" viewBox="0 0 423 423.85563" width="423pt" xmlns="http://www.w3.org/2000/svg"><path d="m2.769531 273.976562c-5.761719 42.902344-.851562 86.5625 14.292969 127.113282 1.085938 2.8125 3.308594 5.039062 6.125 6.121094 29.378906 11.148437 60.558594 16.789062 91.980469 16.640624 11.726562-.082031 23.4375-.890624 35.0625-2.417968zm0 0"/><path d="m250.015625 8.316406c-58.277344 11.140625-112.121094 38.804688-155.117187 79.691406-43.996094 43.882813-74.449219 99.492188-87.734376 160.195313l168.988282 168.980469c60.679687-13.328125 116.253906-43.808594 160.109375-87.816406 40.878906-42.996094 68.539062-96.835938 79.6875-155.109376zm30.160156 181.027344c2.75 2.683594 3.847657 6.636719 2.867188 10.355469-.976563 3.714843-3.878907 6.617187-7.597657 7.597656-3.714843.976563-7.671874-.117187-10.351562-2.871094l-15.085938-15.085937-22.625 22.628906 15.082032 15.085938c2.753906 2.679687 3.847656 6.636718 2.871094 10.351562-.980469 3.71875-3.882813 6.621094-7.597657 7.597656-3.71875.980469-7.671875-.117187-10.355469-2.867187l-15.082031-15.082031-22.628906 22.628906 15.085937 15.089844c2.75 2.683593 3.847657 6.636718 2.867188 10.355468-.980469 3.714844-3.882812 6.617188-7.597656 7.59375-3.714844.980469-7.671875-.113281-10.355469-2.867187l-15.082031-15.085938-15.085938 15.085938c-4.179687 4.078125-10.859375 4.035156-14.988281-.09375-4.128906-4.128907-4.167969-10.808594-.09375-14.988281l15.085937-15.089844-15.085937-15.089844c-4.074219-4.183594-4.035156-10.863281.09375-14.992188 4.128906-4.125 10.808594-4.167968 14.988281-.09375l15.085938 15.089844 22.625-22.628906-15.078125-15.082031c-4.078125-4.179688-4.035157-10.863281.09375-14.988281 4.128906-4.128907 10.808593-4.171876 14.988281-.097657l15.082031 15.085938 22.628907-22.632813-15.085938-15.089844c-4.074219-4.179687-4.035156-10.859374.09375-14.988281 4.128906-4.128906 10.808594-4.171875 14.988281-.09375l15.085938 15.085938 15.082031-15.085938c4.179688-4.078125 10.863281-4.035156 14.988281.09375 4.128907 4.128907 4.171875 10.808594.097657 14.988281l-15.089844 15.089844zm0 0"/><path d="m420.394531 148.535156c6.714844-43.699218 4.695313-88.300781-5.941406-131.214844-.988281-3.648437-3.835937-6.496093-7.476563-7.492187-42.921874-10.640625-87.53125-12.664063-131.242187-5.957031zm0 0"/></svg>