<?xml version="1.0" encoding="iso-8859-1"?>
<!-- Generator: Adobe Illustrator 18.0.0, SVG Export Plug-In . SVG Version: 6.00 Build 0)  -->
<!DOCTYPE svg PUBLIC "-//W3C//DTD SVG 1.1//EN" "http://www.w3.org/Graphics/SVG/1.1/DTD/svg11.dtd">
<svg version="1.1" id="Capa_1" xmlns="http://www.w3.org/2000/svg" xmlns:xlink="http://www.w3.org/1999/xlink" x="0px" y="0px"
	 viewBox="0 0 457.12 457.12" style="enable-background:new 0 0 457.12 457.12;" xml:space="preserve">
<g id="XMLID_67_">
	<path id="XMLID_69_" d="M338.486,166.962c-5.273-5.846-13.306-8.369-20.973-6.588l-55.063,12.787l-35.485-64.303
		c55.231,10.617,51.502,10.018,53.665,10.018c5.619,0,10.934-2.924,13.907-7.863c3.512-5.834,3.011-13.238-1.254-18.545
		l-52.279-65.058c-4.92-6.123-13.372-7.736-20.091-4.267c2.899,10.146,2.6,20.747-0.513,30.469l19.877,24.736l-30.586-5.879
		l-38.237,78.504l25.03-75.77c2.813-8.515-1.81-17.698-10.324-20.511c-8.518-2.815-17.698,1.81-20.511,10.324l-18.876,57.139
		l4.563-35.571c-0.024-0.009-0.048-0.02-0.072-0.029L126.4,100.278c-5.724,3.183-14.945,8.774-13.101,18.669l12.356,73.146
		c1.243,7.357,7.34,12.92,14.78,13.486c7.467,0.562,14.314-4.031,16.648-11.098l1.699-5.144l22.903,44.317V435.47
		c0,11.956,9.693,21.649,21.649,21.649c11.956,0,21.649-9.693,21.649-21.649V226.601c0,0,15.702-3.935,64.243-15.207l-29.073,84.568
		c-3.887,11.307,2.128,23.625,13.435,27.512c11.306,3.888,23.625-2.127,27.512-13.435l41.783-121.538
		C345.443,181.056,343.76,172.808,338.486,166.962z"/>
	<path id="XMLID_68_" d="M154.414,71.581l1.987-9.689c2.905-14.167,16.745-23.297,30.912-20.392
		c7.406,1.518,13.43,6.028,17.083,12.007c4.91-10.513,4.907-23.144-1.128-34.081C196.419,7.014,183.579,0,170.338,0
		c-6.14,0-12.364,1.507-18.12,4.684c-18.168,10.026-24.769,32.882-14.743,51.051C141.46,62.954,147.477,68.332,154.414,71.581z"/>
</g>
<g>
</g>
<g>
</g>
<g>
</g>
<g>
</g>
<g>
</g>
<g>
</g>
<g>
</g>
<g>
</g>
<g>
</g>
<g>
</g>
<g>
</g>
<g>
</g>
<g>
</g>
<g>
</g>
<g>
</g>
</svg>
