<svg xmlns="http://www.w3.org/2000/svg" width="24" height="24" viewBox="0 0 24 24">
	<g fill="#9A9A9A">
		<path d="M15.9067062,16.0408303 C13.7593522,18.0907847 12.6592153,20.9498175 12.8508211,23.9381843 C13.1272811,23.9181113 13.403969,23.888458 13.6813413,23.8494526 C19.1297901,23.0743613 23.3517336,18.6911497 23.9224453,13.2176095 C20.9655566,12.9349909 18.0339872,13.9673814 15.9067062,16.0408303 L15.9067062,16.0408303 Z"/>
		<path d="M19.1982208,2.40624999 C17.1325274,0.844434336 14.6135949,-0.00045620438 12.0239507,-8.29830926e-16 C11.8521898,-8.29830926e-16 11.6804288,0.00410583942 11.5082117,0.0116332263 C11.553604,3.03375912 10.3535584,5.94137775 8.18978102,8.05177921 C6.13845804,10.0485858 3.38640514,11.1624088 0.523722628,11.1541971 C0.363594861,11.1541971 0.203239066,11.1507755 0.0424269781,11.1437044 C-0.0150547153,11.9858576 0.0157390365,12.8318887 0.134580321,13.6678832 C0.97239965,19.5668339 6.01551095,23.955292 11.9737682,23.9703467 C11.9936131,23.9703467 12.0136861,23.9698905 12.0337591,23.9698905 C11.8328011,20.7468065 13.0232665,17.6633212 15.3398722,15.4514142 C17.6327555,13.2180657 20.7903741,12.1031022 23.9771898,12.401916 C24,11.7000456 23.9616788,10.997719 23.8629106,10.3026916 C23.4251825,7.15305658 21.745438,4.3097628 19.1982208,2.40624999 Z"/>
		<path d="M2.41993612,4.78558394 C1.19525547,6.40761863 0.405565664,8.31569343 0.126368584,10.3286952 C0.258896,10.3337135 0.391423358,10.3362226 0.523266453,10.3364507 C3.17244526,10.3448905 5.71943428,9.31500911 7.61770073,7.46738137 C9.60880473,5.52600362 10.7192062,2.85469892 10.6913778,0.0739051095 C10.5663778,0.0878193285 10.4411497,0.10310219 10.3161496,0.120666044 C7.16651457,0.558622248 4.32322079,2.23859492 2.41993612,4.78558394 Z"/>
	</g>
</svg>
