<svg xmlns="http://www.w3.org/2000/svg" width="24" height="24" viewBox="0 0 24 24">
	<g fill="#9A9A9A">
		<path d="M7.5504375 19.5060469C7.18054688 19.7633437 6.74709375 19.899375 6.29690625 19.899375 5.71045313 19.899375 5.15910938 19.6710469 4.7445 19.2563906 3.99201563 18.5039062 3.8870625 17.3238281 4.49489063 16.4504531L7.56778125 12.0345469C7.21992188 12.0655312 6.86254688 12.1038281 6.50217188 12.1492969 4.9123125 12.3497812 2.10482813 12.8265 1.16503125 13.7662031.413765625 14.5174219 0 15.5163281 0 16.5788906 0 17.6414531.4138125 18.6403594 1.16507813 19.3916719 1.792875 20.0194687 2.60826563 20.4139687 3.476625 20.5242187 3.58696875 21.3925312 3.98142188 22.2081094 4.609125 22.8357656 5.38471875 23.6113594 6.403125 23.9990156 7.42195313 23.9990156 8.44045313 23.9990156 9.459375 23.6112187 10.2347813 22.8357656 11.1056719 21.964875 11.7653438 19.5493594 12.065625 17.7454219 12.1532344 17.2191094 12.2174063 16.7104687 12.2578594 16.230375L7.5504375 19.5060469zM23.7856406.215203125C23.4999375-.0705 23.036625-.0705 22.750875.215203125L18.7434375 4.22264062C18.1193437 3.82396875 17.377125 3.63848437 16.6238437 3.7055625 15.6228281 3.79457812 14.7195 4.31878125 14.1455156 5.1436875L13.6676719 5.83040625 18.1703906 10.333125 18.8571094 9.85528125C19.6820156 9.28125 20.2062187 8.37792188 20.2952812 7.37695312 20.3623125 6.62371875 20.1768281 5.88145312 19.7782031 5.25740625L23.7856406 1.24996875C24.0713906.96421875 24.0713906.50090625 23.7856406.215203125z"/>
		<path d="M12.8184844,7.05079688 L5.6960625,17.2863281 C5.49370313,17.5770937 5.52876563,17.9710781 5.77926563,18.221625 C5.92082813,18.3631875 6.1081875,18.4359844 6.29685938,18.4359844 C6.44207813,18.4359844 6.58809375,18.3928594 6.7145625,18.304875 L16.9500469,11.1824062 L12.8184844,7.05079688 Z"/>
	</g>
</svg>
