<svg xmlns="http://www.w3.org/2000/svg" width="24" height="24" viewBox="0 0 24 24">
  <g fill="#9A9A9A">
    <path d="M6.24609375,4.50146484 C6.24609375,4.50146484 3.75366211,0.7265625 3.75366211,0.7265625 C3.46179197,0.278137219 2.9360962,0 2.40234375,0 C2.25366211,0 2.10369872,0.0206909062 1.95758058,0.0622558594 C1.8112793,0.104553234 1.66882322,0.167724609 1.53424073,0.253601062 C0.771972656,0.739196766 0.555541969,1.75543214 1.05322266,2.50964353 L3.58776853,6.34881591 L6.24609375,4.50146484 Z"/>
    <polygon points="11.158 11.939 7.021 5.675 4.363 7.523 9.218 14.876"/>
    <polygon points="14.782 17.428 12.842 20.364 14.913 23.499 19.507 23.499 19.507 18.055 15.196 18.055"/>
    <path d="M20.9793091 18.0552979L20.913208 18.0552979 20.913208 23.4993896 24 23.4993896 24 21.076355C24 19.408081 22.647583 18.0552979 20.9793091 18.0552979L20.9793091 18.0552979zM0 21.076355L0 23.4993896 3.87231445 23.4993896 3.87231445 18.0552979 3.02069091 18.0552979C1.35241697 18.0552979 0 19.408081 0 21.076355L0 21.076355z"/>
    <polygon points="8.804 18.055 5.279 18.055 5.279 23.499 9.087 23.499 19.653 7.498 16.995 5.65"/>
    <path d="M22.4657593,0.253601062 C22.1967773,0.08203125 21.8953857,0 21.5976562,0 C21.0721435,0 20.5570679,0.255981469 20.2463379,0.7265625 L17.7703857,4.4765625 L20.4285278,6.32336428 L22.9467773,2.50964353 C23.444458,1.75543214 23.2280273,0.739196766 22.4657593,0.253601063 L22.4657593,0.253601062 Z"/>
  </g>
</svg>
