<svg xmlns="http://www.w3.org/2000/svg" width="24" height="24" viewBox="0 0 24 24">
  <g fill="#9A9A9A">
    <path d="M12 14.2857841C10.7377232 14.2857841 9.71421595 13.2622768 9.71421595 12 9.71421595 10.7377232 10.7377232 9.71421595 12 9.71421595 13.2622768 9.71421595 14.2857841 10.7377232 14.2857841 12 14.2857841 13.2622768 13.2622768 14.2857841 12 14.2857841L12 14.2857841zM12 10.8572126C11.3688616 10.8572126 10.8572126 11.3688616 10.8572126 12 10.8572126 12.6311384 11.3688616 13.1427874 12 13.1427874 12.6311384 13.1427874 13.1427874 12.6311384 13.1427874 12 13.1427874 11.3688616 12.6311384 10.8572126 12 10.8572126zM7.4286412 9.71421595C6.16615511 9.71421595 5.14285714 8.69091798 5.14285714 7.4286412 5.14285714 6.16615511 6.16615511 5.14285714 7.4286412 5.14285714 8.69091798 5.14285714 9.71421595 6.16615511 9.71421595 7.4286412 9.71421595 8.69091798 8.69091798 9.71421595 7.4286412 9.71421595zM7.4286412 6.28564452C6.7972935 6.28564452 6.28564452 6.7972935 6.28564452 7.4286412 6.28564452 8.05977959 6.7972935 8.57142857 7.4286412 8.57142857 8.05977959 8.57142857 8.57142857 8.05977959 8.57142857 7.4286412 8.57142857 6.7972935 8.05977959 6.28564452 7.4286412 6.28564452zM16.5713588 9.71421595C15.309082 9.71421595 14.2857841 8.69091798 14.2857841 7.4286412 14.2857841 6.16615511 15.309082 5.14285714 16.5713588 5.14285714 17.8338449 5.14285714 18.8571429 6.16615511 18.8571429 7.4286412 18.8571429 8.69091798 17.8338449 9.71421595 16.5713588 9.71421595L16.5713588 9.71421595zM16.5713588 6.28564452C15.9402204 6.28564452 15.4285714 6.7972935 15.4285714 7.4286412 15.4285714 8.05977959 15.9402204 8.57142857 16.5713588 8.57142857 17.2027065 8.57142857 17.7143555 8.05977959 17.7143555 7.4286412 17.7143555 6.7972935 17.2027065 6.28564452 16.5713588 6.28564452L16.5713588 6.28564452zM16.5713588 18.8571429C15.309082 18.8571429 14.2857841 17.8338449 14.2857841 16.5713588 14.2857841 15.309082 15.309082 14.2857841 16.5713588 14.2857841 17.8338449 14.2857841 18.8571429 15.309082 18.8571429 16.5713588 18.8571429 17.8338449 17.8338449 18.8571429 16.5713588 18.8571429L16.5713588 18.8571429zM16.5713588 15.4285714C15.9402204 15.4285714 15.4285714 15.9402204 15.4285714 16.5713588 15.4285714 17.2027065 15.9402204 17.7143555 16.5713588 17.7143555 17.2027065 17.7143555 17.7143555 17.2027065 17.7143555 16.5713588 17.7143555 15.9402204 17.2027065 15.4285714 16.5713588 15.4285714L16.5713588 15.4285714zM7.4286412 18.8571429C6.16615511 18.8571429 5.14285714 17.8338449 5.14285714 16.5713588 5.14285714 15.309082 6.16615511 14.2857841 7.4286412 14.2857841 8.69091798 14.2857841 9.71421595 15.309082 9.71421595 16.5713588 9.71421595 17.8338449 8.69091798 18.8571429 7.4286412 18.8571429zM7.4286412 15.4285714C6.7972935 15.4285714 6.28564452 15.9402204 6.28564452 16.5713588 6.28564452 17.2027065 6.7972935 17.7143555 7.4286412 17.7143555 8.05977959 17.7143555 8.57142857 17.2027065 8.57142857 16.5713588 8.57142857 15.9402204 8.05977959 15.4285714 7.4286412 15.4285714z"/>
    <path d="M12,24 C5.38581193,24 0,18.6141881 0,12 C0,5.38581193 5.38581193,0 12,0 C18.6141881,0 24,5.38581193 24,12 C24,18.6141881 18.6141881,24 12,24 Z M12,1.14278737 C6.01422991,1.14278737 1.14278737,6.01422991 1.14278737,12 C1.14278737,17.9857701 6.01422991,22.8572126 12,22.8572126 C17.9857701,22.8572126 22.8572126,17.9857701 22.8572126,12 C22.8572126,6.01422991 17.9857701,1.14278737 12,1.14278737 Z"/>
    <path d="M14.207101 23.4571708L13.1072126 23.1570871C13.2321429 22.6929408 13.0532226 22.2001256 12.659389 21.9241071 12.2657645 21.648298 11.7413504 21.648298 11.347726 21.9241071 10.9538923 22.2001256 10.7749721 22.6929408 10.8999024 23.1570871L9.80001396 23.4571708C9.54366632 22.526995 9.89899554 21.5359235 10.6881278 20.9807478 11.4772601 20.4253627 12.5300642 20.4253627 13.3189872 20.9807478 14.1081194 21.5359235 14.4634487 22.526995 14.207101 23.4571708zM12 3.42857143C11.2876674 3.42898993 10.6157226 3.09730746 10.1829659 2.53145925 9.75 1.96561104 9.60581754 1.2302595 9.79289898.542829214L10.8927874.842912946C10.7678571 1.30705918 10.9467774 1.79987443 11.340611 2.07589286 11.7342355 2.35170204 12.2586496 2.35170204 12.652274 2.07589286 13.0461077 1.79987443 13.2250279 1.30705918 13.1000976.842912946L14.199986.542829214C14.386649 1.22900389 14.2433036 1.96309988 13.812221 2.52873884 13.3809291 3.0941685 12.711077 3.42689732 12 3.42857143L12 3.42857143zM22.8572126 14.2857841C21.5947265 14.2857841 20.5714286 13.2622768 20.5714286 12 20.5714286 10.7377232 21.5947265 9.71421595 22.8572126 9.71421595 23.0620815 9.71296039 23.2663226 9.73932755 23.4642857 9.79289898L23.164202 10.8927874C23.0666853 10.8655832 22.9658203 10.851144 22.8643276 10.8500976 22.2331892 10.8500976 21.7213309 11.3617467 21.7213309 11.9928851 21.7213309 12.6240235 22.2331892 13.1356724 22.8643276 13.1356724 22.9658203 13.1346261 23.066476 13.1201869 23.164202 13.0927735L23.4642857 14.1928711C23.2669503 14.2510463 23.0627092 14.2822265 22.8572126 14.2857841L22.8572126 14.2857841zM1.14278737 14.2857841C.940220411 14.2862026.7384905 14.2598354.542829214 14.207101L.842912946 13.1072126C.940638964 13.1344168 1.04150389 13.148856 1.14278737 13.1499024 1.77413507 13.1499024 2.28578405 12.6382533 2.28578405 12.0071149 2.27929688 11.6536691 2.11146761 11.3226144 1.83021761 11.1081194 1.54917691 10.8938337 1.18547711 10.8197545.842912946 10.9072265L.542829214 9.80712889C.73786275 9.7493722.939592607 9.71819196 1.14278737 9.71421595 2.40527346 9.71421595 3.42857143 10.7377232 3.42857143 12 3.42857143 13.2622768 2.40527346 14.2857841 1.14278737 14.2857841z"/>
  </g>
</svg>
