<svg xmlns="http://www.w3.org/2000/svg" width="66" height="67" viewBox="0 0 66 67">
  <g fill="#C1C1C1">
    <path d="M1.2,46.7 C0,51.3 -0.3,55.7 0.7,59.5 C1.5,62.5 3.9,65 6.9,65.7 C10.8,66.7 15.2,66.4 19.7,65.2 C19.6,63.5 18.9,58.4 13.4,52.9 C8,47.4 3,46.7 1.2,46.7 Z"/>
    <path d="M44.2,2.3 C34.7,5.3 24.9,11.7 18,18.5 C11.1,25.4 4.7,35.2 1.8,44.7 C4.2,44.9 9.4,46 14.9,51.5 C20.5,57.1 21.6,62.2 21.7,64.6 C31.1,61.7 41,55.2 47.9,48.4 C54.8,41.5 61.2,31.7 64.1,22.2 C61.7,22 56.5,20.9 51,15.4 C45.5,9.9 44.4,4.7 44.2,2.3 Z M43.6,26.5 C44,26.9 44,27.5 43.6,27.9 C43.4,28.1 43.1,28.2 42.9,28.2 C42.7,28.2 42.4,28.1 42.2,27.9 L41.1,26.8 L38.5,29.4 L39.5,30.4 C39.9,30.8 39.9,31.4 39.5,31.8 C39.3,32 39,32.1 38.8,32.1 C38.6,32.1 38.3,32 38.1,31.8 L37.1,30.8 L34.5,33.4 L35.6,34.5 C36,34.9 36,35.5 35.6,35.9 C35.4,36.1 35.1,36.2 34.9,36.2 C34.7,36.2 34.4,36.1 34.2,35.9 L33.1,34.8 L30.4,37.5 L31.5,38.6 C31.9,39 31.9,39.6 31.5,40 C31.3,40.2 31,40.3 30.8,40.3 C30.6,40.3 30.3,40.2 30.1,40 L29,38.9 L26.3,41.6 L27.4,42.7 C27.8,43.1 27.8,43.7 27.4,44.1 C27.2,44.3 26.9,44.4 26.7,44.4 C26.5,44.4 26.2,44.3 26,44.1 L24.9,43 L23.8,44.1 C23.6,44.3 23.3,44.4 23.1,44.4 C22.9,44.4 22.6,44.3 22.4,44.1 C22,43.7 22,43.1 22.4,42.7 L23.5,41.6 L22.5,40.6 C22.1,40.2 22.1,39.6 22.5,39.2 C22.9,38.8 23.5,38.8 23.9,39.2 L24.9,40.2 L27.6,37.5 L26.6,36.5 C26.2,36.1 26.2,35.5 26.6,35.1 C27,34.7 27.6,34.7 28,35.1 L29,36.1 L31.7,33.4 L30.7,32.4 C30.3,32 30.3,31.4 30.7,31 C31.1,30.6 31.7,30.6 32.1,31 L33.1,32 L35.7,29.4 L34.6,28.3 C34.2,27.9 34.2,27.3 34.6,26.9 C35,26.5 35.6,26.5 36,26.9 L37.1,28 L39.7,25.4 L38.7,24.4 C38.3,24 38.3,23.4 38.7,23 C39.1,22.6 39.7,22.6 40.1,23 L41.1,24 L42.2,22.9 C42.6,22.5 43.2,22.5 43.6,22.9 C44,23.3 44,23.9 43.6,24.3 L42.5,25.4 L43.6,26.5 Z"/>
    <path d="M59,1.3 C57.4,0.9 55.8,0.7 54,0.7 C51.5,0.7 48.8,1.1 46.2,1.8 C46.3,3.5 47,8.6 52.5,14.1 C58,19.6 63.1,20.3 64.8,20.4 C66,15.8 66.3,11.4 65.3,7.6 C64.5,4.5 62,2 59,1.3 Z"/>
  </g>
</svg>
