<svg xmlns="http://www.w3.org/2000/svg" width="24" height="24" viewBox="0 0 24 24">
	<g fill="#9A9A9A">
		<path d="M12.9727607 1.93801227C13.2441227 1.57835583 13.2004908.815509202 13.161865.142576687 13.1603926.113570552 13.158773.085202454 13.1571534.056392638 12.7767853.0200736196 12.3917546 0 12.0020613 0 10.5088098 0 9.08.275092025 7.76127607.773791411 8.70198773 1.22586503 10.158135 2.00397546 11.7766871 3.15366871 12.3289325 2.67842945 12.7454233 2.23970552 12.9727607 1.93801227zM19.0509448 8.78306748C18.459681 8.84986503 17.9610307 8.94689571 17.5345767 9.08299387 19.5732025 12.6423558 20.3680491 17.1391902 20.5625521 20.3969571 22.582184 18.3391411 23.8647853 15.5572515 23.9860613 12.4758282 22.594454 10.7653006 20.7509202 8.59023313 19.0509448 8.78306748zM6.9316319 5.71072393C8.36402454 5.41266258 9.70974233 4.69173006 10.7827239 3.93074847 8.54429448 2.38905521 6.67730061 1.58895706 6.30591411 1.43666258 3.98360736 2.69207362 2.12525153 4.69231902 1.0441227 7.11592638 2.44937423 6.55602454 3.97128834 6.27116564 5.46611043 5.99361963 5.94969325 5.90380368 6.44957055 5.81099387 6.9316319 5.71072393z"/>
		<path d="M15.2231166 6.05953374C15.3509693 6.18802454 15.4784785 6.31872393 15.6051043 6.4518773 16.0723926 6.94242945 16.4963926 7.47896933 16.8852025 8.04662577 17.4514356 7.83283436 18.1180368 7.68122699 18.9159755 7.5910184 20.7960736 7.37835583 22.4678282 8.86768098 23.9026748 10.5073374 23.5950429 8.02169325 22.5289816 5.77202454 20.9405153 3.99784049 20.0734724 4.10233129 19.1068466 4.27936196 18.1216196 4.57334969 17.4753374 4.76638037 16.4460859 5.29084663 15.2231166 6.05953374zM13.6447117 12.2546258C14.1367362 10.5881227 14.7066503 9.38679755 15.8108466 8.6070184 15.4794601 8.13128834 15.1228466 7.68480982 14.7365399 7.27921472 14.5578405 7.09153374 14.3771288 6.91028221 14.1956319 6.73222086 9.76554601 9.7476319 3.69717791 15.2868221 3.14537423 20.086135 4.98733742 22.1014479 7.50817178 23.4835337 10.3459632 23.8756319 11.3792393 21.818454 12.3517546 17.6364172 12.929816 15.1492025 13.2075583 13.9545521 13.4472638 12.9230429 13.6447117 12.2546258z"/>
		<path d="M8.62174233 9.61192638C10.1663804 8.18856442 11.7975951 6.91219632 13.2895706 5.88638037 12.7922454 5.44638037 12.2933988 5.04078528 11.803681 4.66880982 10.5644663 5.60034356 8.94198773 6.51784049 7.17590184 6.88515337 6.68132515 6.98807362 6.17487117 7.08215951 5.68525153 7.17305521 3.79872393 7.5233865 1.98777914 7.86267485.464834356 8.71239264.168245399 9.7563681.00603680982 10.8570307.00603680982 11.9960736.00603680982 14.5441472.802993865 16.9050307 2.15764417 18.8478037 3.03523926 15.3731043 6.04539877 11.9859632 8.62174233 9.61192638zM14.3228957 5.20122699C15.7500368 4.2913865 16.9804172 3.66228221 17.7786994 3.424 18.4955583 3.20991411 19.198773 3.05398773 19.8646871 2.94026994 18.3258896 1.60309202 16.444908.65006135 14.3684417.234650307 14.4144785 1.07244172 14.4345521 1.9922454 13.9305521 2.66051534 13.691092 2.97786503 13.2859877 3.41310429 12.7588712 3.88530061 13.275092 4.28711656 13.7997055 4.72530061 14.3228957 5.20122699zM14.795092 12.5943067C14.6078037 13.2288098 14.3715337 14.2446135 14.0982086 15.4207117 13.2911411 18.8933497 12.5188712 22.0006871 11.6169816 23.9822822 11.7450307 23.9863558 11.8730307 23.9920491 12.0020613 23.9920491 14.7977914 23.9920491 17.3678528 23.0330798 19.4074601 21.4297914 19.3269202 18.0206626 18.5096442 13.1986258 16.4509939 9.61909202 15.6525644 10.2125153 15.2228221 11.1460613 14.795092 12.5943067z"/>
	</g>
</svg>
