<svg height="511pt" viewBox="-3 0 511 511.99084" width="511pt" xmlns="http://www.w3.org/2000/svg"><path d="m425.878906 486.847656h-24.90625l-60.578125-198.753906c-7.644531 3.847656-16.5625 5.105469-25.328125 3.128906l64.570313 211.859375c1.613281 5.292969 6.492187 8.90625 12.023437 8.90625h34.21875c6.941406 0 12.570313-5.628906 12.570313-12.570312 0-6.941407-5.628907-12.570313-12.570313-12.570313zm0 0"/><path d="m288.964844 201.117188 28.089844 10.398437-3.667969-12.042969c-2.027344-6.640625-9.046875-10.378906-15.691407-8.359375-4.734374 1.445313-7.980468 5.429688-8.730468 10.003907zm0 0"/><path d="m264.28125 2.144531c-25.078125-7.796875-51.730469 6.210938-59.53125 31.289063-7.796875 25.082031 6.214844 51.734375 31.292969 59.53125s51.730469-6.210938 59.527343-31.292969c7.796876-25.078125-6.210937-51.730469-31.289062-59.527344zm0 0"/><path d="m276.449219 364.921875c-.941407-3.238281-2.472657-6.277344-4.519531-8.960937l-64.921876-85.1875 7.09375-16.785157c-6.816406-3.609375-11.375-10.160156-12.667968-17.433593l-12.519532-71.460938 27.703126 65.398438c2.320312 5.472656 6.789062 9.742187 12.363281 11.804687l86.898437 32.164063c11.230469 4.15625 23.582032-1.640626 27.683594-12.726563 4.132812-11.160156-1.566406-23.554687-12.726562-27.683594l-78.171876-28.933593-26.257812-61.992188 21.53125 30.8125 8.5-20.109375c7.246094-17.144531-.777344-36.917969-17.921875-44.164063l-18.253906-7.714843c-36.707031-15.515625-78.921875 3.546875-91.523438 41.394531-9.765625 29.425781-44.8125 139.59375-44.8125 139.59375l-18.816406 91.679688-60.367187 95.363281c-8.085938 12.769531-4.285157 29.675781 8.488281 37.761719 12.714843 8.046874 29.640625 4.339843 37.761719-8.488282l63.039062-99.59375c1.773438-2.796875 3.019531-5.894531 3.6875-9.136718l17.242188-84 33.585937 4.082031 56.757813 74.476562 31.101562 107.160157c4.210938 14.515624 19.386719 22.871093 33.910156 18.65625 14.515625-4.210938 22.867188-19.394532 18.65625-33.910157zm0 0"/><path d="m442.410156 456.25v12.191406c0 3.578125 2.898438 6.476563 6.476563 6.476563h50.113281c3.574219 0 6.472656-2.898438 6.472656-6.476563v-12.191406c0-3.574219-2.898437-6.472656-6.472656-6.472656h-50.113281c-3.578125 0-6.476563 2.898437-6.476563 6.472656zm0 0"/></svg>