<svg xmlns="http://www.w3.org/2000/svg" width="24" height="24" viewBox="0 0 24 24">
  <g fill="#C1C1C1">
    <path d="M19.8857143 12.2938776C18.5142857 12.1469388 17.8285714 12.9795918 17.4367347 13.7142857 16.8489796 14.8897959 17.3387755 16.4571429 15.9183673 17.1428571 15.1836735 17.4857143 14.3510204 16.9959184 13.7632653 16.4571429L9.06122449 20.6693878C9.64897959 21.3061224 9.99183673 21.6979592 10.0408163 21.6979592 11.5591837 22.8734694 14.0571429 23.9510204 16.7020408 23.5591837 19.6408163 23.1183673 21.1102041 21.2081633 22.1387755 19.3469388 22.8734694 18.0244898 23.1183673 17.0938776 23.1673469 16.3591837 23.2653061 14.2530612 21.9918367 12.4897959 19.8857143 12.2938776zM13.3714286 16.1142857C12.9795918 15.722449 12.7836735 15.4285714 11.9510204 14.4 11.5102041 14.7918367 7.73877551 18.0244898 7.15102041 18.5632653 7.7877551 19.2979592 8.3755102 19.9836735 8.66938776 20.277551 16.4081633 13.4204082 11.8530612 17.4857143 13.3714286 16.1142857zM.930612245.293877551C.685714286 0 .293877551.146938776.293877551.489795918L.293877551 9.79591837C.293877551 9.94285714.342857143 10.0897959.440816327 10.2367347 2.4 12.8816327 4.8 15.7714286 6.85714286 18.1714286L11.6571429 14.0081633.930612245.293877551z"/>
    <circle cx="14.302" cy="7.053" r="3.576"/>
  </g>
</svg>
