<svg xmlns="http://www.w3.org/2000/svg" width="28" height="28" viewBox="0 0 28 28">
  <g fill="none" fill-rule="evenodd" transform="translate(2 2)">
    <g fill="#C1C1C1" fill-rule="nonzero">
      <path d="M17.516129 3.61935484C17.9225806 3.09677419 18.3677419 2.61290323 18.8516129 2.1483871 17.8645161 1.47096774 16.7806452.909677419 15.6193548.541935484 15.6.619354839 15.5419355.696774194 15.4645161.75483871 12.1935484 2.92258065 10.2580645 6.54193548 10.2580645 10.4516129 10.2580645 11.5354839 10.4129032 12.6 10.7032258 13.6451613 12.2129032 13.2967742 13.6258065 12.6580645 14.9032258 11.7290323 14.9032258 11.5548387 14.883871 11.3806452 14.883871 11.2064516 14.883871 9.77419355 15.1354839 8.38064516 15.6 7.06451613 15.6 7.02580645 15.6193548 6.98709677 15.6387097 6.9483871 16.083871 5.7483871 16.7032258 4.62580645 17.4774194 3.61935484 17.4967742 3.63870968 17.516129 3.63870968 17.516129 3.61935484zM19.4322581 2.67096774C19.0645161 3.01935484 18.716129 3.36774194 18.4064516 3.75483871 20.3612903 4.83870968 21.9870968 6.42580645 23.1096774 8.38064516 23.3612903 8.80645161 23.5741935 9.27096774 23.7870968 9.73548387 23.2258065 6.87096774 21.6774194 4.37419355 19.4903226 2.61290323 19.4709677 2.63225806 19.4516129 2.6516129 19.4322581 2.67096774z"/>
      <path d="M10.2580645,19.7419355 C12.8903226,19.7419355 15.4645161,18.8322581 17.516129,17.1870968 C17.1290323,15.4645161 16.3548387,13.8580645 15.2322581,12.4645161 C13.1419355,13.9354839 10.7032258,14.7096774 8.12903226,14.7096774 C6.69677419,14.7096774 5.30322581,14.4580645 3.98709677,13.9935484 L3.96774194,13.9935484 C2.53548387,13.4709677 1.18064516,12.6967742 0,11.6709677 C0,11.7870968 0,11.883871 0,12 C0,12.8709677 0.0967741935,13.7225806 0.270967742,14.5354839 C0.425806452,14.4967742 0.580645161,14.5548387 0.677419355,14.6903226 C2.84516129,17.8451613 6.42580645,19.7419355 10.2580645,19.7419355 Z"/>
      <path d="M9.46451613.638709677C6.07741935 2.78709677 4.06451613 6.46451613 4.06451613 10.4516129 4.06451613 11.4193548 4.18064516 12.3870968 4.43225806 13.3354839 5.61290323 13.7225806 6.8516129 13.9354839 8.12903226 13.9354839 8.7483871 13.9354839 9.3483871 13.8967742 9.9483871 13.8 9.63870968 12.716129 9.48387097 11.5935484 9.48387097 10.4516129 9.48387097 6.40645161 11.4387097 2.6516129 14.7483871.329032258 13.8580645.116129032 12.9483871 0 12 0 11.1870968 0 10.3935484.0774193548 9.61935484.232258065 9.65806452.387096774 9.6.561290323 9.46451613.638709677zM21.483871 18.7741935C21.7548387 16.2967742 21.2516129 13.8580645 19.9935484 11.6903226 19.0645161 10.083871 17.7677419 8.72903226 16.2 7.72258065 15.8709677 8.86451613 15.6774194 10.0258065 15.6774194 11.2258065 15.6774194 11.4193548 15.6774194 11.6129032 15.6967742 11.7870968 17.0129032 13.3548387 17.9032258 15.2322581 18.3290323 17.2064516 18.3290323 17.2258065 18.3483871 17.2645161 18.3483871 17.283871 18.5032258 18.0774194 18.6 18.8903226 18.6 19.7225806 18.6 20.5354839 18.5032258 21.3677419 18.3483871 22.1806452 19.6451613 21.3870968 20.7677419 20.3419355 21.6580645 19.1225806 21.5419355 19.0645161 21.4645161 18.9290323 21.483871 18.7741935z"/>
      <path d="M23.9806452 11.9032258C23.8064516 11.9032258 23.6516129 11.7870968 23.6129032 11.6129032 23.3419355 10.6258065 22.9548387 9.65806452 22.4322581 8.76774194 21.3483871 6.90967742 19.8 5.38064516 17.9225806 4.37419355 17.3225806 5.18709677 16.8387097 6.05806452 16.4903226 7.00645161 18.2129032 8.07096774 19.6645161 9.56129032 20.6709677 11.3225806 21.8709677 13.4129032 22.4322581 15.7548387 22.316129 18.1548387 23.3806452 16.3548387 24 14.2645161 24 12.0193548 24 11.9612903 24 11.9225806 23.9806452 11.9032258 24 11.9032258 24 11.9032258 23.9806452 11.9032258zM17.4967742 22.3741935C17.6903226 21.5032258 17.8064516 20.6129032 17.8064516 19.7419355 17.8064516 19.1612903 17.7677419 18.6 17.6709677 18.0387097 15.5419355 19.6451613 12.9290323 20.516129 10.2580645 20.516129 6.52258065 20.516129 3.01935484 18.8322581.677419355 15.9870968 2.32258065 20.6516129 6.77419355 24 12 24 13.9935484 24 15.8903226 23.516129 17.5354839 22.6451613 17.4967742 22.5677419 17.4774194 22.4709677 17.4967742 22.3741935zM.290322581 10.8967742C1.25806452 11.7870968 2.36129032 12.483871 3.56129032 13.0064516 3.38709677 12.1548387 3.29032258 11.3032258 3.29032258 10.4516129 3.29032258 6.58064516 5.07096774 2.98064516 8.10967742.658064516 3.75483871 2.1483871.541935484 6.07741935.0580645161 10.8.135483871 10.8.232258065 10.8387097.290322581 10.8967742z"/>
    </g>
    <circle cx="12" cy="12" r="12" stroke="#C1C1C1" stroke-linecap="round" stroke-linejoin="round" stroke-width="4"/>
  </g>
</svg>
