<svg xmlns="http://www.w3.org/2000/svg" width="24" height="23" viewBox="0 0 24 23">
  <g fill="#C1C1C1">
    <path d="M17.6625,2.4 C16.6875,1.95 15.6375,1.725 14.5875,1.725 C12.7125,1.725 11.25,2.5875 10.5,4.275 C10.0875,5.325 10.125,6.525 10.6125,7.575 C11.325,9.1875 12.6375,10.425 14.2875,11.025 C16.0875,11.6625 17.8875,11.6625 19.2375,11.025 C20.1,10.65 20.775,9.9 21.1125,9 C21.9,6.6 20.2875,3.525 17.6625,2.4 Z M18.675,8.4 L18.675,8.4 C17.55,9.375 15.6375,9.075 14.7,8.475 C12.525,7.05 12.7125,4.9125 13.6875,4.0875 C14.85,3.0375 16.65,3.3375 17.8875,4.2 C19.4625,5.25 19.875,7.3875 18.675,8.4 Z"/>
    <path d="M23.8125,10.725 C23.4375,4.8 18.3375,0.1125 12.1125,0.1125 C11.325,0.1125 10.5375,0.1875 9.7875,0.3375 C7.0125,0.9 4.6875,2.55 3.6,5.0625 C2.625,7.275 2.7375,9.7875 3.9,12.1875 C5.175,14.6625 7.275,16.65 9.825,17.7375 C12.9,19.0875 16.425,19.2 19.2,18.0375 C21.1125,17.2875 22.65,15.75 23.4,13.8375 C23.7375,12.8625 23.8875,11.8125 23.8125,10.725 Z M21.9375,9.75 C21.5625,10.8375 20.7375,11.7375 19.6875,12.1875 C18.825,12.6 17.85,12.7875 16.875,12.7875 C15.7875,12.7875 14.7,12.5625 13.6875,12.1875 C11.6625,11.475 10.05,9.9375 9.1875,7.9875 C8.5875,6.75 8.55,5.325 9.0375,4.05 C10.3875,1.0125 13.8,0.15 17.7,1.8375 C20.9625,3.225 22.9125,6.9375 21.9375,9.75 Z"/>
    <path d="M17.6625,2.1 C16.5,1.575 15.2625,1.3125 14.025,1.275 C11.85,1.275 10.1625,2.2875 9.3375,4.1625 C8.85,5.3625 8.925,6.75 9.4875,7.9125 C10.3125,9.7875 11.8875,11.25 13.8375,11.9625 C15.9375,12.7125 18.075,12.7125 19.65,11.9625 C20.625,11.5125 21.4125,10.6875 21.7875,9.675 C22.65,6.9375 20.7375,3.4125 17.6625,2.1 Z M21.225,9 C20.8875,9.9375 20.2125,10.6875 19.275,11.1 C18.525,11.4375 17.7,11.625 16.9125,11.5875 C16.0125,11.5875 15.075,11.4 14.25,11.1 C12.5625,10.5 11.2125,9.225 10.5,7.575 C10.0125,6.525 9.9375,5.2875 10.3875,4.2 C11.5125,1.6125 14.4,0.8625 17.7375,2.2875 C20.4,3.45 22.05,6.6 21.225,9 Z"/>
    <path d="M19.3875,18.525 C18,19.0875 16.5,19.3875 15,19.3875 C13.125,19.3875 11.325,18.975 9.6,18.225 C6.9375,17.1 4.725,15.0375 3.4125,12.45 C2.5875,10.8375 2.2875,9.0375 2.475,7.2375 C2.5125,7.05 2.5125,6.825 2.5875,6.6375 L2.5875,6.6 C2.625,6.4125 2.6625,6.2625 2.7,6.1125 L2.7375,5.9625 C2.775,5.8125 2.8125,5.7 2.85,5.55 L2.8875,5.4 C2.9625,5.2125 3.0375,5.0625 3.1125,4.875 C3.1875,4.6875 3.2625,4.5375 3.375,4.35 C3.375,4.35 1.275,6.45 0.8625,8.1375 C0.075,10.6875 0.225,13.425 1.275,15.825 C1.7625,17.325 3.4875,19.05 4.5,19.95 C5.025,20.4 5.5875,20.775 6.1875,21.075 C7.4625,21.7125 9.8625,22.7625 11.8125,22.6875 L11.775,22.6875 C11.8875,22.6875 12,22.6875 12.075,22.6875 C16.8375,22.725 21.15,19.9125 22.9875,15.525 C22.125,16.9125 20.85,17.925 19.3875,18.525 Z"/>
  </g>
</svg>
