<svg xmlns="http://www.w3.org/2000/svg" width="24" height="24" viewBox="0 0 24 24">
	<g fill="#9A9A9A">
		<polygon points="2.108 18.908 3.103 17.914 6.086 20.897 5.091 21.891"/>
		<path d="M0.616882324,20.3999176 C-0.205627441,21.2224274 -0.205627441,22.5605621 0.616882324,23.3830719 C1.43939209,24.2055817 2.77752686,24.2055817 3.60003662,23.3830719 L4.09716798,22.8859406 L1.11401368,19.9027863 L0.616882324,20.3999176 Z"/>
		<polygon points="8.014 15.987 4.982 17.805 6.195 19.018"/>
		<path d="M20.9833374,1.02790835 C19.6126099,-0.342636117 17.3822021,-0.342636117 16.0114746,1.02790835 L5.41827395,11.621109 C4.7541504,12.2852326 4.35937501,13.1685334 4.35937501,14.1074982 L4.35937501,16.5219269 L9.70166017,13.3340607 C10.255188,13.0020904 10.9980469,13.7449493 10.6658935,14.2982941 L7.47802736,19.5937042 L9.89245604,19.5937042 C10.8314209,19.5937042 11.7147217,19.2459869 12.3788452,18.5816803 L15.0855103,15.8750153 C14.8919678,15.7472076 14.708313,15.598526 14.5380249,15.4282379 C13.1672974,14.0576935 13.1672974,11.8271027 14.5380249,10.4563751 C15.9087525,9.08564759 18.1391602,9.08564759 19.5098877,10.4563751 C19.6801758,10.6266632 19.8288574,10.810318 19.9568482,11.0038605 L22.9720459,7.98847962 C24.3425904,6.6179352 24.3425904,4.38734435 22.9720459,3.01679993 L20.9833374,1.02790835 Z"/>
		<path d="M18.5154419,14.4337921 C19.3379517,13.6112824 19.3379517,12.2731476 18.5154419,11.4506378 C17.6931152,10.6281281 16.3547974,10.6281281 15.5324707,11.4506378 C14.7099609,12.2731476 14.7099609,13.6112824 15.5324707,14.4337921 C16.3547974,15.2561188 17.6931152,15.2561188 18.5154419,14.4337921 L18.5154419,14.4337921 Z"/>
	</g>
</svg>
