<svg width="48px" height="48px" viewBox="0 0 48 48" version="1.1" xmlns="http://www.w3.org/2000/svg" xmlns:xlink="http://www.w3.org/1999/xlink">
  <g id="Symbols" stroke="none" stroke-width="1" fill="none" fill-rule="evenodd">
    <g id="BLCK/Footer" transform="translate(-166.000000, -220.000000)" fill="#C1C1C1">
      <g id="Group-6">
        <g transform="translate(0.000000, 160.000000)">
          <g id="Group" transform="translate(116.000000, 60.000000)">
            <path d="M65.1840518,32.1738834 L65.1840518,19.1422594 L62.1714995,19.1422594 L62.1714995,15.8027635 L69.3410528,15.8027635 L69.3410528,32.1738834 L65.1840518,32.1738834 Z M84.9641432,20.0296779 C84.9641432,21.4542182 84.1934903,22.7152866 82.9090688,23.4160261 C84.707113,24.1631799 85.8282086,25.7279848 85.8282086,27.5495281 C85.8282086,30.492021 83.2125134,32.3604165 79.1257176,32.3604165 C75.0387759,32.3604165 72.4232266,30.5153741 72.4232266,27.6197334 C72.4232266,25.7513379 73.6375888,24.1631799 75.5291914,23.4160261 C74.1513574,22.6452272 73.2639389,21.3375985 73.2639389,19.9130583 C73.2639389,17.2972171 75.5526905,15.6392916 79.1023645,15.6392916 C82.6987448,15.6392916 84.9641432,17.3440693 84.9641432,20.0296779 Z M76.3465505,27.1993773 C76.3465505,28.5773572 77.3275275,29.3480101 79.1257176,29.3480101 C80.9239078,29.3480101 81.9280919,28.6008563 81.9280919,27.1993773 C81.9280919,25.8450423 80.9239078,25.0740975 79.1257176,25.0740975 C77.3273815,25.0740975 76.3465505,25.8448964 76.3465505,27.1993773 Z M76.7670526,20.2632091 C76.7670526,21.431157 77.6077649,22.0847524 79.1257176,22.0847524 C80.6436703,22.0847524 81.4843826,21.431011 81.4843826,20.2632091 C81.4843826,19.0491389 80.6436703,18.3717525 79.1257176,18.3717525 C77.607619,18.3717525 76.7670526,19.0491389 76.7670526,20.2632091 Z M92.7454024,17.6508709 L97.1484869,17.6508709 C97.7131945,19.7110538 97.9995621,21.8388148 97.9995621,24 C97.9995621,37.2336285 87.2333366,48 73.999854,48 C60.7663715,48 50,37.2336285 50,24 C50,10.7663715 60.7663715,-1.98951966e-13 73.999854,-1.98951966e-13 C76.1611852,-1.98951966e-13 78.2888002,0.286513574 80.3488372,0.851221173 L80.3488372,5.25459765 C78.3093802,4.56319938 76.1759268,4.2129026 73.9997081,4.2129026 C63.0889851,4.2129026 54.2124647,13.0891311 54.2124647,24 C54.2124647,34.910577 63.0891311,43.7870974 73.999854,43.7870974 C84.910577,43.7870974 93.7870974,34.910577 93.7870974,24 C93.7870974,21.8240732 93.4365087,19.6906198 92.7454024,17.6508709 Z M91.5478252,6.43830884 L96.1494113,6.43830884 L96.1494113,9.74715384 L91.5478252,9.74715384 L91.5478252,14.3488859 L88.2386883,14.3488859 L88.2386883,9.74715384 L83.6643962,9.74715384 L83.6643962,6.43830884 L88.2386883,6.43830884 L88.2386883,1.83643087 L91.5478252,1.83643087 L91.5478252,6.43830884 Z" id="ICN/18"></path>
          </g>
        </g>
      </g>
    </g>
  </g>
</svg>
