
<svg width="48px" height="36px" viewBox="0 0 48 36" version="1.1" xmlns="http://www.w3.org/2000/svg" xmlns:xlink="http://www.w3.org/1999/xlink">
  <g id="Symbols" stroke="none" stroke-width="1" fill="none" fill-rule="evenodd">
    <g id="BLCK/Footer" transform="translate(-1244.000000, -60.000000)" fill="#C1C1C1">
      <g id="Group-2">
        <g transform="translate(141.000000, 60.000000)">
          <path d="M1144.68481,35.5443038 L1145.63539,35.5443038 L1146.25423,32.9477468 C1146.38228,32.9222278 1146.50759,32.9094684 1146.63109,32.9094684 C1146.75868,32.9094684 1146.8521,32.9345316 1146.9118,32.9860253 C1146.97514,33.0325063 1147.0157,33.0963038 1147.03256,33.1774177 C1147.04942,33.2539747 1147.04942,33.3451139 1147.03256,33.4512911 C1147.0198,33.5538228 1147.00066,33.66 1146.97514,33.7702785 L1146.55453,35.5443038 L1147.50466,35.5443038 L1147.93894,33.732 C1148.06197,33.2302785 1148.03008,32.8351899 1147.84324,32.5458228 C1147.65595,32.2564557 1147.31144,32.112 1146.80927,32.112 C1146.63929,32.112 1146.48618,32.1202025 1146.34992,32.1370633 C1146.21823,32.1502785 1146.09701,32.1694177 1145.98628,32.194481 C1145.8801,32.2158987 1145.78213,32.2414177 1145.69327,32.271038 L1145.45676,32.3416709 L1144.68481,35.5443038 Z M1144.53033,31.7292152 C1144.61144,31.695038 1144.68162,31.6503797 1144.74086,31.5952405 C1144.80056,31.5355443 1144.84704,31.4676456 1144.88167,31.3910886 C1144.91995,31.3099747 1144.93909,31.2247595 1144.93909,31.135443 C1144.93909,30.9741266 1144.88532,30.8551899 1144.77914,30.7786329 C1144.67296,30.697519 1144.55403,30.656962 1144.42233,30.656962 C1144.33301,30.656962 1144.2478,30.6738228 1144.16668,30.7084557 C1144.09013,30.7421772 1144.02223,30.7891139 1143.96253,30.8483544 C1143.90329,30.9039494 1143.85453,30.9718481 1143.81625,31.052962 C1143.78208,31.129519 1143.76476,31.212 1143.76476,31.3013165 C1143.76476,31.4630886 1143.81808,31.5847595 1143.92425,31.664962 C1144.03043,31.741519 1144.14982,31.7797975 1144.28152,31.7797975 C1144.37129,31.7797975 1144.45377,31.7629367 1144.53033,31.7292152 Z M1144.62603,32.188557 L1143.67544,32.188557 L1142.87797,35.5443038 L1143.82218,35.5443038 L1144.62603,32.188557 Z M1141.57559,33.0817215 C1141.64349,33.196557 1141.67722,33.3624304 1141.67722,33.5793418 C1141.67722,33.711038 1141.65808,33.8513924 1141.6198,33.9999494 C1141.58608,34.1448608 1141.53276,34.2788354 1141.46076,34.4018734 C1141.3883,34.5258228 1141.29853,34.627443 1141.19235,34.708557 C1141.08663,34.7892152 1140.96268,34.8297722 1140.82233,34.8297722 C1140.64415,34.8297722 1140.5202,34.7723544 1140.45276,34.657519 C1140.38441,34.5381266 1140.35023,34.3704304 1140.35023,34.1530633 C1140.35023,34.0213671 1140.36709,33.8828354 1140.40172,33.7388354 C1140.44,33.5898228 1140.49514,33.4535696 1140.56759,33.3305316 C1140.63959,33.207038 1140.72891,33.1045063 1140.83554,33.0243038 C1140.94172,32.9431899 1141.06522,32.9030886 1141.20511,32.9030886 C1141.3842,32.9030886 1141.50724,32.9623291 1141.57559,33.0817215 Z M1141.54962,35.4417722 C1141.78841,35.3100759 1141.98572,35.1419241 1142.14339,34.9382278 C1142.30061,34.7340759 1142.41954,34.5044051 1142.5002,34.2487595 C1142.58132,33.9940253 1142.62187,33.7388354 1142.62187,33.4836456 C1142.62187,33.279038 1142.59408,33.094481 1142.53848,32.9286076 C1142.48334,32.7586329 1142.40041,32.611443 1142.28967,32.4884051 C1142.18349,32.3649114 1142.04542,32.2692152 1141.87499,32.2013165 C1141.70957,32.1334177 1141.5159,32.0987848 1141.29489,32.0987848 C1140.9923,32.0987848 1140.72481,32.1648608 1140.49104,32.2970127 C1140.25681,32.4241519 1140.05904,32.590481 1139.89727,32.7946329 C1139.73595,32.9987848 1139.61246,33.2284557 1139.5277,33.4836456 C1139.44658,33.7388354 1139.40603,33.9940253 1139.40603,34.2487595 C1139.40603,34.4529114 1139.43428,34.6406582 1139.48942,34.8106329 C1139.54456,34.9765063 1139.62522,35.120962 1139.73185,35.2444557 C1139.84213,35.3674937 1139.98066,35.4631899 1140.14608,35.5315443 C1140.31195,35.599443 1140.5079,35.6331646 1140.73301,35.6331646 C1141.0438,35.6331646 1141.31585,35.5698228 1141.54962,35.4417722 Z M1136.50324,34.204557 C1136.50324,34.3954937 1136.52876,34.5786835 1136.5798,34.7532152 C1136.63494,34.9272911 1136.72197,35.0804051 1136.84091,35.2121013 C1136.9603,35.3401519 1137.11114,35.4417722 1137.29387,35.5183291 C1137.47706,35.5948861 1137.70035,35.6331646 1137.96375,35.6331646 C1138.1679,35.6331646 1138.34015,35.6140253 1138.48096,35.5757468 C1138.62542,35.5420253 1138.75711,35.5014684 1138.87651,35.4549873 L1138.80633,34.6957975 C1138.71656,34.7340759 1138.61494,34.7659747 1138.5001,34.7914937 C1138.38527,34.816557 1138.26587,34.8297722 1138.14284,34.8297722 C1137.89175,34.8297722 1137.71949,34.7636962 1137.62608,34.632 C1137.5322,34.4957468 1137.48527,34.3193924 1137.48527,34.102481 C1137.48527,33.732 1137.57686,33.4412658 1137.76005,33.2284557 C1137.94278,33.0110886 1138.19387,32.9030886 1138.51241,32.9030886 C1138.64456,32.9030886 1138.75484,32.9176709 1138.84461,32.9477468 C1138.93803,32.9728101 1139.02734,33.0028861 1139.1121,33.0370633 L1139.43747,32.2970127 C1139.31443,32.2373165 1139.1759,32.1908354 1139.02278,32.1562025 C1138.87423,32.1179241 1138.7038,32.0987848 1138.51241,32.0987848 C1138.20618,32.0987848 1137.92775,32.1543797 1137.67666,32.2651139 C1137.43013,32.3753924 1137.21959,32.5266835 1137.04506,32.7180759 C1136.87099,32.9094684 1136.73701,33.1327595 1136.64359,33.3879494 C1136.54972,33.6426835 1136.50324,33.9151899 1136.50324,34.204557 Z M1134.0443,33.9940253 C1133.99327,34.210481 1133.96365,34.4169114 1133.95499,34.6128608 C1133.94678,34.8083544 1133.97641,34.9828861 1134.0443,35.136 C1134.11266,35.2850127 1134.22749,35.4034937 1134.38881,35.4932658 C1134.55058,35.5780253 1134.77843,35.6208608 1135.07144,35.6208608 C1135.27605,35.6208608 1135.45195,35.6035443 1135.60096,35.5698228 C1135.75043,35.5351899 1135.88805,35.4955443 1136.0161,35.4486076 L1135.94547,34.7208608 C1135.84749,34.7554937 1135.75043,34.7828354 1135.65246,34.8042532 C1135.55858,34.8211139 1135.46106,34.8297722 1135.35853,34.8297722 C1135.23959,34.8297722 1135.14572,34.8129114 1135.07782,34.7782785 C1135.01038,34.744557 1134.96116,34.6980759 1134.93154,34.6383797 C1134.90557,34.5745823 1134.89509,34.4998481 1134.89919,34.4146329 C1134.90785,34.3298734 1134.92471,34.2387342 1134.95068,34.1407595 L1135.23139,32.9668861 L1136.28359,32.9668861 L1136.47499,32.188557 L1135.41595,32.188557 L1135.65838,31.1996962 L1134.66952,31.3528101 L1134.0443,33.9940253 Z M1133.60319,31.7292152 C1133.68339,31.695038 1133.75403,31.6503797 1133.81372,31.5952405 C1133.87296,31.5355443 1133.9199,31.4676456 1133.95362,31.3910886 C1133.9919,31.3099747 1134.01104,31.2247595 1134.01104,31.135443 C1134.01104,30.9741266 1133.95818,30.8551899 1133.852,30.7786329 C1133.74537,30.697519 1133.62597,30.656962 1133.49428,30.656962 C1133.40496,30.656962 1133.3202,30.6738228 1133.23954,30.7084557 C1133.16299,30.7421772 1133.09463,30.7891139 1133.03539,30.8483544 C1132.9757,30.9039494 1132.92648,30.9718481 1132.8882,31.052962 C1132.85448,31.129519 1132.83716,31.212 1132.83716,31.3013165 C1132.83716,31.4630886 1132.89048,31.5847595 1132.99711,31.664962 C1133.10329,31.741519 1133.22223,31.7797975 1133.35438,31.7797975 C1133.44324,31.7797975 1133.52663,31.7629367 1133.60319,31.7292152 Z M1133.69843,32.188557 L1132.74785,32.188557 L1131.95038,35.5443038 L1132.89458,35.5443038 L1133.69843,32.188557 Z M1129.39073,32.8648101 L1129.62041,31.8946329 C1129.6719,31.8864304 1129.74846,31.8800506 1129.85008,31.8754937 C1129.95261,31.8672911 1130.0483,31.8631899 1130.13716,31.8631899 C1130.21828,31.8631899 1130.29711,31.8713924 1130.37367,31.8887089 C1130.45023,31.9014684 1130.51813,31.9247089 1130.57737,31.9588861 C1130.63706,31.9926076 1130.68354,32.0395443 1130.71818,32.0987848 C1130.75646,32.1543797 1130.77559,32.2222785 1130.77559,32.3033924 C1130.77559,32.4565063 1130.71134,32.5882025 1130.5842,32.6989367 C1130.46071,32.8092152 1130.27114,32.8648101 1130.01641,32.8648101 L1129.39073,32.8648101 Z M1129.89473,33.6112405 C1130.01003,33.6112405 1130.10754,33.6258228 1130.1882,33.655443 C1130.27342,33.685519 1130.34132,33.7237975 1130.39281,33.7702785 C1130.44339,33.8172152 1130.47985,33.8705316 1130.50081,33.9302278 C1130.52678,33.9894684 1130.53909,34.0491646 1130.53909,34.1088608 C1130.53909,34.2487595 1130.50765,34.3635949 1130.44339,34.4529114 C1130.37959,34.5426835 1130.29711,34.6128608 1130.19458,34.663443 C1130.09661,34.7149367 1129.98405,34.7509367 1129.85646,34.7723544 C1129.73296,34.7892152 1129.60765,34.7974177 1129.48051,34.7974177 C1129.39073,34.7974177 1129.29322,34.7955949 1129.18658,34.7914937 C1129.08496,34.7828354 1128.99975,34.7723544 1128.93185,34.7591392 L1129.20572,33.6112405 L1129.89473,33.6112405 Z M1129.29549,35.6017215 C1129.70334,35.6017215 1130.05013,35.5588861 1130.33539,35.4741266 C1130.6202,35.3843544 1130.85215,35.2676962 1131.03033,35.1227848 C1131.20942,34.9742278 1131.33884,34.8060759 1131.41995,34.6192405 C1131.50015,34.4278481 1131.54071,34.2296203 1131.54071,34.0259241 C1131.54071,33.8468354 1131.49651,33.685519 1131.40673,33.5410633 C1131.31742,33.3920506 1131.17706,33.2753924 1130.98567,33.1901772 C1131.14744,33.1177215 1131.27732,33.0370633 1131.37484,32.9477468 C1131.47737,32.8579747 1131.55575,32.764557 1131.61134,32.667038 C1131.67058,32.564962 1131.70886,32.4624304 1131.72618,32.3608101 C1131.74714,32.2587342 1131.75808,32.1607595 1131.75808,32.0673418 C1131.75808,31.9310886 1131.728,31.8034937 1131.66876,31.6841013 C1131.61316,31.5610633 1131.52613,31.4544304 1131.40673,31.3655696 C1131.2919,31.2762532 1131.14106,31.2056203 1130.95377,31.1545823 C1130.77104,31.099443 1130.55185,31.0721013 1130.29711,31.0721013 C1130.07565,31.0721013 1129.83094,31.0803038 1129.56299,31.0971646 C1129.29914,31.114481 1129.04668,31.1463797 1128.8038,31.1928608 L1127.78304,35.4677468 C1128.00041,35.5146835 1128.24238,35.5484051 1128.51078,35.5698228 C1128.77873,35.5912405 1129.03985,35.6017215 1129.29549,35.6017215 Z M1124.43959,35.6272405 C1124.69478,35.6272405 1124.91625,35.599443 1125.10309,35.5443038 C1125.29448,35.4932658 1125.43301,35.4440506 1125.51777,35.3975696 L1125.46719,34.8931139 C1125.44122,34.9145316 1125.39656,34.9382278 1125.33276,34.9637468 C1125.27352,34.9847089 1125.20334,35.0079494 1125.12223,35.0339241 C1125.04567,35.0553418 1124.96273,35.074481 1124.87342,35.0913418 C1124.78866,35.1036456 1124.70572,35.110481 1124.62461,35.110481 C1124.44187,35.110481 1124.29286,35.0913418 1124.17848,35.0530633 C1124.06775,35.0147848 1123.98025,34.9637468 1123.91646,34.8999494 C1123.85311,34.8320506 1123.808,34.7554937 1123.78248,34.6702785 C1123.76152,34.580962 1123.75104,34.4875443 1123.75104,34.3895696 L1123.75104,34.3385316 C1123.75104,34.3171139 1123.75286,34.2893165 1123.75696,34.2555949 C1123.91463,34.2469367 1124.08051,34.2387342 1124.25458,34.2296203 C1124.43367,34.2173165 1124.60775,34.1958987 1124.77772,34.1662785 C1124.95225,34.1362025 1125.11813,34.0956456 1125.27534,34.0450633 C1125.43711,33.9940253 1125.57747,33.9211139 1125.69686,33.8276962 C1125.8158,33.7342785 1125.91149,33.619443 1125.98349,33.4836456 C1126.05595,33.3432911 1126.09195,33.1728608 1126.09195,32.9728101 C1126.09195,32.8666329 1126.07281,32.764557 1126.03453,32.667038 C1125.99625,32.564962 1125.93701,32.4756456 1125.85635,32.3990886 C1125.77934,32.3225316 1125.67772,32.2628354 1125.54967,32.2204557 C1125.42663,32.173519 1125.27762,32.1502785 1125.10309,32.1502785 C1124.80142,32.1502785 1124.53119,32.2136203 1124.29286,32.3416709 C1124.05499,32.4647089 1123.85311,32.6328608 1123.68678,32.8452152 C1123.52137,33.0580253 1123.39332,33.3027342 1123.30446,33.5793418 C1123.21468,33.8554937 1123.17048,34.1425823 1123.17048,34.4401519 C1123.17048,34.6023797 1123.19554,34.7554937 1123.24704,34.8999494 C1123.29762,35.0444051 1123.37646,35.172 1123.48309,35.2827342 C1123.58927,35.3889114 1123.72096,35.4741266 1123.87818,35.5374684 C1124.03585,35.5971646 1124.22314,35.6272405 1124.44005,35.6272405 L1124.43959,35.6272405 Z M1123.83397,33.8026329 C1123.87225,33.649519 1123.92739,33.5046076 1123.99939,33.3688101 C1124.07185,33.2284557 1124.15934,33.1067848 1124.26142,33.0051646 C1124.36304,32.8985316 1124.47787,32.8137722 1124.60547,32.749519 C1124.73762,32.6861772 1124.87797,32.6538228 1125.02653,32.6538228 C1125.12041,32.6538228 1125.19878,32.667038 1125.26258,32.6921013 C1125.32684,32.713519 1125.37559,32.7435949 1125.40932,32.7818734 C1125.44805,32.8160506 1125.47311,32.8543291 1125.48633,32.8962532 C1125.50319,32.9390886 1125.51139,32.9796456 1125.51139,33.0179241 C1125.51139,33.1751392 1125.46901,33.3027342 1125.38425,33.4007089 C1125.30314,33.4986835 1125.1883,33.5770633 1125.03975,33.6363038 C1124.89073,33.6918987 1124.71392,33.732 1124.51023,33.7579747 C1124.30562,33.7789367 1124.08051,33.7939747 1123.83443,33.8026329 L1123.83397,33.8026329 Z M1121.24061,35.5443038 C1121.41514,35.3355949 1121.59377,35.0977215 1121.77651,34.8297722 C1121.9638,34.5618228 1122.14015,34.2829367 1122.30648,33.9940253 C1122.47646,33.700557 1122.63367,33.4029873 1122.77813,33.1008608 C1122.92304,32.7987342 1123.04197,32.5075443 1123.13539,32.2268354 L1122.53615,32.2268354 C1122.4719,32.4309873 1122.38714,32.6538228 1122.28051,32.8962532 C1122.17433,33.1391392 1122.05722,33.3815696 1121.92962,33.6235443 C1121.80248,33.8623291 1121.66805,34.0915443 1121.52815,34.3130127 C1121.3919,34.5294684 1121.25975,34.719038 1121.13215,34.8808101 C1121.09843,34.7017215 1121.06653,34.5044051 1121.03646,34.287038 C1121.00684,34.0660253 1120.98132,33.8386329 1120.9599,33.6044051 C1120.93894,33.3665316 1120.9198,33.130481 1120.90294,32.8962532 C1120.88972,32.6583797 1120.88152,32.4350886 1120.87696,32.2268354 L1120.27727,32.2268354 C1120.28592,32.5330633 1120.30324,32.8370127 1120.3283,33.1391392 C1120.35382,33.4412658 1120.38572,33.7342785 1120.424,34.0190886 C1120.46228,34.3002532 1120.50511,34.5700253 1120.55205,34.8297722 C1120.59853,35.0890633 1120.64729,35.3269367 1120.69833,35.5443038 L1121.24061,35.5443038 Z M1117.34987,34.9313924 C1117.256,34.8042532 1117.20952,34.632 1117.20952,34.4146329 C1117.20952,34.2195949 1117.23686,34.0172658 1117.292,33.808557 C1117.34759,33.6003038 1117.42643,33.4111899 1117.52805,33.2407595 C1117.63468,33.0666835 1117.76228,32.9240506 1117.91129,32.8137722 C1118.06441,32.703038 1118.2362,32.6478987 1118.42759,32.6478987 C1118.65727,32.6478987 1118.81904,32.7112405 1118.91246,32.8388354 C1119.00633,32.9668861 1119.05281,33.1391392 1119.05281,33.3555949 C1119.05281,33.5515443 1119.02547,33.7534177 1118.96987,33.9616709 C1118.91473,34.1703797 1118.83408,34.3617722 1118.7279,34.5363038 C1118.62537,34.7062785 1118.49777,34.8466329 1118.34466,34.9573671 C1118.1961,35.0676456 1118.02613,35.1227848 1117.83473,35.1227848 C1117.60461,35.1227848 1117.44329,35.059443 1117.34987,34.9313924 Z M1118.61306,35.4034937 C1118.85504,35.2549367 1119.05281,35.0653671 1119.20592,34.8356962 C1119.35904,34.6060253 1119.46977,34.3553924 1119.53767,34.0833418 C1119.61013,33.8108354 1119.64613,33.5515443 1119.64613,33.3050127 C1119.64613,32.9431899 1119.54633,32.6606582 1119.34628,32.4565063 C1119.15078,32.2482532 1118.87873,32.1438987 1118.52967,32.1438987 C1118.18562,32.1438987 1117.89215,32.2181772 1117.64927,32.3667342 C1117.40729,32.5157468 1117.20952,32.7053165 1117.05641,32.9345316 C1116.90284,33.1642025 1116.79028,33.4152911 1116.71782,33.6877975 C1116.64992,33.9598481 1116.61575,34.2195949 1116.61575,34.4661266 C1116.61575,34.8274937 1116.71372,35.1127595 1116.90922,35.3210127 C1117.10927,35.5251646 1117.38359,35.6272405 1117.7322,35.6272405 C1118.07671,35.6272405 1118.37018,35.552962 1118.61306,35.4034937 Z M1116.49089,30.5936203 L1115.87205,30.6952405 L1115.0682,34.0382278 C1115.03858,34.1530633 1115.01534,34.2637975 1114.99803,34.3704304 C1114.98116,34.4766076 1114.97251,34.5786835 1114.97251,34.6766582 C1114.97251,34.8083544 1114.98982,34.9295696 1115.024,35.0403038 C1115.05772,35.151038 1115.11104,35.2467342 1115.18304,35.3269367 C1115.25959,35.4080506 1115.35757,35.4741266 1115.47651,35.5251646 C1115.6,35.5721013 1115.74901,35.5971646 1115.92309,35.6017215 L1116.05706,35.1168608 C1115.86567,35.095443 1115.73397,35.0421266 1115.66197,34.9573671 C1115.59362,34.8721519 1115.55944,34.7573165 1115.55944,34.6128608 C1115.55944,34.5317468 1115.57038,34.4469873 1115.59134,34.3576709 C1115.61276,34.2678987 1115.63418,34.1767595 1115.65514,34.0833418 L1116.49089,30.5936203 Z M1111.41899,35.6272405 C1111.67418,35.6272405 1111.89519,35.599443 1112.08248,35.5443038 C1112.27342,35.4932658 1112.41195,35.4440506 1112.49671,35.3975696 L1112.44567,34.8931139 C1112.42015,34.9145316 1112.37595,34.9382278 1112.3117,34.9637468 C1112.25246,34.9847089 1112.18228,35.0079494 1112.10162,35.0339241 C1112.02506,35.0553418 1111.94167,35.074481 1111.85281,35.0913418 C1111.76759,35.1036456 1111.68466,35.110481 1111.60354,35.110481 C1111.42081,35.110481 1111.2718,35.0913418 1111.15696,35.0530633 C1111.04668,35.0147848 1110.95919,34.9637468 1110.89585,34.8999494 C1110.83159,34.8320506 1110.78694,34.7554937 1110.76187,34.6702785 C1110.74046,34.580962 1110.72952,34.4875443 1110.72952,34.3895696 L1110.72952,34.3385316 C1110.72952,34.3171139 1110.7318,34.2893165 1110.7359,34.2555949 C1110.89357,34.2469367 1111.05944,34.2387342 1111.23352,34.2296203 C1111.41215,34.2173165 1111.58668,34.1958987 1111.75666,34.1662785 C1111.93119,34.1362025 1112.09706,34.0956456 1112.25428,34.0450633 C1112.41605,33.9940253 1112.55641,33.9211139 1112.67534,33.8276962 C1112.79473,33.7342785 1112.89043,33.619443 1112.96243,33.4836456 C1113.03489,33.3432911 1113.07089,33.1728608 1113.07089,32.9728101 C1113.07089,32.8666329 1113.05175,32.764557 1113.01392,32.667038 C1112.97565,32.564962 1112.91595,32.4756456 1112.83484,32.3990886 C1112.75828,32.3225316 1112.6562,32.2628354 1112.52906,32.2204557 C1112.40557,32.173519 1112.25656,32.1502785 1112.08248,32.1502785 C1111.78035,32.1502785 1111.51013,32.2136203 1111.2718,32.3416709 C1111.03392,32.4647089 1110.83159,32.6328608 1110.66618,32.8452152 C1110.49985,33.0580253 1110.37271,33.3027342 1110.28294,33.5793418 C1110.19408,33.8554937 1110.14896,34.1425823 1110.14896,34.4401519 C1110.14896,34.6023797 1110.17494,34.7554937 1110.22552,34.8999494 C1110.27701,35.0444051 1110.35539,35.172 1110.46157,35.2827342 C1110.5682,35.3889114 1110.6999,35.4741266 1110.85757,35.5374684 C1111.01478,35.5971646 1111.20162,35.6272405 1111.41899,35.6272405 Z M1110.97833,33.3688101 C1111.05078,33.2284557 1111.13782,33.1067848 1111.2399,33.0051646 C1111.34243,32.8985316 1111.45681,32.8137722 1111.58441,32.749519 C1111.71656,32.6861772 1111.85691,32.6538228 1112.00592,32.6538228 C1112.09934,32.6538228 1112.17818,32.667038 1112.24152,32.6921013 C1112.30532,32.713519 1112.35453,32.7435949 1112.38825,32.7818734 C1112.42653,32.8160506 1112.45251,32.8543291 1112.46481,32.8962532 C1112.48213,32.9390886 1112.49078,32.9796456 1112.49078,33.0179241 C1112.49078,33.1751392 1112.44795,33.3027342 1112.36273,33.4007089 C1112.28208,33.4986835 1112.16724,33.5770633 1112.01823,33.6363038 C1111.86967,33.6918987 1111.69332,33.732 1111.48871,33.7579747 C1111.28501,33.7789367 1111.05944,33.7939747 1110.81246,33.8026329 C1110.85073,33.649519 1110.90633,33.5046076 1110.97833,33.3688101 Z M1107.21337,31.659038 C1106.91944,32.224557 1106.62597,32.7686582 1106.33251,33.2922532 C1106.04359,33.8153924 1105.75195,34.3020759 1105.45848,34.7532152 C1105.44618,34.4301266 1105.43934,34.1043038 1105.43934,33.7771139 C1105.43934,33.3259747 1105.448,32.8839494 1105.46532,32.4501266 C1105.48218,32.0117468 1105.50542,31.5692658 1105.53504,31.1231392 L1104.92304,31.1231392 C1104.89706,31.5442025 1104.87792,31.9438481 1104.86562,32.3225316 C1104.85241,32.6966582 1104.84603,33.0685063 1104.84603,33.4389873 C1104.84603,33.808557 1104.85241,34.1662785 1104.86562,34.5103291 C1104.87792,34.8548354 1104.90162,35.1993418 1104.93534,35.5443038 L1105.56101,35.5443038 C1105.87544,35.0553418 1106.17119,34.5723038 1106.44734,34.0956456 C1106.72851,33.6153418 1107.01332,33.1113418 1107.30223,32.5841013 C1107.34506,33.1496203 1107.4002,33.6727595 1107.46856,34.1530633 C1107.53646,34.6297215 1107.60663,35.0936203 1107.67863,35.5443038 L1108.3043,35.5443038 C1108.67843,34.8931139 1109.03342,34.204557 1109.36927,33.4772658 C1109.70967,32.749519 1110.05008,31.9652658 1110.39003,31.1231392 L1109.73291,31.1231392 C1109.60577,31.4507848 1109.4718,31.7797975 1109.33099,32.112 C1109.19519,32.4396456 1109.05666,32.7604557 1108.9163,33.0753418 C1108.78051,33.3856709 1108.64197,33.6832405 1108.50208,33.9685063 C1108.36582,34.2533165 1108.23367,34.5148861 1108.10608,34.7532152 C1108.04684,34.3321519 1107.98486,33.8536709 1107.92106,33.3173165 C1107.86182,32.7818734 1107.81489,32.2291139 1107.78116,31.659038 L1107.21337,31.659038 Z M1124.34618,2.07979747 C1122.19256,2.08025316 1119.6958,3.55625316 1117.31478,6.23529114 L1115.95225,7.76962025 L1114.58972,6.23529114 C1112.09889,3.43093671 1109.43397,1.82232911 1107.27899,1.82232911 C1104.1242,1.82232911 1103,5.26511392 1103,8.48688608 C1103,14.7034937 1111.50967,23.1033418 1115.95225,26.8195443 C1120.39484,23.1037975 1128.90451,14.7034937 1128.90451,8.48688608 C1128.90451,4.65448101 1127.07306,2.07979747 1124.34618,2.07979747 Z M1139.02962,8.82683544 L1139.68446,6.19837975 L1138.08496,5.79964557 L1137.44653,8.35883544 C1137.02592,8.25402532 1136.59392,8.15513924 1136.16511,8.05716456 L1136.80765,5.48111392 L1135.20815,5.08237975 L1134.55286,7.70946835 C1134.20425,7.63063291 1133.86248,7.55225316 1133.53073,7.46977215 L1133.53256,7.46156962 L1131.32653,6.91063291 L1130.90046,8.61949367 C1130.90046,8.61949367 1132.08754,8.8915443 1132.06294,8.90840506 C1132.71094,9.07017722 1132.82759,9.49898734 1132.80846,9.83893671 L1132.06203,12.8333165 C1132.10623,12.8447089 1132.1641,12.8611139 1132.2279,12.8866329 L1132.05884,12.8447089 L1131.01256,17.0393924 C1130.93327,17.2362532 1130.73276,17.5315443 1130.2798,17.419443 C1130.29575,17.4426835 1129.11686,17.1291646 1129.11686,17.1291646 L1128.32258,18.9601519 L1130.4042,19.4796456 C1130.792,19.5767089 1131.17159,19.6783291 1131.54481,19.7740253 L1130.88268,22.432557 L1132.48127,22.8312911 L1133.13656,20.2010127 C1133.57311,20.3194937 1133.99691,20.4288608 1134.41159,20.5318481 L1133.75813,23.1498228 L1135.35808,23.548557 L1136.0202,20.895038 C1138.74891,21.4108861 1140.80046,21.2026329 1141.66354,18.7354937 C1142.35939,16.7482025 1141.62891,15.6025823 1140.19392,14.8552405 C1141.23884,14.6141772 1142.02628,13.9265316 1142.23681,12.5061266 C1142.52709,10.5657722 1141.04927,9.52222785 1139.02962,8.82683544 Z M1150.39195,14.5822785 C1150.39195,22.6357975 1143.86319,29.164557 1135.80967,29.164557 C1130.55641,29.164557 1125.95342,26.3852658 1123.38648,22.2183797 C1127.06486,18.2041519 1130.72729,13.0597975 1130.72729,8.48688608 C1130.72729,5.67296203 1129.88061,3.41498734 1128.47433,1.98091139 C1130.62977,0.72364557 1133.13428,0 1135.80967,0 C1143.86319,0 1150.39195,6.52875949 1150.39195,14.5822785 Z M1134.53554,14.7531646 L1133.65696,18.2752405 C1134.74152,18.5450127 1138.08678,19.6190886 1138.58076,17.6322532 C1139.09752,15.5602025 1135.61965,15.0243038 1134.53554,14.7531646 Z M1139.07565,12.4774177 C1138.62451,14.2847089 1135.84066,13.366481 1134.93701,13.1413671 L1135.73357,9.94693671 C1136.63722,10.1720506 1139.54592,10.5922025 1139.07565,12.4774177 Z" id="ICN/Misc/Bitcoin"></path>
        </g>
      </g>
    </g>
  </g>
</svg>
