<?xml version="1.0" encoding="utf-8"?>
<!-- Generator: Adobe Illustrator 24.0.0, SVG Export Plug-In . SVG Version: 6.00 Build 0)  -->
<svg version="1.1" id="Layer_1" xmlns="http://www.w3.org/2000/svg" xmlns:xlink="http://www.w3.org/1999/xlink" x="0px" y="0px"
	 viewBox="0 0 96 36" style="enable-background:new 0 0 96 36;" xml:space="preserve">
<style type="text/css">
	.st0{fill:#C1C1C1;}
</style>
<g id="XMLID_64_">
	<path id="XMLID_151_" class="st0" d="M16.6,6.7C7.5,6.7,0.1,11,0.1,16.4c0,2.3,1.3,4.4,3.6,6C2.6,21,2,19.5,2,17.9
		C2,12.3,9.2,7.8,18.1,7.8c5.7,0,10.8,1.9,13.6,4.7C29.2,9.1,23.4,6.7,16.6,6.7z"/>
	<path id="XMLID_148_" class="st0" d="M15.2,19.1c0.7,0,1.2-0.1,1.6-0.4c0.5-0.3,0.7-0.8,0.7-1.4c0-1.1-0.4-2.1-1.1-3.1
		c-0.7-0.9-1.6-1.6-2.8-2.1c-0.8-0.3-1.7-0.5-2.6-0.5c-1.9,0-3.5,0.6-4.8,1.9c-1.3,1.3-1.9,2.8-1.9,4.6c0,1.8,0.7,3.3,2,4.5
		c1.3,1.2,2.9,1.8,4.9,1.8c1,0,2.1-0.1,3-0.4c1.1-0.3,2-0.8,2.5-1.5c0.3-0.4,0.4-0.7,0.4-1.1c0-0.9-0.5-1.4-1.6-1.4
		c-0.2,0-0.8,0.2-1.8,0.6c-0.9,0.4-1.8,0.6-2.4,0.6c-0.8,0-1.5-0.2-2-0.6c-0.6-0.4-0.9-0.9-1-1.6H15.2z M9.3,15.2
		c0.5-0.4,1.1-0.6,1.8-0.6c0.7,0,1.3,0.2,1.8,0.6c0.5,0.4,0.7,0.9,0.8,1.5H8.4C8.5,16.1,8.8,15.6,9.3,15.2z"/>
	<path id="XMLID_146_" class="st0" d="M19.7,22.6c1.2,1.2,2.8,1.9,4.8,1.9c1.2,0,2.2-0.2,3-0.5c1.1-0.5,1.7-1.1,1.7-1.9
		c0-0.4-0.1-0.8-0.4-1.1c-0.3-0.3-0.7-0.5-1.1-0.5c-0.3,0-0.7,0.1-1.2,0.3c-0.5,0.2-1,0.3-1.5,0.3c-0.9,0-1.7-0.3-2.2-0.9
		C22.3,19.6,22,18.9,22,18c0-0.8,0.2-1.6,0.7-2.1c0.5-0.6,1.2-0.9,2.1-0.9c0.6,0,1.1,0.1,1.6,0.3c0.5,0.2,0.9,0.3,1.2,0.3
		c0.5,0,0.9-0.1,1.2-0.4c0.3-0.3,0.5-0.7,0.5-1.1c0-0.8-0.5-1.5-1.6-1.9c-0.8-0.3-1.7-0.4-2.8-0.4c-2.1,0-3.7,0.6-5,1.8
		c-1.2,1.2-1.9,2.7-1.9,4.6C17.9,19.9,18.5,21.4,19.7,22.6L19.7,22.6z"/>
	<path id="XMLID_138_" class="st0" d="M31.2,22.7c1.3,1.3,2.9,1.9,4.9,1.9c2,0,3.6-0.6,4.9-1.9c1.2-1.2,1.8-2.7,1.8-4.6
		c0-1.8-0.6-3.4-1.8-4.6c-1.2-1.2-2.8-1.9-4.9-1.9c-2,0-3.6,0.6-4.8,1.9c-1.3,1.2-1.9,2.8-1.9,4.6C29.3,19.9,29.9,21.4,31.2,22.7
		L31.2,22.7z M34,16c0.5-0.6,1.1-1,2-1c0.9,0,1.5,0.3,2,1c0.4,0.6,0.6,1.2,0.6,2.1c0,0.8-0.2,1.5-0.6,2.1c-0.5,0.7-1.1,1-2,1
		c-0.9,0-1.5-0.3-2-1c-0.4-0.6-0.6-1.3-0.6-2.1C33.4,17.3,33.6,16.6,34,16L34,16z"/>
	<path id="XMLID_101_" class="st0" d="M48.3,11.3h1.8c1.9,0,2.8,0.7,2.8,2.1c0,1.4-0.9,2.2-2.8,2.2h-1.8V11.3z M48.3,21.7V19h2.7
		c1.9,0,3.5-0.5,4.6-1.5c1.1-1,1.7-2.3,1.7-4.1c0-1.8-0.6-3.1-1.8-4.1c-1.2-0.9-2.7-1.4-4.7-1.4h-3.7c-1.1,0-1.8,0.2-2.2,0.6
		c-0.4,0.4-0.6,1.1-0.6,2v11.2c0,1.8,0.7,2.6,2,2.6C47.6,24.4,48.3,23.5,48.3,21.7L48.3,21.7z"/>
	<path id="XMLID_95_" class="st0" d="M62.3,16.1c0.5-0.6,1.1-0.9,1.9-0.9c0.8,0,1.5,0.3,1.9,0.9c0.4,0.5,0.6,1.2,0.6,2
		c0,0.8-0.2,1.5-0.6,2C65.7,20.7,65,21,64.2,21c-0.8,0-1.5-0.3-2-0.9c-0.4-0.6-0.6-1.2-0.6-2C61.6,17.3,61.8,16.6,62.3,16.1
		L62.3,16.1z M68.8,24.4c1.3,0,2-0.9,2-2.6v-7.3c0-1.7-0.7-2.6-2-2.6c-0.8,0-1.4,0.4-1.9,1.1c-0.8-0.9-1.9-1.3-3.2-1.3
		c-1.8,0-3.3,0.7-4.5,2c-1.1,1.2-1.7,2.7-1.7,4.4c0,1.7,0.5,3.1,1.6,4.4c1.2,1.3,2.6,2,4.4,2c1.4,0,2.5-0.5,3.3-1.4
		C67.3,23.9,67.9,24.4,68.8,24.4L68.8,24.4z"/>
	<path id="XMLID_81_" class="st0" d="M79.9,13.3L77.5,19l-2.3-5.4c-0.2-0.6-0.5-1-0.7-1.2c-0.3-0.3-0.8-0.5-1.4-0.5
		c-0.6,0-1,0.2-1.4,0.5c-0.4,0.3-0.6,0.8-0.6,1.3c0,0.4,0.1,0.7,0.2,1l4,8.5l-1.6,3.2c-0.2,0.5-0.3,0.9-0.3,1.2c0,0.5,0.2,1,0.5,1.3
		c0.4,0.3,0.8,0.5,1.4,0.5c0.7,0,1.3-0.5,1.7-1.5l6.1-13.1c0.2-0.5,0.3-0.9,0.3-1.2c0-1.1-0.7-1.7-2-1.7
		C80.9,11.8,80.4,12.3,79.9,13.3L79.9,13.3z"/>
	<path id="XMLID_69_" class="st0" d="M93.4,20.8h-3.9l5.3-6.2c0.5-0.6,0.8-1.2,0.8-1.6c0-0.5-0.2-0.8-0.6-0.9
		c-0.4-0.1-1-0.2-1.9-0.2h-6.4c-1.7,0-2.5,0.5-2.5,1.6c0,1.1,0.8,1.7,2.5,1.7h3.4l-5.5,6.4c-0.4,0.5-0.6,0.9-0.6,1.4
		c0,0.7,0.7,1.1,2.1,1.1h7.2c1.7,0,2.5-0.6,2.5-1.7C95.9,21.4,95.1,20.8,93.4,20.8L93.4,20.8z"/>
</g>
</svg>
