<?xml version="1.0" encoding="UTF-8"?>
<svg width="83px" height="47px" viewBox="0 0 83 47" version="1.1" xmlns="http://www.w3.org/2000/svg" xmlns:xlink="http://www.w3.org/1999/xlink">
    <!-- Generator: Sketch 52.4 (67378) - http://www.bohemiancoding.com/sketch -->
    <title>ICN/Misc/Esic</title>
    <desc>Created with Sketch.</desc>
    <g id="Symbols" stroke="none" stroke-width="1" fill="none" fill-rule="evenodd">
        <g id="BLCK/Footer" transform="translate(-148.000000, -486.000000)">
            <g id="Group-6">
                <g transform="translate(0.000000, 160.000000)">
                    <g id="Group" transform="translate(116.000000, 64.000000)">
                        <g id="ICN/Misc/Esic" transform="translate(32.000000, 262.000000)">
                            <path d="M48.1444897,18.6041667 C47.9206255,17.7097794 48.0243457,16.9407639 48.0218464,16.1830524 C48.004887,11.0263669 48.0191686,5.8693388 48.0081003,0.71265325 C48.0070292,0.220757379 48.1296725,-0.0205661879 48.7032577,0.00358329606 C49.562832,0.0402357043 50.4261553,0.0306444199 51.2864438,0.00118547496 C51.8320013,-0.017654548 52.0015954,0.186845337 51.9999887,0.702034328 C51.984636,5.26097733 51.9921338,9.81992034 51.9908842,14.3788633 C51.9907057,14.6306346 51.9833863,14.8519192 51.754345,15.0699496 C50.5582602,16.2095998 49.3914527,17.3773386 48.1444897,18.6041667" id="Fill-1" fill="#008FB2"></path>
                            <path d="M52.9849374,16.6458333 L52.9849374,27.7634971 C52.9849374,29.6556417 52.960931,31.5481255 52.9993049,33.4395918 C53.01149,34.0483746 52.8687245,34.317494 52.1532603,34.2642467 C51.3706873,34.2060816 50.5764748,34.2116777 49.7928105,34.2623813 C49.1277235,34.3052844 48.9969612,34.0534619 49.000053,33.4858864 C49.02315,29.3063123 49.0124199,25.1267382 49.0142386,20.9469945 C49.0142386,20.6687179 48.9720455,20.3839975 49.221203,20.1530331 C50.4151589,19.0462014 51.6034769,17.9342824 52.9849374,16.6458333" id="Fill-3" fill="#DF314E"></path>
                            <path d="M8.81098295,43.4160876 C8.81168189,42.8235458 8.53350084,42.5509458 7.92279558,42.5198404 C7.11481242,42.4788222 7.50604821,43.0672622 7.38687768,43.404124 C7.528764,43.7138113 7.08353453,44.3172913 7.90200189,44.287724 C8.50327137,44.2660185 8.810284,44.0211058 8.81098295,43.4160876 Z M9.44055979,43.6897131 C9.31352611,44.4100949 8.87650926,44.8346331 8.13090716,44.7946404 C7.47791558,44.7597749 7.32729242,45.0275895 7.39736189,45.5869749 C7.432484,45.8674367 7.40487558,46.1552476 7.40312821,46.4398113 C7.40190505,46.6648985 7.44489032,46.9292949 7.09821242,46.940404 C6.69561874,46.9533931 6.73912821,46.6573785 6.738604,46.4022113 C6.73755558,45.7478004 6.73825453,45.0932185 6.73842926,44.4388076 C6.73877874,43.8127676 6.765164,43.1853604 6.72986716,42.5612004 C6.70383137,42.1021385 6.884684,41.9975422 7.32973874,41.986604 C8.96125663,41.9462695 9.65303979,42.4839495 9.44055979,43.6897131 Z M64.5303682,44.3456622 C64.3778229,43.8660913 64.4213324,43.3290949 64.0987682,42.8635385 C63.9809956,43.3687458 63.8700377,43.8370367 63.7634482,44.3063531 C63.7215114,44.4914476 63.5738587,44.7367022 63.8050356,44.8399313 C63.9974208,44.9258985 64.2783977,44.9308549 64.4805682,44.8614658 C64.7599724,44.7655858 64.5827893,44.5100767 64.5303682,44.3456622 Z M65.552404,46.9229713 C65.2990356,46.9756113 65.1001851,46.8983604 65.0526566,46.5992695 C65.0173598,46.3760622 64.9132166,46.1595204 64.9032566,45.9371676 C64.8815893,45.4546913 64.5791198,45.4297385 64.1929514,45.4235858 C63.7842419,45.4169204 63.4819472,45.440164 63.3713387,45.9320404 C63.2893872,46.2957349 63.4221872,47.0210731 62.8387408,46.8829785 C62.2690987,46.7481313 62.7623808,46.1622549 62.8305282,45.8151385 C63.0484251,44.7052549 63.3676693,43.614684 63.6322208,42.5131749 C63.7021156,42.2224585 63.7146966,41.9172149 64.1225324,42.0160004 C64.4875577,41.9447313 64.6172124,42.1270913 64.6862335,42.4137058 C65.0114187,43.7626913 65.3435935,45.1101385 65.6755935,46.4575858 C65.7203261,46.6385785 65.8721724,46.8566585 65.552404,46.9229713 Z M61.1654608,42.9274585 C61.0751219,42.6461422 60.8338103,42.4492549 60.5089745,42.4559204 C60.1860608,42.4625858 59.9893072,42.6741713 59.8617493,42.9474549 C59.8058335,43.0672622 59.7647703,43.1891204 59.7347156,43.3125167 C59.7175914,43.3819058 59.7048356,43.4518076 59.6940019,43.5220513 C59.6471724,43.8262695 59.6511914,44.1376658 59.6503177,44.4480367 C59.6534629,44.9187204 59.6431535,45.3924804 59.8114251,45.8378695 C59.8355387,45.9014476 59.8631472,45.9643422 59.895124,46.026724 C60.0160419,46.2630913 60.1902545,46.4509204 60.4866082,46.4640804 C60.8243745,46.4791204 61.0513577,46.2897531 61.1481619,46.0086076 C61.4999072,44.9874258 61.4941408,43.9518876 61.1654608,42.9274585 Z M62.0187008,44.5312695 C61.960164,45.0937313 62.0007029,45.6391022 61.7674293,46.1484113 C61.5187787,46.6917313 61.1242229,47.0087676 60.4935977,46.9988549 C59.8673408,46.9891131 59.4509429,46.6891676 59.2519177,46.116964 C58.8760587,45.035964 58.8718651,43.9465895 59.2365408,42.862684 C59.4395851,42.2585204 59.8821935,41.9221713 60.5355345,41.9206331 C61.1963893,41.9190949 61.6033514,42.2786876 61.8193261,42.8780658 C62.0169535,43.4265131 61.9755408,43.9964949 62.0187008,44.5312695 Z M12.329484,42.9129313 C12.2284861,42.6179422 11.9840293,42.4456658 11.6693282,42.4586549 C11.3944672,42.4701058 11.2024314,42.6490476 11.0780187,42.8948149 C10.8386293,43.3682331 10.8741008,43.8836949 10.8152145,44.4316295 C10.8828377,44.9445276 10.8104966,45.5271567 11.097764,46.0438149 C11.4149114,46.6146513 12.0436145,46.6450731 12.2873724,46.0561204 C12.711284,45.0316913 12.6887429,43.9633385 12.329484,42.9129313 Z M12.9719914,46.1058549 C12.7568903,46.652764 12.3591893,46.9880876 11.7261177,46.9990258 C11.054604,47.0104767 10.6088503,46.6773749 10.4155914,46.0822695 C10.0835914,45.0593785 10.0799219,44.0130731 10.3752272,42.9795858 C10.5670882,42.3084258 11.0269956,41.9011495 11.7663072,41.9228549 C12.4671766,41.943364 12.8554419,42.355084 13.0445072,42.9988985 C13.1830735,43.4711204 13.1982756,43.9482985 13.202644,44.5502404 C13.2246608,45.002124 13.1830735,45.569884 12.9719914,46.1058549 Z M78.2213493,42.9488222 C78.1287387,42.6570804 77.8951156,42.4610476 77.5814629,42.4576295 C77.2678103,42.4538695 77.0609219,42.6526367 76.9319661,42.9353204 C76.8942229,43.0180404 76.8659156,43.1019567 76.8412777,43.1863858 C76.7226314,43.5919531 76.7332903,44.0154658 76.6911787,44.4335095 C76.7462208,44.9641822 76.7093514,45.5081858 76.9508377,46.0111713 C77.0838124,46.2877022 77.2770714,46.479804 77.6118672,46.4616876 C77.9029787,46.4461349 78.1014798,46.2788149 78.191644,46.0221095 C78.5488061,45.0029785 78.5465345,43.9739349 78.2213493,42.9488222 Z M78.8946103,45.9588731 C78.6887703,46.5885022 78.2970103,46.9834731 77.5833851,46.9966331 C76.8622461,47.0097931 76.4392082,46.6165313 76.2562587,45.9877567 C75.9651472,44.9865713 75.9564103,43.968124 76.2538124,42.9650585 C76.4523135,42.2956076 76.9123956,41.8917495 77.6545029,41.9233676 C78.3558966,41.9531058 78.7352503,42.3687567 78.9204714,43.0134258 C79.0565914,43.4866731 79.0712693,43.9631676 79.0752882,44.4451313 C79.0829766,44.9575167 79.0562419,45.4647749 78.8946103,45.9588731 Z M16.2037493,43.3320004 C16.2011282,42.7796222 15.9234714,42.5396658 15.3499851,42.5065095 C14.5923261,42.4624149 14.8168629,42.9748004 14.7764987,43.4065167 C14.8678861,43.6741604 14.5442735,44.2114985 15.274324,44.186204 C15.8577703,44.1660367 16.2065451,43.9400949 16.2037493,43.3320004 Z M16.8272103,46.6681458 C16.8473051,46.833244 16.7539956,46.9274149 16.5741914,46.9325422 C16.3262398,46.9397204 16.1885472,46.8211095 16.1764903,46.5854258 C16.1576187,46.2171167 16.1487072,45.8479531 16.1462608,45.4789604 C16.1425914,44.8961604 15.8018545,44.6842331 15.2559766,44.6736367 C14.6173135,44.6615022 14.8039324,45.1255204 14.7873324,45.4567422 C14.7689851,45.8250513 14.7817408,46.1948985 14.7845366,46.5638913 C14.7861093,46.7891495 14.7370082,46.9597167 14.4471198,46.9327131 C14.2096524,46.9104949 14.1878103,46.7500113 14.1878103,46.5710695 C14.1874608,45.861284 14.1876356,45.1514985 14.1878103,44.4417131 C14.1878103,43.7888404 14.2072061,43.1349422 14.1802966,42.4830949 C14.1649198,42.1142731 14.2807703,41.9625058 14.6672882,42.0009604 C14.9258987,42.0265967 15.1894019,42.0011313 15.4504587,42.0074549 C16.6641808,42.037364 17.256364,43.0484622 16.6245156,44.0605858 C16.4646314,44.3167785 16.3531493,44.4430804 16.5637072,44.7566985 C16.9477787,45.3285604 16.7492777,46.0268949 16.8272103,46.6681458 Z M43.9274966,43.2952549 C43.9115956,42.7040804 43.5748777,42.4964258 43.009604,42.5128331 C42.179604,42.531804 42.6225619,43.1614331 42.5469008,43.5182913 C42.4791029,43.8390876 42.4441556,44.220044 43.0207872,44.1839822 C43.6154166,44.146724 43.9442714,43.9149713 43.9274966,43.2952549 Z M44.5182819,46.4471604 C44.4917219,46.6631895 44.6224251,46.9277567 44.2470903,46.932884 C43.9105472,46.9374985 43.9098482,46.6924149 43.9033829,46.4584404 C43.8932482,46.0901313 43.9086251,45.7189167 43.8651156,45.3545385 C43.8022103,44.8300185 43.4291472,44.6664585 42.9360398,44.671244 C42.3263829,44.676884 42.5682187,45.1287676 42.5400861,45.4155531 C42.5070608,45.7529276 42.5350187,46.0956004 42.5313493,46.4358804 C42.5289029,46.6560113 42.5842945,46.9222876 42.2292293,46.931004 C41.8909387,46.9395495 41.8879682,46.7030113 41.8888419,46.4635676 C41.8914629,45.7830076 41.8897156,45.1022767 41.8900651,44.4217167 C41.8904145,43.9964949 41.8904145,43.5709313 41.8904145,43.1455385 C41.8900651,41.9679749 41.8900651,41.9679749 43.1874861,42.0057458 C44.1382293,42.0332622 44.8469619,42.5955531 44.5280672,43.3340513 C44.0531324,44.4338513 44.6442672,45.417604 44.5182819,46.4471604 Z M74.4826798,46.4774113 C74.4842524,46.6625058 74.4260651,46.897164 74.735524,46.9224585 C75.0282082,46.946044 75.0619324,46.7594113 75.0617577,46.5416731 C75.0607093,45.1516695 75.0610587,43.7616658 75.0589619,42.3718331 C75.0586124,42.1988731 75.0470798,42.0339458 74.8024482,42.016684 C74.5062693,41.996004 74.4800587,42.1759713 74.4805829,42.3925131 C74.4826798,43.0448731 74.4812819,43.697404 74.4807577,44.3499349 C74.4800587,45.0590367 74.4763893,45.7683095 74.4826798,46.4774113 Z M26.5986693,42.4244731 C26.6025135,42.1580258 26.5434524,41.980964 26.2214124,41.9985676 C25.9283787,42.0146331 25.9301261,42.210324 25.9303008,42.4176367 C25.931524,43.7797822 25.9329219,45.1419276 25.9287282,46.5039022 C25.9280293,46.7614622 25.9755577,46.9674076 26.3012672,46.9414295 C26.5728082,46.9195531 26.5981451,46.7255713 26.5969219,46.5107385 C26.5929029,45.8296658 26.595524,45.148764 26.595524,44.4675204 C26.595524,43.7866185 26.5890587,43.1055458 26.5986693,42.4244731 Z M46.1892903,42.4607058 C46.1906882,42.2217749 46.1994251,41.9975422 45.8511745,41.9973713 C45.5018756,41.9970295 45.5135829,42.2219458 45.5141072,42.4605349 C45.5169029,43.7958476 45.5167282,45.1311604 45.5144566,46.4664731 C45.5139324,46.7062585 45.516204,46.9402331 45.8516987,46.940404 C46.1878924,46.9405749 46.1898145,46.7060876 46.1885914,46.4664731 C46.1852714,45.8129167 46.1873682,45.1595313 46.1877177,44.5061458 C46.1878924,43.8243895 46.1854461,43.1424622 46.1892903,42.4607058 Z M70.2479324,42.4940331 C70.2467093,42.2757822 70.3083914,42.0182222 69.9465114,41.9966876 C69.6021051,41.9763495 69.5893493,42.1846876 69.5902229,42.4345567 C69.5949408,43.7968731 69.5937177,45.1590185 69.5910966,46.521164 C69.5907472,46.7339458 69.6022798,46.9301495 69.8874503,46.9433095 C70.2178777,46.9586913 70.2524756,46.7481313 70.2505535,46.4956985 C70.2453114,45.8146258 70.2488061,45.1335531 70.2491556,44.4523095 C70.2493303,43.7996076 70.2519514,43.1469058 70.2479324,42.4940331 Z M32.3999324,46.1943858 C32.4224735,46.4485276 32.1553008,46.9318585 32.7011787,46.9053676 C33.2047703,46.8809276 32.9639829,46.4146876 32.9734187,46.1514876 C33.0050461,45.2701095 33.0006777,44.3865095 32.9809324,43.5042767 C32.9681766,42.937884 32.906844,42.3826004 33.7869935,42.531804 C33.9781556,42.5642767 34.1249345,42.4654913 34.1181198,42.2421131 C34.1123535,42.0496695 33.9647008,42.0195895 33.8191451,42.018564 C33.0623598,42.0132658 32.3057493,42.0141204 31.5487893,42.016684 C31.3777219,42.0171967 31.2784714,42.1070949 31.2912272,42.2797131 C31.3031093,42.4401967 31.3957198,42.5671822 31.5667872,42.5324876 C32.5432166,42.3345749 32.3943408,42.9913785 32.3883998,43.5476876 C32.3840314,43.9462476 32.3875261,44.3448076 32.3875261,44.7433676 C32.3875261,45.2273822 32.3571219,45.7137895 32.3999324,46.1943858 Z M18.5310693,46.3326513 C18.5377093,46.5589349 18.3993177,46.8997276 18.8181619,46.9173313 C19.2651387,46.9363022 19.1124187,46.5780767 19.115564,46.3620476 C19.1298924,45.3692367 19.1349598,44.3757422 19.1162629,43.3831022 C19.1064777,42.8705458 19.0655893,42.3875567 19.8447408,42.5362476 C20.0743451,42.5798295 20.2583429,42.4984767 20.2314335,42.2245095 C20.2076693,41.9818185 20.0046251,42.0122404 19.8342566,42.0118985 C19.1381051,42.0103604 18.4417787,42.0096767 17.7456272,42.0134367 C17.5691429,42.0144622 17.3905619,42.0245458 17.3968524,42.2739022 C17.4027935,42.5107822 17.5728124,42.5649604 17.7491219,42.533684 C18.5623472,42.3896076 18.5633956,42.881484 18.5314187,43.4389895 C18.5071303,43.8631858 18.5267008,44.2897749 18.5263514,44.7155095 C18.5261766,45.2545567 18.5155177,45.7939458 18.5310693,46.3326513 Z M66.4912651,46.4683531 C66.4847998,46.7799204 66.5772356,46.9551022 66.9265345,46.9491204 C67.4491724,46.9402331 67.9721598,46.9480949 68.4949724,46.9448476 C68.7223051,46.9436513 68.9083998,46.8696476 68.895644,46.6086695 C68.8841114,46.3738404 68.6828145,46.3770876 68.5106987,46.3709349 C68.3076545,46.3637567 68.0998924,46.342564 67.9015661,46.3733276 C67.2763577,46.4700622 67.1173472,46.2078876 67.1439072,45.6228658 C67.1917851,44.5736549 67.1571872,43.5208549 67.1578861,42.469764 C67.1578861,42.2407458 67.1921345,41.9999349 66.8332251,41.9994222 C66.485324,41.9990804 66.4924882,42.2233131 66.4940608,42.4624149 C66.4979051,43.1159713 66.495284,43.7693567 66.4954587,44.4229131 C66.4956335,45.1048404 66.5054187,45.7867676 66.4912651,46.4683531 Z M47.9396293,46.4222076 C47.943124,46.6314004 47.8527851,46.9195531 48.2157135,46.9390367 C48.6151619,46.9605713 48.587204,46.667804 48.5873787,46.4097313 C48.5886019,45.3854731 48.6123661,44.3607022 48.5779429,43.3378113 C48.5597703,42.800644 48.6289661,42.4422476 49.3048482,42.5463313 C49.4717219,42.5721385 49.6681261,42.5495785 49.6918903,42.313724 C49.7128587,42.1043604 49.6083661,42.001644 49.3915177,42.0019858 C48.6354314,42.0024985 47.8793451,42.0006185 47.123084,42.0004476 C46.9534145,42.0004476 46.8522419,42.074964 46.8480482,42.2508295 C46.8431556,42.4619022 46.9513177,42.5868367 47.1634482,42.5473567 C48.0841366,42.3755931 47.9401535,42.9973604 47.9370082,43.520684 C47.9345619,43.9189022 47.936484,44.3171204 47.936484,44.7155095 C47.936484,45.2844658 47.9300187,45.8534222 47.9396293,46.4222076 Z M51.4518398,46.5938004 C51.4113008,46.842644 51.5779998,46.9597167 51.8243787,46.9335676 C52.0992398,46.9043422 52.1338377,46.6946367 52.0995893,46.491084 C51.8567051,45.0474149 52.6028314,43.8601095 53.1230229,42.6105931 C53.1950145,42.4374622 53.4815829,42.1937458 53.1958882,42.0418076 C52.8857303,41.8770513 52.7041787,42.0923967 52.5638651,42.4025967 C52.3157387,42.9505313 52.2194587,43.5741785 51.8331156,44.0580222 C51.0751072,43.5157276 51.5192882,42.165204 50.1402651,41.9385785 C50.7464272,43.5565749 51.7254777,44.9151313 51.4518398,46.5938004 Z M72.0290251,46.4697204 C72.0307724,46.6573785 71.9696145,46.8942585 72.2776756,46.9224585 C72.6447977,46.9557858 72.6135198,46.6980549 72.6135198,46.4692076 C72.6142187,45.4741749 72.6353619,44.4782876 72.6049577,43.4839385 C72.5869598,42.8968658 72.5668651,42.3860185 73.4201051,42.5324876 C73.6091703,42.5651313 73.7624145,42.4682258 73.7477366,42.2439931 C73.736204,42.0657349 73.6058503,42.0149749 73.4478882,42.0144622 C72.7209829,42.0122404 71.9944272,42.0132658 71.2676966,42.0105313 C71.0693703,42.0098476 70.9204945,42.0638549 70.9355219,42.2921895 C70.9463556,42.4589967 71.0532945,42.5651313 71.2203429,42.533684 C72.2121493,42.3458549 72.0293745,43.0231676 72.0283261,43.5697349 C72.0274524,43.9677822 72.0281514,44.3658295 72.0274524,44.7638767 C72.0267535,45.3324913 72.023084,45.9012767 72.0290251,46.4697204 Z M55.6456987,46.2073749 C55.8780987,46.7216404 56.2820903,47.0056913 56.8749724,46.9990258 C57.4535261,46.9925313 57.8952608,46.7633422 58.1024987,46.2196804 C58.1804314,46.0156149 58.4656019,45.7322476 58.0766377,45.5743276 C57.7523261,45.4427276 57.6310587,45.6961858 57.5403703,45.9672476 C57.4302861,46.2957349 57.1896735,46.4989458 56.8160861,46.4522876 C56.4442461,46.4054585 56.2785956,46.1179895 56.1996145,45.8096695 C55.9997156,45.0279313 55.9665156,44.2366222 56.1286714,43.4400149 C56.2170882,43.0057349 56.3249008,42.5649604 56.8461408,42.4841204 C57.3104166,42.4119967 57.5036756,42.7411676 57.6134103,43.1328913 C57.6812082,43.3754113 57.8851261,43.4307858 58.0976061,43.3499458 C58.3102608,43.2692767 58.2557429,43.0761495 58.2110103,42.9113931 C58.0631829,42.3670476 57.7350272,42.0001058 57.1388251,41.9343058 C56.5321387,41.8673095 56.0580777,42.080604 55.7568314,42.6181131 C55.4209872,43.2174913 55.416444,43.8720731 55.4202882,44.528364 C55.4206377,45.0976622 55.4042124,45.6727713 55.6456987,46.2073749 Z M34.8280756,46.4435713 C34.829124,46.6337931 34.7772272,46.9019495 35.0599514,46.9123749 C35.7265724,46.9371567 36.3956398,46.9277567 37.0626103,46.900924 C37.2022251,46.895284 37.2803324,46.7153167 37.2572672,46.5632076 C37.2380461,46.4355385 37.1255156,46.3888804 37.0005787,46.3873422 C36.6514545,46.3827276 36.3021556,46.3883676 35.9533808,46.3746949 C35.7636166,46.3671749 35.5614461,46.4167385 35.4539829,46.152684 C35.1134208,45.3164258 35.539604,44.6331313 36.4223745,44.5921131 C36.6610651,44.581004 37.1038482,44.7912222 37.0860251,44.3183167 C37.0690756,43.8698513 36.6392229,44.1274113 36.3966882,44.0628076 C36.0881029,43.9807713 35.6713556,44.2485858 35.4711072,43.8302004 C35.1261766,43.1096476 35.5175872,42.5500913 36.3477619,42.5461604 C36.522324,42.5453058 36.6970608,42.5422295 36.8714482,42.5475276 C37.0440882,42.5528258 37.1450861,42.4801895 37.1613366,42.3108185 C37.1819556,42.0968404 37.0690756,42.0387313 36.8600903,41.9973713 C35.2226314,41.6738404 34.8270272,41.9683167 34.8273766,43.5406804 C34.8275514,43.8254149 34.8275514,44.1099785 34.8270272,44.3945422 C34.8265029,45.0774949 34.8240566,45.7606185 34.8280756,46.4435713 Z M20.8610103,42.7256149 C20.6902924,43.308244 20.7582651,43.8667749 21.3135787,44.2468767 C21.691884,44.505804 22.1189408,44.6979058 22.4900819,44.9650367 C22.8341387,45.2130258 22.8437493,45.601844 22.7644187,45.9766476 C22.6981935,46.2909495 22.4722587,46.4538258 22.1442777,46.4738222 C21.7928819,46.4951858 21.5033429,46.3881967 21.3822503,46.0421058 C21.2772335,45.7421604 21.0969051,45.4499058 20.7815051,45.6500404 C20.4882966,45.8361604 20.7189493,46.1632804 20.8526229,46.4054585 C21.0285829,46.7245458 21.3209177,46.9186985 21.6798272,46.9692876 C22.3537872,47.0639713 22.9672882,46.9650149 23.3075008,46.2911204 C23.6414229,45.630044 23.4437956,44.8383931 22.8145682,44.3981313 C22.4631724,44.1525349 22.0544629,43.9855567 21.7009703,43.7423531 C21.4144019,43.5452949 21.3507977,43.2291131 21.4353703,42.9013095 C21.4965282,42.6644295 21.6649745,42.5022367 21.9080335,42.4521604 C22.2298987,42.3861895 22.4846651,42.5083895 22.6176398,42.8042331 C22.7401303,43.0768331 22.8919766,43.4042949 23.2201324,43.1704913 C23.5040798,42.9681349 23.2666124,42.6504149 23.1177366,42.4149022 C22.8785219,42.0361676 22.4822187,41.9520804 22.0804987,41.9220004 C21.5014208,41.9587458 21.0280587,42.1559749 20.8610103,42.7256149 Z M3.29855979,42.6893822 C3.08677874,43.2851713 3.18725242,43.8250731 3.71233663,44.2188476 C4.00903979,44.4413713 4.36288189,44.5897204 4.68457242,44.7819931 C5.09275768,45.0258804 5.30838295,45.3820549 5.231324,45.8544476 C5.18414505,46.1443095 5.04278295,46.4023822 4.70291979,46.4579276 C4.19338716,46.5411604 3.85736821,46.3452985 3.72701453,45.8429967 C3.657644,45.5758658 3.44376611,45.5712513 3.24421663,45.6331204 C2.93563137,45.7284876 3.09551558,45.9508404 3.15230505,46.1236295 C3.38994716,46.8477713 3.95993874,47.0576476 4.66063347,46.9872331 C5.34472821,46.9183567 5.76811558,46.5580804 5.86090084,45.8529095 C6.00243768,44.7775495 5.28409453,44.3383131 4.45549242,43.9566731 C4.059364,43.7743131 3.800404,43.4842804 3.85334926,43.0166731 C3.88532611,42.7350149 4.03647347,42.5181313 4.31552821,42.4578004 C4.77194084,42.3586731 5.01604821,42.6124731 5.14360611,43.0141095 C5.22695558,43.276284 5.44799768,43.270644 5.63950926,43.1942476 C5.85845453,43.1069131 5.76497032,42.9156658 5.71744189,42.7546695 C5.54637453,42.1740913 5.10603768,41.9604549 4.50651558,41.9230258 C3.97811137,41.9544731 3.50107979,42.1199131 3.29855979,42.6893822 Z M0.0140313684,45.3731676 C0.0136818947,46.9581785 0.0138566316,46.9641604 1.67490505,46.9322004 C1.957804,46.9269022 2.43675768,47.0942222 2.40687768,46.6066185 C2.38206505,46.2024185 1.92547768,46.3625604 1.68608821,46.3938367 C0.830926105,46.5052695 0.497877684,46.2489058 0.579479789,45.3482149 C0.631027158,44.7797713 0.719094526,44.4972585 1.35129242,44.5970695 C1.54961874,44.6285167 1.75790505,44.603564 1.96164821,44.5994622 C2.16242084,44.5953604 2.29906505,44.5181095 2.27337874,44.2942185 C2.253284,44.120404 2.12887137,44.0652004 1.96863768,44.064004 C1.64851979,44.0616113 1.32822716,44.0669095 1.008284,44.0576804 C0.843681895,44.0530658 0.687117684,44.0723785 0.607437684,43.8397713 C0.337818737,43.0517095 0.670867158,42.5502622 1.499644,42.5459895 C1.64502505,42.5451349 1.79058084,42.544964 1.93613663,42.5456476 C2.14529663,42.5466731 2.36197032,42.5593204 2.35305874,42.2581785 C2.34344821,41.9387495 2.09497242,42.0108731 1.90713032,42.0074549 C1.47081242,41.9994222 1.03187347,42.031724 0.598176632,41.9975422 C0.152422947,41.9623349 -0.0277307368,42.0870985 0.00337242105,42.5557313 C0.0449597895,43.1792076 0.0136818947,43.8074695 0.0138566316,44.4338513 C0.0140313684,44.7469567 0.0140313684,45.0600622 0.0140313684,45.3731676 Z M39.7995135,44.2150876 C39.6317661,44.2364513 39.4283724,44.2014149 39.4061808,44.4410295 C39.3859114,44.6589385 39.5319914,44.7597749 39.7290945,44.7414876 C40.3731745,44.6818404 40.2604693,45.1171458 40.2160861,45.4687058 C40.1591219,45.9178549 40.121204,46.4237458 39.4863851,46.4606622 C39.0173914,46.4880076 38.8146966,46.1530258 38.7224356,45.7782222 C38.5223619,44.9650367 38.5172945,44.1412549 38.7014672,43.3226004 C38.7925051,42.9177167 38.9611261,42.5406913 39.4360608,42.4687385 C39.8547303,42.4053313 40.0790924,42.6750258 40.1874293,43.0317131 C40.2667598,43.2930331 40.4612419,43.328924 40.6621893,43.2624404 C40.9524272,43.1660476 40.8124629,42.9194258 40.7600419,42.7548404 C40.595964,42.2374985 40.2029808,41.9630185 39.6609472,41.9254185 C39.0168672,41.8808113 38.5277787,42.1440113 38.2504714,42.7245895 C37.8658756,43.5305967 37.9128798,44.391124 37.9761345,45.2422513 C38.0856945,46.7206149 38.5863156,47.0699531 40.0801408,46.7592404 C40.1329114,46.7481313 40.2035051,46.7084804 40.2358314,46.7284767 C41.0742187,47.2485531 40.7761177,46.5172331 40.8280145,46.2039567 C40.8601661,46.0099749 40.8339556,45.8064222 40.8334314,45.6073131 C40.8315093,44.0920331 40.825044,44.0845131 39.7995135,44.2150876 Z M80.8004651,43.4384767 C81.2079514,44.4553858 81.6199808,45.4705858 82.0204777,46.4900585 C82.1356293,46.7833385 82.2859029,46.9969749 82.6514524,46.9337385 C83.0652293,46.8619567 82.9030735,46.5374004 82.9058693,46.3184658 C82.9212461,45.0658731 82.9196735,43.8129385 82.9069177,42.5603458 C82.9048208,42.3446585 83.0575408,41.9889967 82.5978082,42.0154876 C82.2119893,42.0375349 82.3545745,42.3453422 82.3517787,42.5382985 C82.3376251,43.481204 82.3453135,44.4241095 82.3453135,45.3670149 C82.1485598,45.270964 82.0802377,45.1569676 82.0307872,45.0357931 C81.6748482,44.1650113 81.3119198,43.2966222 80.9752019,42.4188331 C80.8546335,42.1045313 80.6807703,41.9554985 80.3305977,42.0042076 C79.8932314,42.0652222 80.0744335,42.3942222 80.0714629,42.6061495 C80.0539893,43.8587422 80.0567851,45.1116767 80.067444,46.3642695 C80.0693661,46.5874767 79.9321977,46.942284 80.3734082,46.9229713 C80.7408798,46.9067349 80.621884,46.5958513 80.6241556,46.3950331 C80.635164,45.4275167 80.6290482,44.4594876 80.6290482,43.4918004 C80.6861872,43.4740258 80.7433261,43.4562513 80.8004651,43.4384767 Z M30.0100566,45.2473785 C30.0100566,44.3451495 30.0069114,43.4427495 30.0119787,42.5405204 C30.0133766,42.2981713 29.9347451,41.979084 30.3581324,42.005404 C30.722284,42.027964 30.6239072,42.3185095 30.6251303,42.5253095 C30.6315956,43.8055895 30.6312461,45.0860404 30.6251303,46.3664913 C30.6240819,46.6045676 30.7166924,46.9019495 30.3086819,46.9468985 C29.9352693,46.9879167 29.8124293,46.7722295 29.6986756,46.4780949 C29.3215935,45.5052804 28.9217956,44.5410113 28.3210503,43.5948585 C28.3210503,44.4972585 28.3290882,45.3998295 28.3159829,46.3022295 C28.3123135,46.5548331 28.4540251,46.9588622 27.9789156,46.9263895 C27.5978145,46.9004113 27.717684,46.5430404 27.7159366,46.3092367 C27.7070251,45.0858695 27.704404,43.8621604 27.717684,42.638964 C27.7204798,42.3920004 27.5619935,42.0520622 28.0444419,41.9908767 C28.4802356,41.9360149 28.5835051,42.2060513 28.7035493,42.5056549 C29.0715451,43.4236076 29.4463556,44.3386549 29.8185451,45.2550695 C29.882324,45.2525058 29.9461029,45.2499422 30.0100566,45.2473785 Z M8.50082505,18.2768985 C8.50082505,23.6012295 8.49872821,28.9255604 8.50519347,34.2497204 C8.50554295,34.6088004 8.32678716,35.0656404 9.03394716,35.0620513 C12.9345977,35.0427385 16.8352482,35.0485495 20.7360735,35.0589749 C21.1190966,35.0598295 21.2468293,34.9318185 21.2352966,34.5645349 C21.213804,33.8817531 21.1863703,33.1945276 21.2421114,32.5156767 C21.293484,31.8886113 21.1100103,31.6896731 20.4362251,31.701124 C17.9626503,31.7436804 15.4876777,31.7060804 13.0135787,31.7277858 C12.4863977,31.7325713 12.2541724,31.6505349 12.2585408,31.0458585 C12.2880714,27.0599167 12.2870229,23.0736331 12.2592398,19.0876913 C12.2550461,18.4872876 12.4869219,18.3994404 13.0175977,18.4054222 C15.1423977,18.4300331 17.2678966,18.3953385 19.3923472,18.4272985 C19.9798124,18.4361858 20.2405198,18.3163785 20.1863514,17.6867495 C20.1302608,17.0364404 20.1393472,16.3757058 20.184604,15.7240295 C20.2230461,15.1731895 20.051804,14.9961276 19.4669598,15.0055276 C17.3135029,15.0398804 15.1588229,15.0026222 13.0050166,15.0304804 C12.4554693,15.0376585 12.2546966,14.9178513 12.2601135,14.3341967 C12.2892945,11.1171749 12.2919156,7.89929855 12.2576672,4.68244764 C12.2512019,4.07093491 12.4933872,4.00017855 13.0144524,4.006844 C14.8771472,4.03111309 16.7405408,4.02837855 18.6034103,4.01094582 C19.4428461,4.003084 20.5459598,4.36079673 21.0519977,3.87934582 C21.6004966,3.35738945 21.1383177,2.26237491 21.2377429,1.42577491 C21.3127051,0.795633091 21.1122819,0.615153091 20.4439135,0.621476727 C16.7473556,0.656854909 13.0500987,0.654291273 9.35336611,0.624211273 C8.69233663,0.618742182 8.47845874,0.755469455 8.48265242,1.450044 C8.51550295,6.88785855 8.50082505,12.3263567 8.50082505,17.7645131 L8.50082505,18.2768985 Z M63.5618019,8.63591673 C63.5680924,7.55611309 63.6086314,6.47237855 64.0068566,5.43957491 C64.4066545,4.40301127 65.0958166,3.70894945 66.2676019,3.56179673 C68.3439998,3.30098945 69.6035029,4.22988036 69.9501808,6.270364 C70.1275387,7.31530218 70.1528756,8.36810218 70.1130356,9.42090218 C70.0946882,9.90406218 70.1743682,10.1496585 70.7620082,10.1125713 C71.6026672,10.0590767 72.4506651,10.0713822 73.2930714,10.1089822 C73.7994587,10.1317131 73.9397724,9.95567673 73.935404,9.47781491 C73.9226482,8.08097491 73.8793135,6.68892036 73.6165093,5.31190582 C73.0503619,2.34424036 71.3569872,0.654974909 68.2992672,0.253851273 C64.3192861,-0.268276 61.140124,1.177444 60.1023619,5.33087673 C59.964844,5.88103309 59.855284,6.44622945 59.8156187,7.00971673 C59.5688903,10.5075422 59.7135724,14.0108367 59.7139219,17.5113967 C59.7144461,21.2397785 59.5584061,24.9719204 59.8255787,28.6970549 C60.1306693,32.949444 62.0606377,35.1379349 65.9658314,35.4758222 C69.9405703,35.8198622 72.5270251,34.3654258 73.5244229,31.0475676 C74.0580693,29.2718222 74.0398966,27.4514695 74.0664566,25.630604 C74.0722229,25.2366585 73.872324,25.1597495 73.5249472,25.1652185 C72.6517872,25.1792331 71.7765303,25.2033313 70.9058166,25.1575276 C70.3510272,25.1283022 70.2129851,25.3214295 70.2252166,25.8351822 C70.2552714,27.1156331 70.2327303,28.3981349 69.9561219,29.6596149 C69.6021051,31.274364 68.6974924,32.0972913 67.2094335,32.1678767 C65.5971366,32.2441022 64.5443472,31.5126113 64.0140208,29.9446913 C63.8121998,29.3480476 63.6879619,28.7368767 63.6491703,28.1079313 C63.4356419,24.6367676 63.6280272,21.1623567 63.5555114,18.3714113 C63.5555114,14.6719131 63.5439787,11.6538295 63.5618019,8.63591673 Z M38.1625787,26.3366295 C38.4154229,23.5029567 37.0898693,21.047164 34.5670187,19.1321276 C33.7163998,18.486604 32.9071935,17.7875858 32.0438187,17.159324 C28.7030251,14.728484 27.5644398,11.4075495 27.9128651,7.479204 C27.9680819,6.85709491 28.0571977,6.23515673 28.1739219,5.62090945 C29.0060187,1.24102218 31.9816124,-0.272719636 36.0155872,0.241204 C39.3050082,0.660273091 40.9983829,2.61923309 41.3003282,6.13620036 C41.3780861,7.04270218 41.3525745,7.95706582 41.4070924,8.86596036 C41.4366229,9.36074218 41.3137829,9.59300764 40.7406461,9.55899673 C39.928644,9.51097127 39.1089535,9.51080036 38.2969514,9.55916764 C37.7243387,9.59352036 37.6184482,9.36569855 37.6315535,8.86869491 C37.6591619,7.81709127 37.6726166,6.76360764 37.4594377,5.72003673 C37.153124,4.22048036 36.3227745,3.43737491 34.9138714,3.35807309 C33.4079893,3.27330218 32.3924187,3.99077855 31.9388019,5.45991309 C30.8687135,8.92577855 31.8065261,11.9614658 34.6653956,14.2432731 C35.7924482,15.1425967 36.9556714,15.9998767 38.0671724,16.9171458 C40.4037535,18.845684 41.7127072,21.2741313 41.8984524,24.3022985 C42.0373682,26.5651349 42.0265345,28.8001131 41.3204229,30.9774949 C40.4720756,33.5929167 38.6630251,35.1017022 35.8460924,35.446084 C34.7321451,35.5824695 33.6349724,35.5453822 32.5470608,35.3286695 C29.7320503,34.767404 27.9883514,32.864844 27.5055535,29.9106804 C27.2883556,28.5806658 27.3264482,27.2443276 27.3054798,25.9073058 C27.2991893,25.4943895 27.4449198,25.3602258 27.8588714,25.371164 C28.7315072,25.3942367 29.6064145,25.4046622 30.4781766,25.3687713 C30.9824672,25.3479204 31.0486924,25.5791604 31.0371598,25.984044 C31.0072798,27.0371858 31.0240545,28.089644 31.1841135,29.1361204 C31.4740019,31.0328695 32.5919682,32.1859931 34.2767808,32.3117822 C36.2322608,32.4579095 37.3379956,31.6787349 37.8545177,29.8113822 C38.1389893,28.7828513 38.1819745,27.7344949 38.1625787,26.3366295 Z" id="Fill-5" fill="#C1C1C1"></path>
                        </g>
                    </g>
                </g>
            </g>
        </g>
    </g>
</svg>