<svg xmlns="http://www.w3.org/2000/svg" width="82" height="57" viewBox="0 0 82 57">
  <g fill="#1D1D1D" fill-rule="evenodd" stroke="#939393" transform="translate(1 1)">
    <path d="M42.5457294,17.2891912 L42.5457294,6.65880574 L54.2331066,0.0338624339 L54.2331066,6.65880574 L54.2316706,6.65880574 L54.2293664,17.2891912 L75.2737717,17.2891912 C77.8545729,17.2891912 79.9467876,19.3814059 79.9467876,21.9622071 L79.9467876,50.5759637 C79.9467876,53.1567649 77.8545729,55.2489796 75.2737717,55.2489796 L42.5433107,55.2489796 L42.5433107,17.2891912 Z M68.368254,42.9931973 L68.368254,29.6562358 C68.368254,28.296901 67.2677249,27.1963719 65.90839,27.1963719 L54.2306878,27.1963719 L54.2306878,45.4530612 L65.90839,45.4530612 C67.2677249,45.4530612 68.368254,44.3525321 68.368254,42.9931973 Z"/>
    <path d="M37.5679516,14.698715 L37.5679516,38.0662132 L4.85442177,38.0662132 C2.27362056,38.0662132 0.181405896,35.9739985 0.181405896,33.3931973 L0.181405896,19.3717309 C0.181405896,16.7909297 2.27362056,14.698715 4.85442177,14.698715 L25.8854119,14.698715 L25.8854119,9.91201814 L21.7517763,9.91201814 L4.16991686,9.91201814 L6.00503573,8.89026512 L21.7517763,0.111262283 L30.2609221,0.111262283 L32.8949358,0.111262283 C35.475737,0.111262283 37.5679516,2.20347695 37.5679516,4.78427816 L37.5679516,14.698715 Z M25.8829932,29.0588057 L25.8829932,21.488133 L14.205291,21.488133 C12.8459562,21.488133 11.7454271,22.5886621 11.7454271,23.947997 L11.7454271,26.5989418 C11.7454271,27.9582766 12.8459562,29.0588057 14.205291,29.0588057 L25.8829932,29.0588057 Z" transform="translate(0 17.173)"/>
  </g>
</svg>
