<svg width="50px" height="80px" viewBox="0 0 50 80" version="1.1" xmlns="http://www.w3.org/2000/svg" xmlns:xlink="http://www.w3.org/1999/xlink">
  <defs>
    <polygon id="path-1" points="0.452647059 0.252554745 30.3176471 0.252554745 30.3176471 79.4160584 0.452647059 79.4160584"></polygon>
  </defs>
  <g id="Symbols" stroke="none" stroke-width="1" fill="none" fill-rule="evenodd">
    <g id="BLCK/Footer" transform="translate(-165.000000, -763.000000)">
      <g id="Group-4">
        <g transform="translate(0.000000, 683.000000)">
          <g id="Logo/Stone/INACTIVE" transform="translate(160.000000, 80.000000)">
            <g id="Group-32" transform="translate(5.294118, 0.000000)">
              <g id="Group-3" transform="translate(24.117647, 0.331679)">
                <mask id="mask-2" fill="white">
                  <use xlink:href="#path-1"></use>
                </mask>
                <g id="Clip-2"></g>
              </g>
              <path d="M26.0977059,70.0322336 L15.2524118,55.607708 L27.5112353,22.4731095 L39.7706471,55.607708 L28.9259412,70.0322336 C28.2200588,70.9706277 26.803,70.9706277 26.0977059,70.0322336 Z M27.5112353,0.584058394 L5.88241176,57.1498978 L21.4618235,77.1014307 C21.6818235,77.3425985 21.9171176,77.5703358 22.1647647,77.7834745 C25.5059412,80.6488759 30.6082941,80.3434745 33.5612353,77.1014307 L49.1412353,57.1498978 L27.5112353,0.584058394 Z" id="Fill-22" fill="#000000" opacity="0.300548735"></path>
              <path d="M20.2153529,70.0322336 L9.37005882,55.607708 L21.6288824,22.4731095 L33.8882941,55.607708 L23.0435882,70.0322336 C22.3377059,70.9706277 20.9206471,70.9706277 20.2153529,70.0322336 Z M21.6288824,0.584058394 L5.88235295e-05,57.1498978 L15.5794706,77.1014307 C15.7994706,77.3425985 16.0347647,77.5703358 16.2824118,77.7834745 C19.6235882,80.6488759 24.7259412,80.3434745 27.6788824,77.1014307 L43.2588824,57.1498978 L21.6288824,0.584058394 Z" id="Fill-24" fill="#000000" opacity="0.300548735"></path>
              <path d="M23.1565294,70.0322336 L12.3112353,55.607708 L24.5700588,22.4731095 L36.8294706,55.607708 L25.9847647,70.0322336 C25.2788824,70.9706277 23.8618235,70.9706277 23.1565294,70.0322336 Z M24.5700588,0.584058394 L2.94123529,57.1498978 L18.5206471,77.1014307 C18.7406471,77.3425985 18.9759412,77.5703358 19.2235882,77.7834745 C22.5647647,80.6488759 27.6671176,80.3434745 30.6200588,77.1014307 L46.2000588,57.1498978 L24.5700588,0.584058394 Z" id="Fill-26" fill="#1E1E1E"></path>
              <polygon id="Fill-28" fill="#969696" points="24.5702941 2.72151825 45.585 57.8257518 46.2002941 57.1501314 24.5702941 0.584291971 2.94088235 57.1501314 3.55617647 57.8257518"></polygon>
              <path d="M26.9237647,70.3586569 L36.8296471,57.037781 L36.8296471,55.607708 L25.9843529,70.0322336 C25.2790588,70.9706277 23.862,70.9706277 23.1567059,70.0322336 L12.3108235,55.607708 L12.3108235,57.217635 L22.2008235,70.3709197 C23.3808235,71.9405547 25.752,71.9347153 26.9237647,70.3586569" id="Fill-30" fill="#969696"></path>
            </g>
          </g>
        </g>
      </g>
    </g>
  </g>
</svg>
