<svg width="48px" height="48px" viewBox="0 0 48 48" version="1.1" xmlns="http://www.w3.org/2000/svg" xmlns:xlink="http://www.w3.org/1999/xlink">
  <g id="Symbols" stroke="none" stroke-width="1" fill="none" fill-rule="evenodd">
    <g id="BLCK/Footer" transform="translate(-166.000000, -308.000000)" fill="#C1C1C1">
      <g id="Group-6">
        <g transform="translate(0.000000, 160.000000)">
          <g id="Group" transform="translate(116.000000, 60.000000)">
            <path d="M89.3128543,129.138832 C89.2960398,129.48415 89.0538461,129.746901 88.6874532,129.815979 C88.4458835,129.861535 88.20123,129.847901 87.9574576,129.853645 C87.8610867,129.855972 87.8486044,129.805254 87.8493387,129.728905 C87.8514313,129.505237 87.8500729,129.281496 87.8503299,129.057792 C87.8505869,128.834088 87.8516149,128.610384 87.8499628,128.386716 C87.8494488,128.31982 87.8533404,128.267502 87.9440575,128.270374 C88.217457,128.278954 88.4933164,128.248233 88.7621636,128.324073 C89.1722079,128.439725 89.3351389,128.680917 89.3128543,129.138832 Z M82.83541,128.733452 C83.0430204,129.418707 83.2338531,130.048627 83.4289812,130.692654 C83.0578891,130.692654 82.7044925,130.690072 82.3512061,130.694508 C82.2644906,130.695599 82.2425731,130.668586 82.2664731,130.590673 C82.4515419,129.987511 82.6361334,129.384205 82.83541,128.733452 Z M94.9544235,131.556349 C94.9414639,131.876908 94.9452453,132.198412 94.9532854,132.519262 C94.9561857,132.634149 94.9199502,132.658763 94.808674,132.658254 C93.8483428,132.653746 92.887975,132.652946 91.9276805,132.658945 C91.7935323,132.659781 91.7684208,132.616589 91.7691183,132.494212 C91.7741847,131.603794 91.7718351,130.713341 91.7718351,129.822851 C91.7718718,129.159555 91.77312,128.49626 91.7717249,127.832964 C91.7712477,127.611878 91.7704767,127.390791 91.7693019,127.169705 C91.7686411,127.048636 91.7921005,127.003917 91.9273868,127.00479 C92.881587,127.011007 93.8358238,127.010462 94.7900239,127.005117 C94.9182982,127.004354 94.9572503,127.037511 94.9535791,127.165997 C94.9443642,127.48681 94.9457593,127.808132 94.9531018,128.129055 C94.9556717,128.24118 94.9226303,128.273828 94.809188,128.272556 C94.3199176,128.267029 93.8305005,128.274955 93.3412668,128.267938 C93.2116343,128.266084 93.1535915,128.286808 93.1646053,128.432962 C93.1791435,128.625727 93.1749583,128.820673 93.1657434,129.014091 C93.1601997,129.130724 93.2064578,129.157083 93.3141729,129.156138 C93.7973489,129.151957 94.280635,129.157483 94.7638111,129.152066 C94.8659458,129.150939 94.8968212,129.176425 94.8947653,129.279606 C94.8880469,129.61867 94.8873493,129.958062 94.8943615,130.297127 C94.8965642,130.405107 94.8589704,130.425939 94.7588916,130.424994 C94.2818466,130.42034 93.804618,130.427721 93.3276097,130.42045 C93.1986012,130.41845 93.1594655,130.45488 93.1653028,130.582165 C93.1755089,130.805833 93.173453,131.030446 93.1659269,131.254368 C93.1624392,131.358385 93.1943059,131.387107 93.2993409,131.385944 C93.788648,131.380527 94.2781019,131.388162 94.7672988,131.380927 C94.9038701,131.378891 94.9605545,131.404159 94.9544235,131.556349 Z M89.7691199,132.664071 C89.3352857,132.715625 89.0658511,132.571216 88.8400312,132.198412 C88.5592891,131.735043 88.2105183,131.312103 87.8922191,130.873202 C87.825145,130.901924 87.8536708,130.950097 87.8534872,130.98729 C87.851211,131.489779 87.8467688,131.992341 87.8526428,132.494793 C87.8540379,132.613681 87.8361221,132.66298 87.6993672,132.659163 C87.3327908,132.649019 86.965627,132.65171 86.5989037,132.658145 C86.4856082,132.660145 86.4433886,132.638803 86.4436823,132.51279 C86.4483081,130.72043 86.4477574,128.928035 86.4444533,127.135675 C86.4442697,127.032385 86.4714738,127.004899 86.575481,127.005917 C87.3212997,127.013261 88.0673021,127.006499 88.8130107,127.019042 C89.9733527,127.038638 90.742741,127.850161 90.7192449,128.999003 C90.7051839,129.685349 90.3539534,130.511887 89.3120833,130.74239 C89.8264651,131.381617 90.3273,132.004011 90.8517778,132.655745 C90.4690845,132.655745 90.1146232,132.622988 89.7691199,132.664071 Z M84.206226,132.657127 C84.1192903,132.657781 84.0782822,132.635858 84.0535746,132.545875 C84.001002,132.354419 83.9272094,132.168817 83.8689096,131.978743 C83.8408611,131.887306 83.8009544,131.845095 83.6930924,131.846222 C83.1119669,131.852403 82.5307312,131.851131 81.949569,131.846731 C81.8606141,131.846113 81.8194958,131.875453 81.791741,131.956093 C81.7233085,132.155074 81.6411088,132.349548 81.5769716,132.549729 C81.5526311,132.625824 81.5261612,132.658036 81.4420524,132.657418 C80.9594271,132.653891 80.4768018,132.655673 79.9702398,132.655673 C80.1271499,132.26629 80.2768276,131.892941 80.4278637,131.520137 C81.0166255,130.066988 81.6079572,128.614892 82.1911019,127.159561 C82.2417287,127.033257 82.3071875,127.002136 82.4321576,127.005554 C82.7194713,127.01337 83.0072622,127.011589 83.2946494,127.005844 C83.381842,127.004099 83.4231071,127.030567 83.4555612,127.111825 C84.0717841,128.656885 84.6911275,130.200745 85.3100672,131.74475 C85.4286859,132.040696 85.548296,132.336314 85.6768639,132.655491 C85.1726515,132.655491 84.6894387,132.653709 84.206226,132.657127 Z M75.301484,130.045682 C75.3731473,130.58591 75.6190123,131.031173 76.1111462,131.311739 C76.8202523,131.715992 77.7075618,131.445569 78.1062986,130.697744 C78.1701787,130.577948 78.2360046,130.536973 78.3701529,130.540173 C78.7735522,130.549807 79.177392,130.548135 79.5809014,130.541664 C79.6924347,130.539882 79.7141319,130.567259 79.6877721,130.672185 C79.4329492,131.68647 78.4204126,132.577178 77.3577264,132.725224 C76.295701,132.873123 75.3623904,132.606918 74.6265942,131.826626 C73.8644383,131.018412 73.6386551,130.046955 73.9532464,128.988169 C74.2718393,127.91604 75.0098015,127.233039 76.1101183,126.984394 C77.6252152,126.642021 79.0490444,127.365778 79.5996983,128.721673 C79.7757725,129.15512 79.7757725,129.15512 79.3137063,129.155193 C79.1913795,129.155229 79.0690895,129.155193 78.9467627,129.155193 C78.9009086,129.155193 78.854981,129.154465 78.8090166,129.153556 C78.6711971,129.150866 78.5332307,129.147012 78.3967329,129.158937 C78.2423559,129.172462 78.1745108,129.109637 78.1080241,128.979261 C77.7254776,128.228891 76.8546888,127.94378 76.1188192,128.335053 C75.4694814,128.680298 75.2157231,129.399329 75.301484,130.045682 Z M73.1542309,124.348154 C73.1596276,127.856523 73.1583427,131.583071 73.1582326,135.091477 C73.1582326,135.13376 73.158306,135.168336 73.1595909,135.197385 C65.7632642,135.197421 58.3669374,135.197421 50.9706107,135.197494 C50.940029,135.197494 50.9092638,135.195785 50.8789024,135.198439 C50.7922236,135.206038 50.7555476,135.168263 50.761385,135.082424 C50.7650929,135.02818 50.7613115,134.973426 50.7613115,134.918891 C50.7612748,119.608993 50.7611647,104.29906 50.7617521,88.9891263 C50.7617888,88.70347 50.7258838,88.7313557 51.0309297,88.7313194 C58.2989455,88.7310285 65.5669246,88.7312466 72.8349037,88.7301196 C72.9054655,88.7300832 72.9826357,88.7552422 73.0458549,88.6989254 L73.0825677,88.6989254 C73.1053295,88.7175764 73.1297435,88.726702 73.1549284,88.7310649 C73.1599948,89.89325 73.1601783,91.3075704 73.1547081,92.4688467 C73.1541207,92.5986772 73.1907233,92.6274355 73.3176024,92.6279082 C74.364392,92.6319074 75.4015996,92.7439958 76.4243057,92.9594105 C79.1756298,93.5389398 81.63942,94.7079237 83.7915192,96.5112994 C85.4469322,97.8984248 86.7625689,99.5435026 87.6759445,101.49616 C87.8289264,101.82319 87.974786,102.153893 88.08162,102.506991 C88.0461922,102.510409 88.0224391,102.514626 87.998686,102.514662 C85.7470219,102.514881 83.495321,102.514117 81.2436569,102.517207 C81.1491217,102.517316 81.1075262,102.479105 81.0590654,102.407373 C80.4228341,101.465293 79.670407,100.630102 78.7581695,99.9382296 C77.1652049,98.7300529 75.3671631,98.0924617 73.3651821,98.0047325 C73.20405,97.9976792 73.1537169,98.0315275 73.1541207,98.2038956 C73.1603619,100.936663 73.1583427,103.669467 73.158306,106.402235 C73.1582693,110.46203 73.1591504,114.521825 73.1549651,118.58162 C73.1548183,118.733155 73.1909436,118.776856 73.3471562,118.765949 C73.8282763,118.732392 74.3082583,118.69858 74.786111,118.626521 C76.3552858,118.389982 77.7954153,117.839466 79.07746,116.906729 C80.6151353,115.787991 81.6513149,114.323025 82.1614747,112.496236 C82.202593,112.349026 82.1795374,112.327067 82.0344488,112.327539 C80.5109446,112.332048 78.987367,112.329575 77.4638261,112.332084 C77.3544957,112.332266 77.2904687,112.334411 77.2911295,112.186475 C77.2979214,110.641378 77.2975542,109.096209 77.2927816,107.551077 C77.2923778,107.418156 77.3340834,107.394088 77.4582091,107.394197 C81.3558143,107.39736 85.2534194,107.397578 89.1510246,107.393688 C89.2986097,107.393542 89.3473642,107.425609 89.3484289,107.580999 C89.3540826,108.392921 89.3258506,109.20219 89.2434672,110.010804 C89.1387259,111.038723 88.9620643,112.052572 88.682497,113.047625 C87.9607985,115.616386 86.6114227,117.813144 84.6648412,119.650513 C83.1024583,121.125259 81.2930722,122.212549 79.2829043,122.977971 C77.3778817,123.703291 75.4031783,124.08802 73.3636035,124.140229 C73.1993141,124.14441 73.1539739,124.180803 73.1542309,124.348154 Z M50,136 L98,136 L98,88 L50,88 L50,136 Z M63.3538455,105.543375 C63.058969,106.758533 62.9744197,107.991505 63.0654672,109.234257 C63.2063706,111.157974 63.7405038,112.958732 64.8527889,114.562872 C66.1207726,116.391552 67.836064,117.626015 69.9674205,118.300726 C70.9382148,118.608124 71.9321014,118.763113 72.950512,118.763441 C73.0596956,118.763477 73.1061005,118.774602 73.1057334,118.907305 C73.1012177,120.603719 73.1039712,122.300132 73.1090008,123.996582 C73.1093312,124.115142 73.0751884,124.149354 72.9542567,124.148482 C70.2837005,124.12954 67.7517349,123.54892 65.3741094,122.331145 C63.6965954,121.471922 62.2235712,120.349366 60.9565788,118.96464 C59.5812839,117.4615 58.5437092,115.754906 57.8399265,113.848277 C57.4119664,112.688818 57.1235513,111.49682 56.976627,110.272865 C56.8428092,109.15838 56.8245262,108.04135 56.9187678,106.920284 C57.0732549,105.082224 57.5250415,103.323749 58.308087,101.651113 C59.4386917,99.2359594 61.1036132,97.2525079 63.28031,95.6955229 C65.2772613,94.2670597 67.4969854,93.3501383 69.9202447,92.9102196 C70.8650096,92.7387241 71.8159791,92.6424509 72.7755759,92.6249269 C73.1054764,92.618928 73.1056232,92.6211094 73.10566,92.9413775 C73.1056967,93.7350853 73.10566,94.5287932 73.10566,95.322501 L73.1046687,95.322501 C73.1046687,96.1525657 73.0992352,96.9827032 73.1092945,97.8126225 C73.111277,97.9771739 73.0653861,98.0064776 72.9078151,98.0087317 C70.3078942,98.0458158 68.0414349,98.9323065 66.1439016,100.6906 C64.7125096,102.016936 63.8110657,103.659069 63.3538455,105.543375 Z M71.948255,132.488794 C71.9488791,132.623351 71.9183708,132.669925 71.7776877,132.658763 C71.6074508,132.645275 71.4349011,132.647929 71.264187,132.657891 C71.2564406,132.658363 71.2490613,132.658654 71.2419391,132.658763 C71.220609,132.659199 71.2020324,132.658145 71.1859889,132.655236 C71.1752688,132.653237 71.1656868,132.650474 71.1571327,132.646656 C71.1229899,132.631604 71.1055881,132.601065 71.1005217,132.546966 C71.0992368,132.533441 71.0987595,132.518462 71.0989431,132.501847 C71.1020636,132.24753 71.104707,131.993177 71.1070199,131.73886 C71.1139218,130.975765 71.1177767,130.212706 71.1217049,129.449684 C71.1242014,128.965664 71.1221455,128.481681 71.1221455,127.996461 C71.1046702,127.99577 71.0936564,128.001115 71.0860202,128.009768 C71.083487,128.01264 71.081321,128.015912 71.0794119,128.019439 C71.0718491,128.033545 71.0685082,128.051869 71.0621569,128.067866 C70.4754511,129.547775 69.8870197,131.027101 69.3044256,132.508609 C69.2594159,132.623097 69.205595,132.661126 69.0808452,132.65909 C68.9728364,132.657345 68.8916646,132.656436 68.8281883,132.649747 C68.8123284,132.648111 68.7975699,132.646111 68.7837659,132.643602 C68.76306,132.639857 68.7445201,132.635095 68.7276689,132.62895 C68.7164348,132.624842 68.705935,132.620116 68.6960593,132.614698 C68.663128,132.59652 68.6369151,132.57027 68.6120973,132.532386 C68.6098578,132.529005 68.6076551,132.525551 68.6054523,132.521988 C68.5953196,132.505519 68.585297,132.487086 68.5750909,132.466217 C68.5490983,132.41299 68.5216739,132.344603 68.4867601,132.256692 C68.335981,131.877198 68.1855323,131.497632 68.0349734,131.118102 C67.6363835,130.113379 67.2381607,129.108474 66.8397911,128.103605 C66.8312737,128.082155 66.8226095,128.06034 66.8102741,128.029182 C66.8011693,128.006278 66.7901188,127.978392 66.7753603,127.941162 C66.7753603,129.342358 66.7761679,130.687128 66.7744792,132.031897 C66.7744057,132.095485 66.7829965,132.165763 66.7910733,132.235859 C66.7926887,132.24982 66.794304,132.263854 66.7957725,132.277815 C66.8048039,132.361473 66.8104209,132.442839 66.7967638,132.510063 C66.7922114,132.532459 66.7855297,132.553292 66.7760945,132.572125 C66.7666593,132.590885 66.7545442,132.607682 66.7390514,132.622043 C66.7253943,132.634658 66.7091672,132.644438 66.6908476,132.651783 C66.5807462,132.696102 66.394576,132.655855 66.2341782,132.655636 C66.2074513,132.6556 66.181422,132.656727 66.1565675,132.659454 C66.0977537,132.666034 66.0534782,132.66378 66.0199228,132.653019 C65.9394485,132.627278 65.9218264,132.551583 65.9223404,132.422807 C65.9293158,130.677966 65.928655,128.933088 65.9226708,127.188247 C65.9226341,127.170359 65.9230746,127.154108 65.9241026,127.139165 C65.9242494,127.136984 65.9244697,127.134911 65.9246166,127.132803 C65.9268193,127.106662 65.9311514,127.085139 65.9383838,127.067469 C65.9399625,127.063616 65.941688,127.059943 65.9435603,127.05649 C65.9651107,127.016315 66.0064859,127.000427 66.0821875,127.000573 C66.0909619,127.000609 66.1001768,127.000827 66.1098689,127.001263 C66.1146049,127.001482 66.1193041,127.001518 66.1240033,127.001736 C66.3528704,127.01148 66.5823615,127.011771 66.8117058,127.007808 C66.8897204,127.006426 66.9676982,127.004572 67.0456393,127.002463 C67.1154301,127.000573 67.1594487,127.016061 67.1922698,127.051763 C67.2119478,127.073214 67.2275875,127.101936 67.2423093,127.138511 C67.4481942,127.650634 67.6550336,128.162394 67.8618363,128.674118 C68.2062015,129.52636 68.5510808,130.378421 68.8961068,131.230373 C68.8982362,131.235608 68.9004389,131.240807 68.9027518,131.246042 C68.9147569,131.273601 68.9293319,131.30225 68.9485693,131.342206 C68.9518367,131.349005 68.955251,131.356131 68.9587754,131.363621 C69.1645502,130.850479 69.3620279,130.358643 69.5590283,129.866625 C69.8314734,129.186169 70.1050932,128.506149 70.3758127,127.825002 C70.4660893,127.597989 70.5559987,127.370795 70.6454676,127.143455 C70.6762329,127.065252 70.7134963,127.026422 70.7734849,127.011262 C70.7870686,127.007844 70.8014232,127.005154 70.8176135,127.004063 C70.8300959,127.00319 70.8434593,127.002972 70.8577038,127.003299 C71.0167066,127.006935 71.1758195,127.009553 71.3349324,127.009662 C71.4940086,127.009807 71.653048,127.007517 71.8119039,127.001336 C71.8417147,127.000209 71.864807,127.0021 71.8829798,127.006862 C71.8888905,127.008426 71.8945075,127.010207 71.8993903,127.012389 C71.9192519,127.02126 71.9309266,127.035293 71.9377184,127.054381 C71.9418669,127.066088 71.9441798,127.079685 71.9454281,127.095173 C71.9466029,127.11008 71.9468232,127.126731 71.946713,127.145128 C71.9449141,127.420059 71.9444736,127.69499 71.9445103,127.969957 C71.9445103,127.970648 71.9445103,127.971411 71.9445103,127.972102 L71.9445103,127.972647 C71.944547,128.248124 71.9450242,128.5236 71.9450242,128.799113 C71.9450242,130.028995 71.9427481,131.258913 71.948255,132.488794 Z M59.4158564,129.931195 C59.4027866,130.18762 59.3660372,130.430484 59.304213,130.658987 C59.1806013,131.115957 58.956874,131.515411 58.6223845,131.850767 C58.621944,131.851203 58.6215034,131.851567 58.6210628,131.852003 C58.5905546,131.882543 58.5588348,131.912392 58.5264542,131.941914 C58.4483295,132.013064 58.3651018,132.081306 58.2760368,132.146131 C58.2254467,132.18296 58.1730576,132.218735 58.1188696,132.253493 C58.0917757,132.270835 58.0642411,132.287959 58.036266,132.304829 C57.2617379,132.770924 56.3419376,132.88254 55.5206008,132.653964 C55.4629251,132.637894 55.405947,132.619534 55.349336,132.600156 C55.1819627,132.542821 55.0193621,132.471452 54.8641408,132.385032 C54.5733394,132.223098 54.3076495,132.010265 54.081389,131.747513 C54.0167379,131.672473 53.9553543,131.593287 53.8974583,131.510066 C53.5149486,130.959913 53.3428027,130.31716 53.3688687,129.688803 C53.3714019,129.627578 53.3759175,129.566535 53.3822321,129.505673 C53.3873352,129.456119 53.3937232,129.40671 53.4013227,129.357519 C53.4368239,129.127743 53.4990887,128.902585 53.58786,128.687424 C53.5987637,128.660993 53.6100345,128.634743 53.6217459,128.608603 C53.9607878,127.851397 54.6327038,127.229658 55.6097026,126.989338 C56.5884268,126.748583 57.587343,126.981558 58.3126761,127.563341 C58.3428906,127.587555 58.3726646,127.612423 58.401888,127.637873 C58.4457229,127.675975 58.488016,127.715859 58.5295381,127.756578 C58.5949234,127.820785 58.6575186,127.887972 58.7167362,127.958505 C58.7271259,127.970866 58.7372953,127.983482 58.7474647,127.996025 C58.8146857,128.078955 58.877905,128.165666 58.9359478,128.25674 C58.9392152,128.261903 58.9427764,128.267138 58.9463008,128.272374 C58.9830502,128.326618 59.032025,128.385044 59.0616888,128.443033 C59.0689212,128.457176 59.0749788,128.471283 59.0794211,128.48528 C59.0839,128.499277 59.0867636,128.513202 59.0875346,128.526981 C59.0886727,128.547596 59.0851483,128.567883 59.0754194,128.587552 C59.0384497,128.662375 58.8852108,128.61322 58.773237,128.61442 C58.7730168,128.61442 58.7727598,128.614383 58.7725395,128.61442 C58.7650868,128.614492 58.7578177,128.61482 58.7507322,128.615438 C58.6659258,128.622636 58.5815967,128.628417 58.4993969,128.628781 C58.3584568,128.629362 58.2237212,128.613947 58.1031933,128.562248 C58.0931707,128.557921 58.0832216,128.55334 58.0733826,128.548541 C57.9552411,128.490588 57.8520049,128.394606 57.7716041,128.240234 C57.2893459,127.810205 56.6986383,127.643436 56.1410089,127.699171 C56.1327486,127.700007 56.1244882,127.70088 56.1162279,127.701825 C56.0602777,127.708078 56.0046946,127.716586 55.9496256,127.727275 C55.9410348,127.728947 55.9324807,127.730692 55.92389,127.732437 C55.8710971,127.743417 55.8187815,127.756433 55.76709,127.771412 C55.7561496,127.774575 55.7452459,127.777774 55.7343789,127.781119 C55.6981435,127.792281 55.662165,127.804242 55.6266271,127.817294 C55.6063984,127.824748 55.5862798,127.832528 55.5662714,127.840599 C55.3464357,127.929419 55.1416889,128.056014 54.9629714,128.21722 C54.9467077,128.231909 54.9307009,128.246851 54.9148778,128.262085 C54.6461407,128.520946 54.4419446,128.861865 54.3426734,129.27328 C54.2526171,129.646374 54.2507448,130.019687 54.3304114,130.365114 C54.4862568,131.04088 54.9551149,131.609793 55.6924163,131.859965 C55.992249,131.961692 56.305592,131.992341 56.6087289,131.960565 C56.6149334,131.959947 56.6211745,131.959183 56.6274157,131.958493 C56.6804288,131.952494 56.7330749,131.944495 56.7852803,131.934679 C57.3914807,131.820882 57.9362239,131.45524 58.2200866,130.906832 C58.2778357,130.795253 58.3254521,130.679783 58.3403207,130.544572 C57.5881874,130.544572 56.8421483,130.5405 56.0962561,130.54799 C56.0301733,130.548644 55.9786653,130.544608 55.9436781,130.525594 C55.9237064,130.514723 55.9090947,130.498944 55.900247,130.476403 C55.893602,130.459497 55.8901877,130.438773 55.890151,130.413433 C55.890151,130.396527 55.8916195,130.377512 55.8946666,130.35628 C55.896282,130.3449 55.8973834,130.333229 55.8980809,130.321304 C55.9081035,130.148245 55.8282166,129.931013 55.936409,129.835976 C56.0364511,129.748101 56.2734317,129.810999 56.4498363,129.810817 C57.3856066,129.809981 58.321377,129.81009 59.2571473,129.810308 L59.2574043,129.810308 C59.2985593,129.810344 59.3400079,129.803945 59.3702959,129.815834 C59.3740773,129.817325 59.3776752,129.819106 59.3810894,129.821251 C59.4049527,129.836012 59.4191238,129.867134 59.4158564,129.931195 Z M63.2489573,130.586128 C62.6404441,130.586055 62.0319676,130.586092 61.4069337,130.586092 C61.725086,129.746647 62.0355654,128.927344 62.3657963,128.056014 C62.6881339,128.897422 62.9910138,129.688512 63.2945912,130.479348 C63.3146731,130.531738 63.3498071,130.586128 63.2489573,130.586128 Z M63.033674,127.5424 C62.963259,127.369813 62.9377804,127.141274 62.8097264,127.039984 C62.6707321,126.930004 62.4334945,127.016315 62.2395046,127.005444 C62.2089963,127.003736 62.1778639,127.00788 62.1478696,127.00359 C62.0178332,126.985048 61.9619565,127.0494 61.9145603,127.165124 C61.4552476,128.286626 60.9896937,129.405583 60.5253146,130.525048 C60.2345132,131.226082 59.9426838,131.926717 59.6396571,132.655527 C59.9469058,132.655527 60.2279416,132.650437 60.5086103,132.658109 C60.614967,132.660981 60.6509088,132.621643 60.6860795,132.525915 C60.8210722,132.158492 60.9712639,131.796595 61.1131218,131.431608 C61.141207,131.359403 61.169072,131.316139 61.2643415,131.31672 C61.9982286,131.321338 62.7321525,131.319956 63.4660396,131.315775 C63.560685,131.31523 63.6033084,131.348969 63.636717,131.434371 C63.7818056,131.804885 63.9352648,132.172198 64.0831436,132.541694 C64.1060156,132.598883 64.1147165,132.657127 64.1982747,132.656509 C64.5000899,132.654291 64.8019418,132.655636 65.115138,132.655636 C65.0970753,132.606482 65.0877503,132.578414 65.0766263,132.55111 C64.3957156,130.881528 63.7147315,129.211946 63.033674,127.5424 Z" id="ICN/Misc/Gamcare"></path>
          </g>
        </g>
      </g>
    </g>
  </g>
</svg>
