<?xml version="1.0" encoding="utf-8"?>
<!-- Generator: Adobe Illustrator 24.0.0, SVG Export Plug-In . SVG Version: 6.00 Build 0)  -->
<svg version="1.1" id="Layer_1" xmlns="http://www.w3.org/2000/svg" xmlns:xlink="http://www.w3.org/1999/xlink" x="0px" y="0px"
	 viewBox="0 0 57.1 24" style="enable-background:new 0 0 57.1 24;" xml:space="preserve">
<style type="text/css">
	.st0{fill:#C1C1C1;}
</style>
<path class="st0" d="M29.4,0.9c0.3,0,0.5,0,0.8,0h3.4v6.3c0.5-0.3,0.8-0.4,1.1-0.6c2.4-1.3,5.3,0,5.7,2.7c0.3,2.1,0.4,4.1,0.4,6.2
	c0.1,1.7,0,3.3-0.3,4.9c-0.6,3.4-3.5,4.6-6.4,2.7c-0.1-0.1-0.2-0.2-0.1,0c-0.5,0.3-1.1,0.5-1.6,0.6c-0.9,0.1-1.9,0-2.9,0
	C29.4,16.1,29.4,8.6,29.4,0.9z M36.5,15c-0.1-1.2-0.1-2.5-0.2-3.7c0-0.8-0.5-1.3-1.3-1.3c-0.7,0-1.3,0.7-1.3,1.4c0,0,0,0,0,0
	c0,2.4,0,4.8,0,7.1c0,0.7,0.3,1.4,1.2,1.5c0.9,0,1.3-0.5,1.4-1.3C36.4,17.5,36.5,16.3,36.5,15z"/>
<path class="st0" d="M18.9,23.3c-1.6-0.6-2.4-1.8-2.7-3.4c-0.6-3.3-0.6-6.7,0-10c0.4-2.1,1.8-3.3,3.9-3.6c0.9-0.1,1.9-0.1,2.8,0
	c2.1,0.2,3.4,1.5,3.9,3.4c0.6,2.1,0.6,4.4,0.5,6.7h-7.2c0.1,0.9,0.1,1.8,0.3,2.6c0.1,0.6,0.6,1.1,1.2,1.1c0.6,0.1,1.1-0.4,1.2-0.9
	c0-0.2,0.1-0.4,0.2-0.7h4.1c0.2,2.2-1,4.3-2.7,4.8C24.3,23.1,24,23,23.8,23c-0.4,0-0.8,0.1-1.2,0.2l0,0C21.4,22.7,20,22.7,18.9,23.3
	z M23,13.2c0-0.7,0-1.3,0-2c0-0.7-0.6-1.2-1.2-1.2c-0.6-0.1-1.2,0.4-1.3,1c-0.1,0.7-0.2,1.5-0.2,2.2H23z"/>
<path class="st0" d="M7.3,0.9c3.1-0.5,6.4,1.5,6.9,5.6c0.5,3.8,0.5,7.7,0,11.5c-0.5,3.8-3.3,6-7.1,5.6v-3.9c2.4-0.5,2.5-1.4,2.6-3.2
	c0.1-2.7,0-5.3,0-7.9c0-0.4,0-0.8-0.1-1.2C9.5,5.9,8.8,4.9,7.3,4.9L7.3,0.9z"/>
<path class="st0" d="M49.4,2.3h4.3v4.6h3.4v3.4h-3.4V17c0,2.1,0.1,2.2,2.1,3v3.5c-3.2,0.8-6-1.1-6.4-4.3c0-0.5-0.1-1-0.1-1.5V3.8
	C49.4,3.3,49.4,2.8,49.4,2.3z"/>
<path class="st0" d="M0.9,7.1h4.1c0.1,0.4,0.1,0.8,0.1,1.2v14c0,1.5,0,1.5-1.5,1.5c-0.8,0-1.5,0-2.3,0c-0.1,0-0.3-0.1-0.4-0.1
	C0.9,18.1,0.9,12.6,0.9,7.1z"/>
<path class="st0" d="M47,23.6h-4.2V7.1H47V23.6z"/>
<path class="st0" d="M0.3,2.6C0.3,1.2,1.4,0,2.8,0C2.9,0,3,0,3,0c1.5,0.1,2.6,1.3,2.5,2.7C5.5,4.2,4.3,5.4,2.8,5.3
	C1.4,5.2,0.3,4,0.3,2.6z"/>
<path class="st0" d="M47.6,2.6c0,1.4-1.1,2.7-2.5,2.7c-1.5,0.1-2.8-1.1-2.8-2.6c0,0,0,0,0,0c0-1.5,1.1-2.7,2.6-2.7c0,0,0,0,0.1,0
	c1.4-0.1,2.6,1,2.7,2.4C47.6,2.5,47.6,2.5,47.6,2.6z"/>
<path class="st0" d="M22.5,23.1c0.4-0.1,0.9-0.1,1.3-0.2c0.3,0,1.4-0.3,1.7-0.2c-0.2,0.2-1.3,0.9-1.5,0.9c-1.6,0.4-3.8,0.6-5.5-0.5
	C19.6,22.5,21.4,22.6,22.5,23.1"/>
<path class="st0" d="M22.5,23.1l-0.1,0.1C22.4,23.2,22.4,23.2,22.5,23.1C22.5,23.1,22.5,23.1,22.5,23.1z"/>
</svg>
