<svg width="47px" height="36px" viewBox="0 0 47 36" version="1.1" xmlns="http://www.w3.org/2000/svg" xmlns:xlink="http://www.w3.org/1999/xlink">
  <g id="Symbols" stroke="none" stroke-width="1" fill="none" fill-rule="evenodd">
    <g id="BLCK/Footer" transform="translate(-309.000000, -62.000000)" fill="#C1C1C1">
      <g id="Group-2">
        <g transform="translate(141.000000, 60.000000)">
          <path d="M191.490325,27.6071742 C184.049406,22.6762833 184.051818,10.2890491 191.495148,5.17615075 C198.933655,10.5088092 198.931646,22.3535976 191.490325,27.6071742 Z M192.404214,4.46322213 C198.770088,0.322354655 206.843575,1.56898626 211.68188,7.23625219 C216.26539,12.6050737 216.079719,20.741759 211.252666,26.0422283 C206.441287,31.3252122 198.26773,32.3675822 192.444402,28.3093732 C195.983009,25.0892725 198.055133,21.1788947 198.04187,16.3560955 C198.028608,11.5662802 195.973765,7.69087334 192.404214,4.46322213 Z M190.455469,4.44017316 C182.654862,11.6254922 183.456223,22.0126318 190.382326,28.1873726 C186.791474,31.6506797 178.219247,31.9662122 172.801422,27.1517583 C167.050433,22.0408469 166.352759,13.2516371 171.320472,7.19094904 C175.923272,1.57534459 184.834692,0.294139531 190.455469,4.44017316 Z M209.536613,36.0041541 C209.483162,35.3476557 209.978286,34.7726235 210.641799,34.7201672 C210.675156,34.7177828 210.708914,34.7165907 210.742271,34.7165907 C211.457628,34.8250798 211.947929,35.4867443 211.837812,36.193712 C211.749799,36.7584119 211.298481,37.199919 210.726196,37.2797956 C210.06027,37.2817826 209.51893,36.7492718 209.516921,36.0911838 C209.516921,36.0593921 209.518126,36.027203 209.520538,35.9958087 L209.536613,36.0041541 Z M212.651229,36.0041541 L212.651229,32.5662803 L211.879608,32.5662803 L211.879608,34.5532609 C211.576586,34.1836825 211.114819,33.9774339 210.633762,33.9969063 C209.518528,33.9969063 208.614285,34.8910476 208.614285,35.9938218 C208.614285,37.0969934 209.518528,37.9911346 210.633762,37.9911346 C211.114819,38.010607 211.576586,37.8043584 211.879608,37.4343827 L211.879608,37.8957595 L212.651229,37.8957595 L212.651229,36.0041541 Z M201.772176,36.0041541 C201.719127,35.3476557 202.213849,34.7726235 202.877764,34.7201672 C202.911121,34.7177828 202.944477,34.7165907 202.977834,34.7165907 C203.698014,34.7849428 204.22569,35.4175974 204.156565,36.1301286 C204.096283,36.7472848 203.602365,37.2356846 202.977834,37.2956914 C202.312311,37.2976784 201.770568,36.765565 201.768157,36.1070797 C201.768157,36.0740958 201.769363,36.0411119 201.772176,36.008128 L201.772176,36.0041541 Z M204.886792,36.0041541 L204.886792,34.1006267 L204.115171,34.1006267 L204.115171,34.5612088 C203.812149,34.1916304 203.350382,33.9853818 202.869325,34.0052516 C201.754091,34.0052516 200.849848,34.8993929 200.849848,36.0017697 C200.849848,37.1045439 201.754091,37.9986851 202.869325,37.9986851 C203.350382,38.0185549 203.812149,37.8123064 204.115171,37.4423306 L204.115171,37.9033101 L204.886792,37.9033101 L204.886792,36.0041541 Z M207.848692,34.0088282 C207.425908,34.0004829 207.029246,34.2115002 206.803788,34.5655801 L206.803788,34.1006267 L206.040205,34.1006267 L206.040205,37.9033101 L206.811826,37.9033101 L206.811826,35.7577685 C206.811826,35.1298826 207.117259,34.7241412 207.663824,34.7241412 C207.842664,34.7217568 208.020297,34.7543433 208.186276,34.8195163 L208.443885,34.1046006 C208.252587,34.0370433 208.051644,34.0020725 207.848692,34.0012777 L207.848692,34.0088282 Z M178.153337,35.9958087 C178.100288,35.3397078 178.59501,34.765073 179.258524,34.7122193 C179.29188,34.7094375 179.325639,34.7082453 179.358995,34.7082453 C180.079175,34.7769949 180.606851,35.4100469 180.537727,36.1221807 C180.477444,36.7393369 179.983526,37.2281341 179.358995,37.2873461 C178.69307,37.2897305 178.15173,36.7576171 178.14972,36.0991317 C178.149318,36.0661479 178.150926,36.0327666 178.153337,35.9997827 L178.153337,35.9958087 Z M181.267954,35.9958087 L181.267954,34.1006267 L180.496332,34.1006267 L180.496332,34.5612088 C180.19331,34.1916304 179.731543,33.9853818 179.250486,34.0052516 C178.135252,34.0052516 177.231009,34.8993929 177.231009,36.0017697 C177.231009,37.1045439 178.135252,37.9986851 179.250486,37.9986851 C179.731543,38.0185549 180.19331,37.8123064 180.496332,37.4423306 L180.496332,37.9033101 L181.267954,37.9033101 L181.267954,35.9958087 Z M191.680819,34.7126167 C192.22216,34.6947339 192.675487,35.1147816 192.69317,35.6496767 C192.693572,35.658022 192.693572,35.66597 192.693572,35.6743153 L190.631897,35.6743153 C190.662038,35.1215373 191.133852,34.6943365 191.692876,34.7126167 L191.680819,34.7126167 Z M191.680819,34.0052516 C190.555538,34.0052516 189.779898,34.8000438 189.779898,35.9922322 C189.715195,37.0234751 190.508116,37.9124502 191.551412,37.9768284 C191.613302,37.9804049 191.675193,37.9811997 191.737083,37.9792127 C192.310574,37.9982877 192.871607,37.8091272 193.312476,37.4467019 L192.91059,36.8823995 C192.5931,37.1335538 192.200458,37.2734372 191.793347,37.2797956 C191.209809,37.3008576 190.706246,36.8784255 190.631897,36.3061751 L193.505783,36.3061751 L193.505783,35.9882582 C193.505783,34.7960699 192.773949,34.0012777 191.692876,34.0012777 L191.680819,34.0052516 Z M197.090606,35.9922322 C197.037959,37.0373839 197.852582,37.9271538 198.910346,37.9792127 C198.973442,37.9819945 199.036538,37.9819945 199.100036,37.9792127 C199.601992,38.0042487 200.094704,37.8425085 200.482122,37.5261812 L200.080236,36.930087 C199.79128,37.1474627 199.438826,37.2674763 199.075521,37.2714503 C198.355341,37.2027007 197.828067,36.5704435 197.89679,35.8579123 C197.957072,35.2407561 198.45099,34.7519589 199.075521,34.6923495 C199.438826,34.6967209 199.79128,34.8167345 200.080236,35.0341102 L200.482122,34.438016 C200.094704,34.1216887 199.601992,33.9599485 199.100036,33.9853818 C198.042272,33.9333229 197.14245,34.7388448 197.090606,35.7847914 C197.087391,35.8471826 197.087391,35.9099712 197.090606,35.9723624 L197.090606,35.9922322 Z M185.435511,34.4026477 C184.962491,34.1244705 184.418338,33.986574 183.868156,34.0052516 C182.895592,34.0052516 182.3008,34.4578858 182.3008,35.19744 C182.3008,35.8169805 182.734837,36.1909302 183.594873,36.3097517 L183.996759,36.3653871 C184.454909,36.4289705 184.704079,36.5883263 184.704079,36.8029202 C184.704079,37.0969934 184.366494,37.2873461 183.795816,37.2873461 C183.336461,37.3032419 182.885545,37.1633585 182.517819,36.88995 L182.115933,37.4860442 C182.605832,37.8162803 183.186959,37.9887502 183.779741,37.9792127 C184.888946,37.9792127 185.503832,37.4701483 185.503832,36.7468874 C185.503832,36.0240239 185.033625,35.7494232 184.201721,35.6302043 L183.799835,35.5749663 C183.438138,35.5272787 183.116629,35.4156104 183.116629,35.1775701 C183.116629,34.9387351 183.422062,34.7082453 183.880212,34.7082453 C184.3038,34.7134115 184.718948,34.8254772 185.08587,35.0341102 L185.435511,34.4026477 Z M196.22615,34.0052516 C195.803365,33.9965089 195.406704,34.2075262 195.181648,34.5612088 L195.181648,34.1006267 L194.417663,34.1006267 L194.417663,37.9033101 L195.189284,37.9033101 L195.189284,35.7577685 C195.189284,35.1298826 195.494717,34.7241412 196.041282,34.7241412 C196.220523,34.7217568 196.397755,34.7543433 196.563734,34.8195163 L196.821343,34.1006267 C196.630045,34.0330693 196.429102,33.9980985 196.22615,33.9969063 L196.22615,34.0052516 Z M189.088655,34.1006267 L187.690091,34.1006267 L187.690091,32.9477806 L186.906414,32.9477806 L186.906414,34.1006267 L186.102642,34.1006267 L186.102642,34.7916985 L186.906414,34.7916985 L186.906414,36.5919029 C186.906414,37.4741223 187.219885,37.9986851 188.208524,37.9986851 C188.577858,37.9998773 188.939957,37.8981439 189.253428,37.704612 L189.012296,37.029436 C188.788044,37.1613715 188.534052,37.2352872 188.272826,37.2436325 C187.87094,37.2436325 187.686073,36.989299 187.686073,36.6077987 L187.686073,34.784148 L189.084636,34.784148 L189.088655,34.1006267 Z M176.565888,37.8957595 L176.565888,35.5113829 C176.631797,34.747985 176.059109,34.0763855 175.287488,34.01161 C175.220775,34.0064438 175.154062,34.0052516 175.086947,34.0088282 C174.546009,33.9746521 174.029183,34.233357 173.73661,34.684799 C173.47016,34.2468685 172.983074,33.9881636 172.466651,34.0088282 C172.009304,33.9822026 171.570847,34.1928226 171.309219,34.5655801 L171.309219,34.1006267 L170.517504,34.1006267 L170.517504,37.9033101 L171.297162,37.9033101 L171.297162,35.7176315 C171.24331,35.2157202 171.610634,34.7658678 172.118216,34.7122193 C172.168451,34.7066558 172.219491,34.7054636 172.269727,34.7082453 C172.824329,34.7082453 173.1378,35.0662992 173.1378,35.7100809 L173.1378,37.8993361 L173.917459,37.8993361 L173.917459,35.7176315 C173.866018,35.2137332 174.23736,34.763086 174.747354,34.7118219 C174.794776,34.7070532 174.842601,34.705861 174.890023,34.7082453 C175.460701,34.7082453 175.766135,35.0662992 175.766135,35.7100809 L175.766135,37.8993361 L176.565888,37.8957595 Z" id="ICN/Misc/Master"></path>
        </g>
      </g>
    </g>
  </g>
</svg>
