<svg width="104px" height="18px" viewBox="0 0 104 18" version="1.1" xmlns="http://www.w3.org/2000/svg" xmlns:xlink="http://www.w3.org/1999/xlink">
  <g id="Symbols" stroke="none" stroke-width="1" fill="none" fill-rule="evenodd">
    <g id="BLCK/Footer" transform="translate(-605.000000, -71.000000)" fill="#C1C1C1">
      <g id="Group-2">
        <g transform="translate(141.000000, 60.000000)">
          <path d="M561.102038,18.8317308 C560.510808,19.2453846 559.653038,19.4465 558.480615,19.4465 L557.317885,19.4465 L558.209923,14.6308077 L559.064923,14.6308077 C560.038654,14.6308077 560.748615,14.7869231 561.238769,15.1053846 C561.620923,15.3549615 562.075769,15.8489231 562.075769,16.7828462 C562.074731,17.9126923 561.545115,18.5195 561.100654,18.8317308 L561.102038,18.8317308 Z M491.725885,24.8762692 L482.727615,24.8762692 L483.309154,21.7283462 L488.952846,21.7283462 L489.592885,18.182 L484.003192,18.182 L484.541462,15.0666154 L493.526577,15.0666154 L491.724154,24.8762692 L491.725885,24.8762692 Z M565.948192,12.3638462 C564.625192,11.4572692 562.622346,11 559.997115,11 L553.121462,11 L550.565808,24.8762692 L541.558538,24.8762692 L542.137654,21.7283462 L547.563269,21.7283462 L548.206077,18.1920385 L542.783577,18.2 L543.364077,15.0659231 L548.952731,15.0659231 L549.696269,11.0006923 L538.346923,11.0006923 L535.920385,24.1635385 L531.755462,24.1635385 L534.198269,11 L528.265885,11 L525.839346,24.1628462 L521.781731,24.1628462 L524.227308,11 L518.297692,11 L515.738231,24.8762692 L506.666577,24.8762692 L507.240154,21.7283462 L512.687577,21.7283462 L513.331423,18.2121154 L507.888846,18.2069231 L508.466231,15.0666154 L514.117885,15.0666154 L514.856577,11 L479.490038,11 L477.477154,21.9955769 L473.468346,11 L467.313038,11 L464,28.9449615 L469.878385,28.9449615 L471.883654,17.6461538 L475.773731,28.9449615 L496.841346,28.9449615 L499.402885,15.0648846 L502.697923,15.0648846 L500.136385,28.9449615 L555.569462,28.9449615 L557.176654,20.1834615 L559.776269,28.9449615 L565.657769,28.9449615 L562.963654,21.7858077 L563.580154,21.6528846 C564.937769,21.3621154 565.996654,20.7369615 566.733962,19.7999231 C567.470231,18.8542308 567.845462,17.6402692 567.845462,16.1819231 C567.845462,14.4840385 567.224462,13.2351154 565.946462,12.3628077 L565.948192,12.3638462 Z" id="ICN/Misc/Neteller"></path>
        </g>
      </g>
    </g>
  </g>
</svg>
