<svg width="142px" height="24px" viewBox="0 0 142 24" version="1.1" xmlns="http://www.w3.org/2000/svg" xmlns:xlink="http://www.w3.org/1999/xlink">
  <g id="Symbols" stroke="none" stroke-width="1" fill="none" fill-rule="evenodd">
    <g id="BLCK/Footer" transform="translate(-799.000000, -68.000000)" fill="#C1C1C1">
      <g id="Group-2">
        <g transform="translate(141.000000, 60.000000)">
          <path d="M668.285953,14.778186 L660.767256,14.778186 C660.405163,14.778186 660.030372,14.8620465 659.644279,15.0350698 C659.271721,15.1974884 658.966419,15.394093 658.721674,15.6290698 C658.255488,16.1897209 658.016605,17.0096279 658,18.0886512 L658,23.9661395 C658.016605,25.0475349 658.255488,25.8666047 658.721674,26.4243256 C658.966419,26.6630698 659.271721,26.8595349 659.644279,27.0234884 C660.030372,27.1927442 660.405163,27.2781395 660.767256,27.2781395 L668.285953,27.2781395 C670.22786,27.2606977 671.215628,26.1952093 671.246605,24.0892093 L671.246605,17.9654419 C671.215628,15.8565116 670.22786,14.7947907 668.285953,14.778186 Z M659.321674,14.3029302 C659.563488,14.1963256 659.805302,14.1131628 660.047116,14.0611163 C660.491395,11.9392093 662.370651,10.347814 664.623302,10.347814 C666.877349,10.347814 668.757442,11.9414419 669.201023,14.0626512 C669.892419,14.194093 670.464512,14.4735814 670.910326,14.8899535 C670.928465,14.4826512 670.91186,14.0905581 670.863442,13.7210698 C670.578512,10.5155349 667.890651,8 664.613535,8 C661.239442,8 658.492698,10.674186 658.349953,14.0171628 C658.330279,14.3058605 658.32414,14.6066977 658.334744,14.9209302 C658.61814,14.682186 658.941581,14.4675814 659.321674,14.3029302 Z M799.385116,23.7811163 C799.320093,26.1643721 798.058977,27.3325581 795.602326,27.2834419 L792.869256,27.2834419 C792.29186,27.2834419 791.775721,27.2327907 791.319302,27.1367907 C790.849349,27.0151163 790.399628,26.7287907 789.966651,26.2821395 C789.640977,25.8808372 789.431674,25.4752093 789.347814,25.0596744 C789.235209,24.6446977 789.186093,24.1829767 789.203395,23.6789767 L789.203395,18.3054884 C789.235209,15.8852558 790.454047,14.682186 792.863116,14.7003256 L798.649209,14.7003256 L798.649209,10.6206047 L799.385116,10.6206047 L799.385116,23.7811163 Z M798.649209,15.4401395 L792.818465,15.4401395 C792.398465,15.4401395 792.022,15.4870233 791.682791,15.576186 C791.327674,15.6562791 790.984558,15.8715814 790.663349,16.2222326 C790.355814,16.541907 790.162419,16.8585116 790.081488,17.1751163 C789.973488,17.4947907 789.924372,17.877814 789.941674,18.3244651 L789.941674,24.0825116 C789.941674,25.0398605 790.21907,25.6913488 790.781256,26.0411628 C791.058651,26.2035814 791.363116,26.3252558 791.704698,26.4068837 C792.044605,26.4975814 792.424,26.5422326 792.841907,26.5422326 L795.391488,26.5422326 C796.343674,26.5422326 797.122698,26.3230233 797.721163,25.8808372 C798.322698,25.4661395 798.628698,24.7504651 798.649209,23.7303256 L798.649209,15.4401395 Z M786.188465,15.4363721 C784.473163,15.4680465 783.627581,16.4043256 783.659256,18.2466047 L783.659256,27.2781395 L782.922512,27.2781395 L782.922512,18.2496744 C782.887767,15.8799535 784.015907,14.6965581 786.30707,14.6965581 L787.12614,14.6965581 L787.12614,15.4363721 L786.188465,15.4363721 Z M779.271302,23.8732093 C779.271302,24.3484651 779.235023,24.7655349 779.173767,25.1327907 C779.074,25.5317209 778.869302,25.9164186 778.558698,26.2821395 C777.912512,26.9630698 777.111581,27.2947442 776.155628,27.2781395 L772.477907,27.2781395 C771.521953,27.2781395 770.747535,26.9925116 770.147535,26.4243256 C769.534698,25.8626977 769.224093,25.0822791 769.224093,24.0809767 L769.224093,22.1782791 C769.25507,20.0313953 770.324326,18.932 772.431023,18.882186 L778.558698,18.882186 L778.558698,18.0494419 C778.558698,17.3632093 778.35986,16.7625116 777.964698,16.2456744 C777.713814,15.910093 777.416744,15.6857209 777.079767,15.5700465 C776.739023,15.4810233 776.356698,15.4363721 775.930419,15.4363721 L769.246,15.4363721 L769.246,14.6965581 L775.582977,14.6965581 C776.162465,14.6965581 776.68614,14.7374419 777.160698,14.8175349 C777.404884,14.865814 777.626047,14.9611163 777.830884,15.0985581 C778.04786,15.2293023 778.250326,15.4204651 778.437721,15.6713488 C779.005907,16.4043256 779.283302,17.249907 779.271302,18.202093 L779.271302,23.8732093 Z M778.535953,19.6204651 L772.350233,19.6204651 C771.609721,19.6370698 771.029395,19.865907 770.611488,20.3072558 C770.179209,20.7554419 769.965442,21.3696744 769.965442,22.1503721 L769.965442,24.034093 C769.965442,24.3991163 770.003256,24.7331628 770.081814,25.0338605 C770.159674,25.3506047 770.353767,25.6331628 770.660605,25.8756744 C771.194884,26.3184186 771.786512,26.5374884 772.433395,26.5374884 L776.181442,26.5374884 C777.74786,26.5208837 778.535953,25.695814 778.535953,24.0575349 L778.535953,19.6204651 Z M762.034837,27.2781395 C761.568512,27.2781395 761.143209,27.2350233 760.757116,27.1564651 C760.352744,27.0907442 759.950047,26.9032093 759.538279,26.5867442 C759.115767,26.2186512 758.823442,25.8060465 758.663116,25.3506047 C758.49386,24.9024186 758.412233,24.3946512 758.412233,23.8232558 L758.412233,17.9209302 C758.394791,17.4395349 758.443209,17.0171628 758.555953,16.6506047 C758.659349,16.2848837 758.876884,15.9266977 759.205767,15.576186 C759.580419,15.2082326 759.962884,14.9633488 760.366419,14.8432093 C760.754744,14.7456744 761.192326,14.6965581 761.682791,14.6965581 L766.401023,14.6965581 L766.401023,15.4363721 L761.792326,15.4363721 C760.978419,15.4363721 760.339209,15.6033953 759.871349,15.9381395 C759.393163,16.3030233 759.149116,16.9324651 759.149116,17.8196279 L759.149116,23.7258605 C759.149116,24.1415349 759.212605,24.5457674 759.338744,24.9356279 C759.467953,25.3187907 759.683256,25.6549302 759.992326,25.9490698 C760.327907,26.2035814 760.661814,26.3623721 760.987488,26.4272558 C761.326837,26.5020465 761.691023,26.5374884 762.077256,26.5374884 L766.474977,26.5374884 L766.474977,27.2781395 L762.034837,27.2781395 Z M748.574465,23.036 L748.574465,23.2331628 C748.574465,23.4862791 748.640186,23.6873488 748.774,23.8331628 C748.870558,24.0197209 749.000605,24.1150233 749.173628,24.1150233 L755.497767,24.1150233 L755.497767,27.2781395 L748.774,27.2781395 C748.160465,27.2781395 747.682,27.2207907 747.344326,27.1059535 C746.974837,26.9842791 746.643023,26.7854419 746.353628,26.5088837 C746.015116,26.1741395 745.784605,25.8333953 745.66893,25.4827442 C745.542093,25.1170233 745.479302,24.6318605 745.479302,24.0272558 L745.452791,17.6972558 C745.486837,15.7846512 746.485907,14.8113953 748.449023,14.778186 L752.59907,14.778186 C754.51614,14.8113953 755.487163,15.8186977 755.51814,17.8052558 L755.51814,20.3057209 L748.574465,23.036 Z M752.385163,18.5655814 L752.385163,18.492186 C752.385163,18.3297674 752.319442,18.1914884 752.187302,18.0886512 C752.043721,17.9888837 751.868326,17.9406047 751.657488,17.9406047 L749.514512,17.9406047 C749.239488,17.9406047 749.018047,18.0176279 748.846558,18.1755814 C748.633349,18.3213953 748.525349,18.5133953 748.525349,18.749907 L748.525349,20.0193953 L752.385163,18.5655814 Z M738.369442,12.9850233 C738.388279,12.1310698 738.702651,11.445814 739.319256,10.931907 C739.917721,10.4097674 740.703581,10.1415814 741.675442,10.1263721 L743.630326,10.1263721 L743.630326,13.1814884 L742.446093,13.1814884 C741.795442,13.1966977 741.463767,13.5078605 741.449395,14.1093953 L741.449395,14.7788837 L743.630326,14.7788837 L743.630326,17.9443721 L741.449395,17.9443721 L741.449395,27.2796744 L738.369442,27.2796744 L738.369442,12.9850233 Z M732.817767,18.6244651 C732.831302,18.1514419 732.555442,17.9255349 731.986419,17.9406047 L725.78786,17.9406047 L725.78786,14.778186 L732.770884,14.778186 C734.801953,14.8113953 735.83507,15.7937209 735.866744,17.7335349 L735.866744,24.3493023 C735.85014,25.185814 735.591581,25.8756744 735.097349,26.4243256 C734.581349,26.9925116 733.910326,27.2781395 733.088186,27.2781395 L728.864744,27.2781395 C726.812465,27.2606977 725.770419,26.3230233 725.741814,24.4588372 L725.741814,21.906186 C725.755349,19.9581395 726.749814,18.9682791 728.721302,18.9342326 L732.817767,18.9342326 L732.817767,18.6244651 Z M728.818,23.4886512 C728.818,23.6692093 728.901163,23.8119535 729.067488,23.9192558 C729.21093,24.0477674 729.394558,24.1150233 729.622698,24.1150233 L731.991721,24.1150233 C732.526,24.1150233 732.801721,23.9079535 732.817767,23.4886512 L732.817767,22.6059535 C732.817767,22.1238605 732.53214,21.8805116 731.966047,21.8805116 L729.622698,21.8805116 C729.315163,21.8805116 729.102791,21.932 728.985023,22.0286977 C728.875488,22.1426977 728.818,22.3686047 728.818,22.7034884 L728.818,23.4886512 Z M714.146326,24.1150233 L719.631581,24.1150233 C720.133349,24.0975814 720.394,23.8966512 720.409907,23.5112558 L720.409907,23.2271628 C720.409907,23.1446977 720.38493,23.0533023 720.336651,22.9550698 C720.21414,22.7163256 720.06386,22.5975814 719.884698,22.5975814 L717.165163,22.5975814 C716.358093,22.581814 715.669628,22.3037209 715.090837,21.7672093 C714.505209,21.2714419 714.205209,20.6616744 714.187907,19.9461395 L714.187907,17.5877209 C714.219581,15.7476744 715.219349,14.8113953 717.188605,14.778186 L723.550419,14.778186 L723.550419,17.9406047 L718.160326,17.9406047 C717.527814,17.9406047 717.208977,18.1348372 717.208977,18.5216279 L717.208977,18.8276279 C717.208977,19.2289302 717.534651,19.43 718.183767,19.43 L720.89507,19.43 C721.617442,19.4466047 722.233349,19.7231628 722.746419,20.2627442 C723.264791,20.8059535 723.533674,21.4521395 723.550419,22.2024186 L723.550419,24.5093488 C723.533674,25.1577674 723.233674,25.8045116 722.657256,26.4498605 C722.376093,26.7666047 722.088233,26.9842791 721.800372,27.1073488 C721.502605,27.2207907 721.098233,27.2781395 720.582233,27.2781395 L714.146326,27.2781395 L714.146326,24.1150233 Z M707.801116,28.7947442 C708.045163,28.7796744 708.256837,28.6920465 708.428326,28.5347907 C708.593116,28.3881395 708.67614,28.2197209 708.67614,28.0285581 L708.67614,27.2781395 L704.734698,27.2781395 C704.220791,27.2781395 703.809721,27.2124186 703.503023,27.0816744 C703.178744,26.9630698 702.85614,26.7416279 702.531163,26.4272558 C702.223628,26.0940465 702.002326,25.7457674 701.867674,25.3814419 C701.728,25.0482326 701.656977,24.624186 701.656977,24.1150233 L701.656977,14.778186 L704.734698,14.778186 L704.734698,23.1128837 C704.734698,23.7811163 705.007488,24.1150233 705.559907,24.1150233 L707.733163,24.1150233 C707.991581,24.1150233 708.215953,24.0304651 708.404186,23.8573023 C708.585442,23.7107907 708.67614,23.5369302 708.67614,23.3329302 L708.67614,14.778186 L711.729023,14.778186 L711.729023,28.5522326 C711.711581,29.5716744 711.450093,30.3876744 710.946093,31.0065116 C710.434558,31.6253488 709.734791,31.942093 708.842465,31.9578605 L701.656977,31.9578605 L701.656977,28.7947442 L707.801116,28.7947442 Z M696.102233,18.6244651 C696.118,18.1514419 695.84214,17.9255349 695.273953,17.9406047 L689.07386,17.9406047 L689.07386,14.778186 L696.054512,14.778186 C698.088093,14.8113953 699.120233,15.7937209 699.154977,17.7335349 L699.154977,24.3493023 C699.137674,25.185814 698.881488,25.8756744 698.384186,26.4243256 C697.864419,26.9925116 697.194093,27.2781395 696.372651,27.2781395 L692.153116,27.2781395 C690.099302,27.2606977 689.057953,26.3230233 689.026279,24.4588372 L689.026279,21.906186 C689.042047,19.9581395 690.037349,18.9682791 692.007302,18.9342326 L696.102233,18.9342326 L696.102233,18.6244651 Z M692.105535,23.4886512 C692.105535,23.6692093 692.188698,23.8119535 692.351116,23.9192558 C692.496233,24.0477674 692.679023,24.1150233 692.910372,24.1150233 L695.274651,24.1150233 C695.80893,24.1150233 696.086326,23.9079535 696.102233,23.4886512 L696.102233,22.6059535 C696.102233,22.1238605 695.820372,21.8805116 695.252047,21.8805116 L692.910372,21.8805116 C692.602,21.8805116 692.38893,21.932 692.270326,22.0286977 C692.160651,22.1426977 692.105535,22.3686047 692.105535,22.7034884 L692.105535,23.4886512 Z M676.422093,18.0886512 C676.43786,17.0096279 676.67814,16.1897209 677.144465,15.6290698 C677.388512,15.394093 677.693814,15.1974884 678.065535,15.0350698 C678.451628,14.8620465 678.825721,14.778186 679.188372,14.778186 L683.589302,14.778186 C685.530651,14.7947907 686.517442,15.8565116 686.548419,17.9654419 L686.548419,24.4564651 C686.534047,25.2054884 686.240884,25.8553023 685.674233,26.3985116 C685.112744,26.9697674 684.442558,27.2606977 683.66186,27.2781395 L679.500512,27.2781395 L679.500512,31.9578605 L676.422093,31.9578605 L676.422093,18.0886512 Z M683.468465,18.7007907 C683.452558,18.2103256 683.221349,17.9572093 682.772465,17.9406047 L680.374837,17.9406047 C679.807349,17.9753488 679.514186,18.2866512 679.500512,18.8722791 L679.500512,23.1847442 C679.514186,23.7893488 679.838326,24.0975814 680.468465,24.1150233 L682.666,24.1150233 C682.89414,24.1150233 683.083767,24.0304651 683.234884,23.8573023 C683.392837,23.7273953 683.468465,23.5602326 683.468465,23.3533023 L683.468465,18.7007907 Z" id="ICN/Misc/Paysafe"></path>
        </g>
      </g>
    </g>
  </g>
</svg>
