<svg width="124px" height="24px" viewBox="0 0 124 24" version="1.1" xmlns="http://www.w3.org/2000/svg" xmlns:xlink="http://www.w3.org/1999/xlink">
  <g id="Symbols" stroke="none" stroke-width="1" fill="none" fill-rule="evenodd">
    <g id="BLCK/Footer" transform="translate(-1030.000000, -68.000000)" fill="#C1C1C1">
      <g id="Group-2">
        <g transform="translate(141.000000, 60.000000)">
          <path d="M979.621303,17.6416754 C979.090925,16.5958011 978.282713,15.8635301 977.109926,15.6685016 C975.895848,15.4666383 974.764352,15.7667311 973.776253,16.5139431 C973.243153,16.9170339 972.837447,17.3781405 972.908986,18.1340946 C972.930912,18.3653632 972.938114,18.5979033 972.938594,18.8309203 C972.939234,19.2197058 972.920989,19.6102397 972.920989,19.9988662 C972.920989,20.3561801 972.92467,20.713494 972.92579,21.0708079 C972.926911,21.4281218 972.92547,21.7854357 972.915228,22.1422727 C972.903545,22.543933 973.046462,22.8540395 973.323815,23.1288596 C974.30055,24.0968497 975.463095,24.5399952 976.849218,24.4160162 C977.577088,24.3508477 978.19613,24.0741202 978.740593,23.6055431 C979.553766,22.9056974 979.945548,21.96298 980.080944,20.9563657 C980.232343,19.8308588 980.155523,18.6951791 979.621303,17.6416754 Z M983.115818,20.2751169 C983.055163,22.0306916 982.666261,23.7244358 981.495074,25.1164976 C980.787369,25.9574886 979.894015,26.5969343 978.778363,26.7703459 C977.972552,26.8954376 977.136493,26.9765008 976.329081,26.9057692 C975.396517,26.8240702 974.5651,26.3782226 973.861715,25.7433864 C973.57412,25.4835073 973.302369,25.206144 973.023416,24.936728 C972.989327,24.9508744 972.955078,24.9648617 972.920989,24.9790081 L972.920989,25.436141 C972.920829,27.3694189 972.914107,29.3028558 972.926911,31.2359748 C972.929311,31.586295 972.839848,31.7358646 972.458468,31.7198109 C971.806297,31.6926309 971.151886,31.701373 970.499075,31.7169499 C970.178831,31.7247383 970.050157,31.6247603 970.050638,31.286997 C970.05832,25.4738115 970.057679,19.660785 970.051758,13.8477584 C970.051438,13.5475067 970.138821,13.413355 970.460345,13.4205077 C971.153326,13.4359256 971.847108,13.4360845 972.539929,13.4201898 C972.845609,13.413355 972.934753,13.5401951 972.92435,13.8221679 C972.909146,14.230186 972.920349,14.6393168 972.920349,15.1625718 C973.108078,15.0099823 973.234191,14.9327338 973.327976,14.8271927 C973.908928,14.1731239 974.60431,13.6900826 975.431887,13.3931687 C976.472479,13.0199601 977.526195,13.0228211 978.599756,13.2337444 C979.664835,13.4429193 980.56347,13.9644259 981.291181,14.7262611 C982.103393,15.5769479 982.639214,16.6085169 982.833985,17.7763039 C982.971781,18.6034665 983.144466,19.446047 983.115818,20.2751169 Z M947.599799,9.76773608 C947.56347,10.854142 948.529483,11.6307593 949.463647,11.6579393 C950.393171,11.6852782 951.336778,10.739064 951.303329,9.82527506 C951.27036,8.91911559 950.628912,7.96415924 949.448443,8.00103505 C948.385765,8.00024032 947.633728,8.74554496 947.599799,9.76773608 Z M947.922284,25.9638465 C947.918603,26.3728183 948.055438,26.4931416 948.452662,26.4778826 C949.145004,26.4510205 949.839266,26.4640542 950.532567,26.4727963 C950.851851,26.47677 950.993808,26.3416646 950.993488,26.0240876 C950.990927,21.8523526 950.990287,17.6804586 950.995568,13.5087235 C950.996048,13.1963918 950.866735,13.0886254 950.562655,13.0938706 C949.85623,13.1059506 949.148365,13.1189843 948.4429,13.0892612 C948.035593,13.0722538 947.918763,13.2070412 947.922284,13.6075888 C947.940368,15.6602363 947.930606,17.7130428 947.930606,19.7658492 C947.930606,21.8318483 947.940528,23.8980064 947.922284,25.9638465 Z M930.07201,15.0947013 C930.298789,14.7659979 930.206765,14.5824136 929.942376,14.3781661 C928.722216,13.4349719 927.310487,12.9508179 925.799691,12.8037915 C924.57265,12.6845809 923.38978,12.9079021 922.215073,13.371234 C920.79358,13.9320006 919.361685,15.8749744 919.889184,17.7302091 C920.145251,18.6308054 920.621375,19.2905963 921.367811,19.7828566 C922.512751,20.5378571 923.864945,20.716673 925.154082,21.0682647 C925.756,21.2322985 926.379683,21.3481712 926.951033,21.5864335 C928.134543,22.0796474 927.961857,23.2919397 927.252712,23.8104263 C926.860449,24.0971675 926.337752,24.2696255 925.849784,24.3522782 C924.948268,24.5047088 924.054434,24.292514 923.210533,23.9933749 C922.414005,23.7110842 921.656366,23.3210271 921.026441,22.7289478 C920.838392,22.5520393 920.680431,22.5677751 920.530151,22.8328994 C920.236314,23.3513861 919.916711,23.8584285 919.56862,24.3425824 C919.393374,24.5860899 919.425862,24.713089 919.636317,24.9003291 C921.071893,26.1782666 922.825953,26.6152132 924.675077,26.7778165 C925.548906,26.8545881 926.408331,26.7116943 927.261194,26.4963205 C927.990825,26.3121004 928.663961,26.0372803 929.251315,25.5687031 C930.260219,24.7639521 930.733783,23.7347673 930.696493,22.4325108 C930.667846,21.4324134 930.317834,20.6101782 929.607408,19.9290883 C928.767828,19.1238605 927.676823,18.8183634 926.600701,18.5135022 C925.684941,18.2542589 924.738933,18.1005567 923.824454,17.8374987 C923.477003,17.7376796 923.117069,17.5205574 922.874925,17.2557509 C922.481062,16.8251623 922.728007,16.039485 923.299517,15.6832837 C924.355953,15.0244465 925.492411,15.1096423 926.613664,15.4086225 C927.498056,15.6445005 928.324672,16.0421871 929.026616,16.841057 C929.395033,16.2170293 929.700232,15.6330563 930.07201,15.0947013 Z M899.677491,24.056318 C899.386055,24.3821603 899.357888,25.0239902 899.550418,25.3728799 C899.898029,26.0024708 900.869484,26.0242466 901.382578,25.4870041 C902.141497,24.6921079 902.91946,23.914378 903.707187,23.1474565 C904.112253,22.7531078 904.248768,22.277696 904.057838,21.7881378 C903.855225,21.2688564 903.353654,21.0666753 902.814473,21.0623837 C900.58749,21.0453763 898.360347,21.0388595 896.133364,21.0464889 C895.454786,21.0488731 894.801335,20.9891089 894.162287,20.7341572 C892.611481,20.1156926 891.679557,18.9434551 891.34683,17.37973 C891.159741,16.5001147 891.224718,15.5635963 891.616981,14.6773052 C892.396385,12.9163263 894.01745,11.8892078 895.789433,11.8720415 C899.589789,11.8353246 903.390784,11.8610741 907.191619,11.8591668 C907.364144,11.8590078 907.551873,11.8793531 907.705994,11.8210194 C908.209005,11.6306003 908.543973,10.953961 908.423461,10.4310238 C908.327756,10.0150583 907.750965,9.59464229 907.263318,9.59464229 C903.315884,9.5943244 899.368291,9.59527808 895.420857,9.5970265 C894.59136,9.5973444 893.816757,9.85118349 893.074002,10.1744826 C892.025088,10.6314566 891.166463,11.3357528 890.452996,12.2384154 C889.70544,13.1841528 889.20883,14.2505313 889.066393,15.4145036 C888.858979,17.1098372 889.117927,18.7419097 890.121709,20.211379 C891.439014,22.1397296 893.21852,23.2331292 895.580899,23.2982976 C896.980305,23.3369218 898.381312,23.3138745 899.781519,23.324206 C899.926517,23.3253187 900.071355,23.3656913 900.299094,23.4001829 C900.045748,23.6667378 899.856098,23.85668 899.677491,24.056318 Z M901.424509,14.9001496 C901.77228,14.4198104 901.655289,13.8302742 901.223976,13.4451445 C900.874605,13.1334486 900.124328,13.1487075 899.769836,13.4942593 C898.922414,14.3203092 898.080753,15.1520813 897.252857,15.997046 C896.776732,16.4831073 896.761048,17.0580203 897.084333,17.6232375 C897.346481,18.0818009 897.706095,18.3887284 898.314255,18.3828474 C900.567805,18.3604358 902.822155,18.3542368 905.075225,18.3955632 C905.682744,18.4066895 906.339876,18.492998 906.882578,18.7419097 C908.583984,19.521547 909.616414,20.8176046 909.71644,22.752631 C909.782377,24.0278665 909.429645,25.1439955 908.550695,26.0800371 C907.632374,27.0577229 906.518483,27.5755738 905.144683,27.5660369 C902.11749,27.5452148 899.090298,27.5595201 896.062945,27.559679 C895.289623,27.559679 894.51582,27.5474401 893.742658,27.5644475 C893.084725,27.5789117 892.694863,28.0433562 892.574032,28.5416564 C892.426633,29.1501073 892.98726,29.8218193 893.629028,29.8224551 C897.656482,29.8267467 901.683937,29.8380319 905.710911,29.8060835 C906.328193,29.8013151 906.978123,29.6722497 907.553314,29.4490875 C909.060108,28.8640019 910.302353,27.904754 911.067994,26.4634184 C911.440251,25.762619 911.735209,24.9990354 911.919897,24.2295708 C912.056573,23.6605389 911.951905,23.0358754 911.966629,22.4361666 C911.984554,21.7029419 911.766577,21.0294816 911.493865,20.359518 C910.448952,17.7926755 907.918209,16.1011566 905.104192,16.1124419 C903.904038,16.1173692 902.703884,16.1106934 901.50357,16.1094219 C901.16108,16.109104 900.81875,16.1092629 900.39672,16.1092629 C900.783541,15.6591237 901.134193,15.301174 901.424509,14.9001496 Z M957.573131,13.4786824 C957.585934,13.1801791 957.464142,13.086718 957.174466,13.0930759 C956.508052,13.1076991 955.841157,13.0972085 955.174422,13.0975264 C954.549939,13.0978443 954.518411,13.1274086 954.518251,13.7474626 C954.51761,16.6213916 954.517931,19.4951617 954.517931,22.3690908 C954.517931,23.5344935 954.51665,24.7000553 954.518571,25.865458 C954.519531,26.4225689 954.570104,26.4696173 955.142254,26.4702531 C955.768978,26.4710479 956.395702,26.4712068 957.022426,26.4702531 C957.567689,26.4692994 957.568649,26.4685047 957.568809,25.916957 C957.569129,23.1223428 957.57137,20.3278875 957.564808,17.5335911 C957.564328,17.2821362 957.637787,17.104274 957.814634,16.9144907 C958.730554,15.930606 959.82524,15.4623467 961.196959,15.4876194 C962.568198,15.512892 963.478997,16.4037926 963.461392,17.7224207 C963.456431,18.1062788 963.472275,18.4904548 963.472595,18.8744719 C963.473716,21.1788922 963.477396,23.4833125 963.470195,25.7875738 C963.468274,26.373772 963.515166,26.49489 964.17742,26.4745447 C964.803664,26.4553121 965.431508,26.4527689 966.057272,26.4770879 C966.426489,26.4913931 966.540118,26.3620099 966.537078,25.9991329 C966.521874,24.2511876 966.560604,22.5021298 966.521393,20.7549793 C966.484424,19.094932 966.731689,17.4197847 966.35463,15.7788111 C966.230597,15.2391845 965.994055,14.6873189 965.672051,14.2374976 C964.962905,13.2464602 963.863097,12.9106042 962.706635,12.8064936 C962.190339,12.759922 961.659,12.8856495 961.133903,12.9255453 C960.454685,12.9772032 959.830682,13.2079949 959.261092,13.5559309 C958.687822,13.9059332 958.149441,14.3123619 957.568649,14.7125916 C957.568649,14.3133156 957.555366,13.8952837 957.573131,13.4786824 Z M1010.32918,13.4247993 C1009.65765,13.4247993 1009.65413,13.4235277 1009.4083,14.0550259 C1008.87056,15.4356436 1008.33586,16.8173739 1007.80148,18.199422 C1007.36633,19.3246111 1006.93598,20.4515486 1006.49794,21.575625 C1006.28188,22.1298748 1006.05318,22.6791972 1005.83025,23.2307449 C1005.79536,23.2313807 1005.76079,23.2318576 1005.72606,23.2324934 C1005.5148,22.7160731 1005.29587,22.2025138 1005.09389,21.6825967 C1004.51934,20.2035906 1003.95519,18.7206107 1003.38016,17.2417636 C1002.94277,16.1172103 1002.47257,15.004737 1002.06462,13.8700111 C1001.94139,13.5268435 1001.78263,13.4125603 1001.43998,13.4200308 C1000.72011,13.4357666 999.999759,13.4230508 999.279571,13.4265477 C999.156178,13.4270245 999.033106,13.4500719 998.882187,13.4654898 C999.057272,13.9372459 999.20211,14.3582977 999.368714,14.7707663 C1000.05625,16.4740473 1000.74796,18.1758978 1001.44302,19.8764767 C1002.26675,21.8922484 1003.07977,23.9126295 1003.93039,25.9172749 C1004.11988,26.3637583 1004.23143,26.7832207 1004.1394,27.2002988 C1004.09667,27.3937379 1003.72537,28.1482615 1003.63799,28.3242163 C1003.32959,28.9458598 1002.95733,29.526177 1002.02333,29.4940696 C1001.56625,29.4784928 1001.10821,29.4913675 1000.6036,29.4913675 C1000.47716,30.2058364 1000.33585,31.0035937 1000.18973,31.8290078 C1000.3781,31.8957658 1000.53926,32.0041679 1000.69706,31.9998763 C1001.53008,31.97667 1002.3695,31.9795311 1003.19276,31.8703342 C1004.44924,31.7035983 1005.37925,30.9821357 1005.91363,29.8666425 C1006.55316,28.5314838 1007.09554,27.1495946 1007.66449,25.7816927 C1008.42004,23.9650822 1009.16216,22.1429085 1009.90683,20.3218475 C1010.54236,18.7686129 1011.17212,17.2129941 1011.80717,15.6594416 C1012.09925,14.9452907 1012.39773,14.2338418 1012.73333,13.4247993 C1011.86991,13.4247993 1011.09947,13.4246403 1010.32918,13.4247993 Z M992.635271,24.7293016 C991.999905,25.0096849 991.336051,25.0721513 990.653312,25.0355934 C989.544382,24.976147 988.453216,24.4034593 988.160179,23.2105586 C987.844417,21.9243558 988.593893,20.8172867 989.838379,20.4316802 C990.234482,20.3088138 990.669636,20.2763885 991.088466,20.265898 C992.139941,20.2393537 993.060662,20.6130392 993.831904,21.3076396 C994.009391,21.4673818 994.265778,21.8124567 994.265778,22.7661415 C994.265778,23.4168724 993.995307,24.129116 992.635271,24.7293016 Z M993.894801,19.7820619 C993.079547,18.9925698 992.074964,18.5363906 990.977077,18.3949274 C989.887992,18.2545768 988.767058,18.2405894 987.727426,18.7177497 C986.829431,19.1295826 986.083636,19.7421661 985.631037,20.6268676 C985.251098,21.3696291 985.186121,22.1864601 985.235894,23.0152122 C985.293189,23.9704864 985.638239,24.8048016 986.29009,25.5001968 C986.925936,26.1785845 987.70534,26.6169616 988.627502,26.8205733 C989.68922,27.0550208 990.737014,27.0097208 991.769124,26.712648 C992.552209,26.4871016 993.244871,26.080355 993.829504,25.5038526 C993.886639,25.4474262 994.003309,25.384642 994.056283,25.4073715 C994.116619,25.4334388 994.162071,25.5499473 994.168953,25.6310105 C994.185597,25.8282643 994.189278,26.0286971 994.174554,26.2261098 C994.151188,26.5417795 994.294906,26.643029 994.599625,26.6360353 C995.239153,26.6214122 995.87964,26.6202995 996.519008,26.6365122 C996.83093,26.6443006 996.938958,26.531289 996.937677,26.2216593 C996.924874,23.1767028 996.929995,20.1315874 996.90791,17.0866308 C996.905349,16.7270917 996.818606,16.3499094 996.688332,16.0124639 C995.956461,14.1174923 994.414137,13.3129002 992.507237,13.1336075 C991.158404,13.0067674 989.801569,13.0660548 988.509871,13.5861309 C987.634922,13.9385174 986.810386,14.366404 986.115644,15.0153865 C985.970326,15.1508097 985.921353,15.2703382 986.034183,15.4531278 C986.3309,15.9342618 986.608413,16.4268399 986.907211,16.9065434 C987.028363,17.1010951 987.177362,17.1192151 987.36013,16.9389687 C987.546579,16.7552254 987.760875,16.5965958 987.975331,16.4441652 C988.643506,15.9693891 989.396343,15.7085564 990.202474,15.5712258 C991.307403,15.382873 992.329271,15.5391184 993.255113,16.2041545 C993.96794,16.7161243 994.091812,17.4860658 994.165112,18.2609347 C994.215365,18.7918192 994.174714,19.3312869 994.174714,19.9739115 C993.999628,19.8550188 993.940093,19.8257724 993.894801,19.7820619 Z M933.521033,8.16951936 L936.466804,8.16951936 L936.466804,19.3079216 C936.592757,19.2510184 936.650852,19.2419584 936.6819,19.2081026 C938.453404,17.2773678 940.226509,15.3477456 941.98697,13.4069971 C942.18142,13.1928949 942.36931,13.0865591 942.663467,13.0916454 C943.583067,13.1075401 944.503148,13.0965727 945.422909,13.0984801 C945.553343,13.0986391 945.683617,13.1113549 945.859664,13.1749338 C944.106084,15.2161371 942.264962,17.1681709 940.42448,19.1632794 C942.29441,21.5616377 944.155857,23.9490285 946.085323,26.4235226 C945.820453,26.4486363 945.706343,26.4685047 945.592394,26.4688226 C944.632462,26.4713658 943.672211,26.4847174 942.71308,26.4580142 C942.52215,26.4527689 942.272964,26.3388036 942.157734,26.1919361 C941.451469,25.2927703 940.777053,24.3689677 940.090153,23.4547019 C939.493197,22.6599646 938.894,21.8669757 938.277838,21.049191 C937.707769,21.6206072 937.167308,22.1411601 936.656934,22.6893699 C936.538023,22.8173226 936.470325,23.0384185 936.466804,23.218347 C936.448239,24.1580444 936.448399,25.0985365 936.463443,26.0382339 C936.468565,26.355652 936.382302,26.4902805 936.036772,26.4772468 C935.397724,26.4530868 934.757237,26.47073 934.117229,26.4704121 C933.521713,26.4700942 933.521233,26.4697763 933.521233,25.8947044 C933.520913,22.0020811 933.521073,18.1092988 933.521073,14.2165166 L933.521073,8.69531756 L933.521033,8.16951936 Z" id="ICN/Misc/Skinpay"></path>
        </g>
      </g>
    </g>
  </g>
</svg>
