<svg width="70px" height="24px" viewBox="0 0 70 24" version="1.1" xmlns="http://www.w3.org/2000/svg" xmlns:xlink="http://www.w3.org/1999/xlink">
  <g id="Symbols" stroke="none" stroke-width="1" fill="none" fill-rule="evenodd">
    <g id="BLCK/Footer" transform="translate(-446.000000, -68.000000)" fill="#C1C1C1">
      <g id="Group-2">
        <g transform="translate(141.000000, 60.000000)">
          <path d="M360.609604,10.3424615 L366.427313,9.30307692 L366.427313,31.5926154 L360.609604,31.5926154 L360.609604,10.3424615 Z M369.106432,10.3424615 L369.106432,31.5926154 L374.929692,31.5926154 L374.929692,9.30307692 L369.106432,10.3424615 Z M352.320925,31.5926154 L358.14326,31.5926154 L358.14326,15.2898462 L352.320925,15.2898462 L352.320925,31.5926154 Z M313.85022,17.5953846 C313.114449,17.5470769 311.411013,17.4372308 311.411013,15.9070769 C311.411013,14.0606154 313.86348,14.0606154 314.783348,14.0606154 C316.400749,14.0606154 318.495507,14.5375385 319.99141,14.984 C319.99141,14.984 320.825859,15.2775385 321.536035,15.5781538 L321.602026,15.596 L321.602026,10.5390769 L321.511366,10.5123077 C319.745947,9.896 317.693128,9.30307692 313.887225,9.30307692 C307.32511,9.30307692 305,13.1175385 305,16.3852308 C305,18.2689231 305.809163,22.7018462 313.324449,23.2135385 C313.961542,23.2526154 315.652335,23.3498462 315.652335,24.9310769 C315.652335,26.2366154 314.268062,27.0064615 311.939868,27.0064615 C309.388414,27.0064615 306.913436,26.3572308 305.410132,25.7415385 L305.410132,30.9498462 C307.660617,31.5384615 310.197577,31.8326154 313.170881,31.8326154 C319.587137,31.8326154 322.460837,28.2236923 322.460837,24.6467692 C322.460837,20.5910769 319.245154,17.956 313.85022,17.5953846 Z M349.040176,15.0510769 C343.659736,15.2233846 340.928502,17.632 340.928502,22.4196923 L340.928502,31.5926154 L346.798326,31.5926154 L346.798326,24.1123077 C346.798326,21.2455385 347.174537,20.0166154 350.584185,19.8993846 L350.584185,15.1350769 C350.010308,15.0135385 349.040176,15.0510769 349.040176,15.0510769 Z M333.24793,15.2713846 C333.118414,15.596 332.186211,18.2233846 329.931718,20.9464615 L329.931718,9.30307692 L323.92467,10.4876923 L323.92467,31.5926154 L329.931718,31.5926154 L329.931718,25.0689231 C331.671542,27.6726154 332.530661,31.5926154 332.530661,31.5926154 L339.725859,31.5926154 C339.014141,28.6403077 335.900837,23.1966154 335.900837,23.1966154 C338.694978,19.6618462 339.922291,15.8953846 340.117489,15.2713846 L333.24793,15.2713846 Z M355.230705,13.7258462 C356.816035,13.7258462 358.101013,12.4443077 358.101013,10.864 C358.101013,9.28276923 356.816035,8 355.230705,8 C353.647225,8 352.362863,9.28276923 352.362863,10.864 C352.362863,12.4443077 353.647225,13.7258462 355.230705,13.7258462 Z" id="ICN/Misc/Skrill"></path>
        </g>
      </g>
    </g>
  </g>
</svg>
