<svg width="78px" height="24px" viewBox="0 0 78 24" version="1.1" xmlns="http://www.w3.org/2000/svg" xmlns:xlink="http://www.w3.org/1999/xlink">
  <g id="Symbols" stroke="none" stroke-width="1" fill="none" fill-rule="evenodd">
    <g id="BLCK/Footer" transform="translate(-141.000000, -68.000000)" fill="#C1C1C1">
      <g id="Group-2">
        <g transform="translate(141.000000, 60.000000)">
          <path d="M31.2316344,8.39932088 L37.5748213,8.39932088 L33.6074759,31.6512054 L27.2675503,31.6512054 L31.2316344,8.39932088 Z M21.9516662,8.42539898 L28.6682694,8.42050934 L18.683865,31.6283871 L11.975415,31.6397963 L6.29752895,12.2491002 C10.3790191,14.8601698 13.8555421,19.0033277 15.0801522,21.8882173 L15.7421917,24.2825127 L21.9516662,8.42539898 Z M12.6733286,10.0895076 L14.8110967,20.3610187 C12.7108333,14.9873005 7.64932893,10.5181664 4.17443857e-14,8.66336163 L0.0815319647,8.20047538 L9.91102563,8.20047538 C11.2367354,8.2510017 12.3048041,8.67314092 12.6733286,10.0895076 Z M50.4242589,12.8570458 C47.9424259,12.8570458 46.7911945,13.8903905 46.7911945,14.85691 C46.7781494,15.9456706 48.1348413,16.6628183 50.3525108,17.7417997 C54.0165573,19.396129 55.7075302,21.412292 55.6798093,24.0543294 C55.6341514,28.8836672 51.3031735,32 44.6387507,32 C41.7965464,31.9706621 39.058703,31.4116129 37.5748213,30.7612903 L38.466781,25.5570798 L39.2837312,25.9286927 C41.3660576,26.7957895 42.7145963,27.1462139 45.2535017,27.1462139 C47.0749258,27.1462139 49.0251704,26.432326 49.0447381,24.8757895 C49.0561525,23.8571138 48.2277878,23.1318166 45.7573692,21.9908998 C43.3505456,20.877691 40.1642765,19.013107 40.2050424,15.6734805 C40.2392859,11.15382 44.6550571,8 50.9199732,8 C53.375716,8 55.3438976,8.50526316 56.5994899,8.97629881 L55.7417736,14.0158913 L55.1694192,13.746961 C54.0018815,13.2775552 52.4984321,12.8244482 50.4242589,12.8570458 Z M72.8700088,8.42539898 L78,31.6642445 L72.1182841,31.6642445 C72.1182841,31.6642445 71.5345152,28.9928693 71.345361,28.1811885 C70.4240498,28.1811885 63.9553038,28.1714092 63.226408,28.1714092 C62.9801815,28.7989134 61.8941757,31.6642445 61.8941757,31.6642445 L55.2362755,31.6642445 L64.6499561,10.3551783 C65.3185182,8.83938879 66.4501819,8.42539898 67.9715683,8.42539898 L72.8700088,8.42539898 Z M65.0510934,23.4121562 L70.3180583,23.4121562 C70.0636786,22.2500509 68.8488523,16.6986757 68.8488523,16.6986757 L68.4216248,14.6939219 C68.0938663,15.5691681 67.5427102,16.9773854 67.5769536,16.91382 C67.5769536,16.91382 65.5728979,22.0772835 65.0510934,23.4121562 Z" id="ICN/Misc/Visa"></path>
        </g>
      </g>
    </g>
  </g>
</svg>
