<svg xmlns="http://www.w3.org/2000/svg" width="16" height="16" viewBox="0 0 16 16">
  <path fill="#C1C1C1" d="M15.375,11 C15.0298125,11 14.75,10.7201875 14.75,10.375 L14.75,3.75 C14.75,3.06075 14.18925,2.5 13.5,2.5 L12.6875,2.5 L12.6875,3.125 C12.6875,3.4701875 12.4076875,3.75 12.0625,3.75 C11.7173125,3.75 11.4375,3.4701875 11.4375,3.125 L11.4375,2.5 L8.59375,2.5 L8.59375,3.125 C8.59375,3.4701875 8.3139375,3.75 7.96875,3.75 C7.6235625,3.75 7.34375,3.4701875 7.34375,3.125 L7.34375,2.5 L4.53125,2.5 L4.53125,3.125 C4.53125,3.4701875 4.2514375,3.75 3.90625,3.75 C3.5610625,3.75 3.28125,3.4701875 3.28125,3.125 L3.28125,2.5 L2.5,2.5 C1.81075,2.5 1.25,3.06075 1.25,3.75 L1.25,13.5 C1.25,14.18925 1.81075,14.75 2.5,14.75 L13.5,14.75 C14.18925,14.75 14.75,14.18925 14.75,13.5 C14.75,13.1548125 15.0298125,12.875 15.375,12.875 C15.7201875,12.875 16,13.1548125 16,13.5 C16,14.8785 14.8785,16 13.5,16 L2.5,16 C1.1215,16 0,14.8785 0,13.5 L0,3.75 C0,2.3715 1.1215,1.25 2.5,1.25 L3.28125,1.25 L3.28125,0.625 C3.28125,0.2798125 3.5610625,0 3.90625,0 C4.2514375,0 4.53125,0.2798125 4.53125,0.625 L4.53125,1.25 L7.34375,1.25 L7.34375,0.625 C7.34375,0.2798125 7.6235625,0 7.96875,0 C8.3139375,0 8.59375,0.2798125 8.59375,0.625 L8.59375,1.25 L11.4375,1.25 L11.4375,0.625 C11.4375,0.2798125 11.7173125,0 12.0625,0 C12.4076875,0 12.6875,0.2798125 12.6875,0.625 L12.6875,1.25 L13.5,1.25 C14.8785,1.25 16,2.3715 16,3.75 L16,10.375 C16,10.7201875 15.7201875,11 15.375,11 Z M8,7 C7.44771525,7 7,6.55228475 7,6 C7,5.44771525 7.44771525,5 8,5 C8.55228475,5 9,5.44771525 9,6 C9,6.55228475 8.55228475,7 8,7 Z M12,7 C11.4477153,7 11,6.55228475 11,6 C11,5.44771525 11.4477153,5 12,5 C12.5522847,5 13,5.44771525 13,6 C13,6.55228475 12.5522847,7 12,7 Z M4,7 C3.44771525,7 3,6.55228475 3,6 C3,5.44771525 3.44771525,5 4,5 C4.55228475,5 5,5.44771525 5,6 C5,6.55228475 4.55228475,7 4,7 Z M4,10 C3.44771525,10 3,9.55228475 3,9 C3,8.44771525 3.44771525,8 4,8 C4.55228475,8 5,8.44771525 5,9 C5,9.55228475 4.55228475,10 4,10 Z M4,13 C3.44771525,13 3,12.5522847 3,12 C3,11.4477153 3.44771525,11 4,11 C4.55228475,11 5,11.4477153 5,12 C5,12.5522847 4.55228475,13 4,13 Z M8,10 C7.44771525,10 7,9.55228475 7,9 C7,8.44771525 7.44771525,8 8,8 C8.55228475,8 9,8.44771525 9,9 C9,9.55228475 8.55228475,10 8,10 Z M12,10 C11.4477153,10 11,9.55228475 11,9 C11,8.44771525 11.4477153,8 12,8 C12.5522847,8 13,8.44771525 13,9 C13,9.55228475 12.5522847,10 12,10 Z M8,13 C7.44771525,13 7,12.5522847 7,12 C7,11.4477153 7.44771525,11 8,11 C8.55228475,11 9,11.4477153 9,12 C9,12.5522847 8.55228475,13 8,13 Z"/>
</svg>
