<svg xmlns="http://www.w3.org/2000/svg" width="15" height="15" viewBox="0 0 15 15">
  <g fill="#C1C1C1">
    <polygon points="1.532 1.533 3.832 1.533 3.832 0 0 0 0 3.834 1.532 3.834"/>
    <polygon points="11.496 0 11.496 1.533 13.796 1.533 13.796 3.833 15.328 3.833 15.328 0"/>
    <polygon points="13.796 13.798 11.496 13.798 11.496 15.331 15.325 15.331 15.325 11.498 13.796 11.498"/>
    <polygon points="1.532 11.498 0 11.498 0 15.328 3.833 15.328 3.833 13.798 1.533 13.798"/>
    <path d="M3.065,12.266 L12.26,12.266 L12.26,3.066 L3.065,3.066 L3.065,12.266 Z M4.597,4.602 L10.727,4.602 L10.727,10.733 L4.597,10.733 L4.597,4.602 Z"/>
  </g>
</svg>
