<svg xmlns="http://www.w3.org/2000/svg" width="24" height="24" viewBox="0 0 24 24">
  <path d="M11.9601563,21.9667969 L2.99001562,21.9667969 C2.43984375,21.9667969 1.99335937,21.5202656 1.99335937,20.9701406 L1.99335937,3.02990625 C1.99335937,2.47973437 2.43989063,2.03325 2.99001562,2.03325 L11.9601563,2.03325 C12.5113125,2.03325 12.9568125,1.58775 12.9568125,1.03659375 C12.9568125,0.4854375 12.5113125,0.03984375 11.9601563,0.03984375 L2.99001562,0.03984375 C1.34151562,0.03984375 0,1.38140625 0,3.02990625 L0,20.9700937 C0,22.6185937 1.34151562,23.9601094 2.99001562,23.9601094 L11.9601563,23.9601094 C12.5113125,23.9601094 12.9568125,23.5146094 12.9568125,22.9634531 C12.9568125,22.4122969 12.5113125,21.9667969 11.9601563,21.9667969 Z"/>
  <path d="M23.703,11.2903594 L17.6431875,5.31028125 C17.2524844,4.9235625 16.6206094,4.92857812 16.2338906,5.32026562 C15.8471719,5.71195312 15.8511562,6.34284375 16.243875,6.7295625 L20.5744219,11.0032969 L8.97009375,11.0032969 C8.4189375,11.0032969 7.9734375,11.4487969 7.9734375,11.9999531 C7.9734375,12.5511094 8.4189375,12.9966562 8.97009375,12.9966562 L20.5744219,12.9966562 L16.243875,17.2703906 C15.8512031,17.6571094 15.8482031,18.288 16.2338906,18.6796875 C16.4292187,18.8770312 16.686375,18.9766875 16.9435312,18.9766875 C17.1967031,18.9766875 17.4498281,18.8810156 17.6431875,18.689625 L23.703,12.7095469 C23.892375,12.5221875 24,12.267 24,11.9999062 C24,11.7329062 23.8933594,11.47875 23.703,11.2903594 Z"/>
</svg>
