<svg xmlns="http://www.w3.org/2000/svg" width="24" height="19" viewBox="0 0 24 19">
  <path d="M1.02857056 2.8L22.9714294 2.8C23.5371432 2.8 24 2.35 24 1.8 24 1.25 23.5371432.8 22.9714294.8L1.02857056.8C.462856754.8 0 1.25 0 1.8 0 2.35.462856754 2.8 1.02857056 2.8zM1.02857056 10.8L22.9714294 10.8C23.5371432 10.8 24 10.35 24 9.8 24 9.25 23.5371432 8.8 22.9714294 8.8L1.02857056 8.8C.462856754 8.8 0 9.25 0 9.8 0 10.35.462856754 10.8 1.02857056 10.8zM1.02857056 18.8L22.9714294 18.8C23.5371432 18.8 24 18.35 24 17.8 24 17.25 23.5371432 16.8 22.9714294 16.8L1.02857056 16.8C.462856754 16.8 0 17.25 0 17.8 0 18.35.462856754 18.8 1.02857056 18.8z"/>
</svg>
