<?xml version="1.0" encoding="utf-8"?>
<!-- Generator: Adobe Illustrator 23.1.0, SVG Export Plug-In . SVG Version: 6.00 Build 0)  -->
<svg version="1.1" id="Layer_1" xmlns="http://www.w3.org/2000/svg" xmlns:xlink="http://www.w3.org/1999/xlink" x="0px" y="0px"
	 viewBox="0 0 200 48.9" style="enable-background:new 0 0 200 48.9;" xml:space="preserve">
<style type="text/css">
	.st0{fill:#FFDA45;}
	.st1{fill:#F49723;}
	.st2{fill:#E08511;}
	.st3{fill:#FFFFFF;}
</style>
<g>
	<circle class="st0" cx="25.2" cy="24.4" r="24.4"/>
	<circle class="st1" cx="25.2" cy="24.4" r="19.3"/>
	<path class="st2" d="M8.5,27c0-10.7,8.6-19.3,19.3-19.3c4.5,0,8.8,1.5,12.2,4.4c-6.8-8.2-18.9-9.4-27.1-2.6s-9.4,18.9-2.6,27.1
		c0.8,1,1.7,1.8,2.6,2.6C10.1,35.8,8.5,31.4,8.5,27L8.5,27z"/>
	<path class="st3" d="M32.8,24.4c2.9-2.1,3.4-6.1,1.3-8.9c-1.2-1.7-3.1-2.6-5.2-2.6v-2.6h-2.6v2.6h-3.8v-2.6h-2.6v2.6h-3.8v2.6h2.6
		v18h-2.6V36h3.8v2.6h2.6V36h3.8v2.6H29V36c3.5,0,6.4-2.9,6.4-6.4C35.5,27.6,34.6,25.6,32.8,24.4z M22,15.4h7.1
		c2.1,0,3.8,1.7,3.8,3.8c0,2.1-1.7,3.8-3.8,3.8h-7.7v-7.7C21.4,15.4,22,15.4,22,15.4z M29.1,33.4h-7.7v-7.7h7.7
		c2.1,0,3.8,1.7,3.8,3.8C32.9,31.7,31.2,33.4,29.1,33.4z"/>
</g>
<g>
	<path class="st3" d="M76.9,15.1c1.4,0,2.7,0.2,3.9,0.8c1.2,0.6,2,1.2,2.7,2c0.6,0.8,1.2,2,1.4,3.3s0.6,2.7,0.6,3.9
		c0,2-0.2,4.1-1.2,6.1s-1.8,3.5-3.3,4.9c-1.4,1.4-2.9,2.7-4.9,3.3c-1.8,0.8-3.9,1.2-6.1,1.2c-0.2,0-0.8,0-1.4,0
		c-0.6,0-1.4,0-2.3-0.2c-0.8,0-1.8-0.2-2.9-0.6c-0.8-0.2-2-0.6-2.9-0.8l8-33.8l7.4-1.2l-2.9,12.1c0.6-0.2,1.2-0.6,1.8-0.6
		C75.4,15.4,76.3,15.1,76.9,15.1 M71,35c1.2,0,2-0.2,2.9-0.8c0.8-0.6,1.8-1.2,2.3-2c0.6-0.8,1.2-1.8,1.8-2.9
		c0.2-1.2,0.6-2.3,0.6-3.5c0-1.4-0.2-2.7-0.8-3.5c-0.6-0.8-1.4-1.2-2.7-1.2c-0.2,0-0.8,0-1.8,0.2c-0.6,0.2-1.4,0.6-1.8,0.8
		l-2.9,12.7c0.2,0,0.2,0,0.6,0h0.4c0.2,0,0.2,0,0.6,0C70.1,35,70.4,35,71,35L71,35z"/>
	<path class="st3" d="M93.1,40.1h-7L92,15.7h7L93.1,40.1 M96.5,12.7c-0.8,0-1.8-0.2-2.7-0.8c-0.8-0.6-1.2-1.4-1.2-2.7
		c0-0.6,0-1.2,0.2-1.8c0.2-0.6,0.6-1.2,1.2-1.4c0.2-0.2,0.8-0.8,1.4-0.8c0.6-0.2,1.2-0.2,1.8-0.2c0.8,0,1.8,0.2,2.7,0.8
		s1.2,1.4,1.2,2.7c0,0.6,0,1.2-0.2,1.8c-0.2,0.6-0.6,1.2-1.2,1.4c-0.2,0.2-0.8,0.8-1.4,0.8C97.8,12.5,97.2,12.7,96.5,12.7z"/>
	<path class="st3" d="M105.1,9.5l7.4-1.2l-1.8,7.4h7.6l-1.4,5.5h-7.6l-2,8.6c-0.2,0.6-0.2,1.4-0.2,2c0,0.6,0,1.2,0.2,1.4
		c0.2,0.6,0.6,0.8,0.8,1.2c0.6,0.2,1.2,0.2,2,0.2c0.8,0,1.4,0,2-0.2c0.6,0,1.4-0.2,2-0.6l0.6,5.3c-0.8,0.2-2,0.6-2.9,0.8
		c-1.2,0.6-2.3,0.6-3.9,0.6c-2,0-3.9-0.2-4.9-0.8c-1.2-0.6-2-1.4-2.7-2.7c-0.6-1.2-0.6-2.3-0.6-3.9c0-1.4,0.2-2.9,0.6-4.5L105.1,9.5
		"/>
	<path class="st3" d="M118,30.3c0-2,0.2-4.1,1.2-5.9c0.6-1.8,1.8-3.5,2.9-4.9c1.2-1.4,2.9-2.3,4.7-3.3c1.8-0.8,3.9-1.2,6.1-1.2
		c1.4,0,2.7,0,3.9,0.2s2,0.6,2.9,1.2l-2.3,5.3c-0.6-0.2-1.2-0.6-2-0.6c-0.6-0.2-1.4-0.2-2.3-0.2c-2.3,0-4.1,0.8-5.5,2.3
		c-1.4,1.4-2,3.9-2,6.5c0,1.4,0.2,2.9,1.2,3.9c0.6,0.8,2,1.4,3.9,1.4c0.8,0,1.8,0,2.7-0.2s1.4-0.2,2.3-0.6l0.6,5.5
		c-0.8,0.2-1.8,0.6-2.9,0.8c-1.2,0.2-2.3,0.2-3.9,0.2c-2,0-3.5-0.2-4.9-0.8s-2.3-1.2-3.3-2.3c-0.8-0.8-1.4-2-1.8-3.3
		C118,33,118,31.8,118,30.3"/>
	<path class="st3" d="M148.5,40.9c-1.8,0-2.9-0.2-4.5-0.8c-1.2-0.6-2.3-1.2-2.9-2c-0.8-0.8-1.4-2-1.8-3.3c-0.2-1.2-0.6-2.7-0.6-4.1
		c0-1.8,0.2-3.9,0.8-5.5c0.6-1.7,1.4-3.5,2.7-4.9c1.2-1.4,2.7-2.7,4.5-3.5c1.8-0.8,3.5-1.4,5.9-1.4c1.8,0,2.9,0.2,4.5,0.8
		c1.2,0.6,2.3,1.2,2.9,2c0.8,0.8,1.4,2,1.8,3.3c0.2,1.2,0.6,2.7,0.6,4.1c0,1.8-0.2,3.9-0.8,5.5c-0.6,1.8-1.4,3.5-2.7,4.9
		c-1.2,1.4-2.7,2.7-4.5,3.5C152.6,40.3,150.9,40.9,148.5,40.9L148.5,40.9 M152.1,20.9c-0.8,0-2,0.2-2.7,0.8c-0.8,0.6-1.4,1.4-2,2.3
		c-0.6,0.8-0.8,1.8-1.2,2.9c-0.2,1.2-0.2,2-0.2,2.9c0,1.4,0.2,2.7,0.8,3.5s1.4,1.2,2.7,1.2s2-0.2,2.7-0.8c0.8-0.6,1.4-1.4,2-2.3
		s0.8-1.8,1.2-2.9c0.2-1.2,0.2-2,0.2-2.9c0-1.4-0.2-2.7-0.8-3.5C154.2,21.3,153.2,20.9,152.1,20.9z"/>
	<path class="st3" d="M170,40.1h-7l5.9-24.4h7L170,40.1 M173.2,12.7c-0.8,0-1.8-0.2-2.7-0.8s-1.2-1.4-1.2-2.7c0-0.6,0-1.2,0.2-1.8
		c0.2-0.6,0.6-1.2,1.2-1.4c0.2-0.2,0.8-0.8,1.4-0.8c0.6-0.2,1.2-0.2,1.8-0.2c0.8,0,1.8,0.2,2.7,0.8c0.8,0.6,1.2,1.4,1.2,2.7
		c0,0.6,0,1.2-0.2,1.8c-0.2,0.6-0.6,1.2-1.2,1.4c-0.2,0.2-0.8,0.8-1.4,0.8C174.4,12.5,173.8,12.7,173.2,12.7z"/>
	<path class="st3" d="M180.8,16.8c0.6-0.2,1.2-0.2,1.8-0.6c0.6-0.2,1.4-0.2,2-0.6c0.8-0.2,1.8-0.2,2.7-0.2c0.8,0,2-0.2,3.3-0.2
		c3.5,0,6.1,1.2,7.6,3.3c1.4,2,1.8,4.9,0.6,8.8l-3.3,13.3h-6.8l2.9-12.9c0.2-0.8,0.2-1.4,0.6-2.3c0-0.8,0-1.4,0-2
		c0-0.6-0.2-1.2-0.8-1.4s-1.2-0.6-2-0.6c-0.8,0-1.8,0-2.7,0.2l-4.5,19.1h-7L180.8,16.8"/>
</g>
</svg>
