<?xml version="1.0" encoding="utf-8"?>
<!-- Generator: Adobe Illustrator 23.0.1, SVG Export Plug-In . SVG Version: 6.00 Build 0)  -->
<svg version="1.1" id="Layer_1" xmlns="http://www.w3.org/2000/svg" xmlns:xlink="http://www.w3.org/1999/xlink" x="0px" y="0px"
	 viewBox="0 0 200 200" style="enable-background:new 0 0 200 200;" xml:space="preserve">
<style type="text/css">
	.st0{fill:#FFDA45;}
	.st1{fill:#F49723;}
	.st2{fill:#E08511;}
	.st3{fill:#FFFFFF;}
</style>
<g>
	<g>
		<circle class="st0" cx="98.5" cy="76.8" r="38.3"/>
		<circle class="st1" cx="98.5" cy="76.8" r="30.2"/>
		<path class="st2" d="M72.4,80.8c0-16.7,13.5-30.2,30.2-30.2c7,0,13.8,2.4,19.2,6.9c-10.6-12.9-29.7-14.7-42.5-4s-14.7,29.7-4,42.5
			c1.2,1.5,2.6,2.8,4,4C74.8,94.6,72.4,87.8,72.4,80.8L72.4,80.8z"/>
		<path class="st3" d="M110.5,76.8c4.5-3.3,5.4-9.5,2.1-14c-1.9-2.6-4.9-4.1-8.1-4.1v-4h-4v4h-6v-4h-4v4h-6v4h4v28.2h-4v4h6v4h4v-4
			h6v4h4v-4c5.5,0,10.1-4.5,10.1-10C114.6,81.7,113.2,78.7,110.5,76.8z M93.5,62.7h11.1c3.3,0,6,2.7,6,6c0,3.3-2.7,6-6,6H92.5v-12
			H93.5z M104.6,90.9h-12v-12h12c3.3,0,6,2.7,6,6C110.6,88.2,107.9,90.9,104.6,90.9z"/>
	</g>
	<g>
		<path class="st3" d="M56.1,140.1c1.2,0,2.2,0.2,3.2,0.7c1,0.5,1.7,1,2.2,1.7c0.5,0.7,1,1.7,1.2,2.7s0.5,2.2,0.5,3.2
			c0,1.7-0.2,3.4-1,5.1s-1.5,2.9-2.7,4.1c-1.2,1.2-2.4,2.2-4.1,2.7c-1.5,0.7-3.2,1-5.1,1c-0.2,0-0.7,0-1.2,0c-0.5,0-1.2,0-1.9-0.2
			c-0.7,0-1.5-0.2-2.4-0.5c-0.7-0.2-1.7-0.5-2.4-0.7l6.6-28l6.1-1l-2.4,10c0.5-0.2,1-0.5,1.5-0.5C54.9,140.3,55.6,140.1,56.1,140.1
			 M51.2,156.6c1,0,1.7-0.2,2.4-0.7c0.7-0.5,1.5-1,1.9-1.7c0.5-0.7,1-1.5,1.5-2.4c0.2-1,0.5-1.9,0.5-2.9c0-1.2-0.2-2.2-0.7-2.9
			s-1.2-1-2.2-1c-0.2,0-0.7,0-1.5,0.2c-0.5,0.2-1.2,0.5-1.5,0.7l-2.4,10.5c0.2,0,0.2,0,0.5,0H50c0.2,0,0.2,0,0.5,0
			C50.5,156.6,50.7,156.6,51.2,156.6L51.2,156.6z"/>
		<path class="st3" d="M69.5,160.8h-5.8l4.9-20.2h5.8L69.5,160.8 M72.4,138.1c-0.7,0-1.5-0.2-2.2-0.7c-0.7-0.5-1-1.2-1-2.2
			c0-0.5,0-1,0.2-1.5s0.5-1,1-1.2c0.2-0.2,0.7-0.7,1.2-0.7c0.5-0.2,1-0.2,1.5-0.2c0.7,0,1.5,0.2,2.2,0.7c0.7,0.5,1,1.2,1,2.2
			c0,0.5,0,1-0.2,1.5s-0.5,1-1,1.2c-0.2,0.2-0.7,0.7-1.2,0.7C73.4,137.9,72.9,138.1,72.4,138.1z"/>
		<path class="st3" d="M79.5,135.4l6.1-1l-1.5,6.1h6.3l-1.2,4.6h-6.3l-1.7,7.1c-0.2,0.5-0.2,1.2-0.2,1.7s0,1,0.2,1.2
			c0.2,0.5,0.5,0.7,0.7,1c0.5,0.2,1,0.2,1.7,0.2s1.2,0,1.7-0.2c0.5,0,1.2-0.2,1.7-0.5l0.5,4.4c-0.7,0.2-1.7,0.5-2.4,0.7
			c-1,0.5-1.9,0.5-3.2,0.5c-1.7,0-3.2-0.2-4.1-0.7c-1-0.5-1.7-1.2-2.2-2.2c-0.5-1-0.5-1.9-0.5-3.2c0-1.2,0.2-2.4,0.5-3.7L79.5,135.4
			"/>
		<path class="st3" d="M90.2,152.7c0-1.7,0.2-3.4,1-4.9c0.5-1.5,1.5-2.9,2.4-4.1c1-1.2,2.4-1.9,3.9-2.7c1.5-0.7,3.2-1,5.1-1
			c1.2,0,2.2,0,3.2,0.2s1.7,0.5,2.4,1l-1.9,4.4c-0.5-0.2-1-0.5-1.7-0.5c-0.5-0.2-1.2-0.2-1.9-0.2c-1.9,0-3.4,0.7-4.6,1.9
			c-1.2,1.2-1.7,3.2-1.7,5.4c0,1.2,0.2,2.4,1,3.2c0.5,0.7,1.7,1.2,3.2,1.2c0.7,0,1.5,0,2.2-0.2c0.7-0.2,1.2-0.2,1.9-0.5l0.5,4.6
			c-0.7,0.2-1.5,0.5-2.4,0.7c-1,0.2-1.9,0.2-3.2,0.2c-1.7,0-2.9-0.2-4.1-0.7s-1.9-1-2.7-1.9c-0.7-0.7-1.2-1.7-1.5-2.7
			C90.2,154.9,90.2,153.9,90.2,152.7"/>
		<path class="st3" d="M115.5,161.5c-1.5,0-2.4-0.2-3.7-0.7c-1-0.5-1.9-1-2.4-1.7c-0.7-0.7-1.2-1.7-1.5-2.7c-0.2-1-0.5-2.2-0.5-3.4
			c0-1.5,0.2-3.2,0.7-4.6s1.2-2.9,2.2-4.1c1-1.2,2.2-2.2,3.7-2.9c1.5-0.7,2.9-1.2,4.9-1.2c1.5,0,2.4,0.2,3.7,0.7
			c1,0.5,1.9,1,2.4,1.7c0.7,0.7,1.2,1.7,1.5,2.7c0.2,1,0.5,2.2,0.5,3.4c0,1.5-0.2,3.2-0.7,4.6c-0.5,1.5-1.2,2.9-2.2,4.1
			c-1,1.2-2.2,2.2-3.7,2.9C118.9,161,117.5,161.5,115.5,161.5L115.5,161.5 M118.5,144.9c-0.7,0-1.7,0.2-2.2,0.7
			c-0.7,0.5-1.2,1.2-1.7,1.9c-0.5,0.7-0.7,1.5-1,2.4c-0.2,1-0.2,1.7-0.2,2.4c0,1.2,0.2,2.2,0.7,2.9c0.5,0.7,1.2,1,2.2,1
			c1,0,1.7-0.2,2.2-0.7c0.7-0.5,1.2-1.2,1.7-1.9c0.5-0.7,0.7-1.5,1-2.4c0.2-1,0.2-1.7,0.2-2.4c0-1.2-0.2-2.2-0.7-2.9
			C120.2,145.2,119.4,144.9,118.5,144.9z"/>
		<path class="st3" d="M133.3,160.8h-5.8l4.9-20.2h5.8L133.3,160.8 M136,138.1c-0.7,0-1.5-0.2-2.2-0.7c-0.7-0.5-1-1.2-1-2.2
			c0-0.5,0-1,0.2-1.5c0.2-0.5,0.5-1,1-1.2c0.2-0.2,0.7-0.7,1.2-0.7c0.5-0.2,1-0.2,1.5-0.2c0.7,0,1.5,0.2,2.2,0.7s1,1.2,1,2.2
			c0,0.5,0,1-0.2,1.5s-0.5,1-1,1.2c-0.2,0.2-0.7,0.7-1.2,0.7C137,137.9,136.5,138.1,136,138.1z"/>
		<path class="st3" d="M142.3,141.5c0.5-0.2,1-0.2,1.5-0.5c0.5-0.2,1.2-0.2,1.7-0.5c0.7-0.2,1.5-0.2,2.2-0.2c0.7,0,1.7-0.2,2.7-0.2
			c2.9,0,5.1,1,6.3,2.7c1.2,1.7,1.5,4.1,0.5,7.3l-2.7,11h-5.6l2.4-10.7c0.2-0.7,0.2-1.2,0.5-1.9c0-0.7,0-1.2,0-1.7s-0.2-1-0.7-1.2
			s-1-0.5-1.7-0.5c-0.7,0-1.5,0-2.2,0.2l-3.7,15.8h-5.8L142.3,141.5"/>
	</g>
</g>
</svg>
