<?xml version="1.0" encoding="utf-8"?>
<!-- Generator: Adobe Illustrator 23.1.0, SVG Export Plug-In . SVG Version: 6.00 Build 0)  -->
<svg version="1.1" id="Layer_1" xmlns="http://www.w3.org/2000/svg" xmlns:xlink="http://www.w3.org/1999/xlink" x="0px" y="0px"
	 viewBox="0 0 200 44.8" style="enable-background:new 0 0 200 44.8;" xml:space="preserve">
<style type="text/css">
	.st0{fill:#2394BC;}
	.st1{fill:#EFC75E;}
	.st2{fill:#E2574C;}
	.st3{fill:#F4B459;}
	.st4{fill:none;stroke:#737373;stroke-width:2;stroke-linecap:round;stroke-miterlimit:10;}
</style>
<g>
	<g>
		<g>
			<path class="st0" d="M40,7.1l-4.9,30.6H43l4.9-30.6C47.9,7.1,40,7.1,40,7.1z M63.7,19.6c-2.7-1.4-4.4-2.3-4.4-3.7
				c0-1.3,1.4-2.6,4.5-2.6c2.6-0.1,4.4,0.5,5.9,1.1l0.7,0.3l1.1-6.4c-1.6-0.6-4-1.3-7.1-1.3c-7.8,0-13.2,4-13.3,9.8
				c-0.1,4.3,3.9,6.6,6.9,8c3,1.5,4.1,2.4,4.1,3.7c0,2-2.5,2.9-4.7,2.9c-3.1,0-4.8-0.5-7.4-1.6l-1-0.5l-1.1,6.7
				c1.8,0.8,5.2,1.5,8.8,1.6c8.2,0,13.6-4,13.7-10.1C70.4,24.2,68.3,21.7,63.7,19.6z M91.6,7.2h-6.1c-1.9,0-3.3,0.5-4.1,2.5
				l-11.7,28H78l2.3-6.1h9.2l1.2,6.1h7.3L91.6,7.2z M82.6,25.5c0.2,0,3.2-9.9,3.2-9.9l2.4,9.9C88.1,25.5,84.1,25.5,82.6,25.5z
				 M28.6,7.1l-7.7,20.8L20,23.8c-1.4-4.7-5.9-9.9-10.9-12.4l7,26.3h8.3L36.9,7.1L28.6,7.1L28.6,7.1z"/>
		</g>
	</g>
	<path class="st1" d="M17.4,11c-0.6-2.3-2.5-3.9-5.1-3.9H0.1L0,7.7C9.5,10,17.5,17.2,20.1,24L17.4,11z"/>
</g>
<g>
	<path class="st2" d="M173.1,22.4c0,12.4-10,22.4-22.4,22.4c-12.4,0-22.4-10-22.4-22.4S138.3,0,150.7,0C163,0,173.1,10,173.1,22.4z"
		/>
	<path class="st3" d="M177.6,0c-5,0-9.7,1.7-13.4,4.5l0,0c0.7,0.7,1.5,1.2,2.2,2l-4.7,0.1c-0.7,0.7-1.4,1.5-2,2.4h8.2
		c0.6,0.8,1.2,1.4,1.7,2.2h-11.4c-0.4,0.7-0.8,1.5-1.1,2.2h13.9c0.4,0.8,0.7,1.3,1,2.2h-15.7c-0.2,0.8-0.5,1.6-0.6,2.4h17
		c0.2,0.8,0.3,1.5,0.4,2.2h-17.7c-0.1,0.7-0.1,1.5-0.1,2.2h17.9c0,0.8-0.1,1.5-0.1,2.2h-17.7c0.1,0.8,0.2,1.5,0.3,2.2h16.9
		c-0.2,0.7-0.4,1.5-0.6,2.2h-15.7c0.2,0.8,0.5,1.5,0.8,2.2h13.9c-0.4,0.8-0.8,1.5-1.3,2.2h-11.5c0.5,0.8,1,1.5,1.5,2.3l8.3,0.1
		c-0.7,0.8-1.6,1.4-2.4,2.1c0,0-1.3,0-4,0c4.1,4.2,9.8,6.8,16.1,6.8c12.4,0,22.4-10,22.4-22.4S190,0,177.6,0z"/>
</g>
<line class="st4" x1="119.7" y1="10.1" x2="110.3" y2="34.7"/>
</svg>
