<?xml version="1.0" encoding="utf-8"?>
<!-- Generator: Adobe Illustrator 23.0.1, SVG Export Plug-In . SVG Version: 6.00 Build 0)  -->
<svg version="1.1" id="Layer_1" xmlns="http://www.w3.org/2000/svg" xmlns:xlink="http://www.w3.org/1999/xlink" x="0px" y="0px"
	 viewBox="0 0 200 200" style="enable-background:new 0 0 200 200;" xml:space="preserve">
<style type="text/css">
	.st0{fill:#F0C41B;}
	.st1{fill:#81705F;}
	.st2{fill:#F9EAB0;}
	.st3{fill:#DB2418;}
	.st4{fill:#275FA9;}
	.st5{fill:#FFFFFF;}
	.st6{fill:#F79F1A;}
	.st7{fill:#059BBF;}
</style>
<g>
	<path id="XMLID_115_" class="st0" d="M157.1,146.5H42.9c-3.9,0-7.1-3.2-7.1-7.1V60.6c0-3.9,3.2-7.1,7.1-7.1h114.3
		c3.9,0,7.1,3.2,7.1,7.1v78.8C164.3,143.3,161.1,146.5,157.1,146.5"/>
	<rect id="XMLID_114_" x="35.7" y="64.5" class="st1" width="128.5" height="17.7"/>
	<path id="XMLID_113_" class="st2" d="M71.1,97.8h-20c-1.2,0-2.2-1-2.2-2.2s1-2.2,2.2-2.2h20c1.2,0,2.2,1,2.2,2.2
		S72.3,97.8,71.1,97.8"/>
	<path id="XMLID_112_" class="st2" d="M99.9,97.8h-20c-1.2,0-2.2-1-2.2-2.2s1-2.2,2.2-2.2h19.9c1.2,0,2.2,1,2.2,2.2
		C102.1,96.8,101.1,97.8,99.9,97.8"/>
	<path id="XMLID_106_" class="st3" d="M137.7,122.2c0,7.3-6,13.3-13.3,13.3s-13.3-6-13.3-13.3s6-13.3,13.3-13.3
		C131.7,108.9,137.7,114.8,137.7,122.2"/>
	<path id="XMLID_105_" class="st4" d="M153.2,122.2c0,7.3-6,13.3-13.3,13.3s-13.3-6-13.3-13.3s6-13.3,13.3-13.3
		C147.2,108.9,153.2,114.8,153.2,122.2"/>
	<g>
		<path class="st5" d="M87.4,133.2c0,1.3-1,2.3-2.3,2.3h-34c-1.3,0-2.3-1-2.3-2.3v-22c0-1.3,1-2.3,2.3-2.3h34c1.3,0,2.3,1,2.3,2.3
			V133.2L87.4,133.2z"/>
		<path class="st6" d="M57.4,122.4l-0.9-4.3c-0.2-0.6-0.6-0.8-1.2-0.8h-4.2l0,0.2C54.3,118.2,56.5,120.1,57.4,122.4z"/>
		<g>
			<polygon class="st7" points="67,117.3 64.3,117.3 62.6,127.1 65.3,127.1 			"/>
			<path class="st7" d="M59,127.1l4.2-9.8h-2.8l-2.6,6.7l-0.3-1c-0.5-1.2-2-3-3.7-4.1l2.4,8.2L59,127.1z"/>
			<path class="st7" d="M74.6,123.9c0-1.1-0.7-2-2.3-2.7c-0.9-0.5-1.5-0.8-1.5-1.2c0-0.4,0.5-0.8,1.5-0.8c0.9,0,1.5,0.2,2,0.4
				l0.2,0.1l0.4-2.1c-0.5-0.2-1.4-0.4-2.4-0.4c-2.6,0-4.5,1.3-4.5,3.2c0,1.4,1.3,2.2,2.3,2.7c1,0.5,1.4,0.8,1.4,1.2
				c0,0.7-0.8,1-1.6,1c-1.1,0-1.6-0.1-2.5-0.5l-0.3-0.2l-0.4,2.2c0.6,0.3,1.8,0.5,3,0.5C72.8,127.3,74.6,126,74.6,123.9z"/>
			<path class="st7" d="M77.8,125.7c0.3,0,3,0,3.4,0c0.1,0.3,0.3,1.5,0.3,1.5h2.5l-2.2-9.8h-2.1c-0.6,0-1.1,0.2-1.4,0.8l-4,9h2.8
				C77.3,127.1,77.7,125.9,77.8,125.7z M79.7,120.9c0,0,0.2-0.6,0.4-0.9l0.2,0.8c0,0,0.5,2.3,0.6,2.8h-2.2
				C78.8,123.1,79.7,120.9,79.7,120.9z"/>
			<path class="st7" d="M85.1,108.9h-34c-1.3,0-2.3,1-2.3,2.3v2.4h38.6v-2.4C87.4,109.9,86.3,108.9,85.1,108.9z"/>
		</g>
		<path class="st6" d="M85.1,135.5h-34c-1.3,0-2.3-1-2.3-2.3v-2.4h38.6v2.4C87.4,134.5,86.3,135.5,85.1,135.5z"/>
	</g>
</g>
</svg>
