<?xml version="1.0" encoding="utf-8"?>
<!-- Generator: Adobe Illustrator 23.1.0, SVG Export Plug-In . SVG Version: 6.00 Build 0)  -->
<svg version="1.1" id="Layer_1" xmlns="http://www.w3.org/2000/svg" xmlns:xlink="http://www.w3.org/1999/xlink" x="0px" y="0px"
	 viewBox="0 0 200 48.9" style="enable-background:new 0 0 200 48.9;" xml:space="preserve">
<style type="text/css">
	.st0{fill:#FFFFFF;}
	.st1{fill:#10D078;}
</style>
<g>
	<path class="st0" d="M56.5,24.3c0-4.8,3.7-8.9,8.7-8.9c3.2,0,5.2,1.4,6.8,3l-1.6,1.7c-1.3-1.4-2.9-2.5-5.2-2.5
		c-3.5,0-6.1,2.9-6.1,6.7c0,3.7,2.7,6.6,6.2,6.6c2.2,0,3.8-1.1,5.1-2.6l1.7,1.5c-1.7,1.9-3.7,3.3-6.9,3.3
		C60.2,33.2,56.5,29.1,56.5,24.3 M74.9,10l2.5-1.2v10c1.1-1.8,2.9-3.3,5.8-3.3c4.1,0,6.5,2.8,6.5,6.8v10.5h-2.5v-10
		c0-3.2-1.7-5.1-4.7-5.1c-2.9,0-5.1,2.1-5.1,5.3v9.7h-2.5V10z M105.2,26.5V25c-1.6-0.5-3.3-0.7-5-0.7c-3.2,0-5,1.4-5,3.5
		c0,2.1,2,3.4,4.3,3.4C102.6,31.1,105.2,29.2,105.2,26.5 M92.7,27.8c0-3.7,3-5.6,7.2-5.6c2.2,0,3.7,0.3,5.2,0.7v-0.5
		c0-3-1.8-4.6-5-4.6c-2,0-3.6,0.5-5.2,1.2L94.2,17c1.9-0.9,3.7-1.5,6.2-1.5c2.4,0,4.3,0.7,5.5,1.9c1.2,1.2,1.8,2.8,1.8,5v10.4h-2.5
		v-2.5c-1.2,1.5-3.1,2.9-6.1,2.9C95.9,33.1,92.7,31.3,92.7,27.8 M111.9,15.8h2.5v3c1.1-1.8,2.9-3.3,5.8-3.3c4.1,0,6.5,2.8,6.5,6.8
		v10.5h-2.5v-9.9c0-3.2-1.7-5.1-4.7-5.1c-2.9,0-5.1,2.1-5.1,5.3v9.7h-2.5V15.8L111.9,15.8z M144.6,23.4c0-3.5-3-5.8-6.3-5.8
		s-5.9,2.2-5.9,5.8c0,3.4,2.7,5.8,5.9,5.8C141.6,29.2,144.6,26.9,144.6,23.4 M130.7,35.7l1.2-2c1.9,1.4,4.1,2.2,6.5,2.2
		c3.7,0,6.2-2.1,6.2-6.1v-2c-1.5,2-3.6,3.6-6.7,3.6c-4.1,0-8-3.1-8-8s3.9-8,8-8c3.2,0,5.3,1.6,6.6,3.4v-3.1h2.5v14
		c0,2.6-0.8,4.6-2.2,6c-1.5,1.5-3.8,2.3-6.5,2.3C135.6,38.1,133,37.3,130.7,35.7 M164,23.3c-0.3-3.1-2.1-5.7-5.4-5.7
		c-2.9,0-5.2,2.4-5.5,5.7H164L164,23.3z M159,30.9c2.3,0,4-1,5.4-2.4L166,30c-1.7,1.9-3.8,3.2-7,3.2c-4.7,0-8.5-3.6-8.5-8.9
		c0-4.9,3.5-8.9,8.1-8.9c5,0,7.9,4,7.9,9c0,0.2,0,0.5,0,0.9h-13.5C153.4,28.9,156.1,30.9,159,30.9L159,30.9z M170.1,11.1l2.5-1.3
		v22.9h-2.5V11.1z M177.2,10l2.5-1.2v24h-2.5V10z M183.1,37.3l0.9-2c0.8,0.4,1.6,0.6,2.7,0.6c1.5,0,2.5-0.8,3.5-3.2l-7.7-16.9h2.8
		l6.2,14.2l5.5-14.2h2.7l-7.1,17.6c-1.4,3.5-3.1,4.8-5.7,4.8C185.3,38.1,184.2,37.8,183.1,37.3"/>
	<path class="st1" d="M23.8,40c-0.4,0.4-0.8,0.7-1.2,1c-0.8,0.6-1.7,1.2-2.6,1.7c-1.8,0.9-3.8,1.6-5.8,2c-0.5,0.1-1,0.2-1.5,0.3
		l-0.8,0.1l-0.4,0l-0.4,0l-0.8,0.1l-0.8,0c-0.5,0-1,0-1.5,0.1c-1.5,0-3-0.1-4.5-0.2c0.2-0.2,0.3-0.5,0.5-0.8C4.6,43.6,5,42.8,5.4,42
		c0.7-1.6,1.3-3.3,1.8-4.9c0.4-1.6,1-3.2,1.6-4.8c0.6-1.6,1.3-3.1,2.1-4.6c-0.6,0.6-1.1,1.3-1.5,2.1c-0.5,0.7-0.9,1.5-1.3,2.2
		c-0.8,1.5-1.6,3.1-2.1,4.7c-0.6,1.6-1.2,3.1-2,4.6c-0.8,1.4-1.7,2.8-2.8,4L0,46.5l1.7,0.2c2.1,0.3,4.3,0.5,6.5,0.4
		c0.5,0,1.1,0,1.6-0.1l0.8-0.1l0.8-0.1c0.5-0.1,1.1-0.2,1.6-0.3c0.5-0.1,1.1-0.2,1.6-0.4c0.5-0.1,1-0.3,1.6-0.5
		c0.5-0.2,1-0.4,1.5-0.6c1-0.4,2-1,2.9-1.6s1.7-1.3,2.5-2.1c0.7-0.8,1.4-1.6,1.9-2.6C24.5,39.3,24.2,39.7,23.8,40 M35.7,11.3
		c0.6-0.6,1.4-0.9,2.3-0.9c0.8,0,1.6,0.3,2.3,0.9c1.2,1.3,1.2,3.3,0,4.5c-1.2,1.2-3.3,1.2-4.5,0c-0.6-0.6-0.9-1.4-0.9-2.3
		C34.7,12.7,35.1,11.9,35.7,11.3 M37.9,18.7c1.3,0,2.6-0.5,3.6-1.5c2-2,2-5.3,0-7.3c-2-2-5.3-2-7.2,0c-1,1-1.5,2.3-1.5,3.6
		s0.5,2.7,1.5,3.6C35.3,18.2,36.6,18.7,37.9,18.7 M39.4,26.1C32.1,32.6,29,33.2,26,31.8l3.3-4.2c0.5-0.6,0.8-1.3,1-2.1l1.3-5.6
		l-5.6,1.3c-0.8,0.2-1.5,0.5-2.1,1l-4.2,3.3c-1.4-3.1-0.8-6.1,5.7-13.5c6.1-6.9,19-8.5,22.8-8.9C48,7,46.4,20,39.4,26.1L39.4,26.1z
		 M34.5,36.1c-0.1,0.3-0.2,0.6-0.5,0.8c-0.8,0.5-2,1.3-3,1.9l0.1-0.2c0.5-2,0.5-3.6,0-4.7c1.4-0.4,2.9-1.2,4.6-2.4
		C35.2,33.2,34.8,35,34.5,36.1z M22.9,32.5c-0.4,0.6-1.1,0.9-1.8,0.8h0h-1.7l5.8-7l-7,5.8v-1.6v-0.1c0-0.7,0.3-1.4,0.8-1.8l6.1-4.9
		c0.4-0.3,0.9-0.5,1.3-0.7l2.5-0.6L28.4,25c-0.1,0.5-0.3,1-0.7,1.4L22.9,32.5L22.9,32.5z M13,20.5l-0.2,0.1c0.6-1.1,1.4-2.3,1.9-3
		c0.2-0.3,0.5-0.4,0.8-0.5c1.1-0.2,3-0.7,4.5-1.1c-1.2,1.7-1.9,3.2-2.4,4.6C16.6,19.9,15,19.9,13,20.5L13,20.5z M49.3,1.2
		C48.6,1.2,31.7,2,24,10.8c-0.7,0.8-1.4,1.7-2.1,2.6c-1.1,0.3-5.1,1.4-6.8,1.7c-0.8,0.2-1.5,0.6-2,1.3c-1.2,1.7-3.3,5.3-3.3,5.4
		l-1.5,2.6l2.7-1.2c1.8-0.8,4.8-1.6,5.9-0.9c0.2,0.1,0.4,0.3,0.4,0.8l0,0c0,1.3,0.4,2.5,1,3.7l-0.4,0.3c-1,0.8-1.6,2.1-1.6,3.4v4.8
		H21c1.3,0.1,2.6-0.5,3.4-1.6l0.3-0.4c1.2,0.6,2.5,1,3.7,1l0,0c0.5,0,0.7,0.2,0.8,0.4c0.7,1.1-0.1,4.1-0.9,5.9l-1.2,2.7l2.6-1.5
		c0.2-0.1,3.7-2.2,5.4-3.4c0.7-0.5,1.1-1.2,1.3-2c0.4-1.7,1.4-5.7,1.7-6.8c0.8-0.6,1.6-1.4,2.5-2.2c8.8-7.7,9.6-24.7,9.6-25.4l0-1.1
		L49.3,1.2z"/>
</g>
</svg>
