<?xml version="1.0" encoding="utf-8"?>
<!-- Generator: Adobe Illustrator 24.0.0, SVG Export Plug-In . SVG Version: 6.00 Build 0)  -->
<svg version="1.1" id="Layer_1" xmlns="http://www.w3.org/2000/svg" xmlns:xlink="http://www.w3.org/1999/xlink" x="0px" y="0px"
	 viewBox="0 0 200 200" style="enable-background:new 0 0 200 200;" xml:space="preserve">
<style type="text/css">
	.st0{fill:#8CC23C;}
	.st1{fill:#FFFFFF;}
</style>
<g id="XMLID_64_">
	<path id="XMLID_151_" class="st0" d="M45.2,80.7c-15.9,0-28.8,7.6-28.8,16.9c0,4,2.3,7.6,6.3,10.5c-1.9-2.4-3-5.1-3-7.9
		c0-9.7,12.6-17.6,28.2-17.6c10,0,18.9,3.3,23.8,8.2C67.1,84.9,57,80.7,45.2,80.7z"/>
	<path id="XMLID_148_" class="st1" d="M42.7,102.4c1.2,0,2.1-0.2,2.8-0.7c0.8-0.5,1.2-1.3,1.2-2.4c0-1.9-0.6-3.7-1.9-5.3
		c-1.3-1.6-2.9-2.9-4.8-3.7c-1.4-0.6-2.9-0.9-4.6-0.9c-3.4,0-6.2,1.1-8.4,3.3c-2.2,2.2-3.3,4.9-3.3,8c0,3.1,1.1,5.8,3.4,7.9
		c2.3,2.1,5.1,3.2,8.6,3.2c1.8,0,3.6-0.3,5.3-0.8c2-0.6,3.5-1.5,4.4-2.6c0.5-0.6,0.8-1.2,0.8-1.9c0-1.6-0.9-2.5-2.7-2.5
		c-0.4,0-1.4,0.3-3.1,1c-1.7,0.7-3.1,1-4.2,1c-1.4,0-2.6-0.3-3.6-1c-1-0.6-1.5-1.6-1.7-2.8H42.7z M32.4,95.6c0.8-0.7,1.9-1,3.1-1
		c1.2,0,2.2,0.4,3.1,1.1c0.8,0.7,1.3,1.6,1.4,2.7h-9.1C31,97.2,31.5,96.3,32.4,95.6z"/>
	<path id="XMLID_146_" class="st1" d="M50.6,108.6c2.1,2.2,4.9,3.2,8.4,3.2c2.1,0,3.8-0.3,5.2-0.9c1.9-0.9,2.9-2,2.9-3.2
		c0-0.8-0.3-1.4-0.8-1.9c-0.5-0.5-1.2-0.8-2-0.8c-0.5,0-1.2,0.2-2.1,0.5c-0.8,0.3-1.7,0.5-2.7,0.5c-1.7,0-2.9-0.5-3.9-1.6
		c-0.8-0.9-1.2-2.2-1.2-3.7c0-1.5,0.4-2.7,1.2-3.7c0.9-1.1,2.1-1.6,3.6-1.6c1,0,1.9,0.2,2.8,0.5c0.9,0.3,1.6,0.5,2.1,0.5
		c0.8,0,1.5-0.3,2.1-0.8c0.5-0.5,0.8-1.2,0.8-1.9c0-1.5-0.9-2.5-2.8-3.3c-1.4-0.5-3-0.8-4.9-0.8c-3.6,0-6.5,1-8.7,3.1
		c-2.2,2.1-3.3,4.8-3.3,8.1C47.5,103.9,48.5,106.5,50.6,108.6L50.6,108.6z"/>
	<path id="XMLID_138_" class="st1" d="M70.6,108.6c2.2,2.2,5.1,3.3,8.5,3.3c3.5,0,6.3-1.1,8.5-3.3c2.1-2.1,3.2-4.8,3.2-8
		c0-3.2-1.1-5.9-3.2-8.1c-2.1-2.2-5-3.2-8.5-3.2c-3.5,0-6.3,1.1-8.5,3.3c-2.2,2.2-3.3,4.9-3.3,8.1C67.4,103.8,68.4,106.5,70.6,108.6
		L70.6,108.6z M75.6,97c0.8-1.1,2-1.7,3.5-1.7c1.5,0,2.6,0.6,3.5,1.7c0.7,1,1.1,2.2,1.1,3.6c0,1.5-0.4,2.7-1.1,3.6
		c-0.8,1.1-2,1.7-3.5,1.7c-1.5,0-2.6-0.6-3.5-1.7c-0.7-1-1.1-2.2-1.1-3.6C74.5,99.2,74.9,98,75.6,97L75.6,97z"/>
	<path id="XMLID_101_" class="st0" d="M100.6,88.8h3.1c3.3,0,4.9,1.2,4.9,3.7c0,2.5-1.6,3.8-4.9,3.8h-3.1V88.8z M100.6,107v-4.9h4.8
		c3.4,0,6-0.8,8-2.5c1.9-1.7,2.9-4.1,2.9-7.1c0-3.1-1.1-5.5-3.2-7.2c-2-1.6-4.8-2.5-8.2-2.5h-6.4c-1.9,0-3.1,0.3-3.9,1
		c-0.7,0.7-1.1,1.9-1.1,3.5V107c0,3.1,1.2,4.6,3.6,4.6C99.4,111.6,100.6,110.1,100.6,107L100.6,107z"/>
	<path id="XMLID_95_" class="st0" d="M124.9,97.1c0.8-1.1,1.9-1.6,3.4-1.6c1.5,0,2.6,0.5,3.4,1.6c0.7,0.9,1,2.1,1,3.5
		c0,1.4-0.3,2.5-1,3.5c-0.8,1.1-1.9,1.6-3.4,1.6c-1.5,0-2.6-0.5-3.4-1.6c-0.7-1-1.1-2.1-1.1-3.5C123.8,99.2,124.2,98.1,124.9,97.1
		L124.9,97.1z M136.3,111.6c2.3,0,3.4-1.5,3.4-4.6V94.3c0-3-1.1-4.6-3.4-4.6c-1.4,0-2.5,0.7-3.3,2c-1.4-1.5-3.3-2.3-5.6-2.3
		c-3.2,0-5.8,1.2-7.8,3.5c-1.9,2.2-2.9,4.7-2.9,7.7c0,2.9,0.9,5.4,2.8,7.6c2,2.3,4.6,3.5,7.7,3.5c2.5,0,4.4-0.8,5.8-2.4
		C133.7,110.9,134.8,111.6,136.3,111.6L136.3,111.6z"/>
	<path id="XMLID_81_" class="st0" d="M155.8,92.2l-4.2,10.1l-3.9-9.5c-0.4-1.1-0.8-1.8-1.2-2.1c-0.6-0.6-1.4-0.9-2.4-0.9
		c-1,0-1.8,0.3-2.4,0.9s-1,1.3-1,2.2c0,0.6,0.1,1.2,0.4,1.8l7,14.9l-2.9,5.6c-0.4,0.8-0.6,1.5-0.6,2.1c0,0.9,0.3,1.7,0.9,2.2
		c0.6,0.5,1.5,0.8,2.5,0.8c1.2,0,2.2-0.8,3-2.5l10.6-22.8c0.4-0.8,0.6-1.5,0.6-2.2c0-2-1.1-3-3.4-3
		C157.5,89.8,156.5,90.6,155.8,92.2L155.8,92.2z"/>
	<path id="XMLID_69_" class="st0" d="M179.3,105.5h-6.8l9.2-10.8c0.9-1.1,1.4-2,1.4-2.8c0-0.8-0.4-1.4-1.1-1.6
		c-0.7-0.2-1.8-0.3-3.3-0.3h-11.1c-2.9,0-4.4,0.9-4.4,2.8c0,1.9,1.5,2.9,4.4,2.9h6l-9.5,11.2c-0.7,0.8-1,1.6-1,2.4
		c0,1.3,1.2,1.9,3.6,1.9h12.7c2.9,0,4.4-1,4.4-2.9C183.6,106.5,182.2,105.5,179.3,105.5L179.3,105.5z"/>
</g>
</svg>
