<?xml version="1.0" encoding="utf-8"?>
<!-- Generator: Adobe Illustrator 23.1.0, SVG Export Plug-In . SVG Version: 6.00 Build 0)  -->
<svg version="1.1" id="Layer_1" xmlns="http://www.w3.org/2000/svg" xmlns:xlink="http://www.w3.org/1999/xlink" x="0px" y="0px"
	 viewBox="0 0 200 46.2" style="enable-background:new 0 0 200 46.2;" xml:space="preserve">
<style type="text/css">
	.st0{fill:#8CC23C;}
	.st1{fill:#FFFFFF;}
</style>
<g id="XMLID_64_">
	<path id="XMLID_151_" class="st0" d="M34.6,0C15.6,0,0.2,9.1,0.2,20.2c0,4.8,2.7,9.1,7.5,12.5c-2.3-2.9-3.6-6.1-3.6-9.4
		c0-11.6,15-21,33.7-21c11.9,0,22.6,3.9,28.4,9.8C60.7,5,48.7,0,34.6,0z"/>
	<path id="XMLID_148_" class="st1" d="M31.6,25.9c1.4,0,2.5-0.2,3.3-0.8c1-0.6,1.4-1.6,1.4-2.9c0-2.3-0.7-4.4-2.3-6.3
		s-3.5-3.5-5.7-4.4c-1.7-0.7-3.5-1.1-5.5-1.1c-4.1,0-7.4,1.3-10,3.9s-3.9,5.8-3.9,9.5s1.3,6.9,4.1,9.4c2.7,2.5,6.1,3.8,10.3,3.8
		c2.1,0,4.3-0.4,6.3-1c2.4-0.7,4.2-1.8,5.3-3.1c0.6-0.7,1-1.4,1-2.3c0-1.9-1.1-3-3.2-3c-0.5,0-1.7,0.4-3.7,1.2c-2,0.8-3.7,1.2-5,1.2
		c-1.7,0-3.1-0.4-4.3-1.2c-1.2-0.7-1.8-1.9-2-3.3h14.1v0.4H31.6z M19.3,17.8c1-0.8,2.3-1.2,3.7-1.2c1.4,0,2.6,0.5,3.7,1.3
		c1,0.8,1.6,1.9,1.7,3.2H17.5C17.6,19.7,18.2,18.6,19.3,17.8z"/>
	<path id="XMLID_146_" class="st1" d="M41,33.3c2.5,2.6,5.8,3.8,10,3.8c2.5,0,4.5-0.4,6.2-1.1c2.3-1.1,3.5-2.4,3.5-3.8
		c0-1-0.4-1.7-1-2.3c-0.6-0.6-1.4-1-2.4-1c-0.6,0-1.4,0.2-2.5,0.6c-1,0.4-2,0.6-3.2,0.6c-2,0-3.5-0.6-4.7-1.9
		c-1-1.1-1.4-2.6-1.4-4.4s0.5-3.2,1.4-4.4c1.1-1.3,2.5-1.9,4.3-1.9c1.2,0,2.3,0.2,3.3,0.6c1.1,0.4,1.9,0.6,2.5,0.6
		c1,0,1.8-0.4,2.5-1c0.6-0.6,1-1.4,1-2.3c0-1.8-1.1-3-3.3-3.9c-1.7-0.6-3.6-1-5.8-1c-4.3,0-7.8,1.2-10.4,3.7s-3.9,5.7-3.9,9.7
		C37.3,27.7,38.5,30.8,41,33.3L41,33.3z"/>
	<path id="XMLID_138_" class="st1" d="M64.9,33.3c2.6,2.6,6.1,3.9,10.1,3.9c4.2,0,7.5-1.3,10.1-3.9c2.5-2.5,3.8-5.7,3.8-9.5
		s-1.3-7-3.8-9.7c-2.5-2.6-6-3.8-10.1-3.8s-7.5,1.3-10.1,3.9S61,20,61,23.9C61.1,27.5,62.3,30.8,64.9,33.3L64.9,33.3z M70.9,19.4
		c1-1.3,2.4-2,4.2-2s3.1,0.7,4.2,2c0.8,1.2,1.3,2.6,1.3,4.3c0,1.8-0.5,3.2-1.3,4.3c-1,1.3-2.4,2-4.2,2s-3.1-0.7-4.2-2
		c-0.8-1.2-1.3-2.6-1.3-4.3S70,20.6,70.9,19.4L70.9,19.4z"/>
	<path id="XMLID_101_" class="st0" d="M100.7,9.6h3.7c3.9,0,5.8,1.4,5.8,4.4s-1.9,4.5-5.8,4.5h-3.7V9.6z M100.7,31.4v-5.8h5.7
		c4.1,0,7.2-1,9.5-3s3.5-4.9,3.5-8.5c0-3.7-1.3-6.6-3.8-8.6c-2.4-1.9-5.7-3-9.8-3h-7.6c-2.3,0-3.7,0.4-4.7,1.2
		c-0.8,0.8-1.3,2.3-1.3,4.2v23.5c0,3.7,1.4,5.5,4.3,5.5C99.3,36.8,100.7,35.1,100.7,31.4L100.7,31.4z"/>
	<path id="XMLID_95_" class="st0" d="M129.7,19.5c1-1.3,2.3-1.9,4.1-1.9s3.1,0.6,4.1,1.9c0.8,1.1,1.2,2.5,1.2,4.2s-0.4,3-1.2,4.2
		c-1,1.3-2.3,1.9-4.1,1.9s-3.1-0.6-4.1-1.9c-0.8-1.2-1.3-2.5-1.3-4.2S128.9,20.7,129.7,19.5L129.7,19.5z M143.3,36.8
		c2.7,0,4.1-1.8,4.1-5.5V16.2c0-3.6-1.3-5.5-4.1-5.5c-1.7,0-3,0.8-3.9,2.4c-1.7-1.8-3.9-2.7-6.7-2.7c-3.8,0-6.9,1.4-9.3,4.2
		c-2.3,2.6-3.5,5.6-3.5,9.2c0,3.5,1.1,6.4,3.3,9.1c2.4,2.7,5.5,4.2,9.2,4.2c3,0,5.3-1,6.9-2.9C140.2,36,141.5,36.8,143.3,36.8
		L143.3,36.8z"/>
	<path id="XMLID_81_" class="st0" d="M166.6,13.7l-5,12.1l-4.7-11.3c-0.5-1.3-1-2.1-1.4-2.5c-0.7-0.7-1.7-1.1-2.9-1.1
		s-2.1,0.4-2.9,1.1c-0.7,0.7-1.2,1.6-1.2,2.6c0,0.7,0.1,1.4,0.5,2.1l8.4,17.8l-3.5,6.7c-0.5,1-0.7,1.8-0.7,2.5c0,1.1,0.4,2,1.1,2.6
		c0.7,0.6,1.8,1,3,1c1.4,0,2.6-1,3.6-3l12.7-27.2c0.5-1,0.7-1.8,0.7-2.6c0-2.4-1.3-3.6-4.1-3.6C168.6,10.8,167.4,11.8,166.6,13.7
		L166.6,13.7z"/>
	<path id="XMLID_69_" class="st0" d="M194.6,29.6h-8.1l11-12.9c1.1-1.3,1.7-2.4,1.7-3.3s-0.5-1.7-1.3-1.9c-0.8-0.2-2.1-0.4-3.9-0.4
		h-13.2c-3.5,0-5.3,1.1-5.3,3.3s1.8,3.5,5.3,3.5h7.2l-11.3,13.4c-0.8,1-1.2,1.9-1.2,2.9c0,1.6,1.4,2.3,4.3,2.3H195
		c3.5,0,5.3-1.2,5.3-3.5C199.8,30.8,198.1,29.6,194.6,29.6L194.6,29.6z"/>
</g>
</svg>
