<?xml version="1.0" encoding="utf-8"?>
<!-- Generator: Adobe Illustrator 23.1.0, SVG Export Plug-In . SVG Version: 6.00 Build 0)  -->
<svg version="1.1" id="Layer_1" xmlns="http://www.w3.org/2000/svg" xmlns:xlink="http://www.w3.org/1999/xlink" x="0px" y="0px"
	 viewBox="0 0 200 84.5" style="enable-background:new 0 0 200 84.5;" xml:space="preserve">
<style type="text/css">
	.st0{fill:#FFFFFF;}
	.st1{fill:#EF5133;}
</style>
<path class="st0" d="M102.4,3c0.9-0.2,1.8-0.2,2.7-0.2H117V25c1.7-0.9,2.9-1.4,3.9-2c8.5-4.5,18.6-0.2,20.1,9.4
	c1.1,7.3,1.5,14.7,1.4,21.9c0.3,5.7-0.2,11.6-1.1,17.4c-2.3,12.1-12.4,16-22.5,9.4c-0.5-0.3-0.8-0.6-0.3-0.2
	c-1.8,0.9-3.8,1.7-5.7,2.3c-3.3,0.3-6.6,0.2-10.3,0.2C102.4,56.4,102.4,30,102.4,3z M127.5,52.8c-0.3-4.4-0.5-8.8-0.8-13
	c-0.2-2.9-1.7-4.7-4.7-4.7c-2.6,0.2-4.7,2.4-4.5,5l0,0c-0.2,8.3-0.2,16.8,0,25.1c0,2.6,1.1,5,4.4,5.1c3.2,0.2,4.7-1.7,4.8-4.5
	C127,61.4,127.3,57.2,127.5,52.8z"/>
<path class="st0" d="M24.7,3C35.4,1.3,47.2,8.1,49,22.8c1.7,13.4,1.7,26.9,0,40.3S37.5,84.3,24.1,82.9V69.3c8.5-1.8,8.8-5,9.1-11.2
	c0.3-9.4,0.2-18.6,0.2-28c0-1.4-0.2-2.7-0.3-4.1c-0.5-5.4-2.9-9.1-8.3-9.1V3H24.7z"/>
<path class="st0" d="M172.7,8.1H188v16.2h12v11.8h-11.9v23.7c0,7.6,0.3,7.9,7.3,10.6v12.2c-11.2,2.7-21-3.8-22.5-15
	c-0.2-1.8-0.5-3.6-0.5-5.4v-49C172.5,11.6,172.7,9.8,172.7,8.1z"/>
<path class="st1" d="M2.4,24.7h14.5c0.2,1.4,0.3,2.7,0.5,4.1v49.1c0,5.1-0.2,5.1-5.4,5.1c-2.7,0-5.3,0-8-0.2
	c-0.5-0.2-0.9-0.3-1.4-0.5C2.4,63.5,2.4,44.4,2.4,24.7z"/>
<path class="st0" d="M164.3,83h-14.7V25h14.7V83z"/>
<path class="st1" d="M0.1,9C0.1,4,4-0.1,9-0.1c0.3,0,0.6,0,0.8,0c5.1,0.2,9.1,4.5,8.9,9.7s-4.5,9.1-9.7,8.9S0,14.1,0.1,9z"/>
<path class="st0" d="M166.5,9c0.2,5.1-3.8,9.4-8.8,9.7c-5.3,0.3-9.7-3.8-10-9.1l0,0c-0.2-5.1,4.1-9.4,9.2-9.5h0.2
	c5-0.3,9.1,3.6,9.4,8.5C166.3,8.7,166.5,8.8,166.5,9z"/>
<path class="st0" d="M93.8,34.1c-2-7-6.5-11.3-13.7-12.1c-3.3-0.3-6.6-0.3-10,0.2c-7.4,1.1-12.2,5.4-13.7,12.7
	c-2.3,11.6-2.4,23.6-0.2,35.2c1.1,5.4,3.9,10,9.5,11.9c5.7,3.6,11.6,2.3,17.2,0.9c0.9-0.2,2.4-1.1,3.2-1.5l0,0
	c5.6-2.1,9.5-9.1,8.8-16.5H80.3c-0.3,1.1-0.6,1.8-0.8,2.6c-0.3,2.1-2.3,3.5-4.4,3.3c-2.1,0-3.9-1.7-4.1-3.8
	c-0.5-2.9-0.6-5.7-0.9-9.1h25.4C95.9,49.5,96,41.6,93.8,34.1z M80,46.5H70c0.2-2.6,0.3-5.1,0.8-7.7c0.3-2.3,2.4-3.9,4.7-3.6
	c2.3,0.2,4.2,2,4.4,4.2C80,41.8,80,44.1,80,46.5z"/>
<path class="st0" d="M78.2,81.1l-0.5,0.5c0-0.2,0-0.2,0.2-0.3C77.9,81.2,78.1,81.1,78.2,81.1z"/>
</svg>
