<?xml version="1.0" encoding="utf-8"?>
<!-- Generator: Adobe Illustrator 24.0.0, SVG Export Plug-In . SVG Version: 6.00 Build 0)  -->
<svg version="1.1" id="Layer_1" xmlns="http://www.w3.org/2000/svg" xmlns:xlink="http://www.w3.org/1999/xlink" x="0px" y="0px"
	 viewBox="0 0 200 200" style="enable-background:new 0 0 200 200;" xml:space="preserve">
<style type="text/css">
	.st0{fill:#FFFFFF;}
	.st1{fill:#EF5133;}
</style>
<path class="st0" d="M101.6,74.1c0.6-0.1,1.2-0.1,1.8-0.1h7.9v14.7c1.1-0.6,1.9-0.9,2.6-1.3c5.6-3,12.3-0.1,13.3,6.2
	c0.7,4.8,1,9.7,0.9,14.5c0.2,3.8-0.1,7.7-0.7,11.5c-1.5,8-8.2,10.6-14.9,6.2c-0.3-0.2-0.5-0.4-0.2-0.1c-1.2,0.6-2.5,1.1-3.8,1.5
	c-2.2,0.2-4.4,0.1-6.8,0.1C101.6,109.5,101.6,92,101.6,74.1z M118.2,107.1c-0.2-2.9-0.3-5.8-0.5-8.6c-0.1-1.9-1.1-3.1-3.1-3.1
	c-1.7,0.1-3.1,1.6-3,3.3c0,0,0,0,0,0c-0.1,5.5-0.1,11.1,0,16.6c0,1.7,0.7,3.3,2.9,3.4c2.1,0.1,3.1-1.1,3.2-3
	C117.9,112.8,118.1,110,118.2,107.1z"/>
<path class="st0" d="M50.2,74.1c7.1-1.1,14.9,3.4,16.1,13.1c1.1,8.9,1.1,17.8,0,26.7c-1.1,8.9-7.6,14-16.5,13.1v-9
	c5.6-1.2,5.8-3.3,6-7.4c0.2-6.2,0.1-12.3,0.1-18.5c0-0.9-0.1-1.8-0.2-2.7c-0.3-3.6-1.9-6-5.5-6L50.2,74.1z"/>
<path class="st0" d="M148.1,77.5h10.1v10.7h8V96h-7.9v15.7c0,5,0.2,5.2,4.8,7v8.1c-7.4,1.8-13.9-2.5-14.9-9.9
	c-0.1-1.2-0.3-2.4-0.3-3.6V80.9C148,79.8,148.1,78.6,148.1,77.5z"/>
<path class="st1" d="M35.4,88.5H45c0.1,0.9,0.2,1.8,0.3,2.7v32.5c0,3.4-0.1,3.4-3.6,3.4c-1.8,0-3.5,0-5.3-0.1
	c-0.3-0.1-0.6-0.2-0.9-0.3C35.4,114.2,35.4,101.5,35.4,88.5z"/>
<path class="st0" d="M142.6,127.1h-9.7V88.7h9.7V127.1z"/>
<path class="st1" d="M33.9,78.1c0-3.3,2.6-6,5.9-6c0.2,0,0.4,0,0.5,0c3.4,0.1,6,3,5.9,6.4c-0.1,3.4-3,6-6.4,5.9
	C36.4,84.3,33.8,81.5,33.9,78.1z"/>
<path class="st0" d="M144,78.1c0.1,3.4-2.5,6.2-5.8,6.4c-3.5,0.2-6.4-2.5-6.6-6c0,0,0,0,0,0c-0.1-3.4,2.7-6.2,6.1-6.3
	c0,0,0.1,0,0.1,0c3.3-0.2,6,2.4,6.2,5.6C143.9,77.9,144,78,144,78.1z"/>
<path class="st0" d="M95.9,94.7c-1.3-4.6-4.3-7.5-9.1-8c-2.2-0.2-4.4-0.2-6.6,0.1c-4.9,0.7-8.1,3.6-9.1,8.4
	c-1.5,7.7-1.6,15.6-0.1,23.3c0.7,3.6,2.6,6.6,6.3,7.9c3.8,2.4,7.7,1.5,11.4,0.6c0.6-0.1,1.6-0.7,2.1-1c0,0,0,0,0,0
	c3.7-1.4,6.3-6,5.8-10.9H87c-0.2,0.7-0.4,1.2-0.5,1.7c-0.2,1.4-1.5,2.3-2.9,2.2c-1.4,0-2.6-1.1-2.7-2.5c-0.3-1.9-0.4-3.8-0.6-6h16.8
	C97.3,104.9,97.4,99.7,95.9,94.7z M86.8,102.9h-6.6c0.1-1.7,0.2-3.4,0.5-5.1c0.2-1.5,1.6-2.6,3.1-2.4c1.5,0.1,2.8,1.3,2.9,2.8
	C86.8,99.8,86.8,101.3,86.8,102.9z"/>
<path class="st0" d="M85.6,125.8l-0.3,0.3c0-0.1,0-0.1,0.1-0.2C85.4,125.9,85.5,125.8,85.6,125.8z"/>
</svg>
