<?xml version="1.0" encoding="utf-8"?>
<!-- Generator: Adobe Illustrator 23.1.0, SVG Export Plug-In . SVG Version: 6.00 Build 0)  -->
<svg version="1.1" id="Layer_1" xmlns="http://www.w3.org/2000/svg" xmlns:xlink="http://www.w3.org/1999/xlink" x="0px" y="0px"
	 viewBox="0 0 200 43.5" style="enable-background:new 0 0 200 43.5;" xml:space="preserve">
<style type="text/css">
	.st0{fill:#F69220;}
	.st1{fill:#FFFFFF;}
</style>
<g>
	<path class="st0" d="M13.8,35.4c-0.9,0-1.8-0.5-2.3-1.3L0.2,14.7c-0.8-1.3-0.3-2.9,1-3.8c1.3-0.8,2.9-0.3,3.8,1l11.3,19.3
		c0.8,1.3,0.3,2.9-1,3.8C14.7,35.4,14.4,35.4,13.8,35.4z"/>
	<path class="st1" d="M42.2,24.9c0-1.4-0.5-2.7-1.3-4.1c-1.2-2.3-2.6-3.7-4.5-4.5c-1.6-0.8-3.5-1.2-5.3-1c0.6-1.3,1-2.6,1.1-4
		c0.2-2-0.5-3.8-1.7-6c-0.8-1.4-1.8-2.4-2.9-3.2c-1.2-0.8-2.4-1.2-3.8-1.3s-2.8,0-4.3,0.3c-0.5,0.1-1,0.3-1.5,0.4
		c-0.2,0.1-0.4,0.2-0.6,0.3c-0.9,0.3-3.2,1.6-4,2.2L9.4,6.1H9.3c-1.4,0.9-1.9,2.7-1.1,4.2c0.6,1,1.6,1.5,2.6,1.5
		c0.5,0,1-0.1,1.5-0.4h0.1l6.4-3.7c0.6-0.3,1.2-0.5,1.8-0.6c0.6-0.1,1.2,0,1.8,0.1c0.6,0.2,1.1,0.5,1.7,0.9c0.5,0.4,0.9,0.9,1.3,1.5
		c0.3,0.6,0.6,1.2,0.8,1.9c0.1,0.8,0.1,1.3,0,1.9c-0.1,0.6-0.3,1.1-0.8,1.6c-0.3,0.5-0.8,0.9-1.3,1.2l-3.8,2.3l-1.6,0.9l-1,0.6
		c-1.4,0.8-1.8,2.5-1,3.9c0.5,0.9,1.5,1.4,2.5,1.4c0.5,0,1-0.1,1.4-0.4l2.2-1.2l5.4-2.9c0.6-0.3,1.1-0.5,1.7-0.5s1.2,0.1,1.7,0.3
		c0.6,0.2,1.1,0.5,1.6,0.9c0.5,0.4,0.9,0.9,1.3,1.5c0.3,0.6,0.5,1.2,0.6,1.8c0.1,0.6,0.1,1.3-0.1,1.9c-0.1,0.6-0.4,1.1-0.8,1.7
		c-0.4,0.5-0.9,0.9-1.5,1.3l-9.4,5.4H23l-1.7,1l-3.3,1.8c-1.4,0.8-2,2.6-1.2,4c0.5,1,1.5,1.6,2.6,1.6c0.5,0,1-0.1,1.4-0.4l8.1-4.3
		l6.6-3.6c1.4-0.8,2.7-1.8,3.8-2.9c1.1-1.1,1.9-2.3,2.4-3.6C42.1,27.7,42.3,26.3,42.2,24.9z"/>
	<g>
		<path class="st1" d="M125.7,30.1c-0.6,0-1.3,0-1.8-0.5c-0.5-0.5-0.5-1.2-0.5-1.8V12.7c0-0.6,0-1.3,0.5-1.8
			c0.5-0.5,1.2-0.5,1.8-0.5h5.6c3.9,0,6.1,2.3,6.1,5.5c0,2.3-1.4,3.7-2.5,4.1c1.2,0.6,2.7,1.8,2.7,4.4c0,3.8-2.5,5.7-6,5.7
			L125.7,30.1L125.7,30.1z M127.3,13.8v4.5h3.8c1.6,0,2.5-0.9,2.5-2.3c0-1.4-0.9-2.3-2.5-2.3H127.3L127.3,13.8z M131.3,26.7
			c1.7,0,2.6-1.1,2.6-2.4c0-1.3-0.8-2.4-2.6-2.4h-4v4.9h4V26.7z"/>
		<path class="st1" d="M143.8,24c0,1.9,1.1,3.2,3.2,3.2c0.9,0,1.8-0.2,2.5-0.8c0.6-0.4,0.9-0.5,1.3-0.5c0.8,0,1.4,0.8,1.4,1.5
			c0,0.8-0.6,1.3-1.4,1.8c-1,0.8-2.3,1-3.9,1c-3.5,0-6.8-1.5-6.8-7.4c0-4.7,2.5-7.4,6.4-7.4c3.9,0,6.1,2.8,6.4,6.5
			c0,0.6-0.1,1.2-0.5,1.6c-0.5,0.5-1,0.5-1.6,0.5H143.8L143.8,24z M149.1,20c-0.4-0.9-1.2-1.5-2.4-1.5c-1.2,0-2,0.6-2.4,1.5
			c-0.2,0.5-0.3,0.9-0.3,1.6h5.5C149.3,20.9,149.2,20.4,149.1,20z"/>
		<path class="st1" d="M156.4,18.8H156c-0.8,0-0.9,0-1.2-0.2c-0.4-0.2-0.8-0.6-0.8-1.2c0-0.5,0.2-1,0.8-1.2c0.3-0.2,0.5-0.2,1.2-0.2
			h0.4v-1.9c0-0.9,0-1.2,0.2-1.6c0.3-0.5,0.8-0.9,1.6-0.9c0.8,0,1.3,0.3,1.6,0.9c0.2,0.4,0.2,0.8,0.2,1.6V16h1.1
			c0.8,0,0.9,0,1.2,0.2c0.4,0.2,0.8,0.6,0.8,1.2c0,0.5-0.2,1-0.8,1.2c-0.3,0.2-0.5,0.2-1.2,0.2h-1.1v6.9c0,0.8,0.2,1.2,1.2,1.3
			c0.5,0,0.8,0.1,1.1,0.2c0.4,0.2,0.8,0.6,0.8,1.3s-0.3,1.1-0.8,1.3c-0.3,0.2-0.8,0.2-1.5,0.2h-0.2c-3,0-4.2-2-4.2-4.1L156.4,18.8
			L156.4,18.8z"/>
		<path class="st1" d="M166.1,18.8h-0.3c-0.8,0-0.9,0-1.2-0.2c-0.4-0.2-0.8-0.6-0.8-1.2c0-0.5,0.2-1,0.8-1.2
			c0.3-0.2,0.5-0.2,1.2-0.2h0.4v-1.9c0-0.9,0-1.2,0.2-1.6c0.3-0.5,0.8-0.9,1.6-0.9c0.8,0,1.3,0.3,1.6,0.9c0.2,0.4,0.2,0.8,0.2,1.6
			V16h1.1c0.8,0,0.9,0,1.2,0.2c0.4,0.2,0.8,0.6,0.8,1.2c0,0.5-0.2,1-0.8,1.2c-0.3,0.2-0.5,0.2-1.2,0.2h-1.1v6.9
			c0,0.8,0.2,1.2,1.2,1.3c0.5,0,0.8,0.1,1.1,0.2c0.4,0.2,0.8,0.6,0.8,1.3s-0.3,1.1-0.8,1.3c-0.3,0.2-0.8,0.2-1.5,0.2h-0.2
			c-3,0-4.2-2-4.2-4.1L166.1,18.8L166.1,18.8z"/>
		<path class="st1" d="M177.9,24c0,1.9,1.1,3.2,3.2,3.2c0.9,0,1.8-0.2,2.5-0.8c0.6-0.4,0.9-0.5,1.3-0.5c0.8,0,1.4,0.8,1.4,1.5
			c0,0.8-0.6,1.3-1.4,1.8c-1,0.8-2.3,1-3.9,1c-3.5,0-6.8-1.5-6.8-7.4c0-4.7,2.5-7.4,6.4-7.4s6.1,2.8,6.4,6.5c0,0.6-0.1,1.2-0.5,1.6
			c-0.5,0.5-1,0.5-1.6,0.5H177.9L177.9,24z M183.1,20c-0.4-0.9-1.2-1.5-2.4-1.5c-1.2,0-2,0.6-2.4,1.5c-0.2,0.5-0.3,0.9-0.3,1.6h5.5
			C183.3,20.9,183.3,20.4,183.1,20z"/>
		<path class="st1" d="M196.7,15.5c1.1,0,1.8,0.2,2.5,0.8c0.5,0.4,0.9,0.9,0.9,1.5c0,0.5-0.2,1-0.5,1.3s-0.8,0.5-1.2,0.5
			s-0.8-0.1-1.2-0.4c-0.4-0.2-0.9-0.4-1.4-0.4c-1.2,0-2.4,0.8-2.4,2.6v6.5c0,0.9,0,1.2-0.2,1.6c-0.3,0.5-0.8,0.9-1.6,0.9
			c-0.9,0-1.3-0.3-1.6-0.9c-0.2-0.4-0.2-0.8-0.2-1.6v-9.8c0-0.9,0-1.2,0.3-1.6c0.3-0.5,0.9-0.8,1.5-0.8c0.5,0,0.9,0.2,1.1,0.4
			c0.3,0.3,0.5,0.6,0.5,1.1C194,16.2,195.3,15.5,196.7,15.5z"/>
	</g>
	<g>
		<g>
			<path class="st0" d="M63.4,24.9l-3.2-6.4v8.8c0,0.9,0,1.2-0.3,1.7c-0.3,0.5-0.9,0.9-1.7,0.9c-0.8,0-1.4-0.4-1.7-0.9
				c-0.2-0.5-0.3-0.8-0.3-1.7V12.6c0-0.8,0.1-1.4,0.6-1.8c0.3-0.3,0.8-0.5,1.3-0.5c0.5,0,0.8,0.1,1.1,0.3c0.4,0.2,0.8,0.8,1,1.2
				l5,9.4l5-9.4c0.2-0.5,0.6-0.9,1-1.2c0.3-0.2,0.8-0.3,1.1-0.3c0.5,0,0.9,0.2,1.3,0.5c0.5,0.5,0.6,1,0.6,1.8v15
				c0,0.9,0,1.2-0.3,1.7c-0.3,0.5-0.9,0.9-1.7,0.9c-0.8,0-1.4-0.4-1.7-0.9c-0.2-0.5-0.3-0.8-0.3-1.7v-8.8L67,25
				c-0.5,0.9-0.9,1.3-1.8,1.3C64.2,26.3,63.9,25.9,63.4,24.9z"/>
			<path class="st0" d="M72.3,30.2c-0.8,0-1.5-0.4-1.8-1c-0.3-0.5-0.3-0.8-0.3-1.7v-8.3L67.2,25c-0.5,0.9-0.9,1.4-2,1.4
				c-1,0-1.5-0.5-2-1.4l-2.9-5.7v8.3c0,0.9,0,1.2-0.3,1.7c-0.3,0.6-1,1-1.8,1c-0.8,0-1.5-0.4-1.8-1c-0.3-0.5-0.3-0.9-0.3-1.7v-15
				c0-0.8,0.1-1.4,0.6-2c0.4-0.4,0.8-0.6,1.4-0.6c0.5,0,0.9,0.1,1.2,0.3c0.5,0.3,0.8,0.9,1,1.2l4.7,9.1l4.7-9.1
				c0.2-0.3,0.5-0.9,1-1.2c0.3-0.2,0.8-0.3,1.2-0.3c0.6,0,1,0.2,1.4,0.6c0.5,0.5,0.6,1.1,0.6,2v15c0,0.9,0,1.2-0.3,1.7
				C73.8,29.8,73,30.2,72.3,30.2z M70.4,17.9v9.6c0,0.9,0,1.2,0.2,1.6c0.3,0.5,0.9,0.8,1.5,0.8c0.8,0,1.2-0.3,1.5-0.8
				c0.2-0.4,0.2-0.8,0.2-1.6v-15c0-0.8-0.1-1.3-0.5-1.7c-0.3-0.3-0.8-0.5-1.2-0.5c-0.4,0-0.8,0.1-1.1,0.3c-0.3,0.2-0.6,0.6-0.9,1.1
				l-5.1,9.6l-5.1-9.5c-0.3-0.5-0.6-0.9-0.9-1.1c-0.3-0.2-0.6-0.3-1.1-0.3c-0.5,0-0.9,0.2-1.2,0.5c-0.4,0.4-0.5,1-0.5,1.7v14.9
				c0,0.9,0,1.2,0.2,1.6c0.3,0.5,0.9,0.8,1.5,0.8c0.8,0,1.2-0.3,1.5-0.8c0.5-0.4,0.5-0.8,0.5-1.6v-9.6l3.6,6.9
				c0.5,1,0.9,1.3,1.7,1.3c0.8,0,1.2-0.3,1.7-1.3L70.4,17.9z"/>
		</g>
		<g>
			<path class="st0" d="M82.7,30.1c-1.4,0-2.6-0.5-3.5-1.3c-1.2-1.2-1.5-2.5-1.5-4.1v-6.9c0-0.9,0-1.2,0.2-1.6
				c0.3-0.5,0.8-0.8,1.5-0.8c0.8,0,1.3,0.3,1.5,0.8c0.2,0.4,0.2,0.8,0.2,1.6v6.4c0,1.9,1.2,2.6,2.4,2.6c1.1,0,2.4-0.6,2.4-2.6v-6.4
				c0-0.9,0-1.2,0.2-1.6c0.3-0.5,0.8-0.8,1.5-0.8c0.8,0,1.3,0.3,1.5,0.8c0.2,0.4,0.2,0.8,0.2,1.6v9.7c0,0.9,0,1.2-0.3,1.6
				c-0.3,0.5-0.9,0.8-1.5,0.8c-0.5,0-0.9-0.2-1.1-0.4c-0.3-0.3-0.4-0.6-0.5-1C85.4,29.6,84,30.1,82.7,30.1z"/>
			<path class="st0" d="M82.7,30.4c-1.4,0-2.6-0.5-3.6-1.3c-1-1-1.5-2.3-1.5-4.2v-6.9c0-0.9,0-1.2,0.2-1.7c0.3-0.6,0.9-0.9,1.7-0.9
				s1.4,0.3,1.7,0.9c0.2,0.4,0.2,0.8,0.2,1.7v6.4c0,2.3,1.7,2.4,2.3,2.4s2.3-0.2,2.3-2.4v-6.4c0-0.9,0-1.2,0.2-1.7
				c0.3-0.6,0.9-0.9,1.7-0.9c0.8,0,1.4,0.3,1.7,0.9C90,16.7,90,17,90,17.9v9.7c0,0.9,0,1.2-0.3,1.7c-0.3,0.5-0.9,0.9-1.7,0.9
				c-0.5,0-0.9-0.2-1.2-0.5c-0.3-0.2-0.4-0.5-0.5-0.8C85.3,29.8,84,30.4,82.7,30.4z M79.7,15.6c-0.8,0-1.2,0.3-1.4,0.8
				c-0.2,0.3-0.2,0.8-0.2,1.5v6.9c0,1.8,0.4,3,1.4,3.9c0.8,0.8,1.9,1.2,3.3,1.2c1.3,0,2.6-0.5,3.6-1.5l0.2-0.2l0.1,0.3
				c0.1,0.5,0.2,0.8,0.5,1c0.3,0.2,0.6,0.4,1,0.4c0.6,0,1.2-0.3,1.4-0.8c0.2-0.4,0.2-0.6,0.2-1.5v-9.7c0-0.9,0-1.2-0.2-1.5
				c-0.2-0.3-0.9-0.6-1.5-0.6S87,16,86.7,16.4c-0.2,0.3-0.2,0.8-0.2,1.5v6.4c0,2-1.3,2.7-2.5,2.7c-1.2,0-2.5-0.8-2.5-2.7v-6.4
				c0-0.9,0-1.2-0.2-1.5C80.8,15.9,80.4,15.6,79.7,15.6z"/>
		</g>
		<g>
			<path class="st0" d="M101.9,16.1c0.8,0.4,1.7,1.1,1.7,2c0,0.5-0.2,0.8-0.5,1.2c-0.2,0.3-0.8,0.5-1.1,0.5c-0.4,0-0.8-0.1-1.2-0.5
				c-0.6-0.4-1-0.6-1.7-0.6c-0.8,0-1.5,0.3-2,0.9c-0.5,0.8-0.8,1.6-0.8,3.1c0,1.5,0.2,2.5,0.8,3.2c0.5,0.6,1.2,0.9,2,0.9
				c0.8,0,1.1-0.2,1.7-0.6c0.5-0.4,0.8-0.5,1.2-0.5c0.4,0,0.8,0.2,1.1,0.5c0.3,0.3,0.5,0.8,0.5,1.2c0,0.9-0.9,1.6-1.7,2
				c-0.8,0.5-1.7,0.8-2.8,0.8c-2.8,0-6.5-1.5-6.5-7.3s3.6-7.3,6.5-7.3C100.3,15.5,101.1,15.6,101.9,16.1z"/>
			<path class="st0" d="M99,30.4c-1.2,0-2.9-0.3-4.4-1.5c-1.4-1.3-2.3-3.3-2.3-5.9c0-2.7,0.8-4.6,2.3-5.9c1.4-1.3,3.2-1.5,4.4-1.5
				c1.1,0,2,0.2,2.9,0.8c0.8,0.4,1.8,1.1,1.8,2.2c0,0.5-0.2,0.9-0.5,1.3c-0.3,0.3-0.8,0.5-1.2,0.5c-0.4,0-0.8-0.1-1.3-0.5
				c-0.6-0.4-1-0.6-1.6-0.6c-0.8,0-1.4,0.3-1.9,0.9c-0.5,0.8-0.8,1.6-0.8,3c0,1.5,0.2,2.4,0.8,3.1c0.5,0.6,1.1,0.9,1.9,0.9
				c0.6,0,1.1-0.2,1.6-0.6c0.5-0.3,0.8-0.6,1.3-0.6c0.4,0,0.9,0.2,1.2,0.5c0.4,0.4,0.5,0.8,0.5,1.3c0,0.8-0.6,1.5-1.8,2.3
				C101.1,30.1,100.3,30.4,99,30.4z M99.1,15.6c-1.9,0-6.3,0.8-6.3,7.1c0,6.6,4.3,7.2,6.3,7.2c1.1,0,1.9-0.2,2.7-0.8
				c1.1-0.6,1.6-1.2,1.6-1.9c0-0.4-0.2-0.8-0.5-1.1c-0.2-0.2-0.6-0.4-1-0.4c-0.4,0-0.8,0.1-1.1,0.5c-0.6,0.5-1.1,0.6-1.8,0.6
				c-0.9,0-1.6-0.3-2.2-1c-0.6-0.8-0.8-1.7-0.8-3.2s0.3-2.5,0.8-3.2c0.5-0.6,1.2-1,2.2-1c0.8,0,1.2,0.2,1.8,0.6
				c0.5,0.3,0.8,0.5,1.1,0.5c0.4,0,0.8-0.2,1-0.4c0.3-0.3,0.5-0.8,0.5-1.1c0-0.9-1-1.6-1.6-1.9l0,0C101.1,15.8,100.3,15.6,99.1,15.6
				z"/>
		</g>
		<g>
			<path class="st0" d="M117.9,29.3c-0.3,0.5-0.8,0.8-1.5,0.8s-1.3-0.3-1.5-0.8c-0.2-0.4-0.2-0.8-0.2-1.6v-6.4
				c0-1.9-1.2-2.6-2.4-2.6s-2.4,0.6-2.4,2.6v6.4c0,0.9,0,1.2-0.2,1.6c-0.3,0.5-0.8,0.8-1.5,0.8s-1.3-0.3-1.5-0.8
				c-0.2-0.4-0.2-0.8-0.2-1.6v-15c0-0.9,0-1.2,0.2-1.6c0.3-0.5,0.8-0.8,1.5-0.8s1.3,0.3,1.5,0.8c0.2,0.4,0.2,0.8,0.2,1.6v4.2
				c0.9-0.9,1.9-1.5,3.6-1.5c1.4,0,2.6,0.5,3.5,1.3c1.2,1.2,1.5,2.5,1.5,4.1v6.9C118.2,28.5,118.1,28.8,117.9,29.3z"/>
			<path class="st0" d="M116.4,30.2c-0.8,0-1.4-0.3-1.7-0.9c-0.2-0.4-0.2-0.8-0.2-1.7v-6.4c0-2.3-1.7-2.4-2.3-2.4
				c-0.5,0-2.3,0.2-2.3,2.4v6.4c0,0.9,0,1.2-0.2,1.7c-0.3,0.6-0.9,0.9-1.7,0.9c-0.8,0-1.4-0.3-1.7-0.9c-0.2-0.4-0.2-0.8-0.2-1.7v-15
				c0-0.9,0-1.2,0.2-1.7c0.3-0.6,0.9-0.9,1.7-0.9s1.4,0.3,1.7,0.9c0.2,0.4,0.2,0.8,0.2,1.7v3.9c1-0.9,2-1.3,3.3-1.3
				c1.4,0,2.6,0.5,3.6,1.3c1,1,1.5,2.3,1.5,4.2v6.9c0,0.9,0,1.2-0.2,1.7C117.8,29.9,117.2,30.2,116.4,30.2z M112.3,18.6
				c1.2,0,2.5,0.8,2.5,2.7v6.4c0,0.9,0,1.2,0.2,1.5c0.2,0.5,0.8,0.8,1.4,0.8s1.2-0.3,1.4-0.8l0,0c0.2-0.3,0.2-0.8,0.2-1.5v-6.9
				c0-1.8-0.4-3-1.4-3.9c-0.8-0.8-1.9-1.2-3.3-1.2c-1.4,0-2.4,0.4-3.5,1.4l-0.3,0.3v-4.6c0-0.9,0-1.2-0.2-1.5
				c-0.2-0.5-0.8-0.8-1.4-0.8c-0.8,0-1.2,0.3-1.4,0.8c-0.2,0.3-0.2,0.8-0.2,1.5v15c0,0.9,0,1.2,0.2,1.5c0.2,0.5,0.8,0.8,1.4,0.8
				s1.2-0.3,1.4-0.8c0.2-0.3,0.2-0.8,0.2-1.5v-6.4C109.6,19.2,111,18.6,112.3,18.6z"/>
		</g>
	</g>
</g>
</svg>
