<?xml version="1.0" encoding="utf-8"?>
<!-- Generator: Adobe Illustrator 23.1.0, SVG Export Plug-In . SVG Version: 6.00 Build 0)  -->
<svg version="1.1" id="Layer_1" xmlns="http://www.w3.org/2000/svg" xmlns:xlink="http://www.w3.org/1999/xlink" x="0px" y="0px"
	 viewBox="0 0 200 34.8" style="enable-background:new 0 0 200 34.8;" xml:space="preserve">
<style type="text/css">
	.st0{fill:#84BA3B;}
</style>
<path class="st0" d="M196.4,2.7c-2.6-1.8-6.4-2.6-11.5-2.6h-13.3l-5,26.7h-17.4l1.1-6h10.4l1.2-6.9h-10.4l1.1-6h10.8l1.4-7.8H143
	l-4.7,25.3h-8L135,0h-11.5l-4.7,25.3H111L115.7,0h-11.5l-4.5,26.9H82.1l1.1-6h10.5l1.2-6.7H84.4l1.1-6h10.9l1.4-7.8h-68l-4,21
	L18.1,0.2H6.3l-6.4,34.6h11.4L15.2,13l7.5,21.8h40.6l5-26.9h6.4l-5,26.7h106.8l3.1-16.9l5,16.9H196l-5.2-13.8l1.2-0.2
	c2.6-0.6,4.6-1.8,6-3.5c1.4-1.8,2.1-4.1,2.1-7C200.1,6.9,198.9,4.4,196.4,2.7L196.4,2.7z M53.4,26.9H36l1.1-6H48l1.2-6.9H38.5l1.1-6
	h17.3L53.4,26.9L53.4,26.9z M187.1,15.2c-1.2,0.8-2.8,1.2-5.1,1.2h-2.2l1.8-9.2h1.7c1.9,0,3.2,0.4,4.1,0.9c0.7,0.5,1.7,1.4,1.7,3.2
	C189,13.4,187.9,14.6,187.1,15.2L187.1,15.2z"/>
</svg>
