<?xml version="1.0" encoding="utf-8"?>
<!-- Generator: Adobe Illustrator 23.0.1, SVG Export Plug-In . SVG Version: 6.00 Build 0)  -->
<svg version="1.1" id="Layer_1" xmlns="http://www.w3.org/2000/svg" xmlns:xlink="http://www.w3.org/1999/xlink" x="0px" y="0px"
	 viewBox="0 0 200 200" style="enable-background:new 0 0 200 200;" xml:space="preserve">
<style type="text/css">
	.st0{fill:#971C78;}
	.st1{opacity:0.2;fill:#FFFFFF;enable-background:new    ;}
	.st2{opacity:0.1;fill:#020203;enable-background:new    ;}
	.st3{fill:#F2F2F2;}
	.st4{fill:url(#SVGID_1_);}
	.st5{fill:url(#SVGID_2_);}
	.st6{fill:#0B8ACA;}
	.st7{fill:#E3061D;}
	.st8{fill:#84BA3B;}
	.st9{fill:#FFDA45;}
	.st10{fill:#F49723;}
	.st11{fill:#E08511;}
	.st12{fill:#FFFFFF;}
	.st13{fill:#F0C41B;}
	.st14{fill:#81705F;}
	.st15{fill:#F9EAB0;}
	.st16{fill:#DB2418;}
	.st17{fill:#275FA9;}
</style>
<path class="st8" d="M181.5,87.6c-2.2-1.5-5.4-2.2-9.7-2.2h-11.2l-4.2,22.6h-14.7l0.9-5.1h8.8l1-5.8l-8.8,0l0.9-5.1h9.1l1.2-6.6
	h-18.5l-4,21.4h-6.8l4-21.5h-9.7l-4,21.4h-6.6l4-21.4h-9.7L99.7,108H84.9l0.9-5.1h8.9l1-5.7l-8.9,0l0.9-5.1h9.2l1.2-6.6H40.6
	l-3.3,17.9l-6.5-17.9h-10l-5.4,29.2H25l3.3-18.4l6.3,18.4h34.3L73.1,92h5.4l-4.2,22.6h90.3l2.6-14.3l4.2,14.3h9.6l-4.4-11.7l1-0.2
	c2.2-0.5,3.9-1.5,5.1-3c1.2-1.5,1.8-3.5,1.8-5.9C184.6,91.1,183.6,89,181.5,87.6L181.5,87.6z M60.6,108H45.9l0.9-5.1h9.2l1-5.8H48
	l0.9-5.1h14.6L60.6,108L60.6,108z M173.6,98.1c-1,0.7-2.4,1-4.3,1h-1.9l1.5-7.8h1.4c1.6,0,2.7,0.3,3.5,0.8c0.6,0.4,1.4,1.2,1.4,2.7
	C175.2,96.6,174.3,97.6,173.6,98.1L173.6,98.1z"/>
</svg>
