<?xml version="1.0" encoding="utf-8"?>
<!-- Generator: Adobe Illustrator 23.0.1, SVG Export Plug-In . SVG Version: 6.00 Build 0)  -->
<svg version="1.1" id="Layer_1" xmlns="http://www.w3.org/2000/svg" xmlns:xlink="http://www.w3.org/1999/xlink" x="0px" y="0px"
	 viewBox="0 0 200 200" style="enable-background:new 0 0 200 200;" xml:space="preserve">
<style type="text/css">
	.st0{fill:#971C78;}
	.st1{opacity:0.2;fill:#FFFFFF;enable-background:new    ;}
	.st2{opacity:0.1;fill:#020203;enable-background:new    ;}
	.st3{fill:#F2F2F2;}
	.st4{fill:url(#SVGID_1_);}
	.st5{fill:url(#SVGID_2_);}
	.st6{fill:#0B8ACA;}
	.st7{fill:#E3061D;}
	.st8{fill:#84BA3B;}
	.st9{fill:#FFDA45;}
	.st10{fill:#F49723;}
	.st11{fill:#E08511;}
	.st12{fill:#FFFFFF;}
	.st13{fill:#F0C41B;}
	.st14{fill:#81705F;}
	.st15{fill:#F9EAB0;}
	.st16{fill:#DB2418;}
	.st17{fill:#275FA9;}
</style>
<g>
	<g>
		<path class="st6" d="M31.4,120h-5.6c-0.5,0-0.9,0.1-1.4,0.3c-0.5,0.2-0.9,0.5-1.2,0.8c-0.6,0.7-0.9,1.8-0.9,3.1v17.7h3.9v-6h5.3
			c1,0,1.8-0.4,2.6-1.1c0.7-0.7,1.1-1.5,1.1-2.5v-8.3C35.2,121.4,33.9,120,31.4,120z M31.3,130.9c0,0.3-0.1,0.5-0.3,0.6
			c-0.2,0.2-0.4,0.3-0.7,0.3h-2.8c-0.8,0-1.2-0.4-1.2-1.2v-5.5c0-0.7,0.4-1.1,1.1-1.2h3.1c0.6,0,0.9,0.3,0.9,1V130.9z"/>
		<path class="st6" d="M47.3,120h-8.9v4h7.9c0.7,0,1.1,0.3,1.1,0.9v0.4h-5.2c-2.5,0-3.8,1.3-3.8,3.8v3.3c0,2.4,1.4,3.6,4,3.6h5.4
			c1,0,1.9-0.4,2.6-1.1c0.6-0.7,1-1.6,1-2.6v-8.4C51.2,121.3,49.9,120,47.3,120z M47.4,131.1c0,0.5-0.4,0.8-1.1,0.8h-3
			c-0.3,0-0.5-0.1-0.7-0.2c-0.2-0.1-0.3-0.3-0.3-0.5v-1c0-0.4,0.1-0.7,0.2-0.9c0.2-0.1,0.4-0.2,0.8-0.2h3c0.7,0,1.1,0.3,1.1,0.9
			V131.1z"/>
		<path class="st6" d="M63.4,130.9c0,0.3-0.1,0.5-0.3,0.7c-0.2,0.2-0.5,0.3-0.9,0.3h-2.8c-0.7,0-1.1-0.4-1.1-1.3V120h-3.9v11.9
			c0,0.6,0.1,1.2,0.3,1.6c0.2,0.5,0.5,0.9,0.8,1.3c0.4,0.4,0.8,0.7,1.2,0.8c0.4,0.2,0.9,0.3,1.6,0.3h5v1c0,0.2-0.1,0.5-0.3,0.6
			c-0.2,0.2-0.5,0.3-0.8,0.3h-7.8v4h9.2c1.1,0,2-0.4,2.7-1.2c0.6-0.8,1-1.8,1-3.1V120h-3.9V130.9z"/>
		<path class="st6" d="M70.4,123.6v3c0,0.9,0.4,1.7,1.2,2.3c0.7,0.7,1.6,1,2.6,1.1h3.5c0.2,0,0.4,0.2,0.6,0.5
			c0.1,0.1,0.1,0.2,0.1,0.3v0.4c0,0.5-0.4,0.7-1,0.8h-7v4h8.2c0.7,0,1.2-0.1,1.6-0.2c0.4-0.2,0.7-0.4,1.1-0.8
			c0.7-0.8,1.1-1.6,1.1-2.5v-2.9c0-1-0.4-1.8-1-2.5c-0.7-0.7-1.4-1-2.4-1.1h-3.5c-0.8,0-1.2-0.3-1.2-0.8v-0.4c0-0.5,0.4-0.7,1.2-0.7
			h6.9v-4h-8.1C71.8,120,70.5,121.2,70.4,123.6z"/>
		<path class="st6" d="M94.1,120h-8.9v4h7.9c0.7,0,1.1,0.3,1.1,0.9v0.4H89c-2.5,0-3.8,1.3-3.8,3.8v3.3c0,2.4,1.4,3.6,4,3.6h5.4
			c1,0,1.9-0.4,2.6-1.1c0.6-0.7,1-1.6,1-2.6v-8.4C98,121.3,96.7,120,94.1,120z M94.2,131.1c0,0.5-0.4,0.8-1.1,0.8h-3
			c-0.3,0-0.5-0.1-0.7-0.2c-0.2-0.1-0.3-0.3-0.3-0.5v-1c0-0.4,0.1-0.7,0.2-0.9c0.2-0.1,0.4-0.2,0.8-0.2h3c0.7,0,1.1,0.3,1.1,0.9
			V131.1z"/>
		<path class="st6" d="M102.5,115.1c-0.8,0.7-1.2,1.5-1.2,2.6v18.2h3.9V124h2.8v-4h-2.8v-0.9c0-0.8,0.4-1.2,1.3-1.2h1.5v-3.9h-2.5
			C104.2,114.1,103.2,114.4,102.5,115.1z"/>
		<path class="st6" d="M119.4,120h-5.3c-2.5,0-3.8,1.3-3.8,3.7l0,8.1c0,0.8,0.1,1.4,0.2,1.9c0.1,0.4,0.4,0.9,0.9,1.3
			c0.4,0.4,0.8,0.6,1.3,0.8c0.4,0.1,1,0.2,1.8,0.2h8.6v-4H115c-0.2,0-0.4-0.1-0.5-0.4c-0.2-0.2-0.3-0.4-0.3-0.8v-0.3l8.8-3.5v-3.2
			C123.1,121.3,121.8,120,119.4,120z M119.1,124.8l-4.9,1.9v-1.6c0-0.3,0.1-0.5,0.4-0.7c0.2-0.2,0.5-0.3,0.9-0.3h2.7
			c0.3,0,0.5,0.1,0.7,0.2C119,124.3,119.1,124.5,119.1,124.8L119.1,124.8z"/>
		<path class="st6" d="M130.1,134.8c-0.4-0.1-0.8-0.3-1.3-0.6c-0.4-0.4-0.7-0.8-0.8-1.3c-0.2-0.5-0.2-1-0.2-1.5v-7.5
			c0-1.1,0.3-1.9,0.9-2.4c0.6-0.4,1.4-0.6,2.4-0.6h5.9v-0.9h-6c-0.6,0-1.2,0.1-1.7,0.2c-0.5,0.2-1,0.5-1.5,0.9
			c-0.4,0.4-0.7,0.9-0.8,1.4c-0.1,0.5-0.2,1-0.2,1.6v7.5c0,0.7,0.1,1.4,0.3,1.9c0.2,0.6,0.6,1.1,1.1,1.6c0.5,0.4,1,0.6,1.6,0.7
			c0.5,0.1,1,0.2,1.6,0.2h5.7V135h-5.6C131,135,130.5,134.9,130.1,134.8z"/>
		<path class="st6" d="M151.6,120.4c-0.3-0.2-0.5-0.3-0.9-0.4c-0.6-0.1-1.3-0.2-2-0.2h-8.1v0.9h8.5c0.5,0,1,0.1,1.5,0.2
			c0.4,0.1,0.8,0.4,1.1,0.9c0.5,0.7,0.8,1.4,0.8,2.3v1.1h-7.8c-2.7,0.1-4,1.5-4.1,4.2v2.4c0,1.3,0.4,2.3,1.2,3
			c0.8,0.7,1.8,1.1,3,1.1h4.7c1.2,0,2.2-0.4,3.1-1.3c0.4-0.5,0.7-1,0.8-1.5c0.1-0.5,0.1-1,0.1-1.6v-7.2c0-1.2-0.3-2.3-1.1-3.2
			C152.1,120.8,151.8,120.6,151.6,120.4z M152.4,131.8c0,2.1-1,3.1-3,3.2h-4.8c-0.8,0-1.6-0.3-2.3-0.8c-0.4-0.3-0.6-0.7-0.7-1.1
			c-0.1-0.4-0.1-0.8-0.1-1.3v-2.4c0-1,0.3-1.8,0.8-2.3c0.5-0.6,1.3-0.9,2.2-0.9h7.9V131.8z"/>
		<path class="st6" d="M158,124.4v11.5h0.9v-11.5c0-2.3,1-3.5,3.2-3.6h1.2v-0.9h-1C159.4,119.9,158,121.4,158,124.4z"/>
		<path class="st6" d="M178.1,114.7v5.2h-7.4c-3.1,0-4.6,1.5-4.7,4.6v6.8c0,0.6,0,1.2,0.2,1.8c0.1,0.5,0.4,1,0.8,1.6
			c0.6,0.6,1.1,0.9,1.7,1.1c0.6,0.1,1.2,0.2,2,0.2h3.5c3.1,0.1,4.7-1.4,4.8-4.5v-16.8H178.1z M178.1,131.4c0,1.3-0.4,2.2-1.2,2.7
			c-0.8,0.6-1.8,0.8-3,0.8h-3.2c-0.5,0-1-0.1-1.4-0.2c-0.4-0.1-0.8-0.3-1.2-0.5c-0.7-0.4-1.1-1.3-1.1-2.5v-7.3c0-0.6,0-1.1,0.2-1.5
			c0.1-0.4,0.3-0.8,0.7-1.2c0.4-0.4,0.8-0.7,1.3-0.8c0.4-0.1,0.9-0.2,1.4-0.2h7.4V131.4z"/>
	</g>
	<g>
		<path class="st7" d="M88.9,73.4c1.1-5.4,5.9-9.4,11.6-9.4c5.7,0,10.5,4,11.6,9.4c1.7,0.3,3.2,1,4.3,2.1c0-1,0-2-0.1-3
			c-0.7-8.1-7.5-14.5-15.8-14.5c-8.5,0-15.5,6.8-15.8,15.2c0,0.7-0.1,1.5,0,2.3c0.7-0.6,1.5-1.1,2.5-1.6
			C87.7,73.8,88.3,73.6,88.9,73.4z"/>
		<path class="st7" d="M109.8,75.3h-19c-0.9,0-1.9,0.2-2.8,0.6c-0.9,0.4-1.7,0.9-2.3,1.5c-1.2,1.4-1.8,3.5-1.8,6.2v14.9
			c0,2.7,0.6,4.8,1.8,6.2c0.6,0.6,1.4,1.1,2.3,1.5c1,0.4,1.9,0.6,2.8,0.6h19c4.9,0,7.4-2.7,7.5-8.1V83.3
			C117.2,78,114.7,75.3,109.8,75.3z"/>
	</g>
</g>
</svg>
