<?xml version="1.0" encoding="utf-8"?>
<!-- Generator: Adobe Illustrator 23.1.0, SVG Export Plug-In . SVG Version: 6.00 Build 0)  -->
<svg version="1.1" id="Layer_1" xmlns="http://www.w3.org/2000/svg" xmlns:xlink="http://www.w3.org/1999/xlink" x="0px" y="0px"
	 viewBox="0 0 200 38.4" style="enable-background:new 0 0 200 38.4;" xml:space="preserve">
<style type="text/css">
	.st0{fill:#0B8ACA;}
	.st1{fill:#E3061D;}
</style>
<g>
	<path class="st0" d="M46.7,11.1h-5.8c-0.5,0-0.9,0.1-1.5,0.3c-0.5,0.2-0.9,0.5-1.2,0.8c-0.6,0.7-0.9,1.9-0.9,3.2v18.3h4v-6.2h5.5
		c1,0,1.9-0.4,2.7-1.1c0.7-0.7,1.1-1.6,1.1-2.6v-8.6C50.6,12.6,49.3,11.1,46.7,11.1z M46.6,22.4c0,0.3-0.1,0.5-0.3,0.6
		c-0.2,0.2-0.4,0.3-0.7,0.3h-2.9c-0.8,0-1.2-0.4-1.2-1.2v-5.7c0-0.7,0.4-1.1,1.1-1.2h3.2c0.6,0,0.9,0.3,0.9,1L46.6,22.4
		C46.7,22.4,46.6,22.4,46.6,22.4z"/>
	<path class="st0" d="M63.1,11.1h-9.2v4.1h8.2c0.7,0,1.1,0.3,1.1,0.9v0.4h-5.4c-2.6,0-3.9,1.3-3.9,3.9v3.4c0,2.5,1.5,3.7,4.1,3.7
		h5.6c1,0,2-0.4,2.7-1.1c0.6-0.7,1-1.7,1-2.7v-8.5C67.2,12.5,65.8,11.1,63.1,11.1z M63.2,22.6c0,0.5-0.4,0.8-1.1,0.8H59
		c-0.3,0-0.5-0.1-0.7-0.2S58,22.9,58,22.7v-1c0-0.4,0.1-0.7,0.2-0.9c0.2-0.1,0.4-0.2,0.8-0.2h3.1c0.7,0,1.1,0.3,1.1,0.9
		C63.2,21.5,63.2,22.6,63.2,22.6z"/>
	<path class="st0" d="M79.8,22.4c0,0.3-0.1,0.5-0.3,0.7c-0.2,0.2-0.5,0.3-0.9,0.3h-2.9c-0.7,0-1.1-0.4-1.1-1.3v-11h-4v12.3
		c0,0.6,0.1,1.2,0.3,1.7c0.2,0.5,0.5,0.9,0.8,1.3c0.4,0.4,0.8,0.7,1.2,0.8c0.4,0.2,0.9,0.3,1.7,0.3h5.2v1c0,0.2-0.1,0.5-0.3,0.6
		c-0.2,0.2-0.5,0.3-0.8,0.3h-8.1v4.1H80c1.1,0,2.1-0.4,2.8-1.2c0.6-0.8,1-1.9,1-3.2v-18h-4V22.4z"/>
	<path class="st0" d="M87.1,14.8v3.1c0,0.9,0.4,1.8,1.2,2.4c0.7,0.7,1.7,1,2.7,1.1h3.6c0.2,0,0.4,0.2,0.6,0.5
		c0.1,0.1,0.1,0.2,0.1,0.3v0.4c0,0.5-0.4,0.7-1,0.8H87v4.1h8.5c0.7,0,1.2-0.1,1.7-0.2c0.4-0.2,0.7-0.4,1.1-0.8
		c0.7-0.8,1.1-1.7,1.1-2.6v-3c0-1-0.4-1.9-1-2.6c-0.7-0.7-1.5-1-2.5-1.1h-3.6c-0.8,0-1.2-0.3-1.2-0.8V16c0-0.5,0.4-0.7,1.2-0.7h7.2
		v-4.1h-8.4C88.5,11.1,87.2,12.4,87.1,14.8z"/>
	<path class="st0" d="M111.7,11.1h-9.2v4.1h8.2c0.7,0,1.1,0.3,1.1,0.9v0.4h-5.4c-2.6,0-3.9,1.3-3.9,3.9v3.4c0,2.5,1.5,3.7,4.1,3.7
		h5.6c1,0,2-0.4,2.7-1.1c0.6-0.7,1-1.7,1-2.7v-8.5C115.7,12.5,114.4,11.1,111.7,11.1z M111.8,22.6c0,0.5-0.4,0.8-1.1,0.8h-3.1
		c-0.3,0-0.5-0.1-0.7-0.2s-0.3-0.3-0.3-0.5v-1c0-0.4,0.1-0.7,0.2-0.9c0.2-0.1,0.4-0.2,0.8-0.2h3.1c0.7,0,1.1,0.3,1.1,0.9V22.6z"/>
	<path class="st0" d="M120.4,6c-0.8,0.7-1.2,1.6-1.2,2.7v18.9h4V15.3h2.9v-4.1h-2.9v-1c0-0.8,0.4-1.2,1.3-1.2h1.6V5h-2.6
		C122.1,5,121.1,5.3,120.4,6z"/>
	<path class="st0" d="M137.9,11.1h-5.5c-2.6,0-3.9,1.3-3.9,3.8v8.4c0,0.8,0.1,1.5,0.2,2c0.1,0.4,0.4,0.9,0.9,1.3
		c0.4,0.4,0.8,0.6,1.3,0.8c0.4,0.1,1,0.2,1.9,0.2h8.9v-4.1h-8.4c-0.2,0-0.4-0.1-0.5-0.4c-0.2-0.2-0.3-0.4-0.3-0.8V22l9.1-3.6v-3.3
		C141.7,12.5,140.4,11.1,137.9,11.1z M137.6,16.1l-5.1,2v-1.7c0-0.3,0.1-0.5,0.4-0.7c0.2-0.2,0.5-0.3,0.9-0.3h2.8
		c0.3,0,0.5,0.1,0.7,0.2C137.5,15.6,137.6,15.8,137.6,16.1L137.6,16.1z"/>
	<path class="st0" d="M149,26.5c-0.4-0.1-0.8-0.3-1.3-0.6c-0.4-0.4-0.7-0.8-0.8-1.3c-0.2-0.5-0.2-1-0.2-1.6v-7.8
		c0-1.1,0.3-2,0.9-2.5c0.6-0.4,1.5-0.6,2.5-0.6h6.1v-0.9H150c-0.6,0-1.2,0.1-1.8,0.2c-0.5,0.2-1,0.5-1.6,0.9
		c-0.4,0.4-0.7,0.9-0.8,1.5c-0.1,0.5-0.2,1-0.2,1.7v7.8c0,0.7,0.1,1.5,0.3,2c0.2,0.6,0.6,1.1,1.1,1.7c0.5,0.4,1,0.6,1.7,0.7
		c0.5,0.1,1,0.2,1.7,0.2h5.9v-1h-5.8C149.9,26.7,149.4,26.6,149,26.5z"/>
	<path class="st0" d="M171.3,11.5c-0.3-0.2-0.5-0.3-0.9-0.4c-0.6-0.1-1.3-0.2-2.1-0.2h-8.4v0.9h8.8c0.5,0,1,0.1,1.6,0.2
		c0.4,0.1,0.8,0.4,1.1,0.9c0.5,0.7,0.8,1.5,0.8,2.4v1.1h-8.1c-2.8,0.1-4.1,1.6-4.3,4.4v2.5c0,1.3,0.4,2.4,1.2,3.1s1.9,1.1,3.1,1.1
		h4.9c1.2,0,2.3-0.4,3.2-1.3c0.4-0.5,0.7-1,0.8-1.6c0.1-0.5,0.1-1,0.1-1.7v-7.5c0-1.2-0.3-2.4-1.1-3.3
		C171.8,11.9,171.5,11.7,171.3,11.5z M172.1,23.3c0,2.2-1,3.2-3.1,3.3h-5c-0.8,0-1.7-0.3-2.4-0.8c-0.4-0.3-0.6-0.7-0.7-1.1
		c-0.1-0.4-0.1-0.8-0.1-1.3v-2.5c0-1,0.3-1.9,0.8-2.4c0.5-0.6,1.3-0.9,2.3-0.9h8.2V23.3L172.1,23.3z"/>
	<path class="st0" d="M177.9,15.7v11.9h0.9V15.7c0-2.4,1-3.6,3.3-3.7h1.2v-0.9h-1C179.4,11,177.9,12.6,177.9,15.7z"/>
	<path class="st0" d="M198.7,5.6V11H191c-3.2,0-4.8,1.6-4.9,4.8v7c0,0.6,0,1.2,0.2,1.9c0.1,0.5,0.4,1,0.8,1.7
		c0.6,0.6,1.1,0.9,1.8,1.1c0.6,0.1,1.2,0.2,2.1,0.2h3.6c3.2,0.1,4.9-1.5,5-4.7V5.6H198.7z M198.7,22.9c0,1.3-0.4,2.3-1.2,2.8
		c-0.8,0.6-1.9,0.8-3.1,0.8h-3.3c-0.5,0-1-0.1-1.5-0.2c-0.4-0.1-0.8-0.3-1.2-0.5c-0.7-0.4-1.1-1.3-1.1-2.6v-7.6c0-0.6,0-1.1,0.2-1.6
		c0.1-0.4,0.3-0.8,0.7-1.2c0.4-0.4,0.8-0.7,1.3-0.8c0.4-0.1,0.9-0.2,1.5-0.2h7.7L198.7,22.9L198.7,22.9L198.7,22.9z"/>
</g>
<g>
	<path class="st1" d="M3.9,12.1C4.8,7.9,8.5,4.7,13,4.7s8.3,3.1,9.1,7.4c1.3,0.2,2.5,0.8,3.4,1.7c0-0.8,0-1.6-0.1-2.4
		C24.8,5,19.5,0,13,0C6.3,0,0.8,5.4,0.6,12c0,0.6-0.1,1.2,0,1.8c0.6-0.5,1.2-0.9,2-1.3C3,12.4,3.5,12.3,3.9,12.1z"/>
	<path class="st1" d="M20.4,13.6h-15c-0.7,0-1.5,0.2-2.2,0.5s-1.3,0.7-1.8,1.2C0.5,16.4,0,18,0,20.1v11.7c0,2.1,0.5,3.8,1.4,4.9
		c0.5,0.5,1.1,0.9,1.8,1.2c0.8,0.3,1.5,0.5,2.2,0.5h15c3.9,0,5.8-2.1,5.9-6.4V19.9C26.2,15.7,24.2,13.6,20.4,13.6z"/>
</g>
</svg>
