<?xml version="1.0" encoding="utf-8"?>
<!-- Generator: Adobe Illustrator 23.0.1, SVG Export Plug-In . SVG Version: 6.00 Build 0)  -->
<svg version="1.1" id="Layer_1" xmlns="http://www.w3.org/2000/svg" xmlns:xlink="http://www.w3.org/1999/xlink" x="0px" y="0px"
	 viewBox="0 0 200 200" style="enable-background:new 0 0 200 200;" xml:space="preserve">
<style type="text/css">
	.st0{opacity:0.1;fill:#020203;enable-background:new    ;}
	.st1{fill:#971C78;}
	.st2{opacity:0.2;fill:#FFFFFF;enable-background:new    ;}
	.st3{fill:#F2F2F2;}
	.st4{fill:url(#SVGID_1_);}
	.st5{fill:url(#SVGID_2_);}
	.st6{fill-rule:evenodd;clip-rule:evenodd;fill:#FFFFFF;}
</style>
<path class="st0" d="M131.2,108.2H68.7c-3.8,0-6.9-3.1-6.9-6.9v0.9c0,3.8,3.1,6.9,6.9,6.9h62.6c3.8,0,6.9-3.1,6.9-6.9v-0.9
	C138.2,105,135.1,108.2,131.2,108.2z"/>
<g>
	<path class="st1" d="M131.2,32.6H68.7c-3.8,0-6.9,3.1-6.9,6.9v62.6c0,3.8,3.1,6.9,6.9,6.9h62.6c3.8,0,6.9-3.1,6.9-6.9V39.5
		C138.2,35.7,135.1,32.6,131.2,32.6z"/>
	<path class="st2" d="M131.2,32.6H68.7c-3.8,0-6.9,3.1-6.9,6.9v0.9c0-3.8,3.1-6.9,6.9-6.9h62.6c3.8,0,6.9,3.1,6.9,6.9v-0.9
		C138.2,35.7,135.1,32.6,131.2,32.6z"/>
	<path class="st3" d="M105.2,63.9c-8.7,0-8.7-2.6-8.7-3.5c0-0.9,0-3.5,5.2-3.5c5.4,0,15,3.3,15.1,3.4l2.3,0.8v-14l-1-0.4
		c-0.3-0.1-8.1-3.6-18.1-3.6c-10.1,0-20.9,6.1-20.9,17.4c0,12.7,11.7,17.4,19.1,17.4c5.2,0,5.2,2.4,5.2,3.5c0,2-2.2,3.5-5.2,3.5
		c-3.1,0-13.3-2.4-17-3.4l-2.1-0.6v13.7l1,0.5c0.3,0.1,7.2,3.7,18.2,3.7c13.7,0,22.6-6.8,22.6-17.4
		C120.8,69.9,112.9,63.9,105.2,63.9z"/>
	
		<linearGradient id="SVGID_1_" gradientUnits="userSpaceOnUse" x1="91.893" y1="-158.4814" x2="135.8024" y2="-114.572" gradientTransform="matrix(1 0 0 1 0 222)">
		<stop  offset="0" style="stop-color:#020203;stop-opacity:0.1"/>
		<stop  offset="1" style="stop-color:#020203;stop-opacity:0"/>
	</linearGradient>
	<path class="st4" d="M119.1,47.1v14l-2.3-0.8c-0.1,0-9.7-3.4-15.1-3.4c-5.2,0-5.2,2.6-5.2,3.5c0,0.9,0,3.5,8.7,3.5
		c7.7,0,15.6,6,15.6,17.4c0,10.6-8.9,17.4-22.6,17.4c-10.9,0-17.9-3.5-18.2-3.7l-1-0.5L93.8,109h37.6c3.8,0,6.9-3.1,6.9-6.9V66.2
		L119.1,47.1z"/>
	
		<linearGradient id="SVGID_2_" gradientUnits="userSpaceOnUse" x1="55.9959" y1="-171.6882" x2="143.9303" y2="-130.6838" gradientTransform="matrix(1 0 0 1 0 222)">
		<stop  offset="0" style="stop-color:#FFFFFF;stop-opacity:0.2"/>
		<stop  offset="1" style="stop-color:#FFFFFF;stop-opacity:0"/>
	</linearGradient>
	<path class="st5" d="M131.2,32.6H68.7c-3.8,0-6.9,3.1-6.9,6.9v62.6c0,3.8,3.1,6.9,6.9,6.9h62.6c3.8,0,6.9-3.1,6.9-6.9V39.5
		C138.2,35.7,135.1,32.6,131.2,32.6z"/>
</g>
<g id="Page-1">
	<g id="skrill-logo-web-1-rgb">
		<path id="Fill-1" class="st6" d="M125.6,135.1c2.7,0,4.8-2.2,4.8-4.8c0-2.7-2.2-4.8-4.8-4.8c-2.7,0-4.8,2.2-4.8,4.8
			C120.8,133,123,135.1,125.6,135.1L125.6,135.1z M88.7,137.7c-0.2,0.5-1.8,5-5.6,9.5v-19.6l-10.1,2v35.5h10.1v-11
			c2.9,4.4,4.4,11,4.4,11h12.1c-1.2-5-6.4-14.1-6.4-14.1c4.7-5.9,6.7-12.3,7.1-13.3H88.7L88.7,137.7z M115.2,137.4
			c-9,0.3-13.6,4.3-13.6,12.4v15.4h9.9v-12.6c0-4.8,0.6-6.9,6.4-7.1v-8C116.9,137.3,115.2,137.4,115.2,137.4L115.2,137.4z
			 M56.2,141.6c-1.2-0.1-4.1-0.3-4.1-2.8c0-3.1,4.1-3.1,5.7-3.1c2.7,0,6.2,0.8,8.7,1.6c0,0,1.4,0.5,2.6,1l0.1,0v-8.5l-0.2,0
			c-3-1-6.4-2-12.8-2c-11,0-14.9,6.4-14.9,11.9c0,3.2,1.4,10.6,14,11.5c1.1,0.1,3.9,0.2,3.9,2.9c0,2.2-2.3,3.5-6.2,3.5
			c-4.3,0-8.4-1.1-11-2.1v8.8c3.8,1,8,1.5,13,1.5c10.8,0,15.6-6.1,15.6-12.1C70.6,146.7,65.2,142.2,56.2,141.6L56.2,141.6z
			 M120.7,165.2h9.8v-27.4h-9.8V165.2z M148.9,129.4v35.7h9.8v-37.5L148.9,129.4L148.9,129.4z M134.6,129.4l9.8-1.7v37.5h-9.8V129.4
			L134.6,129.4z"/>
	</g>
</g>
</svg>
