<?xml version="1.0" encoding="utf-8"?>
<!-- Generator: Adobe Illustrator 23.1.0, SVG Export Plug-In . SVG Version: 6.00 Build 0)  -->
<svg version="1.1" id="Layer_1" xmlns="http://www.w3.org/2000/svg" xmlns:xlink="http://www.w3.org/1999/xlink" x="0px" y="0px"
	 viewBox="0 0 200 60.9" style="enable-background:new 0 0 200 60.9;" xml:space="preserve">
<style type="text/css">
	.st0{fill:#971C78;}
	.st1{opacity:0.2;fill:#FFFFFF;enable-background:new    ;}
	.st2{fill:#F2F2F2;}
	.st3{fill:url(#SVGID_1_);}
	.st4{fill:url(#SVGID_2_);}
	.st5{fill-rule:evenodd;clip-rule:evenodd;fill:#FFFFFF;}
</style>
<g>
	<g>
		<path class="st0" d="M56.2,0H6.4c-3,0-5.5,2.5-5.5,5.5v49.9c0,3,2.5,5.5,5.5,5.5h49.9c3,0,5.5-2.5,5.5-5.5V5.5
			C61.8,2.5,59.3,0,56.2,0z"/>
		<path class="st1" d="M56.2,0H6.4c-3,0-5.5,2.5-5.5,5.5v0.7c0-3,2.5-5.5,5.5-5.5h49.9c3,0,5.5,2.5,5.5,5.5V5.5
			C61.8,2.5,59.3,0,56.2,0z"/>
		<path class="st2" d="M35.5,25c-6.9,0-6.9-2.1-6.9-2.8c0-0.7,0-2.8,4.1-2.8c4.3,0,12,2.6,12,2.7l1.8,0.6V11.6l-0.8-0.3
			c-0.2-0.1-6.5-2.9-14.4-2.9c-8.1,0-16.7,4.9-16.7,13.9c0,10.1,9.3,13.9,15.2,13.9c4.1,0,4.1,1.9,4.1,2.8c0,1.6-1.8,2.8-4.1,2.8
			c-2.5,0-10.6-1.9-13.6-2.7l-1.7-0.5v10.9l0.8,0.4c0.2,0.1,5.7,3,14.5,3c10.9,0,18-5.4,18-13.9C47.9,29.7,41.6,25,35.5,25z"/>
		
			<linearGradient id="SVGID_1_" gradientUnits="userSpaceOnUse" x1="24.8816" y1="260.221" x2="59.8866" y2="225.216" gradientTransform="matrix(1 0 0 -1 0 284.9203)">
			<stop  offset="0" style="stop-color:#020203;stop-opacity:0.1"/>
			<stop  offset="1" style="stop-color:#020203;stop-opacity:0"/>
		</linearGradient>
		<path class="st3" d="M46.6,11.6v11.2l-1.8-0.6c-0.1,0-7.7-2.7-12-2.7c-4.1,0-4.1,2.1-4.1,2.8c0,0.7,0,2.8,6.9,2.8
			c6.1,0,12.4,4.8,12.4,13.9c0,8.5-7.1,13.9-18,13.9c-8.7,0-14.3-2.8-14.5-3l-0.8-0.4l11.8,11.6h30c3,0,5.5-2.5,5.5-5.5V26.8
			L46.6,11.6z"/>
		
			<linearGradient id="SVGID_2_" gradientUnits="userSpaceOnUse" x1="-3.6877" y1="270.7961" x2="66.4025" y2="238.1125" gradientTransform="matrix(1 0 0 -1 0 284.9203)">
			<stop  offset="0" style="stop-color:#FFFFFF;stop-opacity:0.2"/>
			<stop  offset="1" style="stop-color:#FFFFFF;stop-opacity:0"/>
		</linearGradient>
		<path class="st4" d="M56.2,0H6.4c-3,0-5.5,2.5-5.5,5.5v49.9c0,3,2.5,5.5,5.5,5.5h49.9c3,0,5.5-2.5,5.5-5.5V5.5
			C61.8,2.5,59.3,0,56.2,0z"/>
	</g>
	<g id="Page-1">
		<g id="skrill-logo-web-1-rgb">
			<path id="Fill-1" class="st5" d="M166,19.3c2.7,0,4.8-2.2,4.8-4.8c0-2.7-2.2-4.8-4.8-4.8c-2.7,0-4.8,2.2-4.8,4.8
				C161.2,17.2,163.4,19.3,166,19.3L166,19.3z M129.1,21.9c-0.2,0.5-1.8,5-5.6,9.5V11.8l-10.1,2v35.5h10.1v-11
				c2.9,4.4,4.4,11,4.4,11H140c-1.2-5-6.4-14.1-6.4-14.1c4.7-5.9,6.7-12.3,7.1-13.3H129.1L129.1,21.9z M155.6,21.6
				c-9,0.3-13.6,4.3-13.6,12.4v15.4h9.9V36.8c0-4.8,0.6-6.9,6.4-7.1v-8C157.3,21.5,155.6,21.6,155.6,21.6L155.6,21.6z M96.6,25.8
				c-1.2-0.1-4.1-0.3-4.1-2.8c0-3.1,4.1-3.1,5.7-3.1c2.7,0,6.2,0.8,8.7,1.6c0,0,1.4,0.5,2.6,1h0.1V14h-0.2c-3-1-6.4-2-12.8-2
				c-11,0-14.9,6.4-14.9,11.9c0,3.2,1.4,10.6,14,11.5c1.1,0.1,3.9,0.2,3.9,2.9c0,2.2-2.3,3.5-6.2,3.5c-4.3,0-8.4-1.1-11-2.1v8.8
				c3.8,1,8,1.5,13,1.5c10.8,0,15.6-6.1,15.6-12.1C111,30.9,105.6,26.4,96.6,25.8L96.6,25.8z M161.1,49.4h9.8V22h-9.8V49.4z
				 M189.3,13.6v35.7h9.8V11.8L189.3,13.6L189.3,13.6z M175,13.6l9.8-1.7v37.5H175V13.6L175,13.6z"/>
		</g>
	</g>
</g>
</svg>
