<svg xmlns="http://www.w3.org/2000/svg" width="104.396" height="104.396" viewBox="0 0 104.396 104.396"><defs><style>.a{fill:#3d3d3d;}</style></defs><g transform="translate(21.036 25.733)"><path class="a" d="M121.481,93.981H95.8V55.72l11.327-6.42V63.08h14.354a4.823,4.823,0,0,1,4.8,4.8v21.3a4.776,4.776,0,0,1-1.409,3.393A4.653,4.653,0,0,1,121.481,93.981ZM98.41,91.371h23.071a2.139,2.139,0,0,0,2.14-2.14V67.882a2.206,2.206,0,0,0-2.192-2.192H104.465v-11.9l-6.107,3.445V91.371Zm16.077-4.7H104.465V70.492h10.022a3.141,3.141,0,0,1,3.132,3.132v9.918A3.141,3.141,0,0,1,114.487,86.674Zm-7.412-2.61h7.412v0a.523.523,0,0,0,.522-.522V73.624a.523.523,0,0,0-.522-.522h-7.412V84.064Z" transform="translate(-66.83 -49.3)"/><path class="a" d="M71.566,106.649H45.885a4.823,4.823,0,0,1-4.8-4.8V91.407a4.823,4.823,0,0,1,4.8-4.8H60.24v-.626a.471.471,0,0,0-.052-.261.662.662,0,0,0-.313-.052H40.3l5.794-3.184L58.1,75.8h8.665v0h0a4.812,4.812,0,0,1,4.8,4.8ZM45.885,89.215a2.206,2.206,0,0,0-2.192,2.192v10.44a2.206,2.206,0,0,0,2.192,2.192H68.957V80.55a2.139,2.139,0,0,0-2.14-2.14H58.83l-8.4,4.7h9.4a3.443,3.443,0,0,1,2.088.679l.157.1.1.157a3.051,3.051,0,0,1,.679,2.088v3.184H45.885Zm6.942,10.7A3.141,3.141,0,0,1,49.7,96.783V94.8a3.12,3.12,0,0,1,.94-2.245,3.154,3.154,0,0,1,2.245-.94H62.9v8.3Zm.052-5.637a.477.477,0,0,0-.365.157.6.6,0,0,0-.157.365v1.984a.523.523,0,0,0,.522.522h7.412V94.278Z" transform="translate(-40.3 -61.968)"/></g><path class="a" d="M52.2,2.61A49.588,49.588,0,1,1,2.61,52.2,49.633,49.633,0,0,1,52.2,2.61M52.2,0a52.2,52.2,0,1,0,52.2,52.2A52.217,52.217,0,0,0,52.2,0Z"/><g transform="translate(1.514 1.201)"><path class="a" d="M54.889,2.3h-2.61v9.448a40.9,40.9,0,0,0-20.044,5.9L27.12,9.712l-2.192,1.409,5.115,7.934A41.692,41.692,0,0,0,16.315,34.819L7.7,30.9l-1.1,2.349,8.613,3.915a41.318,41.318,0,0,0-3.236,16.077,46.187,46.187,0,0,0,.261,4.646L2.9,59.248l.365,2.558,9.343-1.357a41.2,41.2,0,0,0,8.665,19L14.123,85.66l1.723,1.984,7.2-6.159A41.655,41.655,0,0,0,40.639,92.811l-2.662,9.082,2.505.731,2.662-9.082a40.584,40.584,0,0,0,10.44,1.3,43,43,0,0,0,10.44-1.3l2.662,9.082,2.505-.731-2.662-9.082A41.655,41.655,0,0,0,84.12,81.484L91.271,87.7l1.723-1.984L85.842,79.5a40.92,40.92,0,0,0,8.665-19l9.343,1.357.365-2.558-9.343-1.357a45.337,45.337,0,0,0,.261-4.646A41.318,41.318,0,0,0,91.9,37.22l8.613-3.915-1.1-2.349L90.8,34.871A41.714,41.714,0,0,0,77.125,19.055l5.115-7.934L80.048,9.712l-5.115,7.934a41.618,41.618,0,0,0-20.044-5.9V2.3Zm-1.3,90.041a40.316,40.316,0,0,1-9.761-1.2c-.052,0-.1-.052-.157-.052-.418-.1-.835-.261-1.253-.365a8.995,8.995,0,0,1-1.1-.365,38.99,38.99,0,0,1-16.39-10.544c-.261-.261-.47-.522-.731-.783-.1-.1-.209-.261-.313-.365-.209-.261-.47-.522-.679-.783a39.04,39.04,0,0,1-8.091-17.7c-.157-.835-.261-1.723-.365-2.558a38.462,38.462,0,0,1-.261-4.28,39,39,0,0,1,2.975-15.033,5.268,5.268,0,0,1,.365-.783c.1-.209.157-.365.261-.574.157-.313.313-.679.47-.992A39.873,39.873,0,0,1,31.3,21.248c.313-.209.574-.418.887-.626a4.814,4.814,0,0,1,.418-.261c.261-.157.574-.365.835-.522a38.5,38.5,0,0,1,18.687-5.481c.418,0,.887-.052,1.3-.052a10.911,10.911,0,0,1,1.3.052,38.5,38.5,0,0,1,18.687,5.481c.261.157.574.365.835.522a4.816,4.816,0,0,0,.418.261c.313.209.626.418.887.626A39.4,39.4,0,0,1,88.3,35.968c.157.313.313.679.47.992.1.209.157.365.261.574.1.261.261.522.365.783a39,39,0,0,1,2.975,15.033,38.46,38.46,0,0,1-.261,4.28c-.1.887-.209,1.723-.365,2.558a38.5,38.5,0,0,1-8.091,17.7c-.209.261-.47.522-.679.783-.1.1-.209.261-.313.365-.261.261-.47.522-.731.783a38.669,38.669,0,0,1-16.39,10.544,9,9,0,0,0-1.1.365c-.418.1-.835.261-1.253.365-.052,0-.1.052-.157.052a36,36,0,0,1-9.448,1.2Z" transform="translate(-2.9 -2.3)"/></g></svg>