<svg xmlns="http://www.w3.org/2000/svg" width="24" height="24" viewBox="0 0 24 24">
  <path fill="#E5E5E5" fill-rule="evenodd" d="M13.4141,12 L23.7071,1.707 C24.0981,1.316 24.0981,0.684 23.7071,0.293 C23.3161,-0.098 22.6841,-0.098 22.2931,0.293 L12.0001,10.586 L1.7071,0.293 C1.3161,-0.098 0.6841,-0.098 0.2931,0.293 C-0.0979,0.684 -0.0979,1.316 0.2931,1.707 L10.5861,12 L0.2931,22.293 C-0.0979,22.684 -0.0979,23.316 0.2931,23.707 C0.4881,23.902 0.7441,24 1.0001,24 C1.2561,24 1.5121,23.902 1.7071,23.707 L12.0001,13.414 L22.2931,23.707 C22.4881,23.902 22.7441,24 23.0001,24 C23.2561,24 23.5121,23.902 23.7071,23.707 C24.0981,23.316 24.0981,22.684 23.7071,22.293 L13.4141,12 Z"/>
</svg>
