<svg xmlns="http://www.w3.org/2000/svg" width="37" height="32" viewBox="0 0 37 32">
  <path fill="#010002" d="M34.0011051,2.03454655 L33.8796396,1.72646246 C33.8760841,1.71762162 33.8692613,1.71031832 33.8605165,1.70637838 L33.558967,1.56944144 C31.0766126,0.441945946 27.5751592,0.163747748 24.4772132,0.0404564565 L20.987964,0.0404564565 C20.9485646,0.0404564565 20.9365526,0.0936936937 20.972012,0.110702703 L28.1392432,3.54681081 C28.1796997,3.56612613 28.1573093,3.62628228 28.1138739,3.61494294 C24.8905225,2.77314114 21.6342102,2.34705105 18.4187387,2.34705105 C15.2136456,2.34705105 11.9679039,2.77054655 8.75445045,3.60696697 C8.71072673,3.61830631 8.68852853,3.55747748 8.72956156,3.53854655 L16.1482763,0.111087087 C16.1842162,0.0944624625 16.1724925,0.0406486486 16.1328048,0.0406486486 L12.3603604,0.0406486486 C9.26251051,0.16393994 5.76086486,0.442138138 3.27860661,1.56963363 L2.97705706,1.70657057 C2.96831231,1.71051051 2.96139339,1.71771772 2.95793393,1.72665465 L2.83646847,2.03473874 C0.296072072,8.47183183 -0.425801802,19.3997838 0.344024024,26.2457658 L0.384384384,26.6047808 L0.669981982,26.8262823 C4.63855856,29.9036637 9.94508108,31.4858859 13.2833634,31.9057297 L13.715027,31.960024 C13.8553273,31.9777057 13.9893814,31.8966006 14.038967,31.7641802 L16.2116997,25.9593033 C16.2794474,25.7783544 16.1641321,25.5807808 15.9732853,25.5507988 L15.3065706,25.4460541 C12.9817177,25.0807928 9.68783183,24.1125285 6.90421622,21.5880841 C6.84482883,21.5341742 6.9021021,21.4373093 6.97724925,21.4651772 C7.20345946,21.5492613 7.45292492,21.6467027 7.70978979,21.747027 C8.33921922,21.9929369 8.99017417,22.2472072 9.41491892,22.3481081 C12.400048,23.0578739 15.4271712,23.4178498 18.4185465,23.4178498 L18.4185465,23.3646126 L18.4247928,23.3646126 L18.4251772,23.4178498 C21.4104985,23.4178498 24.4375255,23.05797 27.4223664,22.3481081 C27.8473033,22.2471111 28.4982583,21.9929369 29.1277838,21.7469309 C29.3844565,21.6466066 29.6338258,21.5491652 29.8599399,21.4651772 C29.9350871,21.4373093 29.9923604,21.5342703 29.932973,21.5880841 C27.1586787,24.1013814 23.8606607,25.0671471 21.5306186,25.4321201 L20.8640961,25.5364805 C20.6732492,25.5663664 20.5577417,25.7637477 20.6253934,25.9446967 L22.7985105,31.7638919 C22.848,31.8964084 22.9821502,31.9776096 23.1224505,31.9599279 L23.5544985,31.9056336 C26.8925886,31.4857898 32.1987267,29.9035676 36.1673994,26.8261862 L36.452997,26.6046847 L36.4933574,26.2456697 C37.2632793,19.3997838 36.5414054,8.47173574 34.0011051,2.03454655 Z M11.3272312,17.8387027 C8.62856456,18.0793273 6.37712913,15.8280841 6.61746547,13.1294174 C6.80177778,11.0607568 8.46750751,9.39483483 10.5362643,9.21033033 C13.2349309,8.96970571 15.4863664,11.2209489 15.24603,13.9196156 C15.0616216,15.9882763 13.3958919,17.6541982 11.3272312,17.8387027 Z M26.3015015,17.8387027 C23.6028348,18.0793273 21.3513994,15.8280841 21.5917357,13.1294174 C21.776048,11.0607568 23.4417778,9.39483483 25.5105345,9.21033033 C28.2091051,8.96970571 30.4606366,11.2209489 30.2203003,13.9196156 C30.0358919,15.9882763 28.3701622,17.6541982 26.3015015,17.8387027 Z"/>
</svg>
