<svg xmlns="http://www.w3.org/2000/svg" width="40" height="32" viewBox="0 0 40 32">
  <path fill="#010002" d="M39.3253012,3.80774297 C37.8779116,4.44909237 36.3248835,4.88404819 34.6931406,5.07823293 C36.359261,4.08051406 37.6346345,2.49799197 38.2391004,0.618088353 C36.676241,1.54204016 34.9511325,2.21294779 33.112996,2.57664257 C31.6410602,1.00639357 29.5473735,0.0283373494 27.2251245,0.0283373494 C22.7699277,0.0283373494 19.1575904,3.6406747 19.1575904,8.09342972 C19.1575904,8.72494779 19.2288514,9.341751 19.36649,9.93156627 C12.6628112,9.59485944 6.71845783,6.3831004 2.73998394,1.50271486 C2.04453012,2.69211245 1.6488996,4.07800803 1.6488996,5.55739759 C1.6488996,8.35636948 3.07418474,10.8260241 5.23669076,12.2709076 C3.91460241,12.2266988 2.67116466,11.863004 1.58258635,11.2584739 L1.58258635,11.3592289 C1.58258635,15.2664418 4.36433735,18.5273574 8.05281928,19.2695261 C7.37702811,19.4513735 6.66441767,19.5521285 5.92719679,19.5521285 C5.40626506,19.5521285 4.90248996,19.5005301 4.40854618,19.4022169 C5.43569478,22.6090924 8.41407229,24.9411084 11.9428755,25.0050442 C9.18322892,27.1675502 5.70358233,28.452755 1.92417671,28.452755 C1.27299598,28.452755 0.631582329,28.4134297 6.42570281e-05,28.3421687 C3.57063454,30.6349237 7.80960643,31.9717269 12.3655582,31.9717269 C27.2055904,31.9717269 35.3173976,19.6799357 35.3173976,9.01988755 L35.2903454,7.97551807 C36.8753092,6.84504418 38.24649,5.42470683 39.3253012,3.80774297 Z"/>
</svg>
